<svg width="173" height="172" viewBox="0 0 173 172" fill="none" xmlns="http://www.w3.org/2000/svg">
<path d="M171 86.0007L170.959 85.8803L170.837 85.7613L170.634 85.6449L170.35 85.5325L169.985 85.4254L169.541 85.3248L169.016 85.232L168.413 85.1483L167.731 85.075L166.972 85.0133L166.136 84.9644L165.225 84.9294L164.239 84.9095L163.179 84.9059L162.048 84.9196L160.846 84.9516L159.574 85.003L158.234 85.0747L156.828 85.1678L155.358 85.283L153.824 85.4212L152.229 85.5832L150.575 85.7698L148.864 85.9816L147.097 86.2193L145.277 86.4834L143.405 86.7746L141.484 87.0932L139.517 87.4397L137.505 87.8144L135.45 88.2177L133.356 88.6498L131.224 89.1107L129.057 89.6008L126.858 90.1199L124.628 90.6681L122.371 91.2453L120.088 91.8514L117.783 92.4861L115.458 93.1491L113.116 93.8402L110.759 94.5588L108.391 95.3046L106.012 96.0769L103.627 96.8753L101.238 97.699L98.8467 98.5472L96.4568 99.4193L94.0704 100.314L91.6903 101.231L89.3189 102.169L86.9587 103.128L84.6124 104.105L82.2822 105.1L79.9708 106.111L77.6804 107.138L75.4135 108.179L73.1725 109.233L70.9594 110.298L68.7766 111.374L66.6264 112.457L64.5107 113.548L62.4317 114.644L60.3914 115.744L58.3918 116.846L56.4347 117.948L54.522 119.05L52.6554 120.148L50.8366 121.242L49.0673 122.33L47.349 123.41L45.6831 124.479L44.0711 125.538L42.5142 126.582L41.0138 127.612L39.571 128.624L38.1868 129.618L36.8623 130.591L35.5983 131.541L34.3957 132.467L33.2553 133.367L32.1776 134.239L31.1634 135.082L30.213 135.893L29.3268 136.671L28.5053 137.415L27.7485 138.122L27.0568 138.791L26.43 139.42L25.8682 140.009L25.3713 140.554L24.9391 141.056L24.5713 141.512L24.2676 141.921L24.0275 142.281L23.8505 142.592L23.736 142.853L23.6834 143.061L23.6919 143.216L23.7606 143.317L23.8888 143.363L24.0754 143.353L24.3193 143.286L24.6196 143.162L24.9751 142.979L25.3844 142.737L25.8464 142.435L26.3597 142.073L26.9229 141.651L27.5346 141.168L28.1933 140.624L28.8974 140.019L29.6453 139.353L30.4355 138.625L31.2662 137.835L32.1358 136.985L33.0424 136.073L33.9845 135.101L34.96 134.069L35.9673 132.977L37.0045 131.826L38.0696 130.617L39.161 129.349L40.2766 128.025L41.4145 126.644L42.5729 125.209L43.7498 123.719L44.9433 122.176L46.1516 120.582L47.3727 118.937L48.6047 117.244L49.8457 115.502L51.0939 113.715L52.3475 111.883L53.6044 110.008L54.8631 108.092L56.1216 106.136L57.3782 104.143L58.6313 102.114L59.879 100.052L61.1197 97.9577L62.3519 95.8341L63.5738 93.6831L64.784 91.5067L65.981 89.3073L67.1634 87.0871L68.3296 84.8485L69.4784 82.5937L70.6085 80.3251L71.7186 78.0453L72.8075 75.7565L73.8741 73.4612L74.9174 71.162L75.9362 68.8614L76.9297 66.5619L77.8969 64.2659L78.837 61.9762L79.7492 59.6951L80.633 57.4253L81.4875 55.1693L82.3122 52.9297L83.1067 50.7091L83.8705 48.5098L84.6032 46.3345L85.3045 44.1857L85.9742 42.0659L86.6121 39.9774L87.2181 37.9227L87.7922 35.9043L88.3344 33.9245L88.8447 31.9856L89.3235 30.0899L89.7708 28.2396L90.1869 26.437L90.5722 24.6841L90.9272 22.9832L91.2523 21.3361L91.5479 19.745L91.8148 18.2117L92.0535 16.7381L92.2647 15.326L92.4492 13.9771L92.6077 12.693L92.7412 11.4754L92.8505 10.3257L92.9365 9.24541L93.0002 8.23584L93.0427 7.29826L93.065 6.43386L93.0681 5.64375L93.0533 4.92893L93.0217 4.29033L92.9744 3.72879L92.9128 3.24507L92.8379 2.83982L92.7512 2.5136L92.6538 2.26689L92.5471 2.10006L92.4324 2.01341L92.311 2.00713L92.1842 2.0813L92.0534 2.23593L91.9199 2.47093L91.785 2.7861L91.6501 3.18116L91.5165 3.65573L91.3856 4.20934L91.2586 4.84142L91.1369 5.5513L91.0217 6.33824L90.9144 7.20141L90.816 8.13984L90.728 9.15254L90.6514 10.2384L90.5875 11.3962L90.5374 12.6247L90.5022 13.9224L90.4829 15.2881L90.4807 16.7201L90.4964 18.2168L90.531 19.7766L90.5855 21.3978L90.6607 23.0784L90.7575 24.8166L90.8765 26.6105L91.0186 28.4581L91.1843 30.3572L91.3743 32.3057L91.5892 34.3015L91.8294 36.3423L92.0953 38.4258L92.3874 40.5497L92.706 42.7116L93.0513 44.9091L93.4236 47.1396L93.8229 49.4009L94.2493 51.6902L94.7029 54.0051L95.1835 56.343L95.6911 58.7014L96.2255 61.0775L96.7864 63.4688L97.3735 65.8727L97.9865 68.2864L98.6248 70.7075L99.288 73.1332L99.9756 75.5609L100.687 77.9879L101.421 80.4118L102.177 82.8297L102.955 85.2393L103.753 87.6378L104.571 90.0227L105.408 92.3916L106.262 94.742L107.133 97.0713L108.019 99.3773L108.919 101.657L109.831 103.909L110.756 106.131L111.691 108.32L112.634 110.474L113.585 112.591L114.542 114.669L115.503 116.706L116.467 118.7L117.433 120.649L118.398 122.551L119.362 124.404L120.321 126.208L121.276 127.959L122.224 129.657L123.163 131.3L124.092 132.887L125.009 134.416L125.912 135.887L126.799 137.297L127.669 138.647L128.521 139.934L129.351 141.158L130.159 142.319L130.943 143.414L131.7 144.445L132.43 145.41L133.131 146.309L133.801 147.141L134.438 147.906L135.041 148.604L135.608 149.235L136.138 149.798L136.628 150.294L137.079 150.723L137.487 151.085L137.853 151.38L138.174 151.609L138.449 151.772L138.677 151.87L138.856 151.903L138.987 151.873L139.066 151.778L139.095 151.622L139.07 151.404L138.993 151.126L138.861 150.788L138.674 150.392L138.431 149.939L138.132 149.43L137.776 148.867L137.363 148.25L136.892 147.582L136.363 146.864L135.776 146.097L135.13 145.283L134.425 144.423L133.662 143.52L132.84 142.574L131.96 141.589L131.022 140.564L130.025 139.504L128.971 138.408L127.861 137.279L126.693 136.12L125.47 134.931L124.192 133.715L122.86 132.473L121.474 131.209L120.035 129.923L118.545 128.618L117.005 127.295L115.416 125.957L113.779 124.606L112.095 123.243L110.366 121.871L108.594 120.491L106.779 119.105L104.925 117.716L103.031 116.325L101.101 114.934L99.1349 113.545L97.136 112.16L95.1058 110.78L93.0462 109.407L90.9594 108.043L88.8474 106.69L86.7124 105.349L84.5565 104.022L82.3821 102.71L80.1913 101.415L77.9866 100.139L75.7702 98.8816L73.5445 97.6455L71.312 96.4316L69.0751 95.2412L66.8362 94.0754L64.5978 92.9353L62.3624 91.822L60.1326 90.7365L57.9107 89.6796L55.6995 88.6523L53.5012 87.6552L51.3186 86.6892L49.1541 85.7548L47.0102 84.8527L44.8894 83.9835L42.7942 83.1474L40.7271 82.3449L38.6905 81.5764L36.6868 80.8421L34.7184 80.1421L32.7878 79.4766L30.8971 78.8456L29.0488 78.2491L27.245 77.687L25.488 77.1592L23.78 76.6654L22.1229 76.2054L20.519 75.7787L18.9702 75.3851L17.4784 75.0241L16.0456 74.695L14.6735 74.3974L13.364 74.1306L12.1186 73.8939L10.9391 73.6865L9.82688 73.5077L8.78351 73.3566L7.81035 73.2324L6.90872 73.134L6.07983 73.0606L5.32484 73.011L4.64481 72.9843L4.0407 72.9793L3.51341 72.9949L3.06373 73.03L2.69236 73.0832L2.39993 73.1535L2.18695 73.2396L2.05385 73.3402L2.00097 73.4541L2.02854 73.5798L2.13671 73.7162L2.32554 73.8619L2.59497 74.0155L2.94486 74.1758L3.37498 74.3413L3.88498 74.5107L4.47445 74.6827L5.14286 74.856L5.88959 75.0291L6.71393 75.2009L7.6151 75.3699L8.59217 75.5349L9.64417 75.6946L10.77 75.8478L11.9686 75.9932L13.2386 76.1296L14.5787 76.2558L15.9875 76.3708L17.4635 76.4732L19.0051 76.5622L20.6107 76.6366L22.2786 76.6955L24.0068 76.7377L25.7936 76.7626L27.637 76.769L29.5351 76.7563L31.4856 76.7237L33.4866 76.6703L35.5357 76.5956L37.6308 76.4988L39.7696 76.3795L41.9497 76.2371L44.1687 76.0711L46.4242 75.8811L48.7137 75.6668L51.0347 75.4279L53.3846 75.1641L55.7609 74.8754L58.161 74.5615L60.5822 74.2226L63.0219 73.8584L65.4775 73.4693L67.9462 73.0553L70.4253 72.6166L72.9123 72.1536L75.4043 71.6664L77.8988 71.1556L80.3929 70.6216L82.884 70.0649L85.3695 69.4862L87.8467 68.886L90.313 68.2651L92.7657 67.6242L95.2022 66.9641L97.6201 66.2858L100.017 65.5901L102.389 64.8781L104.736 64.1507L107.054 63.4091L109.341 62.6545L111.595 61.8879L113.813 61.1106L115.993 60.3239L118.133 59.5292L120.231 58.7277L122.285 57.9208L124.293 57.1101L126.253 56.2969L128.162 55.4827L130.02 54.669L131.825 53.8575L133.574 53.0496L135.267 52.247L136.901 51.4512L138.476 50.6639L139.99 49.8868L141.442 49.1213L142.83 48.3693L144.154 47.6323L145.413 46.912L146.605 46.2101L147.73 45.5282L148.787 44.868L149.776 44.231L150.695 43.619L151.545 43.0334L152.325 42.476L153.035 41.9482L153.674 41.4516L154.242 40.9878L154.74 40.5581L155.168 40.1641L155.525 39.8072L155.812 39.4887L156.029 39.21L156.176 38.9723L156.255 38.777L156.266 38.6253L156.208 38.5182L156.084 38.4569L155.893 38.4425L155.638 38.4759L155.318 38.5581L154.935 38.6898L154.489 38.8721L153.983 39.1055L153.417 39.3907L152.793 39.7285L152.112 40.1192L151.375 40.5635L150.584 41.0616L149.741 41.614L148.846 42.2208L147.903 42.8822L146.912 43.5984L145.876 44.3693L144.795 45.195L143.672 46.0752L142.51 47.0098L141.308 47.9984L140.071 49.0408L138.799 50.1364L137.494 51.2847L136.16 52.4851L134.797 53.737L133.407 55.0395L131.993 56.3918L130.557 57.7931L129.101 59.2422L127.627 60.7382L126.137 62.2799L124.633 63.866L123.118 65.4953L121.592 67.1664L120.059 68.8778L118.52 70.6281L116.978 72.4158L115.434 74.2391L113.89 76.0963L112.349 77.9858L110.811 79.9056L109.28 81.854L107.757 83.8289L106.243 85.8285L104.741 87.8507L103.252 89.8933L101.778 91.9544L100.321 94.0317L98.8817 96.1229L97.4623 98.226L96.064 100.339L94.6883 102.458L93.3366 104.583L92.0103 106.71L90.7105 108.838L89.4385 110.963L88.1955 113.083L86.9825 115.196L85.8004 117.3L84.6504 119.392L83.5331 121.469L82.4495 123.53L81.4003 125.571L80.3861 127.591L79.4076 129.587L78.4653 131.556L77.5597 133.496L76.691 135.405L75.8598 137.28L75.0662 139.119L74.3103 140.92L73.5924 142.681L72.9125 144.399L72.2704 146.072L71.6663 147.699L71.0997 149.276L70.5707 150.802L70.0788 152.275L69.6237 153.693L69.205 155.054L68.8222 156.357L68.4747 157.599L68.162 158.779L67.8834 159.896L67.6381 160.947L67.4255 161.931L67.2447 162.847L67.0947 163.694L66.9748 164.47L66.8839 165.174L66.821 165.805L66.7851 166.362L66.7751 166.845L66.7898 167.251L66.8281 167.582L66.8887 167.835L66.9705 168.01L67.0723 168.107L67.1926 168.126L67.3303 168.066L67.4839 167.927L67.6522 167.709L67.8338 167.412L68.0274 167.036L68.2315 166.581L68.4447 166.048L68.6658 165.437L68.8933 164.747L69.1258 163.981L69.3619 163.138L69.6004 162.22L69.8397 161.226L70.0786 160.159L70.3157 159.019L70.5497 157.806L70.7793 156.524L71.0032 155.171L71.2203 153.751L71.4292 152.264L71.6288 150.713L71.8179 149.097L71.9953 147.42L72.1601 145.683L72.3112 143.888L72.4474 142.036L72.568 140.13L72.6719 138.172L72.7583 136.163L72.8264 134.107L72.8753 132.004L72.9044 129.858L72.913 127.67L72.9005 125.444L72.8663 123.181L72.8099 120.883L72.7309 118.555L72.6289 116.197L72.5035 113.812L72.3545 111.404L72.1817 108.974L71.985 106.525L71.7642 104.06L71.5194 101.582L71.2506 99.0931L70.9579 96.5961L70.6414 94.0936L70.3015 91.5885L69.9384 89.0834L69.5524 86.5809L69.1441 84.0838L68.7138 81.5948L68.2622 79.1164L67.7897 76.6513L67.2972 74.2022L66.7853 71.7716L66.2547 69.362L65.7064 66.976L65.1412 64.6162L64.56 62.2848L63.9639 59.9844L63.3539 57.7174L62.7311 55.4859L62.0966 53.2924L61.4516 51.139L60.7973 49.0279L60.1351 46.9612L59.4662 44.9409L58.7919 42.969L58.1136 41.0475L57.4328 39.1781L56.7509 37.3627L56.0693 35.603L55.3896 33.9005L54.7132 32.2569L54.0417 30.6736L53.3767 29.1521L52.7197 27.6935L52.0722 26.2993L51.436 24.9705L50.8125 23.7081L50.2034 22.5132L49.6102 21.3867L49.0347 20.3294L48.4782 19.3419L47.9425 18.4249L47.4291 17.579L46.9396 16.8046L46.4754 16.102L46.0383 15.4716L45.6295 14.9134L45.2507 14.4277L44.9032 14.0143L44.5885 13.6732L44.3079 13.4043L44.0629 13.2072L43.8547 13.0816L43.6847 13.027L43.5539 13.043L43.4637 13.129L43.4152 13.2841L43.4093 13.5078L43.4473 13.799L43.5301 14.1569L43.6585 14.5805L43.8335 15.0687L44.0558 15.6203L44.3263 16.2341L44.6455 16.9089L45.0141 17.6431L45.4326 18.4356L45.9016 19.2846L46.4213 20.1888L46.9923 21.1464L47.6146 22.1558L48.2886 23.2154L49.0142 24.3233L49.7917 25.4778L50.6208 26.677L51.5016 27.919L52.4337 29.2019L53.4171 30.5237L54.4512 31.8824L55.5357 33.276L56.6701 34.7025L57.8537 36.1597L59.086 37.6457L60.3662 39.1582L61.6935 40.6951L63.067 42.2544L64.4857 43.8339L65.9486 45.4314L67.4547 47.0448L69.0026 48.672L70.5911 50.3108L72.219 51.959L73.8848 53.6147L75.587 55.2756L77.3242 56.9397L79.0947 58.6049L80.8969 60.2692L82.729 61.9306L84.5893 63.587L86.476 65.2365L88.3872 66.8773L90.3209 68.5074L92.2752 70.1249L94.2479 71.7281L96.2371 73.3152L98.2407 74.8844L100.256 76.4342L102.282 77.9629L104.315 79.469L106.354 80.9509L108.397 82.4071L110.44 83.8364L112.481 85.2373L114.519 86.6086L116.551 87.9491L118.574 89.2576L120.586 90.533L122.585 91.7744L124.568 92.9808L126.533 94.1512L128.478 95.285L130.399 96.3814L132.296 97.4396L134.165 98.4592L136.004 99.4395L137.811 100.38L139.583 101.281L141.318 102.141L143.015 102.96L144.67 103.739L146.282 104.477L147.848 105.174L149.367 105.83L150.835 106.445L152.253 107.02L153.616 107.554L154.925 108.049L156.175 108.503L157.367 108.919L158.498 109.296L159.567 109.634L160.572 109.935L161.511 110.199L162.383 110.427L163.187 110.62L163.921 110.778L164.585 110.903L165.177 110.995L165.695 111.055L166.14 111.085L166.51 111.085L166.805 111.057L167.023 111.002L167.165 110.92L167.229 110.814L167.215 110.684L167.124 110.531L166.954 110.358L166.705 110.165L166.378 109.954L165.972 109.726L165.488 109.482L164.926 109.223L164.285 108.953L163.568 108.67L162.773 108.378L161.902 108.077L160.956 107.769L159.935 107.456L158.84 107.138L157.671 106.817L156.431 106.494L155.12 106.171L153.74 105.849L152.291 105.53L150.776 105.215L149.195 104.904L147.55 104.6L145.843 104.304L144.076 104.016L142.251 103.738L140.368 103.471L138.431 103.216L136.441 102.974L134.4 102.746L132.31 102.533L130.174 102.336L127.994 102.156L125.772 101.993L123.511 101.849L121.212 101.724L118.879 101.619L116.514 101.534L114.119 101.47L111.696 101.427L109.25 101.406L106.781 101.407L104.293 101.43L101.789 101.477L99.2705 101.546L96.741 101.638L94.2031 101.753L91.6594 101.891L89.1127 102.052L86.5658 102.236L84.0213 102.442L81.4819 102.671L78.9505 102.923L76.4296 103.195L73.922 103.489L71.4304 103.804L68.9573 104.14L66.5055 104.494L64.0774 104.868L61.6756 105.26L59.3027 105.67L56.9611 106.096L54.6533 106.538L52.3817 106.994L50.1486 107.465L47.9562 107.948L45.807 108.444L43.7029 108.949L41.6461 109.464L39.6388 109.988L37.6828 110.518L35.7802 111.055L33.9327 111.595L32.1422 112.139L30.4104 112.684L28.7389 113.23L27.1292 113.775L25.5829 114.317L24.1014 114.855L22.6859 115.388L21.3377 115.914L20.0579 116.431L18.8476 116.938L17.7078 117.434L16.6394 117.917L15.643 118.385L14.7196 118.838L13.8695 119.273L13.0935 119.688L12.3918 120.083L11.7649 120.457L11.2129 120.806L10.7361 121.131L10.3344 121.429L10.0079 121.7L9.75643 121.941L9.57976 122.152L9.47759 122.332L9.44952 122.478L9.49509 122.59L9.61371 122.667L9.80473 122.706L10.0674 122.709L10.4009 122.672L10.8043 122.596L11.2767 122.478L11.817 122.32L12.4239 122.118L13.0964 121.873L13.8331 121.585L14.6327 121.251L15.4937 120.872L16.4147 120.448L17.394 119.977L18.4301 119.459L19.5212 118.894L20.6657 118.282L21.8617 117.622L23.1075 116.914L24.401 116.158L25.7404 115.355L27.1238 114.504L28.549 113.605L30.0141 112.659L31.5169 111.666L33.0554 110.627L34.6274 109.541L36.2307 108.409L37.8631 107.233L39.5225 106.012L41.2066 104.748L42.9132 103.441L44.6401 102.091L46.3849 100.702L48.1456 99.2719L49.9197 97.8035L51.7052 96.2976L53.4997 94.7554L55.3011 93.1783L57.1071 91.5677L58.9155 89.925L60.7243 88.2517L62.5312 86.5494L64.3341 84.8198L66.1309 83.0645L67.9196 81.2853L69.6982 79.484L71.4647 77.6624L73.2171 75.8225L74.9535 73.9661L76.672 72.0954L78.371 70.2122L80.0485 68.3187L81.7029 66.417L83.3325 64.5092L84.9357 62.5975L86.5111 60.684L88.057 58.7711L89.5721 56.8609L91.055 54.9556L92.5044 53.0576L93.9191 51.1692L95.298 49.2925L96.6398 47.43L97.9437 45.584L99.2087 43.7566L100.434 41.9503L101.618 40.1673L102.761 38.4099L103.862 36.6803L104.921 34.9809L105.936 33.3138L106.908 31.6812L107.835 30.0853L108.719 28.5283L109.558 27.0123L110.352 25.5394L111.102 24.1116L111.806 22.7309L112.467 21.3992L113.082 20.1185L113.654 18.8907L114.181 17.7175L114.665 16.6007L115.105 15.542L115.503 14.543L115.858 13.6053L116.172 12.7303L116.445 11.9196L116.677 11.1745L116.871 10.4962L117.025 9.88599L117.142 9.34502L117.222 8.87433L117.266 8.47491L117.276 8.14764L117.251 7.89334L117.195 7.71276L117.107 7.60652L116.988 7.57519L116.841 7.61924L116.667 7.73904L116.466 7.93487L116.24 8.20695L115.99 8.55536L115.719 8.98014L115.426 9.48121L115.115 10.0584L114.785 10.7114L114.439 11.4399L114.077 12.2435L113.703 13.1215L113.316 14.0735L112.919 15.0985L112.512 16.196L112.098 17.3648L111.678 18.6041L111.253 19.9128L110.824 21.2896L110.394 22.7334L109.964 24.2429L109.534 25.8165L109.106 27.4528L108.683 29.1503L108.264 30.9072L107.851 32.7219L107.446 34.5925L107.049 36.5172L106.662 38.494L106.287 40.521L105.923 42.596L105.572 44.717L105.236 46.8817L104.915 49.0879L104.609 51.3333L104.321 53.6156L104.05 55.9324L103.798 58.2811L103.565 60.6595L103.351 63.0649L103.158 65.4947L102.986 67.9465L102.835 70.4176L102.706 72.9053L102.599 75.4071L102.515 77.9202L102.453 80.4419L102.414 82.9696L102.398 85.5005L102.405 88.032L102.435 90.5613L102.488 93.0857L102.563 95.6025L102.661 98.1091L102.782 100.603L102.924 103.081L103.088 105.54L103.272 107.979L103.478 110.395L103.703 112.784L103.948 115.145L104.212 117.474L104.493 119.771L104.792 122.031L105.107 124.253L105.438 126.434L105.783 128.573L106.142 130.666L106.513 132.712L106.895 134.709L107.288 136.655L107.69 138.547L108.1 140.384L108.516 142.164L108.938 143.885L109.365 145.546L109.794 147.144L110.224 148.679L110.655 150.149L111.084 151.553L111.51 152.888L111.933 154.155L112.349 155.352L112.759 156.478L113.16 157.532L113.551 158.512L113.931 159.42L114.298 160.253L114.65 161.011L114.986 161.694L115.305 162.301L115.606 162.832L115.886 163.287L116.144 163.666L116.379 163.968L116.59 164.194L116.776 164.344L116.934 164.418L117.063 164.416L117.164 164.339L117.233 164.188L117.27 163.963L117.274 163.664L117.244 163.293L117.178 162.851L117.076 162.337L116.936 161.754L116.758 161.103L116.542 160.384L116.285 159.599L115.987 158.749L115.648 157.836L115.267 156.861L114.844 155.826L114.377 154.732L113.867 153.581L113.313 152.374L112.715 151.114L112.073 149.803L111.385 148.441L110.654 147.032L109.877 145.576L109.056 144.077L108.19 142.536L107.28 140.955L106.325 139.337L105.327 137.683L104.286 135.996L103.201 134.278L102.075 132.532L100.907 130.758L99.6975 128.961L98.4482 127.142L97.1596 125.303L95.8326 123.447L94.4683 121.575L93.0676 119.691L91.6317 117.797L90.1619 115.894L88.6594 113.985L87.1254 112.073L85.5616 110.16L83.9692 108.247L82.3498 106.338L80.705 104.433L79.0364 102.536L77.3457 100.649L75.6347 98.7727L73.9051 96.9105L72.1588 95.0638L70.3977 93.2348L68.6237 91.4252L66.8387 89.6371L65.0448 87.8721L63.2441 86.1321L61.4385 84.4189L59.6303 82.7339L57.8214 81.0789L56.0142 79.4554L54.2108 77.8649L52.4133 76.3088L50.624 74.7884L48.8451 73.305L47.0788 71.8599L45.3274 70.4541L43.5932 69.0889L41.8783 67.7651L40.1851 66.4837L38.5157 65.2455L36.8723 64.0515L35.2572 62.9022L33.6726 61.7983L32.1207 60.7403L30.6035 59.7289L29.1232 58.7643L27.682 57.8469L26.2819 56.977L24.9248 56.1548L23.6129 55.3804L22.3481 54.6537L21.1322 53.9749L19.9671 53.3437L18.8547 52.76L17.7966 52.2236L16.7947 51.7341L15.8505 51.2911L14.9656 50.8942L14.1416 50.5429L13.3799 50.2366L12.6819 49.9746L12.0489 49.7562L11.4821 49.5807L10.9828 49.4471L10.552 49.3547L10.1908 49.3025L9.89999 49.2895L9.68057 49.3146L9.53326 49.3768L9.45876 49.4749L9.45767 49.6078L9.53051 49.7742L9.67771 49.9728L9.8996 50.2025L10.1964 50.4617L10.5684 50.7493L11.0155 51.0638L11.5378 51.4038L12.1352 51.7678L12.8073 52.1544L13.554 52.5622L14.3749 52.9896L15.2694 53.4351L16.2371 53.8973L17.2771 54.3746L18.3888 54.8655L19.5714 55.3685L20.8238 55.882L22.1451 56.4046L23.5341 56.9348L24.9898 57.471L26.5106 58.0118L28.0954 58.5556L29.7427 59.1012L31.4509 59.6469L33.2184 60.1915L35.0436 60.7336L36.9246 61.2717L38.8597 61.8046L40.847 62.331L42.8845 62.8496L44.9701 63.3592L47.1018 63.8587L49.2774 64.3468L51.4947 64.8226L53.7514 65.2849L56.0451 65.7328L58.3737 66.1653L60.7345 66.5815L63.1251 66.9805L65.5431 67.3616L67.9859 67.724L70.4509 68.0669L72.9355 68.3899L75.4371 68.6923L77.9531 68.9736L80.4807 69.2333L83.0172 69.4711L85.56 69.6866L88.1063 69.8795L90.6534 70.0496L93.1986 70.1968L95.7391 70.321L98.2722 70.4221L100.795 70.5002L103.305 70.5554L105.8 70.5878L108.277 70.5977L110.732 70.5854L113.165 70.5511L115.571 70.4953L117.948 70.4185L120.294 70.3211L122.607 70.2038L124.883 70.0672L127.121 69.9118L129.318 69.7386L131.472 69.5482L133.58 69.3416L135.64 69.1196L137.651 68.883L139.609 68.633L141.513 68.3706L143.362 68.0967L145.152 67.8126L146.883 67.5192L148.553 67.2179L150.159 66.9099L151.7 66.5962L153.176 66.2784L154.583 65.9575L155.922 65.635L157.19 65.3122L158.387 64.9904L159.511 64.671L160.561 64.3554L161.538 64.045L162.438 63.7412L163.263 63.4454L164.011 63.159L164.682 62.8834L165.275 62.6201L165.79 62.3704L166.227 62.1358L166.585 61.9176L166.865 61.7171L167.066 61.5359L167.188 61.3751L167.233 61.2361L167.199 61.1203L167.088 61.0288L166.9 60.9629L166.636 60.9237L166.295 60.9126L165.88 60.9306L165.39 60.9787L164.827 61.0581L164.192 61.1698L163.485 61.3146L162.709 61.4936L161.863 61.7076L160.951 61.9574L159.972 62.2438L158.928 62.5675L157.821 62.929L156.653 63.3291L155.426 63.7682L154.14 64.2468L152.798 64.7653L151.402 65.324L149.953 65.9233L148.454 66.5632L146.906 67.244L145.312 67.9657L143.674 68.7283L141.993 69.5318L140.273 70.3759L138.515 71.2606L136.722 72.1854L134.895 73.1501L133.038 74.1542L131.152 75.1972L129.24 76.2786L127.304 77.3977L125.347 78.5538L123.37 79.7461L121.377 80.9737L119.37 82.2358L117.351 83.5314L115.322 84.8594L113.287 86.2186L111.246 87.608L109.204 89.0262L107.161 90.4719L105.121 91.9439L103.085 93.4406L101.056 94.9605L99.0358 96.5021L97.0271 98.0639L95.032 99.6442L93.0525 101.241L91.0907 102.853L89.1486 104.479L87.2283 106.115L85.3317 107.762L83.4608 109.416L81.6173 111.075L79.803 112.739L78.0198 114.404L76.2693 116.069L74.5531 117.731L72.8727 119.389L71.2297 121.04L69.6254 122.683L68.0613 124.315L66.5386 125.934L65.0585 127.538L63.6222 129.125L62.2307 130.693L60.8851 132.239L59.5861 133.761L58.3348 135.258L57.1319 136.727L55.9779 138.166L54.8737 139.572L53.8196 140.945L52.8162 142.282L51.8637 143.58L50.9626 144.839L50.1131 146.055L49.3152 147.227L48.5691 148.354L47.8747 149.433L47.232 150.462L46.6408 151.441L46.1008 152.366L45.6119 153.237L45.1734 154.052L44.7852 154.809L44.4465 155.508L44.1569 156.146L43.9156 156.722L43.722 157.236L43.5753 157.685L43.4746 158.069L43.4191 158.387L43.4077 158.637L43.4395 158.819L43.5134 158.933L43.6282 158.976L43.7829 158.95L43.9762 158.852L44.2068 158.683L44.4735 158.443L44.7748 158.13L45.1095 157.746L45.4762 157.288L45.8733 156.759L46.2994 156.157L46.7531 155.483L47.2327 154.737L47.7369 153.919L48.264 153.03L48.8124 152.071L49.3806 151.041L49.967 149.941L50.57 148.773L51.188 147.538L51.8194 146.235L52.4626 144.866L53.1161 143.433L53.7781 141.936L54.4472 140.377L55.1219 138.757L55.8004 137.078L56.4815 135.341L57.1634 133.547L57.8449 131.699L58.5243 129.798L59.2003 127.845L59.8715 125.844L60.5366 123.795L61.1941 121.702L61.8429 119.565L62.4817 117.387L63.1093 115.17L63.7245 112.917L64.3263 110.629L64.9134 108.31L65.4851 105.961L66.0402 103.585L66.5778 101.184L67.0972 98.7618L67.5975 96.3197L68.078 93.8606L68.5379 91.3872L68.9767 88.902L69.3938 86.4078L69.7886 83.9072L70.1608 81.4028L70.5099 78.8973L70.8357 76.3935L71.1378 73.894L71.4161 71.4015L71.6704 68.9187L71.9007 66.4483L72.1069 63.993L72.2891 61.5554L72.4475 59.1381L72.5822 56.7438L72.6934 54.375L72.7814 52.0344L72.8467 49.7244L72.8896 47.4475L72.9106 45.2063L72.9103 43.0031L72.8892 40.8403L72.848 38.7202L72.7874 36.6451L72.7082 34.6173L72.6111 32.6389L72.497 30.7119L72.3668 28.8386L72.2215 27.0208L72.062 25.2604L71.8894 23.5594L71.7048 21.9195L71.5092 20.3424L71.3039 18.8297L71.0899 17.383L70.8685 16.0037L70.641 14.6934L70.4086 13.4531L70.1725 12.2843L69.9342 11.188L69.6949 10.1652L69.4559 9.21698L69.2187 8.34416L68.9846 7.54753L68.755 6.82778L68.5312 6.18551L68.3147 5.6212L68.1068 5.13528L67.9089 4.72806L67.7224 4.39977L67.5487 4.15053L67.3891 3.98038L67.245 3.88926L67.1177 3.87699L67.0084 3.94336L66.9186 4.08801L66.8494 4.3105L66.8022 4.61031L66.778 4.98683L66.7781 5.43936L66.8037 5.9671L66.8558 6.56917L66.9355 7.2446L67.0438 7.99234L67.1818 8.81127L67.3503 9.70015L67.5503 10.6577L67.7825 11.6826L68.0479 12.7733L68.347 13.9284L68.6807 15.1462L69.0495 16.4251L69.4539 17.7634L69.8946 19.1592L70.3719 20.6108L70.8863 22.1162L71.4379 23.6735L72.0272 25.2807L72.6543 26.9356L73.3192 28.6362L74.0222 30.3803L74.763 32.1658L75.5417 33.9903L76.3581 35.8517L77.212 37.7475L78.1031 39.6756L79.031 41.6335L79.9952 43.6189L80.9954 45.6293L82.0308 47.6623L83.1009 49.7156L84.205 51.7867L85.3422 53.8732L86.5117 55.9725L87.7126 58.0824L88.9439 60.2003L90.2046 62.3238L91.4935 64.4505L92.8095 66.578L94.1513 68.7039L95.5176 70.8259L96.9072 72.9416L98.3185 75.0487L99.7501 77.1449L101.2 79.228L102.668 81.2957L104.151 83.3459L105.648 85.3764L107.157 87.3852L108.677 89.3701L110.206 91.3292L111.741 93.2606L113.281 95.1622L114.824 97.0324L116.368 98.8693L117.911 100.671L119.452 102.437L120.987 104.163L122.516 105.851L124.036 107.497L125.545 109.1L127.04 110.659L128.521 112.174L129.984 113.641L131.429 115.062L132.851 116.433L134.251 117.756L135.624 119.028L136.971 120.249L138.287 121.418L139.572 122.534L140.824 123.597L142.039 124.607L143.218 125.563L144.356 126.465L145.454 127.312L146.508 128.105L147.517 128.843L148.479 129.526L149.393 130.154L150.257 130.728L151.069 131.247L151.827 131.713L152.53 132.125L153.177 132.483L153.766 132.789L154.296 133.043L154.766 133.246L155.174 133.397L155.519 133.499L155.8 133.551L156.017 133.556L156.167 133.513L156.251 133.424L156.267 133.29L156.216 133.111L156.095 132.89L155.906 132.628L155.647 132.325L155.317 131.983L154.918 131.603L154.448 131.187L153.907 130.737L153.296 130.253L152.614 129.737L151.862 129.192L151.039 128.617L150.147 128.015L149.186 127.388L148.156 126.737L147.057 126.063L145.892 125.369L144.659 124.656L143.361 123.925L141.998 123.179L140.571 122.419L139.082 121.646L137.531 120.862L135.919 120.07L134.25 119.27L132.523 118.464L130.74 117.653L128.903 116.84L127.013 116.026L125.073 115.212L123.084 114.4L121.048 113.592L118.967 112.788L116.844 111.991L114.679 111.2L112.476 110.419L110.236 109.648L107.962 108.889L105.656 108.142L103.32 107.409L100.957 106.691L98.5696 105.988L96.1599 105.303L93.7304 104.636L91.2838 103.987L88.8226 103.358L86.3494 102.75L83.8669 102.162L81.3777 101.597L78.8844 101.054L76.3897 100.534L73.8964 100.037L71.4072 99.5648L68.9246 99.1164L66.4514 98.6926L63.9904 98.2936L61.5441 97.9196L59.1152 97.5707L56.7065 97.2469L54.3205 96.9483L51.9598 96.6747L49.6271 96.426L47.3249 96.202L45.0556 96.0024L42.8219 95.827L40.6262 95.6753L38.4708 95.5469L36.3581 95.4413L34.2905 95.3579L32.2703 95.2962L30.2996 95.2555L28.3805 95.235L26.5153 95.234L24.7059 95.2516L22.9543 95.2871L21.2624 95.3395L19.632 95.4079L18.0649 95.4912L16.5627 95.5885L15.1272 95.6987L13.7598 95.8206L12.4619 95.9531L11.235 96.0951L10.0802 96.2453L8.99892 96.4026L7.99212 96.5657L7.06085 96.7333L6.20606 96.9041L5.42857 97.0769L4.72914 97.2502L4.10841 97.4229L3.56695 97.5935L3.10523 97.7607L2.72361 97.9232L2.42237 98.0796L2.20169 98.2286L2.06165 98.3688L2.00224 98.4989L2.02336 98.6176L2.1248 98.7236L2.30626 98.8156L2.56736 98.8923L2.90761 98.9524L3.32642 98.9948L3.82314 99.0183L4.397 99.0215L5.04715 99.0035L5.77264 98.9631L6.57246 98.8992L7.4455 98.8108L8.39055 98.6969L9.40634 98.5566L10.4915 98.3888L11.6446 98.1929L12.8642 97.9678L14.1486 97.713L15.4961 97.4276L16.9052 97.1111L18.3739 96.7627L19.9004 96.382L21.4828 95.9685L23.1191 95.5217L24.8072 95.0413L26.5451 94.527L28.3307 93.9784L30.1617 93.3955L32.0359 92.7782L33.951 92.1263L35.9047 91.4399L37.8947 90.7192L39.9186 89.9641L41.974 89.175L44.0584 88.3522L46.1694 87.496L48.3044 86.6068L50.4611 85.6851L52.6369 84.7315L54.8292 83.7467L57.0356 82.7312L59.2536 81.6859L61.4806 80.6116L63.7141 79.5091L65.9516 78.3795L68.1906 77.2238L70.4286 76.043L72.6631 74.8382L74.8918 73.6107L77.1121 72.3617L79.3218 71.0926L81.5183 69.8046L83.6995 68.4993L85.8629 67.178L88.0064 65.8424L90.1278 64.4938L92.2248 63.1341L94.2954 61.7648L96.3375 60.3875L98.349 59.0041L100.328 57.6163L102.273 56.2259L104.181 54.8348L106.051 53.4446L107.882 52.0575L109.671 50.6752L111.417 49.2997L113.119 47.9329L114.775 46.5767L116.383 45.2332L117.943 43.9043L119.453 42.592L120.912 41.2982L122.318 40.025L123.672 38.7743L124.972 37.548L126.217 36.3482L127.406 35.1767L128.539 34.0355L129.616 32.9266L130.635 31.8517L131.596 30.8128L132.499 29.8117L133.344 28.8502L134.131 27.9301L134.858 27.053L135.527 26.2207L136.138 25.4349L136.69 24.6971L137.184 24.0089L137.62 23.3718L137.998 22.7873L138.32 22.2567L138.585 21.7814L138.793 21.3627L138.947 21.0019L139.046 20.6999L139.091 20.4581L139.084 20.2772L139.024 20.1584L138.914 20.1025L138.754 20.1103L138.545 20.1825L138.288 20.3198L137.985 20.5226L137.637 20.7917L137.245 21.1272L136.811 21.5296L136.336 21.9991L135.822 22.5359L135.269 23.14L134.68 23.8114L134.057 24.55L133.399 25.3557L132.711 26.2281L131.992 27.167L131.245 28.1718L130.472 29.242L129.673 30.3771L128.851 31.5762L128.008 32.8387L127.145 34.1636L126.264 35.55L125.367 36.9969L124.456 38.503L123.531 40.0673L122.596 41.6884L121.652 43.3649L120.699 45.0954L119.741 46.8784L118.779 48.7123L117.814 50.5955L116.849 52.5261L115.884 54.5024L114.921 56.5225L113.962 58.5845L113.009 60.6864L112.062 62.8261L111.124 65.0015L110.195 67.2104L109.278 69.4507L108.373 71.72L107.481 74.016L106.604 76.3364L105.743 78.6787L104.9 81.0406L104.074 83.4195L103.268 85.813L102.482 88.2184L101.717 90.6334L100.974 93.0552L100.254 95.4813L99.5568 97.909L98.8839 100.336L98.2357 102.759L97.6127 105.176L97.0153 107.584L96.444 109.981L95.8991 112.363L95.3809 114.729L94.8895 117.075L94.4253 119.399L93.9881 121.699L93.5781 123.972L93.1952 126.215L92.8392 128.426L92.5101 130.602L92.2076 132.741L91.9313 134.841L91.681 136.899L91.4562 138.913L91.2565 140.88L91.0812 142.799L90.9299 144.667L90.8018 146.482L90.6964 148.243L90.6127 149.947L90.5501 151.591L90.5077 153.176L90.4847 154.698L90.4799 156.155L90.4926 157.547L90.5217 158.872L90.566 160.128L90.6246 161.314L90.6963 162.428L90.78 163.47L90.8744 164.438L90.9783 165.331L91.0905 166.148L91.2098 166.889L91.3349 167.552L91.4644 168.136L91.5971 168.642L91.7316 169.069L91.8667 169.415L92.0009 169.682L92.1329 169.869L92.2614 169.975L92.3852 170L92.5027 169.945L92.6127 169.81L92.7139 169.595L92.805 169.3L92.8847 168.926L92.9517 168.473L93.0048 167.942L93.0428 167.334L93.0644 166.649L93.0684 165.889L93.0538 165.053L93.0195 164.145L92.9643 163.163L92.8872 162.111L92.7872 160.988L92.6634 159.797L92.5149 158.539L92.3407 157.216L92.1402 155.829L91.9124 154.379L91.6568 152.869L91.3726 151.301L91.0592 149.675L90.7161 147.996L90.3428 146.263L89.9389 144.48L89.5039 142.648L89.0377 140.77L88.5398 138.848L88.0102 136.884L87.4487 134.881L86.8554 132.84L86.2301 130.765L85.5729 128.657L84.884 126.519L84.1637 124.354L83.4122 122.164L82.6298 119.951L81.8169 117.719L80.9741 115.469L80.1019 113.205L79.2008 110.928L78.2716 108.641L77.315 106.347L76.3318 104.049L75.3229 101.748L74.2892 99.4482L73.2317 97.1511L72.1514 94.8595L71.0496 92.5758L69.9272 90.3024L68.7857 88.0419L67.6262 85.7966L66.45 83.5688L65.2586 81.361L64.0535 79.1753L62.836 77.0139L61.6077 74.8792L60.3701 72.7732L59.125 70.6981L57.8739 68.6558L56.6184 66.6484L55.3604 64.6779L54.1016 62.7459L52.8438 60.8545L51.5887 59.0053L50.3382 57.1999L49.0941 55.4401L47.8583 53.7273L46.6326 52.063L45.4191 50.4487L44.2195 48.8855L43.0358 47.3748L41.8698 45.9177L40.7236 44.5153L39.5989 43.1687L38.4978 41.8787L37.4221 40.6461L36.3736 39.4718L35.3543 38.3564L34.366 37.3006L33.4105 36.3047L32.4897 35.3694L31.6052 34.4948L30.759 33.6813L29.9526 32.9291L29.1877 32.2382L28.4661 31.6087L27.7893 31.0405L27.1589 30.5335L26.5764 30.0874L26.0432 29.7019L25.5607 29.3767L25.1304 29.1112L24.7535 28.905L24.4313 28.7575L24.165 28.6678L23.9556 28.6354L23.8042 28.6594L23.7119 28.7388L23.6795 28.8728L23.7079 29.0602L23.7979 29.3001L23.9501 29.5912L24.1652 29.9324L24.4437 30.3224L24.7861 30.7599L25.1928 31.2436L25.6641 31.7719L26.2003 32.3436L26.8014 32.9569L27.4675 33.6106L28.1985 34.3028L28.9945 35.0321L29.8552 35.7968L30.7802 36.5952L31.7693 37.4256L32.822 38.2862L33.9377 39.1755L35.1158 40.0914L36.3556 41.0324L37.6563 41.9966L39.017 42.9822L40.4368 43.9873L41.9146 45.0103L43.4493 46.0492L45.0397 47.1023L46.6844 48.1677L48.3822 49.2437L50.1316 50.3284L51.931 51.4202L53.7789 52.5172L55.6736 53.6177L57.6133 54.72L59.5964 55.8224L61.6209 56.9233L63.6848 58.021L65.7862 59.1139L67.9231 60.2004L70.0933 61.2791L72.2946 62.3485L74.5249 63.407L76.7819 64.4533L79.0632 65.486L81.3666 66.5038L83.6897 67.5055L86.0299 68.4898L88.3849 69.4556L90.7522 70.4018L93.1292 71.3273L95.5134 72.2311L97.9022 73.1124L100.293 73.9701L102.683 74.8036L105.07 75.612L107.452 76.3947L109.825 77.1511L112.187 77.8805L114.535 78.5825L116.867 79.2567L119.18 79.9026L121.472 80.52L123.739 81.1086L125.98 81.6683L128.192 82.1989L130.372 82.7005L132.518 83.1729L134.628 83.6164L136.698 84.031L138.727 84.417L140.713 84.7746L142.652 85.1042L144.543 85.4061L146.384 85.6809L148.172 85.929L149.906 86.1509L151.583 86.3474L153.201 86.519L154.759 86.6665L156.255 86.7907L157.687 86.8924L159.053 86.9725L160.351 87.0318L161.581 87.0714L162.741 87.0922L163.829 87.0952L164.844 87.0817L165.785 87.0525L166.651 87.0089L167.44 86.9521L168.153 86.8833L168.787 86.8035L169.343 86.7142L169.819 86.6166L170.216 86.5119L170.532 86.4014L170.767 86.2864L170.921 86.1683L170.994 86.0483L170.985 85.9278L170.895 85.8081L170.724 85.6905L170.472 85.5764L170.139 85.467L169.726 85.3636L169.233 85.2676L168.661 85.1802L168.01 85.1027L167.281 85.0362L166.475 84.9821L165.594 84.9415L164.637 84.9155L163.607 84.9053L162.503 84.912L161.329 84.9367L160.085 84.9803L158.772 85.0439L157.392 85.1284L155.946 85.2348L154.438 85.3638L152.867 85.5163L151.236 85.6931L149.547 85.8948L147.801 86.1222L146.002 86.3759L144.151 86.6563L142.249 86.964L140.3 87.2994L138.305 87.663L136.267 88.0549L134.188 88.4756L132.071 88.9251L129.918 89.4037L127.731 89.9113L125.512 90.4481L123.266 91.0138L120.993 91.6085L118.696 92.2319L116.379 92.8838L114.044 93.5638L111.692 94.2716L109.328 95.0067L106.953 95.7686L104.57 96.5568L102.182 97.3705L99.7914 98.2092L97.4008 99.0719L95.0127 99.958L92.6298 100.866L90.2546 101.796L87.8897 102.747L85.5376 103.717L83.2008 104.705L80.8817 105.71L78.5827 106.731L76.3063 107.766L74.0547 108.815L71.8303 109.876L69.6353 110.948L67.4719 112.028L65.3423 113.116L63.2486 114.21L61.1928 115.309L59.1769 116.41L57.2027 117.513L55.2723 118.615L53.3873 119.715L51.5494 120.811L49.7603 121.901L48.0217 122.984L46.3349 124.058L44.7014 125.121L43.1227 126.171L41.5998 127.207L40.1341 128.226L38.7266 129.228L37.3784 130.209L36.0904 131.168L34.8635 132.104L33.6984 133.015L32.5959 133.898L31.5565 134.753L30.5808 135.576L29.6693 136.368L28.8222 137.125L28.0398 137.847L27.3223 138.531L26.6699 139.176L26.0824 139.781L25.5599 140.344L25.1022 140.863L24.709 141.337L24.38 141.765L24.1148 142.145L23.9129 142.475L23.7739 142.756L23.6969 142.985L23.6813 143.161L23.7263 143.284L23.8311 143.352L23.9947 143.364L24.2162 143.319L24.4943 143.218L24.8281 143.058L25.2163 142.839L25.6577 142.561L26.1509 142.224L26.6945 141.825L27.2872 141.367L27.9275 140.847L28.6139 140.266L29.3447 139.623L30.1184 138.919L30.9333 138.154L31.7877 137.328L32.6799 136.441L33.6082 135.493L34.5707 134.484L35.5656 133.416L36.5912 132.288L37.6456 131.101L38.7268 129.857L39.833 128.555L40.9623 127.196L42.1129 125.782L43.2827 124.314L44.4699 122.792L45.6726 121.218L46.8888 119.593L48.1168 117.919L49.3544 116.196L50.6 114.426L51.8517 112.612L53.1075 110.753L54.3657 108.853L55.6245 106.913L56.8821 104.935L58.1367 102.92L59.3868 100.871L60.6304 98.7888L61.8662 96.6766L63.0923 94.5361L64.3074 92.3695L65.5098 90.1789L66.6981 87.9667L67.8708 85.735L69.0267 83.4863L70.1643 81.2229L71.2825 78.9472L72.3799 76.6617L73.4555 74.3687L74.508 72.0708L75.5366 69.7704L76.5402 67.4701L77.5179 65.1725L78.4688 62.8799L79.3922 60.5951L80.2873 58.3206L81.1534 56.0589L81.99 53.8125L82.7965 51.584L83.5724 49.376L84.3174 47.191L85.0312 45.0314L85.7134 42.8998L86.3639 40.7986L86.9825 38.7303L87.5692 36.6973L88.124 34.702L88.6469 32.7466L89.1381 30.8336L89.5978 28.9651L90.0262 27.1434L90.4237 25.3706L90.7906 23.6489L91.1274 21.9803L91.4346 20.3669L91.7128 18.8105L91.9625 17.3131L92.1845 15.8765L92.3794 14.5024L92.5481 13.1925L92.6914 11.9484L92.8101 10.7717L92.9052 9.66386L92.9776 8.62619L93.0284 7.66002L93.0585 6.76657L93.0691 5.94698L93.0612 5.20229L93.0361 4.53347L92.9949 3.94139L92.9388 3.42685L92.869 2.99052L92.7868 2.63301L92.6935 2.35484L92.5903 2.15641L92.4786 2.03806L92.3597 2L92.2348 2.04238L92.1055 2.16523L91.9728 2.36849L91.8383 2.65201L91.7033 3.01555L91.5691 3.45875L91.4369 3.98119L91.3082 4.58234L91.1843 5.26157L91.0664 6.01816L90.9558 6.85132L90.8537 7.76013L90.7615 8.74362L90.6803 9.8007L90.6112 10.9302L90.5555 12.1309L90.5143 13.4015L90.4886 14.7405L90.4794 16.1465L90.4879 17.6178L90.515 19.1529L90.5615 20.75L90.6285 22.4074L90.7166 24.1231L90.8268 25.8952L90.9597 27.7218L91.116 29.6008L91.2963 31.5301L91.5013 33.5075L91.7314 35.5308L91.9871 37.5977L92.2689 39.7059L92.577 41.853L92.9117 44.0367L93.2733 46.2545L93.6619 48.504L94.0776 50.7825L94.5204 53.0876L94.9904 55.4167L95.4874 57.7673L96.0112 60.1367L96.5617 62.5223L97.1385 64.9216L97.7413 67.3317L98.3696 69.7502L99.0231 72.1744L99.701 74.6016L100.403 77.0292L101.128 79.4547L101.876 81.8752L102.645 84.2884L103.436 86.6916L104.246 89.0822L105.075 91.4578L105.923 93.8157L106.787 96.1537L107.667 98.4691L108.561 100.76L109.469 103.023L110.389 105.257L111.32 107.459L112.26 109.627L113.208 111.759L114.163 113.853L115.123 115.906L116.086 117.917L117.051 119.884L118.017 121.805L118.981 123.678L119.943 125.501L120.9 127.273L121.85 128.993L122.793 130.658L123.726 132.267L124.648 133.819L125.557 135.313L126.451 136.747L127.328 138.121L128.187 139.433L129.025 140.682L129.842 141.868L130.636 142.989L131.404 144.046L132.145 145.037L132.858 145.962L133.54 146.82L134.19 147.612L134.807 148.336L135.388 148.994L135.933 149.584L136.439 150.106L136.906 150.562L137.331 150.95L137.714 151.272L138.052 151.527L138.346 151.716L138.592 151.839L138.791 151.898L138.941 151.892L139.041 151.823L139.09 151.691L139.086 151.498L139.03 151.243L138.919 150.929L138.754 150.556L138.534 150.125L138.257 149.638L137.924 149.096L137.533 148.5L137.085 147.852L136.579 147.154L136.015 146.406L135.392 145.61L134.71 144.768L133.97 143.882L133.172 142.953L132.315 141.983L131.399 140.974L130.426 139.927L129.395 138.845L128.306 137.729L127.161 136.581L125.96 135.404L124.704 134.198L123.392 132.967L122.028 131.711L120.61 130.433L119.14 129.135L117.62 127.82L116.05 126.487L114.431 125.141L112.766 123.783L111.055 122.414L109.299 121.037L107.501 119.653L105.662 118.265L103.784 116.875L101.868 115.484L99.9156 114.094L97.9296 112.707L95.9115 111.324L93.8633 109.949L91.787 108.581L89.6847 107.224L87.5585 105.878L85.4106 104.545L83.2433 103.227L81.0587 101.925L78.8592 100.641L76.6471 99.3759L74.4248 98.1313L72.1947 96.9085L69.9593 95.7086L67.7208 94.533L65.482 93.3826L63.2451 92.2586L61.0128 91.162L58.7875 90.0937L56.5717 89.0546L54.368 88.0455L52.1789 87.0671L50.007 86.1202L47.8546 85.2053L45.7244 84.323L43.6188 83.4737L41.5403 82.6579L39.4913 81.876L37.4744 81.1281L35.4918 80.4145L33.5459 79.7354L31.6392 79.0908L29.7739 78.4807L27.9522 77.905L26.1765 77.3637L24.4488 76.8564L22.7714 76.3831L21.1463 75.9433L19.5754 75.5367L18.0609 75.1629L16.6046 74.8212L15.2083 74.5113L13.8738 74.2323L12.6029 73.9838L11.3971 73.765L10.2582 73.575L9.18743 73.4131L8.18638 73.2783L7.25633 73.1699L6.39856 73.0867L5.61424 73.0278L4.90447 72.9922L4.27026 72.9788L3.71251 72.9864L3.23208 73.0139L2.82969 73.0601L2.50601 73.1238L2.26158 73.2038L2.09687 73.2988L2.01226 73.4076L2.00802 73.5288L2.08434 73.6612L2.2413 73.8033L2.47889 73.954L2.79702 74.1117L3.19547 74.2753L3.67395 74.4434L4.23208 74.6145L4.86937 74.7874L5.58524 74.9608L6.37901 75.1333L7.24992 75.3035L8.19711 75.4703L9.21963 75.6322L10.3164 75.7881L11.4864 75.9368L12.7284 76.0769L14.0409 76.2073L15.4228 76.3268L16.8724 76.4343L18.3883 76.5288L19.9688 76.609L21.6123 76.6741L23.3169 76.7231L25.0808 76.7549L26.9021 76.7687L28.7788 76.7637L30.7088 76.739L32.6901 76.6939L34.7205 76.6277L36.7977 76.5397L38.9195 76.4294L41.0835 76.2961L43.2875 76.1395L45.5288 75.959L47.8052 75.7544L50.114 75.5252L52.4528 75.2713L54.819 74.9924L57.2101 74.6885L59.6232 74.3595L62.056 74.0053L64.5056 73.6261L66.9694 73.2219L69.4447 72.7929L71.9289 72.3394L74.4193 71.8617L76.9131 71.3602L79.4077 70.8353L81.9003 70.2876L84.3884 69.7175L86.8692 69.1257L89.3401 68.5128L91.7984 67.8797L94.2416 67.2271L96.6672 66.5559L99.0725 65.867L101.455 65.1613L103.812 64.4399L106.142 63.7038L108.441 62.9541L110.709 62.1921L112.941 61.4189L115.136 60.6358L117.293 59.8441L119.408 59.0451L121.479 58.2402L123.505 57.4308L125.484 56.6184L127.414 55.8044L129.293 54.9904L131.118 54.1778L132.89 53.3683L134.605 52.5634L136.262 51.7647L137.861 50.9739L139.399 50.1925L140.876 49.4222L142.289 48.6647L143.639 47.9216L144.923 47.1945L146.142 46.4851L147.294 45.7951L148.378 45.1261L149.393 44.4798L150.34 43.8577L151.218 43.2615L152.025 42.6928L152.763 42.1531L153.43 41.644L154.026 41.167L154.552 40.7237L155.007 40.3154L155.392 39.9437L155.707 39.6098L155.951 39.3152L156.126 39.0612L156.232 38.8491L156.27 38.68L156.239 38.5551L156.141 38.4756L155.977 38.4425L155.747 38.4569L155.452 38.5197L155.093 38.6318L154.673 38.794L154.19 39.0071L153.648 39.2718L153.046 39.5887L152.387 39.9585L151.672 40.3815L150.903 40.8583L150.08 41.3892L149.206 41.9745L148.282 42.6143L147.309 43.3089L146.29 44.0582L145.227 44.8622L144.121 45.7209L142.974 46.634L141.787 47.6014L140.564 48.6225L139.305 49.6972L138.014 50.8247L136.691 52.0046L135.338 53.2363L133.959 54.5189L132.555 55.8516L131.127 57.2337L129.679 58.664L128.212 60.1416L126.728 61.6654L125.229 63.2341L123.718 64.8465L122.196 66.5012L120.666 68.1969L119.129 69.932L117.588 71.7051L116.044 73.5145L114.5 75.3585L112.957 77.2355L111.418 79.1436L109.884 81.0809L108.358 83.0456L106.84 85.0357L105.333 87.0492L103.839 89.084L102.359 91.138L100.895 93.2091L99.4481 95.2951L98.0206 97.3938L96.6138 99.5029L95.229 101.62L93.8677 103.743L92.5312 105.87L91.2208 107.997L89.9377 110.123L88.6831 112.246L87.4581 114.362L86.2637 116.47L85.1009 118.567L83.9706 120.65L82.8736 122.718L81.8107 124.767L80.7826 126.796L79.7899 128.801L78.8333 130.781L77.9131 132.733L77.0298 134.654L76.1837 136.543L75.3752 138.397L74.6044 140.213L73.8715 141.99L73.1766 143.726L72.5196 145.417L71.9005 147.062L71.3191 148.659L70.7753 150.205L70.2687 151.7L69.7991 153.14L69.3661 154.524L68.9692 155.85L68.6078 157.116L68.2814 158.321L67.9894 159.462L67.7311 160.539L67.5057 161.55L67.3124 162.493L67.1503 163.368L67.0187 164.172L66.9164 164.904L66.8426 165.565L66.7961 166.151L66.776 166.663L66.7811 167.1L66.8102 167.46L66.8622 167.744L66.9358 167.95L67.0298 168.078L67.1429 168.128L67.2739 168.1L67.4214 167.992L67.584 167.805L67.7606 167.539L67.9495 167.194L68.1496 166.771L68.3595 166.268L68.5776 165.688L68.8027 165.029L69.0334 164.293L69.2683 163.48L69.506 162.592L69.7451 161.628L69.9843 160.589L70.2223 159.478L70.4577 158.294L70.6892 157.039L70.9155 155.714L71.1354 154.32L71.3477 152.86L71.5511 151.333L71.7445 149.743L71.9267 148.09L72.0966 146.376L72.2532 144.604L72.3954 142.774L72.5223 140.89L72.6329 138.952L72.7263 136.963L72.8017 134.925L72.8583 132.84L72.8953 130.711L72.9121 128.539L72.908 126.328L72.8825 124.079L72.8349 121.795L72.7649 119.478L72.672 117.132L72.5559 114.757L72.4162 112.358L72.2529 109.936L72.0656 107.495L71.8543 105.036L71.619 102.563L71.3597 100.078L71.0764 97.5834L70.7693 95.0828L70.4386 92.5784L70.0846 90.073L69.7076 87.5691L69.3081 85.0696L68.8864 82.5771L68.4431 80.0942L67.9788 77.6235L67.4942 75.1678L66.9898 72.7295L66.4665 70.3114L65.9251 67.9158L65.3665 65.5453L64.7915 63.2024L64.2012 60.8895L63.5965 58.609L62.9786 56.3632L62.3486 54.1544L61.7076 51.9849L61.0569 49.8568L60.3976 47.7723L59.7312 45.7334L59.0588 43.7422L58.382 41.8005L57.702 39.9104L57.0204 38.0734L56.3385 36.2915L55.6578 34.5662L54.9799 32.8992L54.3064 31.2919L53.6386 29.7458L52.9782 28.2622L52.3268 26.8424L51.6859 25.4876L51.0572 24.1989L50.4422 22.9772L49.8426 21.8236L49.2599 20.7388L48.6957 19.7236L48.1516 18.7787L47.6292 17.9047L47.13 17.102L46.6557 16.371L46.2077 15.712L45.7875 15.1253L45.3967 14.6109L45.0366 14.169L44.7088 13.7993L44.4146 13.5019L44.1554 13.2765L43.9325 13.1227L43.7472 13.0401L43.6008 13.0283L43.4944 13.0867L43.4293 13.2146L43.4065 13.4113L43.427 13.6759L43.492 14.0076L43.6022 14.4054L43.7587 14.8682L43.9623 15.3949L44.2136 15.9843L44.5135 16.6351L44.8625 17.346L45.2613 18.1156L45.7102 18.9425L46.2099 19.825L46.7606 20.7617L47.3626 21.7509L48.0161 22.7909L48.7213 23.8799L49.4783 25.0162L50.287 26.198L51.1474 27.4233L52.0593 28.6903L53.0225 29.9969L54.0366 31.3413L55.1012 32.7214L56.2159 34.1351L57.3802 35.5804L58.5934 37.0553L59.8547 38.5575L61.1635 40.0851L62.5189 41.6358L63.9198 43.2076L65.3654 44.7982L66.8546 46.4056L68.3861 48.0276L69.9587 49.662L71.5712 51.3068L73.2222 52.9598L74.9102 54.6189L76.6337 56.282L78.3913 57.947L80.1811 59.6119L82.0017 61.2746L83.8511 62.9332L85.7276 64.5858L87.6293 66.2302L89.5543 67.8647L91.5007 69.4874L93.4664 71.0965L95.4494 72.6901L97.4475 74.2666L99.4586 75.8243L101.481 77.3616L103.511 78.8767L105.548 80.3683L107.589 81.8349L109.632 83.275L111.675 84.6873L113.714 86.0704L115.749 87.4232L117.775 88.7445L119.792 90.0331L121.797 91.2881L123.786 92.5084L125.759 93.6931L127.712 94.8415L129.643 95.9527L131.55 97.0261L133.43 98.061L135.281 99.0569L137.101 100.013L138.887 100.93L140.637 101.806L142.349 102.641L144.021 103.436L145.65 104.19L147.235 104.904L148.772 105.576L150.261 106.207L151.699 106.798L153.084 107.348L154.414 107.858L155.688 108.328L156.904 108.759L158.059 109.151L159.152 109.505L160.182 109.821L161.148 110.099L162.046 110.342L162.877 110.548L163.639 110.72L164.331 110.858L164.951 110.963L165.499 111.035L165.973 111.077L166.373 111.089L166.698 111.072L166.946 111.027L167.118 110.955L167.213 110.859L167.23 110.738L167.169 110.594L167.03 110.429L166.812 110.244L166.516 110.039L166.142 109.818L165.688 109.58L165.157 109.327L164.548 109.061L163.861 108.783L163.096 108.495L162.256 108.197L161.339 107.892L160.347 107.58L159.281 107.264L158.142 106.944L156.93 106.621L155.647 106.299L154.293 105.976L152.872 105.656L151.382 105.339L149.827 105.026L148.207 104.72L146.525 104.42L144.782 104.128L142.979 103.846L141.118 103.575L139.203 103.315L137.233 103.068L135.212 102.834L133.141 102.615L131.024 102.412L128.861 102.225L126.655 102.055L124.409 101.904L122.125 101.771L119.805 101.658L117.452 101.565L115.068 101.493L112.656 101.441L110.219 101.412L107.759 101.404L105.278 101.418L102.78 101.456L100.267 101.516L97.7415 101.599L95.2066 101.705L92.6649 101.834L90.1191 101.986L87.5719 102.16L85.0261 102.358L82.4844 102.578L79.9495 102.821L77.4242 103.085L74.911 103.371L72.4128 103.677L69.932 104.005L67.4715 104.352L65.0337 104.718L62.6212 105.103L60.2366 105.506L57.8824 105.925L55.561 106.361L53.2748 106.812L51.0261 107.277L48.8174 107.756L46.6509 108.247L44.5287 108.748L42.453 109.26L40.4259 109.78L38.4494 110.308L36.5254 110.842L34.656 111.381L32.8427 111.924L31.0875 112.469L29.392 113.015L27.7577 113.56L26.1862 114.103L24.6789 114.643L23.2372 115.178L21.8622 115.707L20.5553 116.228L19.3174 116.739L18.1497 117.24L17.0529 117.728L16.028 118.202L15.0757 118.661L14.1966 119.103L13.3912 119.526L12.6601 119.93L12.0036 120.312L11.422 120.671L10.9155 121.006L10.4841 121.315L10.1279 121.596L9.84684 121.85L9.64064 122.073L9.50907 122.265L9.45178 122.424L9.46833 122.55L9.55815 122.641L9.72065 122.695L9.95511 122.712L10.2607 122.691L10.6366 122.631L11.0819 122.53L11.5955 122.387L12.1762 122.203L12.823 121.975L13.5345 121.704L14.3094 121.388L15.1463 121.028L16.0437 120.621L17.0002 120.168L18.014 119.669L19.0836 119.123L20.2072 118.529L21.3831 117.888L22.6094 117.199L23.8843 116.462L25.2059 115.678L26.5721 114.846L27.981 113.966L29.4306 113.039L30.9188 112.064L32.4434 111.043L34.0024 109.975L35.5936 108.862L37.2148 107.703L38.8638 106.5L40.5384 105.252L42.2364 103.962L43.9555 102.629L45.6935 101.256L47.4482 99.8415L49.2173 98.3882L50.9986 96.897L52.7898 95.369L54.5887 93.8055L56.3931 92.208L58.2009 90.5778L60.0098 88.9164L61.8176 87.2253L63.6223 85.5063L65.4218 83.761L67.214 81.991L68.9968 80.1982L70.7683 78.3844L72.5265 76.5515L74.2694 74.7014L75.9953 72.8361L77.7022 70.9576L79.3884 69.0679L81.0521 67.1692L82.6917 65.2636L84.3055 63.3531L85.8921 61.4401L87.4498 59.5267L88.9772 57.6151L90.473 55.7076L91.9358 53.8065L93.3644 51.914L94.7575 50.0324L96.1142 48.1641L97.4332 46.3112L98.7136 44.4762L99.9545 42.6613L101.155 40.8688L102.315 39.101L103.432 37.3602L104.508 35.6486L105.54 33.9684L106.529 32.322L107.474 30.7113L108.375 29.1387L109.232 27.6063L110.044 26.1161L110.811 24.6702L111.533 23.2706L112.211 21.9194L112.844 20.6183L113.433 19.3694L113.978 18.1744L114.479 17.0351L114.936 15.9532L115.351 14.9305L115.723 13.9683L116.053 13.0684L116.342 12.2322L116.59 11.461L116.799 10.7561L116.969 10.1189L117.1 9.55042L117.195 9.05183L117.253 8.62414L117.276 8.26826L117.265 7.98505L117.221 7.77526L117.145 7.63958L117.039 7.57859L116.903 7.59281L116.739 7.68263L116.548 7.84839L116.332 8.09033L116.092 8.40858L115.829 8.8032L115.544 9.27413L115.24 9.82126L114.917 10.4443L114.577 11.1431L114.222 11.917L113.852 12.7657L113.47 13.6886L113.077 14.6848L112.674 15.7538L112.262 16.8945L111.844 18.1061L111.421 19.3875L110.994 20.7375L110.564 22.1551L110.134 23.6387L109.703 25.1872L109.275 26.7989L108.849 28.4724L108.428 30.206L108.013 31.9981L107.605 33.8468L107.205 35.7504L106.814 37.7068L106.434 39.7143L106.065 41.7705L105.709 43.8736L105.367 46.0213L105.04 48.2114L104.728 50.4416L104.433 52.7096L104.155 55.013L103.895 57.3495L103.654 59.7164L103.433 62.1114L103.232 64.5319L103.051 66.9754L102.892 69.4391L102.754 71.9206L102.639 74.4171L102.545 76.9261L102.475 79.4447L102.427 81.9704L102.402 84.5003L102.399 87.0319L102.42 89.5624L102.464 92.0891L102.531 94.6092L102.62 97.1201L102.731 99.6192L102.865 102.104L103.02 104.571L103.197 107.018L103.394 109.443L103.612 111.843L103.849 114.215L104.105 116.558L104.38 118.867L104.672 121.142L104.981 123.38L105.305 125.577L105.645 127.733L105.998 129.845L106.365 131.91L106.743 133.926L107.132 135.892L107.53 137.806L107.937 139.665L108.351 141.468L108.771 143.212L109.196 144.897L109.624 146.52L110.054 148.081L110.485 149.576L110.914 151.006L111.342 152.369L111.766 153.663L112.185 154.888L112.598 156.042L113.003 157.124L113.398 158.134L113.782 159.07L114.154 159.933L114.513 160.72L114.855 161.433L115.182 162.07L115.489 162.632L115.778 163.117L116.045 163.525L116.289 163.858L116.51 164.114L116.706 164.294L116.875 164.398L117.016 164.426L117.128 164.379L117.209 164.257L117.259 164.061L117.276 163.791L117.26 163.449L117.208 163.034L117.12 162.549L116.996 161.993L116.833 161.368L116.632 160.676L116.391 159.917L116.11 159.093L115.787 158.204L115.423 157.254L115.016 156.242L114.567 155.171L114.074 154.042L113.538 152.857L112.957 151.618L112.332 150.327L111.662 148.985L110.948 147.594L110.189 146.157L109.385 144.674L108.537 143.15L107.644 141.584L106.707 139.981L105.727 138.341L104.702 136.667L103.635 134.961L102.525 133.225L101.373 131.462L100.18 129.674L98.9466 127.863L97.6734 126.032L96.3614 124.182L95.0117 122.316L93.6253 120.437L92.2032 118.546L90.7466 116.647L89.2568 114.74L87.7352 112.829L86.1829 110.916L84.6016 109.003L82.9927 107.091L81.3578 105.185L79.6984 103.285L78.0163 101.393L76.3131 99.5124L74.5906 97.6445L72.8507 95.7914L71.0952 93.9552L69.326 92.1377L67.5451 90.3409L65.7546 88.5666L63.9563 86.8165L62.1523 85.0925L60.3449 83.3961L58.536 81.7291L56.7279 80.093L54.9227 78.4893L53.1226 76.9194L51.3298 75.3847L49.5465 73.8866L47.775 72.4262L46.0175 71.0048L44.2762 69.6234L42.5534 68.2831L40.8514 66.9848L39.1723 65.7295L37.5183 64.5179L35.8918 63.3509L34.2949 62.229L32.7298 61.1528L31.1986 60.1229L29.7035 59.1398L28.2466 58.2037L26.83 57.3151L25.4557 56.474L24.1258 55.6806L22.8421 54.9351L21.6066 54.2374L20.4212 53.5874L19.2878 52.985L18.2081 52.4299L17.1838 51.9219L16.2166 51.4606L15.3081 51.0456L14.4598 50.6763L13.6733 50.3523L12.95 50.0729L12.2911 49.8373L11.698 49.645L11.1719 49.4949L10.714 49.3864L10.3251 49.3184L10.0064 49.29L9.75868 49.3002L9.5828 49.3479L9.47946 49.4319L9.44929 49.5512L9.49287 49.7045L9.61064 49.8905L9.80299 50.1081L10.0702 50.3558L10.4125 50.6324L10.8299 50.9364L11.3225 51.2665L11.8902 51.6212L12.5328 51.9991L13.2501 52.3987L14.0418 52.8185L14.9072 53.257L15.8461 53.7128L16.8576 54.1843L17.9411 54.67L19.0957 55.1684L20.3207 55.678L21.6149 56.1972L22.9773 56.7245L24.4068 57.2585L25.902 57.7977L27.4617 58.3405L29.0845 58.8855L30.7688 59.4314L32.5131 59.9766L34.3157 60.5198L36.1748 61.0596L38.0888 61.5948L40.0557 62.1239L42.0736 62.6457L44.1404 63.159L46.2542 63.6626L48.4127 64.1554L50.6138 64.6362L52.8552 65.1039L55.1346 65.5576L57.4497 65.9963L59.798 66.419L62.1772 66.8249L64.5846 67.2132L67.0179 67.583L69.4745 67.9338L71.9517 68.2648L74.4469 68.5753L76.9575 68.865L79.4808 69.1333L82.0141 69.3798L84.5547 69.6041L87.1 69.806L89.6471 69.9851L92.1934 70.1414L94.7361 70.2746L97.2724 70.3849L99.7998 70.4721L102.315 70.5363L104.817 70.5777L107.301 70.5965L109.765 70.5929L112.207 70.5673L114.623 70.5199L117.012 70.4514L119.371 70.362L121.698 70.2525L123.988 70.1234L126.242 69.9754L128.455 69.8091L130.626 69.6255L132.753 69.4251L134.832 69.2091L136.862 68.9782L138.842 68.7334L140.768 68.4757L142.638 68.2062L144.452 67.926L146.207 67.6362L147.9 67.3379L149.532 67.0323L151.099 66.7207L152.601 66.4044L154.035 66.0846L155.401 65.7625L156.697 65.4397L157.922 65.1173L159.075 64.7968L160.155 64.4795L161.161 64.1669L162.091 63.8603L162.946 63.5612L163.725 63.2709L164.426 62.9909L165.05 62.7226L165.596 62.4673L166.064 62.2266L166.453 62.0017L166.764 61.7941L166.996 61.6051L167.149 61.4361L167.225 61.2884L167.222 61.1632L167.142 61.0619L166.984 60.9858L166.749 60.9359L166.439 60.9136L166.053 60.9199L165.593 60.956L165.058 61.0229L164.451 61.1217L163.773 61.2534L163.024 61.4188L162.206 61.6188L161.319 61.8544L160.366 62.1263L159.348 62.4351L158.266 62.7816L157.122 63.1664L155.918 63.59L154.655 64.053L153.335 64.5557L151.96 65.0984L150.531 65.6817L149.052 66.3055L147.523 66.9701L145.947 67.6757L144.326 68.4221L142.662 69.2095L140.957 70.0376L139.214 70.9062L137.434 71.8152L135.621 72.7642L133.775 73.7528L131.9 74.7805L129.998 75.8468L128.071 76.9511L126.122 78.0926L124.153 79.2707L122.167 80.4845L120.165 81.7331L118.15 83.0156L116.125 84.3309L114.092 85.6779L112.053 87.0555L110.011 88.4625L107.968 89.8975L105.926 91.3593L103.888 92.8464L101.856 94.3573L99.8326 95.8905L97.8193 97.4446L95.8186 99.0177L93.8326 100.608L91.8636 102.215L89.9134 103.835L87.9843 105.467L86.0781 107.11L84.1968 108.761L82.3422 110.419L80.5162 112.081L78.7206 113.746L76.9569 115.411L75.2269 117.075L73.5322 118.734L71.8743 120.389L70.2545 122.035L68.6744 123.672L67.1352 125.296L65.6381 126.906L64.1844 128.5L62.7751 130.076L61.4112 131.631L60.0937 133.163L58.8235 134.67L57.6013 136.15L56.428 137.601L55.304 139.02L54.23 140.407L53.2065 141.758L52.2339 143.072L51.3125 144.346L50.4426 145.58L49.6243 146.769L48.8577 147.914L48.1429 149.012L47.4798 150.061L46.8682 151.06L46.3081 152.007L45.799 152.899L45.3406 153.737L44.9326 154.517L44.5744 155.239L44.2655 155.901L44.0052 156.502L43.7929 157.04L43.6277 157.515L43.509 157.925L43.4357 158.269L43.407 158.546L43.4218 158.755L43.4792 158.896L43.578 158.967L43.7171 158.969L43.8953 158.899L44.1113 158.759L44.3639 158.547L44.6517 158.263L44.9734 157.906L45.3276 157.478L45.7128 156.977L46.1277 156.404L46.5706 155.758L47.0402 155.04L47.5349 154.251L48.0531 153.39L48.5933 152.458L49.1539 151.456L49.7333 150.384L50.3299 149.243L50.9422 148.034L51.5685 146.758L52.2072 145.415L52.8568 144.007L53.5156 142.535L54.1821 141.001L54.8548 139.405L55.532 137.748L56.2122 136.034L56.894 134.262L57.5758 132.435L58.2562 130.555L58.9337 128.623L59.607 126.641L60.2746 124.61L60.9353 122.534L61.5877 120.414L62.2306 118.252L62.8628 116.05L63.483 113.811L64.0902 111.537L64.6832 109.23L65.2611 106.892L65.8229 104.527L66.3675 102.136L66.8942 99.7215L67.4022 97.2868L67.8905 94.8341L68.3587 92.366L68.8059 89.8852L69.2316 87.3942L69.6353 84.8958L70.0165 82.3925L70.3748 79.8872L70.7098 77.3824L71.0213 74.8809L71.309 72.3853L71.5728 69.8984L71.8125 67.4228L72.0283 64.9612L72.22 62.5162L72.3878 60.0906L72.5318 57.6869L72.6522 55.3077L72.7494 52.9556L72.8236 50.6332L72.8753 48.343L72.9049 46.0874L72.913 43.8689L72.9 41.6898L72.8667 39.5526L72.8136 37.4595L72.7417 35.4127L72.6515 33.4145L72.544 31.467L72.4201 29.5722L72.2807 27.7322L72.1267 25.949L71.9591 24.2243L71.7791 22.56L71.5877 20.9579L71.3861 19.4196L71.1754 17.9466L70.9568 16.5405L70.7315 15.2028L70.5009 13.9347L70.2661 12.7375L70.0285 11.6124L69.7895 10.5604L69.5502 9.58266L69.3122 8.67995L69.0767 7.85313L68.8451 7.10294L68.6189 6.42998L68.3993 5.83481L68.1878 5.31788L67.9858 4.87953L67.7947 4.52005L67.6158 4.23956L67.4504 4.03816L67.3 3.91583L67.1659 3.87243L67.0493 3.90776L66.9517 4.02153L66.8742 4.21332L66.8181 4.48265L66.7847 4.82895L66.7751 5.25154L66.7905 5.74966L66.8319 6.32247L66.9006 6.96903L66.9975 7.68834L67.1237 8.47928L67.28 9.34067L67.4674 10.2713L67.6868 11.2697L67.939 12.3346L68.2247 13.4644L68.5447 14.6576L68.8995 15.9126L69.2898 17.2276L69.7161 18.601L70.1789 20.0308L70.6786 21.5151L71.2155 23.0522L71.7899 24.6399L72.402 26.2762L73.052 27.959L73.7399 29.6862L74.4658 31.4556L75.2295 33.2649L76.0311 35.112L76.8702 36.9945L77.7466 38.9101L78.66 40.8565L79.6099 42.8313L80.596 44.8321L81.6175 46.8565L82.674 48.9021L83.7647 50.9664L84.8889 53.0471L86.0458 55.1417L87.2344 57.2477L88.4538 59.3627L89.703 61.4843L90.9809 63.61L92.2864 65.7375L93.6181 67.8643L94.9749 69.9881L96.3555 72.1066L97.7583 74.2174L99.1821 76.3182L100.625 78.4067L102.086 80.4808L103.563 82.5381L105.055 84.5767L106.56 86.5942L108.076 88.5888L109.601 90.5584L111.133 92.5009L112.672 94.4146L114.214 96.2974L115.758 98.1477L117.302 99.9636L118.844 101.744L120.381 103.486L121.913 105.189L123.437 106.851L124.95 108.472L126.451 110.049L127.938 111.581L129.408 113.067L130.86 114.506L132.292 115.897L133.701 117.239L135.085 118.531L136.442 119.772L137.771 120.962L139.068 122.099L140.333 123.184L141.563 124.215L142.757 125.192L143.911 126.115L145.025 126.984L146.097 127.798L147.124 128.558L148.105 129.262L149.038 129.912L149.922 130.508L150.754 131.049L151.534 131.535L152.259 131.968L152.929 132.348L153.541 132.675L154.094 132.949L154.588 133.172L155.02 133.343L155.39 133.465L155.697 133.536L155.939 133.56L156.116 133.535L156.226 133.464L156.269 133.348L156.244 133.187L156.151 132.983L155.989 132.736L155.757 132.449L155.456 132.122L155.084 131.758L154.642 131.356L154.129 130.919L153.545 130.448L152.892 129.945L152.167 129.411L151.372 128.847L150.508 128.256L149.574 127.639L148.571 126.997L147.5 126.332L146.36 125.646L145.154 124.94L143.882 124.216L142.544 123.475L141.142 122.72L139.677 121.952L138.151 121.173L136.563 120.384L134.916 119.586L133.212 118.783L131.451 117.974L129.635 117.162L127.766 116.348L125.846 115.534L123.876 114.721L121.858 113.911L119.795 113.105L117.688 112.305L115.539 111.512L113.351 110.727L111.125 109.952L108.864 109.188L106.57 108.435L104.246 107.697L101.894 106.973L99.5157 106.264L97.1145 105.572L94.6925 104.897L92.2524 104.241L89.7966 103.604L87.3279 102.988L84.8487 102.392L82.3618 101.818L79.8698 101.266L77.3754 100.737L74.8812 100.231L72.39 99.7486L69.9045 99.2906L67.4273 98.8571L64.9611 98.4483L62.5087 98.0644L60.0726 97.7056L57.6556 97.3719L55.2603 97.0633L52.8893 96.7798L50.5453 96.5213L48.2307 96.2876L45.9481 96.0784L43.7001 95.8935L41.489 95.7324L39.3174 95.5949L37.1876 95.4803L35.1019 95.3883L33.0627 95.3181L31.0721 95.2691L29.1324 95.2407L27.2457 95.2321L25.414 95.2425L23.6393 95.271L21.9236 95.3169L20.2687 95.3791L18.6764 95.4566L17.1484 95.5485L15.6863 95.6537L14.2918 95.7711L12.9663 95.8995L11.7112 96.0379L10.5278 96.1851L9.4173 96.3397L8.38093 96.5006L7.41971 96.6666L6.5346 96.8363L5.72647 97.0085L4.99611 97.1818L4.34422 97.3548L3.77138 97.5264L3.2781 97.6952L2.86479 97.8597L2.53177 98.0186L2.27924 98.1707L2.10734 98.3145L2.01608 98.4488L2.0054 98.5722L2.07513 98.6833L2.22502 98.781L2.45471 98.8639L2.76375 98.9307L3.1516 98.9803L3.61763 99.0113L4.1611 99.0227L4.78121 99.0132L5.47706 98.9818L6.24764 98.9273L7.09189 98.8488L8.00863 98.745L8.99663 98.6153L10.0546 98.4584L11.181 98.2737L12.3745 98.0603L13.6335 97.8173L14.9563 97.5441L16.3412 97.2399L17.7866 96.9042L19.2905 96.5363L20.851 96.1358L22.4662 95.7022L24.1342 95.2351L25.8527 94.7342L27.6197 94.1992L29.433 93.6299L31.2903 93.0262L33.1896 92.388L35.1283 91.7152L37.1043 91.008L39.1151 90.2665L41.1583 89.4908L43.2315 88.6813L45.3323 87.8382L47.4581 86.962L49.6066 86.0531L51.7751 85.1121L53.9612 84.1395L56.1624 83.136L58.3761 82.1024L60.5998 81.0394L62.831 79.948L65.0672 78.829L67.3059 77.6835L69.5446 76.5124L71.7808 75.317L74.0121 74.0983L76.236 72.8577L78.4502 71.5963L80.6522 70.3157L82.8397 69.017L85.0104 67.7019L87.1621 66.3717L89.2924 65.0281L91.3993 63.6726L93.4806 62.3068L95.5342 60.9325L97.558 59.5513L99.5501 58.1651L101.509 56.7755L103.431 55.3844L105.317 53.9936L107.163 52.6051L108.969 51.2207L110.733 49.8422L112.452 48.4717L114.126 47.1112L115.753 45.7624L117.332 44.4275L118.862 43.1084L120.341 41.8071L121.769 40.5255L123.144 39.2656L124.465 38.0294L125.732 36.8189L126.943 35.636L128.098 34.4827L129.197 33.3608L130.239 32.2722L131.223 31.2189L132.149 30.2026L133.017 29.2253L133.827 28.2886L134.578 27.3943L135.27 26.5441L135.904 25.7397L136.479 24.9827L136.996 24.2748L137.455 23.6173L137.856 23.0118L138.2 22.4598L138.487 21.9625L138.718 21.5213L138.893 21.1375L139.013 20.8121L139.08 20.5464L139.093 20.3413L139.054 20.1979L138.963 20.1171L138.823 20.0996L138.633 20.1462L138.395 20.2577L138.11 20.4346L137.78 20.6774L137.405 20.9867L136.988 21.3626L136.529 21.8056L136.03 22.3158L135.492 22.8932L134.917 23.5381L134.307 24.2502L133.663 25.0294L132.987 25.8755L132.28 26.7881L131.544 27.7669L130.78 28.8114L129.991 29.9209L129.179 31.0948L128.344 32.3324L127.488 33.6328L126.614 34.995L125.724 36.4181L124.817 37.9009L123.898 39.4424L122.967 41.0412L122.026 42.6959L121.076 44.4053L120.12 46.1678L119.16 47.9818L118.196 49.8457L117.23 51.7577L116.265 53.7162L115.301 55.7192L114.341 57.7649L113.385 59.8513L112.435 61.9763L111.494 64.1378L110.561 66.3338L109.639 68.5619L108.729 70.82L107.831 73.1058L106.949 75.4168L106.081 77.7508L105.231 80.1052L104.398 82.4777L103.584 84.8657L102.79 87.2668L102.017 89.6783L101.265 92.0977L100.536 94.5224L99.8293 96.9498L99.1469 99.3773L98.4888 101.802L97.8558 104.222L97.2482 106.634L96.6666 109.035L96.1112 111.424L95.5824 113.796L95.0804 116.151L94.6055 118.484L94.1576 120.794L93.7368 123.077L93.3432 125.332L92.9767 127.556L92.637 129.746L92.324 131.9L92.0374 134.016L91.7769 136.091L91.542 138.122L91.3324 140.108L91.1476 142.047L90.9868 143.935L90.8497 145.772L90.7354 147.554L90.6432 149.28L90.5724 150.949L90.5221 152.557L90.4915 154.104L90.4797 155.587L90.4856 157.005L90.5083 158.357L90.5467 159.64L90.5999 160.854L90.6665 161.997L90.7456 163.067L90.8359 164.065L90.9362 164.987L91.0453 165.835L91.1619 166.605L91.2849 167.299L91.4128 167.915L91.5444 168.452L91.6783 168.91L91.8133 169.288L91.948 169.586L92.0811 169.805L92.2112 169.942L92.3369 170L92.4571 169.976L92.5702 169.873L92.6751 169.689L92.7703 169.426L92.8547 169.083L92.9268 168.661L92.9856 168.161L93.0297 167.583L93.0578 166.929L93.069 166.198L93.0619 165.392L93.0355 164.512L92.9886 163.56L92.9203 162.535L92.8295 161.44L92.7152 160.276L92.5766 159.044L92.4127 157.747L92.2226 156.384L92.0057 154.959L91.7612 153.473L91.4883 151.927L91.1865 150.324L90.8552 148.666L90.4939 146.954L90.1022 145.19L89.6795 143.377L89.2256 141.517L88.7403 139.612L88.2233 137.665L87.6744 135.677L87.0936 133.65L86.4809 131.589L85.8363 129.493L85.16 127.367L84.4521 125.213L83.7128 123.032L82.9426 120.828L82.1417 118.603L81.3107 116.36L80.45 114.101L79.5602 111.829L78.642 109.545L77.6962 107.254L76.7234 104.957L75.7245 102.657L74.7005 100.357L73.6523 98.0582L72.5809 95.7641L71.4874 93.477L70.373 91.1992L69.2389 88.9334L68.0863 86.6818L66.9166 84.4468L65.7311 82.2308L64.5312 80.036L63.3184 77.8648L62.0942 75.7193L60.8601 73.6017L59.6177 71.5142L58.3688 69.4587L57.1149 67.4373L55.8577 65.4519L54.599 63.5045L53.3405 61.5969L52.0841 59.7307L50.8316 57.9079L49.5847 56.1299L48.3454 54.3983L47.1156 52.7147L45.897 51.0805L44.6917 49.4969L43.5014 47.9653L42.3282 46.4869L41.174 45.0628L40.0406 43.694L38.9299 42.3815L37.8439 41.1262L36.7845 39.9288L35.7534 38.79L34.7527 37.7106L33.784 36.691L32.8492 35.7317L31.9502 34.8331L31.0887 33.9954L30.2663 33.219L29.4849 32.5039L28.746 31.8501L28.0513 31.2577L27.4023 30.7265L26.8007 30.2564L26.2478 29.847L25.7452 29.498L25.2941 29.209L24.896 28.9795L24.552 28.8088L24.2635 28.6964L24.0314 28.6415L23.857 28.6432L23.7413 28.7009L23.6851 28.8134L23.6894 28.9798L23.7549 29.1991L23.8825 29.4702L24.0726 29.7917L24.326 30.1626L24.6432 30.5815L25.0244 31.0471L25.4702 31.5579L25.9807 32.1126L26.5561 32.7097L27.1965 33.3476L27.9019 34.0248L28.6723 34.7396L29.5074 35.4905L30.4071 36.2758L31.3709 37.0938L32.3985 37.9427L33.4894 38.8208L34.6429 39.7264L35.8584 40.6578L37.1351 41.613L38.4723 42.5903L39.8688 43.588L41.3239 44.6041L42.8362 45.6369L44.4047 46.6846L46.0282 47.7454L47.7051 48.8174L49.4343 49.8989L51.2141 50.9881L53.0431 52.0832L54.9195 53.1826L56.8417 54.2844L58.8078 55.3869L60.8162 56.4886L62.8647 57.5878L64.9516 58.6828L67.0747 59.772L69.232 60.854L71.4213 61.9272L73.6404 62.9901L75.8871 64.0414L78.1591 65.0797L80.4541 66.1035L82.7696 67.1117L85.1034 68.1031L87.4528 69.0763L89.8155 70.0304L92.189 70.9642L94.5707 71.8767L96.9579 72.7669L99.3483 73.6341L101.739 74.4772L104.128 75.2956L106.512 76.0886L108.888 76.8554L111.255 77.5955L113.609 78.3084L115.948 78.9936L118.268 79.6508L120.569 80.2795L122.846 80.8795L125.098 81.4506L127.322 81.9927L129.515 82.5058L131.675 82.9897L133.799 83.4446L135.885 83.8706L137.931 84.2679L139.934 84.6367L141.891 84.9773L143.802 85.2901L145.663 85.5755L147.472 85.8341L149.228 86.0663L150.927 86.2728L152.569 86.4541L154.151 86.611L155.672 86.7444L157.129 86.8549L158.521 86.9434L159.846 87.0108L161.104 87.058L162.291 87.0861L163.408 87.0961L164.452 87.0889L165.422 87.0658L166.318 87.0278L167.138 86.9761L167.881 86.9118L168.546 86.8362L169.133 86.7506L169.641 86.6561L170.069 86.554L170.416 86.4456L170.684 86.3323L170.87 86.2152L170.975 86.0958L170.998 85.9754L170.94 85.8552L170.801 85.7366L170.581 85.621L170.28 85.5096L169.899 85.4037L169.437 85.3046L168.896 85.2136L168.276 85.1321L167.578 85.0611L166.803 85.0019L165.951 84.9558L165.024 84.9239L164.023 84.9074L162.948 84.9073L161.801 84.9247L160.584 84.9607L159.298 85.0163L157.945 85.0925L156.525 85.1901L155.041 85.3101L153.495 85.4532L151.887 85.6203L150.221 85.8121L148.498 86.0293L146.719 86.2725L144.888 86.5422L143.006 86.8391L141.076 87.1636L139.098 87.5159L137.077 87.8967L135.014 88.306L132.912 88.7441L130.773 89.2111L128.598 89.7073L126.392 90.2325L124.157 90.7868L121.894 91.3701L119.606 91.9822L117.297 92.6229L114.968 93.2918L112.623 93.9887L110.263 94.713L107.892 95.4644L105.512 96.2423L103.126 97.046L100.736 97.8749L98.3451 98.7282L95.9557 99.6052L93.5705 100.505L91.192 101.426L88.8227 102.369L86.4653 103.331L84.1221 104.312L81.7957 105.311L79.4885 106.326L77.2029 107.356L74.9412 108.4L72.7058 109.456L70.4989 110.523L68.3228 111.6L66.1796 112.686L64.0714 113.777L62.0004 114.874L59.9685 115.975L57.9776 117.077L56.0297 118.179L54.1265 119.28L52.2698 120.378L50.4613 121.471L48.7025 122.557L46.9951 123.635L45.3404 124.703L43.7398 125.758L42.1947 126.8L40.7063 127.826L39.2757 128.834L37.9039 129.824L36.592 130.792L35.3409 131.737L34.1513 132.658L33.024 133.552L31.9596 134.419L30.9587 135.255L30.0217 136.059L29.1491 136.83L28.3412 137.566L27.598 138.265L26.9199 138.926L26.3067 139.547L25.7586 140.127L25.2753 140.663L24.8566 141.155L24.5023 141.601L24.212 142L23.9852 142.351L23.8213 142.651L23.7199 142.901L23.6802 143.098L23.7014 143.242L23.7826 143.331L23.9231 143.366L24.1218 143.344L24.3777 143.265L24.6897 143.128L25.0565 142.933L25.477 142.678L25.9499 142.364L26.4738 141.99L27.0473 141.555L27.669 141.059L28.3373 140.503L29.0507 139.884L29.8077 139.205L30.6065 138.464L31.4455 137.662L32.323 136.799L33.2372 135.874L34.1864 134.89L35.1688 133.845L36.1825 132.741L37.2257 131.577L38.2965 130.355L39.3931 129.076L40.5135 127.74L41.6559 126.348L42.8183 124.901L43.9989 123.4L45.1957 121.846L46.4068 120.241L47.6303 118.586L48.8644 116.882L50.1071 115.131L51.3565 113.334L52.6109 111.493L53.8684 109.609L55.1272 107.684L56.3855 105.721L57.6415 103.72L58.8935 101.684L60.1399 99.615L61.379 97.5146L62.6091 95.385L63.8287 93.2285L65.0363 91.0471L66.2304 88.8432L67.4094 86.6189L68.5721 84.3767L69.7171 82.1188L70.8431 79.8477L71.9489 77.5657L73.0332 75.2754L74.095 72.9791L75.1332 70.6794L76.1467 68.3788L77.1348 66.0798L78.0964 63.7849L79.0307 61.4968L79.937 59.2179L80.8147 56.9508L81.663 54.698L82.4814 52.4622L83.2695 50.2458L84.0268 48.0514L84.7529 45.8815L85.4476 43.7385L86.1107 41.625L86.7419 39.5435L87.3412 37.4962L87.9086 35.4857L88.4441 33.5143L88.9478 31.5842L89.4199 29.6978L89.8606 27.8574L90.2703 26.065L90.6492 24.3229L90.9979 22.6331L91.3167 20.9976L91.6063 19.4185L91.8672 17.8975L92.1 16.4367L92.3056 15.0377L92.4846 13.7022L92.6378 12.432L92.7661 11.2285L92.8704 10.0933L92.9517 9.0277L93.0109 8.03313L93.049 7.11081L93.0672 6.26191L93.0665 5.4875L93.048 4.7886L93.013 4.16611L92.9627 3.62083L92.8981 3.15352L92.8207 2.76481L92.7316 2.45523L92.6322 2.22526L92.5237 2.07523L92.4074 2.00543L92.2848 2.01602L92.157 2.10707L92.0255 2.27857L91.8916 2.53041L91.7566 2.86237L91.6219 3.27415L91.4888 3.76534L91.3586 4.33546L91.2326 4.98392L91.1121 5.71003L90.9985 6.51304L90.8929 7.39208L90.7967 8.34618L90.711 9.37432L90.637 10.4754L90.5759 11.6481L90.5288 12.8912L90.4968 14.2034L90.481 15.5831L90.4824 17.0288L90.502 18.5389L90.5408 20.1117L90.5996 21.7455L90.6792 23.4384L90.7806 25.1884L90.9044 26.9937L91.0514 28.8523L91.2221 30.7619L91.4173 32.7206L91.6375 34.726L91.883 36.776L92.1544 38.8681L92.4521 41.0002L92.7762 43.1697L93.1272 45.3744L93.5051 47.6116L93.9101 49.8789L94.3422 52.1738L94.8015 54.4938L95.2878 56.8362L95.801 59.1985L96.341 61.578L96.9074 63.9722L97.5 66.3783L98.1183 68.7938L98.7619 71.2161L99.4303 73.6424L100.123 76.0702L100.839 78.4968L101.578 80.9196L102.339 83.336L103.121 85.7434L103.923 88.1393L104.745 90.5211L105.586 92.8863L106.443 95.2325L107.317 97.5571L108.206 99.8578L109.109 102.132L110.024 104.378L110.951 106.593L111.888 108.775L112.833 110.921L113.785 113.03L114.743 115.1L115.705 117.128L116.67 119.112L117.635 121.052L118.6 122.944L119.563 124.787L120.522 126.579L121.476 128.32L122.422 130.006L123.359 131.638L124.285 133.213L125.199 134.73L126.099 136.188L126.983 137.585L127.85 138.922L128.697 140.196L129.522 141.407L130.325 142.554L131.104 143.636L131.856 144.653L132.58 145.604L133.274 146.489L133.937 147.307L134.567 148.058L135.163 148.742L135.722 149.359L136.244 149.908L136.726 150.39L137.168 150.805L137.568 151.153L137.924 151.434L138.235 151.649L138.501 151.798L138.718 151.883L138.888 151.902L139.008 151.858L139.077 151.751L139.094 151.581L139.058 151.351L138.969 151.06L138.826 150.71L138.627 150.302L138.373 149.837L138.062 149.317L137.694 148.742L137.269 148.114L136.786 147.436L136.245 146.707L135.645 145.93L134.987 145.106L134.27 144.237L133.494 143.325L132.66 142.371L131.768 141.377L130.817 140.345L129.809 139.277L128.743 138.174L127.62 137.038L126.441 135.872L125.207 134.678L123.917 133.456L122.573 132.21L121.176 130.941L119.727 129.651L118.226 128.341L116.676 127.016L115.076 125.675L113.429 124.321L111.736 122.956L109.998 121.582L108.217 120.2L106.394 118.814L104.531 117.424L102.629 116.033L100.691 114.642L98.7182 113.254L96.7126 111.87L94.676 110.491L92.6106 109.12L90.5183 107.759L88.4013 106.408L86.2617 105.07L84.1018 103.746L81.9237 102.437L79.7298 101.146L77.5224 99.8733L75.3039 98.6205L73.0766 97.3889L70.843 96.1799L68.6054 94.9945L66.3664 93.834L64.1285 92.6995L61.8941 91.592L59.6657 90.5124L57.4459 89.4616L55.2371 88.4406L53.0419 87.45L50.8629 86.4905L48.7025 85.5629L46.5633 84.6676L44.4476 83.8053L42.3581 82.9762L40.2972 82.1809L38.2673 81.4195L36.2708 80.6924L34.3102 79.9996L32.3877 79.3413L30.5058 78.7176L28.6666 78.1283L26.8725 77.5734L25.1256 77.0528L23.428 76.5661L21.782 76.1131L20.1895 75.6934L18.6525 75.3067L17.1729 74.9524L15.7527 74.63L14.3936 74.3389L13.0973 74.0784L11.8656 73.8479L10.7001 73.6466L9.60224 73.4737L8.57348 73.3284L7.61522 73.2096L6.72875 73.1166L5.91528 73.0483L5.17593 73.0036L4.51175 72.9815L3.92369 72.9809L3.41261 73.0007L2.97931 73.0397L2.62445 73.0966L2.34865 73.1703L2.15239 73.2596L2.03609 73.3631L2.00008 73.4795L2.04456 73.6076L2.16964 73.7461L2.37539 73.8935L2.66171 74.0486L3.02846 74.2101L3.47536 74.3765L4.00208 74.5466L4.60815 74.719L5.29305 74.8923L6.05613 75.0653L6.89665 75.2366L7.81382 75.4049L8.80669 75.5689L9.87428 75.7273L11.0155 75.879L12.2291 76.0226L13.514 76.157L14.8686 76.2809L16.2916 76.3933L17.7816 76.4931L19.3367 76.5791L20.9555 76.6503L22.6362 76.7057L24.3769 76.7444L26.1757 76.7655L28.0308 76.768L29.94 76.7512L31.9013 76.7142L33.9125 76.6564L35.9715 76.5771L38.076 76.4757L40.2236 76.3516L42.4121 76.2042L44.6389 76.0332L46.9018 75.8381L49.1981 75.6187L51.5254 75.3746L53.881 75.1056L56.2626 74.8116L58.6673 74.4925L61.0926 74.1483L63.5359 73.7789L65.9944 73.3845L68.4655 72.9653L70.9465 72.5215L73.4348 72.0533L75.9275 71.5612L78.4221 71.0455L80.9159 70.5067L83.406 69.9453L85.89 69.362L88.3651 68.7574L90.8288 68.1322L93.2783 67.4873L95.7111 66.8233L98.1247 66.1412L100.517 65.4421L102.884 64.7267L105.225 63.9963L107.537 63.2519L109.817 62.4946L112.063 61.7256L114.274 60.9463L116.446 60.1578L118.577 59.3615L120.666 58.5588L122.71 57.751L124.708 56.9396L126.658 56.1261L128.556 55.3119L130.403 54.4986L132.196 53.6877L133.934 52.8808L135.614 52.0794L137.237 51.2853L138.799 50.5L140.3 49.7251L141.738 48.9624L143.113 48.2134L144.424 47.4797L145.668 46.7632L146.847 46.0653L147.957 45.3878L149 44.7324L149.974 44.1005L150.879 43.4939L151.714 42.9141L152.48 42.3628L153.175 41.8414L153.799 41.3516L154.353 40.8948L154.836 40.4725L155.249 40.0861L155.591 39.7371L155.863 39.4269L156.066 39.1567L156.199 38.9278L156.263 38.7416L156.259 38.5991L156.188 38.5015L156.049 38.45L155.845 38.4455L155.576 38.4891L155.243 38.5816L154.846 38.7239L154.388 38.9168L153.869 39.161L153.291 39.4572L152.655 39.806L151.962 40.208L151.213 40.6635L150.411 41.173L149.557 41.7367L148.652 42.355L147.699 43.0279L146.698 43.7556L145.652 44.538L144.563 45.3751L143.432 46.2668L142.261 47.2127L141.052 48.2126L139.807 49.2662L138.528 50.3729L137.217 51.5322L135.876 52.7435L134.507 54.0061L133.112 55.3191L131.694 56.6818L130.254 58.0932L128.794 59.5522L127.316 61.0579L125.823 62.609L124.316 64.2043L122.799 65.8425L121.271 67.5221L119.737 69.2419L118.197 71.0001L116.654 72.7954L115.11 74.6259L113.566 76.4901L112.026 78.3861L110.49 80.3121L108.96 82.2662L107.438 84.2465L105.927 86.251L104.428 88.2776L102.942 90.3243L101.471 92.3889L100.017 94.4693L98.5823 96.5633L97.1671 98.6685L95.7734 100.783L94.4027 102.904L93.0562 105.029L91.7353 107.157L90.4413 109.284L89.1753 111.408L87.9385 113.527L86.7319 115.639L85.5565 117.74L84.4132 119.829L83.303 121.903L82.2265 123.96L81.1846 125.997L80.1779 128.012L79.2069 130.002L78.2723 131.965L77.3743 133.899L76.5135 135.801L75.6902 137.669L74.9045 139.5L74.1566 141.293L73.4466 143.045L72.7746 144.754L72.1406 146.418L71.5443 148.034L70.9857 149.6L70.4644 151.116L69.9803 152.577L69.5328 153.984L69.1217 155.333L68.7463 156.623L68.4062 157.852L68.1007 159.019L67.8292 160.122L67.5908 161.159L67.3849 162.129L67.2107 163.031L67.0671 163.863L66.9534 164.624L66.8684 165.313L66.8113 165.928L66.7809 166.47L66.7761 166.936L66.7959 167.327L66.839 167.641L66.9042 167.878L66.9903 168.037L67.096 168.118L67.2201 168.12L67.3612 168.044L67.5181 167.888L67.6893 167.654L67.8735 167.34L68.0693 166.947L68.2755 166.476L68.4905 165.926L68.7131 165.298L68.9417 164.593L69.1751 163.811L69.4118 162.952L69.6505 162.017L69.8899 161.008L70.1285 159.926L70.3651 158.77L70.5983 157.543L70.8268 156.246L71.0494 154.879L71.2648 153.445L71.4719 151.944L71.6693 150.379L71.8561 148.75L72.031 147.061L72.193 145.311L72.341 143.504L72.474 141.641L72.5912 139.724L72.6915 137.754L72.7741 135.736L72.8382 133.669L72.8831 131.557L72.908 129.402L72.9122 127.206L72.8952 124.972L72.8564 122.701L72.7953 120.397L72.7114 118.062L72.6045 115.699L72.4742 113.309L72.3203 110.895L72.1425 108.461L71.9407 106.009L71.7149 103.541L71.465 101.061L71.1912 98.5698L70.8935 96.0714L70.5721 93.5682L70.2272 91.0628L69.8593 88.558L69.4686 86.0565L69.0556 83.5609L68.6208 81.0738L68.1647 78.598L67.688 76.1361L67.1914 73.6906L66.6755 71.2642L66.1411 68.8594L65.5892 66.4787L65.0206 64.1246L64.4362 61.7996L63.8371 59.506L63.2243 57.2462L62.5989 55.0225L61.9621 52.8372L61.3151 50.6925L60.659 48.5905L59.9953 46.5334L59.3251 44.5231L58.6499 42.5616L57.971 40.6509L57.2898 38.7927L56.6078 36.9889L55.9265 35.241L55.2474 33.5508L54.5719 31.9197L53.9016 30.3493L53.2382 28.8408L52.583 27.3957L51.9378 26.0151L51.3041 24.7001L50.6835 23.4518L50.0776 22.2712L49.488 21.1591L48.9163 20.1164L48.364 19.1436L47.8329 18.2415L47.3244 17.4106L46.84 16.6512L46.3814 15.9638L45.9501 15.3485L45.5475 14.8055L45.1751 14.3349L44.8344 13.9367L44.5267 13.6108L44.2535 13.357L44.0161 13.1749L43.8158 13.0643L43.6539 13.0246L43.5316 13.0553L43.45 13.1558L43.4104 13.3254L43.4137 13.5633L43.4609 13.8686L43.5532 14.2404L43.6913 14.6776L43.8762 15.1792L44.1085 15.744L44.3892 16.3707L44.7187 17.058L45.0977 17.8046L45.5268 18.609L46.0064 19.4698L46.5369 20.3853L47.1186 21.3539L47.7517 22.374L48.4365 23.4439L49.173 24.5618L49.9613 25.7258L50.8013 26.9341L51.6929 28.1848L52.6358 29.476L53.6298 30.8057L54.6745 32.172L55.7696 33.5726L56.9143 35.0057L58.1082 36.4692L59.3507 37.9609L60.6408 39.4787L61.9779 41.0205L63.3609 42.5842L64.789 44.1676L66.2611 45.7687L67.776 47.3851L69.3325 49.0149L70.9294 50.6558L72.5654 52.3058L74.2389 53.9628L75.9486 55.6245L77.6929 57.289L79.4702 58.9542L81.2788 60.6181L83.117 62.2786L84.983 63.9337L86.875 65.5816L88.7911 67.2202L90.7293 68.8478L92.6876 70.4625L94.664 72.0624L96.6564 73.6459L98.6626 75.2112L100.681 76.7567L102.708 78.2808L104.743 79.7819L106.783 81.2585L108.825 82.7093L110.868 84.1327L112.909 85.5275L114.946 86.8924L116.976 88.2263L118.997 89.5279L121.006 90.7963L123.002 92.0304L124.982 93.2293L126.943 94.3922L128.883 95.5182L130.799 96.6066L132.69 97.6568L134.553 98.6681L136.386 99.6401L138.185 100.572L139.95 101.465L141.678 102.316L143.366 103.127L145.012 103.897L146.614 104.627L148.171 105.315L149.679 105.963L151.137 106.569L152.543 107.136L153.895 107.661L155.192 108.147L156.43 108.594L157.61 109.001L158.728 109.37L159.783 109.7L160.774 109.994L161.699 110.25L162.557 110.471L163.347 110.656L164.066 110.807L164.715 110.925L165.291 111.01L165.795 111.064L166.224 111.088L166.578 111.082L166.857 111.048L167.059 110.987L167.185 110.9L167.233 110.788L167.203 110.654L167.094 110.497L166.908 110.319L166.643 110.122L166.299 109.907L165.877 109.676L165.376 109.429L164.798 109.168L164.141 108.894L163.407 108.61L162.597 108.316L161.71 108.013L160.748 107.704L159.711 107.389L158.6 107.07L157.417 106.749L156.162 106.426L154.836 106.103L153.442 105.782L151.979 105.464L150.449 105.149L148.855 104.84L147.197 104.537L145.478 104.242L143.698 103.957L141.86 103.681L139.966 103.416L138.018 103.164L136.017 102.925L133.965 102.7L131.866 102.49L129.721 102.297L127.532 102.12L125.301 101.962L123.032 101.821L120.726 101.7L118.385 101.599L116.014 101.519L113.613 101.459L111.185 101.421L108.733 101.404L106.261 101.41L103.769 101.438L101.261 101.489L98.7406 101.563L96.2092 101.66L93.6698 101.78L91.1253 101.923L88.5783 102.089L86.0317 102.277L83.488 102.489L80.9501 102.722L78.4207 102.978L75.9024 103.255L73.3979 103.554L70.9099 103.873L68.4411 104.212L65.994 104.571L63.5712 104.949L61.1753 105.345L58.8088 105.758L56.4741 106.187L54.1737 106.632L51.9099 107.092L49.6852 107.565L47.5017 108.051L45.3617 108.549L43.2674 109.057L41.2208 109.574L39.2241 110.099L37.2792 110.63L35.388 111.168L33.5523 111.709L31.774 112.253L30.0547 112.799L28.396 113.345L26.7995 113.889L25.2667 114.43L23.7989 114.968L22.3974 115.499L21.0635 116.023L19.7982 116.538L18.6026 117.043L17.4777 117.537L16.4243 118.017L15.4432 118.482L14.5351 118.93L13.7006 119.361L12.9401 119.773L12.2541 120.164L11.6429 120.532L11.1067 120.876L10.6456 121.196L10.2597 121.488L9.94894 121.753L9.71318 121.988L9.55216 122.193L9.46557 122.365L9.453 122.504L9.51394 122.609L9.6478 122.678L9.85392 122.71L10.1315 122.704L10.4798 122.659L10.8978 122.574L11.3845 122.449L11.9388 122.281L12.5596 122.07L13.2457 121.817L13.9957 121.519L14.8083 121.176L15.682 120.787L16.6153 120.353L17.6067 119.872L18.6545 119.344L19.7569 118.769L20.9124 118.147L22.119 117.477L23.3749 116.759L24.6783 115.994L26.0271 115.18L27.4194 114.319L28.8532 113.411L30.3263 112.455L31.8368 111.452L33.3825 110.403L34.9612 109.307L36.5708 108.166L38.2091 106.98L39.8738 105.75L41.5629 104.477L43.2739 103.161L45.0047 101.803L46.7531 100.405L48.5167 98.967L50.2935 97.4907L52.081 95.977L53.8771 94.4274L55.6797 92.8432L57.4864 91.2257L59.2951 89.5764L61.1036 87.8969L62.9098 86.1887L64.7116 84.4536L66.5069 82.6931L68.2937 80.9091L70.0699 79.1034L71.8336 77.2778L73.5827 75.4343L75.3155 73.5748L77.0301 71.7012L78.7247 69.8157L80.3975 67.9204L82.0469 66.0172L83.6711 64.1084L85.2686 62.1961L86.8379 60.2826L88.3774 58.37L89.8859 56.4607L91.3619 54.5567L92.8041 52.6605L94.2114 50.7744L95.5826 48.9005L96.9166 47.0413L98.2124 45.199L99.469 43.3758L100.686 41.5742L101.862 39.7964L102.996 38.0446L104.088 36.3212L105.137 34.6284L106.144 32.9683L107.106 31.3433L108.024 29.7554L108.899 28.2068L109.728 26.6997L110.513 25.2361L111.253 23.8179L111.949 22.4474L112.6 21.1263L113.206 19.8565L113.768 18.64L114.286 17.4785L114.761 16.3737L115.192 15.3274L115.581 14.3411L115.928 13.4165L116.233 12.5549L116.497 11.7578L116.721 11.0266L116.906 10.3625L117.053 9.76672L117.162 9.24041L117.234 8.78459L117.271 8.40023L117.273 8.08821L117.242 7.84933L117.179 7.68429L117.084 7.59373L116.96 7.57817L116.807 7.63808L116.627 7.77381L116.42 7.98563L116.19 8.27371L115.935 8.63816L115.659 9.07895L115.363 9.59599L115.047 10.1891L114.714 10.858L114.364 11.6023L114 12.4215L113.623 13.3151L113.233 14.2825L112.834 15.3228L112.426 16.4353L112.01 17.619L111.589 18.8729L111.163 20.196L110.734 21.587L110.304 23.0447L109.873 24.5677L109.444 26.1546L109.017 27.8039L108.594 29.514L108.176 31.2832L107.765 33.1097L107.362 34.9919L106.967 36.9276L106.583 38.9152L106.209 40.9524L105.848 43.0372L105.501 45.1676L105.167 47.3412L104.849 49.5558L104.547 51.8092L104.263 54.0989L103.996 56.4226L103.747 58.7777L103.518 61.162L103.309 63.5727L103.12 66.0074L102.952 68.4634L102.806 70.9382L102.682 73.4291L102.58 75.9335L102.5 78.4486L102.443 80.9718L102.409 83.5004L102.398 86.0317L102.409 88.5629L102.444 91.0914L102.502 93.6144L102.582 96.1293L102.685 98.6334L102.81 101.124L102.956 103.598L103.125 106.054L103.314 108.488L103.524 110.898L103.753 113.282L104.002 115.636L104.269 117.959L104.555 120.248L104.857 122.5L105.175 124.714L105.509 126.886L105.857 129.016L106.218 131.099L106.592 133.135L106.977 135.122L107.372 137.056L107.775 138.937L108.187 140.762L108.604 142.53L109.028 144.239L109.454 145.886L109.884 147.472L110.314 148.993L110.745 150.449L111.174 151.839L111.599 153.16L112.021 154.412L112.436 155.594L112.844 156.705L113.243 157.743L113.632 158.709L114.009 159.601L114.373 160.418L114.722 161.161L115.055 161.828L115.37 162.419L115.666 162.934L115.942 163.373L116.195 163.736L116.426 164.022L116.631 164.232L116.811 164.366L116.963 164.424L117.087 164.406L117.181 164.314L117.243 164.147L117.274 163.906L117.27 163.593L117.233 163.206L117.159 162.749L117.05 162.221L116.902 161.623L116.716 160.958L116.491 160.225L116.226 159.426L115.92 158.563L115.572 157.637L115.182 156.649L114.75 155.601L114.274 154.495L113.755 153.332L113.192 152.114L112.584 150.843L111.932 149.521L111.236 148.149L110.494 146.73L109.708 145.265L108.878 143.757L108.002 142.208L107.083 140.619L106.119 138.993L105.112 137.332L104.062 135.638L102.969 133.914L101.833 132.162L100.656 130.383L99.4387 128.581L98.1811 126.757L96.8844 124.915L95.5495 123.055L94.1774 121.181L92.7692 119.294L91.3261 117.398L89.8493 115.494L88.3401 113.585L86.7998 111.672L85.2298 109.758L83.6316 107.846L82.0068 105.937L80.3568 104.034L78.6835 102.139L76.9884 100.254L75.2733 98.3808L73.5401 96.5217L71.7905 94.6786L70.0265 92.8534L68.2501 91.0482L66.4631 89.2648L64.6676 87.5049L62.8656 85.7704L61.0593 84.063L59.2508 82.3842L57.4421 80.7357L55.6355 79.119L53.8331 77.5356L52.0371 75.9868L50.2498 74.4741L48.4734 72.9986L46.7101 71.5617L44.9621 70.1643L43.2317 68.8077L41.5212 67.4927L39.8328 66.2203L38.1686 64.9914L36.531 63.8066L34.9222 62.6668L33.3442 61.5725L31.7994 60.5243L30.2898 59.5226L28.8176 58.5679L27.3848 57.6605L25.9935 56.8006L24.6458 55.9884L23.3436 55.2239L22.0889 54.5073L20.8835 53.8385L19.7293 53.2173L18.6281 52.6436L17.5817 52.117L16.5918 51.6373L15.6599 51.2041L14.7877 50.8168L13.9766 50.475L13.2281 50.178L12.5437 49.9252L11.9244 49.7159L11.3717 49.5492L10.8867 49.4244L10.4704 49.3405L10.1239 49.2965L9.84802 49.2916L9.64366 49.3246L9.51157 49.3944L9.45243 49.4999L9.46681 49.6399L9.55521 49.8132L9.71805 50.0185L9.95566 50.2544L10.2683 50.5198L10.656 50.8131L11.1189 51.1331L11.6569 51.4782L12.27 51.8471L12.9578 52.2383L13.7201 52.6503L14.5565 53.0816L15.4664 53.5308L16.4493 53.9962L17.5044 54.4765L18.6311 54.9701L19.8284 55.4754L21.0953 55.991L22.4309 56.5153L23.834 57.0468L25.3035 57.5841L26.8379 58.1257L28.4359 58.67L30.0961 59.2157L31.8168 59.7613L33.5966 60.3055L35.4336 60.8468L37.3262 61.384L39.2724 61.9156L41.2704 62.4405L43.3181 62.9573L45.4136 63.4649L47.5547 63.9621L49.7392 64.4477L51.9649 64.9207L54.2296 65.3801L56.5309 65.8248L58.8663 66.254L61.2336 66.6666L63.6302 67.0619L66.0536 67.4392L68.5013 67.7975L70.9706 68.1364L73.459 68.4551L75.9639 68.7531L78.4825 69.0299L81.0122 69.285L83.5502 69.5182L86.094 69.7289L88.6407 69.9171L91.1876 70.0824L93.7321 70.2248L96.2712 70.3441L98.8025 70.4404L101.323 70.5137L103.83 70.5641L106.321 70.5918L108.794 70.597L111.245 70.58L113.672 70.5412L116.072 70.4809L118.443 70.3998L120.782 70.2982L123.088 70.1767L125.356 70.0361L127.586 69.8769L129.774 69.7001L131.918 69.5062L134.016 69.2963L136.066 69.0711L138.066 68.8317L140.013 68.579L141.906 68.314L143.742 68.0379L145.521 67.7518L147.239 67.4567L148.895 67.1538L150.488 66.8445L152.015 66.5299L153.476 66.2113L154.87 65.8899L156.194 65.5673L157.447 65.2445L158.629 64.9231L159.737 64.6044L160.772 64.2898L161.733 63.9806L162.618 63.6784L163.426 63.3844L164.158 63.1002L164.813 62.8271L165.39 62.5665L165.888 62.3199L166.308 62.0886L166.65 61.874L166.913 61.6775L167.098 61.5004L167.204 61.3441L167.232 61.2099L167.183 61.099L167.055 61.0128L166.851 60.9524L166.571 60.9191L166.214 60.9139L165.783 60.9381L165.278 60.9927L164.7 61.0788L164.05 61.1974L163.328 61.3493L162.537 61.5356L161.677 61.757L160.751 62.0145L159.758 62.3086L158.701 62.6402L157.581 63.0097L156.401 63.418L155.161 63.8653L153.863 64.3523L152.51 64.8792L151.102 65.4464L149.643 66.0541L148.133 66.7027L146.575 67.392L144.972 68.1223L143.325 68.8935L141.636 69.7055L139.907 70.5582L138.142 71.4513L136.341 72.3845L134.508 73.3575L132.644 74.3698L130.753 75.4209L128.836 76.5103L126.895 77.6372L124.934 78.8009L122.953 80.0007L120.957 81.2357L118.947 82.5049L116.926 83.8074L114.896 85.142L112.859 86.5076L110.818 87.9032L108.775 89.3273L106.733 90.7786L104.693 92.2559L102.658 93.7576L100.631 95.2822L98.6134 96.8282L96.6074 98.394L94.6154 99.9779L92.6394 101.578L90.6815 103.193L88.7439 104.821L86.8284 106.46L84.937 108.108L83.0717 109.763L81.2342 111.424L79.4263 113.088L77.6498 114.753L75.9063 116.418L74.1975 118.079L72.5248 119.736L70.8898 121.386L69.2939 123.026L67.7384 124.656L66.2245 126.272L64.7535 127.873L63.3265 129.456L61.9446 131.019L60.6086 132.56L59.3197 134.077L58.0784 135.568L56.8857 137.031L55.7421 138.463L54.6484 139.863L53.6049 141.229L52.6121 142.557L51.6704 143.848L50.7801 145.097L49.9414 146.305L49.1544 147.467L48.4191 148.584L47.7356 149.653L47.1037 150.672L46.5233 151.639L45.994 152.553L45.5157 153.413L45.0878 154.216L44.71 154.961L44.3817 155.647L44.1023 156.272L43.8711 156.835L43.6874 157.335L43.5504 157.771L43.4593 158.141L43.413 158.445L43.4108 158.681L43.4515 158.849L43.5341 158.948L43.6574 158.977L43.8203 158.935L44.0215 158.823L44.2598 158.639L44.5339 158.383L44.8423 158.056L45.1838 157.656L45.557 157.183L45.9603 156.639L46.3924 156.022L46.8516 155.332L47.3365 154.571L47.8456 153.739L48.3773 152.835L48.93 151.86L49.5022 150.816L50.0922 149.702L50.6985 148.52L51.3195 147.27L51.9535 145.953L52.5989 144.571L53.2543 143.124L53.918 141.614L54.5884 140.042L55.2639 138.41L55.9432 136.718L56.6245 134.969L57.3065 133.164L57.9876 131.304L58.6664 129.392L59.3416 127.43L60.0116 125.418L60.6752 123.36L61.331 121.257L61.9778 119.111L62.6144 116.925L63.2394 114.7L63.8519 112.44L64.4507 110.145L65.0347 107.819L65.6029 105.465L66.1544 103.083L66.6883 100.678L67.2038 98.251L67.7 95.8051L68.1762 93.3428L68.6317 90.8667L69.066 88.3794L69.4785 85.8836L69.8686 83.382L70.236 80.8771L70.5802 78.3718L70.901 75.8687L71.1982 73.3704L71.4714 70.8798L71.7207 68.3994L71.9459 65.9319L72.1471 63.48L72.3243 61.0465L72.4777 58.6338L72.6074 56.2446L72.7138 53.8815L72.797 51.5471L72.8576 49.2439L72.8958 46.9743L72.9123 44.7408L72.9076 42.5459L72.8822 40.3919L72.8369 38.281L72.7723 36.2157L72.6893 34.1981L72.5885 32.2303L72.471 30.3144L72.3375 28.4525L72.1892 26.6466L72.0269 24.8986L71.8517 23.2102L71.6646 21.5834L71.4669 20.0196L71.2596 18.5207L71.044 17.088L70.8213 15.7231L70.5926 14.4273L70.3593 13.2019L70.1227 12.0482L69.884 10.9672L69.6447 9.96006L69.406 9.02759L69.1693 8.17069L68.936 7.39014L68.7075 6.68659L68.4852 6.06063L68.2703 5.51275L68.0644 5.04332L67.8688 4.65265L67.6849 4.34093L67.514 4.10829L67.3576 3.95472L67.2169 3.88016L67.0932 3.88441L66.9879 3.96723L66.9023 4.12825L66.8376 4.36701L66.7951 4.68297L66.776 5.0755L66.7813 5.54388L66.8124 6.08728L66.8702 6.70482L66.9558 7.39551L67.0703 8.15829L67.2146 8.99199L67.3896 9.8954L67.5963 10.8672L67.8354 11.906L68.1078 13.0104L68.4141 14.1787L68.7551 15.4095L69.1313 16.701L69.5434 18.0515L69.9917 19.4592L70.4767 20.9223L70.9989 22.4387L71.5584 24.0066L72.1556 25.624L72.7906 27.2887L73.4636 28.9986L74.1744 30.7516L74.9232 32.5454L75.7099 34.3778L76.5342 36.2466L77.3959 38.1495L78.2947 40.084L79.2303 42.0478L80.2021 44.0386L81.2097 46.054L82.2525 48.0915L83.3298 50.1487L84.4408 52.2232L85.5849 54.3126L86.761 56.4144L87.9684 58.5261L89.206 60.6454L90.4727 62.7698L91.7674 64.8968L93.0889 67.0242L94.4359 69.1495L95.8073 71.2704L97.2015 73.3845L98.6172 75.4895L100.053 77.5831L101.507 79.6632L102.978 81.7274L104.464 83.7736L105.964 85.7997L107.475 87.8036L108.997 89.7833L110.527 91.7368L112.063 93.662L113.604 95.5573L115.148 97.4206L116.692 99.2503L118.235 101.045L119.774 102.802L121.309 104.521L122.836 106.199L124.353 107.837L125.86 109.431L127.352 110.981L128.83 112.485L130.289 113.943L131.729 115.353L133.147 116.715L134.541 118.027L135.909 119.288L137.249 120.498L138.56 121.656L139.838 122.762L141.082 123.814L142.29 124.812L143.46 125.757L144.59 126.647L145.679 127.483L146.723 128.264L147.723 128.991L148.675 129.662L149.579 130.279L150.432 130.841L151.232 131.35L151.979 131.804L152.671 132.204L153.306 132.552L153.883 132.847L154.4 133.09L154.857 133.282L155.252 133.423L155.583 133.514L155.851 133.556L156.054 133.551L156.19 133.498L156.26 133.399L156.262 133.256L156.196 133.068L156.061 132.839L155.857 132.567L155.583 132.256L155.239 131.906L154.825 131.519L154.34 131.096L153.784 130.638L153.158 130.148L152.462 129.625L151.695 129.073L150.858 128.493L149.951 127.886L148.975 127.253L147.931 126.597L146.818 125.919L145.639 125.221L144.392 124.504L143.08 123.77L141.704 123.02L140.264 122.257L138.761 121.482L137.198 120.697L135.574 119.902L133.892 119.101L132.153 118.294L130.359 117.483L128.511 116.67L126.61 115.855L124.66 115.042L122.661 114.23L120.615 113.423L118.525 112.62L116.393 111.824L114.22 111.036L112.009 110.257L109.761 109.488L107.48 108.731L105.168 107.987L102.826 107.257L100.458 106.542L98.0659 105.843L95.6518 105.162L93.2185 104.498L90.7686 103.854L88.3047 103.229L85.8293 102.625L83.3451 102.042L80.8548 101.481L78.361 100.943L75.8665 100.428L73.3738 99.9362L70.8857 99.4687L68.4049 99.0255L65.934 98.6069L63.4758 98.2131L61.033 97.8444L58.6081 97.5007L56.204 97.1822L53.823 96.8888L51.468 96.6205L49.1415 96.377L46.8459 96.1581L44.584 95.9636L42.358 95.7932L40.1705 95.6465L38.0239 95.5229L35.9206 95.422L33.8627 95.3432L31.8527 95.2859L29.8926 95.2495L27.9847 95.2332L26.131 95.2361L24.3336 95.2576L22.5943 95.2968L20.9151 95.3526L19.2979 95.4242L17.7443 95.5105L16.256 95.6106L14.8346 95.7233L13.4817 95.8475L12.1986 95.9821L10.9867 96.126L9.84726 96.2778L8.78148 96.4364L7.79045 96.6005L6.87515 96.7689L6.03651 96.9402L5.27534 97.1132L4.59237 97.2866L3.98823 97.4589L3.46346 97.6289L3.01852 97.7953L2.65374 97.9566L2.36939 98.1115L2.16562 98.2588L2.0425 98.397L2 98.5248L2.03799 98.641L2.15625 98.7441L2.35445 98.833L2.6322 98.9063L2.98898 98.9628L3.4242 99.0014L3.93717 99.0206L4.5271 99.0195L5.19314 98.9969L5.93432 98.9517L6.74959 98.8827L7.63784 98.7891L8.59784 98.6697L9.6283 98.5237L10.7278 98.3501L11.895 98.1481L13.1283 97.9169L14.4261 97.6557L15.7867 97.3638L17.2084 97.0406L18.6894 96.6856L20.2278 96.298L21.8217 95.8775L23.469 95.4237L25.1678 94.9362L26.9159 94.4147L28.7111 93.859L30.5514 93.2689L32.4343 92.6443L34.3578 91.9852L36.3193 91.2916L38.3166 90.5636L40.3473 89.8014L42.409 89.0052L44.4991 88.1753L46.6154 87.3122L48.7552 86.4161L50.9161 85.4877L53.0955 84.5275L55.291 83.5361L57.5001 82.5143L59.7202 81.4629L61.9487 80.3826L64.1833 79.2744L66.4213 78.1392L68.6602 76.9781L70.8977 75.7922L73.1313 74.5825L75.3584 73.3504L77.5766 72.0971L79.7837 70.8239L81.9773 69.5322L84.1549 68.2234L86.3144 66.8989L88.4534 65.5604L90.5699 64.2094L92.6615 62.8475L94.7263 61.4764L96.7621 60.0978L98.7669 58.7133L100.739 57.3248L102.676 55.9341L104.577 54.543L106.439 53.1533L108.261 51.767L110.041 50.386L111.778 49.0121L113.47 47.6474L115.116 46.2938L116.714 44.9532L118.264 43.6276L119.763 42.319L121.211 41.0294L122.607 39.7607L123.949 38.5149L125.238 37.294L126.471 36.1L127.649 34.9347L128.77 33.8002L129.834 32.6982L130.841 31.6307L131.79 30.5996L132.681 29.6067L133.514 28.6537L134.288 27.7424L135.004 26.8746L135.66 26.0519L136.259 25.276L136.798 24.5485L137.28 23.8709L137.704 23.2447L138.07 22.6714L138.38 22.1524L138.633 21.6889L138.83 21.2822L138.972 20.9336L139.06 20.6442L139.094 20.415L139.076 20.2472L139.005 20.1415L138.884 20.0989L138.714 20.1201L138.495 20.2059L138.228 20.3569L137.916 20.5736L137.558 20.8565L137.158 21.2061L136.715 21.6225L136.231 22.1061L135.709 22.657L135.149 23.2753L134.552 23.9608L133.921 24.7135L133.258 25.5332L132.562 26.4196L131.838 27.3723L131.085 28.3909L130.306 29.4748L129.502 30.6234L128.676 31.8359L127.829 33.1115L126.962 34.4494L126.077 35.8486L125.177 37.308L124.263 38.8264L123.336 40.4027L122.399 42.0355L121.452 43.7235L120.499 45.4652L119.54 47.259L118.577 49.1034L117.612 50.9966L116.646 52.937L115.682 54.9226L114.72 56.9517L113.762 59.0222L112.81 61.1322L111.865 63.2796L110.928 65.4622L110.002 67.6779L109.087 69.9244L108.184 72.1995L107.296 74.5008L106.422 76.826L105.565 79.1727L104.725 81.5383L103.904 83.9205L103.102 86.3167L102.32 88.7244L101.559 91.141L100.821 93.5639L100.106 95.9906L99.4136 98.4183L98.7459 100.845L98.1029 103.267L97.4852 105.682L96.8933 108.088L96.3275 110.482L95.7881 112.861L95.2755 115.223L94.7899 117.565L94.3313 119.884L93.8998 122.178L93.4955 124.445L93.1183 126.681L92.768 128.885L92.4445 131.054L92.1475 133.185L91.8767 135.276L91.6318 137.325L91.4123 139.329L91.2177 141.287L91.0475 143.195L90.9011 145.052L90.7778 146.856L90.677 148.605L90.5979 150.297L90.5396 151.929L90.5013 153.5L90.4822 155.009L90.4812 156.453L90.4974 157.831L90.5297 159.141L90.5772 160.383L90.6386 161.554L90.7129 162.653L90.7989 163.679L90.8954 164.632L91.0012 165.509L91.115 166.31L91.2356 167.034L91.3617 167.681L91.492 168.249L91.6252 168.738L91.76 169.148L91.8949 169.478L92.0288 169.728L92.1602 169.897L92.2878 169.987L92.4104 169.995L92.5264 169.923L92.6347 169.771L92.7339 169.539L92.8227 169.228L92.8999 168.837L92.9641 168.368L93.0141 167.821L93.0487 167.197L93.0667 166.496L93.067 165.72L93.0483 164.869L93.0096 163.945L92.9499 162.948L92.8681 161.881L92.7632 160.744L92.6343 159.539L92.4805 158.267L92.3009 156.93L92.0947 155.53L91.8611 154.067L91.5995 152.545L91.3093 150.964L90.9897 149.328L90.6403 147.636L90.2606 145.893L89.8502 144.099L89.4087 142.258L88.9358 140.37L88.4313 138.439L87.8951 136.467L87.3269 134.455L86.7268 132.407L86.0948 130.325L85.431 128.211L84.7355 126.067L84.0086 123.896L83.2506 121.701L82.4618 119.485L81.6426 117.248L80.7935 114.995L79.9152 112.728L79.0081 110.449L78.0731 108.16L77.1109 105.865L76.1222 103.566L75.108 101.266L74.0693 98.9659L73.0069 96.6698L71.922 94.3796L70.8158 92.0979L69.6893 89.8271L68.5439 87.5695L67.3807 85.3277L66.2013 83.1039L65.0069 80.9005L63.799 78.7197L62.5791 76.5638L61.3487 74.4349L60.1095 72.3353L58.8629 70.2668L57.6108 68.2317L56.3547 66.2319L55.0964 64.2693L53.8376 62.3457L52.5802 60.463L51.3259 58.6228L50.0766 56.8269L48.834 55.0768L47.6002 53.3741L46.377 51.7202L45.1662 50.1164L43.9698 48.5642L42.7896 47.0646L41.6277 45.6189L40.4858 44.2282L39.3659 42.8933L38.27 41.6153L37.1998 40.3949L36.1573 39.2329L35.1443 38.13L34.1627 37.0867L33.2144 36.1035L32.301 35.1808L31.4245 34.3191L30.5864 33.5184L29.7886 32.7791L29.0327 32.1011L28.3204 31.4844L27.6532 30.9291L27.0327 30.4349L26.4604 30.0015L25.9377 29.6287L25.4661 29.316L25.0469 29.0631L24.6814 28.8692L24.3708 28.7339L24.1163 28.6563L23.919 28.6358L23.7799 28.6715L23.7001 28.7624L23.6804 28.9077L23.7217 29.1062L23.8246 29.357L23.99 29.6587L24.2183 30.0103L24.5102 30.4103L24.8661 30.8576L25.2863 31.3508L25.7712 31.8883L26.321 32.4688L26.9357 33.0908L27.6154 33.7526L28.3602 34.4528L29.1697 35.1896L30.0439 35.9615L30.9824 36.7668L31.9849 37.6037L33.0508 38.4705L34.1797 39.3655L35.3708 40.2868L36.6234 41.2328L37.9368 42.2017L39.31 43.1915L40.7421 44.2005L42.2319 45.227L43.7784 46.269L45.3802 47.3248L47.0362 48.3926L48.745 49.4706L50.505 50.5569L52.3147 51.6499L54.1726 52.7478L56.0769 53.8489L58.0259 54.9513L60.0178 56.0536L62.0507 57.1539L64.1226 58.2507L66.2316 59.3424L68.3757 60.4275L70.5526 61.5043L72.7602 62.5715L74.9962 63.6275L77.2585 64.6711L79.5447 65.7008L81.8524 66.7153L84.1793 67.7135L86.5228 68.694L88.8806 69.6558L91.2501 70.5977L93.6288 71.5187L96.0142 72.4179L98.4037 73.2943L100.795 74.147L103.184 74.9753L105.571 75.7784L107.95 76.5556L110.321 77.3063L112.681 78.0301L115.026 78.7263L117.354 79.3945L119.663 80.0345L121.949 80.6458L124.212 81.2284L126.447 81.782L128.652 82.3065L130.825 82.802L132.964 83.2683L135.065 83.7058L137.127 84.1143L139.147 84.4943L141.123 84.8461L143.053 85.1698L144.934 85.466L146.764 85.7351L148.54 85.9777L150.262 86.1942L151.927 86.3854L153.533 86.5519L155.078 86.6945L156.561 86.8139L157.979 86.911L159.331 86.9866L160.615 87.0417L161.83 87.0773L162.975 87.0943L164.048 87.0937L165.048 87.0768L165.973 87.0445L166.823 86.9981L167.596 86.9386L168.292 86.8674L168.91 86.7856L169.45 86.6944L169.909 86.5951L170.289 86.4891L170.588 86.3776L170.806 86.2618L170.943 86.1432L170.999 86.023" stroke="url(#paint0_radial_175_776)" stroke-width="2"/>
<defs>
<radialGradient id="paint0_radial_175_776" cx="0" cy="0" r="1" gradientUnits="userSpaceOnUse" gradientTransform="translate(30.3119 31.0103) rotate(54.2536) scale(181.922 182.267)">
<stop stop-color="#F0C6FF"/>
<stop offset="1" stop-color="#C6D6FF"/>
</radialGradient>
</defs>
</svg>
