<svg width="168" height="168" viewBox="0 0 168 168" fill="none" xmlns="http://www.w3.org/2000/svg">
<path d="M167 84L166.986 83.6005L166.942 83.2012L166.87 82.8024L166.769 82.4043L166.638 82.0072L166.479 81.6113L166.292 81.2169L166.075 80.8241L165.83 80.4333L165.557 80.0446L165.255 79.6583L164.925 79.2747L164.566 78.8939L164.179 78.5163L163.765 78.1419L163.322 77.7712L162.852 77.4042L162.355 77.0413L161.83 76.6825L161.278 76.3283L160.699 75.9787L160.094 75.6341L159.462 75.2945L158.803 74.9603L158.119 74.6317L157.409 74.3087L156.673 73.9918L155.912 73.6809L155.126 73.3765L154.315 73.0786L153.48 72.7874L152.62 72.5031L151.737 72.226L150.83 71.9562L149.9 71.6938L148.947 71.4391L147.971 71.1922L146.973 70.9533L145.954 70.7226L144.913 70.5002L143.85 70.2862L142.767 70.0809L141.664 69.8843L140.54 69.6966L139.397 69.518L138.235 69.3485L137.054 69.1884L135.854 69.0377L134.637 68.8966L133.402 68.7651L132.15 68.6434L130.881 68.5316L129.596 68.4297L128.296 68.338L126.98 68.2564L125.649 68.1851L124.304 68.1241L122.945 68.0735L121.572 68.0334L120.187 68.0039L118.789 67.9849L117.379 67.9767L115.958 67.9791L114.526 67.9923L113.083 68.0162L111.631 68.051L110.169 68.0967L108.698 68.1532L107.218 68.2206L105.731 68.2989L104.236 68.3881L102.735 68.4882L101.227 68.5993L99.7132 68.7212L98.1942 68.8539L96.6705 68.9975L95.1426 69.152L93.6109 69.3172L92.0762 69.4931L90.5388 69.6798L88.9993 69.8771L87.4583 70.085L85.9163 70.3034L84.3738 70.5323L82.8314 70.7716L81.2895 71.0212L79.7488 71.2811L78.2098 71.5511L76.673 71.8311L75.1389 72.121L73.608 72.4209L72.081 72.7304L70.5583 73.0496L69.0404 73.3783L67.5279 73.7163L66.0213 74.0636L64.5211 74.42L63.0278 74.7854L61.542 75.1596L60.0641 75.5424L58.5947 75.9338L57.1343 76.3335L55.6833 76.7415L54.2423 77.1574L52.8118 77.5812L51.3922 78.0127L49.984 78.4517L48.5877 78.898L47.2039 79.3514L45.8329 79.8117L44.4752 80.2787L43.1313 80.7523L41.8017 81.2321L40.4867 81.7181L39.1869 82.2099L37.9027 82.7075L36.6344 83.2104L35.3827 83.7186L34.1477 84.2318L32.9301 84.7497L31.7301 85.2722L30.5483 85.7989L29.3849 86.3297L28.2404 86.8644L27.1151 87.4025L26.0095 87.944L24.9238 88.4885L23.8585 89.0359L22.8139 89.5858L21.7903 90.138L20.7882 90.6922L19.8077 91.2481L18.8493 91.8056L17.9132 92.3643L16.9998 92.924L16.1093 93.4844L15.242 94.0452L14.3983 94.6062L13.5783 95.1671L12.7824 95.7276L12.0108 96.2874L11.2637 96.8463L10.5414 97.4039L9.84405 97.9601L9.17194 98.5145L8.52525 99.0669L7.90419 99.6169L7.30893 100.164L6.73966 100.709L6.19655 101.25L5.67976 101.788L5.18943 102.323L4.72572 102.853L4.28875 103.379L3.87864 103.901L3.49551 104.417L3.13946 104.929L2.81059 105.435L2.50896 105.936L2.23467 106.431L1.98776 106.919L1.7683 107.401L1.57633 107.877L1.41188 108.346L1.27498 108.807L1.16564 109.261L1.08387 109.707L1.02965 110.145L1.00298 110.576L1.00382 110.997L1.03215 111.41L1.08792 111.814L1.17107 112.209L1.28154 112.594L1.41926 112.97L1.58413 113.336L1.77608 113.692L1.995 114.037L2.24076 114.372L2.51326 114.697L2.81236 115.01L3.13792 115.312L3.48979 115.603L3.86781 115.882L4.27181 116.15L4.70162 116.405L5.15705 116.649L5.63791 116.88L6.14398 117.098L6.67506 117.304L7.23092 117.498L7.81135 117.678L8.41608 117.845L9.04489 117.999L9.69751 118.139L10.3737 118.266L11.0731 118.38L11.7956 118.479L12.5408 118.565L13.3083 118.636L14.098 118.694L14.9095 118.737L15.7425 118.765L16.5967 118.78L17.4716 118.779L18.3671 118.765L19.2827 118.735L20.2181 118.691L21.173 118.631L22.1469 118.557L23.1395 118.468L24.1504 118.364L25.1792 118.245L26.2256 118.111L27.2891 117.962L28.3694 117.798L29.466 117.619L30.5785 117.424L31.7066 117.215L32.8497 116.99L34.0075 116.75L35.1795 116.496L36.3653 116.226L37.5644 115.941L38.7765 115.641L40.001 115.326L41.2375 114.997L42.4856 114.652L43.7447 114.293L45.0145 113.919L46.2945 113.531L47.5841 113.127L48.8829 112.71L50.1905 112.278L51.5064 111.832L52.8301 111.372L54.161 110.898L55.4988 110.41L56.843 109.908L58.193 109.393L59.5484 108.864L60.9086 108.322L62.2733 107.767L63.6418 107.199L65.0138 106.618L66.3887 106.024L67.766 105.418L69.1453 104.799L70.526 104.169L71.9077 103.526L73.2899 102.872L74.672 102.206L76.0537 101.529L77.4343 100.842L78.8135 100.143L80.1907 99.4332L81.5654 98.7135L82.9372 97.9836L84.3056 97.2438L85.6702 96.4943L87.0303 95.7356L88.3857 94.9677L89.7357 94.1909L91.0799 93.4056L92.4179 92.612L93.7493 91.8103L95.0734 91.001L96.39 90.1842L97.6985 89.3602L98.9984 88.5294L100.289 87.692L101.571 86.8483L102.843 85.9987L104.104 85.1435L105.355 84.283L106.595 83.4174L107.823 82.5472L109.04 81.6726L110.244 80.794L111.435 79.9117L112.613 79.0261L113.778 78.1374L114.928 77.246L116.065 76.3523L117.186 75.4565L118.293 74.5591L119.385 73.6604L120.46 72.7607L121.52 71.8605L122.563 70.9599L123.589 70.0594L124.598 69.1594L125.59 68.2602L126.564 67.3622L127.52 66.4657L128.458 65.571L129.377 64.6786L130.277 63.7888L131.158 62.9019L132.02 62.0184L132.862 61.1385L133.684 60.2626L134.485 59.3912L135.267 58.5245L136.027 57.6629L136.767 56.8068L137.485 55.9565L138.183 55.1124L138.858 54.2749L139.512 53.4442L140.145 52.6208L140.755 51.8049L141.343 50.997L141.908 50.1974L142.451 49.4064L142.971 48.6244L143.469 47.8517L143.943 47.0887L144.395 46.3356L144.823 45.5928L145.228 44.8607L145.61 44.1396L145.969 43.4298L146.304 42.7316L146.615 42.0453L146.903 41.3712L147.168 40.7097L147.409 40.0611L147.626 39.4256L147.819 38.8036L147.989 38.1953L148.135 37.6011L148.257 37.0212L148.356 36.4558L148.431 35.9054L148.482 35.3701L148.51 34.8502L148.515 34.3459L148.496 33.8576L148.453 33.3854L148.388 32.9297L148.299 32.4906L148.187 32.0683L148.052 31.6632L147.895 31.2754L147.714 30.9051L147.511 30.5526L147.285 30.2181L147.037 29.9016L146.767 29.6035L146.475 29.324L146.161 29.0631L145.826 28.821L145.468 28.598L145.09 28.3942L144.69 28.2097L144.27 28.0447L143.829 27.8993L143.367 27.7736L142.885 27.6677L142.383 27.5819L141.862 27.5161L141.321 27.4704L140.76 27.445L140.181 27.44L139.583 27.4554L138.966 27.4913L138.331 27.5477L137.679 27.6248L137.009 27.7224L136.321 27.8408L135.617 27.9799L134.896 28.1397L134.158 28.3203L133.405 28.5216L132.635 28.7437L131.851 28.9865L131.051 29.2501L130.237 29.5343L129.408 29.8393L128.565 30.1648L127.708 30.5109L126.839 30.8776L125.956 31.2647L125.061 31.6722L124.153 32.1L123.234 32.548L122.303 33.0161L121.361 33.5042L120.408 34.0122L119.445 34.54L118.473 35.0874L117.49 35.6543L116.499 36.2406L115.498 36.8461L114.49 37.4707L113.473 38.1141L112.449 38.7763L111.418 39.4569L110.38 40.1559L109.335 40.8731L108.285 41.6081L107.229 42.3609L106.168 43.1312L105.103 43.9187L104.033 44.7233L102.959 45.5447L101.882 46.3826L100.801 47.2369L99.7184 48.1071L98.6331 48.9931L97.5461 49.8946L96.4577 50.8113L95.3682 51.743L94.2782 52.6892L93.188 53.6497L92.0979 54.6243L91.0085 55.6126L89.9202 56.6142L88.8332 57.6289L87.7481 58.6563L86.6652 59.6961L85.585 60.7479L84.5077 61.8115L83.4339 62.8864L82.3639 63.9722L81.298 65.0687L80.2367 66.1754L79.1804 67.292L78.1294 68.4181L77.084 69.5534L76.0448 70.6973L75.012 71.8496L73.9859 73.0099L72.9671 74.1777L71.9558 75.3526L70.9523 76.5343L69.957 77.7224L68.9703 78.9163L67.9925 80.1157L67.0239 81.3202L66.0649 82.5294L65.1158 83.7428L64.1769 84.96L63.2485 86.1806L62.3309 87.4042L61.4245 88.6302L60.5295 89.8583L59.6462 91.088L58.775 92.319L57.916 93.5507L57.0696 94.7826L56.2361 96.0145L55.4157 97.2458L54.6086 98.476L53.8152 99.7047L53.0357 100.932L52.2702 102.156L51.5192 103.378L50.7826 104.596L50.0609 105.811L49.3542 107.021L48.6628 108.227L47.9867 109.428L47.3263 110.623L46.6816 111.813L46.053 112.996L45.4405 114.172L44.8443 115.341L44.2647 116.502L43.7017 117.655L43.1554 118.799L42.6261 119.935L42.1139 121.061L41.6188 122.177L41.141 123.283L40.6807 124.378L40.2378 125.462L39.8126 126.534L39.4051 127.595L39.0153 128.643L38.6434 129.678L38.2894 130.7L37.9534 131.709L37.6355 132.703L37.3356 133.683L37.0538 134.649L36.7901 135.599L36.5447 136.534L36.3174 137.453L36.1082 138.355L35.9173 139.241L35.7446 140.11L35.59 140.962L35.4535 141.796L35.3352 142.612L35.235 143.41L35.1527 144.189L35.0885 144.95L35.0422 145.691L35.0138 146.412L35.0031 147.113L35.0102 147.794L35.0349 148.455L35.0772 149.095L35.1368 149.714L35.2139 150.312L35.3081 150.888L35.4195 151.442L35.5478 151.975L35.693 152.484L35.8549 152.972L36.0333 153.437L36.2282 153.878L36.4394 154.297L36.6666 154.692L36.9098 155.064L37.1688 155.412L37.4433 155.736L37.7332 156.036L38.0384 156.311L38.3585 156.563L38.6934 156.79L39.043 156.992L39.4069 157.169L39.785 157.322L40.1771 157.45L40.5829 157.552L41.0021 157.629L41.4347 157.681L41.8802 157.708L42.3385 157.71L42.8093 157.686L43.2924 157.636L43.7875 157.561L44.2943 157.461L44.8126 157.335L45.3422 157.183L45.8826 157.006L46.4337 156.804L46.9952 156.576L47.5668 156.322L48.1482 156.043L48.7392 155.739L49.3393 155.41L49.9484 155.055L50.5661 154.675L51.1922 154.27L51.8263 153.84L52.4681 153.385L53.1174 152.905L53.7738 152.401L54.437 151.872L55.1066 151.319L55.7825 150.742L56.4643 150.141L57.1516 149.515L57.8441 148.867L58.5416 148.194L59.2436 147.499L59.9499 146.78L60.6603 146.038L61.3742 145.274L62.0915 144.487L62.8118 143.678L63.5348 142.847L64.2601 141.995L64.9875 141.121L65.7166 140.226L66.4471 139.31L67.1787 138.373L67.9111 137.416L68.644 136.439L69.377 135.443L70.1098 134.427L70.8421 133.392L71.5737 132.339L72.3041 131.267L73.0331 130.177L73.7604 129.069L74.4857 127.944L75.2087 126.803L75.929 125.644L76.6465 124.47L77.3607 123.279L78.0714 122.074L78.7783 120.853L79.4812 119.618L80.1796 118.369L80.8735 117.106L81.5624 115.829L82.2461 114.54L82.9244 113.238L83.5969 111.924L84.2635 110.599L84.9237 109.263L85.5775 107.915L86.2245 106.558L86.8646 105.191L87.4973 103.814L88.1226 102.429L88.7402 101.036L89.3498 99.6342L89.9512 98.2253L90.5442 96.8095L91.1286 95.3874L91.7042 93.9593L92.2707 92.5257L92.828 91.0872L93.3758 89.6443L93.914 88.1974L94.4424 86.747L94.9608 85.2938L95.469 83.8381L95.9669 82.3804L96.4543 80.9213L96.931 79.4613L97.3968 78.001L97.8517 76.5407L98.2954 75.081L98.7279 73.6224L99.149 72.1655L99.5586 70.7108L99.9565 69.2587L100.343 67.8097L100.717 66.3645L101.079 64.9234L101.43 63.4871L101.768 62.0559L102.094 60.6305L102.407 59.2113L102.708 57.7988L102.997 56.3935L103.273 54.9959L103.536 53.6066L103.787 52.2259L104.026 50.8545L104.251 49.4928L104.464 48.1412L104.664 46.8003L104.851 45.4706L105.025 44.1524L105.187 42.8464L105.335 41.5529L105.471 40.2724L105.594 39.0054L105.705 37.7523L105.802 36.5137L105.887 35.2898L105.959 34.0813L106.019 32.8885L106.065 31.7118L106.1 30.5516L106.121 29.4085L106.131 28.2828L106.127 27.1749L106.112 26.0852L106.084 25.0142L106.045 23.9621L105.993 22.9294L105.929 21.9165L105.853 20.9238L105.766 19.9515L105.667 19.0001L105.556 18.07L105.434 17.1614L105.301 16.2746L105.157 15.4101L105.001 14.5682L104.835 13.749L104.658 12.9531L104.471 12.1806L104.273 11.4318L104.065 10.7071L103.847 10.0066L103.618 9.33072L103.381 8.67964L103.133 8.05361L102.876 7.45289L102.61 6.87769L102.335 6.32823L102.052 5.80473L101.759 5.30739L101.458 4.8364L101.149 4.39195L100.832 3.9742L100.507 3.58332L100.175 3.21948L99.8351 2.88281L99.4882 2.57345L99.1343 2.29152L98.7738 2.03716L98.4067 1.81045L98.0335 1.61151L97.6542 1.44041L97.2691 1.29723L96.8785 1.18206L96.4826 1.09493L96.0817 1.0359L95.6759 1.00501L95.2656 1.00229L94.8509 1.02775L94.4321 1.08141L94.0096 1.16326L93.5834 1.27329L93.1539 1.41148L92.7214 1.5778L92.286 1.7722L91.848 1.99463L91.4077 2.24504L90.9653 2.52335L90.5212 2.82948L90.0755 3.16334L89.6284 3.52483L89.1804 3.91383L88.7315 4.33023L88.2821 4.77389L87.8324 5.24468L87.3827 5.74244L86.9332 6.26702L86.4842 6.81824L86.0359 7.39593L85.5886 7.9999L85.1425 8.62995L84.6979 9.28587L84.2551 9.96745L83.8141 10.6745L83.3754 11.4067L82.9392 12.1638L82.5056 12.9457L82.075 13.752L81.6476 14.5825L81.2235 15.4369L80.8031 16.3148L80.3865 17.2161L79.9741 18.1404L79.5659 19.0874L79.1623 20.0567L78.7635 21.0481L78.3696 22.0613L77.9809 23.0957L77.5977 24.1512L77.22 25.2273L76.8481 26.3237L76.4822 27.4401L76.1226 28.5759L75.7693 29.7309L75.4227 30.9047L75.0828 32.0967L74.7498 33.3068L74.4241 34.5343L74.1056 35.7789L73.7946 37.0403L73.4912 38.3178L73.1957 39.6112L72.9081 40.9199L72.6287 42.2435L72.3575 43.5815L72.0947 44.9336L71.8405 46.2991L71.595 47.6777L71.3583 49.0689L71.1305 50.4722L70.9119 51.8871L70.7023 53.3131L70.5021 54.7497L70.3113 56.1965L70.13 57.6529L69.9583 59.1184L69.7963 60.5925L69.6441 62.0748L69.5017 63.5646L69.3692 65.0615L69.2468 66.565L69.1344 68.0746L69.0321 69.5896L68.94 71.1097L68.8582 72.6342L68.7866 74.1626L68.7253 75.6945L68.6744 77.2292L68.6338 78.7663L68.6036 80.3052L68.5838 81.8454L68.5745 83.3864L68.5755 84.9275L68.587 86.4683L68.6089 88.0083L68.6412 89.5469L68.6839 91.0835L68.7369 92.6177L68.8003 94.1489L68.874 95.6766L68.958 97.2003L69.0521 98.7194L69.1564 100.233L69.2709 101.742L69.3954 103.244L69.5299 104.739L69.6743 106.228L69.8285 107.708L69.9925 109.181L70.1662 110.644L70.3494 112.099L70.5422 113.544L70.7443 114.978L70.9556 116.402L71.1762 117.815L71.4058 119.215L71.6443 120.604L71.8916 121.98L72.1475 123.343L72.412 124.692L72.6849 126.027L72.966 127.348L73.2552 128.653L73.5524 129.944L73.8573 131.218L74.1698 132.476L74.4898 133.717L74.8171 134.941L75.1514 136.148L75.4927 137.336L75.8408 138.506L76.1953 139.657L76.5563 140.789L76.9234 141.901L77.2964 142.993L77.6753 144.065L78.0597 145.117L78.4494 146.147L78.8443 147.156L79.2442 148.142L79.6487 149.107L80.0577 150.05L80.4711 150.969L80.8884 151.866L81.3096 152.739L81.7344 153.589L82.1625 154.414L82.5937 155.216L83.0278 155.992L83.4646 156.744L83.9038 157.472L84.3451 158.173L84.7884 158.85L85.2333 159.5L85.6796 160.125L86.1272 160.724L86.5756 161.296L87.0247 161.842L87.4743 162.361L87.924 162.853L88.3737 163.319L88.823 163.757L89.2717 164.168L89.7196 164.551L90.1663 164.907L90.6118 165.235L91.0556 165.536L91.4976 165.808L91.9374 166.053L92.3748 166.27L92.8097 166.458L93.2417 166.619L93.6705 166.751L94.0959 166.856L94.5178 166.932L94.9357 166.98L95.3495 166.999L95.7589 166.991L96.1637 166.954L96.5637 166.89L96.9585 166.797L97.348 166.676L97.7319 166.527L98.11 166.35L98.482 166.146L98.8477 165.913L99.2069 165.653L99.5594 165.366L99.9049 165.051L100.243 164.709L100.574 164.339L100.897 163.943L101.213 163.52L101.52 163.07L101.819 162.593L102.11 162.091L102.392 161.562L102.665 161.007L102.929 160.427L103.184 159.821L103.43 159.19L103.666 158.534L103.892 157.853L104.108 157.147L104.314 156.418L104.51 155.664L104.695 154.887L104.87 154.086L105.034 153.262L105.187 152.416L105.329 151.547L105.46 150.655L105.58 149.742L105.688 148.808L105.785 147.852L105.87 146.876L105.943 145.879L106.004 144.862L106.054 143.825L106.091 142.769L106.116 141.694L106.129 140.601L106.13 139.489L106.118 138.36L106.094 137.213L106.057 136.05L106.007 134.87L105.945 133.674L105.871 132.462L105.783 131.235L105.683 129.994L105.57 128.738L105.445 127.468L105.306 126.185L105.155 124.889L104.991 123.58L104.814 122.26L104.624 120.927L104.421 119.584L104.206 118.231L103.978 116.867L103.737 115.494L103.484 114.111L103.218 112.72L102.939 111.321L102.648 109.914L102.344 108.5L102.028 107.08L101.7 105.653L101.359 104.221L101.007 102.783L100.642 101.341L100.265 99.8954L99.8764 98.4458L99.4761 96.9931L99.0642 95.5379L98.6408 94.0806L98.206 92.6218L97.76 91.1619L97.3028 89.7016L96.8347 88.2412L96.3559 86.7814L95.8664 85.3225L95.3664 83.8653L94.8561 82.41L94.3356 80.9573L93.8052 79.5076L93.265 78.0615L92.7152 76.6194L92.156 75.1819L91.5876 73.7494L91.0103 72.3225L90.4241 70.9015L89.8294 69.4872L89.2262 68.0798L88.615 66.6799L87.9959 65.2879L87.3691 63.9045L86.7348 62.5299L86.0933 61.1647L85.4449 59.8094L84.7898 58.4644L84.1282 57.1301L83.4604 55.8071L82.7867 54.4957L82.1073 53.1964L81.4225 51.9097L80.7325 50.636L80.0377 49.3757L79.3384 48.1292L78.6347 46.8969L77.9269 45.6793L77.2155 44.4768L76.5006 43.2897L75.7825 42.1185L75.0616 40.9635L74.3382 39.8252L73.6124 38.7038L72.8848 37.5998L72.1554 36.5135L71.4247 35.4453L70.693 34.3955L69.9606 33.3644L69.2277 32.3525L68.4947 31.36L67.7619 30.3872L67.0297 29.4344L66.2982 28.502L65.568 27.5903L64.8392 26.6994L64.1122 25.8298L63.3873 24.9816L62.6649 24.1552L61.9452 23.3508L61.2285 22.5686L60.5153 21.8089L59.8058 21.0719L59.1003 20.3579L58.3991 19.6669L57.7026 18.9994L57.0111 18.3553L56.3249 17.735L55.6444 17.1385L54.9697 16.5662L54.3014 16.018L53.6395 15.4943L52.9846 14.995L52.3368 14.5204L51.6965 14.0706L51.064 13.6457L50.4396 13.2458L49.8236 12.8709L49.2163 12.5212L48.618 12.1968L48.029 11.8977L47.4496 11.6239L46.88 11.3756L46.3206 11.1528L45.7717 10.9554L45.2334 10.7836L44.7062 10.6373L44.1902 10.5165L43.6857 10.4212L43.193 10.3515L42.7124 10.3073L42.2441 10.2885L41.7884 10.2951L41.3455 10.327L40.9157 10.3843L40.4991 10.4668L40.0961 10.5744L39.7069 10.7071L39.3316 10.8648L38.9706 11.0473L38.624 11.2545L38.2921 11.4864L37.975 11.7427L37.6729 12.0234L37.3861 12.3283L37.1148 12.6572L36.859 13.01L36.619 13.3865L36.3951 13.7865L36.1872 14.2098L35.9957 14.6562L35.8205 15.1255L35.662 15.6176L35.5203 16.1321L35.3954 16.6688L35.2875 17.2276L35.1968 17.8081L35.1233 18.4101L35.0671 19.0334L35.0285 19.6776L35.0073 20.3426L35.0039 21.0279L35.0181 21.7334L35.0502 22.4588L35.1001 23.2036L35.168 23.9677L35.2539 24.7507L35.3578 25.5522L35.4799 26.3721L35.62 27.2098L35.7783 28.0651L35.9547 28.9377L36.1494 29.8272L36.3622 30.7332L36.5932 31.6553L36.8424 32.5933L37.1097 33.5467L37.3952 34.5151L37.6988 35.4982L38.0204 36.4956L38.3601 37.507L38.7177 38.5318L39.0933 39.5697L39.4866 40.6203L39.8978 41.6832L40.3266 42.758L40.773 43.8443L41.2369 44.9416L41.7182 46.0495L42.2168 47.1677L42.7325 48.2957L43.2653 49.433L43.815 50.5792L44.3814 51.7339L44.9644 52.8967L45.5639 54.0671L46.1797 55.2447L46.8116 56.4291L47.4595 57.6197L48.1231 58.8162L48.8024 60.0181L49.497 61.2249L50.2067 62.4363L50.9315 63.6518L51.671 64.8708L52.425 66.0931L53.1933 67.3181L53.9757 68.5453L54.7719 69.7744L55.5817 71.0049L56.4048 72.2363L57.241 73.4683L58.0899 74.7002L58.9514 75.9318L59.8251 77.1625L60.7108 78.3919L61.6082 79.6197L62.5169 80.8452L63.4367 82.0682L64.3673 83.2881L65.3083 84.5046L66.2595 85.7172L67.2204 86.9254L68.1909 88.129L69.1706 89.3273L70.159 90.5201L71.156 91.7068L72.1611 92.8872L73.174 94.0607L74.1944 95.227L75.2218 96.3857L76.2559 97.5363L77.2965 98.6785L78.343 99.8119L79.3951 100.936L80.4525 102.051L81.5147 103.155L82.5815 104.25L83.6523 105.333L84.7269 106.406L85.8048 107.467L86.8856 108.517L87.969 109.554L89.0545 110.579L90.1417 111.591L91.2304 112.59L92.3199 113.575L93.41 114.547L94.5002 115.505L95.5902 116.448L96.6795 117.377L97.7676 118.29L98.8543 119.189L99.9391 120.071L101.022 120.938L102.101 121.789L103.178 122.624L104.251 123.442L105.32 124.243L106.385 125.027L107.445 125.794L108.499 126.543L109.549 127.274L110.592 127.988L111.628 128.683L112.658 129.36L113.681 130.018L114.696 130.658L115.703 131.279L116.701 131.88L117.691 132.463L118.672 133.026L119.642 133.569L120.603 134.093L121.554 134.597L122.493 135.081L123.422 135.545L124.339 135.989L125.244 136.412L126.137 136.816L127.017 137.199L127.884 137.561L128.738 137.903L129.578 138.224L130.404 138.525L131.215 138.805L132.012 139.065L132.793 139.303L133.559 139.521L134.31 139.718L135.044 139.895L135.762 140.05L136.463 140.185L137.147 140.299L137.813 140.393L138.462 140.465L139.093 140.518L139.706 140.549L140.3 140.561L140.876 140.551L141.432 140.522L141.97 140.472L142.487 140.402L142.985 140.312L143.463 140.202L143.92 140.073L144.357 139.923L144.773 139.754L145.169 139.566L145.543 139.358L145.896 139.131L146.227 138.885L146.536 138.621L146.824 138.337L147.09 138.035L147.333 137.715L147.554 137.377L147.753 137.021L147.929 136.647L148.082 136.256L148.212 135.847L148.319 135.421L148.403 134.979L148.464 134.52L148.502 134.044L148.516 133.553L148.506 133.045L148.474 132.522L148.417 131.984L148.338 131.43L148.234 130.862L148.107 130.279L147.956 129.682L147.782 129.071L147.583 128.446L147.361 127.808L147.116 127.157L146.847 126.492L146.554 125.816L146.238 125.127L145.898 124.427L145.534 123.714L145.148 122.991L144.738 122.257L144.305 121.512L143.848 120.757L143.369 119.992L142.867 119.217L142.342 118.433L141.795 117.64L141.225 116.839L140.632 116.03L140.018 115.212L139.381 114.387L138.723 113.555L138.042 112.716L137.341 111.871L136.618 111.019L135.874 110.162L135.109 109.299L134.324 108.432L133.518 107.559L132.692 106.683L131.846 105.802L130.98 104.918L130.096 104.03L129.191 103.14L128.268 102.247L127.327 101.352L126.367 100.455L125.389 99.5567L124.394 98.6573L123.381 97.7572L122.352 96.8566L121.305 95.9561L120.242 95.0559L119.164 94.1564L118.069 93.258L116.959 92.3609L115.834 91.4655L114.695 90.5722L113.542 89.6814L112.374 88.7933L111.193 87.9083L109.999 87.0267L108.793 86.1489L107.574 85.2751L106.344 84.4059L105.101 83.5413L103.848 82.6818L102.585 81.8277L101.311 80.9793L100.027 80.1369L98.7344 79.3008L97.4326 78.4714L96.1225 77.6489L94.8043 76.8335L93.4787 76.0257L92.146 75.2257L90.8066 74.4337L89.4612 73.6502L88.11 72.8752L86.7537 72.1091L85.3926 71.3522L84.0272 70.6047L82.6581 69.867L81.2856 69.1391L79.9104 68.4214L78.5327 67.7141L77.1532 67.0175L75.7723 66.3317L74.3906 65.657L73.0084 64.9937L71.6263 64.3419L70.2447 63.7018L68.8643 63.0737L67.4853 62.4577L66.1085 61.8541L64.7341 61.2629L63.3628 60.6844L61.995 60.1188L60.6312 59.5663L59.2719 59.0269L57.9176 58.5008L56.5687 57.9883L55.2258 57.4894L53.8894 57.0042L52.5599 56.533L51.2377 56.0757L49.9235 55.6326L48.6177 55.2037L47.3207 54.7892L46.033 54.3891L44.755 54.0036L43.4874 53.6327L42.2305 53.2764L40.9847 52.935L39.7506 52.6084L38.5286 52.2966L37.3191 51.9998L36.1227 51.718L34.9397 51.4512L33.7705 51.1994L32.6157 50.9628L31.4756 50.7412L30.3507 50.5347L29.2413 50.3434L28.148 50.1672L27.0711 50.006L26.0111 49.86L24.9682 49.729L23.943 49.6131L22.9358 49.5122L21.947 49.4262L20.9769 49.3552L20.026 49.2991L19.0946 49.2578L18.1831 49.2312L17.2918 49.2193L16.421 49.222L15.5711 49.2392L14.7425 49.2709L13.9354 49.3169L13.1502 49.3771L12.3872 49.4515L11.6466 49.5399L10.9288 49.6422L10.2341 49.7583L9.56267 49.888L8.91488 50.0312L8.29095 50.1879L7.69115 50.3577L7.11571 50.5406L6.56487 50.7365L6.03887 50.9451L5.53792 51.1664L5.06222 51.4L4.612 51.6459L4.18743 51.9039L3.78871 52.1738L3.416 52.4554L3.06947 52.7485L2.74929 53.053L2.4556 53.3685L2.18853 53.6949L1.94823 54.0321L1.7348 54.3797L1.54835 54.7376L1.389 55.1055L1.25683 55.4833L1.15191 55.8707L1.07434 56.2674L1.02415 56.6732L1.00142 57.0879L1.00618 57.5113L1.03846 57.9431L1.09829 58.383L1.18568 58.8309L1.30063 59.2864L1.44314 59.7493L1.6132 60.2193L1.81077 60.6962L2.03583 61.1798L2.28831 61.6697L2.56818 62.1657L2.87536 62.6675L3.20978 63.1749L3.57136 63.6876L3.95999 64.2053L4.37558 64.7278L4.818 65.2547L5.28714 65.7858L5.78287 66.3209L6.30504 66.8596L6.85349 67.4017L7.42807 67.9468L8.0286 68.4949L8.6549 69.0454L9.30678 69.5982L9.98403 70.153L10.6865 70.7095L11.4139 71.2674L12.166 71.8265L12.9426 72.3865L13.7434 72.9471L14.5682 73.508L15.4168 74.069L16.2888 74.6297L17.184 75.19L18.102 75.7495L19.0427 76.308L20.0056 76.8652L20.9905 77.4208L21.9971 77.9747L23.025 78.5264L24.0738 79.0758L25.1433 79.6226L26.233 80.1665L27.3427 80.7073L28.4719 81.2448L29.6203 81.7787L30.7875 82.3086L31.9731 82.8346L33.1767 83.3561L34.3979 83.8731L35.6363 84.3853L36.8914 84.8924L38.1629 85.3943L39.4504 85.8907L40.7533 86.3813L42.0713 86.8661L43.4039 87.3447L44.7506 87.8169L46.1111 88.2826L47.4847 88.7415L48.8711 89.1935L50.2699 89.6383L51.6804 90.0757L53.1023 90.5057L54.535 90.9279L55.9781 91.3422L57.431 91.7485L58.8933 92.1466L60.3645 92.5362L61.844 92.9173L63.3314 93.2897L64.8261 93.6533L66.3276 94.0078L67.8355 94.3533L69.3491 94.6894L70.868 95.0162L72.3917 95.3334L73.9195 95.641L75.4511 95.9388L76.9858 96.2267L78.5231 96.5047L80.0625 96.7727L81.6035 97.0304L83.1455 97.2779L84.688 97.5151L86.2304 97.7419L87.7723 97.9582L89.313 98.1639L90.8521 98.3591L92.389 98.5435L93.9232 98.7173L95.4541 98.8803L96.9812 99.0326L98.504 99.174L100.022 99.3045L101.534 99.4242L103.041 99.533L104.541 99.6309L106.035 99.7179L107.52 99.794L108.998 99.8592L110.467 99.9135L111.927 99.9569L113.378 99.9895L114.819 100.011L116.249 100.022L117.667 100.023L119.075 100.012L120.47 99.9909L121.853 99.9592L123.223 99.917L124.579 99.8643L125.921 99.8012L127.249 99.7278L128.562 99.6441L129.859 99.5503L131.141 99.4464L132.406 99.3326L133.655 99.2089L134.886 99.0754L136.1 98.9323L137.296 98.7797L138.473 98.6177L139.631 98.4463L140.771 98.2659L141.89 98.0764L142.989 97.878L144.068 97.6709L145.126 97.4552L146.163 97.231L147.178 96.9986L148.172 96.7581L149.143 96.5096L150.091 96.2533L151.017 95.9894L151.919 95.7181L152.797 95.4395L153.652 95.1538L154.482 94.8613L155.288 94.562L156.069 94.2562L156.825 93.9441L157.555 93.6259L158.26 93.3018L158.94 92.972L159.593 92.6367L160.219 92.2961L160.819 91.9504L161.393 91.5999L161.939 91.2447L162.458 90.8851L162.95 90.5213L163.415 90.1536L163.851 89.7821L164.26 89.4071L164.641 89.0287L164.994 88.6474L165.319 88.2632L165.615 87.8764L165.883 87.4873L166.122 87.096L166.332 86.7029L166.514 86.3081L166.667 85.912L166.791 85.5146L166.887 85.1164L166.953 84.7175L166.991 84.3181L166.999 83.9186L166.979 83.5191L166.93 83.1199L166.851 82.7212L166.744 82.3233L166.608 81.9265L166.444 81.5309L166.25 81.1367L166.028 80.7443L165.777 80.3539L165.498 79.9657L165.19 79.58L164.854 79.1969L164.49 78.8167L164.097 78.4398L163.677 78.0661L163.229 77.6961L162.753 77.33L162.25 76.9678L161.72 76.61L161.162 76.2567L160.578 75.9081L159.967 75.5645L159.33 75.226L158.666 74.8929L157.976 74.5654L157.261 74.2437L156.52 73.9279L155.754 73.6184L154.963 73.3153L154.147 73.0187L153.307 72.7289L152.442 72.4461L151.554 72.1705L150.642 71.9021L149.708 71.6413L148.75 71.3882L147.77 71.1429L146.768 70.9057L145.743 70.6766L144.698 70.4559L143.631 70.2437L142.544 70.0401L141.436 69.8453L140.309 69.6595L139.162 69.4827L137.996 69.3152L136.811 69.1569L135.608 69.0082L134.387 68.869L133.148 68.7395L131.893 68.6198L130.621 68.51L129.333 68.4102L128.029 68.3205L126.71 68.241L125.376 68.1718L124.028 68.1129L122.666 68.0645L121.291 68.0265L119.903 67.9992L118.503 67.9824L117.091 67.9763L115.667 67.9809L114.233 67.9963L112.788 68.0224L111.334 68.0595L109.87 68.1073L108.397 68.1661L106.916 68.2357L105.427 68.3162L103.931 68.4076L102.428 68.51L100.919 68.6232L99.4042 68.7473L97.8842 68.8823L96.3596 69.0281L94.8309 69.1847L93.2986 69.3522L91.7632 69.5303L90.2254 69.7191L88.6856 69.9186L87.1443 70.1286L85.6021 70.3492L84.0596 70.5802L82.5173 70.8216L80.9756 71.0733L79.4352 71.3352L77.8966 71.6073L76.3603 71.8893L74.8268 72.1813L73.2967 72.4831L71.7705 72.7947L70.2487 73.1158L68.7319 73.4464L67.2205 73.7863L65.7152 74.1355L64.2164 74.4937L62.7246 74.8609L61.2403 75.2369L59.7642 75.6215L58.2965 76.0145L56.838 76.416L55.389 76.8255L53.9501 77.2431L52.5217 77.6685L51.1044 78.1015L49.6986 78.542L48.3049 78.9898L46.9236 79.4446L45.5553 79.9063L44.2004 80.3747L42.8593 80.8495L41.5326 81.3306L40.2207 81.8178L38.9241 82.3108L37.643 82.8095L36.3781 83.3135L35.1298 83.8227L33.8983 84.3369L32.6843 84.8558L31.4879 85.3791L30.3098 85.9067L29.1502 86.4383L28.0096 86.9737L26.8883 87.5125L25.7867 88.0547L24.7052 88.5998L23.644 89.1477L22.6037 89.6981L21.5845 90.2507L20.5867 90.8053L19.6107 91.3616L18.6568 91.9193L17.7253 92.4783L16.8166 93.0381L15.9308 93.5986L15.0683 94.1595L14.2294 94.7205L13.4143 95.2813L12.6233 95.8417L11.8566 96.4013L11.1146 96.96L10.3973 97.5173L9.70511 98.0732L9.03816 98.6272L8.39667 99.1791L7.78085 99.7287L7.19087 100.276L6.62692 100.82L6.08915 101.36L5.57774 101.898L5.09283 102.431L4.63455 102.96L4.20304 103.486L3.79842 104.006L3.4208 104.522L3.07027 105.032L2.74694 105.538L2.45088 106.037L2.18216 106.531L1.94084 107.018L1.72697 107.499L1.54061 107.973L1.38177 108.44L1.25048 108.9L1.14675 109.352L1.07059 109.797L1.02198 110.234L1.00092 110.662L1.00736 111.082L1.04129 111.493L1.10263 111.895L1.19135 112.288L1.30738 112.672L1.45064 113.046L1.62104 113.409L1.81848 113.763L2.04288 114.106L2.2941 114.439L2.57203 114.761L2.87653 115.072L3.20746 115.372L3.56467 115.661L3.94799 115.938L4.35727 116.203L4.79231 116.456L5.25293 116.697L5.73894 116.925L6.25012 117.141L6.78627 117.345L7.34716 117.535L7.93255 117.713L8.54221 117.878L9.17589 118.029L9.83333 118.166L10.5143 118.291L11.2184 118.401L11.9455 118.498L12.6953 118.58L13.4674 118.649L14.2616 118.704L15.0775 118.744L15.9148 118.77L16.7732 118.781L17.6524 118.778L18.552 118.76L19.4716 118.727L20.411 118.68L21.3698 118.618L22.3475 118.541L23.3439 118.448L24.3585 118.341L25.3909 118.219L26.4408 118.082L27.5078 117.93L28.5914 117.763L29.6913 117.58L30.807 117.383L31.9382 117.17L33.0843 116.943L34.2451 116.7L35.4199 116.442L36.6085 116.169L37.8103 115.881L39.0249 115.578L40.2519 115.26L41.4908 114.928L42.7412 114.58L44.0025 114.218L45.2744 113.841L46.5563 113.45L47.8479 113.044L49.1486 112.623L50.4579 112.189L51.7754 111.74L53.1006 111.277L54.433 110.8L55.7721 110.309L57.1175 109.805L58.4686 109.286L59.825 108.755L61.1862 108.21L62.5517 107.652L63.921 107.081L65.2936 106.498L66.6691 105.902L68.0468 105.293L69.4264 104.672L70.8074 104.039L72.1892 103.394L73.5714 102.737L74.9535 102.069L76.335 101.39L77.7154 100.7L79.0941 99.999L80.4709 99.2875L81.8451 98.5656L83.2162 97.8337L84.5839 97.0919L85.9476 96.3405L87.3068 95.5799L88.6611 94.8102L90.01 94.0317L91.353 93.2446L92.6897 92.4494L94.0196 91.6461L95.3422 90.8352L96.6571 90.0169L97.9639 89.1915L99.2621 88.3593L100.551 87.5207L101.831 86.6758L103.101 85.825L104.36 84.9687L105.609 84.1071L106.846 83.2406L108.072 82.3694L109.286 81.494L110.487 80.6146L111.676 79.7316L112.851 78.8453L114.013 77.956L115.161 77.0641L116.294 76.17L117.413 75.2739L118.517 74.3762L119.605 73.4772L120.677 72.5774L121.733 71.677L122.773 70.7765L123.796 69.8761L124.802 68.9762L125.79 68.0772L126.76 67.1795L127.713 66.2833L128.647 65.3891L129.562 64.4971L130.458 63.6079L131.335 62.7217L132.193 61.8388L133.031 60.9598L133.849 60.0848L134.646 59.2143L135.423 58.3486L136.18 57.4881L136.915 56.6332L137.629 55.7841L138.322 54.9413L138.993 54.1051L139.643 53.2759L140.271 52.454L140.876 51.6397L141.46 50.8335L142.02 50.0356L142.559 49.2464L143.074 48.4663L143.567 47.6955L144.037 46.9345L144.484 46.1835L144.908 45.4429L145.308 44.713L145.685 43.9941L146.039 43.2866L146.369 42.5908L146.676 41.907L146.959 41.2355L147.219 40.5766L147.455 39.9306L147.667 39.2979L147.855 38.6786L148.02 38.0732L148.162 37.4818L148.279 36.9048L148.373 36.3425L148.443 35.7951L148.49 35.2629L148.513 34.7462L148.513 34.2452L148.489 33.7601L148.442 33.2913L148.372 32.8389L148.278 32.4032L148.162 31.9844L148.022 31.5828L147.86 31.1986L147.675 30.8319L147.467 30.483L147.237 30.1521L146.984 29.8394L146.71 29.5451L146.413 29.2693L146.095 29.0122L145.755 28.7741L145.393 28.555L145.01 28.3551L144.606 28.1745L144.182 28.0135L143.736 27.8721L143.271 27.7504L142.785 27.6486L142.279 27.5668L141.753 27.5051L141.208 27.4636L140.644 27.4424L140.061 27.4415L139.459 27.4611L138.838 27.5011L138.2 27.5617L137.544 27.643L136.87 27.7449L136.179 27.8675L135.471 28.0108L134.747 28.1748L134.006 28.3596L133.249 28.5652L132.477 28.7915L131.689 29.0385L130.886 29.3063L130.069 29.5948L129.237 29.9039L128.392 30.2336L127.532 30.584L126.66 30.9548L125.775 31.346L124.877 31.7577L123.967 32.1896L123.045 32.6417L122.112 33.1139L121.168 33.606L120.213 34.1181L119.248 34.6499L118.273 35.2013L117.289 35.7722L116.296 36.3624L115.294 36.9718L114.283 37.6002L113.265 38.2475L112.24 38.9134L111.207 39.5978L110.167 40.3005L109.122 41.0213L108.07 41.76L107.014 42.5164L105.952 43.2902L104.885 44.0812L103.814 44.8893L102.74 45.714L101.662 46.5553L100.581 47.4128L99.4975 48.2863L98.4119 49.1755L97.3245 50.0801L96.2359 50.9999L95.1463 51.9345L94.0561 52.8837L92.9659 53.8471L91.876 54.8245L90.7868 55.8155L89.6987 56.8198L88.6121 57.8371L87.5274 58.8671L86.445 59.9094L85.3653 60.9636L84.2887 62.0295L83.2156 63.1066L82.1464 64.1947L81.0815 65.2933L80.0212 66.4021L78.9659 67.5206L77.916 68.6486L76.8719 69.7857L75.8339 70.9314L74.8024 72.0853L73.7778 73.2471L72.7605 74.4164L71.7507 75.5928L70.7489 76.7758L69.7553 77.9651L68.7704 79.1602L67.7945 80.3607L66.8278 81.5662L65.8708 82.7762L64.9237 83.9905L63.9869 85.2084L63.0607 86.4296L62.1454 87.6537L61.2412 88.8802L60.3486 90.1087L59.4678 91.3387L58.599 92.5698L57.7426 93.8016L56.8988 95.0336L56.0679 96.2653L55.2502 97.4964L54.4459 98.7264L53.6553 99.9548L52.8786 101.181L52.1161 102.405L51.368 103.626L50.6344 104.844L49.9158 106.058L49.2122 107.267L48.5238 108.472L47.8509 109.672L47.1937 110.866L46.5523 112.054L45.9269 113.236L45.3178 114.41L44.7249 115.578L44.1487 116.737L43.589 117.889L43.0462 119.031L42.5204 120.165L42.0116 121.289L41.5201 122.403L41.0458 123.507L40.5891 124.6L40.1498 125.681L39.7282 126.751L39.3242 127.809L38.9381 128.855L38.5699 129.887L38.2195 130.907L37.8872 131.912L37.5729 132.904L37.2767 133.881L36.9986 134.843L36.7387 135.791L36.4969 136.722L36.2733 137.638L36.0679 138.537L35.8807 139.42L35.7116 140.285L35.5607 141.134L35.428 141.964L35.3133 142.776L35.2167 143.571L35.1382 144.346L35.0776 145.102L35.035 145.839L35.0102 146.556L35.0031 147.254L35.0138 147.931L35.0421 148.587L35.0879 149.223L35.1511 149.838L35.2317 150.431L35.3294 151.003L35.4442 151.552L35.576 152.08L35.7246 152.586L35.8899 153.068L36.0717 153.528L36.2699 153.965L36.4844 154.379L36.7149 154.77L36.9613 155.137L37.2234 155.48L37.5011 155.799L37.7941 156.094L38.1023 156.365L38.4255 156.611L38.7635 156.833L39.116 157.03L39.4828 157.202L39.8638 157.35L40.2586 157.472L40.6672 157.57L41.0892 157.642L41.5244 157.689L41.9725 157.711L42.4334 157.707L42.9067 157.678L43.3923 157.623L43.8898 157.543L44.399 157.437L44.9196 157.306L45.4514 157.149L45.994 156.967L46.5473 156.76L47.1108 156.526L47.6845 156.268L48.2678 155.984L48.8606 155.674L49.4627 155.339L50.0735 154.979L50.693 154.594L51.3207 154.184L51.9564 153.749L52.5998 153.289L53.2505 152.805L53.9083 152.295L54.5728 151.762L55.2438 151.204L55.9209 150.621L56.6038 150.015L57.2922 149.385L57.9858 148.732L58.6842 148.054L59.3871 147.354L60.0943 146.631L60.8054 145.884L61.5201 145.115L62.238 144.324L62.9588 143.511L63.6823 142.675L64.4081 141.819L65.1359 140.94L65.8653 140.041L66.5961 139.121L67.3279 138.18L68.0604 137.219L68.7933 136.238L69.5262 135.238L70.259 134.218L70.9912 133.179L71.7225 132.122L72.4527 131.046L73.1814 129.953L73.9083 128.841L74.6332 127.713L75.3556 126.568L76.0754 125.406L76.7922 124.229L77.5057 123.035L78.2157 121.826L78.9218 120.603L79.6238 119.365L80.3213 118.113L81.0142 116.847L81.7021 115.568L82.3847 114.276L83.0618 112.972L83.7332 111.655L84.3985 110.328L85.0574 108.989L85.7099 107.64L86.3555 106.28L86.994 104.911L87.6253 103.533L88.249 102.146L88.865 100.751L89.4729 99.3478L90.0726 97.9375L90.6639 96.5204L91.2465 95.097L91.8203 93.6677L92.3849 92.2331L92.9403 90.7937L93.4862 89.3499L94.0225 87.9022L94.5488 86.4513L95.0652 84.9975L95.5713 83.5413L96.067 82.0833L96.5522 80.624L97.0267 79.1639L97.4904 77.7035L97.943 76.2433L98.3845 74.7838L98.8146 73.3256L99.2334 71.869L99.6406 70.4148L100.036 68.9633L100.42 67.5151L100.792 66.0706L101.152 64.6305L101.499 63.1951L101.835 61.7651L102.158 60.3409L102.469 58.923L102.768 57.5119L103.054 56.1082L103.328 54.7123L103.589 53.3247L103.837 51.9459L104.073 50.5764L104.295 49.2167L104.506 47.8672L104.703 46.5286L104.887 45.2011L105.059 43.8854L105.218 42.5819L105.364 41.291L105.497 40.0132L105.618 38.749L105.726 37.4989L105.821 36.2632L105.903 35.0424L105.972 33.8371L106.029 32.6475L106.073 31.4741L106.105 30.3174L106.124 29.1778L106.131 28.0557L106.125 26.9515L106.107 25.8655L106.077 24.7983L106.035 23.7502L105.981 22.7215L105.914 21.7127L105.836 20.7241L105.747 19.7561L105.645 18.809L105.532 17.8832L105.408 16.979L105.273 16.0967L105.126 15.2368L104.968 14.3995L104.8 13.585L104.621 12.7938L104.431 12.0261L104.231 11.2822L104.021 10.5624L103.801 9.86695L103.571 9.19609L103.331 8.55009L103.082 7.9292L102.823 7.33366L102.555 6.76368L102.278 6.2195L101.993 5.70131L101.699 5.20932L101.396 4.74372L101.085 4.30469L100.767 3.8924L100.44 3.50702L100.106 3.1487L99.765 2.81758L99.4167 2.5138L99.0614 2.23748L98.6995 1.98874L98.3312 1.76768L97.9567 1.5744L97.5762 1.40898L97.19 1.2715L96.7983 1.16203L96.4014 1.08063L95.9994 1.02733L95.5927 1.00217L95.1815 1.00519L94.7659 1.0364L94.3464 1.09579L93.9231 1.18338L93.4962 1.29915L93.0661 1.44307L92.6329 1.61511L92.197 1.81523L91.7585 2.04337L91.3178 2.29947L90.875 2.58345L90.4305 2.89524L89.9845 3.23473L89.5372 3.60183L89.089 3.99642L88.64 4.41839L88.1905 4.86759L87.7408 5.34388L87.2911 5.84712L86.8417 6.37713L86.3928 6.93376L85.9447 7.51682L85.4976 8.12611L85.0519 8.76145L84.6076 9.42262L84.1651 10.1094L83.7246 10.8216L83.2864 11.5589L82.8507 12.3211L82.4177 13.108L81.9877 13.9192L81.5609 14.7546L81.1376 15.6138L80.7179 16.4965L80.3022 17.4025L79.8906 18.3315L79.4834 19.283L79.0807 20.2569L78.6829 21.2527L78.29 22.2702L77.9024 23.309L77.5203 24.3687L77.1438 25.449L76.7731 26.5495L76.4085 27.6698L76.0501 28.8096L75.6982 29.9685L75.3529 31.146L75.0144 32.3417L74.6829 33.5554L74.3586 34.7864L74.0416 36.0345L73.7322 37.2992L73.4304 38.58L73.1365 39.8765L72.8505 41.1882L72.5728 42.5148L72.3033 43.8558L72.0422 45.2106L71.7898 46.5789L71.5461 47.9601L71.3112 49.3537L71.0853 50.7594L70.8684 52.1766L70.6608 53.6048L70.4625 55.0436L70.2736 56.4923L70.0943 57.9506L69.9245 59.4179L69.7645 60.8938L69.6143 62.3776L69.4739 63.8689L69.3435 65.3672L69.2231 66.872L69.1127 68.3827L69.0125 69.8988L68.9225 71.4198L68.8428 72.9452L68.7733 74.4744L68.7141 76.0069L68.6653 77.5421L68.6268 79.0796L68.5987 80.6188L68.5811 82.1592L68.5739 83.7002L68.577 85.2414L68.5906 86.7821L68.6147 88.3218L68.6491 89.86L68.6939 91.3962L68.749 92.9299L68.8145 94.4604L68.8903 95.9873L68.9763 97.5101L69.0725 99.0281L69.1789 100.541L69.2954 102.048L69.422 103.549L69.5585 105.043L69.7049 106.53L69.8611 108.009L70.0271 109.48L70.2027 110.942L70.3879 112.394L70.5826 113.837L70.7866 115.269L70.9998 116.691L71.2222 118.101L71.4536 119.499L71.6939 120.885L71.943 122.259L72.2007 123.619L72.4669 124.965L72.7415 126.297L73.0243 127.615L73.3151 128.918L73.6139 130.205L73.9203 131.475L74.2344 132.73L74.5559 133.968L74.8846 135.188L75.2204 136.391L75.5631 137.576L75.9124 138.742L76.2683 139.889L76.6305 141.017L76.9989 142.125L77.3731 143.213L77.7531 144.281L78.1386 145.328L78.5295 146.354L78.9254 147.358L79.3262 148.341L79.7317 149.301L80.1416 150.239L80.5557 151.154L80.9739 152.046L81.3958 152.914L81.8213 153.759L82.2501 154.579L82.6819 155.376L83.1166 156.148L83.5539 156.895L83.9935 157.617L84.4352 158.313L84.8788 158.984L85.3241 159.63L85.7707 160.249L86.2184 160.843L86.667 161.409L87.1163 161.95L87.5659 162.464L88.0156 162.95L88.4652 163.41L88.9144 163.843L89.363 164.248L89.8107 164.626L90.2572 164.976L90.7023 165.299L91.1458 165.593L91.5873 165.86L92.0267 166.099L92.4636 166.31L92.8979 166.493L93.3293 166.648L93.7574 166.775L94.1822 166.873L94.6032 166.944L95.0203 166.986L95.4333 167L95.8418 166.986L96.2456 166.943L96.6445 166.873L97.0383 166.774L97.4266 166.648L97.8094 166.493L98.1863 166.311L98.557 166.101L98.9214 165.863L99.2793 165.597L99.6304 165.304L99.9744 164.983L100.311 164.636L100.641 164.261L100.962 163.859L101.276 163.43L101.582 162.975L101.879 162.493L102.168 161.985L102.448 161.451L102.72 160.891L102.982 160.305L103.235 159.694L103.479 159.058L103.713 158.397L103.937 157.711L104.151 157.001L104.355 156.266L104.548 155.508L104.732 154.725L104.904 153.92L105.066 153.092L105.217 152.24L105.357 151.367L105.485 150.471L105.603 149.554L105.709 148.615L105.803 147.655L105.886 146.674L105.956 145.673L106.015 144.652L106.062 143.612L106.097 142.552L106.12 141.473L106.13 140.376L106.128 139.261L106.114 138.128L106.087 136.978L106.048 135.811L105.996 134.628L105.931 133.428L105.854 132.213L105.764 130.983L105.661 129.739L105.546 128.48L105.418 127.208L105.276 125.922L105.123 124.623L104.956 123.312L104.776 121.989L104.584 120.655L104.379 119.309L104.161 117.954L103.93 116.588L103.687 115.213L103.431 113.828L103.162 112.436L102.881 111.035L102.587 109.627L102.281 108.211L101.962 106.79L101.631 105.362L101.288 103.928L100.933 102.49L100.566 101.047L100.187 99.6004L99.7959 98.1501L99.3932 96.6969L98.9789 95.2412L98.5531 93.7836L98.116 92.3245L97.6677 90.8645L97.2084 89.4041L96.7381 87.9438L96.257 86.4841L95.7654 85.0256L95.2633 83.5687L94.7509 82.1139L94.2284 80.6618L93.696 79.2128L93.1538 77.7674L92.6021 76.3262L92.041 74.8897L91.4708 73.4583L90.8916 72.0326L90.3036 70.6129L89.7072 69.1999L89.1024 67.794L88.4895 66.3957L87.8688 65.0055L87.2405 63.6237L86.6047 62.2511L85.9618 60.8878L85.312 59.5346L84.6555 58.1917L83.9927 56.8597L83.3237 55.539L82.6488 54.2301L81.9682 52.9333L81.2824 51.6492L80.5914 50.3782L79.8957 49.1207L79.1954 47.877L78.4908 46.6477L77.7823 45.4332L77.0702 44.2338L76.3546 43.0499L75.6359 41.8819L74.9145 40.7303L74.1905 39.5954L73.4644 38.4775L72.7363 37.3771L72.0067 36.2944L71.2758 35.2299L70.5439 34.1839L69.8113 33.1568L69.0784 32.1487L68.3454 31.1602L67.6127 30.1915L66.8806 29.2428L66.1494 28.3146L65.4194 27.4071L64.691 26.5206L63.9644 25.6553L63.24 24.8116L62.518 23.9896L61.7989 23.1897L61.083 22.4121L60.3705 21.657L59.6617 20.9246L58.9571 20.2153L58.2569 19.5291L57.5614 18.8663L56.8709 18.227L56.1859 17.6116L55.5065 17.02L54.8331 16.4526L54.166 15.9094L53.5056 15.3906L52.852 14.8964L52.2058 14.4268L51.567 13.9821L50.9362 13.5622L50.3135 13.1674L49.6992 12.7976L49.0937 12.4531L48.4973 12.1338L47.9102 11.8399L47.3328 11.5713L46.7653 11.3282L46.208 11.1105L45.6612 10.9183L45.1251 10.7517L44.6001 10.6106L44.0865 10.495L43.5844 10.405L43.0942 10.3404L42.616 10.3014L42.1503 10.2877L41.6971 10.2995L41.2569 10.3366L40.8297 10.3991L40.4159 10.4867L40.0157 10.5994L39.6293 10.7372L39.257 10.8999L38.8989 11.0875L38.5552 11.2997L38.2263 11.5366L37.9122 11.7979L37.6133 12.0835L37.3296 12.3933L37.0614 12.7271L36.8088 13.0848L36.5721 13.466L36.3514 13.8708L36.1469 14.2988L35.9586 14.7499L35.7869 15.2239L35.6318 15.7205L35.4935 16.2396L35.372 16.7809L35.2676 17.3441L35.1804 17.929L35.1104 18.5354L35.0578 19.1629L35.0227 19.8114L35.0052 20.4805L35.0053 21.17L35.0232 21.8796L35.0589 22.6089L35.1125 23.3577L35.1841 24.1256L35.2736 24.9124L35.3812 25.7177L35.5069 26.5412L35.6508 27.3826L35.8127 28.2415L35.9929 29.1175L36.1912 30.0104L36.4078 30.9197L36.6425 31.8451L36.8953 32.7862L37.1664 33.7427L37.4555 34.7142L37.7628 35.7002L38.0881 36.7005L38.4315 37.7146L38.7927 38.7421L39.1719 39.7826L39.5689 40.8358L39.9837 41.9012L40.4161 42.9783L40.8661 44.0669L41.3335 45.1664L41.8184 46.2765L42.3205 47.3967L42.8397 48.5265L43.3759 49.6657L43.929 50.8137L44.4988 51.9701L45.0852 53.1345L45.688 54.3064L46.3071 55.4854L46.9423 56.6711L47.5934 57.8629L48.2602 59.0605L48.9426 60.2635L49.6403 61.4713L50.3531 62.6836L51.0809 63.8998L51.8234 65.1195L52.5803 66.3424L53.3515 67.5679L54.1368 68.7955L54.9357 70.025L55.7483 71.2557L56.5741 72.4872L57.4129 73.7192L58.2644 74.9511L59.1284 76.1825L60.0046 77.413L60.8927 78.6422L61.7923 79.8695L62.7033 81.0945L63.6254 82.3169L64.5581 83.5362L65.5012 84.7519L66.4544 85.9636L67.4173 87.171L68.3897 88.3735L69.3712 89.5707L70.3614 90.7623L71.3601 91.9478L72.3668 93.1268L73.3812 94.2989L74.4031 95.4636L75.4319 96.6207L76.4674 97.7697L77.5091 98.9101L78.5568 100.042L79.6101 101.164L80.6685 102.277L81.7317 103.379L82.7993 104.471L83.8709 105.553L84.9462 106.623L86.0247 107.682L87.1061 108.729L88.1899 109.764L89.2758 110.786L90.3634 111.795L91.4522 112.792L92.5419 113.774L93.6321 114.743L94.7223 115.698L95.8121 116.638L96.9012 117.564L97.9891 118.474L99.0755 119.37L100.16 120.249L101.242 121.113L102.321 121.961L103.397 122.792L104.469 123.606L105.537 124.404L106.601 125.185L107.66 125.948L108.714 126.693L109.761 127.421L110.803 128.131L111.839 128.823L112.867 129.496L113.888 130.15L114.902 130.786L115.907 131.403L116.904 132.001L117.892 132.579L118.87 133.138L119.839 133.677L120.798 134.197L121.746 134.697L122.683 135.177L123.61 135.637L124.524 136.077L125.427 136.496L126.317 136.895L127.195 137.274L128.059 137.633L128.91 137.97L129.747 138.287L130.57 138.584L131.378 138.86L132.172 139.115L132.951 139.349L133.713 139.563L134.46 139.756L135.191 139.928L135.906 140.079L136.603 140.21L137.284 140.32L137.947 140.409L138.592 140.478L139.22 140.526L139.829 140.553L140.419 140.56L140.991 140.547L141.543 140.513L142.077 140.46L142.59 140.386L143.084 140.292L143.558 140.178L144.011 140.044L144.444 139.89L144.856 139.717L145.247 139.525L145.616 139.313L145.965 139.083L146.292 138.833L146.597 138.564L146.88 138.277L147.141 137.972L147.38 137.648L147.596 137.306L147.79 136.946L147.962 136.569L148.11 136.174L148.236 135.762L148.338 135.333L148.417 134.887L148.473 134.424L148.506 133.945L148.516 133.451L148.502 132.94L148.464 132.414L148.403 131.872L148.318 131.316L148.21 130.744L148.078 130.159L147.922 129.559L147.743 128.945L147.54 128.317L147.313 127.676L147.063 127.022L146.789 126.356L146.491 125.677L146.17 124.985L145.826 124.282L145.458 123.568L145.066 122.842L144.652 122.106L144.214 121.359L143.753 120.602L143.269 119.835L142.762 119.058L142.232 118.272L141.68 117.478L141.106 116.675L140.509 115.864L139.89 115.045L139.249 114.218L138.586 113.385L137.901 112.544L137.195 111.698L136.468 110.845L135.72 109.987L134.951 109.123L134.161 108.254L133.351 107.381L132.521 106.504L131.671 105.622L130.802 104.737L129.913 103.849L129.005 102.958L128.078 102.065L127.133 101.169L126.17 100.272L125.188 99.3736L124.189 98.474L123.173 97.5738L122.14 96.6732L121.09 95.7727L120.024 94.8727L118.942 93.9733L117.844 93.0751L116.731 92.1784L115.604 91.2834L114.461 90.3906L113.305 89.5002L112.135 88.6127L110.951 87.7284L109.755 86.8476L108.546 85.9706L107.324 85.0977L106.091 84.2294L104.847 83.3658L103.592 82.5074L102.326 81.6544L101.05 80.8072L99.7647 79.9661L98.47 79.1314L97.1665 78.3033L95.8546 77.4822L94.5349 76.6684L93.2078 75.8621L91.8737 75.0637L90.5331 74.2735L89.1864 73.4916L87.8342 72.7184L86.4768 71.9542L85.1148 71.1992L83.7487 70.4537L82.3788 69.7179L81.0058 68.9921L79.6299 68.2765L78.2519 67.5713L76.8721 66.8769L75.491 66.1934L74.1091 65.521L72.7268 64.86L71.3448 64.2106L69.9635 63.5729L68.5833 62.9472L67.2047 62.3338L65.8283 61.7326L64.4546 61.144L63.0839 60.5682L61.7169 60.0052L60.354 59.4553L58.9956 58.9187L57.6424 58.3953L56.2947 57.8856L54.9531 57.3894L53.618 56.9071L52.29 56.4387L50.9694 55.9843L49.6569 55.5441L48.3528 55.1181L47.0576 54.7066L45.7719 54.3094L44.496 53.9269L43.2305 53.5589L41.9758 53.2057L40.7324 52.8673L39.5007 52.5437L38.2812 52.2349L37.0744 51.9412L35.8806 51.6624L34.7004 51.3987L33.5341 51.15L32.3823 50.9164L31.2452 50.6979L30.1235 50.4945L29.0174 50.3063L27.9274 50.1331L26.8539 49.9751L25.7973 49.8321L24.758 49.7042L23.7364 49.5913L22.7329 49.4935L21.7479 49.4106L20.7817 49.3426L19.8347 49.2895L18.9073 49.2512L17.9999 49.2276L17.1127 49.2187L16.2462 49.2243L15.4006 49.2445L14.5764 49.2791L13.7737 49.328L12.993 49.3911L12.2345 49.4684L11.4985 49.5596L10.7854 49.6647L10.0954 49.7836L9.42881 49.9161L8.78586 50.0621L8.16682 50.2214L7.57196 50.3939L7.00152 50.5795L6.45572 50.778L5.9348 50.9892L5.43897 51.213L4.96845 51.4491L4.52344 51.6975L4.10412 51.958L3.71068 52.2302L3.34329 52.5142L3.00212 52.8096L2.68732 53.1163L2.39904 53.4341L2.13742 53.7628L1.90257 54.102L1.69463 54.4518L1.5137 54.8117L1.35987 55.1817L1.23325 55.5614L1.1339 55.9507L1.06189 56.3493L1.0173 56.757L1.00016 57.1735L1.01052 57.5986L1.04841 58.032L1.11385 58.4736L1.20685 58.923L1.32742 59.38L1.47555 59.8444L1.65121 60.3159L1.85438 60.7942L2.08503 61.279L2.3431 61.7702L2.62853 62.2674L2.94127 62.7704L3.28122 63.2789L3.64832 63.7926L4.04245 64.3113L4.46351 64.8347L4.91139 65.3625L5.38596 65.8945L5.88708 66.4303L6.41462 66.9697L6.9684 67.5125L7.54828 68.0583L8.15407 68.6068L8.7856 69.1578L9.44266 69.711L10.1251 70.2662L10.8326 70.823L11.565 71.3812L12.3222 71.9405L13.1037 72.5006L13.9095 73.0613L14.7391 73.6223L15.5925 74.1832L16.4693 74.7439L17.3691 75.304L18.2918 75.8634L19.237 76.4216L20.2045 76.9785L21.1938 77.5338L22.2047 78.0872L23.2369 78.6385L24.29 79.1874L25.3636 79.7336L26.4574 80.2769L27.5711 80.8171L28.7043 81.3538L29.8565 81.8869L31.0275 82.4161L32.2168 82.9411L33.424 83.4618L34.6487 83.9778L35.8906 84.489L37.1491 84.9951L38.4239 85.4958L39.7145 85.9911L41.0205 86.4806L42.3415 86.9641L43.677 87.4414L45.0266 87.9123L46.3898 88.3766L47.7661 88.8341L49.155 89.2847L50.5562 89.728L51.9691 90.1639L53.3932 90.5923L54.8281 91.0129L56.2732 91.4256L57.7281 91.8303L59.1922 92.2266L60.6652 92.6145L62.1463 92.9939L63.6352 93.3645L65.1314 93.7262L66.6343 94.0789L68.1433 94.4225L69.6581 94.7567L71.178 95.0815L72.7025 95.3968L74.2312 95.7024L75.7634 95.9982L77.2987 96.2842L78.8365 96.5601L80.3763 96.826L81.9175 97.0817L83.4596 97.3271L85.0022 97.5621L86.5445 97.7868L88.0862 98.0009L89.6266 98.2045L91.1653 98.3975L92.7017 98.5798L94.2352 98.7514L95.7654 98.9122L97.2917 99.0622L98.8135 99.2014L100.33 99.3298L101.842 99.4473L103.347 99.5538L104.846 99.6495L106.338 99.7343L107.822 99.8081L109.298 99.8711L110.765 99.9232L112.224 99.9644L113.672 99.9948L115.111 100.014L116.538 100.023L117.955 100.021L119.36 100.009L120.753 99.9853L122.133 99.9515L123.5 99.9071L124.853 99.8523L126.193 99.7871L127.517 99.7116L128.827 99.6258L130.122 99.53L131.4 99.4241L132.662 99.3082L133.907 99.1825L135.135 99.0471L136.345 98.902L137.537 98.7475L138.71 98.5835L139.865 98.4103L141 98.228L142.116 98.0367L143.211 97.8365L144.286 97.6276L145.339 97.4102L146.372 97.1844L147.383 96.9503L148.371 96.7081L149.338 96.458L150.282 96.2002L151.202 95.9348L152.1 95.6619L152.973 95.3819L153.823 95.0948L154.648 94.8009L155.449 94.5002L156.225 94.1932L156.976 93.8798L157.701 93.5604L158.401 93.2351L159.075 92.9042L159.722 92.5678L160.344 92.2261L160.938 91.8794L161.506 91.5279L162.047 91.1718L162.561 90.8114L163.047 90.4467L163.506 90.0782L163.937 89.706L164.34 89.3303L164.715 88.9513L165.062 88.5693L165.381 88.1846L165.672 87.7973L165.934 87.4077L166.167 87.0161L166.372 86.6226L166.548 86.2275L166.695 85.8311L166.813 85.4336L166.903 85.0352L166.963 84.6362L166.995 84.2368L166.998 83.8372L166.971 83.4378L166.916 83.0387L166.832 82.6401L166.719 82.2424L166.577 81.8458L166.406 81.4504L166.207 81.0567L165.979 80.6647L165.722 80.2747L165.437 79.887L165.124 79.5017L164.782 79.1192L164.412 78.7397L164.014 78.3634L163.588 77.9905L163.134 77.6212L162.653 77.2559L162.144 76.8946L161.609 76.5377L161.046 76.1853L160.456 75.8377L159.839 75.4951L159.197 75.1578L158.528 74.8258L157.833 74.4994L157.112 74.1789L156.366 73.8644L155.595 73.5561L154.799 73.2543L153.978 72.9591L153.132 72.6708L152.263 72.3894L151.37 72.1152L150.454 71.8484L149.514 71.5891L148.552 71.3376L147.567 71.094L146.561 70.8584L145.532 70.631L144.482 70.412L143.412 70.2015L142.32 69.9997L141.208 69.8068L140.077 69.6228L138.926 69.4479L137.756 69.2822L136.567 69.1259L135.36 68.9791L134.136 68.8418L132.894 68.7143L131.635 68.5966L130.36 68.4889L129.068 68.3911L127.761 68.3035L126.439 68.2261L125.103 68.159L123.752 68.1022L122.387 68.0559L121.01 68.0201L119.619 67.9949L118.216 67.9803L116.802 67.9763L115.376 67.9832L113.94 68.0007L112.493 68.0291L111.036 68.0683L109.571 68.1184L108.096 68.1793L106.613 68.2512L105.123 68.3339L103.625 68.4276L102.121 68.5322L100.611 68.6476L99.095 68.7739L97.5741 68.9111L96.0486 69.0591L94.5191 69.218L92.9861 69.3876L91.4502 69.5679L89.9119 69.7589L88.3717 69.9605L86.8303 70.1727L85.288 70.3954L83.7455 70.6286L82.2032 70.8721L80.6618 71.1258L79.1217 71.3898L77.5835 71.6639L76.0477 71.948L74.5149 72.242L72.9855 72.5458L71.4602 72.8593L69.9394 73.1823L68.4236 73.5148L66.9134 73.8567L65.4094 74.2077L63.912 74.5678L62.4217 74.9367L60.939 75.3145L59.4645 75.7008L57.9987 76.0956L56.5421 76.4987L55.0951 76.91L53.6583 77.3291L52.2322 77.7561L50.8172 78.1906L49.4138 78.6326L48.0225 79.0818L46.6438 79.5381L45.2782 80.0011L43.9261 80.4708L42.5879 80.947L41.2642 81.4294L39.9554 81.9177L38.6619 82.4119L37.3841 82.9117L36.1225 83.4168L34.8776 83.9271L33.6496 84.4422L32.4391 84.962L31.2465 85.4863L30.0721 86.0147L28.9164 86.5471L27.7796 87.0832L26.6623 87.6227L25.5648 88.1655L24.4874 88.7112L23.4305 89.2596L22.3944 89.8104L21.3795 90.3635L20.3862 90.9184L19.4146 91.4751L18.4653 92.0331L17.5384 92.5922L16.6343 93.1522L15.7532 93.7128L14.8955 94.2738L14.0614 94.8347L13.2512 95.3955L12.4651 95.9557L11.7035 96.5152L10.9665 97.0736L10.2543 97.6307L9.56721 98.1862L8.90543 98.7398L8.26916 99.2913L7.65858 99.8403L7.07389 100.387L6.51526 100.93L5.98285 101.47L5.47682 102.006L4.99732 102.539L4.54449 103.068L4.11845 103.592L3.71931 104.112L3.3472 104.626L3.00221 105.136L2.68442 105.64L2.39393 106.138L2.13078 106.63L1.89505 107.116L1.68679 107.596L1.50602 108.069L1.35279 108.534L1.22712 108.993L1.129 109.444L1.05846 109.887L1.01546 110.322L1 110.748L1.01205 111.166L1.05156 111.576L1.11849 111.976L1.21278 112.367L1.33435 112.749L1.48314 113.12L1.65906 113.482L1.86201 113.834L2.09187 114.175L2.34854 114.506L2.63189 114.826L2.94179 115.134L3.27809 115.432L3.64063 115.718L4.02925 115.992L4.44379 116.255L4.88406 116.506L5.34987 116.744L5.84102 116.97L6.3573 117.184L6.89851 117.385L7.46441 117.573L8.05476 117.748L8.66933 117.909L9.30787 118.058L9.97012 118.193L10.6558 118.314L11.3647 118.422L12.0964 118.516L12.8507 118.596L13.6274 118.661L14.426 118.713L15.2463 118.75L16.0879 118.773L16.9506 118.781L17.834 118.775L18.7377 118.754L19.6614 118.719L20.6048 118.668L21.5674 118.603L22.549 118.523L23.5491 118.428L24.5673 118.318L25.6034 118.193L26.6568 118.053L27.7272 117.897L28.8141 117.727L29.9173 117.541L31.0362 117.341L32.1704 117.125L33.3196 116.894L34.4832 116.649L35.6609 116.388L36.8522 116.112L38.0566 115.821L39.2738 115.515L40.5033 115.194L41.7445 114.858L42.9972 114.508L44.2607 114.142L45.5347 113.763L46.8186 113.368L48.1121 112.959L49.4146 112.536L50.7256 112.098L52.0447 111.647L53.3714 111.181L54.7052 110.701L56.0456 110.207L57.3922 109.7L58.7445 109.179L60.1019 108.645L61.464 108.098L62.8303 107.537L64.2003 106.964L65.5735 106.377L66.9495 105.779L68.3277 105.167L69.7076 104.544L71.0888 103.908L72.4707 103.261L73.8529 102.602L75.2349 101.932L76.6162 101.251L77.9963 100.558L79.3747 99.855L80.751 99.1413L82.1246 98.4173L83.4951 97.6834L84.862 96.9396L86.2248 96.1864L87.583 95.4238L88.9363 94.6523L90.284 93.872L91.6258 93.0833L92.9611 92.2864L94.2895 91.4816L95.6107 90.6691L96.924 89.8494L98.2291 89.0226L99.5254 88.189L100.813 87.3491L102.09 86.503L103.358 85.651L104.615 84.7936L105.862 83.931L107.097 83.0635L108.32 82.1915L109.532 81.3152L110.731 80.4351L111.916 79.5514L113.089 78.6644L114.248 77.7746L115.393 76.8822L116.523 75.9876L117.639 75.0911L118.74 74.1932L119.825 73.294L120.894 72.3941L121.947 71.4936L122.983 70.5931L124.002 69.6928L125.004 68.793L125.989 67.8943L126.956 66.9968L127.904 66.101L128.835 65.2072L129.746 64.3158L130.639 63.4271L131.512 62.5416L132.365 61.6595L133.199 60.7812L134.013 59.9071L134.806 59.0376L135.579 58.1729L136.331 57.3135L137.062 56.4597L137.772 55.6119L138.461 54.7704L139.128 53.9356L139.773 53.1079L140.396 52.2875L140.997 51.4748L141.576 50.6703L142.132 49.8741L142.666 49.0868L143.177 48.3085L143.665 47.5397L144.13 46.7807L144.572 46.0318L144.991 45.2933L145.387 44.5657L145.759 43.8491L146.108 43.144L146.434 42.4506L146.736 41.7692L147.014 41.1003L147.269 40.444L147.5 39.8007L147.707 39.1706L147.891 38.5542L148.051 37.9516L148.187 37.3631L148.3 36.7891L148.389 36.2298L148.455 35.6855L148.497 35.1564L148.515 34.6429L148.51 34.1451L148.481 33.6633L148.43 33.1978L148.354 32.7488L148.256 32.3165L148.135 31.9012L147.991 31.5031L147.824 31.1224L147.634 30.7594L147.422 30.4142L147.187 30.087L146.93 29.778L146.651 29.4874L146.35 29.2154L146.027 28.9622L145.683 28.7279L145.317 28.5127L144.93 28.3167L144.522 28.1401L144.093 27.9831L143.643 27.8457L143.173 27.7281L142.683 27.6303L142.173 27.5526L141.644 27.495L141.095 27.4576L140.526 27.4405L139.939 27.4438L139.334 27.4676L138.71 27.5118L138.068 27.5766L137.408 27.6621L136.731 27.7682L136.036 27.895L135.325 28.0425L134.597 28.2108L133.853 28.3998L133.093 28.6096L132.318 28.8401L131.527 29.0914L130.721 29.3634L129.901 29.6561L129.066 29.9694L128.218 30.3033L127.356 30.6578L126.481 31.0328L125.593 31.4282L124.692 31.844L123.78 32.28L122.856 32.7362L121.921 33.2125L120.974 33.7087L120.017 34.2248L119.05 34.7606L118.074 35.316L117.087 35.8908L116.092 36.485L115.089 37.0982L114.077 37.7305L113.057 38.3816L112.03 39.0513L110.996 39.7395L109.955 40.4459L108.908 41.1703L107.856 41.9126L106.798 42.6726L105.735 43.4499L104.667 44.2444L103.596 45.0559L102.521 45.8841L101.442 46.7287L100.36 47.5894L99.2766 48.4661L98.1906 49.3585L97.1029 50.2662L96.014 51.189L94.9243 52.1267L93.8341 53.0787L92.7439 54.045L91.6541 55.0252L90.5651 56.019L89.4772 57.026L88.391 58.0459L87.3067 59.0784L86.2249 60.1231L85.1458 61.1798L84.0699 62.248L82.9976 63.3274L81.9292 64.4176L80.8651 65.5183L79.8058 66.6291L78.7516 67.7496L77.7028 68.8795L76.6599 70.0183L75.6233 71.1657L74.5932 72.3213L73.57 73.4847L72.5542 74.6555L71.546 75.8332L70.5459 77.0175L69.554 78.208L68.5709 79.4042L67.5968 80.6058L66.6321 81.8123L65.6771 83.0232L64.7321 84.2382L63.7974 85.4569L62.8734 86.6787L61.9603 87.9033L61.0585 89.1302L60.1682 90.3591L59.2898 91.5893L58.4236 92.8206L57.5697 94.0525L56.7285 95.2845L55.9003 96.5161L55.0853 97.747L54.2838 98.9767L53.496 100.205L52.7222 101.431L51.9625 102.654L51.2174 103.874L50.4869 105.091L49.7712 106.304L49.0707 107.513L48.3855 108.717L47.7158 109.916L47.0618 111.109L46.4236 112.295L45.8015 113.476L45.1957 114.649L44.6062 115.815L44.0333 116.973L43.4771 118.122L42.9378 119.263L42.4154 120.395L41.9101 121.517L41.4221 122.629L40.9514 123.73L40.4982 124.821L40.0625 125.9L39.6445 126.968L39.2442 128.023L38.8617 129.066L38.4971 130.096L38.1504 131.113L37.8217 132.115L37.5111 133.104L37.2186 134.078L36.9442 135.038L36.688 135.982L36.4499 136.91L36.23 137.822L36.0283 138.718L35.8448 139.597L35.6794 140.46L35.5322 141.304L35.4031 142.131L35.2922 142.94L35.1993 143.73L35.1244 144.501L35.0675 145.254L35.0285 145.987L35.0073 146.7L35.0039 147.393L35.0181 148.066L35.05 148.718L35.0994 149.35L35.1661 149.96L35.2502 150.549L35.3514 151.116L35.4697 151.662L35.6049 152.185L35.7569 152.686L35.9256 153.164L36.1107 153.619L36.3123 154.052L36.53 154.461L36.7638 154.846L37.0134 155.208L37.2787 155.547L37.5596 155.861L37.8557 156.151L38.167 156.417L38.4932 156.658L38.8341 156.875L39.1895 157.067L39.5592 157.235L39.9431 157.377L40.3407 157.494L40.752 157.587L41.1767 157.654L41.6146 157.695L42.0654 157.712L42.5288 157.703L43.0046 157.669L43.4926 157.609L43.9925 157.524L44.5041 157.413L45.027 157.276L45.561 157.114L46.1058 156.927L46.6612 156.714L47.2269 156.476L47.8025 156.212L48.3878 155.923L48.9825 155.608L49.5864 155.268L50.199 154.903L50.8202 154.513L51.4495 154.098L52.0868 153.657L52.7317 153.192L53.3839 152.703L54.0431 152.189L54.709 151.65L55.3812 151.087L56.0595 150.5L56.7436 149.889L57.433 149.254L58.1276 148.595L58.827 147.914L59.5308 147.209L60.2388 146.48L60.9507 145.73L61.666 144.956L62.3846 144.16L63.106 143.342L63.83 142.503L64.5562 141.641L65.2843 140.759L66.014 139.855L66.745 138.931L67.477 137.986L68.2096 137.021L68.9426 136.036L69.6755 135.031L70.4082 134.008L71.1402 132.965L71.8714 131.904L72.6012 130.825L73.3296 129.728L74.0561 128.613L74.7805 127.481L75.5024 126.333L76.2216 125.168L76.9378 123.987L77.6506 122.79L78.3598 121.578L79.0651 120.352L79.7662 119.111L80.4628 117.856L81.1547 116.587L81.8415 115.306L82.5231 114.011L83.199 112.704L83.8692 111.386L84.5332 110.056L85.1909 108.715L85.8419 107.364L86.4861 106.002L87.1232 104.631L87.7529 103.251L88.3751 101.863L88.9895 100.466L89.5957 99.0611L90.1938 97.6494L90.7833 96.231L91.3641 94.8063L91.936 93.3759L92.4988 91.9403L93.0523 90.4999L93.5962 89.0553L94.1305 87.607L94.6548 86.1554L95.1691 84.7011L95.6731 83.2445L96.1667 81.7862L96.6498 80.3267L97.122 78.8665L97.5835 77.4061L98.0338 75.946L98.473 74.4867L98.9009 73.0288L99.3173 71.5726L99.7221 70.1189L100.115 68.668L100.497 67.2205L100.866 65.7769L101.223 64.3377L101.569 62.9034L101.902 61.4746L102.223 60.0516L102.531 58.635L102.827 57.2254L103.111 55.8232L103.382 54.4289L103.64 53.0431L103.886 51.6662L104.119 50.2986L104.339 48.941L104.547 47.5937L104.742 46.2573L104.923 44.9322L105.093 43.6189L105.249 42.3179L105.392 41.0297L105.523 39.7546L105.641 38.4933L105.746 37.246L105.838 36.0133L105.918 34.7957L105.985 33.5935L106.039 32.4072L106.081 31.2372L106.11 30.0839L106.127 28.9478L106.131 27.8293L106.123 26.7288L106.102 25.6467L106.07 24.5833L106.025 23.5391L105.968 22.5144L105.9 21.5097L105.819 20.5252L105.727 19.5615L105.623 18.6187L105.508 17.6972L105.381 16.7975L105.244 15.9198L105.095 15.0644L104.935 14.2317L104.764 13.422L104.583 12.6356L104.391 11.8727L104.189 11.1337L103.977 10.4188L103.755 9.72831L103.523 9.06249L103.281 8.42159L103.03 7.80584L102.769 7.21549L102.499 6.65075L102.221 6.11184L101.933 5.59897L101.638 5.11234L101.333 4.65214L101.021 4.21854L100.701 3.81172L100.373 3.43184L100.037 3.07905L99.6946 2.75349L99.3449 2.45529L98.9882 2.18458L98.625 1.94146L98.2554 1.72606L97.8797 1.53844L97.498 1.37871L97.1107 1.24693L96.7179 1.14318L96.3199 1.06749L95.917 1.01992L95.5093 1.0005L95.0972 1.00926L94.6808 1.04621L94.2605 1.11135L93.8364 1.20468L93.4088 1.32618L92.9781 1.47583L92.5443 1.6536L92.1078 1.85943L91.6689 2.09326L91.2277 2.35505L90.7846 2.6447L90.3398 2.96214L89.8935 3.30726L89.446 3.67997L88.9976 4.08015L88.5485 4.50767L88.0989 4.9624L87.6492 5.44419L87.1996 5.9529L86.7502 6.48835L86.3015 7.05038L85.8536 7.63879L85.4067 8.25341L84.9612 8.89402L84.5173 9.56042L84.0752 10.2524L83.6352 10.9697L83.1974 11.7121L82.7622 12.4794L82.3299 13.2712L81.9005 14.0874L81.4744 14.9276L81.0518 15.7917L80.6329 16.6792L80.218 17.5899L79.8073 18.5234L79.401 19.4796L78.9993 20.4579L78.6024 21.4582L78.2107 22.4801L77.8241 23.5231L77.4431 24.5871L77.0678 25.6715L76.6983 26.7761L76.335 27.9004L75.9779 29.0441L75.6273 30.2068L75.2834 31.3881L74.9463 32.5875L74.6163 33.8047L74.2934 35.0393L73.978 36.2907L73.6701 37.5587L73.3699 38.8428L73.0776 40.1424L72.7933 41.4572L72.5172 42.7868L72.2494 44.1306L71.9901 45.4882L71.7394 46.8591L71.4975 48.2429L71.2644 49.6391L71.0404 51.0472L70.8254 52.4666L70.6197 53.897L70.4233 55.3378L70.2363 56.7886L70.0589 58.2488L69.8911 59.7178L69.7331 61.1954L69.5849 62.6808L69.4465 64.1736L69.3181 65.6732L69.1998 67.1792L69.0915 68.6911L68.9934 70.2082L68.9054 71.7302L68.8278 73.2564L68.7604 74.7863L68.7033 76.3194L68.6566 77.8551L68.6202 79.393L68.5943 80.9325L68.5788 82.4731L68.5737 84.0141L68.579 85.5552L68.5947 87.0958L68.6208 88.6352L68.6573 90.1731L68.7043 91.7088L68.7615 93.2418L68.8291 94.7717L68.907 96.2978L68.9951 97.8196L69.0934 99.3367L69.2019 100.848L69.3204 102.354L69.449 103.854L69.5875 105.347L69.7359 106.832L69.8942 108.309L70.0621 109.778L70.2397 111.238L70.4268 112.689L70.6234 114.129L70.8293 115.56L71.0444 116.979L71.2686 118.387L71.5019 119.783L71.744 121.166L71.9948 122.537L72.2543 123.894L72.5222 125.238L72.7984 126.567L73.0829 127.882L73.3753 129.181L73.6757 130.465L73.9837 131.732L74.2993 132.984L74.6223 134.218L74.9524 135.435L75.2896 136.634L75.6337 137.815L75.9844 138.977L76.3416 140.12L76.7051 141.244L77.0746 142.349L77.4501 143.433L77.8312 144.496L78.2178 145.539L78.6097 146.56L79.0066 147.56L79.4084 148.538L79.8148 149.494L80.2256 150.427L80.6406 151.337L81.0595 152.224L81.4822 153.088L81.9084 153.928L82.3378 154.744L82.7702 155.535L83.2054 156.302L83.6432 157.044L84.0833 157.761L84.5254 158.452L84.9694 159.118L85.4149 159.758L85.8618 160.372L86.3097 160.96L86.7585 161.522L87.2078 162.057L87.6575 162.565L88.1072 163.046L88.5567 163.5L89.0058 163.927L89.4542 164.327L89.9017 164.699L90.348 165.044L90.7928 165.361L91.2359 165.65L91.677 165.911L92.1159 166.145L92.5523 166.35L92.986 166.527L93.4167 166.676L93.8442 166.797L94.2682 166.89L94.6885 166.955L95.1048 166.991L95.5168 166.999L95.9244 166.979L96.3273 166.931L96.7251 166.855L97.1178 166.751L97.5051 166.619L97.8866 166.458L98.2623 166.27L98.6317 166.054L98.9949 165.811L99.3514 165.539L99.701 165.241L100.044 164.915L100.379 164.561L100.707 164.181L101.027 163.774L101.339 163.34L101.643 162.879L101.939 162.392L102.226 161.878L102.504 161.339L102.774 160.774L103.034 160.183L103.285 159.567L103.527 158.925L103.759 158.259L103.981 157.568L104.193 156.853L104.395 156.114L104.587 155.35L104.768 154.563L104.938 153.753L105.098 152.92L105.246 152.064L105.384 151.186L105.51 150.286L105.625 149.364L105.729 148.421L105.821 147.457L105.901 146.472L105.969 145.467L106.026 144.442L106.07 143.397L106.103 142.334L106.123 141.251L106.131 140.15L106.126 139.031L106.109 137.895L106.08 136.741L106.038 135.571L105.984 134.385L105.917 133.182L105.837 131.964L105.744 130.731L105.639 129.484L105.521 128.222L105.39 126.947L105.246 125.658L105.09 124.357L104.92 123.044L104.738 121.718L104.543 120.382L104.335 119.034L104.115 117.676L103.882 116.309L103.636 114.932L103.377 113.545L103.106 112.151L102.822 110.749L102.526 109.339L102.217 107.922L101.896 106.499L101.563 105.07L101.217 103.636L100.859 102.197L100.49 100.753L100.108 99.3053L99.7148 97.8544L99.3097 96.4006L98.8931 94.9445L98.465 93.4865L98.0256 92.0272L97.5751 90.5671L97.1135 89.1067L96.641 87.6465L96.1577 86.187L95.6639 84.7287L95.1597 83.2722L94.6453 81.8179L94.1207 80.3664L93.5863 78.9181L93.0422 77.4735L92.4886 76.0333L91.9256 74.5977L91.3535 73.1674L90.7725 71.7429L90.1829 70.3246L89.5847 68.913L88.9782 67.5086L88.3637 66.1119L87.7415 64.7233L87.1116 63.3434L86.4743 61.9726L85.83 60.6114L85.1788 59.2602L84.5211 57.9195L83.8569 56.5898L83.1867 55.2715L82.5106 53.965L81.829 52.6708L81.1421 51.3893L80.4501 50.121L79.7534 48.8662L79.0522 47.6255L78.3468 46.3992L77.6376 45.1876L76.9247 43.9914L76.2085 42.8107L75.4892 41.646L74.7672 40.4978L74.0428 39.3663L73.3163 38.2519L72.5879 37.1551L71.8579 36.0761L71.1268 35.0154L70.3947 33.9732L69.6621 32.9499L68.9291 31.9458L68.1962 30.9613L67.4636 29.9966L66.7316 29.0521L66.0006 28.1281L65.2709 27.2248L64.5428 26.3426L63.8167 25.4817L63.0927 24.6424L62.3713 23.8249L61.6529 23.0295L60.9376 22.2564L60.2258 21.506L59.5179 20.7783L58.8141 20.0736L58.1148 19.3922L57.4203 18.7341L56.731 18.0997L56.047 17.4891L55.3688 16.9025L54.6967 16.34L54.0309 15.8017L53.3719 15.288L52.7198 14.7987L52.0751 14.3342L51.4379 13.8945L50.8087 13.4798L50.1877 13.09L49.5752 12.7254L48.9715 12.386L48.377 12.0719L47.7918 11.7831L47.2164 11.5197L46.6509 11.2818L46.0957 11.0693L45.5511 10.8823L45.0173 10.7209L44.4946 10.585L43.9833 10.4746L43.4836 10.3898L42.9958 10.3304L42.5202 10.2965L42.057 10.2881L41.6064 10.305L41.1688 10.3473L40.7444 10.4149L40.3333 10.5076L39.9359 10.6254L39.5523 10.7683L39.1829 10.9361L38.8277 11.1287L38.487 11.346L38.1611 11.5878L37.8501 11.8541L37.5543 12.1447L37.2737 12.4594L37.0087 12.798L36.7593 13.1605L36.5259 13.5466L36.3084 13.9561L36.1072 14.3888L35.9223 14.8446L35.754 15.3232L35.6023 15.8245L35.4674 16.3481L35.3494 16.8938L35.2485 17.4615L35.1647 18.0508L35.0983 18.6615L35.0493 19.2933L35.0177 19.946L35.0038 20.6193L35.0075 21.3129L35.029 22.0265L35.0684 22.7598L35.1256 23.5125L35.2008 24.2844L35.2941 25.075L35.4054 25.884L35.5347 26.7112L35.6823 27.5561L35.848 28.4185L36.0318 29.298L36.2339 30.1942L36.4541 31.1069L36.6925 32.0355L36.9491 32.9798L37.2238 33.9394L37.5167 34.9138L37.8276 35.9028L38.1566 36.9059L38.5036 37.9228L38.8685 38.953L39.2513 39.9961L39.652 41.0518L40.0703 42.1196L40.5063 43.1991L40.9599 44.2899L41.4309 45.3916L41.9192 46.5038L42.4248 47.626L42.9475 48.7578L43.4872 49.8988L44.0437 51.0486L44.6169 52.2066L45.2067 53.3726L45.8128 54.546L46.4352 55.7264L47.0736 56.9133L47.728 58.1064L48.3979 59.3051L49.0834 60.5091L49.7843 61.7179L50.5001 62.931L51.2309 64.1479L51.9764 65.3684L52.7362 66.5918L53.5103 67.8178L54.2984 69.0458L55.1002 70.2755L55.9154 71.5064L56.7439 72.7381L57.5853 73.9701L58.4394 75.202L59.3059 76.4332L60.1845 77.6635L61.075 78.8923L61.977 80.1192L62.8903 81.3437L63.8145 82.5655L64.7494 83.7841L65.6945 84.999L66.6497 86.2099L67.6146 87.4163L68.5889 88.6177L69.5722 89.8139L70.5642 91.0042L71.5645 92.1884L72.5728 93.3661L73.5888 94.5367L74.612 95.6999L75.6423 96.8554L76.679 98.0026L77.7221 99.1413L78.7709 100.271L79.8252 101.391L80.8846 102.502L81.9487 103.602L83.0172 104.693L84.0896 105.772L85.1656 106.84L86.2447 107.896L87.3266 108.941L88.4109 109.973L89.4972 110.993L90.585 111.999L91.6741 112.993L92.7639 113.973L93.8541 114.939L94.9443 115.891L96.034 116.828L97.1229 117.751L98.2105 118.658L99.2965 119.55L100.38 120.426L101.462 121.287L102.54 122.131L103.615 122.959L104.687 123.77L105.754 124.564L106.817 125.341L107.875 126.101L108.927 126.843L109.974 127.567L111.015 128.273L112.049 128.961L113.076 129.631L114.095 130.281L115.107 130.913L116.111 131.526L117.106 132.12L118.092 132.694L119.068 133.249L120.035 133.785L120.992 134.301L121.938 134.796L122.873 135.272L123.797 135.728L124.709 136.164L125.609 136.579L126.497 136.974L127.372 137.349L128.233 137.703L129.082 138.037L129.916 138.349L130.736 138.642L131.541 138.913L132.332 139.164L133.107 139.394L133.867 139.604L134.611 139.792L135.338 139.96L136.049 140.108L136.743 140.234L137.42 140.34L138.08 140.425L138.721 140.489L139.345 140.533L139.95 140.556L140.537 140.559L141.105 140.542L141.654 140.504L142.183 140.446L142.692 140.368L143.182 140.27L143.652 140.152L144.101 140.014L144.529 139.857L144.937 139.68L145.324 139.484L145.689 139.268L146.033 139.033L146.356 138.78L146.656 138.507L146.935 138.216L147.192 137.907L147.426 137.58L147.638 137.234L147.827 136.871L147.994 136.49L148.137 136.091L148.258 135.676L148.356 135.243L148.431 134.794L148.482 134.328L148.51 133.846L148.515 133.348L148.496 132.834L148.454 132.305L148.388 131.76L148.298 131.2L148.185 130.626L148.048 130.037L147.888 129.435L147.704 128.818L147.496 128.188L147.264 127.544L147.009 126.888L146.73 126.218L146.428 125.537L146.102 124.843L145.753 124.138L145.38 123.421L144.984 122.693L144.564 121.955L144.122 121.205L143.656 120.446L143.167 119.677L142.656 118.899L142.122 118.111L141.565 117.315L140.986 116.51L140.385 115.697L139.761 114.877L139.115 114.049L138.448 113.214L137.759 112.373L137.049 111.525L136.317 110.671L135.565 109.811L134.792 108.946L133.998 108.077L133.184 107.203L132.35 106.324L131.496 105.442L130.622 104.557L129.73 103.668L128.818 102.776L127.887 101.883L126.938 100.987L125.971 100.089L124.986 99.1904L123.984 98.2907L122.964 97.3904L121.927 96.4898L120.874 95.5894L119.805 94.6894L118.72 93.7903L117.619 92.8923L116.503 91.9959L115.372 91.1014L114.227 90.209L113.068 89.3192L111.895 88.4324L110.709 87.5487L109.51 86.6686L108.298 85.7924L107.074 84.9205L105.839 84.0531L104.592 83.1906L103.335 82.3332L102.067 81.4814L100.789 80.6354L99.5017 79.7956L98.2052 78.9621L96.8999 78.1355L95.5865 77.3158L94.2652 76.5035L92.9366 75.6989L91.6012 74.9021L90.2593 74.1135L88.9115 73.3334L87.5581 72.562L86.1998 71.7997L84.8369 71.0466L83.4699 70.303L82.0994 69.5692L80.7257 68.8455L79.3494 68.132L77.971 67.429L76.5909 66.7368L75.2096 66.0555L73.8276 65.3855L72.4453 64.7268L71.0634 64.0797L69.6822 63.4445L68.3024 62.8213L66.9242 62.2103L65.5483 61.6117L64.1751 61.0257L62.8052 60.4525L61.4389 59.8922L60.0769 59.3449L58.7196 58.811L57.3674 58.2904L56.0209 57.7834L54.6806 57.2901L53.3469 56.8106L52.0204 56.345L50.7014 55.8935L49.3905 55.4562L48.0882 55.0331L46.795 54.6245L45.5112 54.2303L44.2374 53.8507L42.9741 53.4858L41.7216 53.1356L40.4806 52.8001L39.2513 52.4796L38.0344 52.1739L36.8302 51.8832L35.6391 51.6075L34.4617 51.3468L33.2983 51.1012L32.1495 50.8707L31.0155 50.6553L29.8969 50.455L28.794 50.2698L27.7074 50.0997L26.6373 49.9447L25.5842 49.8048L24.5485 49.68L23.5305 49.5702L22.5308 49.4754L21.5495 49.3955L20.5873 49.3306L19.6442 49.2805L18.7209 49.2452L17.8175 49.2246L16.9346 49.2186L16.0723 49.2273L15.231 49.2504L14.4111 49.2879L13.6129 49.3397L12.8367 49.4057L12.0828 49.4858L11.3514 49.5799L10.643 49.6878L9.95775 49.8095L9.29593 49.9447L8.65783 50.0934L8.0437 50.2555L7.45379 50.4307L6.88835 50.6189L6.3476 50.82L5.83177 51.0337L5.34108 51.2601L4.87574 51.4987L4.43594 51.7496L4.02188 52.0125L3.63373 52.2871L3.27167 52.5734L2.93586 52.8712L2.62645 53.1802L2.34359 53.5002L2.08741 53.831L1.85804 54.1724L1.65559 54.5243L1.48017 54.8863L1.33187 55.2583L1.2108 55.6399L1.11701 56.0311L1.05058 56.4316L1.01158 56.8411L1.00004 57.2594L1.016 57.6862L1.0595 58.1213L1.13056 58.5645L1.22918 59.0155L1.35536 59.474L1.50909 59.9399L1.69036 60.4127L1.89913 60.8924L2.13537 61.3786L2.39901 61.871L2.69002 62.3694L3.0083 62.8735L3.35379 63.3831L3.7264 63.8979L4.12603 64.4176L4.55256 64.9419L5.00589 65.4706L5.48588 66.0033L5.99239 66.5399L6.52528 67.08L7.0844 67.6234L7.66957 68.1698L8.28062 68.7188L8.91736 69.2703L9.5796 69.824L10.2671 70.3795L10.9798 70.9366L11.7172 71.4951L12.4794 72.0545L13.2659 72.6148L14.0765 73.1756L14.911 73.7365L15.7692 74.2974L16.6507 74.858L17.5552 75.418L18.4825 75.9772L19.4323 76.5352L20.4042 77.0917L21.398 77.6467L22.4132 78.1997L23.4497 78.7505L24.507 79.2988L25.5848 79.8445L26.6827 80.3872L27.8003 80.9267L28.9374 81.4627L30.0935 81.995L31.2682 82.5234L32.4612 83.0475L33.672 83.5673L34.9003 84.0823L36.1455 84.5925L37.4074 85.0975L38.6855 85.5972L39.9793 86.0912L41.2884 86.5795L42.6124 87.0618L43.9508 87.5378L45.3032 88.0074L46.669 88.4704L48.048 88.9265L49.4394 89.3755L50.843 89.8174L52.2582 90.2518L53.6846 90.6786L55.1216 91.0976L56.5687 91.5087L58.0256 91.9117L59.4915 92.3063L60.9662 92.6925L62.449 93.0701L63.9394 93.4389L65.4369 93.7988L66.9411 94.1497L68.4514 94.4913L69.9672 94.8236L71.4881 95.1465L73.0136 95.4598L74.543 95.7635L76.0759 96.0573L77.6117 96.3412L79.15 96.6151L80.6901 96.8789L82.2315 97.1325L83.7738 97.3758L85.3163 97.6087L86.8586 97.8312L88.4001 98.0433L89.9402 98.2447L91.4784 98.4355L93.0143 98.6156L94.5472 98.785L96.0766 98.9436L97.602 99.0915L99.1229 99.2285L100.639 99.3546L102.149 99.4698L103.653 99.5742L105.15 99.6676L106.641 99.7502L108.123 99.8218L109.598 99.8826L111.063 99.9325L112.519 99.9715L113.966 99.9997L115.402 100.017L116.828 100.024L118.242 100.02L119.645 100.005L121.035 99.9793L122.412 99.9433L123.777 99.8968L125.127 99.8399L126.464 99.7725L127.785 99.6949L129.092 99.6071L130.383 99.5092L131.658 99.4013L132.917 99.2834L134.158 99.1557L135.383 99.0183L136.589 98.8713L137.778 98.7148L138.947 98.549L140.098 98.3739L141.229 98.1898L142.34 97.9966L143.431 97.7947L144.502 97.584L145.551 97.3649L146.579 97.1374L147.586 96.9016L148.57 96.6578L149.532 96.4061L150.471 96.1467L151.387 95.8798L152.279 95.6055L153.148 95.324L153.993 95.0355L154.813 94.7402L155.609 94.4382L156.38 94.1299L157.126 93.8153L157.846 93.4946L158.54 93.1682L159.209 92.8361L159.851 92.4986L160.467 92.1559L161.056 91.8082L161.619 91.4558L162.154 91.0988L162.662 90.7374L163.143 90.372L163.596 90.0027L164.021 89.6297L164.419 89.2533L164.788 88.8737L165.13 88.4912L165.443 88.1059L165.727 87.7182L165.983 87.3281L166.211 86.9361L166.41 86.5423L166.58 86.1469L166.721 85.7503L166.834 85.3525L166.917 84.954L166.972 84.5549L166.998 84.1554L166.995 83.7559L166.962 83.3564L166.901 82.9574L166.811 82.5591L166.692 82.1615L166.545 81.7652L166.368 81.3701L166.163 80.9767L165.929 80.5851L165.667 80.1955L165.376 79.8083L165.056 79.4236L164.709 79.0417L164.333 78.6628L163.929 78.2871L163.498 77.915L163.038 77.5465L162.552 77.1819L162.037 76.8216L161.496 76.4656L160.928 76.1141L160.332 75.7675L159.711 75.426L159.063 75.0897L158.388 74.7588L157.688 74.4337L156.962 74.1143L156.211 73.8011L155.435 73.4942L154.633 73.1937L153.808 72.8998L152.957 72.6129L152.083 72.333L151.186 72.0603L150.264 71.795L149.32 71.5373L148.353 71.2873L147.364 71.0453L146.353 70.8114L145.32 70.5857L144.266 70.3684L143.191 70.1597L142.095 69.9597L140.98 69.7685L139.844 69.5864L138.689 69.4134L137.515 69.2496L136.323 69.0952L135.112 68.9503L133.884 68.8151L132.639 68.6895L131.377 68.5739L130.098 68.4682L128.803 68.3725L127.493 68.2869L126.168 68.2116L124.829 68.1466L123.475 68.0919L122.108 68.0478L120.727 68.0141L119.334 67.991L117.929 67.9786L116.512 67.9769L115.084 67.9859L113.646 68.0056L112.197 68.0362L110.738 68.0776L109.271 68.1299L107.795 68.1931L106.31 68.2672L104.819 68.3521L103.32 68.448L101.814 68.5548L100.303 68.6724L98.7856 68.801L97.2637 68.9404L95.7374 69.0906L94.2071 69.2516L92.6735 69.4234L91.1371 69.6059L89.5984 69.7991L88.0579 70.0029L86.5162 70.2172L84.9738 70.4421L83.4313 70.6773L81.8892 70.9229L80.348 71.1788L78.8082 71.4448L77.2705 71.721L75.7352 72.0071L74.2031 72.3031L72.6745 72.6089L71.15 72.9243L69.6302 73.2493L68.1156 73.5837L66.6066 73.9274L65.1038 74.2803L63.6078 74.6422L62.119 75.013L60.638 75.3925L59.1653 75.7806L57.7013 76.1771L56.2466 76.5818L54.8016 76.9947L53.367 77.4155L51.943 77.844L50.5304 78.2801L49.1294 78.7235L47.7407 79.1742L46.3646 79.6318L45.0017 80.0963L43.6524 80.5673L42.3171 81.0447L40.9964 81.5284L39.6907 82.0179L38.4003 82.5133L37.1258 83.0141L35.8676 83.5203L34.6261 84.0316L33.4017 84.5477L32.1948 85.0684L31.0058 85.5936L29.8352 86.1228L28.6833 86.656L27.5505 87.1928L26.4372 87.733L25.3437 88.2764L24.2704 88.8227L23.2177 89.3716L22.186 89.9229L21.1754 90.4764L20.1865 91.0317L19.2195 91.5886L18.2747 92.1469L17.3524 92.7062L16.4529 93.2664L15.5766 93.8271L14.7237 94.388L13.8944 94.949L13.0891 95.5096L12.308 96.0697L11.5514 96.629L10.8194 97.1872L10.1123 97.744L9.43037 98.2991L8.77377 98.8523L8.14271 99.4033L7.53739 99.9518L6.95799 100.497L6.40469 101.04L5.87764 101.58L5.377 102.115L4.90292 102.647L4.45554 103.175L4.03497 103.698L3.64133 104.217L3.27474 104.73L2.93528 105.239L2.62304 105.742L2.33811 106.239L2.08054 106.73L1.8504 107.215L1.64774 107.693L1.47258 108.164L1.32496 108.628L1.2049 109.085L1.1124 109.535L1.04747 109.976L1.01008 110.409L1.00022 110.834L1.01787 111.251L1.06297 111.658L1.13547 112.056L1.23533 112.446L1.36245 112.825L1.51678 113.195L1.69821 113.555L1.90664 113.904L2.14198 114.243L2.4041 114.572L2.69286 114.889L3.00815 115.196L3.3498 115.491L3.71767 115.775L4.11159 116.047L4.53138 116.307L4.97687 116.555L5.44785 116.791L5.94414 117.015L6.46552 117.226L7.01177 117.424L7.58267 117.609L8.17798 117.782L8.79745 117.941L9.44084 118.086L10.1079 118.219L10.7983 118.337L11.5119 118.442L12.2482 118.533L13.0071 118.61L13.7883 118.673L14.5913 118.722L15.416 118.756L16.2619 118.776L17.1288 118.781L18.0164 118.772L18.9242 118.748L19.8519 118.71L20.7993 118.656L21.7658 118.588L22.7512 118.505L23.755 118.407L24.7769 118.294L25.8165 118.165L26.8734 118.022L27.9472 117.864L29.0375 117.69L30.1439 117.502L31.266 117.298L32.4033 117.079L33.5554 116.846L34.7219 116.597L35.9024 116.333L37.0964 116.054L38.3035 115.759L39.5232 115.451L40.7551 115.127L41.9988 114.788L43.2537 114.434L44.5194 114.066L45.7954 113.683L47.0813 113.286L48.3766 112.874L49.6809 112.448L50.9936 112.007L52.3143 111.553L53.6425 111.084L54.9777 110.602L56.3194 110.105L57.6672 109.595L59.0205 109.072L60.3789 108.535L61.7419 107.985L63.109 107.421L64.4798 106.845L65.8536 106.256L67.23 105.655L68.6086 105.041L69.9888 104.415L71.3702 103.778L72.7522 103.128L74.1344 102.467L75.5163 101.794L76.8974 101.11L78.2772 100.416L79.6552 99.7104L81.031 98.9947L82.404 98.2687L83.7738 97.5327L85.1399 96.787L86.5018 96.0318L87.8591 95.2674L89.2112 94.4941L90.5578 93.7121L91.8983 92.9217L93.2322 92.1231L94.5592 91.3167L95.8788 90.5028L97.1905 89.6815L98.4938 88.8533L99.7884 88.0185L101.074 87.1772L102.349 86.3299L103.615 85.4768L104.87 84.6183L106.114 83.7547L107.347 82.8863L108.568 82.0133L109.777 81.1363L110.973 80.2554L112.156 79.371L113.326 78.4834L114.482 77.593L115.624 76.7002L116.752 75.8052L117.865 74.9084L118.962 74.0101L120.044 73.1108L121.109 72.2107L122.159 71.3102L123.192 70.4097L124.208 69.5094L125.206 68.6099L126.187 67.7113L127.15 66.8142L128.095 65.9188L129.022 65.0254L129.929 64.1346L130.818 63.2465L131.687 62.3616L132.537 61.4803L133.366 60.6028L134.176 59.7296L134.965 58.861L135.734 57.9974L136.482 57.1392L137.209 56.2866L137.914 55.44L138.598 54.5999L139.261 53.7665L139.901 52.9402L140.52 52.1213L141.117 51.3103L141.691 50.5074L142.242 49.713L142.772 48.9275L143.278 48.1511L143.761 47.3843L144.222 46.6273L144.659 45.8805L145.074 45.1442L145.465 44.4188L145.832 43.7045L146.176 43.0018L146.497 42.3108L146.794 41.632L147.068 40.9655L147.318 40.3119L147.544 39.6712L147.747 39.044L147.926 38.4303L148.081 37.8306L148.212 37.245L148.32 36.674L148.404 36.1177L148.465 35.5765L148.502 35.0506L148.516 34.5402L148.506 34.0456L148.473 33.5671L148.416 33.105L148.336 32.6594L148.233 32.2305L148.107 31.8187L147.959 31.4242L147.787 31.0471L147.593 30.6876L147.376 30.346L147.137 30.0225L146.875 29.7173L146.591 29.4305L146.286 29.1623L145.959 28.9129L145.61 28.6825L145.24 28.4712L144.848 28.2792L144.436 28.1066L144.003 27.9535L143.549 27.8201L143.075 27.7065L142.581 27.6129L142.067 27.5393L141.533 27.4858L140.98 27.4525L140.408 27.4396L139.818 27.447L139.208 27.4749L138.581 27.5233L137.935 27.5923L137.271 27.682L136.591 27.7923L135.893 27.9233L135.178 28.0751L134.447 28.2476L133.7 28.4408L132.936 28.6548L132.158 28.8896L131.364 29.1451L130.555 29.4213L129.732 29.7182L128.894 30.0357L128.043 30.3739L127.179 30.7325L126.301 31.1117L125.41 31.5113L124.508 31.9312L123.593 32.3713L122.666 32.8316L121.729 33.3119L120.78 33.8122L119.821 34.3323L118.852 34.8721L117.873 35.4315L116.885 36.0103L115.889 36.6083L114.883 37.2255L113.87 37.8616L112.848 38.5165L111.82 39.19L110.784 39.8819L109.742 40.592L108.694 41.3201L107.641 42.066L106.582 42.8295L105.518 43.6104L104.449 44.4084L103.377 45.2232L102.301 46.0548L101.222 46.9027L100.14 47.7667L99.0555 48.6466L97.9691 49.5421L96.8812 50.453L95.7921 51.3788L94.7022 52.3194L93.612 53.2744L92.5219 54.2436L91.4322 55.2265L90.3434 56.223L89.2558 57.2327L88.17 58.2552L87.0862 59.2902L86.0048 60.3374L84.9264 61.3964L83.8512 62.4669L82.7796 63.5485L81.7121 64.6409L80.649 65.7437L79.5907 66.8565L78.5375 67.979L77.4899 69.1107L76.4483 70.2514L75.4129 71.4005L74.3842 72.5577L73.3625 73.7226L72.3482 74.8948L71.3417 76.0739L70.3432 77.2595L69.3531 78.4512L68.3718 79.6485L67.3996 80.8511L66.4368 82.0585L65.4838 83.2704L64.5409 84.4861L63.6083 85.7055L62.6865 86.9279L61.7757 88.153L60.8762 89.3804L59.9884 90.6095L59.1124 91.8401L58.2486 93.0715L57.3973 94.3034L56.5588 95.5354L55.7332 96.7669L54.921 97.9976L54.1222 99.227L53.3372 100.455L52.5663 101.68L51.8096 102.903L51.0674 104.123L50.3399 105.339L49.6273 106.551L48.9299 107.759L48.2478 108.961L47.5813 110.159L46.9305 111.351L46.2956 112.536L45.6768 113.715L45.0743 114.887L44.4882 116.051L43.9187 117.207L43.3659 118.355L42.83 119.494L42.3111 120.624L41.8093 121.744L41.3248 122.854L40.8577 123.953L40.408 125.042L39.9759 126.118L39.5615 127.184L39.1648 128.237L38.7859 129.277L38.425 130.304L38.082 131.318L37.757 132.318L37.4501 133.304L37.1612 134.275L36.8905 135.231L36.638 136.172L36.4036 137.097L36.1874 138.006L35.9894 138.899L35.8096 139.774L35.6479 140.633L35.5045 141.474L35.3791 142.297L35.2718 143.102L35.1826 143.889L35.1114 144.656L35.0581 145.405L35.0227 146.134L35.0052 146.843L35.0053 147.532L35.0232 148.201L35.0586 148.849L35.1116 149.476L35.1818 150.082L35.2694 150.666L35.3741 151.229L35.4959 151.77L35.6345 152.289L35.7899 152.785L35.962 153.259L36.1505 153.709L36.3553 154.137L36.5763 154.541L36.8133 154.922L37.0662 155.279L37.3347 155.613L37.6186 155.922L37.9179 156.207L38.2322 156.468L38.5614 156.704L38.9053 156.916L39.2637 157.103L39.6363 157.266L40.0229 157.403L40.4234 157.515L40.8375 157.602L41.2649 157.664L41.7054 157.701L42.1587 157.712L42.6247 157.698L43.103 157.659L43.5935 157.594L44.0958 157.503L44.6097 157.387L45.1349 157.245L45.6711 157.078L46.2181 156.886L46.7756 156.668L47.3433 156.424L47.9209 156.155L48.5082 155.861L49.1048 155.541L49.7104 155.196L50.3248 154.826L50.9477 154.43L51.5787 154.01L52.2176 153.565L52.864 153.095L53.5176 152.6L54.1782 152.081L54.8454 151.537L55.5189 150.969L56.1984 150.377L56.8836 149.761L57.5741 149.122L58.2697 148.459L58.97 147.772L59.6747 147.062L60.3835 146.329L61.0961 145.574L61.8121 144.796L62.5313 143.995L63.2532 143.173L63.9777 142.329L64.7043 141.463L65.4328 140.576L66.1628 139.668L66.8941 138.74L67.6262 137.791L68.3589 136.822L69.0919 135.833L69.8248 134.825L70.5573 133.797L71.2892 132.751L72.0201 131.686L72.7497 130.603L73.4777 129.502L74.2039 128.384L74.9278 127.249L75.6492 126.097L76.3678 124.928L77.0833 123.744L77.7954 122.545L78.5038 121.33L79.2083 120.1L79.9085 118.856L80.6042 117.599L81.295 116.327L81.9808 115.043L82.6612 113.746L83.336 112.437L84.0049 111.116L84.6677 109.784L85.324 108.441L85.9737 107.087L86.6165 105.724L87.2521 104.351L87.8803 102.969L88.5009 101.579L89.1136 100.18L89.7182 98.7742L90.3145 97.361L90.9023 95.9413L91.4813 94.5154L92.0514 93.0839L92.6123 91.6473L93.1638 90.206L93.7058 88.7606L94.2381 87.3116L94.7604 85.8594L95.2726 84.4046L95.7745 82.9476L96.266 81.489L96.7468 80.0293L97.2169 78.569L97.6761 77.1086L98.1242 75.6487L98.5611 74.1896L98.9866 72.732L99.4007 71.2764L99.8031 69.8232L100.194 68.3729L100.573 66.9262L100.94 65.4834L101.295 64.0452L101.638 62.612L101.968 61.1842L102.287 59.7625L102.593 58.3474L102.886 56.9392L103.167 55.5386L103.435 54.146L103.691 52.7619L103.934 51.3868L104.165 50.0213L104.383 48.6657L104.587 47.3206L104.78 45.9865L104.959 44.6637L105.125 43.3529L105.279 42.0545L105.42 40.7689L105.548 39.4966L105.663 38.2381L105.766 36.9938L105.856 35.7641L105.933 34.5496L105.997 33.3506L106.049 32.1675L106.088 31.0009L106.114 29.8511L106.128 28.7186L106.13 27.6037L106.119 26.5069L106.097 25.4285L106.061 24.369L106.014 23.3288L105.955 22.3082L105.884 21.3075L105.801 20.3273L105.707 19.3677L105.601 18.4293L105.483 17.5122L105.354 16.6169L105.214 15.7437L105.063 14.893L104.901 14.0649L104.728 13.2599L104.545 12.4783L104.351 11.7202L104.147 10.9861L103.933 10.2762L103.708 9.59069L103.474 8.92993L103.231 8.29413L102.977 7.68354L102.715 7.09838L102.443 6.53888L102.163 6.00527L101.874 5.49773L101.576 5.01646L101.27 4.56167L100.956 4.13351L100.635 3.73216L100.305 3.35779L99.9682 3.01053L99.624 2.69053L99.2728 2.39792L98.9148 2.13282L98.5502 1.89534L98.1794 1.68559L97.8024 1.50365L97.4196 1.3496L97.0311 1.22353L96.6372 1.12548L96.2382 1.05552L95.8343 1.01368L95.4257 1L95.0127 1.0145L94.5955 1.05719L94.1744 1.12807L93.7496 1.22714L93.3214 1.35438L92.89 1.50976L92.4556 1.69324L92.0186 1.90478L91.5792 2.14432L91.1376 2.41179L90.6941 2.7071L90.249 3.03019L89.8025 3.38094L89.3548 3.75926L88.9062 4.16501L88.457 4.59808L88.0074 5.05834L87.5576 5.54563L87.108 6.05979L86.6588 6.60067L86.2102 7.16809L85.7625 7.76186L85.3159 8.38178L84.8707 9.02767L84.4271 9.69929L83.9854 10.3964L83.5458 11.1189L83.1086 11.8664L82.6739 12.6387L82.2422 13.4355L81.8134 14.2566L81.388 15.1017L80.9662 15.9705L80.5481 16.8628L80.134 17.7782L79.7242 18.7164L79.3188 19.677L78.9181 20.6599L78.5222 21.6646L78.1315 22.6908L77.7461 23.7382L77.3662 24.8063L76.992 25.8949L76.6238 27.0035L76.2617 28.1318L75.906 29.2794L75.5567 30.4459L75.2142 31.6309L74.8785 32.834L74.5499 34.0548L74.2286 35.2928L73.9146 36.5477L73.6083 37.819L73.3097 39.1062L73.019 40.409L72.7364 41.7269L72.462 43.0593L72.1959 44.406L71.9384 45.7664L71.6895 47.1399L71.4493 48.5263L71.2181 49.9249L70.9958 51.3354L70.7827 52.7571L70.5789 54.1896L70.3844 55.6325L70.1994 57.0852L70.024 58.5473L69.8582 60.0181L69.7021 61.4973L69.5559 62.9842L69.4196 64.4785L69.2932 65.9795L69.1769 67.4867L69.0707 68.9997L68.9746 70.5178L68.8888 72.0407L68.8132 73.5677L68.7479 75.0983L68.693 76.6319L68.6483 78.1682L68.6141 79.7065L68.5903 81.2462L68.5769 82.7869L68.5739 84.328L68.5813 85.869L68.5992 87.4094L68.6274 88.9486L68.6661 90.4861L68.7151 92.0213L68.7744 93.5537L68.8441 95.0828L68.9241 96.6081L69.0143 98.129L69.1147 99.6451L69.2252 101.156L69.3458 102.66L69.4764 104.158L69.6169 105.65L69.7674 107.133L69.9276 108.609L70.0975 110.076L70.277 111.534L70.4661 112.983L70.6645 114.421L70.8723 115.849L71.0893 117.266L71.3154 118.672L71.5505 120.065L71.7943 121.446L72.047 122.814L72.3082 124.169L72.5778 125.51L72.8557 126.836L73.1418 128.147L73.4359 129.444L73.7378 130.724L74.0474 131.989L74.3645 133.236L74.6889 134.467L75.0205 135.68L75.3592 136.876L75.7046 138.053L76.0566 139.211L76.4151 140.351L76.7798 141.471L77.1506 142.571L77.5272 143.651L77.9095 144.71L78.2972 145.749L78.6901 146.766L79.0881 147.761L79.4908 148.735L79.8981 149.686L80.3098 150.614L80.7256 151.52L81.1453 152.402L81.5687 153.261L81.9956 154.096L82.4256 154.907L82.8586 155.693L83.2944 156.455L83.7327 157.192L84.1732 157.903L84.6157 158.59L85.06 159.25L85.5059 159.885L85.9529 160.494L86.4011 161.077L86.85 161.633L87.2994 162.162L87.7491 162.665L88.1988 163.141L88.6483 163.59L89.0972 164.011L89.5455 164.405L89.9927 164.772L90.4387 165.111L90.8832 165.422L91.3259 165.705L91.7666 165.961L92.205 166.189L92.6409 166.388L93.074 166.56L93.5041 166.703L93.9309 166.818L94.3541 166.906L94.7736 166.964L95.189 166.995L95.6002 166.998L96.0068 166.972L96.4087 166.918L96.8056 166.836L97.1971 166.726L97.5833 166.588L97.9636 166.422L98.338 166.228L98.7062 166.007L99.068 165.758L99.4231 165.481L99.7714 165.177L100.113 164.845L100.446 164.486L100.773 164.1L101.091 163.687L101.402 163.248L101.704 162.782L101.998 162.289L102.283 161.771L102.56 161.226L102.828 160.656L103.086 160.06L103.335 159.438L103.575 158.792L103.805 158.12L104.025 157.425L104.235 156.704L104.435 155.96L104.624 155.192L104.803 154.4L104.971 153.585L105.129 152.748L105.275 151.887L105.41 151.005L105.535 150.1L105.647 149.174L105.748 148.226L105.838 147.258L105.916 146.269L105.982 145.26L106.036 144.231L106.078 143.182L106.108 142.115L106.125 141.028L106.131 139.924L106.124 138.801L106.105 137.661L106.073 136.504L106.028 135.331L105.971 134.141L105.901 132.935L105.819 131.714L105.724 130.478L105.616 129.228L105.495 127.963L105.362 126.685L105.215 125.394L105.056 124.09L104.884 122.775L104.699 121.447L104.502 120.108L104.291 118.758L104.068 117.399L103.832 116.029L103.584 114.65L103.323 113.262L103.049 111.866L102.763 110.462L102.464 109.051L102.153 107.633L101.829 106.209L101.493 104.779L101.145 103.343L100.785 101.903L100.413 100.458L100.029 99.0101L99.6332 97.5585L99.2258 96.1042L98.8068 94.6476L98.3764 93.1894L97.9348 91.7299L97.4819 90.2696L97.0181 88.8092L96.5434 87.3491L96.058 85.8898L95.5621 84.4319L95.0558 82.9758L94.5392 81.522L94.0127 80.0711L93.4763 78.6235L92.9302 77.1798L92.3746 75.7405L91.8098 74.306L91.2359 72.8768L90.6531 71.4535L90.0617 70.0365L89.4618 68.6263L88.8537 67.2235L88.2376 65.8284L87.6138 64.4416L86.9824 63.0635L86.3437 61.6946L85.6979 60.3354L85.0454 58.9863L84.3863 57.6478L83.7209 56.3203L83.0495 55.0044L82.3722 53.7004L81.6895 52.4087L81.0015 51.1299L80.3086 49.8643L79.6109 48.6124L78.9089 47.3745L78.2027 46.1512L77.4927 44.9427L76.7791 43.7496L76.0622 42.5722L75.3424 41.4108L74.6199 40.266L73.895 39.1379L73.168 38.0271L72.4393 36.9339L71.7091 35.8586L70.9777 34.8016L70.2455 33.7632L69.5128 32.7438L68.7798 31.7437L68.0469 30.7632L67.3144 29.8026L66.5826 28.8623L65.8519 27.9424L65.1225 27.0434L64.3948 26.1655L63.669 25.309L62.9456 24.4741L62.2248 23.6611L61.5069 22.8702L60.7923 22.1018L60.0813 21.3559L59.3742 20.6329L58.6713 19.9329L57.973 19.2562L57.2795 18.603L56.5912 17.9734L55.9084 17.3677L55.2314 16.7859L54.5606 16.2284L53.8962 15.6951L53.2385 15.1863L52.5879 14.7021L51.9447 14.2426L51.3091 13.808L50.6815 13.3983L50.0622 13.0137L49.4515 12.6542L48.8497 12.32L48.257 12.011L47.6738 11.7274L47.1004 11.4692L46.537 11.2364L45.9839 11.0291L45.4415 10.8474L44.9099 10.6911L44.3895 10.5604L43.8805 10.4553L43.3832 10.3756L42.8979 10.3214L42.4248 10.2927L41.9642 10.2895L41.5162 10.3116L41.0813 10.359L40.6595 10.4317L40.2513 10.5296L39.8566 10.6525L39.4759 10.8005L39.1093 10.9733L38.7571 11.171L38.4194 11.3933L38.0966 11.6401L37.7886 11.9113L37.4959 12.2068L37.2185 12.5264L36.9566 12.8699L36.7105 13.2372L36.4803 13.6281L36.2661 14.0423L36.0682 14.4798L35.8867 14.9403L35.7217 15.4235L35.5734 15.9293L35.442 16.4574L35.3274 17.0076L35.23 17.5797L35.1498 18.1734L35.0869 18.7885L35.0414 19.4246L35.0135 20.0815L35.0031 20.7589L35.0105 21.4566L35.0356 22.1743L35.0786 22.9116L35.1395 23.6682L35.2184 24.4439L35.3153 25.2382L35.4302 26.051L35.5633 26.8818L35.7145 27.7304L35.8839 28.5963L36.0715 29.4792L36.2772 30.3788L36.5012 31.2947L36.7433 32.2266L37.0036 33.174L37.282 34.1366L37.5785 35.1141L37.8932 36.106L38.2258 37.1119L38.5765 38.1316L38.945 39.1644L39.3315 40.2101L39.7357 41.2683L40.1577 42.3385L40.5973 43.4204L41.0544 44.5135L41.5289 45.6173L42.0208 46.7316L42.5299 47.8558L43.056 48.9895L43.5992 50.1323L44.1591 51.2838L44.7357 52.4435L45.3288 53.611L45.9383 54.7858L46.5639 55.9676L47.2056 57.1558L47.8631 58.3501L48.5363 59.5499L49.225 60.7549L49.9288 61.9646L50.6478 63.1785L51.3816 64.3962L52.13 65.6173L52.8928 66.8413L53.6697 68.0677L54.4606 69.2962L55.2651 70.5262L56.0831 71.7573L56.9142 72.989L57.7582 74.221L58.6148 75.4528L59.4838 76.6839L60.3649 77.9139L61.2578 79.1423L62.1621 80.3688L63.0776 81.5928L64.004 82.814L64.941 84.0319L65.8883 85.246L66.8455 86.456L67.8123 87.6614L68.7884 88.8618L69.7735 90.0568L70.7672 91.246L71.7692 92.4288L72.7791 93.6051L73.7966 94.7742L74.8213 95.9359L75.8529 97.0897L76.891 98.2353L77.9352 99.3721L78.9852 100.5L80.0406 101.618L81.101 102.727L82.166 103.825L83.2353 104.913L84.3085 105.99L85.3851 107.056L86.4649 108.11L87.5473 109.152L88.632 110.182L89.7186 111.199L90.8068 112.203L91.896 113.194L92.9859 114.171L94.0762 115.134L95.1663 116.083L96.2559 117.017L97.3445 117.937L98.4318 118.841L99.5174 119.73L100.601 120.603L101.682 121.46L102.76 122.301L103.834 123.126L104.905 123.933L105.971 124.724L107.033 125.498L108.09 126.254L109.141 126.992L110.187 127.713L111.226 128.415L112.258 129.099L113.284 129.765L114.302 130.411L115.312 131.04L116.314 131.649L117.307 132.238L118.291 132.809L119.266 133.36L120.231 133.891L121.185 134.403L122.129 134.895L123.062 135.367L123.984 135.819L124.893 136.25L125.791 136.661L126.676 137.052L127.548 137.423L128.407 137.773L129.253 138.102L130.084 138.411L130.901 138.699L131.704 138.966L132.491 139.213L133.263 139.439L134.02 139.644L134.76 139.828L135.484 139.992L136.192 140.135L136.883 140.257L137.556 140.359L138.212 140.44L138.85 140.5L139.47 140.539L140.071 140.559L140.654 140.557L141.218 140.536L141.763 140.494L142.288 140.432L142.794 140.35L143.279 140.248L143.745 140.125L144.19 139.984L144.614 139.822L145.017 139.641L145.4 139.441L145.761 139.222L146.101 138.983L146.419 138.726L146.715 138.45L146.989 138.155L147.241 137.842L147.471 137.511L147.678 137.162L147.863 136.795L148.025 136.41L148.164 136.008L148.28 135.589L148.373 135.153L148.443 134.7L148.49 134.231L148.513 133.746L148.513 133.244L148.489 132.727L148.442 132.195L148.371 131.647L148.277 131.085L148.159 130.507L148.018 129.916L147.852 129.31L147.663 128.691L147.451 128.058L147.214 127.411L146.954 126.752L146.671 126.081L146.363 125.396L146.033 124.7L145.679 123.993L145.301 123.274L144.9 122.544L144.476 121.803L144.029 121.052L143.558 120.29L143.065 119.519L142.549 118.739L142.01 117.95L141.449 117.152L140.865 116.345L140.259 115.531L139.631 114.709L138.981 113.88L138.31 113.043L137.616 112.2L136.902 111.351L136.166 110.496L135.409 109.636L134.632 108.77L133.834 107.899L133.016 107.024L132.177 106.145L131.319 105.262L130.442 104.376L129.545 103.486L128.63 102.595L127.695 101.7L126.743 100.804L125.772 99.9063L124.783 99.0072L123.777 98.1073L122.754 97.2069L121.714 96.3064L120.658 95.406L119.585 94.5062L118.497 93.6073L117.393 92.7096L116.274 91.8136L115.14 90.9194L113.992 90.0276L112.83 89.1384L111.654 88.2521L110.465 87.3692L109.264 86.4898L108.05 85.6145L106.824 84.7434L105.586 83.877L104.337 83.0155L103.077 82.1593L101.808 81.3086L100.528 80.4639L99.2384 79.6253L97.94 78.7932L96.6331 77.968L95.318 77.1498L93.9952 76.339L92.6652 75.5359L91.3284 74.7408L89.9852 73.9539L88.6362 73.1756L87.2819 72.406L85.9226 71.6455L84.5588 70.8944L83.1911 70.1528L81.8199 69.421L80.4456 68.6993L79.0688 67.988L77.69 67.2872L76.3096 66.5971L74.9281 65.9181L73.546 65.2504L72.1638 64.5941L70.782 63.9494L69.4011 63.3166L68.0215 62.6959L66.6438 62.0874L65.2684 61.4913L63.8958 60.9079L62.5266 60.3373L61.1612 59.7796L59.8001 59.2351L58.4437 58.7039L57.0927 58.1861L55.7474 57.6818L54.4084 57.1913L53.0762 56.7146L51.7511 56.2519L50.4338 55.8033L49.1246 55.3689L47.8241 54.9487L46.5327 54.543L45.2509 54.1518L43.9792 53.7752L42.7181 53.4133L41.4679 53.066L40.2292 52.7336L39.0025 52.4161L37.7881 52.1135L36.5865 51.8258L35.3982 51.5532L34.2236 51.2956L33.0632 51.053L31.9173 50.8256L30.7864 50.6133L29.671 50.416L28.5714 50.2339L27.4881 50.0669L26.4214 49.915L25.3718 49.7782L24.3397 49.6564L23.3254 49.5497L22.3294 49.4579L21.352 49.3811L20.3936 49.3192L19.4546 49.2721L18.5353 49.2398L17.636 49.2222L16.7572 49.2192L15.8992 49.2308L15.0623 49.2569L14.2468 49.2973L13.453 49.352L12.6813 49.4209L11.932 49.5039L11.2053 49.6008L10.5016 49.7115L9.82104 49.8359L9.16404 49.9739L8.5308 50.1254L7.92158 50.2901L7.33663 50.4679L6.7762 50.6588L6.24051 50.8625L5.72979 51.0788L5.24424 51.3077L4.78409 51.5488L4.34952 51.8022L3.94072 52.0674L3.55787 52.3445L3.20114 52.6332L2.8707 52.9332L2.56668 53.2445L2.28924 53.5667L2.03851 53.8997L1.81462 54.2433L1.61766 54.5972L1.44776 54.9612L1.30501 55.3352L1.18948 55.7189L1.10126 56.112L1.04041 56.5143L1.007 56.9256L1.00106 57.3456L1.02263 57.7742L1.07174 58.2109L1.14841 58.6557L1.25264 59.1083L1.38444 59.5683L1.54378 60.0356L1.73065 60.5099L1.94502 60.9909L2.18684 61.4784L2.45607 61.972L2.75263 62.4716L3.07647 62.9769L3.42749 63.4876L3.80561 64.0033L4.21072 64.524L4.64272 65.0492L5.10149 65.5787L5.58689 66.1123L6.09879 66.6496L6.63704 67.1904L7.20147 67.7344L7.79193 68.2814L8.40823 68.831L9.05018 69.3829L9.71759 69.937L10.4103 70.4928L11.128 71.0503L11.8705 71.6089L12.6376 72.1686L13.429 72.729L14.2446 73.2898L15.0839 73.8508L15.9468 74.4117L16.833 74.9721L17.7422 75.532L18.6741 76.0909L19.6284 76.6486L20.6048 77.2049L21.603 77.7595L22.6226 78.312L23.6634 78.8624L24.7248 79.4102L25.8067 79.9553L26.9087 80.4974L28.0304 81.0362L29.1714 81.5714L30.3313 82.103L31.5098 82.6305L32.7064 83.1538L33.9208 83.6726L35.1525 84.1866L36.4012 84.6958L37.6664 85.1997L38.9477 85.6983L40.2447 86.1912L41.5569 86.6782L42.8838 87.1592L44.2251 87.634L45.5803 88.1022L46.9488 88.5638L48.3304 89.0185L49.7244 89.4661L51.1304 89.9065L52.5479 90.3393L53.9764 90.7646L55.4155 91.182L56.8647 91.5914L58.3234 91.9927L59.7912 92.3857L61.2675 92.7701L62.7519 93.1459L64.2438 93.5129L65.7428 93.871L67.2482 94.22L68.7597 94.5598L70.2766 94.8902L71.7985 95.2111L73.3248 95.5225L74.8549 95.8241L76.3885 96.1159L77.9248 96.3978L79.4635 96.6696L81.0039 96.9314L82.5456 97.1829L84.0879 97.4241L85.6305 97.6549L87.1726 97.8753L88.7139 98.0851L90.2537 98.2844L91.7915 98.473L93.3268 98.651L94.859 98.8182L96.3877 98.9746L97.9122 99.1203L99.4321 99.255L100.947 99.3789L102.456 99.492L103.959 99.5941L105.455 99.6853L106.943 99.7657L108.424 99.8351L109.897 99.8936L111.36 99.9413L112.815 99.9781L114.259 100.004L115.694 100.019L117.117 100.024L118.529 100.017L119.929 100L121.317 99.9728L122.691 99.9347L124.053 99.886L125.401 99.827L126.734 99.7576L128.053 99.6779L129.356 99.588L130.644 99.488L131.916 99.3781L133.171 99.2582L134.409 99.1285L135.63 98.9891L136.833 98.8402L138.017 98.6818L139.183 98.5141L140.33 98.3371L141.457 98.1511L142.564 97.9562L143.651 97.7525L144.717 97.5401L145.762 97.3192L146.786 97.09L147.788 96.8526L148.768 96.6072L149.725 96.3539L150.659 96.093L151.571 95.8245L152.458 95.5487L153.322 95.2658L154.162 94.9759L154.977 94.6792L155.768 94.3759L156.534 94.0663L157.274 93.7504L157.989 93.4286L158.678 93.101L159.342 92.7678L159.979 92.4292L160.589 92.0855L161.173 91.7368L161.73 91.3834L162.26 91.0255L162.762 90.6633L163.237 90.2971L163.685 89.927L164.105 89.5533L164.496 89.1763L164.86 88.7961L165.196 88.4129L165.503 88.0271L165.782 87.6389L166.032 87.2484L166.254 86.856L166.447 86.4619L166.611 86.0662L166.747 85.6693L166.853 85.2714L166.931 84.8727L166.98 84.4735L167 84.074" stroke="url(#paint0_radial_175_779)" stroke-width="2"/>
<defs>
<radialGradient id="paint0_radial_175_779" cx="0" cy="0" r="1" gradientUnits="userSpaceOnUse" gradientTransform="translate(28.8093 29.6649) rotate(54.4147) scale(179.394)">
<stop stop-color="#F0C6FF"/>
<stop offset="1" stop-color="#C6D6FF"/>
</radialGradient>
</defs>
</svg>
