<svg width="168" height="168" viewBox="0 0 168 168" fill="none" xmlns="http://www.w3.org/2000/svg">
<path d="M103.265 84.0001L103.274 83.5875L103.301 83.1755L103.347 82.7645L103.41 82.3551L103.492 81.9479L103.592 81.5432L103.71 81.1418L103.845 80.7441L103.999 80.3505L104.17 79.9617L104.359 79.5782L104.565 79.2005L104.788 78.829L105.028 78.4642L105.285 78.1068L105.559 77.7571L105.849 77.4156L106.155 77.0829L106.478 76.7594L106.815 76.4456L107.169 76.1419L107.537 75.8488L107.921 75.5667L108.319 75.2961L108.731 75.0374L109.157 74.7911L109.596 74.5574L110.049 74.337L110.515 74.1301L110.993 73.9371L111.483 73.7584L111.985 73.5944L112.498 73.4454L113.022 73.3118L113.557 73.1939L114.102 73.092L114.656 73.0064L115.219 72.9375L115.791 72.8856L116.371 72.8508L116.959 72.8335L117.555 72.8339L118.157 72.8523L118.765 72.8888L119.38 72.9437L119.999 73.0173L120.623 73.1096L121.252 73.2209L121.884 73.3513L122.52 73.5009L123.158 73.6699L123.799 73.8585L124.441 74.0666L125.084 74.2945L125.728 74.5421L126.372 74.8096L127.015 75.0969L127.657 75.4042L128.298 75.7314L128.936 76.0785L129.572 76.4456L130.205 76.8326L130.833 77.2395L131.458 77.6661L132.077 78.1126L132.691 78.5786L133.299 79.0643L133.901 79.5694L134.495 80.0939L135.082 80.6375L135.661 81.2002L136.231 81.7817L136.792 82.382L137.343 83.0007L137.884 83.6377L138.415 84.2928L138.934 84.9658L139.441 85.6563L139.937 86.3641L140.419 87.089L140.888 87.8307L141.344 88.5888L141.786 89.3631L142.213 90.1532L142.625 90.9588L143.022 91.7796L143.403 92.6151L143.767 93.465L144.115 94.329L144.446 95.2066L144.759 96.0975L145.055 97.0012L145.332 97.9173L145.591 98.8453L145.83 99.7849L146.051 100.736L146.252 101.697L146.433 102.668L146.593 103.649L146.734 104.64L146.853 105.639L146.952 106.646L147.029 107.661L147.085 108.683L147.118 109.711L147.13 110.746L147.12 111.787L147.088 112.832L147.033 113.882L146.955 114.936L146.855 115.993L146.731 117.054L146.585 118.116L146.415 119.18L146.222 120.246L146.006 121.312L145.767 122.378L145.504 123.444L145.217 124.508L144.908 125.571L144.574 126.632L144.218 127.689L143.838 128.744L143.434 129.794L143.008 130.84L142.558 131.881L142.085 132.916L141.589 133.945L141.07 134.967L140.529 135.982L139.964 136.989L139.378 137.987L138.769 138.976L138.138 139.956L137.485 140.926L136.81 141.885L136.114 142.833L135.397 143.769L134.659 144.693L133.9 145.604L133.121 146.502L132.322 147.386L131.503 148.256L130.665 149.112L129.807 149.952L128.931 150.777L128.036 151.585L127.124 152.377L126.193 153.152L125.246 153.909L124.282 154.649L123.301 155.371L122.304 156.073L121.292 156.757L120.264 157.421L119.222 158.066L118.166 158.69L117.096 159.294L116.013 159.878L114.917 160.44L113.808 160.98L112.688 161.499L111.557 161.996L110.415 162.471L109.263 162.923L108.101 163.352L106.93 163.758L105.751 164.142L104.563 164.501L103.368 164.837L102.166 165.15L100.958 165.438L99.7442 165.702L98.525 165.942L97.3012 166.158L96.0733 166.35L94.842 166.516L93.6078 166.659L92.3713 166.776L91.1331 166.869L89.8938 166.937L88.6539 166.981L87.414 166.999L86.1748 166.993L84.9368 166.963L83.7006 166.907L82.4668 166.828L81.2359 166.723L80.0086 166.594L78.7854 166.441L77.5669 166.264L76.3537 166.062L75.1463 165.837L73.9452 165.588L72.7512 165.315L71.5646 165.019L70.3861 164.7L69.2162 164.357L68.0554 163.992L66.9043 163.605L65.7634 163.195L64.6331 162.763L63.5141 162.31L62.4069 161.835L61.3118 161.339L60.2294 160.822L59.1603 160.285L58.1047 159.727L57.0633 159.15L56.0365 158.554L55.0246 157.938L54.0282 157.304L53.0477 156.652L52.0834 155.981L51.1358 155.294L50.2053 154.589L49.2922 153.868L48.3969 153.131L47.5198 152.378L46.6612 151.61L45.8214 150.827L45.0008 150.03L44.1996 149.219L43.4182 148.395L42.6569 147.559L41.9158 146.71L41.1953 145.849L40.4956 144.977L39.817 144.095L39.1595 143.203L38.5235 142.3L37.9092 141.389L37.3166 140.469L36.746 139.542L36.1975 138.607L35.6712 137.665L35.1673 136.717L34.6858 135.763L34.2268 134.804L33.7904 133.84L33.3767 132.873L32.9857 131.901L32.6174 130.927L32.2719 129.951L31.949 128.973L31.6489 127.994L31.3715 127.014L31.1167 126.034L30.8845 125.054L30.6748 124.076L30.4876 123.099L30.3226 122.124L30.1799 121.152L30.0591 120.184L29.9604 119.219L29.8833 118.258L29.8279 117.303L29.7938 116.352L29.781 115.408L29.7891 114.47L29.818 113.539L29.8674 112.616L29.9371 111.701L30.0267 110.794L30.1361 109.896L30.2649 109.007L30.4128 108.128L30.5795 107.26L30.7648 106.402L30.9681 105.556L31.1893 104.721L31.4279 103.899L31.6835 103.089L31.9558 102.292L32.2445 101.508L32.549 100.738L32.869 99.9814L33.2041 99.2398L33.5538 98.5129L33.9177 97.8011L34.2954 97.1047L34.6863 96.4241L35.0901 95.7595L35.5063 95.1113L35.9343 94.4796L36.3738 93.8649L36.8242 93.2672L37.285 92.6869L37.7558 92.1242L38.2359 91.5793L38.725 91.0524L39.2225 90.5436L39.7278 90.0532L40.2405 89.5813L40.76 89.1281L41.2859 88.6936L41.8174 88.278L42.3542 87.8813L42.8957 87.5038L43.4414 87.1454L43.9906 86.8062L44.5429 86.4862L45.0977 86.1855L45.6545 85.904L46.2128 85.6419L46.7719 85.399L47.3314 85.1753L47.8907 84.9709L48.4493 84.7855L49.0066 84.6193L49.5622 84.472L50.1154 84.3436L50.6657 84.2339L51.2127 84.1429L51.7558 84.0703L52.2945 84.0161L52.8283 83.9801L53.3566 83.9621L53.8791 83.9618L54.3951 83.9791L54.9041 84.0138L55.4058 84.0656L55.8997 84.1342L56.3852 84.2195L56.8618 84.3211L57.3293 84.4388L57.787 84.5722L58.2346 84.7211L58.6717 84.8851L59.0977 85.0639L59.5124 85.2572L59.9152 85.4646L60.3059 85.6857L60.684 85.9202L61.0492 86.1677L61.4011 86.4278L61.7393 86.7L62.0635 86.9841L62.3734 87.2795L62.6687 87.5858L62.949 87.9026L63.2141 88.2295L63.4637 88.566L63.6975 88.9116L63.9153 89.2659L64.1168 89.6283L64.3018 89.9985L64.47 90.376L64.6214 90.7601L64.7556 91.1505L64.8726 91.5467L64.972 91.9481L65.0539 92.3542L65.1181 92.7645L65.1644 93.1785L65.1926 93.5957L65.2029 94.0155L65.195 94.4375L65.1689 94.861L65.1245 95.2856L65.0619 95.7108L64.9809 96.1359L64.8816 96.5605L64.764 96.9841L64.6281 97.4061L64.4739 97.8259L64.3015 98.2431L64.111 98.6571L63.9023 99.0674L63.6757 99.4735L63.4313 99.8748L63.1691 100.271L62.8892 100.661L62.5919 101.045L62.2773 101.422L61.9456 101.792L61.5969 102.154L61.2315 102.507L60.8495 102.852L60.4513 103.188L60.037 103.514L59.6069 103.829L59.1613 104.134L58.7004 104.428L58.2246 104.71L57.7342 104.98L57.2294 105.237L56.7106 105.482L56.1781 105.713L55.6323 105.931L55.0736 106.134L54.5023 106.323L53.9188 106.497L53.3235 106.655L52.7169 106.798L52.0992 106.925L51.471 107.036L50.8326 107.13L50.1846 107.207L49.5274 107.267L48.8613 107.309L48.187 107.334L47.5048 107.34L46.8152 107.328L46.1188 107.297L45.4161 107.247L44.7074 107.179L43.9934 107.091L43.2745 106.983L42.5513 106.856L41.8243 106.709L41.094 106.542L40.361 106.356L39.6257 106.148L38.8888 105.921L38.1507 105.673L37.412 105.405L36.6733 105.116L35.9351 104.806L35.198 104.476L34.4624 104.125L33.729 103.754L32.9984 103.361L32.271 102.948L31.5474 102.515L30.8282 102.061L30.1139 101.586L29.4052 101.091L28.7024 100.576L28.0062 100.04L27.3171 99.484L26.6357 98.9082L25.9625 98.3126L25.298 97.6973L24.6428 97.0624L23.9974 96.4083L23.3623 95.7351L22.738 95.043L22.125 94.3322L21.5239 93.603L20.9351 92.8556L20.3592 92.0904L19.7966 91.3076L19.2478 90.5075L18.7132 89.6903L18.1934 88.8566L17.6888 88.0064L17.1998 87.1403L16.7269 86.2585L16.2704 85.3615L15.8309 84.4496L15.4088 83.5232L15.0044 82.5827L14.618 81.6285L14.2502 80.661L13.9013 79.6807L13.5716 78.688L13.2615 77.6834L12.9713 76.6673L12.7013 75.6401L12.4518 74.6025L12.2233 73.5548L12.0158 72.4975L11.8298 71.4312L11.6654 70.3563L11.5229 69.2734L11.4026 68.183L11.3047 67.0856L11.2293 65.9817L11.1768 64.8719L11.1472 63.7568L11.1407 62.6368L11.1575 61.5126L11.1977 60.3847L11.2615 59.2536L11.349 58.1199L11.4602 56.9842L11.5952 55.847L11.7542 54.709L11.9371 53.5706L12.144 52.4326L12.375 51.2954L12.6299 50.1596L12.9089 49.0258L13.2119 47.8946L13.5389 46.7665L13.8898 45.6422L14.2646 44.5222L14.6631 43.4071L15.0853 42.2974L15.5311 41.1938L16.0004 40.0967L16.4929 39.0068L17.0087 37.9247L17.5474 36.8508L18.109 35.7857L18.6932 34.73L19.2998 33.6842L19.9286 32.6489L20.5793 31.6245L21.2518 30.6117L21.9458 29.6109L22.6609 28.6227L23.3969 27.6475L24.1535 26.6858L24.9303 25.7382L25.7271 24.8052L26.5435 23.8871L27.3792 22.9845L28.2338 22.0979L29.1069 21.2276L29.9981 20.3742L30.9071 19.538L31.8334 18.7194L32.7766 17.919L33.7364 17.137L34.7121 16.3739L35.7035 15.6301L36.71 14.9058L37.7312 14.2016L38.7666 13.5176L39.8158 12.8543L40.8781 12.2119L41.9532 11.5908L43.0405 10.9913L44.1395 10.4136L45.2498 9.85799L46.3706 9.32475L47.5016 8.81411L48.6422 8.32631L49.7918 7.86155L50.9499 7.42002L52.116 7.00193L53.2894 6.60744L54.4696 6.23671L55.6561 5.88989L56.8482 5.56709L58.0454 5.26844L59.2472 4.99405L60.4528 4.74398L61.6619 4.51833L62.8737 4.31714L64.0877 4.14045L65.3033 3.9883L66.5199 3.86069L67.737 3.75763L68.9539 3.67909L70.1701 3.62505L71.385 3.59546L72.598 3.59026L73.8085 3.60938L75.0159 3.65272L76.2198 3.72018L77.4194 3.81165L78.6143 3.92699L79.8038 4.06605L80.9875 4.22867L82.1647 4.41468L83.3349 4.62389L84.4976 4.85609L85.6522 5.11107L86.7982 5.38861L87.9351 5.68845L89.0623 6.01035L90.1794 6.35403L91.2857 6.7192L92.3809 7.10559L93.4644 7.51288L94.5358 7.94075L95.5945 8.38887L96.6402 8.8569L97.6723 9.34448L98.6904 9.85126L99.6941 10.3769L100.683 10.9209L101.656 11.4829L102.614 12.0626L103.556 12.6595L104.482 13.2731L105.39 13.9031L106.281 14.549L107.155 15.2104L108.011 15.8867L108.849 16.5776L109.668 17.2824L110.468 18.0009L111.25 18.7324L112.011 19.4764L112.754 20.2325L113.476 21.0001L114.178 21.7788L114.86 22.5679L115.521 23.367L116.162 24.1755L116.782 24.993L117.38 25.8188L117.958 26.6524L118.513 27.4933L119.048 28.3408L119.561 29.1946L120.052 30.0539L120.521 30.9183L120.969 31.7871L121.394 32.6599L121.798 33.5361L122.179 34.415L122.539 35.2962L122.877 36.1791L123.193 37.0631L123.487 37.9477L123.759 38.8322L124.009 39.7162L124.238 40.5991L124.445 41.4804L124.63 42.3594L124.794 43.2358L124.937 44.1088L125.059 44.978L125.16 45.8429L125.24 46.7029L125.3 47.5575L125.339 48.4062L125.358 49.2485L125.357 50.0839L125.337 50.9118L125.297 51.7319L125.238 52.5435L125.16 53.3463L125.064 54.1398L124.949 54.9235L124.817 55.697L124.667 56.4597L124.499 57.2114L124.315 57.9516L124.114 58.6798L123.897 59.3957L123.664 60.0988L123.416 60.7888L123.153 61.4654L122.875 62.128L122.584 62.7765L122.278 63.4105L121.959 64.0296L121.627 64.6335L121.283 65.222L120.927 65.7947L120.56 66.3513L120.181 66.8917L119.792 67.4154L119.393 67.9224L118.985 68.4124L118.567 68.8851L118.141 69.3405L117.707 69.7782L117.266 70.1981L116.817 70.6L116.362 70.9839L115.901 71.3496L115.435 71.6969L114.964 72.0258L114.488 72.3361L114.009 72.6279L113.526 72.901L113.041 73.1554L112.554 73.3911L112.064 73.6081L111.574 73.8063L111.083 73.9857L110.593 74.1465L110.102 74.2886L109.613 74.412L109.125 74.517L108.64 74.6034L108.157 74.6716L107.677 74.7214L107.2 74.7532L106.728 74.767L106.261 74.7629L105.799 74.7412L105.343 74.702L104.892 74.6455L104.449 74.5719L104.013 74.4815L103.584 74.3744L103.163 74.251L102.752 74.1114L102.349 73.9559L101.955 73.785L101.572 73.5987L101.199 73.3974L100.837 73.1815L100.486 72.9513L100.147 72.7071L99.82 72.4493L99.5054 72.1782L99.2036 71.8942L98.915 71.5977L98.64 71.289L98.3788 70.9686L98.132 70.6369L97.8997 70.2944L97.6823 69.9413L97.4801 69.5782L97.2935 69.2056L97.1226 68.8238L96.9677 68.4333L96.8292 68.0347L96.7072 67.6282L96.602 67.2146L96.5138 66.7941L96.4427 66.3675L96.3891 65.935L96.353 65.4972L96.3347 65.0547L96.3342 64.6079L96.3518 64.1573L96.3875 63.7036L96.4414 63.2471L96.5137 62.7885L96.6044 62.3282L96.7136 61.8667L96.8414 61.4047L96.9877 60.9427L97.1526 60.4811L97.3361 60.0205L97.5383 59.5614L97.759 59.1045L97.9983 58.6501L98.2561 58.1989L98.5323 57.7514L98.8269 57.308L99.1398 56.8695L99.4708 56.4361L99.8199 56.0086L100.187 55.5873L100.572 55.1729L100.974 54.7658L101.394 54.3666L101.831 53.9757L102.285 53.5936L102.756 53.2209L103.243 52.858L103.747 52.5054L104.267 52.1636L104.803 51.8331L105.354 51.5143L105.921 51.2076L106.502 50.9136L107.098 50.6327L107.709 50.3652L108.333 50.1116L108.971 49.8724L109.623 49.6479L110.287 49.4386L110.963 49.2447L111.652 49.0668L112.352 48.9051L113.064 48.76L113.787 48.6319L114.52 48.5211L115.262 48.4278L116.015 48.3525L116.776 48.2955L117.546 48.2569L118.325 48.2371L119.11 48.2364L119.903 48.255L120.703 48.2931L121.509 48.3509L122.32 48.4287L123.136 48.5267L123.957 48.645L124.782 48.7839L125.611 48.9434L126.442 49.1238L127.276 49.3251L128.112 49.5475L128.95 49.791L129.788 50.0559L130.626 50.342L131.464 50.6495L132.301 50.9785L133.137 51.3289L133.971 51.7008L134.802 52.0942L135.631 52.509L136.455 52.9453L137.275 53.403L138.091 53.882L138.901 54.3823L139.706 54.9038L140.504 55.4463L141.295 56.0098L142.078 56.5942L142.853 57.1993L143.62 57.8249L144.377 58.4708L145.125 59.137L145.863 59.8231L146.59 60.529L147.305 61.2544L148.009 61.9992L148.7 62.763L149.379 63.5456L150.045 64.3467L150.696 65.166L151.333 66.0032L151.956 66.858L152.563 67.7301L153.155 68.6191L153.731 69.5247L154.29 70.4464L154.832 71.3841L155.357 72.3371L155.864 73.3052L156.352 74.2879L156.822 75.2848L157.273 76.2956L157.705 77.3196L158.117 78.3566L158.509 79.406L158.881 80.4674L159.232 81.5403L159.561 82.6242L159.87 83.7187L160.157 84.8231L160.422 85.9371L160.665 87.0601L160.885 88.1915L161.083 89.331L161.258 90.4778L161.41 91.6315L161.539 92.7916L161.644 93.9574L161.725 95.1285L161.783 96.3043L161.817 97.4842L161.827 98.6676L161.813 99.854L161.775 101.043L161.712 102.233L161.625 103.425L161.514 104.618L161.378 105.811L161.217 107.003L161.032 108.194L160.823 109.384L160.589 110.571L160.331 111.755L160.049 112.936L159.742 114.114L159.411 115.286L159.056 116.454L158.676 117.615L158.273 118.771L157.846 119.92L157.396 121.061L156.922 122.194L156.425 123.319L155.905 124.435L155.362 125.541L154.796 126.638L154.209 127.723L153.598 128.797L152.967 129.86L152.313 130.91L151.638 131.948L150.943 132.972L150.226 133.983L149.489 134.979L148.733 135.961L147.956 136.927L147.16 137.878L146.346 138.813L145.513 139.732L144.661 140.633L143.792 141.517L142.906 142.383L142.003 143.232L141.083 144.061L140.147 144.872L139.196 145.663L138.23 146.435L137.249 147.187L136.254 147.918L135.246 148.629L134.224 149.319L133.19 149.988L132.144 150.635L131.086 151.26L130.017 151.864L128.937 152.445L127.848 153.003L126.749 153.539L125.641 154.052L124.525 154.542L123.401 155.009L122.27 155.452L121.133 155.872L119.989 156.268L118.84 156.64L117.686 156.988L116.527 157.313L115.365 157.613L114.2 157.889L113.032 158.141L111.862 158.369L110.691 158.573L109.518 158.752L108.346 158.907L107.174 159.039L106.002 159.146L104.832 159.229L103.664 159.288L102.499 159.323L101.337 159.335L100.179 159.323L99.0249 159.287L97.8758 159.229L96.7322 159.147L95.5945 159.042L94.4633 158.914L93.3392 158.763L92.2227 158.59L91.1143 158.395L90.0145 158.178L88.924 157.94L87.8431 157.68L86.7723 157.399L85.7122 157.097L84.6633 156.774L83.626 156.432L82.6008 156.069L81.5882 155.687L80.5885 155.286L79.6023 154.866L78.63 154.428L77.6719 153.971L76.7286 153.497L75.8004 153.006L74.8876 152.497L73.9907 151.973L73.1101 151.432L72.246 150.876L71.3989 150.305L70.569 149.72L69.7567 149.12L68.9623 148.506L68.1861 147.88L67.4283 147.24L66.6893 146.589L65.9692 145.925L65.2683 145.251L64.5869 144.566L63.9251 143.87L63.2832 143.166L62.6614 142.452L62.0597 141.729L61.4785 140.998L60.9177 140.26L60.3776 139.515L59.8583 138.764L59.3598 138.007L58.8823 137.244L58.4258 136.477L57.9903 135.706L57.576 134.931L57.1829 134.152L56.8109 133.372L56.4601 132.589L56.1304 131.805L55.8218 131.02L55.5344 130.235L55.2679 129.45L55.0224 128.665L54.7977 127.883L54.5938 127.102L54.4105 126.323L54.2477 125.547L54.1053 124.775L53.9832 124.007L53.881 123.243L53.7987 122.485L53.7361 121.731L53.6929 120.984L53.6689 120.244L53.6639 119.51L53.6777 118.785L53.7099 118.067L53.7603 117.357L53.8286 116.657L53.9145 115.966L54.0178 115.285L54.138 114.614L54.2748 113.954L54.428 113.305L54.5971 112.667L54.7817 112.042L54.9816 111.428L55.1963 110.828L55.4254 110.241L55.6685 109.667L55.9252 109.107L56.1951 108.561L56.4777 108.029L56.7726 107.512L57.0794 107.011L57.3976 106.525L57.7267 106.054L58.0663 105.599L58.4158 105.161L58.7749 104.739L59.143 104.333L59.5196 103.944L59.9042 103.573L60.2963 103.218L60.6955 102.881L61.1011 102.562L61.5127 102.26L61.9298 101.976L62.3518 101.71L62.7782 101.462L63.2084 101.233L63.6421 101.021L64.0785 100.828L64.5172 100.653L64.9576 100.496L65.3993 100.358L65.8416 100.238L66.284 100.137L66.7261 100.054L67.1672 99.9887L67.6069 99.9421L68.0446 99.9136L68.4797 99.9033L68.9118 99.9109L69.3404 99.9365L69.7648 99.9797L70.1846 100.041L70.5994 100.119L71.0085 100.215L71.4115 100.328L71.8078 100.457L72.1971 100.604L72.5787 100.767L72.9523 100.946L73.3173 101.141L73.6733 101.352L74.0198 101.579L74.3563 101.821L74.6825 102.077L74.9979 102.349L75.302 102.634L75.5945 102.934L75.8749 103.247L76.1428 103.574L76.3978 103.913L76.6396 104.265L76.8678 104.63L77.082 105.006L77.2819 105.393L77.467 105.791L77.6372 106.2L77.7921 106.619L77.9313 107.048L78.0547 107.486L78.1618 107.933L78.2524 108.388L78.3263 108.851L78.3833 109.321L78.423 109.798L78.4453 110.282L78.45 110.772L78.4369 111.267L78.4057 111.767L78.3564 112.271L78.2888 112.779L78.2027 113.291L78.098 113.805L77.9746 114.322L77.8325 114.841L77.6714 115.361L77.4915 115.881L77.2925 116.402L77.0745 116.923L76.8374 117.442L76.5813 117.961L76.3061 118.477L76.0118 118.991L75.6985 119.502L75.3663 120.009L75.0151 120.512L74.6451 121.011L74.2564 121.505L73.849 121.992L73.4231 122.474L72.9788 122.949L72.5163 123.416L72.0357 123.876L71.5372 124.328L71.0209 124.771L70.4872 125.204L69.9361 125.628L69.368 126.041L68.783 126.444L68.1814 126.835L67.5636 127.214L66.9297 127.582L66.28 127.937L65.6149 128.278L64.9348 128.606L64.2398 128.92L63.5303 129.22L62.8068 129.504L62.0696 129.774L61.319 130.027L60.5554 130.265L59.7792 130.486L58.9909 130.691L58.1908 130.878L57.3795 131.048L56.5572 131.199L55.7244 131.333L54.8817 131.448L54.0295 131.544L53.1682 131.621L52.2983 131.679L51.4203 131.717L50.5348 131.735L49.6421 131.733L48.7429 131.71L47.8375 131.667L46.9266 131.603L46.0107 131.518L45.0903 131.412L44.1659 131.284L43.2381 131.135L42.3074 130.964L41.3744 130.772L40.4396 130.557L39.5035 130.32L38.5668 130.062L37.63 129.781L36.6936 129.478L35.7583 129.153L34.8245 128.805L33.8929 128.436L32.964 128.044L32.0384 127.629L31.1166 127.193L30.1993 126.734L29.2869 126.254L28.3801 125.751L27.4793 125.226L26.5852 124.68L25.6984 124.112L24.8193 123.522L23.9485 122.911L23.0866 122.278L22.2341 121.625L21.3916 120.951L20.5595 120.255L19.7385 119.54L18.929 118.804L18.1315 118.049L17.3467 117.273L16.5749 116.478L15.8166 115.664L15.0724 114.832L14.3428 113.98L13.6282 113.111L12.9291 112.223L12.2459 111.318L11.5791 110.396L10.9291 109.457L10.2965 108.501L9.68149 107.53L9.08462 106.543L8.50625 105.541L7.94678 104.523L7.40659 103.492L6.88606 102.447L6.38553 101.388L5.90536 100.316L5.44588 99.2316L5.00742 98.1353L4.59029 97.0273L4.19478 95.9084L3.82118 94.7789L3.46977 93.6393L3.14081 92.4902L2.83454 91.3322L2.5512 90.1656L2.29101 88.9912L2.05417 87.8094L1.84089 86.6207L1.65133 85.4258L1.48567 84.2251L1.34405 83.0193L1.22662 81.8089L1.13349 80.5945L1.06477 79.3766L1.02056 78.1559L1.00093 76.9328L1.00596 75.7081L1.03568 74.4822L1.09014 73.2557L1.16936 72.0293L1.27333 70.8035L1.40206 69.5789L1.55551 68.356L1.73366 67.1356L1.93643 65.9181L2.16378 64.704L2.41561 63.4941L2.69183 62.2889L2.99232 61.0889L3.31696 59.8948L3.66561 58.707L4.03811 57.5262L4.43429 56.3529L4.85398 55.1876L5.29696 54.031L5.76304 52.8835L6.25198 51.7458L6.76355 50.6182L7.2975 49.5014L7.85355 48.396L8.43144 47.3023L9.03087 46.2209L9.65153 45.1523L10.2931 44.097L10.9553 43.0555L11.6377 42.0282L12.3401 41.0157L13.0619 40.0183L13.8029 39.0366L14.5627 38.0709L15.3409 37.1218L16.137 36.1895L16.9507 35.2745L17.7815 34.3773L18.629 33.4981L19.4927 32.6375L20.3722 31.7956L21.267 30.973L22.1767 30.1699L23.1006 29.3866L24.0385 28.6235L24.9897 27.8809L25.9538 27.1591L26.9302 26.4582L27.9184 25.7787L28.918 25.1208L29.9283 24.4846L30.9488 23.8704L31.979 23.2785L33.0184 22.7089L34.0663 22.162L35.1223 21.6379L36.1857 21.1366L37.2561 20.6584L38.3328 20.2034L39.4152 19.7717L40.5029 19.3634L41.5951 18.9786L42.6915 18.6172L43.7913 18.2795L44.894 17.9654L45.999 17.675L47.1058 17.4082L48.2137 17.1651L49.3222 16.9456L50.4308 16.7497L51.5387 16.5774L52.6456 16.4285L53.7507 16.3031L54.8535 16.2009L55.9536 16.122L57.0502 16.0661L58.1429 16.0332L59.231 16.023L60.3141 16.0355L61.3916 16.0705L62.463 16.1277L63.5276 16.207L64.5851 16.3081L65.6349 16.4308L66.6764 16.5749L67.7092 16.74L68.7327 16.926L69.7465 17.1326L70.7501 17.3594L71.7429 17.6062L72.7246 17.8725L73.6947 18.1582L74.6527 18.4628L75.5981 18.7861L76.5306 19.1276L77.4497 19.4869L78.355 19.8637L79.2461 20.2576L80.1227 20.6682L80.9843 21.095L81.8305 21.5377L82.6611 21.9957L83.4756 22.4688L84.2737 22.9563L85.0552 23.4579L85.8197 23.9731L86.5668 24.5013L87.2964 25.0423L88.0081 25.5953L88.7018 26.1601L89.377 26.7359L90.0337 27.3224L90.6716 27.9191L91.2905 28.5253L91.8902 29.1407L92.4704 29.7646L93.0312 30.3966L93.5723 31.0361L94.0935 31.6826L94.5949 32.3354L95.0761 32.9942L95.5372 33.6583L95.9781 34.3273L96.3988 35.0005L96.7991 35.6774L97.179 36.3574L97.5385 37.0401L97.8777 37.7248L98.1965 38.4111L98.4949 39.0983L98.773 39.786L99.0309 40.4735L99.2685 41.1603L99.4861 41.846L99.6836 42.5299L99.8612 43.2116L100.019 43.8904L100.157 44.5659L100.276 45.2376L100.375 45.9049L100.455 46.5673L100.517 47.2243L100.559 47.8754L100.583 48.5201L100.589 49.158L100.576 49.7884L100.546 50.4111L100.498 51.0254L100.433 51.631L100.351 52.2273L100.253 52.814L100.138 53.3906L100.007 53.9566L99.8601 54.5117L99.6981 55.0554L99.5212 55.5874L99.3297 56.1072L99.1239 56.6145L98.9044 57.1089L98.6714 57.59L98.4255 58.0575L98.1669 58.5111L97.8962 58.9504L97.6138 59.3752L97.3201 59.785L97.0156 60.1797L96.7007 60.559L96.3759 60.9225L96.0417 61.2701L95.6985 61.6015L95.3469 61.9164L94.9873 62.2147L94.6202 62.4962L94.2462 62.7606L93.8656 63.0079L93.4792 63.2378L93.0873 63.4502L92.6904 63.6449L92.2892 63.822L91.8841 63.9811L91.4756 64.1223L91.0643 64.2455L90.6507 64.3507L90.2354 64.4376L89.8188 64.5065L89.4016 64.5571L88.9841 64.5896L88.5671 64.6039L88.1509 64.6001L87.7362 64.5782L87.3235 64.5382L86.9133 64.4802L86.5061 64.4043L86.1024 64.3106L85.7029 64.1992L85.3079 64.0703L84.918 63.9239L84.5337 63.7602L84.1556 63.5794L83.7841 63.3816L83.4197 63.1671L83.063 62.9361L82.7143 62.6887L82.3743 62.4252L82.0432 62.1459L81.7218 61.851L81.4103 61.5407L81.1093 61.2154L80.8191 60.8754L80.5403 60.5209L80.2733 60.1522L80.0184 59.7698L79.7761 59.3739L79.5468 58.9649L79.3309 58.5432L79.1288 58.1091L78.9408 57.663L78.7674 57.2053L78.6088 56.7364L78.4653 56.2567L78.3375 55.7666L78.2255 55.2667L78.1296 54.7572L78.0503 54.2386L77.9876 53.7115L77.942 53.1762L77.9137 52.6333L77.9028 52.0832L77.9098 51.5264L77.9347 50.9633L77.9778 50.3946L78.0394 49.8206L78.1194 49.2419L78.2183 48.659L78.336 48.0724L78.4727 47.4827L78.6286 46.8903L78.8038 46.2958L78.9984 45.6997L79.2124 45.1026L79.446 44.505L79.6991 43.9074L79.9719 43.3103L80.2644 42.7144L80.5765 42.1201L80.9082 41.528L81.2597 40.9387L81.6308 40.3526L82.0214 39.7703L82.4316 39.1924L82.8613 38.6194L83.3103 38.0519L83.7785 37.4903L84.2659 36.9352L84.7724 36.3872L85.2977 35.8467L85.8417 35.3144L86.4043 34.7906L86.9852 34.276L87.5843 33.771L88.2014 33.2762L88.8361 32.792L89.4884 32.3189L90.1578 31.8575L90.8443 31.4082L91.5474 30.9715L92.2669 30.5479L93.0025 30.1377L93.7539 29.7416L94.5207 29.3599L95.3026 28.993L96.0992 28.6414L96.9103 28.3056L97.7353 27.9858L98.574 27.6826L99.4259 27.3963L100.291 27.1273L101.168 26.8759L102.057 26.6426L102.958 26.4277L103.869 26.2315L104.792 26.0543L105.724 25.8965L106.667 25.7584L107.618 25.6402L108.578 25.5422L109.547 25.4648L110.523 25.4081L111.507 25.3724L112.497 25.3579L113.493 25.3649L114.495 25.3935L115.502 25.444L116.514 25.5164L117.53 25.6111L118.549 25.728L119.571 25.8674L120.596 26.0294L121.622 26.2141L122.65 26.4215L123.679 26.6518L124.707 26.9049L125.735 27.1811L126.762 27.4802L127.788 27.8023L128.812 28.1474L129.832 28.5156L130.85 28.9067L131.863 29.3207L132.872 29.7576L133.876 30.2173L134.875 30.6998L135.867 31.2049L136.853 31.7325L137.832 32.2825L138.802 32.8547L139.765 33.4491L140.718 34.0653L141.662 34.7033L142.596 35.3629L143.519 36.0438L144.431 36.7458L145.332 37.4686L146.22 38.2121L147.096 38.9759L147.959 39.7599L148.808 40.5635L149.643 41.3867L150.463 42.2291L151.268 43.0902L152.057 43.9699L152.831 44.8677L153.588 45.7833L154.328 46.7163L155.05 47.6663L155.755 48.6329L156.442 49.6158L157.11 50.6144L157.759 51.6284L158.389 52.6573L158.999 53.7006L159.588 54.758L160.158 55.8289L160.706 56.9129L161.233 58.0095L161.739 59.1182L162.224 60.2385L162.686 61.3698L163.126 62.5117L163.543 63.6637L163.937 64.8252L164.309 65.9956L164.657 67.1746L164.982 68.3614L165.283 69.5555L165.56 70.7565L165.813 71.9636L166.043 73.1765L166.247 74.3944L166.428 75.6168L166.584 76.8433L166.715 78.073L166.822 79.3056L166.903 80.5404L166.96 81.7768L166.993 83.0143L167 84.2523L166.982 85.4901L166.94 86.7272L166.873 87.963L166.781 89.197L166.664 90.4285L166.523 91.657L166.357 92.8818L166.167 94.1025L165.952 95.3184L165.713 96.529L165.45 97.7337L165.163 98.932L164.852 100.123L164.518 101.307L164.16 102.482L163.779 103.649L163.376 104.807L162.949 105.955L162.5 107.093L162.029 108.219L161.536 109.335L161.021 110.439L160.485 111.53L159.928 112.609L159.351 113.675L158.753 114.726L158.135 115.764L157.497 116.787L156.84 117.795L156.165 118.787L155.47 119.763L154.758 120.723L154.028 121.666L153.281 122.592L152.518 123.5L151.738 124.391L150.942 125.263L150.13 126.117L149.304 126.951L148.464 127.766L147.609 128.562L146.741 129.338L145.86 130.093L144.966 130.829L144.061 131.543L143.144 132.236L142.216 132.909L141.278 133.559L140.331 134.189L139.374 134.796L138.408 135.381L137.434 135.944L136.453 136.485L135.464 137.004L134.469 137.5L133.468 137.973L132.462 138.423L131.451 138.851L130.436 139.256L129.417 139.637L128.395 139.996L127.371 140.332L126.344 140.645L125.317 140.934L124.288 141.201L123.26 141.445L122.231 141.666L121.204 141.864L120.178 142.04L119.155 142.192L118.133 142.323L117.116 142.43L116.101 142.516L115.091 142.579L114.086 142.621L113.086 142.641L112.093 142.639L111.105 142.616L110.124 142.572L109.151 142.506L108.186 142.421L107.229 142.314L106.282 142.188L105.343 142.042L104.415 141.876L103.497 141.691L102.589 141.487L101.693 141.265L100.809 141.024L99.9369 140.765L99.0773 140.489L98.2307 140.196L97.3976 139.886L96.5782 139.56L95.773 139.217L94.9823 138.86L94.2065 138.487L93.4459 138.099L92.7009 137.697L91.9719 137.281L91.259 136.852L90.5626 136.41L89.8831 135.956L89.2206 135.49L88.5755 135.012L87.9479 134.524L87.3381 134.025L86.7464 133.516L86.1729 132.997L85.6179 132.47L85.0814 131.934L84.5638 131.391L84.0651 130.84L83.5855 130.282L83.125 129.718L82.6839 129.148L82.2622 128.573L81.8599 127.993L81.4772 127.409L81.1142 126.822L80.7707 126.231L80.447 125.638L80.1429 125.043L79.8584 124.447L79.5936 123.849L79.3485 123.252L79.1229 122.654L78.9168 122.058L78.7301 121.462L78.5628 120.868L78.4147 120.277L78.2857 119.688L78.1757 119.103L78.0846 118.522L78.0121 117.945L77.9581 117.373L77.9224 116.807L77.9048 116.246L77.9051 115.692L77.9231 115.145L77.9585 114.605L78.0111 114.073L78.0806 113.549L78.1667 113.034L78.2692 112.529L78.3877 112.033L78.5219 111.547L78.6715 111.072L78.8362 110.607L79.0157 110.154L79.2095 109.713L79.4172 109.284L79.6386 108.867L79.8733 108.463L80.1207 108.073L80.3806 107.696L80.6525 107.333L80.936 106.985L81.2306 106.651L81.5359 106.331L81.8516 106.027L82.177 105.739L82.5117 105.466L82.8553 105.209L83.2073 104.968L83.5673 104.744L83.9346 104.536L84.3089 104.345L84.6895 104.171L85.0762 104.015L85.4682 103.875L85.8651 103.754L86.2664 103.649L86.6716 103.563L87.0801 103.494L87.4914 103.444L87.905 103.411L88.3203 103.396L88.7369 103.4L89.1542 103.422L89.5716 103.462L89.9886 103.52L90.4047 103.596L90.8194 103.69L91.2321 103.803L91.6424 103.933L92.0495 104.082L92.4531 104.248L92.8526 104.432L93.2475 104.634L93.6373 104.854L94.0214 105.091L94.3993 105.345L94.7706 105.617L95.1347 105.905L95.4911 106.21L95.8394 106.532L96.1789 106.87L96.5094 107.224L96.8302 107.594L97.1409 107.979L97.4411 108.38L97.7302 108.796L98.0079 109.227L98.2737 109.672L98.5272 110.131L98.7679 110.605L98.9955 111.091L99.2094 111.591L99.4094 112.103L99.595 112.628L99.7659 113.165L99.9217 113.713L100.062 114.273L100.187 114.843L100.295 115.424L100.387 116.015L100.462 116.615L100.52 117.224L100.561 117.842L100.584 118.468L100.589 119.101L100.576 119.742L100.544 120.389L100.494 121.043L100.425 121.702L100.337 122.367L100.23 123.036L100.103 123.709L99.9571 124.386L99.7913 125.066L99.6056 125.749L99.3999 126.433L99.1742 127.12L98.9283 127.807L98.6622 128.494L98.3758 129.182L98.0691 129.869L97.742 130.555L97.3946 131.238L97.0267 131.92L96.6385 132.599L96.2299 133.274L95.801 133.946L95.3518 134.613L94.8825 135.275L94.3931 135.931L93.8836 136.582L93.3543 137.225L92.8052 137.862L92.2364 138.491L91.6482 139.111L91.0407 139.723L90.414 140.325L89.7685 140.918L89.1042 141.5L88.4214 142.072L87.7204 142.632L87.0013 143.18L86.2646 143.716L85.5103 144.239L84.7389 144.748L83.9506 145.244L83.1457 145.726L82.3247 146.193L81.4877 146.645L80.6351 147.081L79.7674 147.501L78.8849 147.905L77.9879 148.292L77.0769 148.662L76.1523 149.014L75.2145 149.348L74.2639 149.664L73.301 149.961L72.3261 150.239L71.3398 150.497L70.3425 150.736L69.3348 150.954L68.3169 151.152L67.2896 151.33L66.2532 151.487L65.2082 151.622L64.1553 151.736L63.0948 151.828L62.0273 151.898L60.9534 151.947L59.8736 151.973L58.7883 151.976L57.6983 151.956L56.6039 151.914L55.5059 151.849L54.4046 151.761L53.3008 151.649L52.1949 151.514L51.0875 151.355L49.9792 151.174L48.8706 150.968L47.7623 150.739L46.6548 150.486L45.5487 150.21L44.4445 149.91L43.3429 149.586L42.2444 149.239L41.1497 148.868L40.0592 148.473L38.9736 148.055L37.8934 147.614L36.8193 147.15L35.7517 146.662L34.6912 146.152L33.6384 145.618L32.5939 145.062L31.5582 144.483L30.5319 143.882L29.5154 143.259L28.5095 142.614L27.5145 141.947L26.531 141.259L25.5595 140.55L24.6007 139.819L23.6548 139.068L22.7226 138.297L21.8044 137.506L20.9007 136.694L20.0121 135.864L19.139 135.014L18.2818 134.146L17.4411 133.26L16.6172 132.355L15.8106 131.433L15.0217 130.494L14.251 129.538L13.4988 128.566L12.7655 127.577L12.0516 126.574L11.3573 125.555L10.6831 124.522L10.0293 123.475L9.39616 122.414L8.78411 121.34L8.19342 120.254L7.62439 119.155L7.07731 118.045L6.55245 116.924L6.05007 115.792L5.57041 114.65L5.11371 113.499L4.68019 112.339L4.27006 111.17L3.8835 109.994L3.5207 108.81L3.18181 107.62L2.86699 106.423L2.57638 105.221L2.31008 104.014L2.06821 102.802L1.85087 101.587L1.65811 100.368L1.49002 99.1463L1.34664 97.9227L1.22799 96.6975L1.1341 95.4714L1.06497 94.2449L1.02059 93.0186L1.00093 91.7931L1.00595 90.5689L1.0356 89.3468L1.08981 88.1271L1.16848 86.9106L1.27153 85.6977L1.39883 84.4891L1.55026 83.2854L1.72567 82.087L1.92491 80.8945L2.14782 79.7086L2.39419 78.5297L2.66383 77.3584L2.95654 76.1953L3.27209 75.0408L3.61022 73.8956L3.9707 72.76L4.35326 71.6347L4.75761 70.5202L5.18347 69.4169L5.63053 68.3254L6.09848 67.2461L6.58698 66.1795L7.0957 65.1261L7.62429 64.0864L8.17237 63.0607L8.73959 62.0496L9.32554 61.0534L9.92984 60.0726L10.5521 59.1076L11.1918 58.1588L11.8487 57.2266L12.5222 56.3114L13.2119 55.4134L13.9174 54.5332L14.6382 53.671L15.3738 52.8271L16.1238 52.0019L16.8876 51.1957L17.6648 50.4088L18.4549 49.6414L19.2573 48.8938L20.0716 48.1663L20.8972 47.4592L21.7336 46.7725L22.5802 46.1067L23.4366 45.4617L24.3022 44.838L25.1764 44.2355L26.0587 43.6546L26.9486 43.0952L27.8455 42.5576L28.7487 42.0419L29.6579 41.5481L30.5724 41.0764L31.4916 40.6268L32.415 40.1994L33.3421 39.7942L34.2721 39.4112L35.2047 39.0506L36.1392 38.7122L37.075 38.396L38.0116 38.1021L38.9484 37.8304L39.8849 37.5807L40.8205 37.3532L41.7547 37.1476L42.6868 36.9638L43.6164 36.8018L44.5429 36.6614L45.4657 36.5425L46.3844 36.4449L47.2983 36.3684L48.207 36.3129L49.1099 36.2782L50.0066 36.264L50.8964 36.2701L51.7789 36.2963L52.6537 36.3423L53.5201 36.4079L54.3778 36.4929L55.2262 36.5968L56.0649 36.7194L56.8934 36.8605L57.7113 37.0196L58.5181 37.1964L59.3135 37.3907L60.0969 37.602L60.868 37.8299L61.6263 38.0742L62.3715 38.3344L63.1032 38.61L63.821 38.9008L64.5246 39.2063L65.2136 39.5261L65.8877 39.8596L66.5465 40.2066L67.1898 40.5665L67.8172 40.9389L68.4285 41.3233L69.0233 41.7193L69.6014 42.1263L70.1627 42.5439L70.7067 42.9716L71.2334 43.4089L71.7424 43.8553L72.2336 44.3103L72.7069 44.7734L73.162 45.244L73.5988 45.7217L74.0172 46.2059L74.417 46.696L74.7981 47.1917L75.1604 47.6923L75.5039 48.1973L75.8284 48.7061L76.134 49.2183L76.4204 49.7332L76.6879 50.2505L76.9363 50.7694L77.1656 51.2895L77.3758 51.8103L77.5671 52.3311L77.7393 52.8515L77.8926 53.371L78.0272 53.8889L78.1429 54.4049L78.24 54.9182L78.3185 55.4285L78.3787 55.9353L78.4206 56.4379L78.4444 56.9358L78.4502 57.4287L78.4384 57.9159L78.4089 58.397L78.3622 58.8715L78.2983 59.3389L78.2175 59.7987L78.1201 60.2504L78.0064 60.6936L77.8765 61.1279L77.7309 61.5527L77.5697 61.9677L77.3934 62.3724L77.2022 62.7663L76.9965 63.1491L76.7765 63.5204L76.5428 63.8797L76.2955 64.2267L76.0352 64.5609L75.7621 64.8821L75.4768 65.1899L75.1795 65.4839L74.8708 65.7638L74.5509 66.0292L74.2205 66.2799L73.8798 66.5155L73.5294 66.7358L73.1697 66.9404L72.8011 67.1292L72.4242 67.3019L72.0394 67.4582L71.6472 67.5978L71.2481 67.7207L70.8426 67.8266L70.4311 67.9152L70.0142 67.9865L69.5924 68.0402L69.1663 68.0763L68.7362 68.0946L68.3028 68.0949L67.8666 68.0772L67.428 68.0413L66.9877 67.9873L66.5461 67.915L66.1038 67.8244L65.6614 67.7154L65.2192 67.588L64.778 67.4423L64.3382 67.2782L63.9004 67.0958L63.465 66.8951L63.0327 66.6761L62.604 66.4389L62.1793 66.1837L61.7593 65.9104L61.3444 65.6192L60.9351 65.3102L60.5321 64.9836L60.1357 64.6395L59.7466 64.2781L59.3652 63.8995L58.992 63.504L58.6275 63.0917L58.2723 62.6628L57.9267 62.2177L57.5913 61.7565L57.2666 61.2794L56.953 60.7869L56.651 60.2791L56.3611 59.7563L56.0836 59.2189L55.819 58.6672L55.5678 58.1014L55.3303 57.522L55.1071 56.9292L54.8984 56.3236L54.7047 55.7053L54.5263 55.0749L54.3637 54.4326L54.2171 53.779L54.087 53.1144L53.9737 52.4393L53.8774 51.7541L53.7986 51.0591L53.7376 50.355L53.6946 49.6421L53.6698 48.9209L53.6637 48.1919L53.6764 47.4555L53.7082 46.7123L53.7592 45.9627L53.8299 45.2073L53.9202 44.4466L54.0305 43.681L54.1609 42.9111L54.3116 42.1374L54.4827 41.3604L54.6743 40.5808L54.8867 39.7989L55.1199 39.0154L55.3739 38.2308L55.6489 37.4456L55.945 36.6604L56.2621 35.8757L56.6004 35.0922L56.9599 34.3103L57.3405 33.5305L57.7423 32.7536L58.1652 31.9799L58.6092 31.2101L59.0743 30.4447L59.5603 29.6842L60.0673 28.9293L60.5951 28.1805L61.1437 27.4383L61.7128 26.7032L62.3024 25.9758L62.9123 25.2567L63.5423 24.5464L64.1923 23.8453L64.8621 23.1541L65.5515 22.4733L66.2602 21.8034L66.988 21.1448L67.7348 20.4981L68.5001 19.8639L69.2838 19.2425L70.0855 18.6345L70.905 18.0403L71.7419 17.4605L72.596 16.8955L73.4668 16.3457L74.3542 15.8117L75.2575 15.2937L76.1766 14.7924L77.1111 14.308L78.0605 13.8411L79.0244 13.3919L80.0024 12.961L80.9941 12.5486L81.9991 12.1552L83.017 11.7811L84.0471 11.4266L85.0892 11.0922L86.1427 10.7781L87.2072 10.4846L88.2822 10.212L89.3671 9.9607L90.4614 9.73088L91.5648 9.52283L92.6765 9.3368L93.7962 9.17303L94.9232 9.03173L96.0571 8.91314L97.1973 8.81744L98.3433 8.74481L99.4944 8.69543L100.65 8.66945L101.81 8.66702L102.974 8.68827L104.14 8.7333L105.309 8.80222L106.479 8.89511L107.651 9.01205L108.823 9.15308L109.996 9.31826L111.168 9.50761L112.339 9.72114L113.508 9.95884L114.675 10.2207L115.839 10.5067L117 10.8168L118.157 11.1509L119.309 11.5089L120.456 11.8909L121.597 12.2965L122.732 12.7258L123.86 13.1786L124.981 13.6548L126.094 14.1541L127.198 14.6764L128.293 15.2216L129.378 15.7894L130.453 16.3796L131.518 16.992L132.571 17.6262L133.613 18.2822L134.642 18.9595L135.658 19.658L136.661 20.3773L137.65 21.1171L138.625 21.877L139.586 22.6568L140.53 23.4561L141.46 24.2746L142.373 25.1118L143.269 25.9675L144.148 26.8411L145.01 27.7323L145.854 28.6407L146.68 29.5658L147.487 30.5073L148.275 31.4647L149.043 32.4375L149.792 33.4252L150.52 34.4275L151.228 35.4438L151.916 36.4736L152.582 37.5164L153.227 38.5718L153.85 39.6392L154.451 40.7181L155.03 41.8079L155.586 42.9083L156.12 44.0185L156.63 45.1381L157.118 46.2665L157.582 47.4032L158.023 48.5476L158.44 49.6992L158.834 50.8573L159.203 52.0215L159.548 53.1912L159.87 54.3657L160.167 55.5445L160.439 56.727L160.688 57.9127L160.911 59.101L161.111 60.2912L161.286 61.4829L161.436 62.6754L161.562 63.8681L161.663 65.0605L161.741 66.2519L161.793 67.4419L161.822 68.6298L161.826 69.8151L161.806 70.9971L161.763 72.1754L161.695 73.3493L161.604 74.5184L161.489 75.6819L161.351 76.8395L161.189 77.9904L161.005 79.1343L160.798 80.2706L160.568 81.3986L160.317 82.518L160.043 83.6282L159.747 84.7286L159.43 85.8188L159.091 86.8983L158.732 87.9665L158.352 89.0231L157.952 90.0675L157.532 91.0993L157.092 92.118L156.633 93.1232L156.155 94.1144L155.659 95.0912L155.145 96.0532L154.613 97L154.064 97.9312L153.498 98.8464L152.916 99.7453L152.318 100.627L151.704 101.493L151.076 102.34L150.432 103.17L149.775 103.982L149.104 104.776L148.42 105.551L147.724 106.307L147.015 107.044L146.295 107.761L145.564 108.459L144.822 109.137L144.07 109.795L143.309 110.433L142.538 111.05L141.76 111.647L140.973 112.222L140.179 112.777L139.379 113.311L138.572 113.824L137.759 114.316L136.942 114.786L136.12 115.235L135.294 115.663L134.464 116.069L133.632 116.454L132.797 116.817L131.961 117.158L131.123 117.479L130.285 117.777L129.446 118.055L128.609 118.311L127.772 118.546L126.936 118.76L126.103 118.952L125.273 119.124L124.446 119.275L123.622 119.406L122.803 119.516L121.989 119.606L121.18 119.675L120.376 119.725L119.579 119.755L118.789 119.766L118.007 119.757L117.232 119.73L116.465 119.684L115.707 119.619L114.959 119.537L114.22 119.436L113.491 119.318L112.773 119.183L112.066 119.031L111.37 118.863L110.686 118.678L110.015 118.478L109.356 118.263L108.71 118.032L108.077 117.787L107.459 117.528L106.854 117.255L106.264 116.968L105.688 116.669L105.128 116.358L104.583 116.034L104.053 115.699L103.54 115.352L103.043 114.996L102.562 114.629L102.098 114.252L101.651 113.866L101.221 113.472L100.808 113.07L100.413 112.659L100.035 112.242L99.6755 111.818L99.3338 111.388L99.0101 110.953L98.7047 110.512L98.4176 110.067L98.1489 109.618L97.8986 109.165L97.6669 108.71L97.4537 108.252L97.2591 107.792L97.0832 107.331L96.9258 106.869L96.7871 106.407L96.6669 105.945L96.5652 105.484L96.482 105.025L96.4172 104.567L96.3707 104.111L96.3424 103.659L96.3322 103.21L96.34 102.765L96.3656 102.324L96.4088 101.888L96.4696 101.458L96.5476 101.034L96.6428 100.616L96.7549 100.206L96.8836 99.8022L97.0289 99.4068L97.1903 99.0198L97.3676 98.6417L97.5607 98.2729L97.769 97.9139L97.9925 97.565L98.2308 97.2268L98.4835 96.8997L98.7503 96.5841L99.0309 96.2803L99.325 95.9888L99.632 95.71L99.9518 95.4443L100.284 95.192L100.628 94.9534L100.983 94.729L101.35 94.519L101.727 94.3238L102.114 94.1438L102.512 93.9791L102.918 93.8301L103.334 93.697L103.758 93.5802L104.189 93.4799L104.629 93.3963L105.075 93.3297L105.528 93.2802L105.987 93.2481L106.451 93.2335L106.92 93.2367L107.394 93.2578L107.872 93.2969L108.353 93.3542L108.837 93.4298L109.324 93.5238L109.812 93.6362L110.302 93.7673L110.793 93.917L111.283 94.0853L111.774 94.2724L112.264 94.4783L112.752 94.7028L113.239 94.9462L113.723 95.2082L114.205 95.4889L114.682 95.7883L115.156 96.1062L115.625 96.4426L116.09 96.7974L116.548 97.1705L117 97.5618L117.446 97.9711L117.885 98.3982L118.316 98.8431L118.738 99.3055L119.152 99.7853L119.557 100.282L119.952 100.796L120.337 101.327L120.711 101.874L121.074 102.437L121.425 103.016L121.764 103.611L122.091 104.221L122.404 104.846L122.704 105.486L122.99 106.14L123.262 106.809L123.519 107.491L123.761 108.186L123.987 108.895L124.198 109.616L124.392 110.349L124.569 111.094L124.73 111.85L124.873 112.617L124.998 113.395L125.105 114.182L125.194 114.98L125.264 115.786L125.315 116.601L125.347 117.425L125.36 118.256L125.353 119.094L125.325 119.939L125.278 120.79L125.21 121.647L125.121 122.509L125.012 123.376L124.882 124.247L124.73 125.121L124.557 125.999L124.363 126.879L124.147 127.761L123.91 128.644L123.651 129.528L123.37 130.413L123.067 131.297L122.742 132.181L122.395 133.063L122.027 133.944L121.636 134.821L121.223 135.696L120.789 136.568L120.333 137.435L119.854 138.297L119.354 139.154L118.833 140.005L118.29 140.85L117.725 141.688L117.139 142.519L116.532 143.341L115.904 144.155L115.255 144.96L114.585 145.755L113.895 146.54L113.184 147.314L112.454 148.077L111.703 148.828L110.934 149.567L110.145 150.294L109.336 151.007L108.51 151.706L107.665 152.391L106.801 153.061L105.92 153.716L105.022 154.356L104.107 154.979L103.175 155.586L102.226 156.176L101.262 156.748L100.282 157.303L99.287 157.84L98.2774 158.358L97.2535 158.857L96.2159 159.336L95.1648 159.796L94.1009 160.236L93.0245 160.656L91.9362 161.055L90.8364 161.432L89.7256 161.789L88.6044 162.124L87.4731 162.437L86.3325 162.727L85.1829 162.996L84.0249 163.242L82.8591 163.464L81.686 163.664L80.5061 163.841L79.3199 163.994L78.1282 164.123L76.9313 164.229L75.7299 164.31L74.5245 164.368L73.3157 164.402L72.1041 164.411L70.8903 164.396L69.6748 164.356L68.4583 164.292L67.2412 164.204L66.0243 164.091L64.808 163.953L63.5929 163.791L62.3798 163.604L61.169 163.393L59.9613 163.157L58.7571 162.897L57.5571 162.613L56.3619 162.305L55.172 161.972L53.988 161.615L52.8105 161.235L51.6401 160.831L50.4772 160.403L49.3225 159.952L48.1765 159.478L47.0397 158.981L45.9128 158.461L44.7962 157.919L43.6905 157.354L42.5962 156.767L41.5138 156.159L40.4438 155.529L39.3868 154.878L38.3432 154.206L37.3135 153.514L36.2982 152.802L35.2978 152.069L34.3127 151.318L33.3435 150.547L32.3904 149.757L31.454 148.95L30.5347 148.124L29.6329 147.28L28.749 146.42L27.8834 145.543L27.0365 144.65L26.2086 143.741L25.4002 142.817L24.6114 141.878L23.8428 140.924L23.0946 139.957L22.367 138.977L21.6605 137.983L20.9753 136.977L20.3116 135.96L19.6698 134.931L19.05 133.891L18.4525 132.841L17.8775 131.782L17.3252 130.713L16.7958 129.636L16.2895 128.55L15.8064 127.457L15.3467 126.358L14.9105 125.251L14.4979 124.14L14.109 123.022L13.744 121.901L13.4028 120.775L13.0856 119.645L12.7924 118.513L12.5232 117.378L12.278 116.242L12.0568 115.104L11.8597 113.966L11.6866 112.828L11.5373 111.69L11.412 110.553L11.3105 109.418L11.2327 108.286L11.1785 107.156L11.1478 106.029L11.1405 104.907L11.1564 103.789L11.1954 102.676L11.2573 101.568L11.3419 100.467L11.4489 99.3722L11.5783 98.2848L11.7297 97.2051L11.9029 96.1336L12.0977 95.0709L12.3138 94.0175L12.551 92.9738L12.8088 91.9404L13.0871 90.9177L13.3854 89.9062L13.7036 88.9064L14.0411 87.9187L14.3978 86.9436L14.7732 85.9814L15.1669 85.0328L15.5786 84.0979L16.0079 83.1774L16.4543 82.2715L16.9175 81.3806L17.3971 80.5052L17.8925 79.6455L18.4033 78.802L18.9292 77.975L19.4696 77.1648L20.0241 76.3716L20.5922 75.596L21.1735 74.838L21.7673 74.098L22.3733 73.3763L22.991 72.6731L23.6197 71.9886L24.2591 71.3231L24.9086 70.6769L25.5676 70.05L26.2357 69.4426L26.9123 68.855L27.5969 68.2874L28.289 67.7397L28.9879 67.2123L29.6932 66.7051L30.4043 66.2183L31.1206 65.752L31.8417 65.3062L32.5668 64.8811L33.2956 64.4766L34.0275 64.0927L34.7618 63.7296L35.4981 63.3871L36.2357 63.0653L36.9742 62.7642L37.7129 62.4836L38.4514 62.2236L39.1891 61.9841L39.9254 61.7649L40.6599 61.5661L41.3919 61.3874L42.1209 61.2287L42.8464 61.0899L43.5679 60.9709L44.2849 60.8714L44.9968 60.7914L45.7031 60.7305L46.4033 60.6886L47.097 60.6654L47.7836 60.6608L48.4626 60.6744L49.1337 60.7061L49.7962 60.7555L50.4497 60.8223L51.0939 60.9063L51.7281 61.0072L52.3521 61.1246L52.9653 61.2581L53.5674 61.4075L54.158 61.5725L54.7365 61.7525L55.3028 61.9473L55.8562 62.1565L56.3966 62.3797L56.9236 62.6164L57.4367 62.8663L57.9357 63.129L58.4202 63.4039L58.89 63.6908L59.3447 63.989L59.784 64.2983L60.2077 64.6181L60.6155 64.9479L61.0071 65.2873L61.3823 65.6358L61.741 65.9928L62.0828 66.3581L62.4075 66.7309L62.7151 67.1108L63.0053 67.4974L63.278 67.89L63.533 68.2883L63.7702 68.6916L63.9895 69.0994L64.1908 69.5113L64.3739 69.9267L64.5389 70.345L64.6856 70.7658L64.8141 71.1885L64.9243 71.6125L65.0161 72.0374L65.0896 72.4627L65.1448 72.8877L65.1817 73.3119L65.2004 73.7349L65.2009 74.156L65.1833 74.5748L65.1477 74.9908L65.0941 75.4034L65.0227 75.812L64.9336 76.2163L64.827 76.6156L64.703 77.0094L64.5618 77.3974L64.4035 77.7788L64.2284 78.1534L64.0367 78.5205L63.8285 78.8797L63.6042 79.2305L63.3639 79.5724L63.108 79.9051L62.8366 80.2279L62.5502 80.5405L62.2489 80.8424L61.9331 81.1333L61.6032 81.4126L61.2594 81.6799L60.902 81.9349L60.5316 82.1771L60.1483 82.4062L59.7526 82.6218L59.3449 82.8235L58.9255 83.0109L58.4949 83.1837L58.0536 83.3416L57.6018 83.4842L57.14 83.6113L56.6688 83.7225L56.1884 83.8174L55.6995 83.896L55.2024 83.9578L54.6976 84.0026L54.1857 84.0303L53.667 84.0405L53.1421 84.033L52.6115 84.0076L52.0757 83.9642L51.5351 83.9026L50.9904 83.8225L50.4419 83.7239L49.8903 83.6066L49.3361 83.4705L48.7798 83.3155L48.2219 83.1415L47.6629 82.9484L47.1035 82.7361L46.5441 82.5046L45.9852 82.2539L45.4275 81.9839L44.8715 81.6946L44.3176 81.386L43.7665 81.0582L43.2186 80.7112L42.6746 80.3449L42.135 79.9596L41.6002 79.5552L41.0709 79.1319L40.5476 78.6898L40.0308 78.2289L39.5211 77.7495L39.0189 77.2516L38.5247 76.7354L38.0392 76.2011L37.5628 75.6489L37.0961 75.079L36.6394 74.4916L36.1934 73.887L35.7586 73.2653L35.3353 72.6269L34.9241 71.972L34.5255 71.3008L34.1399 70.6137L33.7678 69.911L33.4096 69.193L33.0658 68.4601L32.7368 67.7125L32.4231 66.9506L32.125 66.1749L31.8429 65.3856L31.5773 64.5831L31.3286 63.7679L31.0971 62.9404L30.8831 62.1009L30.6871 61.25L30.5094 60.388L30.3503 59.5153L30.2101 58.6325L30.0892 57.74L29.9878 56.8383L29.9063 55.9278L29.8448 55.0091L29.8038 54.0826L29.7833 53.1488L29.7837 52.2083L29.8051 51.2615L29.8479 50.309L29.9121 49.3513L29.998 48.389L30.1057 47.4225L30.2353 46.4524L30.3871 45.4793L30.5612 44.5037L30.7576 43.5261L30.9764 42.5472L31.2178 41.5674L31.4818 40.5874L31.7684 39.6076L32.0778 38.6287L32.4099 37.6513L32.7647 36.6758L33.1422 35.7029L33.5425 34.7331L33.9655 33.767L34.411 32.8051L34.8792 31.8481L35.3698 30.8965L35.8829 29.9508L36.4183 29.0117L36.9758 28.0796L37.5554 27.1551L38.1568 26.2388L38.78 25.3312L39.4248 24.4329L40.0909 23.5444L40.7781 22.6663L41.4863 21.799L42.2152 20.9431L42.9646 20.0992L43.7341 19.2677L44.5236 18.4491L45.3327 17.6439L46.1612 16.8527L47.0087 16.0759L47.8749 15.3139L48.7594 14.5674L49.662 13.8366L50.5823 13.1222L51.5198 12.4244L52.4742 11.7438L53.4452 11.0808L54.4322 10.4358L55.435 9.80913L56.453 9.20128L57.4858 8.6126L58.533 8.04346L59.5942 7.49424L60.6688 6.96526L61.7564 6.45688L62.8565 5.96941L63.9686 5.50318L65.0922 5.05847L66.2269 4.6356L67.372 4.23482L68.5271 3.8564L69.6917 3.5006L70.8652 3.16764L72.047 2.85776L73.2367 2.57116L74.4337 2.30804L75.6374 2.06858L76.8472 1.85295L78.0627 1.66131L79.2832 1.49379L80.5081 1.35052L81.7369 1.23161L82.9691 1.13716L84.2039 1.06726L85.4409 1.02196L86.6795 1.00133L87.9191 1.00539L89.159 1.03418L90.3987 1.08771L91.6377 1.16597L92.8753 1.26894L94.1109 1.39657L95.344 1.54884L96.574 1.72567L97.8002 1.92697L99.0222 2.15267L100.239 2.40264L101.451 2.67678L102.657 2.97494L103.856 3.29696L105.048 3.6427L106.232 4.01195L107.408 4.40455L108.576 4.82027L109.733 5.2589L110.882 5.7202L112.019 6.20392L113.146 6.70981L114.261 7.23759L115.365 7.78698L116.455 8.35767L117.533 8.94935L118.598 9.56171L119.648 10.1944L120.685 10.8471L121.706 11.5194L122.712 12.2109L123.702 12.9214L124.676 13.6503L125.634 14.3973L126.574 15.1619L127.498 15.9438L128.403 16.7425L129.29 17.5576L130.159 18.3886L131.008 19.235L131.839 20.0964L132.65 20.9723L133.441 21.8623L134.212 22.7657L134.962 23.6822L135.692 24.6112L136.4 25.5522L137.088 26.5047L137.753 27.4682L138.397 28.442L139.019 29.4258L139.619 30.4189L140.197 31.4207L140.752 32.4309L141.284 33.4487L141.794 34.4736L142.28 35.5051L142.744 36.5426L143.184 37.5856L143.602 38.6334L143.995 39.6855L144.366 40.7413L144.713 41.8003L145.037 42.8619L145.337 43.9255L145.614 44.9905L145.867 46.0564L146.097 47.1225L146.304 48.1884L146.487 49.2535L146.647 50.3171L146.784 51.3788L146.898 52.4379L146.989 53.4939L147.058 54.5463L147.104 55.5945L147.127 56.638L147.128 57.6762L147.107 58.7086L147.064 59.7346L147 60.7538L146.914 61.7656L146.807 62.7695L146.679 63.765L146.53 64.7516L146.361 65.7288L146.172 66.6962L145.963 67.6532L145.735 68.5994L145.487 69.5343L145.221 70.4576L144.936 71.3687L144.634 72.2672L144.313 73.1527L143.975 74.0248L143.621 74.8831L143.249 75.7272L142.862 76.5568L142.459 77.3714L142.041 78.1707L141.608 78.9544L141.16 79.7222L140.699 80.4736L140.224 81.2085L139.736 81.9265L139.236 82.6273L138.724 83.3107L138.2 83.9764L137.665 84.6242L137.12 85.2538L136.565 85.865L136 86.4577L135.426 87.0315L134.844 87.5865L134.254 88.1223L133.657 88.6389L133.052 89.1361L132.442 89.6138L131.826 90.0719L131.204 90.5103L130.578 90.9289L129.948 91.3276L129.314 91.7065L128.677 92.0655L128.037 92.4045L127.396 92.7236L126.753 93.0228L126.11 93.302L125.466 93.5614L124.822 93.801L124.179 94.0208L123.538 94.2209L122.898 94.4015L122.261 94.5626L121.626 94.7044L120.995 94.827L120.369 94.9305L119.746 95.0152L119.129 95.0811L118.517 95.1285L117.911 95.1576L117.311 95.1687L116.719 95.1618L116.134 95.1374L115.557 95.0956L114.989 95.0366L114.429 94.9609L113.879 94.8687L113.338 94.7602L112.808 94.6359L112.288 94.496L111.779 94.3408L111.282 94.1708L110.797 93.9862L110.324 93.7875L109.863 93.575L109.416 93.3492L108.982 93.1103L108.561 92.8589L108.155 92.5953L107.763 92.32L107.385 92.0334L107.023 91.7359L106.676 91.428L106.344 91.1102L106.029 90.7829L105.729 90.4465L105.445 90.1017L105.178 89.7488L104.928 89.3883L104.695 89.0207L104.479 88.6466L104.28 88.2664L104.098 87.8807L103.934 87.4899L103.788 87.0946L103.66 86.6953L103.549 86.2925L103.457 85.8868L103.382 85.4786L103.326 85.0685L103.288 84.657L103.268 84.2447L103.266 83.832L103.283 83.4196L103.317 83.0079L103.37 82.5975L103.441 82.1889L103.531 81.7827L103.638 81.3793L103.763 80.9793L103.906 80.5832L104.066 80.1916L104.245 79.8049L104.44 79.4236L104.654 79.0483L104.884 78.6795L105.131 78.3177L105.395 77.9633L105.675 77.617L105.972 77.279L106.285 76.95L106.613 76.6304L106.958 76.3206L107.317 76.0212L107.692 75.7325L108.081 75.4551L108.485 75.1893L108.903 74.9356L109.334 74.6943L109.779 74.466L110.237 74.251L110.708 74.0497L111.191 73.8625L111.686 73.6898L112.193 73.5318L112.71 73.3891L113.239 73.2618L113.778 73.1504L114.326 73.0551L114.884 72.9763L115.451 72.9143L116.027 72.8693L116.61 72.8416L117.201 72.8315L117.799 72.8392L118.404 72.8649L119.015 72.909L119.631 72.9714L120.253 73.0526L120.879 73.1526L121.509 73.2717L122.143 73.4099L122.78 73.5674L123.419 73.7444L124.06 73.9409L124.703 74.157L125.346 74.3929L125.99 74.6486L126.634 74.9242L127.277 75.2197L127.919 75.5351L128.558 75.8704L129.196 76.2257L129.83 76.6009L130.461 76.996L131.088 77.4109L131.711 77.8456L132.328 78.3001L132.94 78.7741L133.545 79.2677L134.144 79.7807L134.735 80.313L135.319 80.8644L135.894 81.4348L136.461 82.024L137.018 82.6318L137.565 83.258L138.102 83.9024L138.628 84.5648L139.142 85.2449L139.645 85.9426L140.135 86.6574L140.612 87.3892L141.076 88.1376L141.526 88.9023L141.962 89.6831L142.383 90.4795L142.789 91.2913L143.179 92.1181L143.553 92.9596L143.911 93.8153L144.252 94.6849L144.576 95.5679L144.882 96.4641L145.17 97.3729L145.44 98.2939L145.691 99.2267L145.922 100.171L146.135 101.126L146.328 102.091L146.501 103.067L146.653 104.052L146.785 105.046L146.896 106.048L146.986 107.058L147.054 108.076L147.101 109.101L147.126 110.132L147.129 111.169L147.11 112.212L147.068 113.259L147.004 114.311L146.917 115.366L146.807 116.425L146.674 117.486L146.518 118.55L146.339 119.614L146.137 120.68L145.911 121.746L145.662 122.812L145.39 123.877L145.094 124.941L144.775 126.003L144.432 127.063L144.066 128.119L143.676 129.172L143.263 130.221L142.827 131.265L142.368 132.303L141.886 133.336L141.38 134.362L140.852 135.381L140.301 136.393L139.728 137.396L139.132 138.391L138.514 139.377L137.874 140.352L137.213 141.318L136.529 142.272L135.825 143.216L135.099 144.147L134.352 145.066L133.585 145.972L132.798 146.864L131.991 147.743L131.164 148.607L130.318 149.456L129.452 150.29L128.569 151.108L127.667 151.91L126.747 152.695L125.81 153.463L124.855 154.213L123.884 154.945L122.897 155.659L121.894 156.354L120.875 157.03L119.842 157.686L118.794 158.323L117.732 158.939L116.656 159.534L115.568 160.109L114.467 160.662L113.353 161.194L112.229 161.704L111.093 162.192L109.947 162.658L108.791 163.1L107.625 163.52L106.451 163.917L105.268 164.291L104.077 164.641L102.879 164.967L101.675 165.27L100.464 165.549L99.2482 165.803L98.027 166.033L96.8015 166.239L95.5722 166.42L94.3396 166.577L93.1044 166.71L91.8671 166.817L90.6284 166.9L89.3887 166.958L88.1488 166.991L86.9091 167L85.6703 166.984L84.433 166.943L83.1977 166.878L81.965 166.788L80.7355 166.674L79.5098 166.535L78.2885 166.372L77.072 166.185L75.8611 165.973L74.6562 165.738L73.458 165.48L72.2669 165.197L71.0835 164.892L69.9085 164.563L68.7422 164.211L67.5853 163.837L66.4383 163.441L65.3016 163.022L64.1759 162.581L63.0617 162.119L61.9593 161.635L60.8693 161.131L59.7923 160.606L58.7286 160.06L57.6788 159.495L56.6433 158.909L55.6225 158.305L54.6169 157.682L53.6269 157.04L52.6529 156.381L51.6954 155.703L50.7547 155.009L49.8312 154.297L48.9253 153.569L48.0374 152.826L47.1678 152.067L46.3168 151.293L45.4848 150.504L44.6721 149.701L43.8789 148.885L43.1057 148.056L42.3525 147.214L41.6198 146.361L40.9078 145.495L40.2166 144.619L39.5466 143.733L38.8979 142.836L38.2707 141.93L37.6652 141.016L37.0815 140.093L36.5199 139.162L35.9804 138.224L35.4632 137.279L34.9684 136.329L34.4961 135.373L34.0463 134.412L33.6192 133.446L33.2147 132.477L32.8329 131.505L32.4739 130.53L32.1376 129.553L31.824 128.574L31.5332 127.594L31.265 126.614L31.0194 125.635L30.7964 124.655L30.5959 123.678L30.4177 122.702L30.2618 121.728L30.128 120.757L30.0163 119.79L29.9264 118.827L29.8582 117.868L29.8115 116.915L29.7861 115.967L29.7818 115.025L29.7984 114.09L29.8357 113.162L29.8934 112.242L29.9712 111.33L30.0689 110.427L30.1862 109.532L30.3229 108.648L30.4785 107.773L30.6528 106.909L30.8454 106.056L31.0561 105.215L31.2844 104.385L31.53 103.567L31.7925 102.762L32.0715 101.971L32.3666 101.192L32.6775 100.428L33.0037 99.6776L33.3448 98.9419L33.7003 98.2211L34.0699 97.5155L34.453 96.8255L34.8493 96.1514L35.2582 95.4935L35.6792 94.8519L36.112 94.2271L36.556 93.6193L37.0107 93.0287L37.4756 92.4556L37.9502 91.9001L38.4341 91.3625L38.9267 90.8429L39.4274 90.3416L39.9358 89.8588L40.4514 89.3944L40.9735 88.9488L41.5017 88.522L42.0355 88.1141L42.5743 87.7253L43.1175 87.3555L43.6647 87.0049L44.2152 86.6735L44.7686 86.3613L45.3243 86.0685L45.8818 85.7949L46.4405 85.5406L46.9998 85.3056L47.5593 85.0897L48.1184 84.8931L48.6765 84.7155L49.2332 84.557L49.7878 84.4174L50.3399 84.2966L50.889 84.1946L51.4345 84.1111L51.9758 84.0461L52.5126 83.9993L53.0442 83.9706L53.5702 83.9598L54.0901 83.9667L54.6033 83.9911L55.1094 84.0328L55.608 84.0915L56.0985 84.167L56.5804 84.2589L57.0534 84.3671L57.5169 84.4912L57.9706 84.631L58.414 84.7861L58.8466 84.9562L59.268 85.1409L59.6779 85.34L60.0759 85.553L60.4615 85.7796L60.8344 86.0195L61.1942 86.2721L61.5405 86.5372L61.873 86.8143L62.1915 87.103L62.4955 87.403L62.7847 87.7136L63.0588 88.0346L63.3177 88.3654L63.5608 88.7057L63.7882 89.0549L63.9993 89.4126L64.1941 89.7782L64.3723 90.1514L64.5338 90.5317L64.6782 90.9184L64.8054 91.3112L64.9152 91.7096L65.0075 92.1129L65.0822 92.5208L65.1391 92.9327L65.1781 93.3481L65.199 93.7664L65.2019 94.1872L65.1866 94.6098L65.153 95.0339L65.1012 95.4588L65.0311 95.884L64.9427 96.309L64.8359 96.7333L64.7108 97.1562L64.5675 97.5774L64.4059 97.9962L64.2261 98.4122L64.0281 98.8247L63.8122 99.2334L63.5783 99.6376L63.3266 100.037L63.0572 100.431L62.7702 100.818L62.4659 101.199L62.1442 101.574L61.8056 101.94L61.45 102.299L61.0779 102.649L60.6892 102.99L60.2844 103.322L59.8637 103.643L59.4272 103.955L58.9754 104.255L58.5084 104.544L58.0266 104.821L57.5303 105.086L57.0197 105.338L56.4953 105.578L55.9574 105.803L55.4063 106.015L54.8424 106.213L54.2661 106.396L53.6778 106.563L53.0778 106.716L52.4666 106.852L51.8446 106.973L51.2122 107.076L50.5698 107.164L49.918 107.234L49.2571 107.286L48.5876 107.321L47.91 107.338L47.2248 107.337L46.5324 107.317L45.8333 107.279L45.1281 107.222L44.4172 107.145L43.7011 107.049L42.9804 106.934L42.2556 106.799L41.5272 106.644L40.7957 106.469L40.0617 106.274L39.3257 106.058L38.5882 105.823L37.8498 105.566L37.1111 105.29L36.3725 104.992L35.6347 104.674L34.8981 104.336L34.1634 103.976L33.431 103.596L32.7016 103.196L31.9757 102.774L31.2539 102.332L30.5366 101.87L29.8245 101.387L29.1181 100.883L28.418 100.36L27.7246 99.8159L27.0386 99.2519L26.3605 98.668L25.6908 98.0643L25.03 97.441L24.3787 96.7983L23.7374 96.1364L23.1066 95.4554L22.4869 94.7557L21.8787 94.0374L21.2826 93.3007L20.699 92.5461L20.1284 91.7736L19.5713 90.9837L19.0283 90.1766L18.4997 89.3527L17.986 88.5122L17.4877 87.6555L17.0052 86.783L16.5389 85.895L16.0894 84.9918L15.6569 84.0739L15.2419 83.1417L14.8448 82.1956L14.466 81.2359L14.1058 80.2632L13.7647 79.2778L13.4429 78.2802L13.1408 77.2708L12.8588 76.2502L12.5972 75.2187L12.3562 74.1769L12.1362 73.1252L11.9374 72.0642L11.7602 70.9943L11.6047 69.9161L11.4712 68.8301L11.36 67.7368L11.2712 66.6367L11.2052 65.5303L11.1619 64.4183L11.1417 63.3011L11.1447 62.1794L11.1711 61.0535L11.2209 59.9243L11.2943 58.792L11.3914 57.6575L11.5123 56.5211L11.6571 55.3835L11.8258 54.2453L12.0185 53.107L12.2352 51.9692L12.4759 50.8325L12.7407 49.6975L13.0295 48.5646L13.3422 47.4347L13.679 46.3081L14.0396 45.1854L14.424 44.0674L14.8322 42.9544L15.2641 41.8471L15.7194 40.7461L16.1982 39.6519L16.7002 38.5651L17.2254 37.4862L17.7734 36.4158L18.3442 35.3545L18.9376 34.3028L19.5533 33.2612L20.191 32.2303L20.8507 31.2105L21.5319 30.2025L22.2345 29.2068L22.9582 28.2238L23.7026 27.2541L24.4675 26.2981L25.2525 25.3564L26.0574 24.4294L26.8817 23.5176L27.7251 22.6214L28.5872 21.7414L29.4678 20.8779L30.3663 20.0314L31.2824 19.2024L32.2156 18.3912L33.1656 17.5982L34.1319 16.8239L35.1141 16.0686L36.1117 15.3327L37.1243 14.6165L38.1513 13.9205L39.1924 13.2449L40.2469 12.5901L41.3145 11.9563L42.3947 11.344L43.4868 10.7533L44.5905 10.1846L45.7051 9.63806L46.8301 9.114L47.9651 8.61264L49.1094 8.13419L50.2626 7.67888L51.424 7.24688L52.5931 6.83838L53.7693 6.45355L54.9522 6.09254L56.141 5.75549L57.3353 5.44252L58.5344 5.15374L59.7378 4.88924L60.945 4.64912L62.1552 4.43342L63.368 4.24221L64.5827 4.07551L65.7988 3.93335L67.0157 3.81575L68.2328 3.72268L69.4494 3.65412L70.6652 3.61005L71.8793 3.59041L73.0914 3.59512L74.3007 3.62412L75.5068 3.6773L76.709 3.75455L77.9067 3.85576L79.0995 3.98078L80.2867 4.12946L81.4678 4.30163L82.6423 4.49711L83.8095 4.71571L84.969 4.95722L86.1201 5.22142L87.2625 5.50807L88.3955 5.81693L89.5186 6.14773L90.6313 6.5002L91.7332 6.87406L92.8237 7.26899L93.9023 7.6847L94.9686 8.12086L96.0221 8.57714L97.0623 9.05318L98.0887 9.54862L99.101 10.0631L100.099 10.5963L101.081 11.1477L102.049 11.7169L103 12.3037L103.935 12.9074L104.854 13.5278L105.755 14.1644L106.639 14.8166L107.506 15.4841L108.354 16.1664L109.185 16.863L109.996 17.5735L110.789 18.2973L111.562 19.034L112.316 19.783L113.05 20.5438L113.764 21.316L114.458 22.099L115.132 22.8922L115.785 23.6953L116.417 24.5075L117.028 25.3284L117.618 26.1574L118.187 26.9941L118.734 27.8377L119.259 28.6879L119.763 29.544L120.246 30.4054L120.706 31.2717L121.145 32.1422L121.561 33.0165L121.956 33.8938L122.329 34.7738L122.679 35.6557L123.008 36.5391L123.315 37.4234L123.6 38.308L123.863 39.1924L124.105 40.076L124.325 40.9583L124.523 41.8388L124.7 42.7168L124.855 43.5918L124.989 44.4634L125.103 45.3309L125.195 46.1938L125.267 47.0517L125.318 47.904L125.349 48.7501L125.36 49.5896L125.351 50.422L125.323 51.2468L125.275 52.0635L125.208 52.8716L125.123 53.6707L125.019 54.4602L124.897 55.2398L124.758 56.009L124.6 56.7673L124.426 57.5143L124.235 58.2497L124.028 58.9729L123.804 59.6836L123.565 60.3815L123.311 61.0661L123.042 61.737L122.758 62.3939L122.461 63.0366L122.15 63.6645L121.825 64.2774L121.489 64.8751L121.14 65.4572L120.779 66.0234L120.407 66.5734L120.024 67.107L119.631 67.624L119.228 68.1241L118.816 68.6071L118.395 69.0727L117.965 69.5209L117.528 69.9514L117.084 70.364L116.632 70.7586L116.175 71.1351L115.712 71.4933L115.243 71.8331L114.77 72.1544L114.293 72.4572L113.813 72.7414L113.329 73.0069L112.843 73.2537L112.355 73.4818L111.865 73.6911L111.374 73.8816L110.883 74.0535L110.393 74.2066L109.903 74.3411L109.414 74.457L108.927 74.5544L108.442 74.6334L107.961 74.6941L107.482 74.7366L107.008 74.761L106.537 74.7674L106.072 74.7562L105.612 74.7273L105.158 74.681L104.711 74.6175L104.27 74.5371L103.837 74.4398L103.412 74.3261L102.995 74.196L102.586 74.05L102.187 73.8882L101.798 73.7109L101.419 73.5185L101.05 73.3112L100.693 73.0895L100.347 72.8535L100.012 72.6037L99.6903 72.3404L99.3809 72.064L99.0844 71.7749L98.8013 71.4734L98.5319 71.1599L98.2765 70.8349L98.0356 70.4987L97.8093 70.1518L97.5981 69.7946L97.4022 69.4276L97.222 69.0511L97.0576 68.6657L96.9093 68.2719L96.7775 67.87L96.6623 67.4606L96.564 67.0441L96.4827 66.6211L96.4188 66.1919L96.3723 65.7573L96.3434 65.3175L96.3323 64.8732L96.3392 64.4248L96.3641 63.9729L96.4072 63.5179L96.4686 63.0605L96.5484 62.6011L96.6467 62.1403L96.7634 61.6786L96.8987 61.2165L97.0526 60.7545L97.2251 60.2933L97.4162 59.8333L97.626 59.375L97.8543 58.919L98.1011 58.4659L98.3664 58.0161L98.6501 57.5702L98.9522 57.1288L99.2725 56.6923L99.6109 56.2612L99.9673 55.8362L100.342 55.4177L100.733 55.0062L101.143 54.6022L101.57 54.2063L102.014 53.8189L102.475 53.4406L102.952 53.0719L103.447 52.7131L103.957 52.3649L104.484 52.0276L105.026 51.7018L105.583 51.3879L106.156 51.0863L106.743 50.7976L107.345 50.5221L107.962 50.2602L108.592 50.0124L109.235 49.7792L109.892 49.5608L110.561 49.3577L111.242 49.1703L111.936 48.9989L112.641 48.844L113.357 48.7058L114.084 48.5846L114.821 48.4809L115.568 48.395L116.324 48.3271L117.089 48.2775L117.862 48.2466L118.644 48.2345L119.432 48.2416L120.228 48.2681L121.03 48.3142L121.838 48.3802L122.652 48.4662L123.47 48.5724L124.293 48.6991L125.119 48.8464L125.949 49.0144L126.782 49.2033L127.617 49.4132L128.453 49.6441L129.291 49.8963L130.129 50.1698L130.968 50.4647L131.805 50.7809L132.642 51.1186L133.477 51.4778L134.31 51.8584L135.14 52.2606L135.967 52.6841L136.79 53.1292L137.608 53.5955L138.422 54.0832L139.23 54.5922L140.031 55.1222L140.827 55.6734L141.615 56.2454L142.395 56.8382L143.167 57.4516L143.93 58.0855L144.683 58.7398L145.427 59.4141L146.16 60.1083L146.883 60.8222L147.593 61.5555L148.292 62.308L148.979 63.0795L149.652 63.8697L150.312 64.6782L150.957 65.5049L151.589 66.3493L152.205 67.2112L152.806 68.0902L153.392 68.986L153.961 69.8982L154.513 70.8265L155.048 71.7704L155.565 72.7297L156.065 73.7038L156.546 74.6923L157.008 75.6949L157.452 76.7111L157.875 77.7405L158.279 78.7826L158.663 79.837L159.026 80.9031L159.368 81.9806L159.69 83.0688L159.989 84.1674L160.267 85.2758L160.523 86.3935L160.757 87.52L160.968 88.6547L161.157 89.7973L161.323 90.947L161.465 92.1033L161.584 93.2658L161.68 94.4339L161.752 95.6069L161.8 96.7844L161.824 97.9658L161.824 99.1506L161.8 100.338L161.752 101.528L161.68 102.719L161.583 103.911L161.461 105.104L161.315 106.296L161.145 107.488L160.95 108.679L160.731 109.867L160.487 111.054L160.219 112.237L159.927 113.416L159.61 114.592L159.269 115.762L158.904 116.928L158.515 118.087L158.102 119.24L157.666 120.386L157.206 121.524L156.722 122.654L156.216 123.775L155.687 124.887L155.134 125.989L154.56 127.081L153.963 128.162L153.344 129.232L152.703 130.289L152.041 131.334L151.357 132.367L150.653 133.385L149.928 134.39L149.183 135.381L148.419 136.356L147.634 137.317L146.831 138.261L146.009 139.189L145.168 140.101L144.309 140.995L143.433 141.872L142.54 142.731L141.63 143.572L140.704 144.394L139.762 145.197L138.804 145.98L137.832 146.744L136.846 147.487L135.845 148.21L134.831 148.913L133.804 149.594L132.765 150.254L131.714 150.892L130.652 151.509L129.578 152.103L128.495 152.675L127.401 153.224L126.299 153.751L125.188 154.255L124.068 154.735L122.942 155.192L121.808 155.626L120.668 156.036L119.522 156.422L118.37 156.785L117.215 157.123L116.054 157.438L114.891 157.728L113.724 157.995L112.556 158.237L111.385 158.455L110.213 158.649L109.041 158.818L107.868 158.964L106.696 159.085L105.525 159.183L104.356 159.256L103.189 159.305L102.025 159.331L100.865 159.333L99.7083 159.311L98.5562 159.266L97.4093 159.198L96.268 159.107L95.1329 158.992L94.0045 158.855L92.8834 158.695L91.7702 158.514L90.6652 158.31L89.5692 158.084L88.4825 157.836L87.4056 157.568L86.3392 157.278L85.2836 156.968L84.2394 156.637L83.2069 156.286L82.1868 155.916L81.1794 155.526L80.1852 155.117L79.2046 154.69L78.238 154.244L77.2859 153.78L76.3487 153.299L75.4267 152.801L74.5203 152.286L73.63 151.755L72.7561 151.208L71.8989 150.646L71.0588 150.068L70.236 149.477L69.431 148.871L68.6439 148.253L67.8752 147.621L67.125 146.976L66.3936 146.32L65.6813 145.652L64.9884 144.973L64.3149 144.284L63.6613 143.584L63.0275 142.876L62.4139 142.158L61.8205 141.432L61.2476 140.699L60.6952 139.958L60.1636 139.21L59.6527 138.456L59.1628 137.697L58.6938 136.932L58.2458 136.163L57.819 135.39L57.4133 134.614L57.0288 133.835L56.6654 133.053L56.3232 132.27L56.0022 131.485L55.7022 130.7L55.4233 129.915L55.1653 129.13L54.9283 128.346L54.7121 127.564L54.5166 126.784L54.3417 126.007L54.1873 125.232L54.0531 124.462L53.9391 123.695L53.8451 122.934L53.7708 122.177L53.7162 121.426L53.6808 120.682L53.6646 119.944L53.6673 119.214L53.6886 118.491L53.7282 117.777L53.786 117.071L53.8615 116.374L53.9545 115.687L54.0647 115.01L54.1917 114.344L54.3353 113.688L54.495 113.043L54.6704 112.411L54.8613 111.79L55.0673 111.182L55.2879 110.587L55.5227 110.005L55.7714 109.437L56.0336 108.882L56.3087 108.342L56.5964 107.817L56.8962 107.306L57.2077 106.811L57.5304 106.331L57.8638 105.867L58.2075 105.419L58.561 104.987L58.9238 104.571L59.2954 104.173L59.6753 103.791L60.0631 103.426L60.4581 103.079L60.8599 102.749L61.2681 102.437L61.682 102.142L62.1011 101.866L62.525 101.607L62.953 101.367L63.3847 101.144L63.8195 100.94L64.2569 100.754L64.6964 100.587L65.1374 100.438L65.5794 100.307L66.0218 100.195L66.4642 100.101L66.9059 100.025L67.3465 99.9675L67.7855 99.9283L68.2222 99.9072L68.6561 99.9042L69.0868 99.9192L69.5138 99.9519L69.9364 100.002L70.3542 100.07L70.7667 100.156L71.1734 100.259L71.5738 100.378L71.9673 100.515L72.3535 100.668L72.7319 100.838L73.102 101.024L73.4634 101.225L73.8156 101.443L74.1581 101.676L74.4905 101.923L74.8123 102.186L75.1232 102.463L75.4226 102.755L75.7102 103.06L75.9855 103.379L76.2483 103.711L76.4979 104.055L76.7342 104.412L76.9568 104.781L77.1652 105.162L77.3591 105.554L77.5382 105.957L77.7022 106.37L77.8507 106.793L77.9835 107.225L78.1003 107.667L78.2007 108.117L78.2846 108.576L78.3516 109.042L78.4016 109.515L78.4342 109.995L78.4494 110.481L78.4468 110.973L78.4264 111.47L78.3878 111.972L78.3311 112.477L78.2559 112.987L78.1623 113.5L78.05 114.016L77.919 114.533L77.7692 115.052L77.6004 115.573L77.4127 116.093L77.206 116.614L76.9802 117.135L76.7354 117.654L76.4715 118.171L76.1885 118.687L75.8865 119.199L75.5655 119.709L75.2255 120.215L74.8667 120.716L74.489 121.213L74.0927 121.704L73.6778 122.189L73.2444 122.668L72.7926 123.14L72.3227 123.605L71.8348 124.061L71.329 124.509L70.8056 124.948L70.2648 125.378L69.7067 125.797L69.1317 126.206L68.5399 126.604L67.9317 126.991L67.3073 127.366L66.6669 127.728L66.0109 128.077L65.3397 128.413L64.6534 128.736L63.9525 129.044L63.2373 129.337L62.5081 129.616L61.7654 129.879L61.0095 130.126L60.2407 130.357L59.4596 130.572L58.6664 130.769L57.8617 130.949L57.0458 131.112L56.2192 131.256L55.3824 131.382L54.5357 131.49L53.6797 131.578L52.8149 131.647L51.9416 131.697L51.0605 131.727L50.172 131.737L49.2766 131.726L48.3748 131.695L47.4671 131.644L46.5541 131.571L45.6363 131.477L44.7142 131.362L43.7883 131.226L42.8593 131.068L41.9276 130.888L40.9938 130.687L40.0584 130.463L39.122 130.218L38.1852 129.95L37.2485 129.66L36.3125 129.348L35.3777 129.014L34.4448 128.657L33.5142 128.279L32.5866 127.878L31.6624 127.454L30.7424 127.009L29.827 126.541L28.9168 126.052L28.0124 125.54L27.1143 125.006L26.2231 124.451L25.3393 123.874L24.4635 123.275L23.5963 122.656L22.7382 122.015L21.8897 121.353L21.0514 120.67L20.2237 119.966L19.4073 119.243L18.6027 118.499L17.8103 117.735L17.0307 116.952L16.2643 116.149L15.5117 115.327L14.7734 114.487L14.0499 113.628L13.3415 112.751L12.6488 111.857L11.9723 110.944L11.3123 110.015L10.6693 109.07L10.0438 108.108L9.43615 107.13L8.84676 106.136L8.27605 105.128L7.72439 104.105L7.19216 103.068L6.67973 102.017L6.18746 100.953L5.71568 99.8758L5.26472 98.7865L4.83491 97.6853L4.42655 96.5728L4.03993 95.4495L3.67534 94.3158L3.33305 93.1724L3.0133 92.0195L2.71634 90.858L2.4424 89.6882L2.1917 88.5106L1.96444 87.326L1.7608 86.1347L1.58095 84.9374L1.42507 83.7345L1.29329 82.5268L1.18574 81.3147L1.10254 80.0988L1.04379 78.8797L1.00959 77.6579L1 76.4341L1.01508 75.2088L1.05488 73.9826L1.11942 72.7561L1.20872 71.5299L1.32278 70.3045L1.46158 69.0805L1.6251 67.8586L1.81329 66.6392L2.02608 65.4231L2.26341 64.2107L2.52519 63.0026L2.81131 61.7994L3.12165 60.6018L3.45609 59.4101L3.81448 58.2251L4.19665 57.0473L4.60242 55.8772L5.03163 54.7154L5.48404 53.5624L5.95946 52.4189L6.45765 51.2852L6.97837 50.162L7.52135 49.0497L8.08633 47.949L8.67303 46.8603L9.28115 45.784L9.91037 44.7208L10.5604 43.6711L11.2309 42.6353L11.9214 41.614L12.6318 40.6076L13.3615 39.6165L14.1102 38.6413L14.8775 37.6823L15.6631 36.7399L16.4664 35.8147L17.2871 34.9069L18.1248 34.017L18.9789 33.1453L19.8491 32.2923L20.7349 31.4582L21.6358 30.6435L22.5513 29.8484L23.481 29.0733L24.4244 28.3185L25.3809 27.5843L26.3501 26.871L27.3313 26.1789L28.3242 25.5081L29.3282 24.859L30.3428 24.2317L31.3673 23.6266L32.4013 23.0438L33.4442 22.4834L34.4955 21.9457L35.5546 21.4309L36.6209 20.939L37.6939 20.4703L38.773 20.0248L39.8577 19.6026L40.9473 19.2038L42.0413 18.8285L43.1391 18.4768L44.2402 18.1487L45.3439 17.8443L46.4497 17.5635L47.557 17.3063L48.6652 17.0729L49.7738 16.863L50.8822 16.6767L51.9898 16.5139L53.096 16.3746L54.2002 16.2586L55.302 16.166L56.4007 16.0964L57.4958 16.0499L58.5867 16.0263L59.6728 16.0254L60.7537 16.0471L61.8288 16.0911L62.8975 16.1573L63.9593 16.2455L65.0137 16.3555L66.0602 16.4869L67.0982 16.6396L68.1273 16.8133L69.1469 17.0077L70.1566 17.2226L71.1558 17.4575L72.1442 17.7123L73.1212 17.9866L74.0864 18.28L75.0393 18.5923L75.9795 18.923L76.9066 19.2718L77.8202 19.6383L78.7197 20.0221L79.605 20.4228L80.4755 20.8401L81.3308 21.2734L82.1707 21.7224L82.9948 22.1866L83.8027 22.6656L84.5941 23.1589L85.3687 23.6661L86.1261 24.1867L86.8662 24.7202L87.5885 25.2661L88.2929 25.824L88.9791 26.3933L89.6468 26.9736L90.2958 27.5643L90.926 28.1649L91.5371 28.7749L92.1289 29.3939L92.7012 30.0211L93.254 30.6562L93.787 31.2986L94.3002 31.9478L94.7933 32.6031L95.2664 33.2641L95.7193 33.9303L96.1519 34.601L96.5643 35.2758L96.9563 35.954L97.3279 36.6352L97.6792 37.3188L98.01 38.0042L98.3205 38.6909L98.6107 39.3784L98.8805 40.0661L99.1301 40.7534L99.3596 41.4398L99.569 42.1248L99.7584 42.8079L99.9279 43.4885L100.078 44.166L100.208 44.84L100.319 45.5099L100.41 46.1753L100.483 46.8356L100.536 47.4902L100.571 48.1388L100.588 48.7808L100.586 49.4157L100.566 50.043L100.529 50.6624L100.474 51.2732L100.402 51.875L100.313 52.4675L100.208 53.0501L100.086 53.6224L99.9489 54.1841L99.7959 54.7346L99.6278 55.2736L99.4449 55.8006L99.2476 56.3154L99.0361 56.8174L98.8111 57.3065L98.5728 57.7821L98.3217 58.244L98.0581 58.6918L97.7826 59.1252L97.4955 59.5439L97.1973 59.9476L96.8885 60.3361L96.5696 60.709L96.2409 61.066L95.9029 61.407L95.5563 61.7317L95.2013 62.0399L94.8386 62.3314L94.4687 62.606L94.0919 62.8634L93.7089 63.1036L93.3202 63.3264L92.9262 63.5317L92.5275 63.7192L92.1246 63.8889L91.7181 64.0408L91.3084 64.1747L90.8961 64.2905L90.4817 64.3883L90.0658 64.4679L89.6489 64.5293L89.2315 64.5726L88.8142 64.5976L88.3974 64.6046L87.9818 64.5933L87.5679 64.564L87.1561 64.5167L86.747 64.4514L86.3412 64.3683L85.9391 64.2674L85.5414 64.1488L85.1484 64.0127L84.7608 63.8593L84.3789 63.6886L84.0034 63.5008L83.6348 63.2962L83.2734 63.075L82.9199 62.8372L82.5747 62.5833L82.2383 62.3133L81.9111 62.0276L81.5937 61.7264L81.2864 61.41L80.9898 61.0786L80.7042 60.7327L80.4301 60.3724L80.168 59.9981L79.9182 59.6102L79.6811 59.2089L79.4572 58.7947L79.2469 58.3678L79.0505 57.9288L78.8684 57.4779L78.7009 57.0156L78.5485 56.5423L78.4114 56.0583L78.2899 55.5642L78.1845 55.0602L78.0953 54.547L78.0227 54.0249L77.967 53.4944L77.9283 52.956L77.9071 52.4101L77.9035 51.8571L77.9178 51.2977L77.9501 50.7323L78.0007 50.1614L78.0697 49.5854L78.1574 49.0049L78.2639 48.4205L78.3894 47.8325L78.5339 47.2417L78.6977 46.6484L78.8807 46.0532L79.0832 45.4566L79.3052 44.8592L79.5467 44.2615L79.8079 43.6641L80.0887 43.0674L80.3891 42.4721L80.7092 41.8786L81.049 41.2876L81.4085 40.6995L81.7876 40.1149L82.1862 39.5344L82.6043 38.9584L83.0418 38.3876L83.4987 37.8224L83.9748 37.2634L84.47 36.7111L84.9841 36.1661L85.5171 35.6289L86.0687 35.1L86.6387 34.5799L87.2271 34.0691L87.8335 33.5682L88.4578 33.0776L89.0997 32.5979L89.759 32.1295L90.4354 31.673L91.1287 31.2288L91.8385 30.7973L92.5646 30.3791L93.3067 29.9746L94.0644 29.5843L94.8374 29.2086L95.6253 28.8479L96.4279 28.5027L97.2447 28.1733L98.0753 27.8603L98.9194 27.5639L99.7766 27.2846L100.646 27.0228L101.529 26.7787L102.422 26.5529L103.328 26.3455L104.244 26.157L105.17 25.9877L106.107 25.8379L107.053 25.7078L108.008 25.5978L108.972 25.5082L109.944 25.4392L110.923 25.391L111.909 25.3639L112.902 25.3582L113.901 25.3739L114.905 25.4114L115.914 25.4708L116.927 25.5523L117.945 25.656L118.965 25.7821L119.988 25.9307L121.014 26.1019L122.041 26.2958L123.069 26.5125L124.098 26.7521L125.126 27.0146L126.154 27.3001L127.18 27.6086L128.205 27.9401L129.228 28.2946L130.247 28.6721L131.263 29.0725L132.275 29.4959L133.282 29.9421L134.284 30.4111L135.28 30.9028L136.27 31.4171L137.253 31.9538L138.228 32.5129L139.195 33.0942L140.154 33.6975L141.104 34.3226L142.043 34.9694L142.973 35.6377L143.892 36.3272L144.799 37.0377L145.695 37.769L146.579 38.5208L147.449 39.2929L148.306 40.0849L149.149 40.8965L149.978 41.7275L150.793 42.5776L151.591 43.4463L152.374 44.3335L153.141 45.2385L153.891 46.1613L154.624 47.1012L155.34 48.0581L156.037 49.0313L156.716 50.0207L157.377 51.0256L158.018 52.0457L158.64 53.0805L159.241 54.1297L159.823 55.1926L160.384 56.269L160.923 57.3581L161.442 58.4597L161.939 59.5732L162.415 60.698L162.868 61.8337L163.298 62.9798L163.706 64.1357L164.092 65.3009L164.454 66.4749L164.792 67.6571L165.107 68.8469L165.399 70.0439L165.666 71.2475L165.91 72.457L166.129 73.672L166.324 74.8918L166.494 76.116L166.64 77.3438L166.761 78.5748L166.858 79.8084L166.93 81.0439L166.977 82.2808L166.999 83.5186L166.996 84.7565L166.968 85.9941L166.916 87.2308L166.839 88.4659L166.737 89.699L166.61 90.9293L166.458 92.1564L166.283 93.3796L166.082 94.5984L165.858 95.8123L165.609 97.0205L165.336 98.2227L165.039 99.4181L164.719 100.606L164.375 101.787L164.008 102.959L163.618 104.122L163.205 105.276L162.769 106.42L162.311 107.553L161.831 108.675L161.329 109.786L160.805 110.885L160.261 111.971L159.695 113.045L159.109 114.105L158.503 115.151L157.877 116.182L157.232 117.199L156.567 118.201L155.884 119.186L155.182 120.156L154.463 121.109L153.726 122.045L152.972 122.964L152.202 123.865L151.415 124.748L150.613 125.613L149.796 126.459L148.963 127.286L148.117 128.093L147.257 128.881L146.383 129.648L145.497 130.395L144.599 131.122L143.689 131.828L142.768 132.513L141.836 133.176L140.894 133.818L139.942 134.439L138.981 135.037L138.012 135.613L137.035 136.168L136.051 136.699L135.059 137.209L134.062 137.695L133.059 138.159L132.051 138.6L131.038 139.019L130.021 139.414L129.001 139.786L127.978 140.136L126.953 140.462L125.926 140.765L124.898 141.046L123.869 141.303L122.841 141.538L121.813 141.749L120.786 141.938L119.761 142.104L118.738 142.248L117.718 142.369L116.702 142.468L115.689 142.544L114.681 142.599L113.678 142.632L112.681 142.643L111.689 142.632L110.705 142.6L109.727 142.548L108.757 142.474L107.795 142.38L106.842 142.265L105.898 142.131L104.964 141.977L104.039 141.803L103.126 141.61L102.223 141.399L101.332 141.169L100.452 140.921L99.5852 140.655L98.7309 140.372L97.8897 140.072L97.0621 139.755L96.2484 139.422L95.4491 139.074L94.6644 138.709L93.8948 138.33L93.1405 137.937L92.402 137.529L91.6795 137.108L90.9733 136.674L90.2838 136.227L89.6111 135.768L88.9557 135.297L88.3177 134.815L87.6973 134.322L87.0949 133.819L86.5106 133.306L85.9446 132.784L85.3971 132.253L84.8683 131.714L84.3584 131.167L83.8674 130.613L83.3956 130.053L82.943 129.486L82.5098 128.914L82.096 128.337L81.7017 127.756L81.327 127.17L80.9719 126.582L80.6365 125.99L80.3207 125.396L80.0246 124.8L79.7482 124.204L79.4914 123.606L79.2542 123.008L79.0366 122.411L78.8384 121.815L78.6596 121.22L78.5002 120.627L78.3599 120.037L78.2386 119.45L78.1363 118.866L78.0528 118.287L77.9879 117.712L77.9413 117.142L77.9131 116.578L77.9028 116.02L77.9103 115.468L77.9354 114.924L77.9779 114.387L78.0374 113.859L78.1137 113.338L78.2065 112.827L78.3155 112.325L78.4405 111.834L78.581 111.352L78.7368 110.881L78.9076 110.421L79.0929 109.973L79.2924 109.537L79.5058 109.112L79.7326 108.701L79.9725 108.303L80.2251 107.918L80.4899 107.547L80.7666 107.189L81.0547 106.847L81.3537 106.519L81.6633 106.206L81.983 105.908L82.3122 105.626L82.6506 105.359L82.9977 105.109L83.353 104.875L83.716 104.657L84.0862 104.456L84.4632 104.272L84.8463 104.105L85.2352 103.956L85.6293 103.824L86.0281 103.709L86.431 103.612L86.8376 103.533L87.2473 103.471L87.6596 103.428L88.074 103.403L88.4899 103.396L88.9068 103.407L89.3242 103.436L89.7415 103.483L90.1583 103.548L90.5739 103.632L90.9878 103.734L91.3996 103.854L91.8086 103.992L92.2144 104.147L92.6164 104.321L93.0141 104.513L93.4069 104.722L93.7945 104.948L94.1761 105.192L94.5514 105.454L94.9198 105.732L95.2808 106.027L95.634 106.339L95.9787 106.668L96.3147 107.012L96.6412 107.373L96.958 107.749L97.2645 108.141L97.5602 108.548L97.8448 108.97L98.1177 109.407L98.3785 109.858L98.6268 110.323L98.8622 110.801L99.0843 111.293L99.2926 111.798L99.4868 112.316L99.6664 112.845L99.8312 113.387L99.9807 113.94L100.115 114.504L100.233 115.079L100.334 115.663L100.419 116.258L100.488 116.862L100.539 117.475L100.572 118.096L100.588 118.725L100.586 119.361L100.565 120.005L100.526 120.655L100.468 121.311L100.392 121.972L100.296 122.639L100.181 123.31L100.046 123.984L99.892 124.663L99.718 125.344L99.5242 126.027L99.3104 126.713L99.0765 127.399L98.8223 128.087L98.548 128.775L98.2533 129.462L97.9383 130.148L97.6029 130.833L97.2472 131.516L96.871 132.197L96.4745 132.875L96.0576 133.549L95.6205 134.218L95.1631 134.883L94.6855 135.543L94.188 136.197L93.6704 136.845L93.133 137.486L92.5758 138.119L91.9992 138.745L91.4031 139.362L90.7877 139.969L90.1534 140.568L89.5001 141.156L88.8283 141.734L88.138 142.301L87.4296 142.856L86.7033 143.4L85.9594 143.93L85.1981 144.448L84.4198 144.952L83.6247 145.442L82.8132 145.918L81.9856 146.379L81.1422 146.824L80.2835 147.254L79.4097 147.668L78.5212 148.065L77.6185 148.445L76.7019 148.807L75.7719 149.152L74.8288 149.479L73.8731 149.787L72.9053 150.076L71.9257 150.346L70.9349 150.597L69.9333 150.827L68.9213 151.037L67.8996 151.227L66.8685 151.396L65.8285 151.544L64.7803 151.671L63.7242 151.776L62.6608 151.859L61.5906 151.921L60.5142 151.96L59.4321 151.977L58.3449 151.971L57.253 151.942L56.157 151.89L55.0576 151.816L53.9552 151.718L52.8505 151.597L51.7439 151.452L50.6361 151.284L49.5277 151.093L48.4191 150.878L47.311 150.639L46.204 150.376L45.0986 150.09L43.9954 149.781L42.895 149.447L41.798 149.09L40.7049 148.71L39.6164 148.306L38.5329 147.879L37.4551 147.428L36.3836 146.954L35.3188 146.457L34.2614 145.937L33.2119 145.394L32.1709 144.829L31.139 144.241L30.1166 143.631L29.1044 142.999L28.1028 142.345L27.1124 141.67L26.1338 140.973L25.1674 140.255L24.2138 139.516L23.2734 138.757L22.3468 137.977L21.4345 137.178L20.5369 136.358L19.6545 135.52L18.7879 134.663L17.9373 133.787L17.1034 132.893L16.2865 131.982L15.4871 131.053L14.7056 130.106L13.9423 129.144L13.1978 128.165L12.4724 127.171L11.7664 126.161L11.0802 125.136L10.4143 124.097L9.76885 123.044L9.14429 121.978L8.5409 120.899L7.959 119.808L7.39887 118.704L6.86081 117.59L6.34508 116.464L5.85192 115.328L5.38159 114.183L4.93431 113.028L4.51029 111.864L4.10974 110.692L3.73284 109.513L3.37976 108.326L3.05066 107.133L2.74568 105.934L2.46496 104.73L2.2086 103.521L1.97671 102.307L1.76938 101.09L1.58666 99.8705L1.42863 98.6481L1.29532 97.4238L1.18675 96.1981L1.10295 94.9718L1.04391 93.7453L1.0096 92.5192L1 91.2942L1.01506 90.0708L1.05472 88.8496L1.1189 87.6312L1.20752 86.4161L1.32046 85.2049L1.4576 83.9982L1.61882 82.7965L1.80396 81.6005L2.01287 80.4106L2.24535 79.2275L2.50123 78.0516L2.7803 76.8836L3.08233 75.7239L3.40711 74.5731L3.75438 73.4318L4.12389 72.3004L4.51535 71.1794L4.9285 70.0694L5.36304 68.9709L5.81864 67.8843L6.295 66.8101L6.79179 65.7488L7.30864 64.7009L7.84521 63.6669L8.40114 62.6471L8.97603 61.642L9.56951 60.652L10.1812 59.6776L10.8106 58.7192L11.4574 57.7771L12.1211 56.8517L12.8012 55.9435L13.4974 55.0527L14.2092 54.1798L14.9361 53.325L15.6776 52.4887L16.4333 51.6712L17.2026 50.8728L17.9851 50.0938L18.7803 49.3345L19.5876 48.595L20.4065 47.8758L21.2366 47.177L22.0772 46.4988L22.9279 45.8414L23.7881 45.2051L24.6573 44.59L25.5349 43.9963L26.4203 43.4241L27.3131 42.8736L28.2127 42.3449L29.1184 41.8381L30.0298 41.3533L30.9463 40.8906L31.8673 40.45L32.7922 40.0316L33.7206 39.6355L34.6517 39.2616L35.5851 38.91L36.5202 38.5807L37.4564 38.2736L38.3932 37.9887L39.33 37.726L40.2662 37.4854L41.2013 37.2668L42.1347 37.0701L43.0658 36.8952L43.9942 36.742L44.9193 36.6104L45.8405 36.5002L46.7573 36.4112L47.6691 36.3433L48.5755 36.2962L49.476 36.2699L50.3699 36.264L51.2568 36.2783L52.1362 36.3127L53.0076 36.3667L53.8706 36.4402L54.7245 36.5329L55.569 36.6445L56.4036 36.7747L57.2279 36.9231L58.0413 37.0895L58.8435 37.2735L59.6341 37.4747L60.4125 37.6928L61.1784 37.9275L61.9315 38.1783L62.6712 38.4448L63.3973 38.7267L64.1094 39.0235L64.8071 39.3349L65.49 39.6603L66.1579 39.9994L66.8105 40.3517L67.4473 40.7167L68.0682 41.0941L68.6728 41.4832L69.2608 41.8838L69.8321 42.2952L70.3864 42.7169L70.9233 43.1486L71.4428 43.5897L71.9447 44.0396L72.4286 44.498L72.8945 44.9642L73.3422 45.4378L73.7715 45.9181L74.1823 46.4048L74.5745 46.8973L74.948 47.395L75.3026 47.8975L75.6384 48.4041L75.9552 48.9144L76.253 49.4277L76.5317 49.9437L76.7914 50.4617L77.032 50.9812L77.2535 51.5016L77.456 52.0224L77.6395 52.5432L77.8041 53.0633L77.9497 53.5822L78.0766 54.0994L78.1847 54.6143L78.2742 55.1265L78.3453 55.6354L78.398 56.1405L78.4325 56.6413L78.4489 57.1372L78.4475 57.6279L78.4285 58.1126L78.392 58.5911L78.3382 59.0627L78.2674 59.5271L78.1798 59.9837L78.0757 60.432L77.9554 60.8716L77.8191 61.3021L77.6671 61.723L77.4997 62.1338L77.3173 62.5341L77.1201 62.9236L76.9086 63.3018L76.6829 63.6682L76.4436 64.0225L76.191 64.3644L75.9255 64.6934L75.6474 65.0091L75.3571 65.3113L75.0551 65.5996L74.7418 65.8736L74.4176 66.1331L74.0829 66.3777L73.7382 66.6071L73.3839 66.8211L73.0206 67.0193L72.6486 67.2015L72.2684 67.3675L71.8805 67.5171L71.4854 67.6499L71.0836 67.7659L70.6756 67.8648L70.2619 67.9464L69.843 68.0105L69.4193 68.0571L68.9915 68.0859L68.56 68.0969L68.1254 68.0899L67.6882 68.0648L67.2488 68.0215L66.8079 67.96L66.366 67.8803L65.9236 67.7822L65.4812 67.6657L65.0394 67.5309L64.5987 67.3777L64.1596 67.2061L63.7227 67.0163L63.2885 66.8081L62.8576 66.5817L62.4305 66.3371L62.0076 66.0745L61.5896 65.7939L61.1769 65.4955L60.7702 65.1793L60.3698 64.8456L59.9763 64.4944L59.5903 64.1259L59.2121 63.7404L58.8424 63.338L58.4817 62.919L58.1303 62.4835L57.7888 62.0317L57.4578 61.5641L57.1375 61.0807L56.8286 60.5819L56.5315 60.0679L56.2465 59.5392L55.9742 58.9959L55.7151 58.4384L55.4694 57.867L55.2377 57.2821L55.0203 56.6841L54.8176 56.0732L54.6301 55.4499L54.4581 54.8147L54.302 54.1677L54.1621 53.5096L54.0388 52.8407L53.9324 52.1614L53.8432 51.4721L53.7716 50.7734L53.7179 50.0656L53.6823 49.3493L53.6651 48.6248L53.6666 47.8928L53.687 47.1535L53.7266 46.4077L53.7856 45.6557L53.8643 44.898L53.9627 44.1353L54.0812 43.3678L54.2198 42.5963L54.3788 41.8213L54.5583 41.0431L54.7583 40.2625L54.9792 39.4799L55.2208 38.6959L55.4834 37.911L55.767 37.1257L56.0716 36.3407L56.3974 35.5564L56.7443 34.7734L57.1124 33.9923L57.5016 33.2137L57.912 32.438L58.3435 31.6658L58.7961 30.8977L59.2697 30.1343L59.7643 29.376L60.2798 28.6235L60.8161 27.8773L61.373 27.1379L61.9505 26.4059L62.5484 25.6819L63.1665 24.9663L63.8047 24.2597L64.4628 23.5626L65.1406 22.8755L65.8378 22.1991L66.5544 21.5337L67.2899 20.8799L68.0443 20.2382L68.8171 19.6092L69.6082 18.9932L70.4172 18.3907L71.2438 17.8024L72.0878 17.2285L72.9487 16.6697L73.8263 16.1263L74.7202 15.5987L75.6301 15.0875L76.5555 14.593L77.496 14.1157L78.4514 13.6559L79.4211 13.2142L80.4048 12.7907L81.4019 12.386L82.4122 12.0004L83.4351 11.6343L84.4702 11.288L85.517 10.9618L86.5751 10.656L87.6439 10.371L88.7229 10.1071L89.8117 9.86447L90.9098 9.64349L92.0166 9.44438L93.1317 9.26739L94.2544 9.11275L95.3843 8.98068L96.5209 8.87138L97.6635 8.78506L98.8116 8.72188L99.9647 8.68202L101.122 8.66562L102.284 8.67281L103.448 8.70373L104.616 8.75848L105.785 8.83716L106.956 8.93984L108.128 9.06659L109.301 9.21745L110.473 9.39247L111.645 9.59167L112.815 9.81505L113.984 10.0626L115.15 10.3343L116.312 10.6301L117.472 10.95L118.626 11.2939L119.777 11.6616L120.921 12.0532L122.06 12.4685L123.192 12.9074L124.318 13.3698L125.435 13.8554L126.544 14.3641L127.645 14.8958L128.736 15.4502L129.817 16.0271L130.888 16.6264L131.948 17.2477L132.997 17.8908L134.033 18.5555L135.057 19.2415L136.068 19.9485L137.066 20.6762L138.049 21.4242L139.018 22.1923L139.972 22.9801L140.911 23.7873L141.833 24.6134L142.74 25.4582L143.629 26.3212L144.502 27.202L145.356 28.1003L146.193 29.0155L147.011 29.9474L147.81 30.8954L148.59 31.8591L149.351 32.8381L150.091 33.8318L150.811 34.8398L151.511 35.8617L152.19 36.8968L152.847 37.9448L153.483 39.0052L154.097 40.0773L154.689 41.1607L155.259 42.2549L155.806 43.3593L156.33 44.4735L156.832 45.5967L157.31 46.7286L157.765 47.8685L158.196 49.0159L158.603 50.1702L158.987 51.3309L159.347 52.4973L159.682 53.669L159.994 54.8454L160.281 56.0258L160.543 57.2097L160.782 58.3965L160.996 59.5856L161.185 60.7765L161.35 61.9686L161.49 63.1612L161.606 64.3539L161.698 65.5459L161.765 66.7369L161.808 67.9261L161.826 69.113L161.821 70.297L161.791 71.4776L161.738 72.6542L161.661 73.8262L161.56 74.993L161.435 76.1542L161.288 77.3091L161.117 78.4573L160.924 79.5981L160.707 80.7311L160.468 81.8557L160.208 82.9714L159.925 84.0776L159.62 85.174L159.294 86.2599L158.947 87.3348L158.58 88.3984L158.191 89.4501L157.783 90.4894L157.355 91.5159L156.907 92.5291L156.441 93.5286L155.956 94.514L155.452 95.4848L154.931 96.4407L154.392 97.3812L153.836 98.306L153.263 99.2146L152.674 100.107L152.07 100.982L151.45 101.84L150.815 102.68L150.166 103.503L149.503 104.308L148.827 105.094L148.138 105.861L147.437 106.609L146.723 107.338L145.998 108.048L145.263 108.738L144.517 109.407L143.761 110.057L142.996 110.687L142.222 111.295L141.44 111.884L140.651 112.451L139.854 112.997L139.051 113.523L138.242 114.027L137.427 114.51L136.607 114.972L135.784 115.412L134.956 115.831L134.125 116.228L133.292 116.604L132.456 116.958L131.619 117.291L130.782 117.603L129.943 117.893L129.105 118.162L128.267 118.409L127.431 118.635L126.597 118.841L125.765 119.025L124.936 119.188L124.11 119.331L123.288 119.453L122.471 119.555L121.658 119.636L120.852 119.698L120.051 119.74L119.257 119.762L118.47 119.765L117.69 119.748L116.918 119.713L116.155 119.66L115.401 119.588L114.657 119.498L113.922 119.39L113.197 119.265L112.484 119.123L111.781 118.965L111.09 118.79L110.411 118.599L109.745 118.392L109.091 118.171L108.451 117.934L107.824 117.683L107.211 117.418L106.612 117.14L106.027 116.848L105.458 116.544L104.904 116.227L104.365 115.899L103.842 115.559L103.336 115.208L102.845 114.847L102.371 114.476L101.914 114.096L101.474 113.707L101.051 113.309L100.645 112.903L100.257 112.49L99.8866 112.07L99.5342 111.644L99.1998 111.211L98.8835 110.774L98.5855 110.331L98.3059 109.885L98.0447 109.434L97.802 108.98L97.5778 108.524L97.3722 108.065L97.1852 107.605L97.0168 107.143L96.8671 106.681L96.7359 106.219L96.6232 105.757L96.5291 105.297L96.4534 104.838L96.3961 104.381L96.357 103.927L96.3361 103.476L96.3332 103.028L96.3483 102.585L96.3811 102.146L96.4315 101.713L96.4993 101.285L96.5843 100.863L96.6864 100.448L96.8053 100.04L96.9408 99.6402L97.0927 99.2481L97.2606 98.8647L97.4444 98.4903L97.6437 98.1254L97.8583 97.7705L98.0878 97.426L98.332 97.0922L98.5905 96.7697L98.863 96.4589L99.1491 96.1601L99.4485 95.8737L99.7608 95.6002L100.086 95.3399L100.423 95.0931L100.771 94.8603L101.131 94.6417L101.502 94.4377L101.884 94.2486L102.275 94.0748L102.676 93.9165L103.086 93.7739L103.505 93.6475L103.933 93.5374L104.367 93.4438L104.81 93.3671L105.259 93.3074L105.714 93.265L106.175 93.24L106.641 93.2327L107.113 93.2431L107.588 93.2715L108.067 93.318L108.55 93.3828L109.035 93.4658L109.522 93.5673L110.012 93.6874L110.502 93.826L110.992 93.9833L111.483 94.1593L111.974 94.354L112.463 94.5675L112.951 94.7997L113.437 95.0506L113.92 95.3203L114.4 95.6086L114.876 95.9155L115.348 96.241L115.815 96.5849L116.277 96.9472L116.733 97.3277L117.183 97.7263L117.626 98.1429L118.061 98.5773L118.489 99.0294L118.908 99.4989L119.318 99.9857L119.719 100.49L120.11 101.01L120.49 101.548L120.86 102.101L121.218 102.671L121.564 103.256L121.899 103.858L122.22 104.474L122.528 105.105L122.822 105.751L123.103 106.411L123.369 107.085L123.62 107.773L123.855 108.473L124.075 109.187L124.279 109.913L124.466 110.651L124.637 111.4L124.79 112.161L124.926 112.933L125.044 113.714L125.144 114.506L125.225 115.307L125.287 116.117L125.331 116.936L125.355 117.762L125.359 118.596L125.344 119.437L125.308 120.285L125.253 121.139L125.176 121.998L125.079 122.862L124.961 123.73L124.822 124.602L124.662 125.478L124.481 126.357L124.278 127.238L124.053 128.12L123.807 129.004L123.539 129.889L123.249 130.773L122.937 131.657L122.603 132.541L122.248 133.422L121.87 134.301L121.471 135.178L121.049 136.052L120.606 136.921L120.14 137.787L119.653 138.647L119.145 139.502L118.614 140.35L118.062 141.193L117.489 142.028L116.894 142.855L116.278 143.674L115.642 144.484L114.984 145.285L114.306 146.076L113.608 146.857L112.889 147.626L112.15 148.385L111.392 149.131L110.615 149.865L109.818 150.586L109.002 151.293L108.168 151.987L107.315 152.666L106.445 153.33L105.557 153.979L104.651 154.612L103.729 155.228L102.79 155.828L101.835 156.411L100.865 156.977L99.8785 157.524L98.8775 158.053L97.862 158.563L96.8325 159.054L95.7893 159.526L94.733 159.978L93.6639 160.41L92.5826 160.821L91.4895 161.211L90.3852 161.58L89.2701 161.928L88.1447 162.254L87.0096 162.558L85.8653 162.839L84.7122 163.099L83.551 163.335L82.3821 163.549L81.2061 163.739L80.0236 163.906L78.8351 164.049L77.6412 164.169L76.4424 164.265L75.2393 164.337L74.0325 164.385L72.8225 164.408L71.6099 164.408L70.3953 164.382L69.1794 164.333L67.9625 164.259L66.7454 164.16L65.5287 164.037L64.3128 163.89L63.0985 163.718L61.8862 163.521L60.6766 163.3L59.4703 163.054L58.2678 162.784L57.0697 162.49L55.8766 162.172L54.689 161.83L53.5076 161.463L52.3329 161.073L51.1654 160.659L50.0058 160.222L48.8546 159.762L47.7123 159.278L46.5795 158.772L45.4567 158.243L44.3444 157.691L43.2433 157.118L42.1538 156.522L41.0764 155.905L40.0116 155.267L38.96 154.607L37.922 153.927L36.8982 153.226L35.8889 152.506L34.8947 151.766L33.916 151.006L32.9533 150.228L32.0069 149.43L31.0775 148.615L30.1652 147.782L29.2707 146.932L28.3942 146.065L27.5362 145.181L26.697 144.282L25.877 143.366L25.0765 142.436L24.2959 141.491L23.5355 140.532L22.7957 139.559L22.0767 138.573L21.3788 137.575L20.7023 136.564L20.0475 135.542L19.4146 134.509L18.8039 133.465L18.2155 132.411L17.6498 131.348L17.1068 130.275L16.5868 129.195L16.0899 128.106L15.6163 127.01L15.1662 125.908L14.7396 124.799L14.3366 123.685L13.9575 122.566L13.6021 121.442L13.2707 120.315L12.9633 119.184L12.6798 118.051L12.4204 116.915L12.185 115.778L11.9736 114.641L11.7863 113.502L11.6229 112.364L11.4834 111.227L11.3678 110.091L11.276 108.957L11.2078 107.825L11.1632 106.696L11.1421 105.571L11.1442 104.451L11.1695 103.335L11.2179 102.224L11.289 101.119L11.3828 100.02L11.4989 98.9283L11.6373 97.844L11.7976 96.7676L11.9797 95.6996L12.1832 94.6407L12.4079 93.5911L12.6535 92.5516L12.9197 91.5225L13.2062 90.5043L13.5126 89.4975L13.8388 88.5026L14.1841 87.5199L14.5485 86.5501L14.9314 85.5934L15.3325 84.6503L15.7514 83.7212L16.1877 82.8066L16.641 81.9068L17.1109 81.0221L17.597 80.1531L18.0987 79.3L18.6158 78.4631L19.1476 77.6429L19.6938 76.8396L20.2539 76.0535L20.8274 75.285L21.4139 74.5344L22.0127 73.8018L22.6235 73.0876L23.2458 72.392L23.8789 71.7152L24.5225 71.0575L25.1759 70.4191L25.8387 69.8002L26.5103 69.2009L27.1903 68.6214L27.878 68.0619L28.5729 67.5224L29.2745 67.0032L29.9822 66.5043L30.6955 66.0259L31.4138 65.5679L32.1366 65.1306L32.8633 64.7138L33.5934 64.3177L34.3263 63.9423L35.0615 63.5876L35.7984 63.2535L36.5365 62.9402L37.2751 62.6474L38.0138 62.3752L38.7521 62.1236L39.4893 61.8924L40.2249 61.6815L40.9584 61.4908L41.6892 61.3203L42.4169 61.1698L43.1408 61.0391L43.8605 60.928L44.5755 60.8365L45.2852 60.7643L45.9891 60.7111L46.6867 60.6769L47.3776 60.6613L48.0611 60.6642L48.737 60.6852L49.4046 60.7241L50.0635 60.7806L50.7133 60.8545L51.3535 60.9454L51.9836 61.053L52.6032 61.177L53.212 61.3171L53.8094 61.4729L54.3951 61.644L54.9687 61.8301L55.5298 62.0308L56.078 62.2457L56.6129 62.4745L57.1343 62.7166L57.6417 62.9718L58.1348 63.2395L58.6134 63.5194L59.077 63.8109L59.5255 64.1137L59.9585 64.4273L60.3757 64.7512L60.7769 65.085L61.1619 65.4281L61.5304 65.7802L61.8822 66.1407L62.2171 66.509L62.5349 66.8848L62.8354 67.2675L63.1185 67.6566L63.384 68.0516L63.6318 68.452L63.8617 68.8572L64.0737 69.2668L64.2675 69.6801L64.4433 70.0968L64.6009 70.5162L64.7402 70.9378L64.8612 71.3611L64.9639 71.7856L65.0483 72.2106L65.1143 72.6358L65.1621 73.0606L65.1915 73.4844L65.2028 73.9067L65.1959 74.3269L65.171 74.7447L65.128 75.1593L65.0672 75.5703L64.9886 75.9773L64.8923 76.3796L64.7786 76.7767L64.6476 77.1682L64.4994 77.5536L64.3342 77.9323L64.1523 78.3038L63.9538 78.6678L63.7391 79.0236L63.5082 79.3709L63.2615 79.7091L62.9993 80.0378L62.7217 80.3565L62.4292 80.6648L62.122 80.9623L61.8004 81.2485L61.4648 81.5229L61.1154 81.7853L60.7527 82.0351L60.377 82.2721L59.9886 82.4957L59.5879 82.7056L59.1754 82.9016L58.7515 83.0831L58.3164 83.2499L57.8707 83.4016L57.4149 83.5379L56.9492 83.6585L56.4742 83.7631L55.9903 83.8514L55.498 83.9232L54.9977 83.9781L54.4899 84.016L53.9752 84.0365L53.4539 84.0396L52.9266 84.0248L52.3938 83.9921L51.856 83.9413L51.3137 83.8722L50.7674 83.7846L50.2176 83.6784L49.6649 83.5535L49.1097 83.4097L48.5527 83.2469L47.9943 83.0651L47.4351 82.8642L46.8756 82.6441L46.3163 82.4048L45.7579 82.1462L45.2008 81.8684L44.6455 81.5712L44.0927 81.2548L43.5429 80.9192L42.9965 80.5643L42.4542 80.1903L41.9165 79.7972L41.3839 79.3851L40.857 78.9541L40.3363 78.5043L39.8223 78.0358L39.3155 77.5489L38.8166 77.0435L38.3259 76.5199L37.844 75.9783L37.3715 75.4189L36.9088 74.8419L36.4564 74.2474L36.0149 73.6358L35.5847 73.0073L35.1663 72.3621L34.7602 71.7005L34.3668 71.0228L33.9867 70.3294L33.6202 69.6204L33.2678 68.8963L32.93 68.1573L32.6071 67.4039L32.2997 66.6363L32.0081 65.855L31.7327 65.0603L31.474 64.2526L31.2322 63.4323L31.0078 62.5999L30.8011 61.7557L30.6125 60.9001L30.4423 60.0337L30.2909 59.1569L30.1585 58.2701L30.0455 57.3738L29.9522 56.4684L29.8788 55.5545L29.8256 54.6326L29.7929 53.7031L29.7809 52.7665L29.7899 51.8233L29.82 50.8742L29.8714 49.9195L29.9445 48.9598L30.0392 47.9957L30.1558 47.0277L30.2945 46.0564L30.4553 45.0821L30.6385 44.1057L30.844 43.1275L31.072 42.1481L31.3226 41.1682L31.5958 40.1882L31.8917 39.2087L32.2103 38.2304L32.5517 37.2536L32.9157 36.2791L33.3026 35.3074L33.7121 34.3391L34.1442 33.3746L34.599 32.4147L35.0763 31.4598L35.5761 30.5105L36.0983 29.5674L36.6427 28.6311L37.2092 27.702L37.7977 26.7808L38.4081 25.868L39.04 24.9642L39.6935 24.0698L40.3683 23.1855L41.0641 22.3117L41.7808 21.449L42.518 20.5979L43.2756 19.7589L44.0533 18.9326L44.8509 18.1194L45.6679 17.3199L46.5041 16.5345L47.3593 15.7637L48.233 15.0079L49.1249 14.2678L50.0348 13.5436L50.9621 12.8359L51.9066 12.1451L52.8678 11.4716L53.8453 10.8159L54.8388 10.1783L55.8478 9.55923L56.8719 8.95914L57.9107 8.37839L58.9636 7.81732L60.0303 7.27629L61.1103 6.75567L62.203 6.25576L63.3081 5.77691L64.4249 5.31941L65.5531 4.88357L66.6921 4.46966L67.8414 4.07796L69.0004 3.70872L70.1686 3.3622L71.3456 3.03861L72.5307 2.73819L73.7234 2.46113L74.9232 2.20763L76.1295 1.97786L77.3417 1.77198L78.5593 1.59015L79.7816 1.4325L81.0082 1.29914L82.2385 1.19018L83.4718 1.10572L84.7076 1.04583L85.9453 1.01057L87.1843 1L88.4241 1.01413L89.664 1.053L90.9035 1.11661L92.142 1.20493L93.3789 1.31795L94.6135 1.45563L95.8454 1.61791L97.074 1.80472L98.2986 2.01597L99.5186 2.25157L100.734 2.5114L101.943 2.79534L103.146 3.10324L104.342 3.43494L105.531 3.79028L106.712 4.16907L107.885 4.57111L109.048 4.99619L110.202 5.44408L111.346 5.91455L112.48 6.40733L113.602 6.92217L114.712 7.45879L115.81 8.01689L116.896 8.59617L117.969 9.19631L119.028 9.817L120.072 10.4579L121.102 11.1186L122.118 11.7988L123.117 12.4981L124.101 13.2161L125.068 13.9524L126.019 14.7066L126.953 15.4784L127.869 16.2672L128.767 17.0726L129.646 17.8942L130.507 18.7315L131.349 19.5841L132.172 20.4515L132.974 21.3332L133.757 22.2287L134.52 23.1375L135.262 24.0592L135.983 24.9931L136.683 25.9389L137.361 26.8959L138.018 27.8636L138.653 28.8416L139.266 29.8292L139.857 30.8259L140.426 31.8312L140.971 32.8446L141.495 33.8653L141.995 34.893L142.472 35.927L142.926 36.9668L143.357 38.0118L143.765 39.0615L144.149 40.1152L144.51 41.1724L144.848 42.2325L145.162 43.2949L145.452 44.3592L145.72 45.4246L145.964 46.4907L146.184 47.5568L146.381 48.6224L146.555 49.6869L146.706 50.7498L146.833 51.8105L146.938 52.8685L147.02 53.9231L147.079 54.9739L147.116 56.0202L147.13 57.0616L147.122 58.0975L147.092 59.1273L147.041 60.1506L146.968 61.1669L146.873 62.1755L146.757 63.1761L146.621 64.168L146.464 65.1508L146.287 66.1241L146.089 67.0873L145.873 68.04L145.636 68.9816L145.381 69.9119L145.107 70.8302L144.815 71.7362L144.505 72.6295L144.178 73.5096L143.833 74.3761L143.471 75.2287L143.094 76.0669L142.7 76.8905L142.29 77.6989L141.866 78.4919L141.427 79.2691L140.974 80.0303L140.507 80.775L140.027 81.503L139.534 82.2141L139.029 82.9078L138.512 83.584L137.983 84.2424L137.444 84.8828L136.895 85.505L136.336 86.1087L135.767 86.6937L135.19 87.2599L134.605 87.8071L134.012 88.3351L133.411 88.8438L132.804 89.333L132.191 89.8028L131.573 90.2528L130.95 90.6832L130.322 91.0937L129.69 91.4844L129.055 91.8552L128.416 92.206L127.776 92.5369L127.134 92.8479L126.491 93.1389L125.847 93.4101L125.203 93.6614L124.56 93.8929L123.918 94.1047L123.277 94.2968L122.638 94.4695L122.002 94.6227L121.369 94.7566L120.74 94.8714L120.114 94.9672L119.494 95.0443L118.879 95.1026L118.269 95.1426L117.666 95.1643L117.069 95.168L116.48 95.154L115.898 95.1224L115.324 95.0736L114.759 95.0078L114.204 94.9253L113.657 94.8265L113.121 94.7115L112.595 94.5808L112.079 94.4346L111.575 94.2733L111.083 94.0974L110.602 93.907L110.134 93.7026L109.679 93.4846L109.237 93.2534L108.809 93.0094L108.394 92.753L107.993 92.4845L107.607 92.2046L107.236 91.9135L106.88 91.6117L106.539 91.2997L106.214 90.978L105.905 90.6469L105.611 90.3071L105.335 89.9589L105.074 89.6028L104.831 89.2394L104.605 88.8691L104.396 88.4925L104.204 88.11L104.029 87.7221L103.873 87.3294L103.734 86.9324L103.612 86.5316L103.509 86.1276L103.424 85.7207L103.357 85.3117L103.308 84.901L103.277 84.4891L103.265 84.0766" stroke="url(#paint0_radial_175_782)" stroke-width="2"/>
<defs>
<radialGradient id="paint0_radial_175_782" cx="0" cy="0" r="1" gradientUnits="userSpaceOnUse" gradientTransform="translate(28.8093 29.6649) rotate(54.4147) scale(179.394)">
<stop stop-color="#F0C6FF"/>
<stop offset="1" stop-color="#C6D6FF"/>
</radialGradient>
</defs>
</svg>
