<svg width="168" height="168" viewBox="0 0 168 168" fill="none" xmlns="http://www.w3.org/2000/svg">
<path d="M167 83.9998L166.992 84.4885L166.967 84.9771L166.926 85.4654L166.869 85.9531L166.795 86.4401L166.705 86.9262L166.599 87.4113L166.476 87.8951L166.337 88.3776L166.182 88.8584L166.011 89.3375L165.823 89.8147L165.619 90.2898L165.4 90.7626L165.164 91.233L164.912 91.7008L164.644 92.1658L164.361 92.6278L164.061 93.0867L163.746 93.5423L163.416 93.9945L163.069 94.4431L162.707 94.8879L162.33 95.3287L161.937 95.7654L161.53 96.1979L161.107 96.6259L160.668 97.0493L160.215 97.468L159.747 97.8818L159.265 98.2905L158.767 98.694L158.256 99.0922L157.729 99.4849L157.189 99.8718L156.634 100.253L156.065 100.628L155.482 100.997L154.885 101.36L154.275 101.717L153.651 102.067L153.014 102.41L152.364 102.747L151.7 103.076L151.023 103.399L150.334 103.714L149.632 104.023L148.917 104.323L148.191 104.616L147.452 104.902L146.701 105.18L145.938 105.449L145.163 105.711L144.377 105.965L143.58 106.21L142.771 106.447L141.952 106.676L141.121 106.896L140.28 107.107L139.429 107.31L138.567 107.504L137.696 107.689L136.814 107.865L135.923 108.032L135.023 108.189L134.113 108.337L133.194 108.476L132.267 108.606L131.33 108.726L130.386 108.837L129.433 108.937L128.472 109.029L127.503 109.11L126.527 109.182L125.543 109.243L124.552 109.295L123.554 109.337L122.55 109.369L121.539 109.39L120.522 109.402L119.498 109.404L118.469 109.395L117.434 109.376L116.394 109.347L115.349 109.307L114.299 109.257L113.244 109.197L112.185 109.127L111.122 109.046L110.054 108.955L108.983 108.854L107.908 108.742L106.83 108.619L105.749 108.487L104.665 108.344L103.579 108.19L102.49 108.027L101.399 107.853L100.307 107.668L99.2124 107.474L98.1167 107.269L97.0199 107.053L95.9221 106.828L94.8236 106.592L93.7248 106.346L92.6257 106.09L91.5266 105.824L90.4278 105.548L89.3295 105.262L88.232 104.966L87.1354 104.66L86.0401 104.344L84.9462 104.019L83.854 103.683L82.7637 103.338L81.6756 102.984L80.5898 102.62L79.5066 102.246L78.4263 101.863L77.3491 101.471L76.2751 101.07L75.2047 100.659L74.1381 100.24L73.0754 99.811L72.0169 99.3737L70.9628 98.9275L69.9134 98.4727L68.8688 98.0094L67.8294 97.5376L66.7952 97.0574L65.7665 96.569L64.7436 96.0725L63.7266 95.568L62.7158 95.0555L61.7113 94.5353L60.7134 94.0074L59.7223 93.472L58.7381 92.9292L57.7611 92.3791L56.7915 91.8219L55.8295 91.2576L54.8753 90.6865L53.929 90.1087L52.9909 89.5242L52.0611 88.9333L51.1399 88.3361L50.2273 87.7327L49.3237 87.1233L48.4292 86.508L47.5439 85.8871L46.6681 85.2605L45.8019 84.6286L44.9455 83.9915L44.099 83.3492L43.2626 82.7021L42.4365 82.0502L41.6208 81.3937L40.8158 80.7328L40.0215 80.0677L39.2381 79.3985L38.4657 78.7253L37.7045 78.0485L36.9547 77.3681L36.2164 76.6843L35.4897 75.9973L34.7747 75.3073L34.0717 74.6145L33.3806 73.919L32.7017 73.221L32.0351 72.5208L31.3808 71.8184L30.7391 71.1141L30.11 70.4081L29.4936 69.7006L28.89 68.9917L28.2994 68.2817L27.7218 67.5707L27.1573 66.8589L26.6061 66.1465L26.0682 65.4337L25.5438 64.7207L25.0328 64.0078L24.5354 63.295L24.0516 62.5826L23.5816 61.8708L23.1254 61.1597L22.683 60.4497L22.2546 59.7408L21.8402 59.0333L21.4398 58.3273L21.0535 57.6231L20.6814 56.9209L20.3235 56.2208L19.9798 55.5231L19.6504 54.8279L19.3354 54.1355L19.0347 53.446L18.7483 52.7597L18.4764 52.0767L18.219 51.3972L17.976 50.7214L17.7474 50.0496L17.5333 49.3818L17.3338 48.7184L17.1487 48.0595L16.9781 47.4052L16.822 46.7559L16.6805 46.1116L16.5534 45.4726L16.4407 44.839L16.3425 44.2111L16.2588 43.5889L16.1895 42.9728L16.1345 42.3629L16.094 41.7594L16.0677 41.1624L16.0558 40.5722L16.0581 39.9888L16.0746 39.4126L16.1052 38.8437L16.15 38.2822L16.2089 37.7283L16.2817 37.1822L16.3685 36.6441L16.4692 36.1142L16.5837 35.5925L16.7119 35.0793L16.8539 34.5747L17.0094 34.0789L17.1784 33.5921L17.3609 33.1144L17.5568 32.646L17.7659 32.187L17.9882 31.7375L18.2236 31.2978L18.4719 30.868L18.7332 30.4482L19.0072 30.0385L19.2939 29.6392L19.5932 29.2503L19.905 28.872L20.2291 28.5044L20.5654 28.1476L20.9138 27.8019L21.2743 27.4672L21.6465 27.1438L22.0306 26.8317L22.4262 26.5311L22.8333 26.2421L23.2517 25.9647L23.6813 25.6992L24.122 25.4456L24.5736 25.2041L25.036 24.9747L25.5089 24.7575L25.9924 24.5526L26.4862 24.3602L26.9901 24.1803L27.5041 24.013L28.0279 23.8584L28.5614 23.7165L29.1044 23.5876L29.6567 23.4715L30.2183 23.3685L30.7889 23.2785L31.3684 23.2017L31.9565 23.138L32.5532 23.0877L33.1582 23.0507L33.7713 23.0271L34.3924 23.0169L35.0213 23.0202L35.6579 23.037L36.3018 23.0674L36.953 23.1114L37.6113 23.169L38.2765 23.2404L38.9483 23.3254L39.6266 23.4242L40.3112 23.5367L41.0019 23.663L41.6986 23.8031L42.401 23.957L43.1088 24.1248L43.8221 24.3063L44.5404 24.5016L45.2637 24.7108L45.9917 24.9338L46.7242 25.1706L47.4611 25.4212L48.2021 25.6855L48.9471 25.9636L49.6957 26.2555L50.4479 26.5611L51.2034 26.8804L51.962 27.2133L52.7236 27.5598L53.4879 27.9199L54.2546 28.2936L55.0237 28.6807L55.7948 29.0813L56.5679 29.4953L57.3426 29.9227L58.1189 30.3633L58.8964 30.8171L59.675 31.284L60.4544 31.7641L61.2346 32.2571L62.0152 32.7631L62.796 33.282L63.5769 33.8136L64.3577 34.3579L65.1382 34.9148L65.9181 35.4842L66.6972 36.066L67.4755 36.6601L68.2525 37.2665L69.0283 37.8849L69.8025 38.5154L70.5749 39.1577L71.3455 39.8118L72.1139 40.4776L72.88 41.1549L73.6436 41.8437L74.4045 42.5437L75.1626 43.2549L75.9175 43.9771L76.6693 44.7102L77.4175 45.4541L78.1621 46.2086L78.9029 46.9735L79.6398 47.7488L80.3724 48.5343L81.1007 49.3298L81.8245 50.1352L82.5435 50.9503L83.2577 51.775L83.9669 52.6091L84.6708 53.4524L85.3693 54.3047L86.0623 55.166L86.7495 56.036L87.4309 56.9146L88.1063 57.8015L88.7755 58.6967L89.4382 59.5998L90.0945 60.5108L90.7442 61.4295L91.387 62.3556L92.0229 63.289L92.6517 64.2295L93.2732 65.1769L93.8873 66.1309L94.494 67.0915L95.093 68.0584L95.6841 69.0314L96.2674 70.0102L96.8426 70.9948L97.4096 71.9848L97.9684 72.9801L98.5187 73.9805L99.0605 74.9858L99.5936 75.9957L100.118 77.0101L100.633 78.0286L101.14 79.0512L101.637 80.0775L102.126 81.1074L102.605 82.1407L103.074 83.1771L103.534 84.2164L103.985 85.2583L104.426 86.3028L104.857 87.3494L105.278 88.3981L105.689 89.4485L106.091 90.5005L106.482 91.5538L106.864 92.6083L107.235 93.6636L107.595 94.7195L107.946 95.7758L108.286 96.8323L108.616 97.8887L108.935 98.9449L109.244 100.001L109.542 101.055L109.829 102.109L110.106 103.162L110.373 104.213L110.628 105.263L110.873 106.311L111.107 107.356L111.33 108.399L111.542 109.44L111.744 110.477L111.934 111.512L112.114 112.543L112.283 113.571L112.441 114.595L112.588 115.615L112.724 116.631L112.85 117.643L112.964 118.649L113.068 119.651L113.161 120.648L113.243 121.639L113.314 122.625L113.374 123.605L113.424 124.579L113.463 125.547L113.491 126.508L113.509 127.463L113.516 128.411L113.512 129.352L113.498 130.285L113.473 131.211L113.438 132.129L113.392 133.039L113.337 133.941L113.27 134.835L113.194 135.72L113.108 136.596L113.011 137.464L112.904 138.322L112.788 139.171L112.662 140.01L112.525 140.84L112.38 141.66L112.224 142.469L112.059 143.269L111.885 144.057L111.701 144.835L111.508 145.603L111.306 146.359L111.094 147.104L110.874 147.837L110.645 148.559L110.407 149.27L110.161 149.968L109.906 150.654L109.642 151.329L109.371 151.99L109.091 152.64L108.803 153.276L108.507 153.9L108.203 154.511L107.892 155.108L107.573 155.693L107.247 156.264L106.913 156.821L106.572 157.365L106.224 157.895L105.87 158.411L105.508 158.913L105.14 159.401L104.766 159.875L104.385 160.334L103.998 160.779L103.605 161.209L103.207 161.625L102.802 162.025L102.392 162.411L101.977 162.782L101.556 163.137L101.131 163.478L100.7 163.803L100.265 164.113L99.825 164.407L99.3807 164.686L98.9321 164.949L98.4794 165.197L98.0228 165.429L97.5625 165.645L97.0986 165.845L96.6312 166.03L96.1606 166.198L95.6869 166.351L95.2104 166.487L94.7311 166.608L94.2492 166.712L93.7649 166.801L93.2785 166.873L92.79 166.929L92.2996 166.969L91.8076 166.993L91.3141 167L90.8192 166.991L90.3232 166.966L89.8263 166.925L89.3285 166.867L88.8301 166.794L88.3313 166.704L87.8322 166.598L87.333 166.475L86.8339 166.337L86.3351 166.182L85.8368 166.011L85.339 165.824L84.8421 165.621L84.3461 165.402L83.8513 165.167L83.3578 164.917L82.8659 164.65L82.3756 164.367L81.8871 164.069L81.4007 163.755L80.9165 163.425L80.4347 163.08L79.9554 162.719L79.4788 162.342L79.0051 161.951L78.5344 161.544L78.067 161.122L77.6029 160.684L77.1424 160.232L76.6856 159.765L76.2327 159.283L75.7838 158.786L75.3391 158.274L74.8987 157.749L74.4629 157.208L74.0317 156.653L73.6054 156.085L73.1841 155.502L72.7678 154.905L72.3569 154.294L71.9514 153.67L71.5514 153.032L71.1572 152.381L70.7689 151.716L70.3866 151.038L70.0104 150.348L69.6405 149.644L69.277 148.928L68.9201 148.199L68.5698 147.458L68.2264 146.704L67.8899 145.939L67.5605 145.162L67.2383 144.373L66.9234 143.572L66.616 142.76L66.3161 141.937L66.0239 141.103L65.7394 140.257L65.4629 139.402L65.1943 138.535L64.9339 137.659L64.6817 136.772L64.4378 135.876L64.2023 134.969L63.9753 134.053L63.7569 133.128L63.5472 132.194L63.3463 131.25L63.1542 130.298L62.9711 129.338L62.797 128.369L62.6321 127.392L62.4763 126.407L62.3297 125.415L62.1925 124.415L62.0646 123.407L61.9463 122.393L61.8374 121.372L61.7381 120.344L61.6484 119.31L61.5684 118.27L61.4981 117.223L61.4376 116.171L61.3869 115.114L61.346 114.051L61.3151 112.984L61.2941 111.911L61.283 110.834L61.2819 109.753L61.2909 108.667L61.3098 107.578L61.3389 106.485L61.378 105.389L61.4272 104.289L61.4865 103.187L61.5559 102.082L61.6354 100.974L61.725 99.8644L61.8247 98.7527L61.9345 97.6392L62.0544 96.5242L62.1844 95.408L62.3245 94.2907L62.4746 93.1727L62.6348 92.0541L62.805 90.9352L62.9851 89.8162L63.1752 88.6975L63.3753 87.5791L63.5852 86.4614L63.8049 85.3446L64.0345 84.2289L64.2739 83.1145L64.5229 82.0018L64.7817 80.8909L65.05 79.7821L65.3279 78.6755L65.6153 77.5715L65.9121 76.4703L66.2183 75.3721L66.5338 74.2771L66.8586 73.1855L67.1925 72.0977L67.5355 71.0138L67.8874 69.934L68.2483 68.8587L68.6181 67.7879L68.9966 66.7219L69.3837 65.661L69.7795 64.6054L70.1836 63.5553L70.5962 62.5108L71.017 61.4723L71.446 60.4399L71.8831 59.4139L72.3281 58.3944L72.7809 57.3817L73.2415 56.376L73.7097 55.3775L74.1854 54.3864L74.6684 53.4028L75.1587 52.4271L75.6561 51.4594L76.1605 50.4998L76.6718 49.5487L77.1898 48.6061L77.7144 47.6723L78.2454 46.7475L78.7827 45.8318L79.3263 44.9254L79.8758 44.0286L80.4312 43.1414L80.9924 42.2641L81.5592 41.3969L82.1314 40.5399L82.7088 39.6932L83.2914 38.8571L83.879 38.0317L84.4714 37.2172L85.0684 36.4137L85.6699 35.6214L86.2757 34.8404L86.8857 34.071L87.4996 33.3132L88.1174 32.5671L88.7388 31.833L89.3637 31.1109L89.9919 30.4011L90.6233 29.7035L91.2576 29.0185L91.8946 28.346L92.5343 27.6862L93.1764 27.0393L93.8207 26.4053L94.4671 25.7844L95.1153 25.1766L95.7652 24.5822L96.4167 24.0011L97.0694 23.4335L97.7233 22.8795L98.3782 22.3392L99.0338 21.8126L99.6899 21.2999L100.346 20.8012L101.003 20.3165L101.66 19.8459L102.316 19.3895L102.973 18.9473L103.628 18.5195L104.283 18.106L104.937 17.707L105.59 17.3225L106.241 16.9525L106.891 16.5972L107.539 16.2565L108.185 15.9305L108.83 15.6192L109.471 15.3227L110.111 15.0411L110.747 14.7742L111.381 14.5222L112.012 14.2852L112.639 14.063L113.263 13.8557L113.884 13.6634L114.5 13.486L115.113 13.3236L115.721 13.1761L116.325 13.0436L116.924 12.926L117.519 12.8233L118.109 12.7356L118.693 12.6627L119.272 12.6048L119.846 12.5617L120.414 12.5334L120.976 12.52L121.532 12.5213L122.082 12.5373L122.626 12.5681L123.163 12.6135L123.693 12.6735L124.216 12.748L124.732 12.8371L125.241 12.9406L125.743 13.0585L126.237 13.1907L126.723 13.3371L127.201 13.4977L127.671 13.6725L128.133 13.8612L128.587 14.064L129.032 14.2806L129.468 14.5109L129.895 14.755L130.313 15.0127L130.723 15.2838L131.122 15.5684L131.513 15.8663L131.894 16.1774L132.265 16.5016L132.626 16.8387L132.977 17.1888L133.318 17.5516L133.649 17.927L133.969 18.3149L134.279 18.7152L134.578 19.1278L134.866 19.5526L135.144 19.9893L135.41 20.4378L135.665 20.8981L135.909 21.37L136.142 21.8534L136.363 22.348L136.573 22.8538L136.771 23.3706L136.957 23.8982L137.132 24.4365L137.294 24.9853L137.445 25.5446L137.583 26.114L137.709 26.6935L137.823 27.2829L137.925 27.882L138.014 28.4906L138.09 29.1086L138.154 29.7358L138.206 30.3721L138.244 31.0172L138.27 31.6709L138.283 32.3332L138.283 33.0037L138.271 33.6824L138.245 34.369L138.206 35.0634L138.155 35.7653L138.09 36.4746L138.012 37.1911L137.921 37.9145L137.817 38.6448L137.699 39.3816L137.568 40.1249L137.425 40.8743L137.267 41.6297L137.097 42.391L136.913 43.1578L136.716 43.9301L136.506 44.7075L136.283 45.49L136.046 46.2772L135.796 47.069L135.532 47.8652L135.256 48.6656L134.966 49.4699L134.663 50.278L134.347 51.0896L134.018 51.9046L133.676 52.7227L133.321 53.5437L132.952 54.3675L132.571 55.1937L132.177 56.0222L131.77 56.8529L131.35 57.6854L130.917 58.5196L130.472 59.3552L130.014 60.1921L129.543 61.03L129.06 61.8688L128.564 62.7082L128.057 63.548L127.536 64.388L127.004 65.228L126.459 66.0678L125.903 66.9071L125.334 67.7459L124.754 68.5838L124.162 69.4208L123.559 70.2564L122.943 71.0906L122.317 71.9232L121.679 72.754L121.03 73.5827L120.369 74.4092L119.698 75.2333L119.016 76.0547L118.324 76.8733L117.62 77.6888L116.907 78.5012L116.182 79.3101L115.448 80.1154L114.704 80.917L113.95 81.7146L113.186 82.508L112.412 83.2971L111.629 84.0816L110.837 84.8614L110.035 85.6364L109.225 86.4062L108.406 87.1709L107.578 87.9301L106.741 88.6837L105.897 89.4315L105.044 90.1735L104.183 90.9093L103.314 91.6388L102.438 92.362L101.554 93.0785L100.663 93.7883L99.7646 94.4912L98.8595 95.1871L97.9477 95.8757L97.0294 96.557L96.1047 97.2307L95.1739 97.8969L94.2371 98.5552L93.2946 99.2056L92.3466 99.8479L91.3932 100.482L90.4346 101.108L89.4712 101.725L88.5029 102.334L87.5302 102.934L86.5531 103.525L85.5719 104.107L84.5868 104.68L83.5981 105.244L82.6058 105.799L81.6103 106.344L80.6118 106.88L79.6104 107.406L78.6065 107.922L77.6001 108.428L76.5916 108.925L75.5812 109.412L74.569 109.888L73.5553 110.354L72.5404 110.81L71.5244 111.256L70.5075 111.691L69.4901 112.116L68.4724 112.53L67.4544 112.934L66.4366 113.327L65.419 113.709L64.402 114.08L63.3858 114.44L62.3706 114.79L61.3566 115.128L60.344 115.456L59.3331 115.772L58.3241 116.078L57.3173 116.372L56.3128 116.655L55.311 116.926L54.3119 117.187L53.316 117.436L52.3232 117.674L51.334 117.901L50.3485 118.116L49.367 118.32L48.3897 118.513L47.4167 118.694L46.4484 118.864L45.485 119.023L44.5266 119.17L43.5736 119.307L42.626 119.431L41.6842 119.545L40.7484 119.647L39.8187 119.738L38.8954 119.817L37.9788 119.886L37.0689 119.943L36.1661 119.989L35.2705 120.024L34.3824 120.048L33.502 120.061L32.6295 120.062L31.765 120.053L30.9088 120.033L30.0611 120.002L29.2221 119.961L28.3919 119.908L27.5709 119.845L26.7591 119.772L25.9568 119.687L25.1642 119.593L24.3815 119.488L23.6087 119.372L22.8462 119.247L22.0942 119.111L21.3527 118.965L20.622 118.809L19.9022 118.643L19.1936 118.468L18.4962 118.283L17.8103 118.088L17.1361 117.883L16.4737 117.67L15.8232 117.447L15.1848 117.214L14.5587 116.973L13.9451 116.723L13.344 116.463L12.7557 116.196L12.1803 115.919L11.6179 115.634L11.0686 115.341L10.5327 115.039L10.0101 114.729L9.50121 114.411L9.00597 114.086L8.52457 113.752L8.05711 113.411L7.60372 113.063L7.16452 112.707L6.73962 112.344L6.32914 111.974L5.93318 111.598L5.55184 111.214L5.18522 110.824L4.83344 110.427L4.49657 110.025L4.17471 109.616L3.86794 109.201L3.57636 108.78L3.30004 108.353L3.03906 107.922L2.7935 107.484L2.56344 107.042L2.34891 106.594L2.15002 106.142L1.96679 105.685L1.79932 105.224L1.64762 104.758L1.51177 104.288L1.39179 103.814L1.28776 103.336L1.1997 102.854L1.12763 102.369L1.0716 101.881L1.03164 101.39L1.00776 100.895L1 100.398L1.00836 99.898L1.03287 99.3957L1.07353 98.8911L1.13036 98.3844L1.20334 97.8758L1.29248 97.3655L1.39779 96.8536L1.51924 96.3403L1.65683 95.8259L1.81054 95.3104L1.98036 94.794L2.16626 94.277L2.36821 93.7595L2.58618 93.2417L2.82015 92.7238L3.07008 92.2059L3.33592 91.6882L3.61762 91.1709L3.91515 90.6543L4.22845 90.1383L4.55746 89.6233L4.90212 89.1094L5.26238 88.5969L5.63816 88.0857L6.02941 87.5762L6.43604 87.0685L6.85796 86.5628L7.29513 86.0592L7.74744 85.558L8.21479 85.0592L8.69713 84.5631L9.19434 84.0699L9.70632 83.5796L10.233 83.0925L10.7742 82.6087L11.3299 82.1285L11.9 81.6519L12.4842 81.1791L13.0827 80.7102L13.6951 80.2455L14.3214 79.7852L14.9614 79.3292L15.6151 78.8779L16.2823 78.4313L16.9628 77.9896L17.6565 77.553L18.3633 77.1217L19.0831 76.6956L19.8156 76.2751L20.5607 75.8602L21.3184 75.451L22.0883 75.0479L22.8704 74.6507L23.6645 74.2598L24.4704 73.8752L25.288 73.497L26.1172 73.1255L26.9576 72.7606L27.8091 72.4027L28.6717 72.0516L29.545 71.7077L30.4289 71.371L31.3233 71.0416L32.2279 70.7196L33.1425 70.4052L34.067 70.0984L35.0012 69.7994L35.9448 69.5083L36.8976 69.2252L37.8595 68.9501L38.8303 68.6832L39.8097 68.4245L40.7976 68.1743L41.7937 67.9324L42.7979 67.6992L43.8098 67.4745L44.8294 67.2585L45.8563 67.0513L46.8904 66.853L47.9315 66.6636L48.9793 66.4832L50.0335 66.3119L51.0941 66.1497L52.1607 65.9967L53.2332 65.853L54.3112 65.7186L55.3947 65.5935L56.4832 65.4779L57.5767 65.3717L58.6748 65.2751L59.7774 65.188L60.8843 65.1105L61.995 65.0427L63.1096 64.9845L64.2276 64.9361L65.3489 64.8973L66.4732 64.8683L67.6003 64.8491L68.73 64.8397L69.862 64.8401L70.996 64.8503L72.1319 64.8703L73.2693 64.9002L74.4081 64.9399L75.5481 64.9895L76.6888 65.0489L77.8302 65.1182L78.972 65.1973L80.1139 65.2862L81.2557 65.3849L82.3972 65.4934L83.538 65.6116L84.6781 65.7396L85.817 65.8774L86.9547 66.0248L88.0908 66.1818L89.2251 66.3485L90.3574 66.5248L91.4874 66.7106L92.6149 66.9059L93.7397 67.1107L94.8614 67.3248L95.98 67.5484L97.0951 67.7812L98.2065 68.0232L99.314 68.2744L100.417 68.5347L101.516 68.8041L102.611 69.0824L103.7 69.3697L104.784 69.6657L105.864 69.9705L106.937 70.284L108.005 70.6061L109.067 70.9366L110.123 71.2756L111.172 71.6228L112.214 71.9783L113.25 72.3419L114.279 72.7135L115.3 73.093L116.314 73.4804L117.321 73.8755L118.319 74.2781L119.309 74.6883L120.291 75.1058L121.265 75.5306L122.229 75.9625L123.185 76.4014L124.132 76.8472L125.07 77.2998L125.998 77.759L126.916 78.2247L127.824 78.6968L128.723 79.1751L129.611 79.6595L130.489 80.1499L131.356 80.6461L132.212 81.148L133.058 81.6554L133.892 82.1682L134.715 82.6862L135.527 83.2093L136.327 83.7374L137.116 84.2702L137.892 84.8077L138.657 85.3496L139.409 85.8958L140.149 86.4462L140.877 87.0005L141.592 87.5587L142.294 88.1206L142.983 88.6859L143.659 89.2545L144.322 89.8263L144.972 90.4011L145.609 90.9787L146.232 91.5589L146.841 92.1416L147.436 92.7266L148.018 93.3137L148.586 93.9028L149.14 94.4936L149.679 95.086L150.204 95.6797L150.715 96.2747L151.212 96.8708L151.694 97.4677L152.161 98.0653L152.614 98.6634L153.052 99.2617L153.475 99.8602L153.883 100.459L154.277 101.057L154.655 101.655L155.018 102.252L155.366 102.848L155.699 103.444L156.017 104.038L156.319 104.631L156.607 105.222L156.878 105.812L157.135 106.399L157.376 106.985L157.601 107.568L157.811 108.149L158.006 108.727L158.185 109.302L158.349 109.875L158.497 110.444L158.63 111.009L158.747 111.572L158.849 112.13L158.935 112.684L159.006 113.235L159.061 113.781L159.101 114.322L159.125 114.859L159.134 115.391L159.127 115.918L159.106 116.44L159.069 116.956L159.016 117.467L158.949 117.972L158.866 118.472L158.768 118.965L158.655 119.452L158.527 119.932L158.384 120.406L158.226 120.874L158.053 121.334L157.866 121.788L157.664 122.234L157.447 122.673L157.215 123.104L156.97 123.528L156.71 123.944L156.435 124.351L156.146 124.751L155.844 125.142L155.527 125.525L155.196 125.9L154.852 126.265L154.494 126.622L154.122 126.97L153.737 127.309L153.339 127.638L152.927 127.958L152.502 128.269L152.065 128.57L151.614 128.861L151.151 129.142L150.675 129.413L150.187 129.674L149.686 129.925L149.174 130.165L148.649 130.395L148.112 130.614L147.564 130.823L147.004 131.021L146.433 131.208L145.85 131.384L145.257 131.548L144.652 131.702L144.037 131.844L143.411 131.976L142.775 132.095L142.129 132.203L141.472 132.3L140.805 132.384L140.129 132.458L139.443 132.519L138.748 132.568L138.044 132.606L137.331 132.631L136.609 132.644L135.878 132.646L135.139 132.635L134.391 132.611L133.636 132.576L132.872 132.528L132.101 132.468L131.323 132.396L130.537 132.311L129.745 132.214L128.945 132.104L128.139 131.982L127.326 131.847L126.507 131.7L125.682 131.54L124.851 131.368L124.015 131.183L123.173 130.985L122.326 130.776L121.474 130.553L120.617 130.318L119.756 130.07L118.89 129.81L118.02 129.538L117.147 129.252L116.269 128.955L115.388 128.645L114.504 128.322L113.617 127.988L112.727 127.64L111.834 127.281L110.939 126.909L110.041 126.525L109.142 126.129L108.241 125.721L107.338 125.301L106.434 124.869L105.529 124.425L104.623 123.969L103.717 123.501L102.81 123.021L101.902 122.53L100.995 122.027L100.088 121.513L99.1813 120.987L98.2752 120.45L97.3699 119.902L96.4657 119.343L95.5627 118.772L94.6612 118.191L93.7613 117.599L92.8634 116.996L91.9675 116.382L91.0739 115.758L90.1829 115.123L89.2945 114.479L88.4091 113.824L87.5268 113.159L86.6478 112.484L85.7723 111.799L84.9005 111.105L84.0327 110.401L83.1689 109.687L82.3095 108.965L81.4546 108.233L80.6043 107.493L79.759 106.743L78.9187 105.985L78.0836 105.219L77.2541 104.444L76.4301 103.661L75.6119 102.869L74.7997 102.07L73.9937 101.263L73.194 100.449L72.4008 99.6274L71.6142 98.7984L70.8345 97.9625L70.0619 97.1196L69.2964 96.2701L68.5383 95.4141L67.7876 94.5517L67.0446 93.6832L66.3094 92.8088L65.5822 91.9285L64.8631 91.0427L64.1523 90.1515L63.4499 89.2551L62.756 88.3537L62.0708 87.4475L61.3945 86.5367L60.7271 85.6215L60.0688 84.702L59.4198 83.7785L58.7801 82.8513L58.1499 81.9204L57.5293 80.9862L56.9184 80.0487L56.3174 79.1082L55.7263 78.165L55.1453 77.2193L54.5744 76.2711L54.0138 75.3209L53.4636 74.3687L52.9239 73.4148L52.3948 72.4594L51.8763 71.5027L51.3686 70.545L50.8717 69.5865L50.3858 68.6272L49.9108 67.6677L49.447 66.7079L48.9943 65.7481L48.5528 64.7886L48.1227 63.8296L47.7039 62.8713L47.2965 61.9138L46.9007 60.9576L46.5163 60.0027L46.1436 59.0493L45.7825 58.0978L45.4331 57.1483L45.0954 56.201L44.7695 55.2563L44.4555 54.3142L44.1532 53.375L43.8629 52.4389L43.5844 51.5062L43.3179 50.5771L43.0633 49.6518L42.8207 48.7304L42.59 47.8134L42.3713 46.9007L42.1647 45.9927L41.97 45.0897L41.7873 44.1917L41.6167 43.299L41.458 42.4119L41.3113 41.5305L41.1766 40.655L41.0538 39.7858L40.943 38.9229L40.8441 38.0666L40.757 37.2171L40.6819 36.3745L40.6186 35.5392L40.567 34.7113L40.5273 33.8911L40.4992 33.0786L40.4829 32.2741L40.4782 31.4779L40.485 30.6901L40.5034 29.9109L40.5333 29.1404L40.5746 28.379L40.6272 27.6267L40.6911 26.8839L40.7663 26.1505L40.8526 25.4269L40.95 24.7133L41.0584 24.0097L41.1777 23.3164L41.3078 22.6335L41.4488 21.9613L41.6004 21.2999L41.7625 20.6494L41.9352 20.0101L42.1183 19.3821L42.3116 18.7655L42.5152 18.1606L42.7288 17.5674L42.9525 16.9862L43.186 16.417L43.4293 15.8601L43.6822 15.3156L43.9447 14.7836L44.2166 14.2643L44.4978 13.7578L44.7881 13.2642L45.0876 12.7837L45.3959 12.3164L45.7131 11.8624L46.0389 11.4219L46.3732 10.995L46.716 10.5818L47.067 10.1823L47.4261 9.79687L47.7932 9.42542L48.1681 9.06813L48.5507 8.72508L48.9409 8.39638L49.3384 8.08212L49.7432 7.78241L50.155 7.49732L50.5738 7.22694L50.9994 6.97138L51.4316 6.7307L51.8702 6.50496L52.3152 6.29428L52.7662 6.09869L53.2233 5.91827L53.6861 5.7531L54.1546 5.60322L54.6286 5.46869L55.1078 5.34956L55.5923 5.2459L56.0816 5.15774L56.5758 5.08512L57.0746 5.0281L57.5778 4.9867L58.0853 4.96096L58.5969 4.9509L59.1123 4.95655L59.6316 4.97794L60.1544 5.01506L60.6806 5.06797L61.21 5.13664L61.7424 5.2211L62.2776 5.32135L62.8155 5.43739L63.3559 5.56921L63.8986 5.71681L64.4435 5.88019L64.9902 6.05931L65.5387 6.25416L66.0888 6.46475L66.6403 6.69101L67.1929 6.93294L67.7466 7.19049L68.3011 7.46364L68.8563 7.75236L69.4119 8.05658L69.9679 8.37626L70.5239 8.71135L71.0799 9.06182L71.6356 9.42758L72.1909 9.8086L72.7456 10.2048L73.2994 10.6161L73.8523 11.0424L74.404 11.4838L74.9545 11.94L75.5033 12.411L76.0506 12.8967L76.5959 13.3971L77.1392 13.912L77.6803 14.4413L78.2189 14.985L78.7551 15.543L79.2885 16.1151L79.819 16.7012L80.3464 17.3013L80.8706 17.9151L81.3914 18.5427L81.9086 19.1838L82.4221 19.8384L82.9316 20.5063L83.4371 21.1873L83.9384 21.8814L84.4354 22.5885L84.9277 23.3083L85.4154 24.0407L85.8982 24.7856L86.3761 25.5429L86.8488 26.3124L87.3162 27.0939L87.7781 27.8872L88.2345 28.6923L88.6851 29.509L89.1299 30.337L89.5686 31.1762L90.0012 32.0265L90.4275 32.8877L90.8474 33.7596L91.2607 34.642L91.6674 35.5347L92.0672 36.4376L92.4601 37.3505L92.846 38.2731L93.2247 39.2054L93.5961 40.147L93.96 41.0979L94.3165 42.0578L94.6653 43.0265L95.0064 44.0038L95.3397 44.9895L95.665 45.9834L95.9822 46.9853L96.2913 47.9951L96.5922 49.0123L96.8847 50.037L97.1688 51.0688L97.4443 52.1076L97.7113 53.153L97.9696 54.205L98.2191 55.2633L98.4598 56.3276L98.6916 57.3977L98.9143 58.4735L99.128 59.5546L99.3326 60.6409L99.528 61.7322L99.7142 62.8281L99.8911 63.9285L100.059 65.0332L100.217 66.1418L100.365 67.2542L100.504 68.3702L100.634 69.4894L100.754 70.6118L100.864 71.7369L100.965 72.8647L101.056 73.9948L101.137 75.127L101.209 76.2611L101.271 77.3968L101.323 78.5339L101.365 79.6722L101.397 80.8114L101.42 81.9513L101.433 83.0916L101.436 84.2321L101.429 85.3725L101.412 86.5127L101.385 87.6523L101.349 88.7912L101.303 89.929L101.247 91.0656L101.181 92.2007L101.105 93.334L101.02 94.4654L100.925 95.5946L100.821 96.7213L100.706 97.8453L100.582 98.9664L100.449 100.084L100.306 101.199L100.153 102.31L99.9914 103.417L99.8201 104.52L99.6395 105.618L99.4495 106.713L99.2504 107.802L99.0421 108.886L98.8247 109.965L98.5982 111.038L98.3628 112.106L98.1185 113.168L97.8654 114.224L97.6036 115.273L97.3331 116.316L97.0541 117.352L96.7665 118.381L96.4706 119.403L96.1664 120.417L95.854 121.423L95.5334 122.422L95.2049 123.413L94.8684 124.395L94.5242 125.369L94.1722 126.334L93.8127 127.29L93.4457 128.237L93.0713 129.175L92.6896 130.103L92.3009 131.022L91.9051 131.931L91.5025 132.83L91.0931 133.718L90.6771 134.596L90.2546 135.464L89.8257 136.321L89.3906 137.167L88.9494 138.001L88.5022 138.825L88.0493 139.637L87.5906 140.437L87.1264 141.225L86.6569 142.002L86.1821 142.767L85.7022 143.519L85.2173 144.259L84.7277 144.986L84.2335 145.701L83.7348 146.402L83.2317 147.091L82.7246 147.767L82.2134 148.429L81.6983 149.079L81.1797 149.714L80.6575 150.336L80.132 150.944L79.6033 151.539L79.0715 152.119L78.537 152.686L77.9998 153.238L77.4601 153.776L76.9181 154.299L76.374 154.808L75.8279 155.303L75.2799 155.782L74.7304 156.247L74.1795 156.697L73.6272 157.133L73.0739 157.553L72.5197 157.958L71.9648 158.348L71.4093 158.723L70.8534 159.082L70.2974 159.427L69.7414 159.755L69.1855 160.069L68.6301 160.367L68.0751 160.649L67.5209 160.916L66.9676 161.167L66.4155 161.403L65.8645 161.622L65.3151 161.827L64.7673 162.015L64.2213 162.188L63.6773 162.345L63.1355 162.486L62.5961 162.611L62.0593 162.721L61.5252 162.815L60.994 162.893L60.4658 162.955L59.941 163.002L59.4196 163.032L58.9019 163.047L58.388 163.046L57.878 163.03L57.3723 162.998L56.8708 162.95L56.3739 162.887L55.8817 162.808L55.3943 162.713L54.912 162.603L54.4349 162.478L53.9631 162.337L53.4969 162.181L53.0364 162.01L52.5817 161.823L52.1332 161.621L51.6908 161.404L51.2547 161.173L50.8252 160.926L50.4024 160.664L49.9864 160.388L49.5774 160.097L49.1756 159.791L48.781 159.471L48.3939 159.137L48.0144 158.788L47.6427 158.425L47.2788 158.047L46.923 157.656L46.5754 157.251L46.236 156.832L45.9051 156.4L45.5828 155.954L45.2692 155.494L44.9645 155.022L44.6688 154.536L44.3821 154.037L44.1047 153.525L43.8366 153.001L43.578 152.464L43.329 151.914L43.0897 151.352L42.8602 150.778L42.6406 150.192L42.431 149.594L42.2316 148.984L42.0425 148.363L41.8636 147.73L41.6952 147.087L41.5373 146.432L41.3901 145.766L41.2535 145.089L41.1278 144.402L41.0129 143.705L40.909 142.997L40.8161 142.279L40.7343 141.551L40.6637 140.814L40.6044 140.068L40.5564 139.312L40.5197 138.546L40.4945 137.772L40.4808 136.99L40.4787 136.198L40.4881 135.399L40.5092 134.591L40.542 133.775L40.5866 132.952L40.6429 132.121L40.7111 131.283L40.791 130.437L40.8829 129.585L40.9867 128.726L41.1024 127.86L41.23 126.989L41.3696 126.111L41.5212 125.227L41.6847 124.338L41.8603 123.443L42.0479 122.543L42.2474 121.638L42.459 120.728L42.6825 119.813L42.918 118.894L43.1656 117.971L43.425 117.044L43.6964 116.114L43.9797 115.18L44.2749 114.242L44.582 113.302L44.9009 112.359L45.2316 111.413L45.574 110.465L45.9282 109.514L46.294 108.562L46.6715 107.608L47.0605 106.653L47.4611 105.696L47.8731 104.738L48.2965 103.779L48.7313 102.82L49.1773 101.861L49.6346 100.901L50.103 99.941L50.5824 98.9816L51.0728 98.0226L51.5741 97.0643L52.0862 96.107L52.6091 95.1508L53.1425 94.196L53.6865 93.2428L54.2409 92.2914L54.8057 91.342L55.3807 90.3948L55.9658 89.45L56.561 88.5079L57.1661 87.5687L57.7809 86.6325L58.4055 85.6996L59.0395 84.7701L59.683 83.8444L60.3359 82.9225L60.9979 82.0048L61.6689 81.0913L62.3489 80.1824L63.0376 79.2781L63.735 78.3787L64.4408 77.4844L65.1551 76.5954L65.8775 75.7118L66.608 74.8339L67.3463 73.9619L68.0925 73.0958L68.8462 72.236L69.6074 71.3826L70.3758 70.5358L71.1513 69.6957L71.9338 68.8626L72.7231 68.0366L73.5189 67.2178L74.3213 66.4066L75.1298 65.6029L75.9445 64.807L76.765 64.0191L77.5913 63.2393L78.4232 62.4677L79.2604 61.7046L80.1028 60.95L80.9501 60.2041L81.8023 59.4672L82.6591 58.7392L83.5203 58.0205L84.3857 57.311L85.2552 56.611L86.1285 55.9205L87.0054 55.2398L87.8858 54.5689L88.7694 53.908L89.656 53.2571L90.5455 52.6165L91.4376 51.9862L92.3322 51.3664L93.2289 50.7571L94.1276 50.1585L95.0282 49.5707L95.9303 48.9938L96.8339 48.4278L97.7386 47.873L98.6442 47.3293L99.5506 46.7969L100.458 46.2758L101.365 45.7662L102.272 45.2681L103.179 44.7817L104.086 44.3069L104.993 43.8439L105.898 43.3927L106.803 42.9533L107.706 42.526L108.608 42.1107L109.509 41.7074L110.407 41.3163L111.304 40.9374L112.198 40.5707L113.09 40.2162L113.979 39.8741L114.865 39.5444L115.748 39.227L116.627 38.922L117.503 38.6295L118.375 38.3495L119.243 38.082L120.107 37.8269L120.967 37.5844L121.822 37.3545L122.672 37.137L123.517 36.9322L124.356 36.7399L125.191 36.5601L126.019 36.3929L126.841 36.2382L127.658 36.0961L128.468 35.9665L129.272 35.8493L130.068 35.7447L130.858 35.6525L131.641 35.5727L132.416 35.5054L133.184 35.4503L133.944 35.4076L134.697 35.3772L135.441 35.3591L136.177 35.3531L136.904 35.3593L137.622 35.3776L138.332 35.4079L139.033 35.4501L139.724 35.5044L140.406 35.5704L141.078 35.6483L141.741 35.7378L142.393 35.8391L143.035 35.9518L143.667 36.0761L144.289 36.2118L144.9 36.3587L145.5 36.517L146.089 36.6863L146.667 36.8668L147.234 37.0581L147.789 37.2604L148.332 37.4733L148.864 37.697L149.384 37.9312L149.892 38.1758L150.387 38.4307L150.87 38.6958L151.341 38.9711L151.799 39.2563L152.245 39.5514L152.677 39.8562L153.096 40.1706L153.503 40.4944L153.896 40.8276L154.275 41.1701L154.641 41.5216L154.994 41.882L155.333 42.2513L155.658 42.6292L155.969 43.0156L156.266 43.4104L156.549 43.8134L156.817 44.2245L157.072 44.6435L157.311 45.0703L157.537 45.5047L157.748 45.9466L157.944 46.3957L158.125 46.852L158.292 47.3153L158.444 47.7854L158.581 48.2622L158.703 48.7454L158.81 49.235L158.901 49.7307L158.978 50.2325L159.039 50.74L159.086 51.2531L159.116 51.7718L159.132 52.2957L159.132 52.8248L159.117 53.3588L159.086 53.8975L159.04 54.4409L158.979 54.9886L158.902 55.5406L158.809 56.0967L158.701 56.6566L158.578 57.2202L158.439 57.7873L158.284 58.3577L158.114 58.9312L157.929 59.5077L157.728 60.087L157.511 60.6688L157.279 61.253L157.032 61.8395L156.769 62.4279L156.491 63.0183L156.198 63.6102L155.889 64.2037L155.565 64.7984L155.226 65.3942L154.872 65.9909L154.503 66.5883L154.118 67.1863L153.719 67.7846L153.305 68.3831L152.875 68.9816L152.431 69.5799L151.973 70.1778L151.499 70.7751L151.011 71.3717L150.509 71.9673L149.992 72.5619L149.461 73.1551L148.916 73.7469L148.356 74.337L147.783 74.9252L147.195 75.5115L146.594 76.0956L145.979 76.6773L145.351 77.2565L144.709 77.833L144.054 78.4065L143.385 78.9771L142.704 79.5444L142.009 80.1083L141.302 80.6687L140.582 81.2253L139.849 81.7781L139.104 82.3268L138.347 82.8713L137.577 83.4114L136.796 83.947L136.003 84.4779L135.198 85.0039L134.381 85.525L133.554 86.0409L132.715 86.5515L131.865 87.0567L131.004 87.5563L130.132 88.0501L129.25 88.5381L128.358 89.0201L127.455 89.4959L126.543 89.9654L125.621 90.4284L124.689 90.885L123.748 91.3348L122.797 91.7778L121.838 92.2139L120.869 92.6429L119.892 93.0648L118.907 93.4793L117.913 93.8864L116.912 94.286L115.902 94.6779L114.885 95.0621L113.861 95.4384L112.829 95.8068L111.791 96.1671L110.745 96.5192L109.693 96.8631L108.635 97.1986L107.571 97.5257L106.501 97.8443L105.425 98.1543L104.343 98.4555L103.257 98.748L102.165 99.0316L101.069 99.3063L99.9684 99.572L98.8633 99.8286L97.7542 100.076L96.6413 100.314L95.5247 100.543L94.4049 100.763L93.2819 100.973L92.156 101.174L91.0274 101.366L89.8964 101.548L88.7633 101.72L87.6282 101.883L86.4915 102.036L85.3532 102.179L84.2138 102.313L83.0734 102.437L81.9323 102.552L80.7906 102.656L79.6488 102.751L78.5069 102.836L77.3652 102.911L76.2241 102.976L75.0836 103.031L73.9441 103.077L72.8058 103.113L71.669 103.139L70.5338 103.155L69.4006 103.161L68.2695 103.157L67.1409 103.144L66.0149 103.121L64.8918 103.088L63.7718 103.045L62.6551 102.993L61.5421 102.93L60.4329 102.859L59.3278 102.777L58.227 102.686L57.1307 102.586L56.0392 102.476L54.9527 102.356L53.8714 102.227L52.7956 102.089L51.7255 101.942L50.6613 101.785L49.6033 101.619L48.5517 101.444L47.5066 101.26L46.4683 101.067L45.4371 100.865L44.4132 100.654L43.3967 100.435L42.3879 100.206L41.387 99.9697L40.3942 99.7244L39.4097 99.4707L38.4338 99.2087L37.4666 98.9384L36.5084 98.6601L35.5592 98.3736L34.6195 98.0793L33.6892 97.7771L32.7688 97.4673L31.8582 97.1497L30.9577 96.8247L30.0676 96.4923L29.188 96.1527L28.319 95.8058L27.4609 95.4519L26.6139 95.0911L25.778 94.7235L24.9536 94.3493L24.1407 93.9685L23.3396 93.5813L22.5504 93.1878L21.7732 92.7882L21.0082 92.3826L20.2557 91.9711L19.5157 91.5539L18.7883 91.1311L18.0738 90.7029L17.3723 90.2693L16.684 89.8306L16.0089 89.3869L15.3472 88.9384L14.699 88.4852L14.0646 88.0274L13.4439 87.5653L12.8372 87.0989L12.2445 86.6284L11.666 86.154L11.1018 85.6759L10.552 85.1942L10.0167 84.7091L9.49599 84.2207L8.99001 83.7292L8.49885 83.2347L8.02261 82.7375L7.56136 82.2377L7.11522 81.7355L6.68425 81.2311L6.26854 80.7245L5.86817 80.2161L5.48321 79.7059L5.11375 79.1941L4.75984 78.681L4.42154 78.1666L4.09893 77.6512L3.79205 77.1349L3.50096 76.618L3.22571 76.1006L2.96635 75.5828L2.72293 75.0648L2.49546 74.5469L2.28401 74.0292L2.0886 73.5119L1.90924 72.9952L1.74598 72.4791L1.59884 71.964L1.46782 71.45L1.35294 70.9373L1.25422 70.426L1.17166 69.9164L1.10526 69.4085L1.05502 68.9026L1.02094 68.399L1.00301 67.8976L1.00122 67.3988L1.01555 66.9027L1.04598 66.4094L1.09248 65.9192L1.15505 65.4322L1.23363 64.9485L1.32822 64.4685L1.43875 63.9922L1.56518 63.5198L1.7075 63.0515L1.86563 62.5874L2.03953 62.1277L2.22915 61.6726L2.43442 61.2223L2.65528 60.7769L2.89166 60.3365L3.14352 59.9014L3.41075 59.4718L3.6933 59.0476L3.99107 58.6292L4.30399 58.2167L4.63199 57.8102L4.97494 57.4099L5.33278 57.016L5.7054 56.6285L6.09272 56.2477L6.49461 55.8737L6.91097 55.5066L7.34171 55.1466L7.78671 54.7939L8.24584 54.4485L8.71899 54.1106L9.20605 53.7803L9.70687 53.4579L10.2214 53.1433L10.7494 52.8368L11.2907 52.5385L11.8454 52.2485L12.4131 51.9669L12.9938 51.6938L13.5873 51.4295L14.1935 51.1739L14.8123 50.9272L15.4434 50.6895L16.0867 50.461L16.7421 50.2417L17.4093 50.0318L18.0883 49.8313L18.7789 49.6403L19.4809 49.459L20.194 49.2875L20.9183 49.1258L21.6534 48.974L22.3992 48.8322L23.1556 48.7006L23.9223 48.5791L24.6991 48.4679L25.4859 48.3671L26.2825 48.2767L27.0887 48.1967L27.9042 48.1274L28.729 48.0686L29.5628 48.0206L30.4054 47.9833L31.2565 47.9569L32.1161 47.9413L32.9839 47.9366L33.8597 47.9429L34.7433 47.9602L35.6345 47.9886L36.533 48.028L37.4387 48.0786L38.3513 48.1404L39.2707 48.2134L40.1966 48.2976L41.1288 48.393L42.0671 48.4997L43.0113 48.6178L43.9611 48.7471L44.9164 48.8878L45.8769 49.0397L46.8423 49.2031L47.8125 49.3777L48.7873 49.5637L49.7663 49.7611L50.7495 49.9697L51.7365 50.1897L52.7272 50.421L53.7213 50.6636L54.7185 50.9174L55.7188 51.1825L56.7217 51.4589L57.7272 51.7464L58.7349 52.0451L59.7447 52.3549L60.7563 52.6758L61.7695 53.0078L62.784 53.3507L63.7997 53.7047L64.8162 54.0695L65.8335 54.4452L66.8512 54.8317L67.8691 55.2289L68.887 55.6368L69.9046 56.0553L70.9218 56.4843L71.9383 56.9238L72.9539 57.3737L73.9684 57.8339L74.9815 58.3044L75.993 58.785L77.0027 59.2756L78.0103 59.7762L79.0157 60.2868L80.0187 60.807L81.0189 61.337L82.0162 61.8766L83.0104 62.4256L84.0013 62.984L84.9886 63.5517L85.9721 64.1285L86.9516 64.7144L87.927 65.3091L88.8979 65.9127L89.8642 66.5249L90.8257 67.1457L91.7822 67.7749L92.7334 68.4124L93.6792 69.058L94.6194 69.7116L95.5538 70.3731L96.4821 71.0424L97.4042 71.7192L98.3199 72.4035L99.229 73.0951L100.131 73.7939L101.027 74.4996L101.915 75.2121L102.796 75.9314L103.669 76.6572L104.534 77.3893L105.392 78.1276L106.242 78.872L107.083 79.6222L107.916 80.3781L108.741 81.1395L109.556 81.9063L110.363 82.6783L111.161 83.4552L111.949 84.237L112.728 85.0234L113.498 85.8143L114.258 86.6094L115.008 87.4086L115.749 88.2117L116.479 89.0186L117.199 89.8289L117.908 90.6426L118.607 91.4594L119.295 92.2792L119.973 93.1017L120.64 93.9268L121.295 94.7542L121.94 95.5838L122.573 96.4153L123.195 97.2486L123.806 98.0834L124.405 98.9196L124.992 99.757L125.567 100.595L126.131 101.434L126.683 102.274L127.222 103.114L127.75 103.954L128.265 104.794L128.768 105.633L129.258 106.473L129.736 107.311L130.202 108.149L130.655 108.985L131.095 109.82L131.522 110.654L131.937 111.485L132.339 112.315L132.728 113.143L133.104 113.968L133.467 114.791L133.817 115.611L134.154 116.427L134.478 117.241L134.788 118.051L135.086 118.858L135.37 119.661L135.641 120.459L135.899 121.254L136.144 122.044L136.375 122.829L136.593 123.609L136.798 124.385L136.99 125.155L137.168 125.919L137.333 126.678L137.485 127.431L137.623 128.178L137.749 128.919L137.861 129.653L137.96 130.381L138.045 131.101L138.118 131.815L138.177 132.521L138.224 133.22L138.257 133.911L138.277 134.595L138.285 135.27L138.279 135.937L138.261 136.596L138.23 137.246L138.186 137.888L138.13 138.52L138.061 139.144L137.979 139.758L137.885 140.363L137.778 140.958L137.659 141.543L137.528 142.119L137.385 142.684L137.23 143.239L137.062 143.784L136.883 144.318L136.692 144.841L136.489 145.353L136.275 145.854L136.049 146.344L135.811 146.823L135.563 147.29L135.303 147.746L135.032 148.19L134.75 148.622L134.457 149.041L134.154 149.449L133.84 149.844L133.515 150.227L133.18 150.597L132.835 150.955L132.48 151.3L132.115 151.632L131.74 151.95L131.355 152.256L130.961 152.549L130.557 152.828L130.144 153.094L129.722 153.346L129.291 153.584L128.851 153.809L128.403 154.02L127.946 154.217L127.481 154.4L127.007 154.569L126.526 154.724L126.036 154.865L125.539 154.991L125.035 155.103L124.523 155.201L124.004 155.284L123.478 155.352L122.945 155.406L122.405 155.446L121.859 155.471L121.307 155.481L120.748 155.476L120.183 155.456L119.613 155.422L119.037 155.373L118.456 155.309L117.869 155.23L117.277 155.136L116.681 155.028L116.08 154.904L115.474 154.765L114.864 154.612L114.25 154.443L113.631 154.26L113.01 154.061L112.384 153.848L111.755 153.62L111.123 153.377L110.488 153.118L109.851 152.846L109.21 152.558L108.567 152.255L107.922 151.938L107.275 151.606L106.627 151.259L105.976 150.898L105.324 150.522L104.671 150.132L104.016 149.727L103.361 149.308L102.705 148.874L102.049 148.426L101.392 147.964L100.736 147.487L100.079 146.997L99.4226 146.492L98.7666 145.974L98.1113 145.442L97.4568 144.896L96.8034 144.337L96.1511 143.763L95.5003 143.177L94.851 142.577L94.2035 141.964L93.558 141.338L92.9145 140.698L92.2734 140.046L91.6348 139.381L90.9989 138.704L90.3658 138.013L89.7357 137.311L89.1088 136.596L88.4853 135.869L87.8653 135.13L87.2491 134.379L86.6367 133.617L86.0284 132.842L85.4243 132.057L84.8246 131.26L84.2295 130.452L83.6391 129.633L83.0535 128.803L82.473 127.963L81.8976 127.112L81.3276 126.251L80.7631 125.379L80.2043 124.498L79.6512 123.607L79.1041 122.706L78.5631 121.796L78.0283 120.876L77.4999 119.948L76.978 119.011L76.4627 118.064L75.9542 117.11L75.4527 116.147L74.9581 115.176L74.4708 114.197L73.9907 113.21L73.5181 112.216L73.053 111.215L72.5955 110.206L72.1459 109.191L71.7041 108.169L71.2703 107.14L70.8446 106.105L70.4272 105.064L70.018 104.017L69.6172 102.965L69.225 101.907L68.8414 100.844L68.4664 99.7761L68.1003 98.7034L67.743 97.6262L67.3947 96.5447L67.0554 95.4592L66.7252 94.3699L66.4042 93.2769L66.0925 92.1805L65.7901 91.0811L65.4971 89.9787L65.2135 88.8736L64.9395 87.7661L64.6751 86.6564L64.4203 85.5447L64.1752 84.4313L63.9398 83.3164L63.7142 82.2002L63.4985 81.083L63.2926 79.965L63.0966 78.8464L62.9105 77.7275L62.7344 76.6086L62.5683 75.4898L62.4123 74.3714L62.2662 73.2537L62.1303 72.1368L62.0044 71.021L61.8886 69.9066L61.7829 68.7938L61.6872 67.6829L61.6018 66.574L61.5264 65.4674L61.4611 64.3633L61.4059 63.2621L61.3608 62.1638L61.3258 61.0688L61.3009 59.9773L61.286 58.8896L61.2812 57.8057L61.2863 56.7261L61.3014 55.6509L61.3265 54.5804L61.3615 53.5147L61.4063 52.4542L61.461 51.399L61.5255 50.3493L61.5998 49.3055L61.6838 48.2677L61.7774 47.2362L61.8806 46.2111L61.9933 45.1927L62.1156 44.1812L62.2473 43.1768L62.3883 42.1798L62.5386 41.1903L62.6982 40.2087L62.8669 39.235L63.0446 38.2695L63.2314 37.3124L63.4271 36.3639L63.6316 35.4242L63.8448 34.4935L64.0667 33.5721L64.2972 32.6601L64.5361 31.7577L64.7834 30.8651L65.039 29.9825L65.3028 29.1101L65.5746 28.248L65.8543 27.3966L66.142 26.5559L66.4373 25.7261L66.7403 24.9074L67.0508 24.1L67.3687 23.3041L67.6938 22.5198L68.0261 21.7473L68.3654 20.9867L68.7117 20.2383L69.0646 19.5022L69.4243 18.7785L69.7904 18.0674L70.1629 17.3691L70.5416 16.6837L70.9264 16.0113L71.3171 15.3521L71.7137 14.7062L72.1159 14.0738L72.5236 13.455L72.9367 12.85L73.3551 12.2588L73.7785 11.6816L74.2068 11.1185L74.6399 10.5696L75.0775 10.0351L75.5197 9.51502L75.9661 9.00952L76.4167 8.5187L76.8712 8.04266L77.3295 7.58149L77.7915 7.13529L78.257 6.70415L78.7258 6.28817L79.1977 5.88743L79.6726 5.50201L80.1503 5.13198L80.6307 4.77743L81.1135 4.43844L81.5986 4.11505L82.0859 3.80736L82.5751 3.51539L83.0661 3.23924L83.5587 2.97894L84.0527 2.73454L84.548 2.50609L85.0444 2.29364L85.5417 2.09723L86.0397 1.91689L86.5383 1.75265L87.0372 1.60456L87.5363 1.47261L88.0355 1.35685L88.5345 1.25729L89.0332 1.17394L89.5313 1.10682L90.0288 1.05592L90.5254 1.02127L91.021 1.00285L91.5153 1.00066L92.0082 1.0147L92.4996 1.04494L92.9892 1.09138L93.4769 1.15401L93.9625 1.23279L94.4458 1.32771L94.9266 1.43873L95.4048 1.5658L95.8802 1.70893L96.3527 1.86804L96.822 2.0431L97.288 2.23406L97.7505 2.44088L98.2093 2.66349L98.6643 2.90185L99.1153 3.15587L99.5622 3.4255L100.005 3.71069L100.443 4.01135L100.876 4.3274L101.305 4.65877L101.728 5.00538L102.147 5.36713L102.56 5.74395L102.968 6.13573L103.37 6.54239L103.766 6.96383L104.157 7.39993L104.541 7.85061L104.919 8.31574L105.291 8.79521L105.656 9.28892L106.015 9.79673L106.367 10.3186L106.712 10.8542L107.05 11.4036L107.38 11.9667L107.704 12.5432L108.02 13.133L108.328 13.736L108.628 14.3521L108.921 14.9811L109.206 15.6229L109.482 16.2773L109.751 16.9442L110.011 17.6233L110.262 18.3146L110.505 19.0179L110.739 19.733L110.965 20.4598L111.181 21.198L111.389 21.9475L111.588 22.7082L111.777 23.4799L111.957 24.2623L112.127 25.0554L112.289 25.8589L112.44 26.6725L112.582 27.4963L112.714 28.3299L112.837 29.1732L112.949 30.0259L113.052 30.8879L113.144 31.759L113.226 32.639L113.299 33.5277L113.361 34.4248L113.412 35.3302L113.453 36.2437L113.484 37.165L113.505 38.094L113.515 39.0304L113.514 39.974L113.503 40.9246L113.481 41.8821L113.448 42.8461L113.405 43.8164L113.351 44.7929L113.286 45.7754L113.211 46.7635L113.124 47.7571L113.027 48.7559L112.919 49.7598L112.8 50.7685L112.67 51.7817L112.53 52.7993L112.378 53.821L112.215 54.8466L112.042 55.8759L111.858 56.9086L111.663 57.9445L111.457 58.9834L111.24 60.025L111.013 61.0692L110.774 62.1156L110.525 63.1641L110.265 64.2144L109.995 65.2662L109.714 66.3194L109.422 67.3738L109.119 68.429L108.806 69.4849L108.483 70.5411L108.149 71.5977L107.804 72.6541L107.45 73.7103L107.085 74.766L106.709 75.8209L106.324 76.8749L105.929 77.9277L105.523 78.9791L105.108 80.0289L104.682 81.0768L104.247 82.1226L103.802 83.166L103.348 84.2069L102.884 85.245L102.411 86.2802L101.928 87.3121L101.436 88.3406L100.935 89.3654L100.425 90.3864L99.9055 91.4032L99.3775 92.4158L98.8409 93.4238L98.2956 94.4271L97.7418 95.4255L97.1797 96.4187L96.6093 97.4065L96.0308 98.3888L95.4443 99.3653L94.8499 100.336L94.2478 101.3L93.6381 102.258L93.0209 103.209L92.3964 104.154L91.7647 105.092L91.126 106.022L90.4804 106.945L89.828 107.861L89.169 108.769L88.5036 109.669L87.8319 110.56L87.1541 111.444L86.4703 112.319L85.7807 113.185L85.0854 114.043L84.3847 114.892L83.6786 115.731L82.9674 116.562L82.2512 117.382L81.5302 118.194L80.8046 118.995L80.0745 119.786L79.3401 120.568L78.6016 121.339L77.8593 122.1L77.1131 122.85L76.3635 123.589L75.6104 124.318L74.8542 125.036L74.0949 125.742L73.3329 126.438L72.5682 127.122L71.8012 127.795L71.0319 128.456L70.2605 129.105L69.4873 129.742L68.7124 130.368L67.9361 130.982L67.1586 131.583L66.3799 132.172L65.6004 132.749L64.8203 133.313L64.0397 133.865L63.2589 134.404L62.4779 134.931L61.6971 135.444L60.9167 135.945L60.1368 136.433L59.3577 136.907L58.5795 137.369L57.8025 137.817L57.0269 138.253L56.2528 138.675L55.4805 139.083L54.7101 139.478L53.942 139.86L53.1762 140.228L52.413 140.583L51.6527 140.924L50.8953 141.251L50.1411 141.565L49.3903 141.865L48.6431 142.151L47.8998 142.423L47.1604 142.682L46.4253 142.927L45.6946 143.158L44.9685 143.376L44.2472 143.579L43.5309 143.769L42.8198 143.945L42.1142 144.107L41.4141 144.255L40.7199 144.39L40.0316 144.51L39.3495 144.617L38.6738 144.71L38.0047 144.79L37.3423 144.856L36.6869 144.908L36.0386 144.946L35.3977 144.971L34.7642 144.982L34.1385 144.98L33.5206 144.965L32.9107 144.935L32.3091 144.893L31.7159 144.837L31.1313 144.768L30.5554 144.686L29.9885 144.591L29.4306 144.482L28.882 144.361L28.3429 144.227L27.8133 144.08L27.2935 143.92L26.7836 143.748L26.2838 143.562L25.7942 143.365L25.315 143.155L24.8463 142.933L24.3883 142.699L23.9412 142.452L23.505 142.194L23.0799 141.923L22.6661 141.641L22.2636 141.347L21.8727 141.042L21.4935 140.725L21.126 140.397L20.7705 140.058L20.4269 139.708L20.0956 139.347L19.7765 138.975L19.4698 138.592L19.1756 138.199L18.8941 137.795L18.6252 137.382L18.3692 136.958L18.1261 136.524L17.896 136.08L17.6791 135.627L17.4754 135.164L17.285 134.692L17.1079 134.21L16.9444 133.72L16.7944 133.22L16.658 132.712L16.5354 132.196L16.4265 131.671L16.3315 131.137L16.2503 130.596L16.1832 130.047L16.1301 129.49L16.091 128.925L16.0661 128.353L16.0554 127.774L16.0589 127.188L16.0767 126.595L16.1088 125.995L16.1552 125.389L16.216 124.777L16.2912 124.158L16.3808 123.533L16.4848 122.903L16.6034 122.267L16.7364 121.626L16.8839 120.98L17.0459 120.328L17.2223 119.672L17.4133 119.011L17.6188 118.346L17.8388 117.677L18.0732 117.003L18.3221 116.326L18.5855 115.645L18.8632 114.961L19.1554 114.273L19.462 113.582L19.7829 112.889L20.1181 112.193L20.4676 111.494L20.8313 110.793L21.2092 110.09L21.6012 109.385L22.0073 108.678L22.4274 107.97L22.8615 107.261L23.3095 106.55L23.7714 105.839L24.247 105.127L24.7363 104.414L25.2393 103.701L25.7558 102.988L26.2857 102.276L26.8291 101.563L27.3857 100.851L27.9555 100.139L28.5384 99.4286L29.1343 98.719L29.7431 98.0106L30.3647 97.3037L30.999 96.5984L31.6458 95.8948L32.3052 95.1933L32.9768 94.494L33.6607 93.797L34.3566 93.1026L35.0645 92.4109L35.7843 91.7221L36.5158 91.0364L37.2588 90.3539L38.0132 89.6749L38.779 88.9996L39.5558 88.328L40.3437 87.6605L41.1424 86.997L41.9518 86.3379L42.7718 85.6833L43.6021 85.0333L44.4426 84.3881L45.2931 83.748L46.1536 83.1129L47.0237 82.4832L47.9034 81.8589L48.7925 81.2402L49.6907 80.6273L50.598 80.0204L51.5141 79.4195L52.4388 78.8248L53.372 78.2365L54.3135 77.6547L55.263 77.0796L56.2205 76.5113L57.1856 75.9499L58.1582 75.3955L59.1381 74.8484L60.1252 74.3086L61.1191 73.7762L62.1197 73.2514L63.1268 72.7344L64.1401 72.2251L65.1596 71.7238L66.1849 71.2306L67.2158 70.7456L68.2522 70.2688L69.2937 69.8004L70.3403 69.3405L71.3916 68.8893L72.4475 68.4467L73.5078 68.0129L74.5721 67.588L75.6403 67.1721L76.7122 66.7653L77.7875 66.3677L78.866 65.9792L79.9475 65.6002L81.0318 65.2305L82.1185 64.8702L83.2076 64.5196L84.2987 64.1785L85.3916 63.8472L86.4861 63.5256L87.582 63.2138L88.679 62.9118L89.7768 62.6198L90.8753 62.3377L91.9743 62.0657L93.0734 61.8037L94.1724 61.5519L95.2712 61.3102L96.3694 61.0786L97.4668 60.8573L98.5632 60.6462L99.6584 60.4454L100.752 60.2549L101.844 60.0747L102.934 59.9049L104.022 59.7454L105.107 59.5962L106.19 59.4575L107.27 59.329L108.346 59.211L109.42 59.1034L110.489 59.0061L111.555 58.9192L112.617 58.8427L113.674 58.7765L114.727 58.7206L115.775 58.675L116.819 58.6398L117.857 58.6148L118.889 58.6L119.916 58.5954L120.937 58.601L121.951 58.6168L122.96 58.6426L123.961 58.6785L124.956 58.7243L125.944 58.7802L126.925 58.8459L127.898 58.9216L128.864 59.0069L129.822 59.1021L130.771 59.2069L131.713 59.3213L132.645 59.4452L133.57 59.5786L134.485 59.7214L135.391 59.8736L136.287 60.0349L137.175 60.2054L138.052 60.385L138.92 60.5736L139.777 60.771L140.624 60.9773L141.461 61.1922L142.287 61.4158L143.102 61.6479L143.906 61.8883L144.699 62.1371L145.48 62.3941L146.25 62.6591L147.008 62.9321L147.754 63.213L148.488 63.5016L149.21 63.7979L149.92 64.1016L150.616 64.4127L151.301 64.7311L151.972 65.0566L152.63 65.3891L153.275 65.7284L153.907 66.0745L154.525 66.4272L155.13 66.7863L155.721 67.1518L156.298 67.5234L156.862 67.9011L157.411 68.2847L157.945 68.674L158.466 69.0689L158.972 69.4693L159.463 69.8749L159.94 70.2857L160.402 70.7016L160.849 71.1222L161.281 71.5475L161.698 71.9774L162.099 72.4116L162.486 72.85L162.857 73.2925L163.212 73.7388L163.552 74.1888L163.877 74.6424L164.185 75.0994L164.478 75.5596L164.755 76.0229L165.016 76.489L165.262 76.9579L165.491 77.4293L165.704 77.903L165.901 78.379L166.082 78.857L166.247 79.3368L166.396 79.8184L166.528 80.3014L166.644 80.7858L166.744 81.2713L166.827 81.7578L166.894 82.2451L166.945 82.733L166.979 83.2214L166.997 83.7101L166.999 84.1989L166.984 84.6876L166.952 85.1761L166.905 85.6641L166.841 86.1516L166.76 86.6382L166.664 87.1239L166.551 87.6085L166.421 88.0918L166.276 88.5736L166.114 89.0538L165.936 89.5322L165.742 90.0085L165.532 90.4827L165.305 90.9545L165.063 91.4239L164.805 91.8905L164.531 92.3543L164.241 92.8151L163.935 93.2727L163.613 93.727L163.276 94.1777L162.924 94.6247L162.556 95.0679L162.172 95.5071L161.773 95.9421L161.359 96.3728L160.93 96.7989L160.486 97.2204L160.027 97.6372L159.553 98.0489L159.064 98.4555L158.561 98.8569L158.043 99.2528L157.511 99.6432L156.964 100.028L156.404 100.407L155.829 100.779L155.241 101.146L154.639 101.506L154.023 101.86L153.393 102.208L152.751 102.548L152.095 102.882L151.426 103.209L150.744 103.528L150.05 103.841L149.342 104.146L148.623 104.444L147.891 104.734L147.147 105.016L146.391 105.29L145.624 105.557L144.844 105.815L144.054 106.066L143.252 106.308L142.439 106.541L141.615 106.767L140.78 106.983L139.935 107.191L139.079 107.39L138.214 107.58L137.338 107.762L136.453 107.934L135.558 108.097L134.653 108.251L133.74 108.395L132.817 108.53L131.886 108.656L130.946 108.772L129.998 108.879L129.042 108.976L128.078 109.063L127.106 109.14L126.127 109.208L125.14 109.266L124.146 109.313L123.146 109.351L122.139 109.379L121.125 109.396L120.105 109.404L119.08 109.401L118.048 109.388L117.011 109.365L115.969 109.332L114.922 109.288L113.87 109.234L112.813 109.17L111.752 109.095L110.687 109.01L109.618 108.915L108.546 108.809L107.469 108.693L106.39 108.567L105.308 108.43L104.223 108.283L103.136 108.125L102.046 107.957L100.955 107.779L99.8612 107.59L98.7663 107.391L97.67 107.182L96.5728 106.963L95.4747 106.733L94.376 106.493L93.2771 106.243L92.1779 105.983L91.079 105.713L89.9804 105.433L88.8824 105.143L87.7852 104.843L86.6891 104.533L85.5943 104.213L84.5011 103.883L83.4096 103.544L82.3202 103.195L81.233 102.837L80.1482 102.469L79.0662 102.091L77.9871 101.705L76.9112 101.309L75.8387 100.904L74.7698 100.489L73.7047 100.066L72.6437 99.6339L71.587 99.193L70.5348 98.7433L69.4873 98.285L68.4448 97.8182L67.4074 97.343L66.3755 96.8595L65.3491 96.3678L64.3286 95.868L63.3141 95.3602L62.3058 94.8446L61.304 94.3212L60.3088 93.7902L59.3205 93.2518L58.3393 92.706L57.3653 92.153L56.3987 91.5929L55.4399 91.0258L54.4888 90.4519L53.5459 89.8714L52.6111 89.2843L51.6848 88.6908L50.7671 88.091L49.8582 87.4852L48.9582 86.8734L48.0675 86.2558L47.186 85.6325L46.3141 85.0038L45.4518 84.3697L44.5994 83.7305L43.757 83.0862L42.9248 82.4371L42.103 81.7833L41.2916 81.125L40.4909 80.4624L39.701 79.7955L38.9221 79.1247L38.1543 78.4501L37.3977 77.7717L36.6526 77.0899L35.919 76.4048L35.197 75.7166L34.4869 75.0254L33.7887 74.3315L33.1026 73.635L32.4287 72.936L31.7671 72.2349L31.1179 71.5317L30.4813 70.8268L29.8573 70.1201L29.2462 69.412L28.6478 68.7026L28.0625 67.9921L27.4903 67.2808L26.9312 66.5687L26.3854 65.8562L25.853 65.1433L25.334 64.4303L24.8285 63.7174L24.3367 63.0047L23.8585 62.2926L23.3941 61.5811L22.9435 60.8704L22.5068 60.1608L22.0841 59.4524L21.6754 58.7455L21.2807 58.0403L20.9002 57.3368L20.5339 56.6355L20.1818 55.9363L19.8439 55.2396L19.5204 54.5455L19.2111 53.8543L18.9163 53.1661L18.6358 52.481L18.3698 51.7994L18.1182 51.1214L17.8811 50.4473L17.6585 49.7771L17.4503 49.1111L17.2566 48.4494L17.0775 47.7924L16.9128 47.1401L16.7626 46.4928L16.6269 45.8506L16.5057 45.2138L16.399 44.5825L16.3067 43.9569L16.2288 43.3372L16.1654 42.7236L16.1163 42.1163L16.0815 41.5154L16.0611 40.9211L16.055 40.3337L16.0631 39.7533L16.0853 39.18L16.1218 38.614L16.1723 38.0556L16.2369 37.5049L16.3154 36.9621L16.4078 36.4273L16.5142 35.9006L16.6343 35.3824L16.7681 34.8727L16.9156 34.3717L17.0766 33.8796L17.2511 33.3964L17.4391 32.9225L17.6404 32.4579L17.8548 32.0027L18.0825 31.5572L18.3232 31.1215L18.5768 30.6958L18.8433 30.2801L19.1225 29.8746L19.4144 29.4795L19.7187 29.0949L20.0355 28.721L20.3646 28.3578L20.7059 28.0055L21.0592 27.6642L21.4245 27.3341L21.8016 27.0153L22.1903 26.7078L22.5906 26.4119L23.0024 26.1277L23.4254 25.8552L23.8595 25.5945L24.3046 25.3458L24.7606 25.1092L25.2274 24.8847L25.7046 24.6726L26.1923 24.4727L26.6902 24.2854L27.1983 24.1106L27.7163 23.9485L28.244 23.799L28.7814 23.6624L29.3283 23.5387L29.8844 23.428L30.4497 23.3302L31.0239 23.2456L31.6069 23.1742L32.1986 23.1159L32.7986 23.071L33.4069 23.0395L34.0234 23.0213L34.6477 23.0166L35.2797 23.0254L35.9193 23.0477L36.5662 23.0837L37.2203 23.1332L37.8814 23.1965L38.5493 23.2734L39.2238 23.364L39.9047 23.4684L40.5919 23.5865L41.285 23.7184L41.984 23.8642L42.6887 24.0237L43.3987 24.197L44.1141 24.3842L44.8344 24.5852L45.5597 24.8L46.2896 25.0286L47.0239 25.271L47.7625 25.5272L48.5051 25.7972L49.2516 26.0809L50.0017 26.3783L50.7553 26.6895L51.5121 27.0143L52.2719 27.3528L53.0346 27.7049L53.7999 28.0705L54.5676 28.4497L55.3376 28.8423L56.1095 29.2484L56.8833 29.6678L57.6587 30.1005L58.4354 30.5465L59.2134 31.0057L59.9924 31.478L60.7721 31.9634L61.5525 32.4617L62.3332 32.9729L63.1141 33.497L63.895 34.0338L64.6757 34.5832L65.4559 35.1452L66.2355 35.7197L67.0144 36.3065L67.7921 36.9056L68.5687 37.5169L69.3438 38.1403L70.1174 38.7756L70.8891 39.4227L71.6588 40.0816L72.4263 40.7521L73.1914 41.4341L73.9539 42.1274L74.7137 42.832L75.4705 43.5477L76.2242 44.2744L76.9745 45.0119L77.7213 45.7601L78.4644 46.5189L79.2036 47.2881L79.9387 48.0676L80.6696 48.8572L81.3961 49.6567L82.118 50.4661L82.835 51.2851L83.5472 52.1136L84.2542 52.9515L84.956 53.7985L85.6523 54.6545L86.3429 55.5194L87.0278 56.3929L87.7068 57.2749L88.3796 58.1652L89.0462 59.0636L89.7064 59.97L90.36 60.8841L91.0069 61.8059L91.6469 62.735L92.2799 63.6713L92.9057 64.6146L93.5243 65.5647L94.1354 66.5215L94.7389 67.4846L95.3347 68.454L95.9227 69.4294L96.5027 70.4106L97.0746 71.3974L97.6383 72.3896L98.1936 73.3871L98.7404 74.3895L99.2787 75.3966L99.8083 76.4084L100.329 77.4245L100.841 78.4447L101.344 79.4688L101.837 80.4966L102.322 81.5279L102.797 82.5625L103.263 83.6001L103.719 84.6405L104.166 85.6835L104.602 86.7289L105.03 87.7764L105.447 88.8258L105.854 89.8769L106.252 90.9295L106.639 91.9833L107.016 93.038L107.383 94.0936L107.739 95.1497L108.086 96.2062L108.422 97.2627L108.747 98.319L109.062 99.375L109.366 100.43L109.66 101.485L109.944 102.538L110.216 103.59L110.478 104.641L110.729 105.69L110.969 106.737L111.199 107.781L111.418 108.823L111.626 109.863L111.823 110.899L112.009 111.933L112.184 112.962L112.349 113.989L112.502 115.011L112.645 116.03L112.777 117.044L112.898 118.053L113.008 119.058L113.107 120.058L113.195 121.052L113.273 122.042L113.34 123.025L113.396 124.003L113.441 124.974L113.476 125.939L113.5 126.898L113.513 127.85L113.515 128.795L113.507 129.733L113.489 130.663L113.46 131.586L113.421 132.501L113.371 133.408L113.311 134.306L113.241 135.197L113.16 136.078L113.069 136.951L112.969 137.815L112.858 138.669L112.738 139.514L112.607 140.35L112.467 141.175L112.317 141.991L112.158 142.796L111.989 143.591L111.811 144.376L111.623 145.149L111.426 145.912L111.221 146.664L111.006 147.404L110.782 148.133L110.549 148.85L110.308 149.556L110.058 150.249L109.799 150.93L109.533 151.6L109.257 152.256L108.974 152.9L108.683 153.532L108.384 154.15L108.077 154.756L107.763 155.348L107.441 155.927L107.111 156.493L106.775 157.045L106.431 157.583L106.081 158.107L105.723 158.618L105.359 159.114L104.989 159.596L104.612 160.064L104.228 160.517L103.839 160.956L103.444 161.38L103.043 161.79L102.636 162.184L102.224 162.564L101.806 162.928L101.384 163.278L100.956 163.612L100.523 163.931L100.086 164.234L99.6445 164.522L99.1985 164.795L98.7482 165.052L98.2939 165.293L97.8358 165.519L97.3739 165.728L96.9086 165.922L96.4399 166.1L95.968 166.262L95.4931 166.408L95.0154 166.539L94.5351 166.653L94.0522 166.75L93.567 166.832L93.0797 166.898L92.5905 166.947L92.0994 166.98L91.6068 166.998L91.1127 166.998L90.6173 166.983L90.1209 166.951L89.6236 166.903L89.1255 166.839L88.6269 166.759L88.128 166.662L87.6288 166.55L87.1297 166.421L86.6307 166.276L86.132 166.114L85.6339 165.937L85.1365 165.744L84.6399 165.534L84.1444 165.309L83.6501 165.067L83.1573 164.81L82.6659 164.537L82.1764 164.248L81.6888 163.943L81.2032 163.622L80.7199 163.286L80.2391 162.934L79.7609 162.567L79.2855 162.185L78.813 161.787L78.3436 161.374L77.8775 160.945L77.4149 160.502L76.9558 160.044L76.5006 159.57L76.0493 159.082L75.6021 158.579L75.1592 158.062L74.7206 157.53L74.2867 156.984L73.8575 156.423L73.4332 155.849L73.0139 155.26L72.5998 154.658L72.1911 154.041L71.7878 153.412L71.3902 152.768L70.9983 152.111L70.6124 151.442L70.2326 150.758L69.8589 150.063L69.4916 149.354L69.1308 148.632L68.7766 147.899L68.4291 147.152L68.0885 146.394L67.7549 145.624L67.4284 144.842L67.1091 144.048L66.7973 143.243L66.4929 142.426L66.1961 141.598L65.907 140.76L65.6258 139.91L65.3525 139.05L65.0873 138.18L64.8302 137.299L64.5813 136.408L64.3408 135.507L64.1088 134.597L63.8853 133.678L63.6704 132.749L63.4643 131.811L63.267 130.864L63.0786 129.908L62.8991 128.944L62.7287 127.972L62.5675 126.992L62.4154 126.004L62.2727 125.008L62.1393 124.005L62.0153 122.995L61.9007 121.978L61.7958 120.954L61.7004 119.923L61.6146 118.887L61.5386 117.844L61.4723 116.796L61.4157 115.741L61.369 114.682L61.3322 113.617L61.3053 112.547L61.2884 111.473L61.2814 110.394L61.2844 109.311L61.2974 108.224L61.3204 107.133L61.3536 106.039L61.3968 104.941L61.4501 103.841L61.5135 102.737L61.587 101.631L61.6706 100.522L61.7644 99.4118L61.8682 98.2993L61.9822 97.1852L62.1062 96.0696L62.2403 94.953L62.3845 93.8354L62.5387 92.7171L62.7029 91.5983L62.8771 90.4794L63.0613 89.3605L63.2555 88.2419L63.4596 87.1237L63.6735 86.0063L63.8973 84.89L64.1308 83.7748L64.3741 82.6611L64.6272 81.549L64.8898 80.4389L65.162 79.331L65.4438 78.2255L65.7351 77.1226L66.0357 76.0226L66.3457 74.9256L66.665 73.832L66.9935 72.742L67.3311 71.6557L67.6777 70.5734L68.0334 69.4954L68.3979 68.4219L68.7712 67.3531L69.1533 66.2892L69.5439 65.2304L69.9431 64.1769L70.3507 63.1291L70.7666 62.087L71.1908 61.051L71.6231 60.0212L72.0634 58.9978L72.5116 57.9811L72.9676 56.9712L73.4313 55.9684L73.9026 54.9729L74.3813 53.9848L74.8673 53.0044L75.3605 52.0319L75.8607 51.0675L76.368 50.1114L76.882 49.1637L77.4027 48.2247L77.9299 47.2945L78.4635 46.3734L79.0034 45.4615L79.5494 44.559L80.1013 43.666L80.6591 42.7829L81.2226 41.9097L81.7916 41.0466L82.3659 40.1937L82.9455 39.3513L83.5302 38.5196L84.1197 37.6986L84.714 36.8886L85.3129 36.0896L85.9161 35.3019L86.5237 34.5256L87.1353 33.7609L87.7508 33.0078L88.3701 32.2666L88.993 31.5374L89.6192 30.8203L90.2488 30.1154L90.8813 29.423L91.5167 28.743L92.1549 28.0757L92.7956 27.4211L93.4386 26.7795L94.0837 26.1508L94.7309 25.5352L95.3799 24.9329L96.0304 24.3438L96.6824 23.7682L97.3357 23.2062L97.99 22.6577L98.6451 22.123L99.301 21.6021L99.9573 21.0951L100.614 20.6021L101.271 20.1231L101.927 19.6583L102.584 19.2076L103.24 18.7713L103.895 18.3493L104.55 17.9417L105.203 17.5486L105.855 17.17L106.506 16.806L107.155 16.4566L107.803 16.1219L108.448 15.8019L109.091 15.4966L109.732 15.2062L110.37 14.9306L111.006 14.6698L111.638 14.4239L112.268 14.1929L112.894 13.9768L113.516 13.7756L114.135 13.5893L114.75 13.4181L115.361 13.2617L115.968 13.1203L116.57 12.9939L117.167 12.8824L117.76 12.7858L118.347 12.7041L118.93 12.6373L119.507 12.5854L120.078 12.5484L120.644 12.5262L121.204 12.5187L121.757 12.526L122.304 12.5481L122.845 12.5848L123.38 12.6362L123.907 12.7021L124.427 12.7826L124.941 12.8775L125.446 12.9869L125.945 13.1106L126.436 13.2486L126.919 13.4008L127.394 13.5672L127.86 13.7477L128.319 13.9421L128.769 14.1505L129.21 14.3727L129.643 14.6087L130.067 14.8583L130.481 15.1215L130.887 15.3982L131.283 15.6882L131.669 15.9914L132.046 16.3079L132.413 16.6374L132.77 16.9798L133.117 17.335L133.454 17.703L133.78 18.0835L134.096 18.4765L134.402 18.8818L134.697 19.2994L134.981 19.729L135.254 20.1706L135.515 20.6239L135.766 21.089L136.006 21.5655L136.234 22.0535L136.45 22.5527L136.655 23.063L136.849 23.5842L137.03 24.1162L137.2 24.6588L137.357 25.2119L137.503 25.7753L137.636 26.3489L137.757 26.9324L137.866 27.5258L137.962 28.1287L138.046 28.7412L138.118 29.363L138.177 29.9939L138.223 30.6338L138.256 31.2824L138.277 31.9397L138.285 32.6053L138.28 33.2792L138.262 33.9612L138.231 34.6509L138.187 35.3484L138.13 36.0534L138.06 36.7656L137.976 37.4849L137.88 38.2112L137.77 38.9441L137.647 39.6836L137.511 40.4294L137.362 41.1813L137.2 41.9391L137.024 42.7027L136.835 43.4718L136.632 44.2462L136.417 45.0257L136.188 45.8101L135.945 46.5992L135.69 47.3928L135.421 48.1907L135.14 48.9927L134.844 49.7986L134.536 50.6082L134.215 51.4212L133.88 52.2375L133.533 53.0568L133.172 53.8789L132.799 54.7037L132.412 55.5309L132.013 56.3604L131.6 57.1918L131.175 58.025L130.737 58.8598L130.287 59.696L129.824 60.5333L129.348 61.3716L128.86 62.2107L128.359 63.0502L127.846 63.8901L127.321 64.7302L126.784 65.5701L126.234 66.4097L125.673 67.2489L125.1 68.0873L124.514 68.9249L123.918 69.7613L123.309 70.5964L122.689 71.43L122.058 72.2619L121.416 73.0918L120.762 73.9197L120.097 74.7452L119.422 75.5682L118.735 76.3885L118.038 77.2058L117.331 78.0201L116.613 78.8311L115.885 79.6386L115.146 80.4424L114.398 81.2424L113.64 82.0383L112.872 82.8299L112.094 83.6172L111.308 84.3998L110.512 85.1777L109.706 85.9506L108.892 86.7184L108.07 87.4808L107.238 88.2377L106.398 88.989L105.55 89.7345L104.694 90.474L103.83 91.2072L102.958 91.9342L102.079 92.6547L101.192 93.3685L100.298 94.0755L99.3967 94.7755L98.4889 95.4684L97.5744 96.1541L96.6535 96.8323L95.7262 97.503L94.793 98.166L93.8539 98.8211L92.9091 99.4682L91.9589 100.107L91.0033 100.738L90.0427 101.36L89.0773 101.974L88.1072 102.579L87.1327 103.176L86.1539 103.763L85.1711 104.342L84.1845 104.911L83.1943 105.471L82.2007 106.022L81.2039 106.563L80.2042 107.095L79.2018 107.617L78.1968 108.129L77.1896 108.632L76.1802 109.124L75.169 109.607L74.1562 110.079L73.142 110.541L72.1266 110.993L71.1103 111.435L70.0932 111.866L69.0756 112.286L68.0577 112.696L67.0398 113.095L66.022 113.484L65.0047 113.861L63.988 114.228L62.9721 114.584L61.9574 114.929L60.9439 115.263L59.932 115.586L58.9219 115.898L57.9138 116.199L56.9079 116.488L55.9044 116.767L54.9037 117.034L53.9058 117.29L52.9112 117.534L51.9198 117.768L50.9321 117.99L49.9482 118.201L48.9684 118.4L47.9928 118.588L47.0217 118.765L46.0554 118.93L45.094 119.085L44.1377 119.227L43.1869 119.359L42.2417 119.479L41.3023 119.588L40.3689 119.685L39.4418 119.771L38.5212 119.847L37.6073 119.91L36.7003 119.963L35.8004 120.005L34.9079 120.035L34.0229 120.054L33.1456 120.063L32.2763 120.06L31.4152 120.046L30.5624 120.022L29.7183 119.987L28.8828 119.941L28.0564 119.884L27.2391 119.816L26.4312 119.739L25.6328 119.65L24.8442 119.551L24.0655 119.442L23.2969 119.322L22.5386 119.193L21.7908 119.053L21.0537 118.903L20.3274 118.743L19.6122 118.573L18.9081 118.394L18.2154 118.204L17.5343 118.006L16.8648 117.797L16.2072 117.58L15.5617 117.353L14.9283 117.117L14.3073 116.872L13.6987 116.618L13.1028 116.355L12.5197 116.084L11.9496 115.804L11.3925 115.515L10.8487 115.219L10.3182 114.914L9.80118 114.601L9.29782 114.28L8.8082 113.951L8.33246 113.614L7.87071 113.27L7.4231 112.919L6.98971 112.56L6.57067 112.194L6.16609 111.822L5.77607 111.442L5.40072 111.056L5.04013 110.663L4.6944 110.264L4.36363 109.859L4.04791 109.447L3.74733 109.03L3.46195 108.607L3.19188 108.178L2.93717 107.744L2.69791 107.305L2.47416 106.86L2.266 106.411L2.07349 105.957L1.89666 105.498L1.73561 105.034L1.59036 104.567L1.46098 104.095L1.34749 103.62L1.24996 103.14L1.1684 102.657L1.10287 102.171L1.05338 101.681L1.01997 101.189L1.00265 100.693L1.00146 100.195L1.0164 99.6937L1.04749 99.1904L1.09473 98.685L1.15814 98.1775L1.23771 97.6682L1.33343 97.1572L1.44531 96.6447L1.57334 96.1309L1.7175 95.616L1.87778 95.1001L2.05414 94.5835L2.24659 94.0663L2.45507 93.5486L2.67957 93.0307L2.92004 92.5128L3.17645 91.9949L3.44876 91.4774L3.73692 90.9604L4.04087 90.444L4.36058 89.9284L4.69597 89.4138L5.04699 88.9005L5.41358 88.3884L5.79567 87.8779L6.19319 87.3691L6.60606 86.8622L7.03421 86.3574L7.47755 85.8547L7.936 85.3545L8.40947 84.8568L8.89787 84.3618L9.40111 83.8698L9.91909 83.3808L10.4517 82.895L10.9988 82.4127L11.5604 81.9339L12.1362 81.4588L12.7263 80.9876L13.3304 80.5204L13.9485 80.0575L14.5804 79.5989L15.2261 79.1448L15.8852 78.6954L16.5579 78.2508L17.2438 77.8112L17.9429 77.3767L18.6549 76.9475L19.3799 76.5236L20.1176 76.1054L20.8678 75.6928L21.6305 75.2861L22.4054 74.8853L23.1924 74.4907L23.9914 74.1023L24.8021 73.7204L25.6244 73.3449L26.4581 72.9761L27.3031 72.614L28.1592 72.2588L29.0261 71.9107L29.9038 71.5697L30.792 71.2359L31.6906 70.9095L32.5993 70.5906L33.5179 70.2793L34.4464 69.9757L35.3844 69.6799L36.3318 69.392L37.2884 69.1121L38.2539 68.8404L39.2282 68.5768L40.2111 68.3216L41.2024 68.0747L42.2018 67.8364L43.2092 67.6066L44.2242 67.3854L45.2468 67.173L46.2767 66.9695L47.3137 66.7748L48.3575 66.589L49.408 66.4123L50.4648 66.2447L51.5279 66.0863L52.5969 65.937L53.6717 65.7971L54.7519 65.6665L55.8375 65.5453L56.9281 65.4335L58.0235 65.3312L59.1235 65.2385L60.2278 65.1553L61.3363 65.0818L62.4486 65.0179L63.5646 64.9636L64.684 64.9191L65.8065 64.8843L66.932 64.8593L68.0602 64.8441L69.1908 64.8387L70.3237 64.8431L71.4585 64.8573L72.595 64.8813L73.7331 64.9152L74.8724 64.959L76.0127 65.0125L77.1537 65.076L78.2953 65.1492L79.4371 65.2323L80.579 65.3252L81.7207 65.4279L82.862 65.5404L84.0025 65.6626L85.1422 65.7946L86.2806 65.9362L87.4177 66.0876L88.5531 66.2486L89.6866 66.4192L90.818 66.5993L91.947 66.789L93.0734 66.9882L94.197 67.1968L95.3175 67.4148L96.4346 67.6421L97.5483 67.8786L98.6581 68.1244L99.7639 68.3793L100.865 68.6434L101.963 68.9164L103.055 69.1984L104.142 69.4892L105.225 69.7888L106.302 70.0972L107.373 70.4142L108.438 70.7397L109.498 71.0737L110.551 71.416L111.597 71.7666L112.637 72.1254L113.67 72.4923L114.696 72.8671L115.714 73.2499L116.725 73.6404L117.728 74.0386L118.723 74.4443L119.71 74.8575L120.689 75.278L121.659 75.7056L122.62 76.1404L123.572 76.5822L124.515 77.0307L125.449 77.486L126.373 77.9479L127.287 78.4162L128.191 78.8909L129.086 79.3717L129.97 79.8586L130.843 80.3513L131.706 80.8499L132.558 81.354L133.399 81.8636L134.229 82.3786L135.047 82.8987L135.855 83.4238L136.65 83.9539L137.434 84.4886L138.205 85.0279L138.965 85.5716L139.712 86.1195L140.447 86.6715L141.17 87.2275L141.879 87.7871L142.576 88.3504L143.26 88.9171L143.931 89.4871L144.589 90.0601L145.233 90.6361L145.864 91.2148L146.481 91.796L147.085 92.3797L147.675 92.9656L148.251 93.5535L148.813 94.1432L149.361 94.7347L149.895 95.3277L150.414 95.922L150.919 96.5174L151.41 97.1139L151.886 97.7111L152.347 98.3089L152.794 98.9071L153.226 99.5055L153.643 100.104L154.045 100.702L154.433 101.3L154.805 101.898L155.162 102.495L155.504 103.091L155.83 103.686L156.142 104.28L156.438 104.872L156.719 105.462L156.985 106.051L157.235 106.638L157.469 107.223L157.689 107.805L157.893 108.385L158.081 108.962L158.254 109.536L158.411 110.107L158.553 110.675L158.679 111.239L158.79 111.799L158.886 112.356L158.966 112.909L159.03 113.458L159.079 114.002L159.112 114.541L159.13 115.076L159.133 115.606L159.12 116.131L159.092 116.651L159.049 117.165L158.991 117.674L158.917 118.176L158.828 118.673L158.724 119.164L158.605 119.648L158.47 120.126L158.321 120.598L158.157 121.062L157.979 121.52L157.785 121.97L157.577 122.414L157.354 122.849L157.117 123.278L156.865 123.698L156.599 124.111L156.319 124.515L156.025 124.911L155.716 125.299L155.394 125.679L155.058 126.05L154.708 126.412L154.344 126.765L153.967 127.109L153.576 127.444L153.173 127.77L152.756 128.086L152.326 128.392L151.883 128.689L151.427 128.976L150.959 129.253L150.478 129.521L149.984 129.777L149.479 130.024L148.961 130.26L148.432 130.486L147.89 130.701L147.337 130.905L146.773 131.098L146.197 131.281L145.61 131.452L145.012 131.612L144.403 131.761L143.783 131.899L143.153 132.026L142.513 132.141L141.862 132.244L141.202 132.336L140.531 132.416L139.851 132.484L139.161 132.54L138.463 132.585L137.755 132.617L137.038 132.638L136.312 132.646L135.578 132.643L134.835 132.627L134.084 132.598L133.326 132.558L132.559 132.505L131.785 132.44L131.004 132.363L130.215 132.273L129.42 132.171L128.617 132.056L127.809 131.928L126.993 131.789L126.172 131.636L125.344 131.471L124.511 131.294L123.673 131.104L122.829 130.901L121.98 130.686L121.126 130.459L120.267 130.219L119.404 129.966L118.536 129.701L117.665 129.423L116.79 129.133L115.911 128.83L115.028 128.515L114.143 128.188L113.254 127.848L112.363 127.496L111.47 127.131L110.573 126.754L109.675 126.366L108.775 125.965L107.873 125.551L106.97 125.126L106.066 124.689L105.16 124.24L104.254 123.779L103.347 123.307L102.44 122.822L101.533 122.327L100.626 121.819L99.7186 121.3L98.8121 120.77L97.9063 120.228L97.0014 119.675L96.0977 119.112L95.1953 118.537L94.2944 117.951L93.3953 117.354L92.4982 116.747L91.6032 116.129L90.7106 115.501L89.8207 114.862L88.9335 114.213L88.0493 113.554L87.1683 112.885L86.2907 112.206L85.4167 111.517L84.5465 110.819L83.6803 110.111L82.8183 109.394L81.9607 108.668L81.1077 107.933L80.2594 107.188L79.4161 106.436L78.5779 105.674L77.7451 104.904L76.9177 104.126L76.0961 103.339L75.2803 102.545L74.4706 101.743L73.6671 100.933L72.87 100.115L72.0796 99.2906L71.2958 98.4587L70.519 97.6199L69.7492 96.7744L68.9867 95.9222L68.2316 95.0636L67.484 94.1987L66.7442 93.3277L66.0122 92.4509L65.2883 91.5684L64.5726 90.6804L63.8651 89.787L63.1662 88.8886L62.4758 87.9852L61.7942 87.077L61.1215 86.1644L60.4579 85.2474L59.8033 84.3263L59.1581 83.4013L58.5222 82.4725L57.8959 81.5402L57.2793 80.6046L56.6724 79.666L56.0754 78.7243L55.4884 77.7801L54.9115 76.8333L54.3448 75.8843L53.7885 74.9332L53.2425 73.9803L52.7071 73.0258L52.1823 72.0698L51.6682 71.1127L51.1649 70.1546L50.6724 69.1958L50.191 68.2364L49.7206 67.2767L49.2612 66.3169L48.8131 65.3572L48.3762 64.3979L47.9507 63.4391L47.5366 62.4811L47.1339 61.5241L46.7427 60.5684L46.3631 59.6141L45.9951 58.6615L45.6388 57.7108L45.2941 56.7621L44.9613 55.8159L44.6402 54.8722L44.3309 53.9312L44.0335 52.9933L43.748 52.0586L43.4744 51.1273L43.2127 50.1997L42.963 49.276L42.7253 48.3563L42.4995 47.4411L42.2857 46.5303L42.0839 45.6243L41.8941 44.7232L41.7164 43.8274L41.5506 42.937L41.3968 42.0521L41.255 41.1731L41.1251 40.3002L41.0072 39.4335L40.9012 38.5733L40.8072 37.7197L40.725 36.873L40.6547 36.0334L40.5961 35.2011L40.5494 34.3763L40.5144 33.5592L40.4912 32.7499L40.4795 31.9488V31.156L40.4911 30.3716L40.5142 29.596L40.5487 28.8292L40.5946 28.0715L40.6519 27.323L40.7204 26.584L40.8001 25.8546L40.8909 25.135L40.9928 24.4254L41.1057 23.726L41.2294 23.0369L41.364 22.3584L41.5092 21.6906L41.6651 21.0336L41.8316 20.3876L42.0085 19.7529L42.1958 19.1295L42.3933 18.5177L42.601 17.9175L42.8187 17.3292L43.0464 16.7529L43.2839 16.1887L43.5311 15.6368L43.788 15.0974L44.0543 14.5705L44.33 14.0564L44.615 13.5551L44.909 13.0669L45.2121 12.5917L45.5241 12.1298L45.8447 11.6813L46.1741 11.2463L46.5118 10.825L46.858 10.4174L47.2123 10.0236L47.5747 9.64386L47.945 9.27817L48.323 8.92666L48.7087 8.58945L49.1019 8.26661L49.5024 7.95828L49.9101 7.6645L50.3248 7.3854L50.7464 7.12106L51.1746 6.87154L51.6095 6.63694L52.0507 6.41733L52.4982 6.21278L52.9517 6.02336L53.4111 5.84915L53.8763 5.69019L54.347 5.54656L54.8232 5.4183L55.3045 5.30546L55.791 5.20811L56.2823 5.12628L56.7784 5.06002L57.279 5.00936L57.784 4.97433L58.2932 4.95497L58.8064 4.9513L59.3234 4.96336L59.8441 4.99116L60.3683 5.03472L60.8958 5.09403L61.4265 5.16915L61.9601 5.26003L62.4964 5.36671L63.0354 5.48918L63.5767 5.62744L64.1203 5.78146L64.666 5.95125L65.2134 6.13678L65.7626 6.33805L66.3133 6.55502L66.8652 6.78767L67.4183 7.03597L67.9724 7.29988L68.5272 7.57938L69.0826 7.87441L69.6384 8.18493L70.1944 8.5109L70.7504 8.85227L71.3063 9.20897L71.8619 9.58095L72.4169 9.96816L72.9713 10.3705L73.5248 10.788L74.0772 11.2204L74.6284 11.6678L75.1782 12.13L75.7265 12.6071L76.2729 13.0988L76.8175 13.6051L77.3599 14.1259L77.9 14.6611L78.4377 15.2106L78.9727 15.7743L79.5049 16.3522L80.0342 16.944L80.5603 17.5497L81.0832 18.1691L81.6025 18.8022L82.1182 19.4488L82.6301 20.1088L83.1381 20.7821L83.6419 21.4685L84.1414 22.1679L84.6365 22.8801L85.127 23.6051L85.6127 24.3427L86.0935 25.0926L86.5693 25.8549L87.0398 26.6293L87.505 27.4156L87.9647 28.2138L88.4187 29.0236L88.867 29.8449L89.3093 30.6775L89.7456 31.5213L90.1756 32.376L90.5993 33.2416L91.0165 34.1177L91.4272 35.0044L91.8311 35.9013L92.2281 36.8083L92.6181 37.7251L93.0011 38.6517L93.3768 39.5878L93.7452 40.5333L94.1062 41.4878L94.4595 42.4513L94.8052 43.4236L95.1431 44.4043L95.4732 45.3934L95.7952 46.3906L96.1091 47.3957L96.4149 48.4085L96.7123 49.4289L97.0014 50.4565L97.282 51.4911L97.5541 52.5326L97.8176 53.5808L98.0723 54.6353L98.3182 55.6961L98.5553 56.7628L98.7834 57.8353L99.0025 58.9132L99.2125 59.9965L99.4133 61.0849L99.605 62.1781L99.7873 63.2758L99.9604 64.378L100.124 65.4843L100.278 66.5945L100.423 67.7084L100.558 68.8258L100.684 69.9463L100.8 71.0698L100.907 72.196L101.003 73.3248L101.09 74.4558L101.168 75.5888L101.235 76.7235L101.293 77.8599L101.341 78.9975L101.379 80.1362L101.408 81.2757L101.426 82.4157L101.435 83.5562L101.434 84.6967L101.423 85.837L101.402 86.977L101.372 88.1163L101.331 89.2548L101.281 90.3921L101.221 91.5281L101.151 92.6626L101.072 93.7951L100.983 94.9257L100.884 96.0538L100.775 97.1795L100.657 98.3024L100.529 99.4222L100.392 100.539L100.245 101.652L100.089 102.761L99.9228 103.867L99.7477 104.968L99.5632 106.065L99.3695 107.157L99.1666 108.244L98.9546 109.326L98.7335 110.403L98.5034 111.474L98.2644 112.54L98.0165 113.599L97.7598 114.652L97.4945 115.699L97.2205 116.739L96.938 117.772L96.647 118.798L96.3477 119.817L96.0401 120.828L95.7244 121.831L95.4006 122.827L95.0688 123.814L94.7291 124.793L94.3817 125.763L94.0267 126.724L93.6641 127.677L93.294 128.62L92.9167 129.554L92.5322 130.479L92.1405 131.394L91.742 132.298L91.3366 133.193L90.9245 134.077L90.5058 134.951L90.0807 135.814L89.6492 136.667L89.2116 137.508L88.768 138.338L88.3184 139.157L87.8631 139.964L87.4022 140.76L86.9358 141.543L86.4641 142.315L85.9872 143.075L85.5053 143.822L85.0185 144.557L84.5269 145.279L84.0309 145.988L83.5304 146.685L83.0256 147.368L82.5168 148.038L82.004 148.695L81.4875 149.339L80.9674 149.969L80.4438 150.586L79.9169 151.188L79.387 151.777L78.8541 152.352L78.3185 152.912L77.7803 153.459L77.2396 153.991L76.6967 154.508L76.1517 155.011L75.6049 155.5L75.0563 155.973L74.5062 156.432L73.9547 156.876L73.402 157.306L72.8482 157.72L72.2937 158.119L71.7385 158.503L71.1829 158.871L70.627 159.224L70.0709 159.562L69.5149 159.885L68.9592 160.192L68.4039 160.484L67.8493 160.76L67.2954 161.02L66.7426 161.265L66.1909 161.494L65.6405 161.708L65.0917 161.905L64.5446 162.087L63.9994 162.254L63.4564 162.404L62.9155 162.539L62.3771 162.658L61.8413 162.761L61.3084 162.848L60.7784 162.92L60.2517 162.976L59.7282 163.016L59.2083 163.04L58.6921 163.049L58.1798 163.042L57.6715 163.019L57.1675 162.98L56.6679 162.926L56.1728 162.856L55.6826 162.771L55.1972 162.67L54.717 162.554L54.242 162.422L53.7725 162.275L53.3086 162.113L52.8505 161.935L52.3983 161.743L51.9522 161.535L51.5124 161.312L51.079 161.074L50.6522 160.821L50.2321 160.553L49.819 160.271L49.4129 159.974L49.014 159.663L48.6224 159.337L48.2384 158.996L47.8621 158.641L47.4935 158.273L47.1329 157.89L46.7804 157.493L46.4361 157.082L46.1002 156.658L45.7728 156.22L45.454 155.768L45.144 155.304L44.8429 154.825L44.5509 154.334L44.268 153.83L43.9944 153.313L43.7301 152.783L43.4754 152.241L43.2303 151.687L42.995 151.12L42.7695 150.541L42.554 149.95L42.3486 149.347L42.1533 148.733L41.9684 148.107L41.7937 147.469L41.6296 146.821L41.4761 146.162L41.3332 145.491L41.201 144.811L41.0797 144.119L40.9692 143.417L40.8698 142.706L40.7814 141.984L40.7042 141.252L40.6382 140.511L40.5835 139.761L40.5401 139.001L40.5081 138.232L40.4876 137.455L40.4786 136.668L40.4811 135.874L40.4953 135.071L40.5212 134.26L40.5588 133.441L40.6081 132.614L40.6692 131.78L40.7422 130.939L40.827 130.091L40.9237 129.236L41.0324 128.374L41.1529 127.506L41.2854 126.632L41.4299 125.751L41.5864 124.865L41.7548 123.974L41.9352 123.077L42.1277 122.175L42.3321 121.267L42.5486 120.356L42.777 119.439L43.0174 118.519L43.2698 117.594L43.5341 116.666L43.8104 115.734L44.0985 114.798L44.3986 113.86L44.7105 112.918L45.0342 111.974L45.3696 111.027L45.7169 110.078L46.0758 109.127L46.4464 108.174L46.8286 107.219L47.2223 106.263L47.6275 105.306L48.0442 104.348L48.4723 103.389L48.9116 102.429L49.3623 101.47L49.8241 100.51L50.2969 99.5501L50.7809 98.5909L51.2757 97.6322L51.7814 96.6742L52.2979 95.7174L52.8251 94.7617L53.3628 93.8075L53.9111 92.855L54.4698 91.9044L55.0387 90.9559L55.6179 90.0096L56.2071 89.0659L56.8063 88.1249L57.4153 87.1869L58.0342 86.252L58.6626 85.3205L59.3005 84.3926L59.9479 83.4684L60.6044 82.5482L61.2701 81.6322L61.9448 80.7205L62.6284 79.8134L63.3207 78.9111L64.0215 78.0138L64.7308 77.1216L65.4483 76.2348L66.1741 75.3535L66.9078 74.478L67.6493 73.6083L68.3986 72.7448L69.1553 71.8876L69.9195 71.0369L70.6908 70.1928L71.4692 69.3555L72.2545 68.5253L73.0465 67.7022L73.845 66.8865L74.6499 66.0783L75.4609 65.2777L76.278 64.4851L77.1009 63.7004L77.9295 62.924L78.7636 62.1558L79.6029 61.3961L80.4473 60.6451L81.2967 59.9029L82.1507 59.1695L83.0094 58.4453L83.8723 57.7303L84.7394 57.0247L85.6105 56.3286L86.4853 55.642L87.3636 54.9653L88.2453 54.2984L89.1302 53.6416L90.018 52.9949L90.9086 52.3585L91.8017 51.7325L92.6972 51.1169L93.5948 50.512L94.4943 49.9178L95.3955 49.3344L96.2982 48.7619L97.2023 48.2005L98.1074 47.6501L99.0133 47.111L99.92 46.5832L100.827 46.0669L101.734 45.5619L102.642 45.0686L103.549 44.5868L104.456 44.1168L105.362 43.6586L106.267 43.2123L107.171 42.7778L108.074 42.3554L108.975 41.945L109.875 41.5466L110.773 41.1605L111.668 40.7865L112.561 40.4248L113.452 40.0754L114.34 39.7383L115.225 39.4136L116.106 39.1013L116.984 38.8014L117.859 38.5139L118.729 38.239L119.596 37.9766L120.458 37.7266L121.316 37.4892L122.169 37.2644L123.017 37.0521L123.859 36.8523L124.697 36.6651L125.529 36.4905L126.355 36.3284L127.175 36.1788L127.989 36.0418L128.796 35.9173L129.597 35.8052L130.391 35.7056L131.178 35.6185L131.958 35.5438L132.73 35.4815L133.495 35.4315L134.252 35.3938L135.001 35.3684L135.741 35.3552L136.474 35.3542L137.198 35.3653L137.913 35.3885L138.618 35.4236L139.315 35.4708L140.003 35.5298L140.681 35.6007L141.349 35.6833L142.008 35.7777L142.656 35.8836L143.294 36.0011L143.922 36.13L144.539 36.2703L145.146 36.4218L145.741 36.5846L146.326 36.7585L146.899 36.9434L147.461 37.1392L148.012 37.3458L148.55 37.5632L149.077 37.7911L149.592 38.0295L150.095 38.2784L150.585 38.5375L151.064 38.8068L151.529 39.0861L151.982 39.3753L152.422 39.6744L152.849 39.9831L153.263 40.3014L153.664 40.6291L154.052 40.966L154.426 41.3122L154.787 41.6673L155.134 42.0314L155.467 42.4042L155.786 42.7856L156.091 43.1754L156.383 43.5736L156.66 43.9799L156.923 44.3942L157.171 44.8164L157.405 45.2463L157.625 45.6838L157.829 46.1287L158.02 46.5807L158.195 47.0399L158.356 47.506L158.502 47.9788L158.632 48.4583L158.748 48.9441L158.849 49.4362L158.934 49.9344L159.005 50.4385L159.06 50.9484L159.1 51.4638L159.125 51.9846L159.134 52.5106L159.128 53.0417L159.106 53.5777L159.069 54.1183L159.017 54.6635L158.949 55.213L158.866 55.7667L158.767 56.3243L158.653 56.8857L158.523 57.4508L158.378 58.0192L158.217 58.5909L158.04 59.1657L157.849 59.7433L157.641 60.3237L157.419 60.9065L157.181 61.4917L156.927 62.079L156.658 62.6682L156.374 63.2592L156.074 63.8518L155.759 64.4458L155.429 65.0409L155.084 65.6371L154.723 66.2342L154.348 66.8319L153.957 67.43L153.552 68.0284L153.131 68.6269L152.696 69.2254L152.246 69.8235L151.782 70.4212L151.302 71.0182L150.808 71.6145L150.3 72.2097L149.777 72.8037L149.241 73.3963L148.689 73.9874L148.124 74.5768L147.545 75.1643L146.952 75.7497L146.346 76.3328L145.725 76.9135L145.091 77.4916L144.444 78.067L143.783 78.6393L143.109 79.2086L142.423 79.7745L141.723 80.337L141.01 80.8959L140.285 81.451L139.547 82.0021L138.797 82.5491L138.035 83.0918L137.261 83.6301L136.474 84.1638L135.676 84.6928L134.867 85.2168L134.046 85.7358L133.213 86.2496L132.37 86.758L131.515 87.2609L130.65 87.7582L129.774 88.2496L128.888 88.7352L127.991 89.2146L127.085 89.6879L126.168 90.1548L125.242 90.6152L124.306 91.069L123.361 91.5161L122.407 91.9563L121.444 92.3895L120.472 92.8156L119.492 93.2345L118.503 93.646L117.506 94.0501L116.501 94.4465L115.489 94.8353L114.469 95.2163L113.441 95.5894L112.407 95.9545L111.366 96.3115L110.317 96.6603L109.263 97.0008L108.202 97.3329L107.135 97.6566L106.063 97.9716L104.985 98.278L103.901 98.5757L102.813 98.8646L101.719 99.1446L100.621 99.4156L99.5187 99.6776L98.412 99.9305L97.3013 100.174L96.1869 100.409L95.069 100.634L93.9478 100.85L92.8235 101.056L91.6965 101.254L90.567 101.441L89.4351 101.619L88.3012 101.788L87.1654 101.946L86.028 102.096L84.8892 102.235L83.7494 102.365L82.6086 102.485L81.4673 102.595L80.3255 102.696L79.1836 102.787L78.0418 102.867L76.9003 102.939L75.7594 103L74.6193 103.051L73.4803 103.093L72.3426 103.124L71.2064 103.146L70.072 103.158L68.9396 103.161L67.8095 103.153L66.6819 103.136L65.557 103.108L64.4352 103.071L63.3165 103.025L62.2013 102.968L61.0898 102.902L59.9822 102.827L58.8788 102.741L57.7798 102.646L56.6855 102.542L55.596 102.428L54.5116 102.305L53.4325 102.172L52.359 102.03L51.2913 101.879L50.2296 101.718L49.1742 101.549L48.1252 101.37L47.0828 101.182L46.0474 100.986L45.0191 100.78L43.9982 100.566L42.9848 100.343L41.9792 100.111L40.9816 99.8708L39.9922 99.622L39.0112 99.365L38.0388 99.0996L37.0752 98.826L36.1206 98.5443L35.1753 98.2547L34.2394 97.9572L33.3131 97.6518L32.3966 97.3388L31.4902 97.0183L30.5939 96.6902L29.708 96.3548L28.8327 96.0122L27.9682 95.6625L27.1145 95.3058L26.272 94.9422L25.4408 94.5719L24.6211 94.195L23.813 93.8116L23.0167 93.4218L22.2323 93.0258L21.4601 92.6237L20.7002 92.2157L19.9527 91.8018L19.2178 91.3823L18.4957 90.9573L17.7865 90.5269L17.0903 90.0912L16.4074 89.6505L15.7377 89.2048L15.0815 88.7543L14.4389 88.2992L13.8101 87.8397L13.1951 87.3758L12.5941 86.9077L12.0072 86.4356L11.4345 85.9597L10.8761 85.4801L10.3322 84.997L9.80281 84.5105L9.2881 84.0208L8.78815 83.5281L8.30305 83.0325L7.83291 82.5342L7.3778 82.0335L6.93783 81.5303L6.51306 81.025L6.1036 80.5176L5.7095 80.0084L5.33084 79.4976L4.9677 78.9852L4.62014 78.4716L4.28823 77.9568L3.97201 77.441L3.67156 76.9245L3.38692 76.4073L3.11814 75.8897L2.86527 75.3718L2.62834 74.8539L2.4074 74.336L2.20247 73.8185L2.01359 73.3013L1.8408 72.7849L1.68409 72.2692L1.54352 71.7545L1.41907 71.241L1.31078 70.7288L1.21864 70.2182L1.14267 69.7093L1.08285 69.2022L1.03919 68.6972L1.01168 68.1945L1.00034 67.6941L1.00511 67.1964L1.026 66.7014L1.06298 66.2093L1.11603 65.7204L1.18513 65.2347L1.27023 64.7525L1.37132 64.274L1.48833 63.7993L1.62125 63.3285L1.77001 62.8619L1.93457 62.3996L2.11487 61.9418L2.31087 61.4886L2.52251 61.0402L2.7497 60.5969L2.9924 60.1587L3.25052 59.7257L3.524 59.2983L3.81276 58.8765L4.11672 58.4605L4.43578 58.0504L4.76989 57.6464L5.11891 57.2487L5.48279 56.8573L5.86141 56.4726L6.25467 56.0945L6.66247 55.7233L7.08471 55.3591L7.52126 55.002L7.97203 54.6523L8.43689 54.3099L8.91571 53.9751L9.4084 53.648L9.91481 53.3288L10.4348 53.0175L10.9683 52.7143L11.5151 52.4194L12.0751 52.1327L12.6481 51.8546L13.2341 51.5851L13.8328 51.3243L14.4441 51.0723L15.0679 50.8293L15.704 50.5953L16.3522 50.3706L17.0124 50.1551L17.6845 49.9489L18.3682 49.7523L19.0635 49.5653L19.77 49.388L20.4877 49.2204L21.2164 49.0627L21.9559 48.915L22.7061 48.7774L23.4667 48.6499L24.2375 48.5326L25.0184 48.4256L25.8092 48.329L26.6097 48.2428L27.4198 48.1672L28.2391 48.1022L29.0676 48.0478L29.9049 48.0041L30.7511 47.9712L31.6057 47.9492L32.4686 47.938L33.3397 47.9378L34.2187 47.9486L35.1054 47.9704L35.9996 48.0033L36.9011 48.0473L37.8096 48.1024L38.7251 48.1688L39.6471 48.2463L40.5756 48.3351L41.5103 48.4351L42.4511 48.5465L43.3975 48.6691L44.3496 48.803L45.307 48.9483L46.2695 49.1049L47.237 49.2728L48.209 49.4521L49.1856 49.6427L50.1663 49.8447L51.1511 50.058L52.1396 50.2826L53.1317 50.5184L54.1271 50.7656L55.1256 51.0241L56.127 51.2937L57.131 51.5746L58.1374 51.8667L59.146 52.17L60.1565 52.4843L61.1688 52.8097L62.1826 53.1461L63.1976 53.4936L64.2136 53.852L65.2305 54.2212L66.248 54.6013L67.2658 54.9922L68.2837 55.3937L69.3016 55.806L70.319 56.2288L71.336 56.6621L72.3522 57.1058L73.3673 57.56L74.3812 58.0243L75.3937 58.4989L76.4045 58.9836L77.4134 59.4784L78.4202 59.983L79.4246 60.4975L80.4264 61.0218L81.4255 61.5557L82.4216 62.0991L83.4145 62.652L84.4039 63.2141L85.3897 63.7855L86.3716 64.3661L87.3494 64.9556L88.323 65.5539L89.2921 66.161L90.2565 66.7767L91.2159 67.401L92.1703 68.0336L93.1194 68.6744L94.0629 69.3233L95.0007 69.9801L95.9327 70.6448L96.8585 71.3172L97.778 71.9971L98.691 72.6844L99.5974 73.3789L100.497 74.0805L101.389 74.789L102.274 75.5043L103.152 76.2262L104.022 76.9546L104.885 77.6893L105.739 78.4301L106.585 79.1769L107.423 79.9294L108.253 80.6876L109.074 81.4512L109.886 82.2202L110.689 82.9942L111.483 83.7731L112.268 84.5568L113.043 85.345L113.809 86.1377L114.565 86.9345L115.311 87.7353L116.047 88.54L116.773 89.3483L117.489 90.16L118.194 90.975L118.889 91.793L119.573 92.6139L120.246 93.4375L120.908 94.2635L121.559 95.0919L122.199 95.9222L122.828 96.7545L123.445 97.5885L124.051 98.4239L124.645 99.2606L125.228 100.098L125.798 100.937L126.357 101.776L126.904 102.616L127.439 103.456L127.961 104.296L128.471 105.136L128.969 105.975L129.455 106.814L129.927 107.652L130.388 108.489L130.836 109.325L131.271 110.16L131.693 110.993L132.102 111.824L132.499 112.653L132.883 113.479L133.253 114.303L133.611 115.125L133.956 115.944L134.287 116.759L134.606 117.571L134.911 118.38L135.203 119.185L135.482 119.986L135.748 120.783L136 121.576L136.24 122.364L136.466 123.147L136.678 123.926L136.878 124.699L137.064 125.467L137.237 126.229L137.396 126.986L137.543 127.736L137.676 128.481L137.796 129.219L137.902 129.95L137.996 130.675L138.076 131.393L138.144 132.103L138.198 132.807L138.239 133.502L138.267 134.191L138.282 134.871L138.284 135.543L138.274 136.207L138.25 136.862L138.214 137.509L138.165 138.147L138.103 138.775L138.029 139.395L137.942 140.006L137.843 140.606L137.731 141.198L137.608 141.779L137.471 142.35L137.323 142.911L137.163 143.462L136.991 144.002L136.807 144.532L136.611 145.051L136.403 145.559L136.184 146.055L135.953 146.541L135.712 147.015L135.458 147.477L135.194 147.928L134.919 148.367L134.632 148.794L134.335 149.209L134.027 149.611L133.709 150.002L133.38 150.379L133.041 150.745L132.692 151.097L132.332 151.437L131.963 151.763L131.584 152.077L131.195 152.377L130.797 152.664L130.39 152.938L129.973 153.198L129.548 153.444L129.113 153.677L128.67 153.897L128.218 154.102L127.757 154.293L127.289 154.471L126.812 154.634L126.327 154.783L125.835 154.918L125.335 155.038L124.827 155.144L124.312 155.236L123.79 155.313L123.261 155.376L122.726 155.424L122.183 155.458L121.635 155.476L121.08 155.48L120.519 155.47L119.952 155.444L119.379 155.404L118.801 155.349L118.217 155.279L117.629 155.194L117.035 155.094L116.436 154.979L115.833 154.849L115.226 154.704L114.614 154.545L113.998 154.37L113.379 154.181L112.755 153.976L112.128 153.757L111.498 153.522L110.865 153.273L110.229 153.009L109.59 152.73L108.949 152.436L108.305 152.128L107.659 151.805L107.011 151.467L106.362 151.114L105.711 150.747L105.058 150.365L104.404 149.969L103.75 149.558L103.094 149.133L102.438 148.693L101.782 148.239L101.125 147.771L100.468 147.289L99.8116 146.793L99.1553 146.283L98.4996 145.759L97.8446 145.221L97.1905 144.67L96.5375 144.105L95.8859 143.526L95.2356 142.934L94.587 142.329L93.9403 141.71L93.2956 141.079L92.6531 140.434L92.013 139.777L91.3754 139.107L90.7406 138.424L90.1087 137.729L89.4799 137.021L88.8544 136.301L88.2323 135.569L87.6138 134.826L86.9991 134.07L86.3884 133.303L85.7818 132.524L85.1795 131.734L84.5816 130.932L83.9884 130.12L83.3999 129.296L82.8164 128.462L82.238 127.617L81.6648 126.762L81.097 125.897L80.5348 125.021L79.9783 124.136L79.4276 123.241L78.883 122.336L78.3445 121.422L77.8123 120.499L77.2865 119.567L76.7673 118.626L76.2547 117.677L75.7491 116.719L75.2504 115.752L74.7587 114.778L74.2743 113.796L73.7973 112.806L73.3277 111.809L72.8657 110.805L72.4114 109.793L71.9649 108.775L71.5264 107.75L71.0959 106.719L70.6736 105.682L70.2595 104.638L69.8537 103.589L69.4564 102.535L69.0677 101.475L68.6876 100.41L68.3162 99.3397L67.9537 98.2652L67.6 97.1862L67.2554 96.103L66.9197 95.0159L66.5933 93.9251L66.2761 92.8307L65.9682 91.733L65.6696 90.6324L65.3804 89.5289L65.1008 88.4228L64.8307 87.3143L64.5701 86.2038L64.3193 85.0914L64.0781 83.9773L63.8467 82.8619L63.6252 81.7452L63.4134 80.6276L63.2115 79.5094L63.0196 78.3907L62.8376 77.2717L62.6656 76.1528L62.5036 75.0342L62.3516 73.916L62.2096 72.7986L62.0778 71.6822L61.956 70.5669L61.8443 69.4531L61.7427 68.3411L61.6512 67.2309L61.5698 66.1229L61.4986 65.0173L61.4374 63.9144L61.3864 62.8143L61.3454 61.7174L61.3145 60.6238L61.2936 59.5338L61.2828 58.4476L61.282 57.3654L61.2913 56.2876L61.3104 55.2143L61.3396 54.1457L61.3786 53.0821L61.4274 52.0237L61.4861 50.9707L61.5546 49.9234L61.6328 48.882L61.7207 47.8467L61.8182 46.8178L61.9254 45.7954L62.042 44.7798L62.1681 43.7712L62.3036 42.7698L62.4484 41.7758L62.6025 40.7895L62.7658 39.811L62.9382 38.8407L63.1196 37.8786L63.31 36.9249L63.5093 35.98L63.7174 35.044L63.9342 34.1171L64.1596 33.1994L64.3935 32.2913L64.6359 31.3929L64.8865 30.5043L65.1455 29.6259L65.4125 28.7577L65.6876 27.8999L65.9706 27.0528L66.2613 26.2165L66.5598 25.3913L66.8659 24.5772L67.1794 23.7744L67.5002 22.9832L67.8283 22.2037L68.1635 21.436L68.5056 20.6804L68.8546 19.937L69.2103 19.2059L69.5726 18.4873L69.9413 17.7814L70.3164 17.0883L70.6976 16.4082L71.0848 15.7411L71.478 15.0874L71.8768 14.447L72.2813 13.8201L72.6913 13.2069L73.1065 12.6075L73.527 12.0219L73.9524 11.4505L74.3826 10.8932L74.8176 10.3501L75.2571 9.82148L75.701 9.30734L76.1492 8.80782L76.6014 8.32299L77.0574 7.85299L77.5173 7.39791L77.9807 6.95784L78.4475 6.53287L78.9176 6.12308L79.3908 5.72857L79.8668 5.34941L80.3457 4.98568L80.827 4.63747L81.3108 4.30482L81.7968 3.98781L82.2849 3.68652L82.7749 3.40099L83.2666 3.13128L83.7598 2.87745L84.2543 2.63955L84.7501 2.41762L85.2469 2.2117L85.7445 2.02182L86.2427 1.84805L86.7415 1.69038L87.2405 1.54886L87.7397 1.42351L88.2388 1.31434L88.7377 1.22138L89.2362 1.14464L89.7341 1.08413L90.2312 1.03985L90.7274 1.01181L91.2225 1L91.7163 1.00442L92.2086 1.02506L92.6993 1.0619L93.1881 1.11495L93.6749 1.18415L94.1596 1.26952L94.642 1.37099L95.1217 1.48855L95.5988 1.62217L96.0731 1.77181L96.5442 1.93743L97.0122 2.11897L97.4768 2.3164L97.9378 2.52966L98.3951 2.75869L98.8485 3.00343L99.2979 3.26383L99.743 3.5398L100.184 3.8313L100.62 4.13824L101.051 4.46054L101.478 4.79813L101.899 5.15092L102.316 5.51881L102.727 5.90174L103.132 6.2996L103.532 6.71228L103.926 7.13971L104.314 7.58176L104.696 8.03834L105.071 8.50932L105.441 8.99461L105.803 9.49408L106.159 10.0076L106.508 10.5351L106.85 11.0764L107.185 11.6314L107.513 12.1999L107.833 12.7818L108.146 13.3771L108.451 13.9854L108.748 14.6068L109.038 15.241L109.319 15.888L109.592 16.5475L109.857 17.2193L110.114 17.9035L110.362 18.5997L110.602 19.3078L110.832 20.0276L111.054 20.7591L111.267 21.502L111.471 22.2561L111.666 23.0213L111.851 23.7973L112.027 24.5841L112.194 25.3814L112.351 26.1891L112.499 27.0069L112.637 27.8347L112.765 28.6722L112.884 29.5194L112.992 30.3759L113.09 31.2417L113.179 32.1164L113.257 33L113.325 33.8921L113.383 34.7926L113.43 35.7013L113.467 36.618L113.494 37.5425L113.51 38.4745L113.516 39.4139L113.511 40.3604L113.495 41.3138L113.469 42.274L113.432 43.2406L113.384 44.2135L113.326 45.1924L113.257 46.1772L113.177 47.1676L113.086 48.1633L112.984 49.1642L112.872 50.1701L112.748 51.1807L112.614 52.1957L112.469 53.215L112.313 54.2384L112.146 55.2655L111.968 56.2962L111.78 57.3302L111.58 58.3674L111.37 59.4074L111.149 60.4501L110.917 61.4952L110.674 62.5425L110.421 63.5917L110.156 64.6426L109.882 65.6951L109.596 66.7488L109.3 67.8035L108.993 68.859L108.676 69.9151L108.348 70.9715L108.01 72.028L107.661 73.0844L107.302 74.1404L106.933 75.1958L106.554 76.2504L106.164 77.304L105.765 78.3562L105.355 79.407L104.936 80.456L104.506 81.503L104.067 82.5479L103.618 83.5903L103.16 84.6301L102.692 85.6671L102.215 86.7009L101.729 87.7315L101.233 88.7585L100.728 89.7818L100.214 90.8011L99.6915 91.8162L99.16 92.827L98.6198 93.8331L98.071 94.8344L97.5138 95.8307L96.9483 96.8218L96.3746 97.8073L95.7928 98.7873L95.2031 99.7614L94.6056 100.729L94.0003 101.691L93.3876 102.646L92.7674 103.595L92.1399 104.537L91.5054 105.472L90.8638 106.399L90.2154 107.319L89.5604 108.232L88.8988 109.136L88.2308 110.033L87.5565 110.921L86.8763 111.801L86.1901 112.673L85.4981 113.536L84.8006 114.39L84.0977 115.235L83.3895 116.071L82.6762 116.897L81.9581 117.714L81.2352 118.521L80.5077 119.319L79.7758 120.106L79.0398 120.883L78.2997 121.65L77.5558 122.407L76.8082 123.152L76.0571 123.887L75.3027 124.612L74.5453 125.325L73.7849 126.027L73.0217 126.718L72.2561 127.397L71.488 128.065L70.7179 128.722L69.9457 129.366L69.1718 129.999L68.3964 130.619L67.6195 131.228L66.8415 131.824L66.0625 132.409L65.2827 132.98L64.5024 133.539L63.7217 134.086L62.9407 134.62L62.1598 135.141L61.3792 135.65L60.5989 136.145L59.8194 136.628L59.0406 137.097L58.2629 137.553L57.4864 137.996L56.7113 138.426L55.938 138.843L55.1664 139.246L54.397 139.635L53.6298 140.011L52.865 140.374L52.103 140.723L51.3438 141.059L50.5877 141.38L49.8348 141.688L49.0855 141.983L48.3399 142.264L47.5981 142.53L46.8605 142.784L46.1271 143.023L45.3982 143.249L44.6741 143.46L43.9548 143.658L43.2406 143.842L42.5317 144.013L41.8283 144.169L41.1306 144.312L40.4388 144.44L39.753 144.556L39.0735 144.657L38.4005 144.744L37.7341 144.818L37.0745 144.879L36.422 144.925L35.7766 144.958L35.1387 144.977L34.5084 144.983L33.8858 144.975L33.2712 144.954L32.6647 144.92L32.0665 144.872L31.4767 144.811L30.8956 144.736L30.3234 144.649L29.7601 144.548L29.206 144.435L28.6613 144.308L28.126 144.168L27.6004 144.016L27.0846 143.851L26.5788 143.674L26.0831 143.484L25.5978 143.281L25.1228 143.066L24.6585 142.839L24.2049 142.6L23.7622 142.348L23.3305 142.085L22.91 141.81L22.5008 141.523L22.103 141.224L21.7168 140.915L21.3424 140.593L20.9797 140.261L20.6291 139.917L20.2905 139.562L19.9641 139.197L19.6501 138.82L19.3485 138.433L19.0594 138.036L18.783 137.628L18.5194 137.21L18.2686 136.782L18.0308 136.344L17.8061 135.897L17.5945 135.439L17.3962 134.973L17.2112 134.497L17.0397 134.012L16.8817 133.517L16.7372 133.014L16.6064 132.503L16.4894 131.983L16.3861 131.454L16.2967 130.918L16.2213 130.373L16.1599 129.821L16.1125 129.261L16.0792 128.693L16.06 128.118L16.0551 127.536L16.0644 126.947L16.088 126.351L16.1259 125.749L16.1782 125.14L16.2449 124.525L16.3259 123.904L16.4214 123.277L16.5314 122.645L16.6558 122.007L16.7947 121.364L16.9481 120.715L17.116 120.062L17.2984 119.404L17.4953 118.741L17.7066 118.074L17.9325 117.403L18.1728 116.728L18.4276 116.049L18.6969 115.367L18.9805 114.681L19.2786 113.992L19.591 113.3L19.9177 112.605L20.2587 111.908L20.614 111.209L20.9835 110.507L21.3671 109.803L21.7649 109.097L22.1767 108.39L22.6026 107.681L23.0424 106.971L23.496 106.261L23.9635 105.549L24.4447 104.837L24.9396 104.124L25.4481 103.411L25.97 102.698L26.5055 101.985L27.0542 101.273L27.6162 100.561L28.1914 99.8496L28.7796 99.1394L29.3808 98.4302L29.9948 97.7224L30.6216 97.0161L31.261 96.3115L31.9129 95.6088L32.5773 94.9082L33.2539 94.2098L33.9427 93.5138L34.6436 92.8204L35.3563 92.1299L36.0809 91.4424L36.817 90.758L37.5647 90.0769L38.3238 89.3994L39.0941 88.7256L39.8755 88.0556L40.6678 87.3897L41.4709 86.728L42.2846 86.0707L43.1087 85.418L43.9432 84.7699L44.7878 84.1267L45.6424 83.4886L46.5069 82.8557L47.3809 82.2282L48.2645 81.6062L49.1573 80.9899L50.0592 80.3794L50.9701 79.7749L51.8897 79.1765L52.8179 78.5844L53.7545 77.9987L54.6993 77.4196L55.6521 76.8473L56.6127 76.2817L57.5809 75.7232L58.5565 75.1718L59.5394 74.6276L60.5292 74.0908L61.5259 73.5615L62.5292 73.0399L63.5388 72.526L64.5547 72.02L65.5765 71.5219L66.6042 71.0321L67.6373 70.5503L68.6758 70.077L69.7195 69.6121L70.768 69.1557L71.8212 68.7079L72.8789 68.2689L73.9408 67.8388L75.0068 67.4175L76.0765 67.0053L77.1498 66.6022L78.2265 66.2083L79.3062 65.8237L80.3889 65.4484L81.4742 65.0826L82.5619 64.7262L83.6518 64.3795L84.7437 64.0424L85.8373 63.715L86.9324 63.3974L88.0287 63.0896L89.1261 62.7917L90.2243 62.5037L91.323 62.2257L92.422 61.9578L93.5211 61.6999L94.62 61.4522L95.7186 61.2146L96.8165 60.9872L97.9136 60.7701L99.0095 60.5632L100.104 60.3666L101.197 60.1803L102.288 60.0043L103.377 59.8386L104.464 59.6834L105.549 59.5385L106.63 59.4039L107.709 59.2797L108.784 59.1659L109.856 59.0625L110.924 58.9695L111.988 58.8868L113.048 58.8145L114.104 58.7525L115.155 58.7008L116.201 58.6594L117.242 58.6283L118.278 58.6075L119.308 58.5969L120.332 58.5965L121.351 58.6062L122.363 58.6261L123.369 58.656L124.368 58.6959L125.36 58.7459L126.345 58.8058L127.323 58.8756L128.293 58.9551L129.255 59.0445L130.21 59.1436L131.156 59.2523L132.094 59.3706L133.023 59.4984L133.943 59.6357L134.855 59.7823L135.757 59.9382L136.65 60.1033L137.533 60.2775L138.407 60.4607L139.27 60.6529L140.123 60.854L140.966 61.0638L141.798 61.2823L142.62 61.5093L143.431 61.7448L144.23 61.9887L145.018 62.2408L145.795 62.5011L146.56 62.7694L147.313 63.0456L148.055 63.3297L148.784 63.6214L149.501 63.9207L150.205 64.2275L150.897 64.5415L151.576 64.8628L152.242 65.1912L152.895 65.5265L153.534 65.8686L154.161 66.2174L154.773 66.5727L155.373 66.9344L155.958 67.3024L156.529 67.6766L157.087 68.0567L157.63 68.4426L158.159 68.8342L158.674 69.2314L159.174 69.6339L159.659 70.0417L160.13 70.4545L160.586 70.8723L161.027 71.2949L161.452 71.7221L161.863 72.1537L162.258 72.5897L162.639 73.0297L163.003 73.4738L163.353 73.9217L163.686 74.3732L164.004 74.8282L164.306 75.2865L164.593 75.748L164.864 76.2124L165.118 76.6797L165.357 77.1496L165.58 77.622L165.786 78.0967L165.977 78.5735L166.151 79.0523L166.31 79.5328L166.452 80.015L166.577 80.4986L166.687 80.9834L166.78 81.4694L166.856 81.9562L166.917 82.4438L166.961 82.9319L166.988 83.4205L167 83.9092" stroke="url(#paint0_radial_175_773)" stroke-width="2"/>
<defs>
<radialGradient id="paint0_radial_175_773" cx="0" cy="0" r="1" gradientUnits="userSpaceOnUse" gradientTransform="translate(28.8093 29.6649) rotate(54.4147) scale(179.394)">
<stop stop-color="#F0C6FF"/>
<stop offset="1" stop-color="#C6D6FF"/>
</radialGradient>
</defs>
</svg>
