<svg width="184" height="53" viewBox="0 0 184 53" fill="none" xmlns="http://www.w3.org/2000/svg">
<circle cx="2" cy="9" r="2" fill="white"/>
<circle cx="16" cy="9" r="2" fill="white"/>
<circle cx="30" cy="9" r="2" fill="white"/>
<circle cx="44" cy="9" r="2" fill="white"/>
<circle cx="58" cy="9" r="2" fill="white"/>
<circle cx="72" cy="9" r="2" fill="white"/>
<circle cx="86" cy="9" r="2" fill="white"/>
<circle cx="100" cy="9" r="2" fill="white"/>
<circle cx="114" cy="9" r="2" fill="white"/>
<circle cx="128" cy="9" r="2" fill="white"/>
<circle cx="142" cy="9" r="2" fill="white"/>
<circle cx="156" cy="9" r="2" fill="white"/>
<circle cx="170" cy="9" r="2" fill="white"/>
<circle cx="184" cy="9" r="2" fill="white"/>
<circle cx="2" cy="23" r="2" fill="white"/>
<circle cx="16" cy="23" r="2" fill="white"/>
<circle cx="30" cy="23" r="2" fill="white"/>
<circle cx="44" cy="23" r="2" fill="white"/>
<circle cx="58" cy="23" r="2" fill="white"/>
<circle cx="72" cy="23" r="2" fill="white"/>
<circle cx="86" cy="23" r="2" fill="white"/>
<circle cx="100" cy="23" r="2" fill="white"/>
<circle cx="114" cy="23" r="2" fill="white"/>
<circle cx="128" cy="23" r="2" fill="white"/>
<circle cx="142" cy="23" r="2" fill="white"/>
<circle cx="156" cy="23" r="2" fill="white"/>
<circle cx="170" cy="23" r="2" fill="white"/>
<circle cx="184" cy="23" r="2" fill="white"/>
<circle cx="2" cy="37" r="2" fill="white"/>
<circle cx="16" cy="37" r="2" fill="white"/>
<circle cx="30" cy="37" r="2" fill="white"/>
<circle cx="44" cy="37" r="2" fill="white"/>
<circle cx="58" cy="37" r="2" fill="white"/>
<circle cx="72" cy="37" r="2" fill="white"/>
<circle cx="86" cy="37" r="2" fill="white"/>
<circle cx="100" cy="37" r="2" fill="white"/>
<circle cx="114" cy="37" r="2" fill="white"/>
<circle cx="128" cy="37" r="2" fill="white"/>
<circle cx="142" cy="37" r="2" fill="white"/>
<circle cx="156" cy="37" r="2" fill="white"/>
<circle cx="170" cy="37" r="2" fill="white"/>
<circle cx="184" cy="37" r="2" fill="white"/>
<circle cx="2" cy="51" r="2" fill="white"/>
<circle cx="16" cy="51" r="2" fill="white"/>
<circle cx="30" cy="51" r="2" fill="white"/>
<circle cx="44" cy="51" r="2" fill="white"/>
<circle cx="58" cy="51" r="2" fill="white"/>
<circle cx="72" cy="51" r="2" fill="white"/>
<circle cx="86" cy="51" r="2" fill="white"/>
<circle cx="100" cy="51" r="2" fill="white"/>
<circle cx="114" cy="51" r="2" fill="white"/>
<circle cx="128" cy="51" r="2" fill="white"/>
<circle cx="142" cy="51" r="2" fill="white"/>
<circle cx="156" cy="51" r="2" fill="white"/>
<circle cx="170" cy="51" r="2" fill="white"/>
<circle cx="184" cy="51" r="2" fill="white"/>
</svg>
