<svg width="119" height="119" viewBox="0 0 119 119" fill="none" xmlns="http://www.w3.org/2000/svg">
<path d="M118 59.3461L117.99 59.1858L117.962 59.0257L117.914 58.8664L117.848 58.708L117.762 58.5509L117.658 58.3955L117.535 58.2421L117.393 58.091L117.232 57.9425L117.053 57.7969L116.855 57.6547L116.639 57.516L116.405 57.3812L116.152 57.2506L115.881 57.1245L115.593 57.0033L115.287 56.8872L114.963 56.7765L114.622 56.6715L114.264 56.5725L113.888 56.4799L113.496 56.3938L113.088 56.3145L112.663 56.2423L112.222 56.1776L111.765 56.1204L111.292 56.0712L110.804 56.0301L110.301 55.9974L109.783 55.9732L109.251 55.9579L108.704 55.9517L108.143 55.9547L107.569 55.9673L106.981 55.9894L106.38 56.0215L105.766 56.0636L105.14 56.1159L104.502 56.1787L103.852 56.252L103.191 56.336L102.519 56.4308L101.836 56.5367L101.143 56.6536L100.439 56.7818L99.7267 56.9214L99.0047 57.0723L98.2738 57.2349L97.5345 57.409L96.7872 57.5948L96.0322 57.7924L95.2698 58.0018L94.5007 58.2231L93.725 58.4563L92.9432 58.7014L92.1558 58.9584L91.3631 59.2274L90.5655 59.5083L89.7634 59.8012L88.9573 60.106L88.1476 60.4227L87.3346 60.7513L86.5187 61.0916L85.7005 61.4437L84.8803 61.8075L84.0584 62.1829L83.2354 62.5698L82.4116 62.9681L81.5875 63.3777L80.7633 63.7985L79.9396 64.2304L79.1167 64.6733L78.2951 65.1269L77.4751 65.5912L76.6571 66.066L75.8415 66.5511L75.0287 67.0463L74.2191 67.5515L73.4131 68.0664L72.611 68.5909L71.8132 69.1248L71.0201 69.6678L70.232 70.2197L69.4493 70.7802L68.6724 71.3491L67.9015 71.9263L67.1371 72.5113L66.3795 73.104L65.6289 73.704L64.8858 74.3111L64.1504 74.925L63.4231 75.5455L62.7041 76.1721L61.9938 76.8046L61.2924 77.4427L60.6003 78.0861L59.9176 78.7344L59.2447 79.3874L58.5818 80.0446L57.9292 80.7058L57.2871 81.3705L56.6557 82.0385L56.0354 82.7094L55.4262 83.3828L54.8284 84.0584L54.2423 84.7358L53.6679 85.4146L53.1055 86.0945L52.5553 86.7751L52.0174 87.4559L51.492 88.1368L50.9791 88.8171L50.4791 89.4966L49.9919 90.1749L49.5178 90.8516L49.0567 91.5263L48.6089 92.1986L48.1743 92.8681L47.7532 93.5344L47.3455 94.1972L46.9513 94.856L46.5707 95.5104L46.2036 96.1601L45.8502 96.8047L45.5105 97.4438L45.1844 98.0769L44.872 98.7038L44.5732 99.324L44.2881 99.9371L44.0166 100.543L43.7587 101.141L43.5143 101.73L43.2834 102.312L43.0659 102.884L42.8617 103.447L42.6708 104L42.493 104.543L42.3283 105.076L42.1765 105.598L42.0376 106.109L41.9113 106.609L41.7976 107.097L41.6964 107.573L41.6073 108.037L41.5304 108.488L41.4654 108.926L41.4122 109.35L41.3705 109.761L41.3402 110.158L41.321 110.541L41.3128 110.91L41.3154 111.264L41.3284 111.603L41.3517 111.927L41.3851 112.235L41.4283 112.527L41.4811 112.804L41.5431 113.064L41.6142 113.308L41.694 113.536L41.7824 113.747L41.8789 113.941L41.9834 114.117L42.0956 114.277L42.2151 114.419L42.3416 114.543L42.4749 114.65L42.6147 114.738L42.7606 114.809L42.9123 114.862L43.0696 114.897L43.232 114.913L43.3993 114.911L43.5711 114.89L43.7472 114.851L43.9272 114.793L44.1107 114.717L44.2975 114.622L44.4871 114.509L44.6794 114.377L44.8738 114.226L45.0702 114.057L45.2681 113.869L45.4672 113.662L45.6672 113.437L45.8678 113.194L46.0686 112.932L46.2693 112.652L46.4695 112.353L46.669 112.037L46.8673 111.702L47.0642 111.349L47.2594 110.979L47.4525 110.591L47.6432 110.185L47.8311 109.762L48.0161 109.322L48.1977 108.865L48.3756 108.391L48.5496 107.9L48.7194 107.392L48.8846 106.869L49.045 106.329L49.2002 105.774L49.3501 105.203L49.4943 104.617L49.6326 104.016L49.7646 103.4L49.8902 102.769L50.0091 102.124L50.1211 101.465L50.2258 100.793L50.3231 100.107L50.4128 99.4079L50.4945 98.6963L50.5682 97.9722L50.6336 97.236L50.6905 96.488L50.7387 95.7287L50.7781 94.9583L50.8084 94.1772L50.8295 93.3857L50.8412 92.5843L50.8435 91.7732L50.836 90.9529L50.8188 90.1238L50.7917 89.2862L50.7545 88.4405L50.7072 87.5871L50.6497 86.7264L50.5818 85.8589L50.5035 84.9848L50.4148 84.1047L50.3155 83.2189L50.2056 82.3278L50.085 81.4319L49.9538 80.5316L49.8119 79.6272L49.6592 78.7193L49.4959 77.8081L49.3218 76.8943L49.137 75.9781L48.9415 75.06L48.7353 74.1404L48.5185 73.2197L48.2912 72.2984L48.0533 71.3769L47.805 70.4556L47.5463 69.535L47.2773 68.6153L46.9982 67.6971L46.7089 66.7808L46.4097 65.8668L46.1007 64.9554L45.7819 64.0472L45.4536 63.1424L45.1159 62.2416L44.7688 61.3451L44.4127 60.4533L44.0477 59.5665L43.6739 58.6853L43.2916 57.8098L42.9009 56.9407L42.5021 56.0781L42.0954 55.2225L41.6809 54.3742L41.259 53.5336L40.8299 52.7011L40.3938 51.8769L39.9509 51.0615L39.5016 50.2551L39.0461 49.4581L38.5847 48.6708L38.1176 47.8935L37.6451 47.1265L37.1676 46.3702L36.6853 45.6247L36.1985 44.8904L35.7076 44.1676L35.2128 43.4565L34.7145 42.7574L34.213 42.0706L33.7087 41.3962L33.2017 40.7345L32.6926 40.0858L32.1816 39.4502L31.6692 38.828L31.1555 38.2193L30.641 37.6244L30.1261 37.0434L29.6111 36.4765L29.0963 35.9239L28.5821 35.3857L28.069 34.862L27.5571 34.353L27.047 33.8588L26.539 33.3795L26.0335 32.9153L25.5307 32.4662L25.0312 32.0322L24.5353 31.6136L24.0433 31.2102L23.5556 30.8223L23.0726 30.4498L22.5946 30.0928L22.1221 29.7512L21.6553 29.4252L21.1947 29.1146L20.7407 28.8196L20.2935 28.54L19.8536 28.2759L19.4213 28.0272L18.9969 27.7939L18.5809 27.576L18.1735 27.3732L17.7751 27.1857L17.386 27.0133L17.0067 26.8558L16.6373 26.7133L16.2783 26.5855L15.93 26.4725L15.5926 26.3739L15.2666 26.2898L14.9521 26.2199L14.6496 26.1641L14.3592 26.1223L14.0814 26.0942L13.8164 26.0797L13.5644 26.0786L13.3257 26.0907L13.1007 26.1157L12.8895 26.1535L12.6924 26.2039L12.5097 26.2666L12.3415 26.3414L12.1882 26.4281L12.0499 26.5263L11.9268 26.6359L11.8192 26.7566L11.7272 26.8881L11.6511 27.0301L11.591 27.1824L11.547 27.3447L11.5194 27.5166L11.5082 27.698L11.5137 27.8884L11.536 28.0877L11.5752 28.2954L11.6313 28.5113L11.7046 28.735L11.795 28.9663L11.9027 29.2048L12.0278 29.4501L12.1703 29.702L12.3303 29.9601L12.5079 30.224L12.7029 30.4936L12.9156 30.7683L13.1459 31.0478L13.3937 31.3319L13.6592 31.6201L13.9422 31.9122L14.2428 32.2077L14.5609 32.5064L14.8965 32.8078L15.2495 33.1117L15.6198 33.4176L16.0074 33.7253L16.4122 34.0344L16.8341 34.3445L17.2729 34.6553L17.7286 34.9665L18.2011 35.2776L18.6901 35.5885L19.1956 35.8987L19.7174 36.2079L20.2553 36.5158L20.8091 36.8221L21.3787 37.1263L21.9639 37.4283L22.5644 37.7277L23.1801 38.0241L23.8107 38.3173L24.4561 38.6069L25.1158 38.8927L25.7898 39.1743L26.4777 39.4515L27.1793 39.724L27.8943 39.9915L28.6225 40.2537L29.3635 40.5103L30.117 40.7611L30.8828 41.0059L31.6605 41.2443L32.4498 41.4762L33.2503 41.7013L34.0619 41.9193L34.884 42.1301L35.7164 42.3334L36.5587 42.529L37.4106 42.7168L38.2716 42.8964L39.1415 43.0678L40.0198 43.2308L40.9062 43.3851L41.8003 43.5307L42.7016 43.6673L43.6099 43.7948L44.5246 43.9132L45.4455 44.0222L46.3721 44.1217L47.3039 44.2117L48.2407 44.2919L49.1819 44.3624L50.1271 44.4231L51.076 44.4739L52.0281 44.5146L52.983 44.5453L53.9402 44.5659L54.8994 44.5764L55.8601 44.5767L56.8218 44.5668L57.7843 44.5467L58.7469 44.5165L59.7094 44.476L60.6712 44.4254L61.632 44.3647L62.5912 44.2938L63.5486 44.2129L64.5036 44.122L65.4559 44.0211L66.405 43.9104L67.3505 43.7899L68.292 43.6597L69.2291 43.5199L70.1613 43.3706L71.0883 43.212L72.0096 43.0442L72.9249 42.8672L73.8337 42.6813L74.7357 42.4865L75.6304 42.2832L76.5176 42.0713L77.3967 41.8512L78.2675 41.6229L79.1295 41.3868L79.9824 41.1429L80.8259 40.8915L81.6595 40.6328L82.483 40.3671L83.296 40.0945L84.0982 39.8153L84.8892 39.5298L85.6687 39.2382L86.4364 38.9407L87.192 38.6377L87.9352 38.3293L88.6658 38.0159L89.3834 37.6978L90.0877 37.3752L90.7785 37.0484L91.4556 36.7177L92.1186 36.3835L92.7674 36.046L93.4017 35.7056L94.0212 35.3625L94.6259 35.0171L95.2154 34.6698L95.7896 34.3207L96.3483 33.9703L96.8912 33.619L97.4184 33.2669L97.9295 32.9146L98.4244 32.5623L98.903 32.2103L99.3652 31.859L99.8108 31.5088L100.24 31.16L100.652 30.813L101.047 30.4681L101.426 30.1256L101.787 29.786L102.132 29.4495L102.459 29.1165L102.769 28.7874L103.062 28.4625L103.338 28.1422L103.596 27.8268L103.838 27.5167L104.062 27.2122L104.269 26.9137L104.459 26.6214L104.632 26.3358L104.788 26.0572L104.927 25.7859L105.049 25.5222L105.154 25.2665L105.242 25.0191L105.314 24.7803L105.369 24.5504L105.408 24.3298L105.431 24.1188L105.437 23.9176L105.428 23.7265L105.403 23.5459L105.362 23.376L105.305 23.2172L105.234 23.0696L105.147 22.9336L105.045 22.8095L104.929 22.6974L104.798 22.5976L104.653 22.5105L104.494 22.4361L104.321 22.3748L104.135 22.3267L103.935 22.2921L103.723 22.2713L103.497 22.2643L103.26 22.2713L103.01 22.2927L102.748 22.3284L102.474 22.3788L102.189 22.4439L101.893 22.5239L101.587 22.619L101.27 22.7293L100.943 22.8548L100.606 22.9958L100.26 23.1522L99.9048 23.3243L99.5409 23.5121L99.1685 23.7156L98.7881 23.935L98.4 24.1702L98.0045 24.4214L97.602 24.6886L97.1928 24.9717L96.7774 25.2709L96.356 25.5861L95.9291 25.9172L95.4969 26.2644L95.0599 26.6276L94.6184 27.0067L94.1728 27.4017L93.7234 27.8125L93.2706 28.2392L92.8149 28.6815L92.3564 29.1394L91.8957 29.6129L91.433 30.1018L90.9688 30.606L90.5034 31.1254L90.0371 31.6598L89.5704 32.2092L89.1035 32.7733L88.6368 33.352L88.1708 33.9451L87.7056 34.5525L87.2417 35.1739L86.7795 35.8092L86.3192 36.4581L85.8611 37.1205L85.4057 37.796L84.9533 38.4846L84.5041 39.1858L84.0585 39.8995L83.6168 40.6254L83.1792 41.3633L82.7462 42.1128L82.318 42.8738L81.8949 43.6458L81.4772 44.4286L81.0651 45.2218L80.659 46.0253L80.2591 46.8386L79.8656 47.6614L79.4788 48.4935L79.099 49.3343L78.7264 50.1837L78.3612 51.0412L78.0037 51.9065L77.654 52.7792L77.3124 53.659L76.9791 54.5455L76.6543 55.4383L76.3381 56.337L76.0308 57.2412L75.7324 58.1506L75.4432 59.0647L75.1633 59.9832L74.8929 60.9056L74.6321 61.8315L74.3809 62.7606L74.1396 63.6924L73.9083 64.6264L73.6869 65.5624L73.4757 66.4998L73.2747 67.4383L73.0839 68.3774L72.9035 69.3167L72.7335 70.2557L72.5738 71.1942L72.4247 72.1315L72.286 73.0673L72.1578 74.0013L72.0401 74.9328L71.9329 75.8616L71.8362 76.7872L71.7499 77.7092L71.674 78.6271L71.6086 79.5406L71.5534 80.4492L71.5086 81.3526L71.4739 82.2502L71.4493 83.1417L71.4348 84.0268L71.4302 84.9049L71.4355 85.7756L71.4504 86.6387L71.475 87.4937L71.509 88.3402L71.5523 89.1778L71.6048 90.0062L71.6663 90.8249L71.7367 91.6336L71.8157 92.432L71.9033 93.2197L71.9991 93.9963L72.1031 94.7616L72.215 95.515L72.3346 96.2564L72.4616 96.9854L72.5959 97.7016L72.7373 98.4049L72.8854 99.0948L73.0401 99.771L73.201 100.433L73.368 101.081L73.5408 101.715L73.719 102.334L73.9025 102.938L74.0909 103.526L74.284 104.1L74.4815 104.657L74.683 105.198L74.8883 105.724L75.0971 106.233L75.3091 106.725L75.5239 107.201L75.7413 107.659L75.9609 108.101L76.1824 108.525L76.4054 108.932L76.6298 109.322L76.855 109.693L77.0809 110.047L77.307 110.383L77.5331 110.702L77.7588 111.002L77.9837 111.283L78.2075 111.547L78.4299 111.793L78.6506 112.02L78.8692 112.228L79.0854 112.419L79.2987 112.591L79.509 112.744L79.7158 112.879L79.9189 112.996L80.1178 113.094L80.3123 113.174L80.5021 113.236L80.6867 113.28L80.8659 113.305L81.0393 113.313L81.2067 113.302L81.3677 113.273L81.522 113.227L81.6693 113.163L81.8092 113.082L81.9416 112.983L82.066 112.867L82.1822 112.733L82.2899 112.583L82.3888 112.416L82.4787 112.232L82.5592 112.032L82.6301 111.816L82.6911 111.584L82.742 111.336L82.7826 111.072L82.8125 110.793L82.8316 110.5L82.8395 110.191L82.8362 109.867L82.8214 109.53L82.7948 109.178L82.7563 108.813L82.7057 108.434L82.6427 108.041L82.5673 107.636L82.4792 107.219L82.3783 106.789L82.2644 106.347L82.1374 105.893L81.9972 105.429L81.8435 104.953L81.6764 104.466L81.4956 103.97L81.3012 103.463L81.0929 102.947L80.8708 102.421L80.6347 101.887L80.3846 101.344L80.1204 100.793L79.8421 100.234L79.5497 99.6677L79.243 99.0944L78.9222 98.5144L78.5872 97.9281L78.238 97.3359L77.8746 96.7382L77.4971 96.1354L77.1055 95.5277L76.6997 94.9158L76.28 94.2998L75.8463 93.6802L75.3987 93.0574L74.9373 92.4318L74.4622 91.8037L73.9734 91.1736L73.4712 90.5418L72.9556 89.9087L72.4268 89.2747L71.8848 88.6402L71.3299 88.0054L70.7622 87.371L70.1819 86.7371L69.5891 86.1041L68.984 85.4725L68.3669 84.8426L67.7379 84.2147L67.0973 83.5892L66.4452 82.9665L65.782 82.3468L65.1077 81.7306L64.4228 81.1182L63.7274 80.5099L63.0218 79.9061L62.3063 79.307L61.5812 78.713L60.8467 78.1245L60.1031 77.5416L59.3507 76.9647L58.5899 76.3941L57.821 75.8301L57.0442 75.273L56.26 74.7231L55.4686 74.1805L54.6703 73.6456L53.8656 73.1186L53.0548 72.5998L52.2381 72.0894L51.4161 71.5877L50.5891 71.0947L49.7573 70.6109L48.9213 70.1363L48.0814 69.6712L47.2379 69.2158L46.3913 68.7702L45.5419 68.3347L44.6902 67.9093L43.8365 67.4942L42.9813 67.0896L42.1249 66.6956L41.2678 66.3124L40.4103 65.94L39.5528 65.5786L38.6959 65.2282L37.8398 64.889L36.9851 64.5611L36.132 64.2444L35.2811 63.9391L34.4327 63.6453L33.5873 63.3629L32.7453 63.092L31.907 62.8326L31.0729 62.5847L30.2435 62.3484L29.419 62.1236L28.6 61.9104L27.7868 61.7086L26.9799 61.5183L26.1796 61.3394L25.3864 61.1719L24.6006 61.0157L23.8226 60.8708L23.0529 60.737L22.2917 60.6143L21.5396 60.5026L20.7968 60.4017L20.0638 60.3116L19.3409 60.2321L18.6285 60.1631L17.9269 60.1045L17.2366 60.0561L16.5577 60.0178L15.8908 59.9894L15.2361 59.9706L14.594 59.9614L13.9648 59.9616L13.3487 59.9709L12.7462 59.9892L12.1575 60.0162L11.583 60.0518L11.0228 60.0956L10.4774 60.1475L9.94691 60.2073L9.43167 60.2746L8.93193 60.3493L8.44795 60.431L7.97995 60.5196L7.52818 60.6147L7.09287 60.7162L6.67422 60.8236L6.27246 60.9368L5.88777 61.0554L5.52034 61.1791L5.17036 61.3077L4.838 61.4409L4.52342 61.5783L4.22676 61.7196L3.94818 61.8646L3.6878 62.0129L3.44574 62.1641L3.22212 62.3181L3.01704 62.4745L2.83059 62.6328L2.66285 62.7929L2.5139 62.9544L2.38378 63.1169L2.27257 63.2802L2.18028 63.4439L2.10697 63.6076L2.05263 63.7711L2.01729 63.934L2.00094 64.0959L2.00358 64.2566L2.02517 64.4158L2.06569 64.573L2.12509 64.7279L2.20332 64.8803L2.30031 65.0298L2.416 65.1761L2.5503 65.3188L2.70311 65.4577L2.87434 65.5923L3.06386 65.7226L3.27156 65.848L3.49729 65.9683L3.74092 66.0831L4.00229 66.1923L4.28124 66.2955L4.57761 66.3924L4.89119 66.4826L5.22182 66.5661L5.56927 66.6423L5.93336 66.7112L6.31386 66.7723L6.71053 66.8255L7.12316 66.8706L7.55149 66.9071L7.99528 66.935L8.45426 66.9539L8.92818 66.9637L9.41674 66.964L9.91968 66.9548L10.4367 66.9357L10.9675 66.9066L11.5118 66.8673L12.0692 66.8176L12.6395 66.7573L13.2224 66.6863L13.8174 66.6043L14.4243 66.5112L15.0427 66.4069L15.6723 66.2912L16.3127 66.1641L16.9636 66.0253L17.6246 65.8747L18.2954 65.7123L18.9755 65.538L19.6646 65.3517L20.3623 65.1532L21.0683 64.9425L21.7821 64.7196L22.5034 64.4845L23.2317 64.2369L23.9668 63.9771L24.7081 63.7048L25.4552 63.4201L26.2079 63.1231L26.9657 62.8136L27.7281 62.4917L28.4948 62.1575L29.2654 61.811L30.0394 61.4522L30.8166 61.0811L31.5963 60.6979L32.3783 60.3026L33.1622 59.8953L33.9475 59.4761L34.7338 59.045L35.5208 58.6023L36.308 58.148L37.0951 57.6822L37.8816 57.2051L38.6671 56.7169L39.4513 56.2176L40.2338 55.7075L41.0142 55.1867L41.792 54.6554L42.567 54.1138L43.3388 53.5622L44.1069 53.0006L44.871 52.4294L45.6308 51.8487L46.3859 51.2589L47.1359 50.66L47.8805 50.0525L48.6194 49.4365L49.3522 48.8123L50.0785 48.1802L50.7982 47.5404L51.5107 46.8933L52.2159 46.2391L52.9135 45.5782L53.603 44.9108L54.2843 44.2372L54.957 43.5578L55.6209 42.873L56.2757 42.1829L56.9212 41.488L57.557 40.7887L58.183 40.0851L58.7989 39.3778L59.4044 38.6671L59.9994 37.9532L60.5836 37.2367L61.1569 36.5177L61.7189 35.7969L62.2697 35.0744L62.8089 34.3506L63.3363 33.6261L63.852 32.9011L64.3556 32.176L64.847 31.4512L65.3262 30.7271L65.7929 30.0041L66.2471 29.2826L66.6887 28.563L67.1176 27.8457L67.5336 27.131L67.9367 26.4194L68.3269 25.7113L68.7041 25.0071L69.0682 24.3071L69.4192 23.6118L69.7571 22.9216L70.0819 22.2368L70.3935 21.5578L70.6919 20.8851L70.9772 20.219L71.2494 19.56L71.5086 18.9083L71.7546 18.2644L71.9877 17.6286L72.2078 17.0014L72.4151 16.3831L72.6096 15.7741L72.7913 15.1747L72.9605 14.5853L73.1171 14.0063L73.2614 13.438L73.3934 12.8808L73.5132 12.3349L73.621 11.8008L73.717 11.2788L73.8013 10.7692L73.8741 10.2722L73.9355 9.78834L73.9857 9.31779L74.0249 8.86087L74.0534 8.41788L74.0712 7.98912L74.0787 7.57485L74.076 7.17535L74.0633 6.79089L74.041 6.42172L74.0091 6.06809L73.9681 5.73025L73.9181 5.40842L73.8593 5.10284L73.7921 4.81371L73.7167 4.54125L73.6334 4.28565L73.5425 4.0471L73.4441 3.82579L73.3388 3.62188L73.2266 3.43554L73.108 3.26692L72.9832 3.11616L72.8526 2.98339L72.7163 2.86875L72.5749 2.77234L72.4284 2.69427L72.2774 2.63463L72.1221 2.5935L71.9628 2.57096L71.7998 2.56708L71.6336 2.5819L71.4643 2.61547L71.2924 2.66782L71.1181 2.73898L70.9418 2.82895L70.7639 2.93774L70.5846 3.06534L70.4044 3.21173L70.2235 3.37688L70.0422 3.56076L69.8609 3.7633L69.68 3.98445L69.4997 4.22415L69.3205 4.4823L69.1425 4.75882L68.9662 5.05361L68.7918 5.36655L68.6198 5.69753L68.4503 6.04641L68.2838 6.41305L68.1206 6.7973L67.9608 7.199L67.8049 7.61798L67.6532 8.05406L67.5059 8.50705L67.3634 8.97675L67.2259 9.46295L67.0938 9.96544L66.9673 10.484L66.8466 11.0184L66.7321 11.5683L66.624 12.1336L66.5226 12.714L66.4281 13.3092L66.3408 13.9189L66.2609 14.5428L66.1886 15.1807L66.1243 15.8323L66.068 16.4972L66.0201 17.1751L65.9807 17.8658L65.95 18.5688L65.9282 19.2839L65.9155 20.0107L65.9121 20.7489L65.9181 21.4981L65.9338 22.258L65.9592 23.0282L65.9945 23.8083L66.0398 24.5979L66.0953 25.3968L66.1611 26.2044L66.2373 27.0205L66.324 27.8445L66.4213 28.6762L66.5293 29.5152L66.648 30.361L66.7775 31.2132L66.9179 32.0714L67.0693 32.9352L67.2315 33.8043L67.4048 34.6781L67.5891 35.5563L67.7843 36.4385L67.9906 37.3242L68.2079 38.2131L68.4362 39.1046L68.6755 39.9984L68.9257 40.8941L69.1867 41.7913L69.4586 42.6895L69.7412 43.5882L70.0345 44.4872L70.3384 45.3859L70.6528 46.284L70.9776 47.1811L71.3127 48.0767L71.658 48.9704L72.0133 49.8618L72.3785 50.7505L72.7534 51.6362L73.1379 52.5184L73.5319 53.3966L73.9351 54.2706L74.3474 55.14L74.7686 56.0043L75.1984 56.8632L75.6368 57.7163L76.0833 58.5632L76.538 59.4036L77.0004 60.2371L77.4704 61.0634L77.9477 61.882L78.4321 62.6928L78.9233 63.4953L79.4211 64.2892L79.9251 65.0741L80.4351 65.8498L80.9508 66.616L81.4719 67.3723L81.9981 68.1185L82.5291 68.8543L83.0646 69.5793L83.6043 70.2934L84.1479 70.9962L84.6949 71.6875L85.2452 72.367L85.7984 73.0346L86.354 73.6899L86.9118 74.3328L87.4715 74.963L88.0327 75.5804L88.5949 76.1847L89.158 76.7757L89.7214 77.3533L90.2849 77.9174L90.848 78.4677L91.4105 79.004L91.9719 79.5264L92.5319 80.0345L93.09 80.5284L93.646 81.0078L94.1994 81.4728L94.7498 81.9231L95.297 82.3588L95.8404 82.7797L96.3798 83.1858L96.9147 83.577L97.4448 83.9533L97.9697 84.3147L98.489 84.6611L99.0024 84.9925L99.5095 85.3089L100.01 85.6104L100.503 85.8969L100.989 86.1685L101.467 86.4252L101.937 86.667L102.399 86.894L102.851 87.1063L103.294 87.304L103.728 87.4871L104.152 87.6557L104.566 87.8099L104.969 87.9499L105.361 88.0758L105.742 88.1876L106.112 88.2855L106.469 88.3698L106.815 88.4404L107.148 88.4977L107.468 88.5417L107.775 88.5727L108.069 88.5908L108.35 88.5962L108.616 88.5892L108.868 88.5699L109.106 88.5386L109.33 88.4955L109.538 88.4408L109.731 88.3748L109.909 88.2977L110.072 88.2098L110.218 88.1113L110.349 88.0025L110.464 87.8836L110.562 87.755L110.644 87.617L110.709 87.4697L110.757 87.3135L110.789 87.1488L110.803 86.9758L110.8 86.7947L110.78 86.606L110.742 86.41L110.687 86.2068L110.614 85.997L110.523 85.7808L110.415 85.5585L110.289 85.3304L110.145 85.097L109.983 84.8585L109.803 84.6152L109.605 84.3676L109.389 84.1159L109.155 83.8605L108.904 83.6017L108.634 83.3399L108.346 83.0753L108.041 82.8085L107.718 82.5396L107.377 82.2691L107.018 81.9973L106.642 81.7245L106.249 81.4511L105.838 81.1774L105.409 80.9037L104.964 80.6304L104.502 80.3578L104.023 80.0863L103.527 79.8161L103.014 79.5477L102.486 79.2812L101.941 79.0171L101.38 78.7557L100.803 78.4973L100.211 78.2421L99.6038 77.9905L98.9812 77.7428L98.3437 77.4992L97.6916 77.2602L97.0252 77.0259L96.3446 76.7966L95.6503 76.5727L94.9424 76.3543L94.2212 76.1418L93.487 75.9354L92.7403 75.7353L91.9811 75.5419L91.2099 75.3552L90.4271 75.1757L89.6328 75.0034L88.8276 74.8386L88.0116 74.6816L87.1853 74.5324L86.349 74.3914L85.5031 74.2587L84.6479 74.1345L83.7839 74.0189L82.9113 73.9122L82.0307 73.8144L81.1423 73.7257L80.2466 73.6463L79.3439 73.5763L78.4347 73.5158L77.5193 73.4649L76.5983 73.4237L75.6719 73.3924L74.7406 73.3709L73.8048 73.3594L72.8649 73.358L71.9214 73.3667L70.9746 73.3856L70.0251 73.4146L69.0731 73.4539L68.1192 73.5034L67.1638 73.5631L66.2072 73.6332L65.25 73.7135L64.2925 73.804L63.3352 73.9047L62.3786 74.0156L61.4229 74.1367L60.4687 74.2678L59.5164 74.409L58.5664 74.5601L57.6191 74.721L56.675 74.8918L55.7344 75.0722L54.7978 75.2622L53.8655 75.4616L52.9381 75.6704L52.0158 75.8884L51.0992 76.1154L50.1885 76.3513L49.2842 76.5959L48.3867 76.8491L47.4964 77.1107L46.6135 77.3806L45.7386 77.6584L44.872 77.944L44.014 78.2373L43.165 78.5379L42.3254 78.8457L41.4955 79.1604L40.6756 79.4819L39.8661 79.8097L39.0672 80.1438L38.2794 80.4838L37.503 80.8295L36.7381 81.1806L35.9852 81.5369L35.2445 81.8979L34.5164 82.2636L33.801 82.6335L33.0986 83.0073L32.4096 83.3849L31.7341 83.7658L31.0724 84.1497L30.4247 84.5363L29.7913 84.9253L29.1723 85.3164L28.5681 85.7092L27.9787 86.1035L27.4043 86.4988L26.8452 86.8948L26.3015 87.2912L25.7733 87.6877L25.2609 88.0838L24.7643 88.4793L24.2836 88.8738L23.8191 89.2669L23.3708 89.6583L22.9388 90.0477L22.5232 90.4346L22.124 90.8187L21.7415 91.1997L21.3755 91.5771L21.0261 91.9508L20.6935 92.3202L20.3776 92.685L20.0784 93.0449L19.796 93.3995L19.5304 93.7485L19.2814 94.0915L19.0492 94.4282L18.8337 94.7582L18.6348 95.0812L18.4526 95.3968L18.2868 95.7047L18.1375 96.0046L18.0046 96.2961L17.888 96.5789L17.7876 96.8527L17.7033 97.1171L17.6349 97.3719L17.5824 97.6167L17.5456 97.8513L17.5243 98.0752L17.5184 98.2883L17.5278 98.4903L17.5522 98.6807L17.5915 98.8595L17.6455 99.0262L17.714 99.1807L17.7968 99.3227L17.8937 99.4519L18.0044 99.568L18.1288 99.6709L18.2665 99.7603L18.4174 99.8359L18.5812 99.8977L18.7576 99.9453L18.9463 99.9785L19.1472 99.9972L19.3599 100.001L19.5842 99.9902L19.8197 99.9642L20.0662 99.923L20.3233 99.8664L20.5907 99.7943L20.8683 99.7065L21.1555 99.6029L21.4521 99.4835L21.7579 99.348L22.0723 99.1965L22.3952 99.0288L22.7262 98.8449L23.065 98.6446L23.4111 98.428L23.7643 98.1949L24.1242 97.9454L24.4905 97.6794L24.8628 97.3969L25.2407 97.098L25.6239 96.7825L26.0121 96.4505L26.4049 96.102L26.8019 95.7372L27.2027 95.3559L27.6071 94.9583L28.0146 94.5444L28.4248 94.1144L28.8375 93.6682L29.2523 93.206L29.6688 92.7279L30.0866 92.234L30.5054 91.7245L30.9249 91.1994L31.3446 90.6589L31.7643 90.1031L32.1836 89.5323L32.6021 88.9465L33.0195 88.346L33.4355 87.731L33.8497 87.1016L34.2618 86.4581L34.6715 85.8008L35.0784 85.1297L35.4822 84.4451L35.8826 83.7474L36.2794 83.0367L36.6721 82.3133L37.0605 81.5775L37.4443 80.8295L37.8232 80.0697L38.1969 79.2984L38.5652 78.5157L38.9277 77.7221L39.2843 76.9179L39.6346 76.1033L39.9783 75.2787L40.3154 74.4445L40.6454 73.601L40.9682 72.7485L41.2835 71.8873L41.5912 71.0179L41.891 70.1407L42.1828 69.2559L42.4662 68.364L42.7412 67.4653L43.0076 66.5602L43.2652 65.6491L43.5138 64.7325L43.7533 63.8106L43.9835 62.8839L44.2043 61.9529L44.4156 61.0179L44.6173 60.0792L44.8092 59.1375L44.9913 58.193L45.1635 57.2461L45.3256 56.2974L45.4777 55.3472L45.6196 54.3959L45.7513 53.444L45.8727 52.4919L45.9839 51.54L46.0848 50.5887L46.1753 49.6385L46.2555 48.6898L46.3254 47.743L46.385 46.7986L46.4343 45.857L46.4733 44.9185L46.5021 43.9837L46.5207 43.0529L46.5292 42.1265L46.5276 41.2051L46.5161 40.2889L46.4947 39.3784L46.4635 38.474L46.4227 37.5762L46.3722 36.6852L46.3123 35.8015L46.2431 34.9256L46.1647 34.0577L46.0772 33.1983L45.9809 32.3478L45.8758 31.5065L45.7622 30.6748L45.6402 29.8531L45.5101 29.0417L45.3719 28.2409L45.226 27.4512L45.0725 26.6729L44.9117 25.9063L44.7437 25.1516L44.5688 24.4094L44.3872 23.6798L44.1992 22.9631L44.0051 22.2598L43.805 21.57L43.5993 20.894L43.3882 20.2322L43.172 19.5847L42.951 18.9519L42.7254 18.334L42.4956 17.7313L42.2618 17.1439L42.0244 16.5721L41.7836 16.0162L41.5398 15.4762L41.2932 14.9525L41.0442 14.4452L40.7931 13.9545L40.5403 13.4805L40.286 13.0235L40.0305 12.5835L39.7743 12.1607L39.5176 11.7553L39.2608 11.3673L39.0042 10.9969L38.7481 10.6442L38.4929 10.3092L38.239 9.99209L37.9866 9.69287L37.7361 9.41162L37.4879 9.14838L37.2422 8.90321L36.9995 8.67612L36.7601 8.46713L36.5243 8.27626L36.2924 8.10349L36.0649 7.94883L35.842 7.81224L35.624 7.69369L35.4113 7.59314L35.2043 7.51054L35.0032 7.44583L34.8084 7.39892L34.6202 7.36974L34.4389 7.35819L34.2649 7.36417L34.0984 7.38758L33.9398 7.42827L33.7893 7.48614L33.6473 7.56102L33.5141 7.65278L33.3899 7.76126L33.275 7.88627L33.1698 8.02766L33.0744 8.18522L32.9893 8.35877L32.9145 8.5481L32.8504 8.753L32.7972 8.97325L32.7552 9.20862L32.7246 9.45887L32.7057 9.72376L32.6986 10.003L32.7035 10.2964L32.7208 10.6037L32.7506 10.9246L32.793 11.2587L32.8483 11.6059L32.9167 11.9658L32.9982 12.3381L33.0932 12.7226L33.2016 13.1189L33.3238 13.5266L33.4597 13.9456L33.6096 14.3753L33.7735 14.8156L33.9516 15.2661L34.1439 15.7264L34.3506 16.1961L34.5717 16.675L34.8073 17.1627L35.0575 17.6588L35.3223 18.163L35.6017 18.6749L35.8958 19.1941L36.2047 19.7203L36.5282 20.2531L36.8665 20.792L37.2196 21.3369L37.5873 21.8872L37.9697 22.4426L38.3667 23.0027L38.7784 23.5671L39.2046 24.1355L39.6452 24.7075L40.1003 25.2827L40.5697 25.8607L41.0533 26.4411L41.5511 27.0236L42.0628 27.6077L42.5884 28.1932L43.1278 28.7796L43.6808 29.3665L44.2472 29.9536L44.8269 30.5406L45.4197 31.127L46.0255 31.7125L46.644 32.2967L47.2751 32.8793L47.9185 33.4599L48.574 34.0382L49.2415 34.6138L49.9206 35.1863L50.6111 35.7556L51.3128 36.3211L52.0254 36.8826L52.7487 37.4398L53.4823 37.9924L54.226 38.54L54.9796 39.0823L55.7426 39.619L56.5148 40.1499L57.296 40.6746L58.0857 41.1929L58.8836 41.7045L59.6895 42.2091L60.503 42.7065L61.3237 43.1964L62.1513 43.6785L62.9854 44.1527L63.8257 44.6187L64.6718 45.0763L65.5233 45.5252L66.3799 45.9653L67.2412 46.3963L68.1068 46.8181L68.9763 47.2305L69.8493 47.6333L70.7255 48.0263L71.6044 48.4094L72.4856 48.7825L73.3687 49.1453L74.2534 49.4978L75.1392 49.8399L76.0256 50.1714L76.9124 50.4922L77.799 50.8023L78.6851 51.1016L79.5702 51.3899L80.4539 51.6672L81.3358 51.9336L82.2155 52.1888L83.0926 52.4329L83.9666 52.6659L84.8372 52.8877L85.7039 53.0983L86.5662 53.2978L87.4239 53.4861L88.2764 53.6633L89.1234 53.8293L89.9644 53.9843L90.7991 54.1283L91.627 54.2613L92.4478 54.3834L93.261 54.4946L94.0662 54.5952L94.8632 54.685L95.6513 54.7644L96.4304 54.8333L97.2 54.8919L97.9597 54.9403L98.7092 54.9786L99.448 55.0071L100.176 55.0258L100.893 55.0349L101.598 55.0346L102.29 55.025L102.971 55.0064L103.639 54.9789L104.294 54.9428L104.936 54.8982L105.564 54.8454L106.178 54.7845L106.778 54.7159L107.363 54.6396L107.934 54.5561L108.489 54.4655L109.03 54.3681L109.554 54.2641L110.063 54.1539L110.556 54.0376L111.033 53.9155L111.493 53.788L111.936 53.6554L112.363 53.5178L112.772 53.3756L113.164 53.2292L113.539 53.0787L113.896 52.9245L114.235 52.767L114.556 52.6064L114.86 52.4431L115.145 52.2773L115.411 52.1094L115.66 51.9397L115.89 51.7685L116.101 51.5962L116.293 51.4231L116.467 51.2495L116.622 51.0758L116.758 50.9023L116.876 50.7292L116.974 50.557L117.054 50.386L117.114 50.2165L117.156 50.0489L117.179 49.8834L117.183 49.7204L117.168 49.5603L117.135 49.4033L117.083 49.2498L117.012 49.1002L116.922 48.9546L116.814 48.8135L116.688 48.6772L116.544 48.5459L116.381 48.4201L116.2 48.2999L116.002 48.1857L115.786 48.0779L115.552 47.9766L115.301 47.8822L115.032 47.795L114.747 47.7153L114.445 47.6432L114.126 47.5792L113.791 47.5234L113.439 47.4762L113.072 47.4377L112.689 47.4083L112.29 47.3882L111.877 47.3775L111.448 47.3766L111.005 47.3856L110.547 47.4049L110.075 47.4345L109.589 47.4746L109.09 47.5256L108.577 47.5875L108.052 47.6606L107.514 47.745L106.964 47.8408L106.401 47.9483L105.828 48.0676L105.243 48.1987L104.647 48.3419L104.04 48.4973L103.423 48.6649L102.797 48.8449L102.161 49.0374L101.516 49.2424L100.862 49.46L100.2 49.6903L99.5293 49.9334L98.8515 50.1893L98.1665 50.458L97.4747 50.7395L96.7765 51.0339L96.0723 51.3413L95.3624 51.6615L94.6473 51.9946L93.9273 52.3405L93.2029 52.6992L92.4744 53.0708L91.7423 53.4551L91.007 53.8521L90.2688 54.2617L89.5282 54.6838L88.7855 55.1184L88.0412 55.5653L87.2956 56.0245L86.5492 56.4958L85.8023 56.9791L85.0554 57.4742L84.3088 57.9811L83.5629 58.4996L82.8181 59.0295L82.0748 59.5707L81.3334 60.1229L80.5942 60.6859L79.8576 61.2597L79.124 61.8439L78.3938 62.4383L77.6672 63.0429L76.9447 63.6572L76.2267 64.281L75.5134 64.9142L74.8052 65.5564L74.1025 66.2075L73.4055 66.867L72.7147 67.5349L72.0302 68.2106L71.3525 68.8941L70.6819 69.5849L70.0185 70.2828L69.3628 70.9874L68.7151 71.6985L68.0755 72.4157L67.4444 73.1387L66.822 73.8671L66.2087 74.6007L65.6045 75.339L65.0099 76.0817L64.425 76.8284L63.85 77.5789L63.2852 78.3327L62.7307 79.0894L62.1869 79.8487L61.6538 80.6103L61.1316 81.3736L60.6205 82.1384L60.1208 82.9043L59.6324 83.6708L59.1557 84.4376L58.6907 85.2043L58.2375 85.9704L57.7963 86.7357L57.3672 87.4996L56.9503 88.2618L56.5456 89.0219L56.1533 89.7795L55.7734 90.5342L55.406 91.2856L55.0511 92.0332L54.7088 92.7767L54.3792 93.5157L54.0621 94.2498L53.7577 94.9785L53.466 95.7015L53.1869 96.4184L52.9204 97.1288L52.6666 97.8323L52.4253 98.5284L52.1966 99.2169L51.9803 99.8974L51.7765 100.569L51.585 101.232L51.4057 101.886L51.2387 102.531L51.0837 103.165L50.9407 103.789L50.8095 104.403L50.69 105.005L50.5822 105.596L50.4858 106.176L50.4007 106.743L50.3268 107.298L50.2638 107.841L50.2116 108.37L50.17 108.886L50.1389 109.388L50.118 109.877L50.1071 110.351L50.106 110.811L50.1146 111.256L50.1325 111.686L50.1595 112.1L50.1954 112.499L50.2399 112.883L50.2929 113.25L50.354 113.601L50.423 113.935L50.4995 114.253L50.5834 114.554L50.6744 114.838L50.7721 115.104L50.8763 115.353L50.9867 115.585L51.103 115.798L51.2249 115.994L51.352 116.171L51.4841 116.331L51.6209 116.472L51.7621 116.595L51.9072 116.699L52.0561 116.784L52.2084 116.851L52.3637 116.899L52.5217 116.929L52.6822 116.939L52.8447 116.931L53.009 116.903L53.1747 116.857L53.3415 116.792L53.5091 116.708L53.6771 116.604L53.8451 116.482L54.0129 116.342L54.1802 116.182L54.3465 116.004L54.5116 115.806L54.6752 115.591L54.8369 115.357L54.9963 115.104L55.1533 114.833L55.3073 114.544L55.4583 114.237L55.6057 113.911L55.7493 113.568L55.8889 113.208L56.0241 112.83L56.1545 112.434L56.28 112.022L56.4002 111.593L56.5148 111.147L56.6236 110.684L56.7262 110.205L56.8224 109.71L56.912 109.2L56.9946 108.674L57.0701 108.132L57.1381 107.576L57.1984 107.004L57.2509 106.419L57.2951 105.819L57.3311 105.205L57.3584 104.577L57.3769 103.937L57.3865 103.283L57.3868 102.617L57.3778 101.938L57.3592 101.248L57.3309 100.545L57.2927 99.8319L57.2445 99.1075L57.186 98.3725L57.1172 97.6273L57.038 96.8722L56.9481 96.1077L56.8476 95.3341L56.7362 94.5518L56.614 93.7612L56.4807 92.9627L56.3364 92.1566L56.181 91.3434L56.0143 90.5234L55.8364 89.6971L55.6473 88.8649L55.4468 88.0272L55.2349 87.1843L55.0117 86.3367L54.7772 85.4849L54.5313 84.6292L54.274 83.77L54.0054 82.9078L53.7256 82.0429L53.4345 81.1759L53.1323 80.307L52.8189 79.4367L52.4945 78.5655L52.1591 77.6938L51.8128 76.8219L51.4557 75.9502L51.088 75.0793L50.7098 74.2094L50.3211 73.3411L49.9221 72.4746L49.513 71.6104L49.0939 70.749L48.665 69.8906L48.2265 69.0357L47.7784 68.1847L47.3211 67.338L46.8547 66.4958L46.3795 65.6587L45.8956 64.827L45.4032 64.001L44.9026 63.1812L44.3941 62.3678L43.8778 61.5612L43.3541 60.7617L42.8231 59.9698L42.2852 59.1857L41.7407 58.4098L41.1897 57.6423L40.6326 56.8836L40.0697 56.1341L39.5013 55.3939L38.9277 54.6634L38.3492 53.9429L37.7662 53.2326L37.1788 52.5329L36.5876 51.8439L35.9927 51.166L35.3946 50.4993L34.7936 49.8442L34.19 49.2008L33.5842 48.5693L32.9765 47.9501L32.3673 47.3432L31.757 46.7489L31.1459 46.1673L30.5344 45.5987L29.9228 45.0432L29.3116 44.5009L28.7011 43.9721L28.0917 43.4567L27.4837 42.9551L26.8776 42.4672L26.2737 41.9932L25.6724 41.5332L25.0741 41.0873L24.4791 40.6556L23.888 40.2381L23.3009 39.8349L22.7184 39.446L22.1408 39.0715L21.5685 38.7115L21.0018 38.3658L20.4412 38.0346L19.887 37.7179L19.3395 37.4156L18.7993 37.1278L18.2666 36.8543L17.7418 36.5952L17.2253 36.3504L16.7174 36.1198L16.2185 35.9034L15.729 35.7012L15.2492 35.513L14.7794 35.3387L14.32 35.1782L13.8713 35.0314L13.4337 34.8983L13.0075 34.7786L12.593 34.6722L12.1905 34.579L11.8004 34.4989L11.4229 34.4316L11.0584 34.377L10.7071 34.3349L10.3693 34.3051L10.0454 34.2874L9.7355 34.2816L9.43998 34.2876L9.15906 34.305L8.89301 34.3337L8.64205 34.3734L8.40643 34.4239L8.18637 34.485L7.9821 34.5563L7.79382 34.6377L7.62174 34.7288L7.46604 34.8295L7.32693 34.9393L7.20456 35.0581L7.09911 35.1856L7.01074 35.3214L6.9396 35.4653L6.88582 35.6169L6.84953 35.776L6.83086 35.9423L6.82991 36.1154L6.84679 36.295L6.88158 36.4808L6.93437 36.6725L7.00523 36.8698L7.09421 37.0723L7.20137 37.2797L7.32676 37.4917L7.47039 37.7079L7.63229 37.928L7.81247 38.1517L8.01093 38.3786L8.22765 38.6083L8.46263 38.8407L8.71581 39.0752L8.98717 39.3116L9.27665 39.5495L9.58419 39.7886L9.90972 40.0286L10.2531 40.2691L10.6144 40.5097L10.9933 40.7502L11.3899 40.9902L11.8039 41.2294L12.2352 41.4674L12.6838 41.7039L13.1493 41.9386L13.6318 42.1712L14.131 42.4014L14.6466 42.6288L15.1787 42.8531L15.7268 43.0741L16.2909 43.2914L16.8707 43.5047L17.4659 43.7137L18.0764 43.9182L18.7019 44.1178L19.3421 44.3122L19.9968 44.5013L20.6658 44.6847L21.3486 44.8622L22.0451 45.0334L22.7549 45.1983L23.4778 45.3564L24.2134 45.5076L24.9615 45.6517L25.7216 45.7883L26.4935 45.9174L27.2768 46.0386L28.0713 46.1518L28.8764 46.2569L29.692 46.3535L30.5176 46.4415L31.3528 46.5208L32.1974 46.5911L33.0508 46.6524L33.9128 46.7045L34.7829 46.7471L35.6607 46.7803L36.5459 46.8039L37.4381 46.8178L38.3369 46.8218L39.2417 46.8158L40.1524 46.7999L41.0683 46.7739L41.9892 46.7376L42.9146 46.6912L43.8441 46.6345L44.7772 46.5674L45.7136 46.49L46.6528 46.4022L47.5943 46.3041L48.5379 46.1955L49.483 46.0765L50.4292 45.9472L51.376 45.8075L52.3232 45.6575L53.2702 45.4972L54.2166 45.3267L55.162 45.146L56.1059 44.9552L57.048 44.7544L57.9878 44.5437L58.925 44.3231L59.859 44.0928L60.7895 43.8529L61.7161 43.6035L62.6383 43.3448L63.5558 43.0768L64.4682 42.7998L65.375 42.5139L66.276 42.2193L67.1706 41.9161L68.0585 41.6045L68.9393 41.2848L69.8127 40.9571L70.6783 40.6216L71.5357 40.2785L72.3845 39.9281L73.2245 39.5706L74.0552 39.2063L74.8764 38.8353L75.6877 38.458L76.4887 38.0745L77.2792 37.6852L78.0589 37.2904L78.8274 36.8902L79.5844 36.485L80.3297 36.0752L81.0629 35.6608L81.7839 35.2424L82.4923 34.8202L83.1878 34.3944L83.8703 33.9655L84.5394 33.5336L85.195 33.0993L85.8368 32.6627L86.4647 32.2242L87.0783 31.7842L87.6776 31.343L88.2623 30.901L88.8322 30.4584L89.3872 30.0156L89.9272 29.573L90.4519 29.131L90.9612 28.6898L91.455 28.2499L91.9332 27.8117L92.3957 27.3753L92.8424 26.9413L93.2731 26.5101L93.6879 26.0818L94.0866 25.657L94.4691 25.2359L94.8355 24.8191L95.1856 24.4067L95.5196 23.9991L95.8372 23.5968L96.1386 23.2001L96.4237 22.8093L96.6925 22.4249L96.9451 22.0471L97.1814 21.6762L97.4016 21.3128L97.6057 20.957L97.7937 20.6093L97.9657 20.2699L98.1218 19.9393L98.262 19.6177L98.3866 19.3055L98.4955 19.003L98.5889 18.7106L98.6669 18.4284L98.7297 18.1569L98.7773 17.8964L98.8101 17.6471L98.828 17.4094L98.8314 17.1835L98.8203 16.9697L98.7949 16.7683L98.7555 16.5796L98.7022 16.4037L98.6354 16.2411L98.555 16.0919L98.4615 15.9564L98.3551 15.8348L98.2359 15.7273L98.1042 15.6342L97.9604 15.5556L97.8045 15.4918L97.637 15.443L97.4581 15.4093L97.268 15.391L97.0672 15.3882L96.8557 15.401L96.634 15.4296L96.4023 15.4742L96.161 15.5349L95.9103 15.6118L95.6506 15.705L95.3822 15.8147L95.1055 15.9409L94.8207 16.0838L94.5281 16.2433L94.2282 16.4196L93.9212 16.6127L93.6076 16.8227L93.2876 17.0496L92.9615 17.2934L92.6298 17.5542L92.2928 17.832L91.9508 18.1267L91.6042 18.4384L91.2533 18.767L90.8985 19.1125L90.5402 19.4748L90.1786 19.854L89.8143 20.2499L89.4474 20.6624L89.0784 21.0915L88.7076 21.5371L88.3354 21.9991L87.9622 22.4773L87.5881 22.9717L87.2138 23.4821L86.8394 24.0084L86.4653 24.5504L86.0918 25.1079L85.7194 25.6809L85.3483 26.269L84.9788 26.8721L84.6113 27.49L84.2462 28.1226L83.8837 28.7695L83.5242 29.4306L83.1679 30.1056L82.8152 30.7943L82.4664 31.4964L82.1218 32.2116L81.7817 32.9398L81.4463 33.6805L81.116 34.4336L80.791 35.1988L80.4716 35.9756L80.1581 36.7639L79.8507 37.5633L79.5496 38.3735L79.2552 39.1941L78.9677 40.0249L78.6872 40.8655L78.4141 41.7155L78.1485 42.5745L77.8906 43.4423L77.6407 44.3185L77.3989 45.2026L77.1655 46.0943L76.9406 46.9933L76.7243 47.8991L76.5168 48.8113L76.3184 49.7296L76.1291 50.6536L75.949 51.5828L75.7784 52.5169L75.6172 53.4554L75.4657 54.3979L75.324 55.344L75.192 56.2934L75.0699 57.2455L74.9578 58.1999L74.8558 59.1563L74.7638 60.1143L74.6819 61.0732L74.6103 62.0329L74.5488 62.9928L74.4976 63.9524L74.4566 64.9115L74.4258 65.8695L74.4052 66.826L74.3949 67.7806L74.3947 68.7329L74.4046 69.6824L74.4246 70.6287L74.4547 71.5715L74.4947 72.5102L74.5445 73.4445L74.6042 74.3739L74.6736 75.2981L74.7526 76.2165L74.8411 77.1289L74.939 78.0349L75.0461 78.9339L75.1623 79.8257L75.2875 80.7098L75.4215 81.5858L75.5642 82.4534L75.7153 83.3122L75.8747 84.1619L76.0423 85.0019L76.2177 85.8321L76.4009 86.652L76.5916 87.4613L76.7896 88.2596L76.9947 89.0467L77.2066 89.8221L77.4251 90.5856L77.6499 91.3368L77.8809 92.0755L78.1177 92.8013L78.3601 93.5139L78.6078 94.2131L78.8606 94.8986L79.1181 95.5701L79.3801 96.2273L79.6463 96.87L79.9164 97.498L80.19 98.111L80.467 98.7088L80.7469 99.2911L81.0295 99.8578L81.3145 100.409L81.6014 100.944L81.8901 101.462L82.1801 101.964L82.4712 102.45L82.763 102.919L83.0552 103.371L83.3474 103.806L83.6393 104.225L83.9305 104.625L84.2208 105.009L84.5098 105.375L84.797 105.724L85.0823 106.055L85.3652 106.369L85.6454 106.665L85.9225 106.943L86.1962 107.203L86.4662 107.446L86.7321 107.671L86.9936 107.878L87.2503 108.067L87.5019 108.239L87.748 108.393L87.9883 108.529L88.2226 108.647L88.4503 108.748L88.6713 108.832L88.8852 108.898L89.0917 108.947L89.2904 108.979L89.481 108.993L89.6633 108.99L89.8369 108.971L90.0015 108.935L90.1568 108.882L90.3026 108.813L90.4385 108.728L90.5643 108.626L90.6797 108.509L90.7844 108.376L90.8781 108.227L90.9606 108.064L91.0317 107.885L91.0911 107.691L91.1385 107.482L91.1738 107.259L91.1966 107.022L91.2069 106.772L91.2043 106.507L91.1887 106.229L91.1599 105.938L91.1177 105.635L91.0619 105.319L90.9923 104.99L90.9089 104.65L90.8113 104.298L90.6996 103.935L90.5735 103.561L90.4329 103.176L90.2778 102.781L90.108 102.375L89.9233 101.961L89.7238 101.537L89.5093 101.104L89.2798 100.662L89.0352 100.212L88.7754 99.7541L88.5005 99.2887L88.2103 98.8161L87.9049 98.3367L87.5842 97.8509L87.2483 97.3589L86.8971 96.8612L86.5307 96.3582L86.149 95.8502L85.7522 95.3376L85.3403 94.8207L84.9133 94.3L84.4714 93.7758L84.0145 93.2485L83.5427 92.7185L83.0563 92.1861L82.5552 91.6517L82.0395 91.1157L81.5095 90.5784L80.9653 90.0403L80.4069 89.5016L79.8346 88.9628L79.2485 88.4242L78.6487 87.8862L78.0356 87.3491L77.4092 86.8132L76.7697 86.279L76.1174 85.7468L75.4526 85.2169L74.7753 84.6897L74.0859 84.1654L73.3845 83.6445L72.6716 83.1272L71.9472 82.6139L71.2117 82.1049L70.4654 81.6005L69.7085 81.1009L68.9413 80.6066L68.1642 80.1178L67.3775 79.6347L66.5813 79.1577L65.7762 78.687L64.9623 78.223L64.1401 77.7658L63.3099 77.3157L62.472 76.873L61.6267 76.4378L60.7745 76.0106L59.9157 75.5913L59.0507 75.1803L58.1797 74.7779L57.3033 74.3841L56.4218 73.9991L55.5356 73.6232L54.6451 73.2566L53.7506 72.8994L52.8526 72.5517L51.9514 72.2137L51.0475 71.8855L50.1414 71.5674L49.2332 71.2593L48.3236 70.9615L47.413 70.6739L46.5016 70.3968L45.59 70.1302L44.6786 69.8742L43.7677 69.6288L42.8579 69.3941L41.9495 69.1701L41.0429 68.957L40.1386 68.7547L39.237 68.5632L38.3386 68.3825L37.4436 68.2128L36.5526 68.0538L35.666 67.9057L34.7842 67.7684L33.9076 67.6419L33.0366 67.5261L32.1716 67.421L31.313 67.3264L30.4613 67.2425L29.6168 67.1689L28.78 67.1057L27.9512 67.0528L27.1308 67.0101L26.3192 66.9773L25.5168 66.9545L24.7239 66.9415L23.941 66.9381L23.1684 66.9442L22.4065 66.9596L21.6556 66.9842L20.916 67.0177L20.1882 67.0601L19.4724 67.111L18.769 67.1704L18.0784 67.238L17.4007 67.3136L16.7365 67.397L16.0858 67.4879L15.4492 67.5861L14.8267 67.6914L14.2188 67.8036L13.6257 67.9223L13.0476 68.0474L12.4849 68.1785L11.9377 68.3154L11.4064 68.4578L10.8911 68.6055L10.3921 68.7581L9.90952 68.9153L9.44366 69.077L8.99469 69.2427L8.5628 69.4122L8.14816 69.5852L7.75094 69.7613L7.3713 69.9402L7.00938 70.1217L6.66533 70.3054L6.33928 70.4909L6.03135 70.6781L5.74164 70.8665L5.47025 71.0557L5.21727 71.2456L4.98279 71.4357L4.76686 71.6258L4.56956 71.8154L4.39091 72.0042L4.23097 72.192L4.08976 72.3784L3.9673 72.563L3.86358 72.7455L3.77862 72.9256L3.71238 73.103L3.66486 73.2773L3.63601 73.4482L3.62579 73.6153L3.63414 73.7783L3.66099 73.937L3.70628 74.091L3.76991 74.2399L3.85179 74.3835L3.95181 74.5214L4.06985 74.6533L4.2058 74.779L4.35951 74.898L4.53085 75.0102L4.71964 75.1152L4.92574 75.2128L5.14897 75.3025L5.38914 75.3843L5.64606 75.4577L5.91954 75.5226L6.20937 75.5786L6.51532 75.6255L6.83717 75.663L7.17469 75.6909L7.52764 75.709L7.89576 75.717L8.27879 75.7147L8.67647 75.7019L9.08853 75.6783L9.51468 75.6437L9.95464 75.598L10.4081 75.541L10.8748 75.4724L11.3544 75.3922L11.8466 75.3L12.351 75.1959L12.8674 75.0795L13.3954 74.9508L13.9347 74.8097L14.4849 74.656L15.0456 74.4895L15.6167 74.3103L16.1976 74.1181L16.788 73.913L17.3875 73.6947L17.9959 73.4633L18.6127 73.2187L19.2374 72.9608L19.8699 72.6896L20.5096 72.4051L21.1562 72.1072L21.8094 71.7959L22.4686 71.4711L23.1336 71.133L23.8039 70.7816L24.4792 70.4167L25.159 70.0386L25.8429 69.6472L26.5307 69.2425L27.2218 68.8247L27.9158 68.3938L28.6125 67.9499L29.3113 67.493L30.012 67.0234L30.714 66.541L31.4171 66.0461L32.1207 65.5387L32.8246 65.0189L33.5284 64.4871L34.2316 63.9431L34.9339 63.3874L35.6349 62.82L36.3342 62.2411L37.0315 61.6509L37.7264 61.0496L38.4186 60.4374L39.1076 59.8145L39.7931 59.1813L40.4748 58.5378L41.1523 57.8844L41.8253 57.2212L42.4934 56.5487L43.1563 55.8669L43.8138 55.1763L44.4654 54.477L45.1108 53.7694L45.7498 53.0538L46.382 52.3304L47.0072 51.5997L47.625 50.8618L48.2353 50.1172L48.8376 49.3661L49.4318 48.6089L50.0175 47.8459L50.5946 47.0775L51.1628 46.3041L51.7218 45.5259L52.2715 44.7433L52.8115 43.9568L53.3418 43.1667L53.862 42.3733L54.372 41.577L54.8716 40.7783L55.3607 39.9774L55.839 39.1749L56.3065 38.371L56.7628 37.5662L57.208 36.7609L57.6419 35.9555L58.0643 35.1503L58.4751 34.3458L58.8743 33.5424L59.2618 32.7404L59.6374 31.9404L60.001 31.1426L60.3527 30.3476L60.6924 29.5557L61.0199 28.7673L61.3354 27.9828L61.6386 27.2027L61.9297 26.4272L62.2086 25.657L62.4754 24.8923L62.7299 24.1335L62.9723 23.3811L63.2026 22.6354L63.4208 21.8969L63.6269 21.1658L63.8211 20.4428L64.0034 19.728L64.1738 19.0219L64.3324 18.3248L64.4794 17.6373L64.6148 16.9595L64.7388 16.2919L64.8515 15.6348L64.953 14.9887L65.0433 14.3538L65.1228 13.7304L65.1915 13.1191L65.2497 12.52L65.2973 11.9334L65.3348 11.3599L65.3621 10.7995L65.3796 10.2527L65.3875 9.71975L65.3858 9.20094L65.3749 8.69657L65.355 8.20692L65.3263 7.73226L65.289 7.27285L65.2434 6.82896L65.1897 6.40083L65.1282 5.98871L65.0591 5.59282L64.9827 5.2134L64.8993 4.85066L64.8092 4.5048L64.7126 4.17603L64.6098 3.86453L64.5011 3.57049L64.3868 3.29406L64.2672 3.03542L64.1427 2.79472L64.0134 2.57209L63.8797 2.36766L63.742 2.18157L63.6005 2.01392L63.4556 1.86481L63.3076 1.73434L63.1567 1.62258L63.0034 1.52961L62.848 1.45549L62.6907 1.40027L62.532 1.36399L62.3721 1.34668L62.2114 1.34836L62.0501 1.36904L61.8888 1.40872L61.7276 1.46739L61.5668 1.54502L61.407 1.64159L61.2482 1.75704L61.091 1.89134L60.9356 2.04441L60.7823 2.21618L60.6315 2.40657L60.4835 2.61548L60.3386 2.84281L60.1971 3.08845L60.0593 3.35227L59.9256 3.63414L59.7963 3.93392L59.6716 4.25144L59.5519 4.58656L59.4374 4.93908L59.3285 5.30885L59.2255 5.69566L59.1285 6.09931L59.038 6.51959L58.9542 6.95629L58.8773 7.40917L58.8076 7.87801L58.7453 8.36256L58.6909 8.86256L58.6443 9.37776L58.606 9.90788L58.5761 10.4527L58.5549 11.0118L58.5425 11.585L58.5393 12.172L58.5453 12.7725L58.5609 13.3861L58.5861 14.0126L58.6212 14.6515L58.6664 15.3027L58.7218 15.9657L58.7876 16.6402L58.8639 17.3258L58.9508 18.0223L59.0486 18.7291L59.1573 19.4461L59.277 20.1727L59.4079 20.9087L59.5501 21.6536L59.7036 22.4071L59.8685 23.1687L60.045 23.9382L60.233 24.715L60.4326 25.4989L60.6439 26.2893L60.8669 27.086L61.1016 27.8884L61.348 28.6962L61.6062 29.5091L61.8762 30.3264L62.1579 31.148L62.4513 31.9733L62.7564 32.802L63.0731 33.6335L63.4015 34.4677L63.7413 35.3039L64.0927 36.1418L64.4554 36.981L64.8294 37.821L65.2147 38.6616L65.611 39.5022L66.0183 40.3424L66.4365 41.1819L66.8654 42.0203L67.3049 42.8571L67.7548 43.6919L68.215 44.5244L68.6853 45.3542L69.1655 46.1808L69.6554 47.004L70.1549 47.8232L70.6637 48.6382L71.1816 49.4486L71.7084 50.254L72.244 51.054L72.7879 51.8483L73.34 52.6365L73.9001 53.4183L74.4679 54.1933L75.043 54.9613L75.6254 55.7218L76.2145 56.4746L76.8103 57.2194L77.4123 57.9557L78.0203 58.6834L78.634 59.4022L79.2531 60.1116L79.8772 60.8116L80.506 61.5017L81.1392 62.1818L81.7765 62.8515L82.4175 63.5107L83.0618 64.159L83.7092 64.7963L84.3592 65.4223L85.0116 66.0368L85.666 66.6396L86.3219 67.2304L86.979 67.8092L87.637 68.3757L88.2955 68.9298L88.9541 69.4713L89.6124 69.9999L90.27 70.5157L90.9266 71.0185L91.5818 71.508L92.2351 71.9843L92.8863 72.4472L93.5349 72.8966L94.1805 73.3325L94.8227 73.7547L95.4612 74.1631L96.0955 74.5578L96.7253 74.9387L97.3502 75.3057L97.9698 75.6588L98.5837 75.998L99.1915 76.3233L99.7929 76.6347L100.387 76.9321L100.975 77.2157L101.554 77.4855L102.126 77.7414L102.69 77.9835L103.244 78.2119L103.79 78.4267L104.326 78.628L104.853 78.8157L105.369 78.9901L105.875 79.1512L106.37 79.2991L106.853 79.434L107.326 79.556L107.786 79.6652L108.234 79.7618L108.67 79.8459L109.093 79.9177L109.503 79.9774L109.9 80.0252L110.283 80.0612L110.652 80.0856L111.006 80.0987L111.347 80.1006L111.672 80.0916L111.983 80.072L112.278 80.0418L112.557 80.0014L112.821 79.9511L113.069 79.891L113.301 79.8214L113.516 79.7427L113.715 79.655L113.897 79.5586L114.062 79.4539L114.21 79.3411L114.341 79.2204L114.454 79.0922L114.55 78.9569L114.628 78.8146L114.688 78.6657L114.73 78.5105L114.754 78.3494L114.76 78.1826L114.748 78.0104L114.717 77.8333L114.668 77.6514L114.601 77.4652L114.515 77.2749L114.41 77.081L114.288 76.8837L114.146 76.6833L113.986 76.4803L113.808 76.2748L113.611 76.0674L113.395 75.8582L113.161 75.6478L112.909 75.4362L112.638 75.2241L112.349 75.0115L112.042 74.799L111.716 74.5867L111.373 74.3752L111.012 74.1646L110.633 73.9553L110.236 73.7476L109.822 73.5419L109.391 73.3385L108.942 73.1377L108.476 72.9397L107.994 72.745L107.495 72.5539L106.979 72.3665L106.447 72.1833L105.899 72.0045L105.336 71.8304L104.756 71.6613L104.162 71.4974L103.552 71.3392L102.928 71.1867L102.289 71.0403L101.635 70.9003L100.968 70.7668L100.287 70.6402L99.5927 70.5207L98.8852 70.4084L98.1649 70.3038L97.4322 70.2068L96.6873 70.1179L95.9307 70.0371L95.1626 69.9646L94.3833 69.9008L93.5934 69.8456L92.793 69.7994L91.9826 69.7623L91.1625 69.7344L90.3332 69.7159L89.4949 69.7069L88.6481 69.7076L87.7931 69.7181L86.9305 69.7384L86.0604 69.7688L85.1834 69.8093L84.2999 69.86L83.4102 69.921L82.5148 69.9924L81.6141 70.0741L80.7085 70.1663L79.7984 70.2691L78.8842 70.3824L77.9664 70.5062L77.0453 70.6406L76.1214 70.7857L75.1952 70.9413L74.267 71.1075L73.3372 71.2843L72.4064 71.4716L71.4748 71.6694L70.543 71.8776L69.6113 72.0962L68.6803 72.3251L67.7502 72.5643L66.8216 72.8135L65.8948 73.0729L64.9702 73.3422L64.0483 73.6213L63.1295 73.9102L62.2142 74.2086L61.3027 74.5165L60.3956 74.8336L59.4931 75.1599L58.5957 75.4951L57.7038 75.8392L56.8178 76.1918L55.938 76.5529L55.0648 76.9221L54.1986 77.2994L53.3397 77.6845L52.4886 78.0771L51.6455 78.4771L50.8108 78.8842L49.9849 79.2981L49.1681 79.7187L48.3608 80.1456L47.5631 80.5785L46.7756 81.0173L45.9984 81.4616L45.232 81.9111L44.4765 82.3656L43.7322 82.8248L42.9996 83.2883L42.2787 83.7558L41.5699 84.2271L40.8735 84.7018L40.1897 85.1796L39.5187 85.6601L38.8607 86.1431L38.2161 86.6282L37.5849 87.115L36.9674 87.6032L36.3639 88.0926L35.7744 88.5826L35.1992 89.073L34.6384 89.5634L34.0922 90.0535L33.5607 90.5429L33.0441 91.0311L32.5424 91.518L32.056 92.0031L31.5847 92.486L31.1288 92.9663L30.6882 93.4438L30.2632 93.918L29.8538 94.3886L29.4599 94.8552L29.0818 95.3174L28.7194 95.7748L28.3727 96.2272L28.0418 96.6741L27.7266 97.1151L27.4273 97.55L27.1437 97.9783L26.8758 98.3997L26.6237 98.8138L26.3872 99.2203L26.1664 99.6188L25.9611 100.009L25.7714 100.39L25.597 100.763L25.438 101.126L25.2942 101.48L25.1656 101.823L25.0519 102.156L24.9532 102.479L24.8692 102.79L24.7998 103.09L24.7448 103.379L24.7042 103.656L24.6777 103.92L24.6652 104.173L24.6664 104.412L24.6812 104.638L24.7093 104.852L24.7506 105.051L24.8049 105.237L24.8719 105.409L24.9514 105.566L25.0431 105.709L25.1468 105.838L25.2623 105.951L25.3893 106.049L25.5275 106.132L25.6767 106.199L25.8365 106.251L26.0068 106.287L26.1871 106.306L26.3773 106.31L26.577 106.297L26.7858 106.268L27.0036 106.222L27.23 106.159L27.4647 106.079L27.7073 105.983L27.9576 105.869L28.2151 105.738L28.4796 105.591L28.7508 105.426L29.0282 105.243L29.3116 105.043L29.6007 104.826L29.895 104.592L30.1942 104.34L30.498 104.071L30.8061 103.784L31.1181 103.48L31.4335 103.159L31.7522 102.821L32.0737 102.465L32.3977 102.092L32.7239 101.702L33.0518 101.295L33.3811 100.871L33.7116 100.43L34.0428 99.9724L34.3744 99.4983L34.706 99.0077L35.0374 98.5008L35.3682 97.9778L35.698 97.4388L36.0265 96.8839L36.3534 96.3134L36.6783 95.7275L37.001 95.1263L37.3211 94.51L37.6382 93.8789L37.9522 93.2332L38.2626 92.5731L38.5692 91.8989L38.8717 91.2108L39.1697 90.5091L39.4631 89.7941L39.7514 89.066L40.0345 88.3251L40.3121 87.5717L40.5838 86.8062L40.8495 86.0287L41.1089 85.2397L41.3618 84.4395L41.6078 83.6283L41.8468 82.8066L42.0786 81.9746L42.3028 81.1327L42.5194 80.2813L42.7282 79.4207L42.9288 78.5513L43.1212 77.6735L43.3052 76.7876L43.4805 75.894L43.6471 74.9932L43.8047 74.0854L43.9532 73.1711L44.0926 72.2507L44.2226 71.3246L44.3431 70.3932L44.4541 69.4569L44.5554 68.5161L44.6469 67.5713L44.7286 66.6228L44.8004 65.6711L44.8621 64.7165L44.9138 63.7596L44.9555 62.8007L44.9869 61.8403L45.0083 60.8787L45.0194 59.9165L45.0203 58.9541L45.0111 57.9918L44.9917 57.0301L44.9621 56.0694L44.9223 55.1102L44.8725 54.1529L44.8126 53.1979L44.7427 52.2456L44.6628 51.2965L44.5731 50.3509L44.4736 49.4093L44.3644 48.4722L44.2456 47.5398L44.1174 46.6127L43.9798 45.6912L43.8329 44.7758L43.6769 43.8668L43.512 42.9646L43.3383 42.0697L43.1559 41.1823L42.9651 40.303L42.766 39.432L42.5587 38.5697L42.3436 37.7166L42.1207 36.8729L41.8903 36.0391L41.6526 35.2154L41.4079 34.4023L41.1563 33.6L40.8981 32.8088L40.6335 32.0292L40.3629 31.2614L40.0864 30.5058L39.8043 29.7626L39.5169 29.0321L39.2245 28.3146L38.9273 27.6104L38.6256 26.9198L38.3197 26.243L38.01 25.5803L37.6967 24.9319L37.3801 24.2981L37.0605 23.6791L36.7383 23.075L36.4137 22.4862L36.0872 21.9128L35.759 21.3551L35.4294 20.8131L35.0988 20.2871L34.7675 19.7772L34.4359 19.2836L34.1042 18.8065L33.7729 18.3459L33.4423 17.902L33.1127 17.4748L32.7845 17.0646L32.458 16.6714L32.1336 16.2953L31.8116 15.9363L31.4924 15.5946L31.1763 15.2701L30.8636 14.9629L30.5548 14.6731L30.2502 14.4007L29.9501 14.1456L29.6548 13.908L29.3648 13.6877L29.0803 13.4848L28.8017 13.2992L28.5294 13.1309L28.2636 12.9799L28.0047 12.846L27.7531 12.7293L27.5091 12.6296L27.2729 12.5469L27.045 12.4811L26.8255 12.432L26.615 12.3995L26.4136 12.3836L26.2216 12.384L26.0394 12.4007L25.8673 12.4335L25.7055 12.4821L25.5543 12.5465L25.4141 12.6265L25.285 12.7219L25.1674 12.8325L25.0614 12.958L24.9675 13.0983L24.8857 13.2531L24.8164 13.4223L24.7597 13.6055L24.716 13.8026L24.6854 14.0132L24.6681 14.2372L24.6644 14.4743L24.6743 14.7241L24.6982 14.9864L24.7362 15.2609L24.7885 15.5474L24.8552 15.8456L24.9365 16.155L25.0325 16.4755L25.1434 16.8067L25.2692 17.1482L25.4102 17.4999L25.5664 17.8613L25.7379 18.2321L25.9248 18.6119L26.1272 19.0005L26.3451 19.3975L26.5787 19.8025L26.8279 20.2153L27.0929 20.6353L27.3735 21.0624L27.67 21.496L27.9822 21.936L28.3102 22.3818L28.6539 22.8332L29.0135 23.2897L29.3887 23.7511L29.7796 24.2169L30.1862 24.6867L30.6083 25.1603L31.046 25.6372L31.499 26.1171L31.9675 26.5995L32.4512 27.0842L32.95 27.5708L33.4638 28.0588L33.9925 28.548L34.536 29.038L35.0942 29.5284L35.6667 30.0188L36.2536 30.5089L36.8545 30.9984L37.4694 31.4869L38.0981 31.974L38.7403 32.4594L39.3958 32.9428L40.0644 33.4238L40.7458 33.9021L41.4399 34.3774L42.1465 34.8494L42.8651 35.3176L43.5956 35.7819L44.3377 36.2419L45.0911 36.6972L45.8556 37.1477L46.6308 37.593L47.4164 38.0328L48.2122 38.4669L49.0178 38.8949L49.8329 39.3167L50.6571 39.7318L51.4902 40.1402L52.3317 40.5415L53.1814 40.9356L54.0388 41.322L54.9037 41.7008L55.7756 42.0716L56.6543 42.4342L57.5392 42.7884L58.43 43.134L59.3264 43.4709L60.228 43.7989L61.1343 44.1177L62.045 44.4273L62.9596 44.7275L63.8778 45.0181L64.7992 45.2991L65.7233 45.5702L66.6497 45.8314L67.578 46.0826L68.5078 46.3236L69.4388 46.5544L70.3703 46.7749L71.3021 46.9851L72.2338 47.1848L73.1648 47.3741L74.0948 47.5528L75.0233 47.7209L75.9499 47.8785L76.8743 48.0255L77.7959 48.1619L78.7144 48.2877L79.6293 48.403L80.5402 48.5077L81.4467 48.6018L82.3483 48.6855L83.2447 48.7588L84.1355 48.8217L85.0202 48.8743L85.8984 48.9167L86.7698 48.9489L87.6339 48.9712L88.4903 48.9835L89.3386 48.986L90.1785 48.9788L91.0095 48.962L91.8313 48.9358L92.6436 48.9004L93.4458 48.8559L94.2378 48.8024L95.019 48.7401L95.7892 48.6692L96.548 48.59L97.2951 48.5025L98.0301 48.407L98.7527 48.3038L99.4625 48.1929L100.159 48.0747L100.843 47.9494L101.513 47.8172L102.169 47.6784L102.81 47.5331L103.438 47.3818L104.05 47.2246L104.647 47.0617L105.23 46.8936L105.796 46.7204L106.347 46.5424L106.882 46.36L107.4 46.1734L107.903 45.9829L108.388 45.7888L108.857 45.5915L109.309 45.3912L109.744 45.1882L110.161 44.9829L110.561 44.7756L110.943 44.5666L111.307 44.3562L111.654 44.1448L111.983 43.9326L112.293 43.7201L112.586 43.5076L112.86 43.2953L113.116 43.0836L113.353 42.8729L113.572 42.6635L113.772 42.4557L113.954 42.2499L114.118 42.0464L114.263 41.8455L114.389 41.6476L114.497 41.453L114.586 41.262L114.657 41.075L114.709 40.8923L114.743 40.7143L114.759 40.5412L114.757 40.3733L114.736 40.2111L114.697 40.0548L114.64 39.9047L114.566 39.7612L114.473 39.6245L114.363 39.495L114.236 39.373L114.091 39.2587L113.929 39.1524L113.75 39.0545L113.555 38.9651L113.342 38.8847L113.113 38.8134L112.869 38.7516L112.608 38.6994L112.331 38.6571L112.038 38.6251L111.731 38.6034L111.408 38.5925L111.071 38.5924L110.719 38.6034L110.352 38.6257L109.972 38.6595L109.578 38.7051L109.17 38.7626L108.75 38.8321L108.316 38.9139L107.87 39.0082L107.412 39.1151L106.942 39.2347L106.46 39.3672L105.967 39.5127L105.463 39.6713L104.949 39.8432L104.424 40.0285L103.89 40.2272L103.346 40.4395L102.793 40.6654L102.231 40.905L101.661 41.1583L101.083 41.4255L100.497 41.7065L99.9036 42.0014L99.3035 42.3102L98.6968 42.6329L98.084 42.9695L97.4655 43.3201L96.8415 43.6845L96.2126 44.0628L95.5791 44.4549L94.9413 44.8609L94.2997 45.2805L93.6547 45.7138L93.0067 46.1607L92.356 46.6211L91.703 47.0949L91.0481 47.5821L90.3918 48.0824L89.7343 48.5957L89.0761 49.1221L88.4175 49.6612L87.759 50.2129L87.1009 50.7771L86.4436 51.3536L85.7874 51.9423L85.1327 52.5429L84.48 53.1552L83.8295 53.7791L83.1816 54.4143L82.5366 55.0606L81.895 55.7178L81.257 56.3856L80.623 57.0637L79.9933 57.752L79.3684 58.4502L78.7483 59.1579L78.1336 59.8749L77.5245 60.601L76.9214 61.3358L76.3244 62.079L75.734 62.8303L75.1504 63.5895L74.5739 64.3561L74.0047 65.1298L73.4432 65.9104L72.8896 66.6975L72.3441 67.4906L71.807 68.2896L71.2786 69.094L70.759 69.9035L70.2485 70.7177L69.7472 71.5362L69.2555 72.3586L68.7735 73.1846L68.3014 74.0138L67.8393 74.8459L67.3875 75.6803L66.946 76.5168L66.5152 77.3549L66.095 78.1942L65.6856 79.0343L65.2873 79.8749L64.9 80.7155L64.5239 81.5557L64.159 82.395L63.8056 83.2332L63.4636 84.0698L63.1331 84.9043L62.8142 85.7364L62.5069 86.5656L62.2114 87.3916L61.9275 88.2139L61.6554 89.0321L61.395 89.8457L61.1463 90.6545L60.9095 91.458L60.6843 92.2558L60.4708 93.0474L60.2691 93.8325L60.0789 94.6106L59.9003 95.3815L59.7333 96.1446L59.5777 96.8996L59.4334 97.6462L59.3004 98.3838L59.1786 99.1122L59.0679 99.831L58.9681 100.54L58.8792 101.238L58.8009 101.926L58.7332 102.602L58.6759 103.268L58.6288 103.921L58.5919 104.562L58.5648 105.191L58.5475 105.807L58.5397 106.41L58.5412 106.999L58.5519 107.575L58.5715 108.137L58.5998 108.685L58.6366 109.217L58.6816 109.735L58.7347 110.238L58.7955 110.726L58.8638 111.197L58.9394 111.653L59.022 112.093L59.1113 112.516L59.207 112.923L59.309 113.313L59.4168 113.686L59.5303 114.042L59.649 114.38L59.7728 114.701L59.9013 115.004L60.0343 115.289L60.1713 115.556L60.3121 115.805L60.4564 116.036L60.6039 116.248L60.7542 116.442L60.907 116.617L61.0621 116.774L61.219 116.912L61.3775 117.031L61.5371 117.131L61.6977 117.212L61.8589 117.274L62.0202 117.317L62.1815 117.341L62.3424 117.347L62.5024 117.333L62.6614 117.3L62.819 117.248L62.9748 117.178L63.1285 117.088L63.2798 116.98L63.4284 116.853L63.5739 116.707L63.716 116.543L63.8545 116.36L63.9889 116.159L64.119 115.94L64.2445 115.703L64.365 115.447L64.4803 115.174L64.5901 114.884L64.694 114.575L64.7918 114.25L64.8831 113.907L64.9678 113.547L65.0455 113.171L65.1159 112.778L65.1789 112.369L65.234 111.944L65.2811 111.503L65.32 111.046L65.3503 110.574L65.3719 110.088L65.3845 109.586L65.3878 109.07L65.3818 108.539L65.3661 107.995L65.3406 107.437L65.3051 106.866L65.2593 106.282L65.2031 105.685L65.1364 105.076L65.0589 104.455L64.9705 103.822L64.8711 103.178L64.7606 102.523L64.6387 101.857L64.5054 101.181L64.3605 100.496L64.2041 99.8002L64.0358 99.0958L63.8558 98.3826L63.6638 97.661L63.4599 96.9314L63.2439 96.1943L63.0159 95.4499L62.7758 94.6987L62.5235 93.941L62.259 93.1774L61.9823 92.4081L61.6935 91.6336L61.3925 90.8544L61.0793 90.0706L60.754 89.2829L60.4166 88.4916L60.0671 87.6971L59.7057 86.8999L59.3323 86.1002L58.947 85.2986L58.55 84.4954L58.1413 83.6911L57.721 82.886L57.2893 82.0806L56.8462 81.2752L56.3919 80.4703L55.9265 79.6662L55.4502 78.8634L54.9631 78.0622L54.4654 77.2631L53.9573 76.4663L53.4389 75.6724L52.9105 74.8816L52.3723 74.0944L51.8244 73.311L51.2671 72.532L50.7006 71.7577L50.1251 70.9883L49.541 70.2243L48.9483 69.466L48.3475 68.7138L47.7387 67.9679L47.1222 67.2288L46.4984 66.4967L45.8675 65.7719L45.2297 65.0548L44.5854 64.3458L43.935 63.6449L43.2786 62.9527L42.6166 62.2692L41.9495 61.5949L41.2773 60.93L40.6007 60.2748L39.9197 59.6295L39.2349 58.9943L38.5465 58.3695L37.8549 57.7553L37.1605 57.152L36.4636 56.5597L35.7646 55.9787L35.0639 55.4091L34.3618 54.8512L33.6587 54.3051L32.955 53.7709L32.2511 53.2489L31.5474 52.7393L30.8442 52.242L30.142 51.7573L29.441 51.2853L28.7418 50.8261L28.0448 50.3797L27.3502 49.9464L26.6585 49.5262L25.9701 49.1191L25.2854 48.7252L24.6048 48.3446L23.9287 47.9773L23.2574 47.6233L22.5914 47.2827L21.9311 46.9555L21.2768 46.6418L20.6289 46.3414L19.9879 46.0543L19.3541 45.7806L18.7278 45.5203L18.1096 45.2732L17.4996 45.0394L16.8984 44.8187L16.3063 44.6111L15.7236 44.4166L15.1507 44.235L14.588 44.0662L14.0358 43.9101L13.4945 43.7666L12.9644 43.6357L12.4458 43.517L11.9391 43.4106L11.4446 43.3162L10.9627 43.2338L10.4936 43.1631L10.0377 43.1039L9.59517 43.0561L9.16644 43.0195L8.75175 42.9939L8.35138 42.9791L7.96562 42.9749L7.59472 42.981L7.23894 42.9972L6.89854 43.0233L6.57377 43.0591L6.26485 43.1043L5.97202 43.1586L5.6955 43.2218L5.43549 43.2937L5.1922 43.3739L4.96582 43.4622L4.75653 43.5584L4.56452 43.662L4.38994 43.7729L4.23295 43.8907L4.0937 44.0152L3.97233 44.146L3.86896 44.2828L3.78371 44.4253L3.71669 44.5733L3.66799 44.7263L3.63772 44.8842L3.62593 45.0464L3.63271 45.2128L3.6581 45.383L3.70216 45.5567L3.76493 45.7335L3.84642 45.9131L3.94666 46.0952L4.06565 46.2795L4.20339 46.4656L4.35986 46.6531L4.53504 46.8418L4.72889 47.0313L4.94137 47.2213L5.17242 47.4114L5.42198 47.6014L5.68996 47.7908L5.97628 47.9793L6.28085 48.1667L6.60355 48.3526L6.94427 48.5367L7.30289 48.7186L7.67925 48.898L8.07323 49.0747L8.48466 49.2482L8.91337 49.4184L9.35919 49.5848L9.82193 49.7473L10.3014 49.9054L10.7974 50.0589L11.3097 50.2075L11.8381 50.3509L12.3823 50.4888L12.9422 50.621L13.5174 50.7472L14.1078 50.8671L14.713 50.9805L15.3327 51.0871L15.9668 51.1867L16.6149 51.279L17.2766 51.3638L17.9518 51.4408L18.6401 51.5099L19.3411 51.5708L20.0546 51.6234L20.7802 51.6673L21.5176 51.7025L22.2665 51.7288L23.0264 51.7459L23.7971 51.7537L24.5781 51.7521L25.3691 51.7409L26.1698 51.7199L26.9797 51.689L27.7985 51.6481L28.6258 51.5971L29.4612 51.5358L30.3043 51.4642L31.1547 51.3822L32.012 51.2896L32.8758 51.1864L33.7457 51.0726L34.6214 50.9481L35.5022 50.8128L36.388 50.6667L37.2782 50.5097L38.1724 50.342L39.0703 50.1634L39.9713 49.9739L40.8751 49.7736L41.7813 49.5624L42.6894 49.3405L43.599 49.1078L44.5097 48.8644L45.4211 48.6103L46.3327 48.3456L47.2441 48.0704L48.155 47.7848L49.0648 47.4889L49.9732 47.1827L50.8798 46.8664L51.7841 46.5401L52.6858 46.204L53.5844 45.858L54.4796 45.5026L55.3709 45.1376L56.2579 44.7635L57.1404 44.3802L58.0177 43.988L58.8897 43.5871L59.7559 43.1777L60.6159 42.76L61.4693 42.3342L62.3159 41.9005L63.1552 41.4591L63.9869 41.0104L64.8106 40.5545L65.626 40.0917L66.4328 39.6222L67.2306 39.1464L68.0192 38.6644L68.7981 38.1766L69.5671 37.6833L70.3259 37.1847L71.0742 36.6812L71.8117 36.173L72.5382 35.6605L73.2533 35.1439L73.9568 34.6236L74.6484 34.1L75.328 33.5732L75.9952 33.0438L76.6498 32.512L77.2916 31.9781L77.9205 31.4426L78.5361 30.9057L79.1383 30.3678L79.727 29.8293L80.3019 29.2905L80.8629 28.7518L81.4097 28.2135L81.9424 27.676L82.4607 27.1398L82.9645 26.605L83.4537 26.0722L83.9282 25.5417L84.3878 25.0139L84.8326 24.4891L85.2623 23.9677L85.6771 23.4501L86.0766 22.9367L86.4611 22.4278L86.8303 21.9238L87.1843 21.4251L87.5231 20.9321L87.8466 20.4451L88.1548 19.9645L88.4478 19.4906L88.7256 19.0238L88.9882 18.5646L89.2356 18.1132L89.4679 17.6699L89.6852 17.2353L89.8875 16.8095L90.0749 16.393L90.2474 15.986L90.4053 15.589L90.5486 15.2022L90.6773 14.8261L90.7917 14.4608L90.8919 14.1068L90.9779 13.7643L91.05 13.4336L91.1084 13.1152L91.1531 12.8091L91.1844 12.5158L91.2024 12.2356L91.2074 11.9686L91.1995 11.7152L91.179 11.4756L91.146 11.2502L91.1008 11.039L91.0436 10.8425L90.9747 10.6608L90.8943 10.4941L90.8026 10.3426L90.6999 10.2067L90.5865 10.0864L90.4626 9.98199L90.3286 9.89362L90.1846 9.82149L90.031 9.76574L89.8681 9.72655L89.6961 9.70406L89.5154 9.69841L89.3263 9.70973L89.1291 9.73814L88.924 9.78375L88.7115 9.84667L88.4918 9.92698L88.2653 10.0248L88.0322 10.1401L87.793 10.2731L87.5479 10.4237L87.2973 10.592L87.0415 10.7781L86.7809 10.9819L86.5158 11.2035L86.2466 11.4428L85.9735 11.7L85.697 11.9749L85.4173 12.2674L85.1349 12.5777L84.8501 12.9056L84.5631 13.2511L84.2745 13.614L83.9844 13.9944L83.6933 14.3921L83.4015 14.807L83.1093 15.239L82.8171 15.6881L82.5252 16.154L82.234 16.6366L81.9437 17.1358L81.6548 17.6514L81.3675 18.1832L81.0822 18.7311L80.7991 19.2949L80.5187 19.8744L80.2411 20.4693L79.9668 21.0795L79.6961 21.7047L79.4291 22.3447L79.1663 22.9993L78.908 23.6681L78.6543 24.351L78.4056 25.0477L78.1622 25.7579L77.9243 26.4813L77.6923 27.2176L77.4663 27.9665L77.2466 28.7277L77.0334 29.501L76.8271 30.2859L76.6278 31.0822L76.4357 31.8895L76.2511 32.7074L76.0742 33.5357L75.9052 34.374L75.7442 35.2219L75.5915 36.079L75.4473 36.945L75.3117 37.8195L75.1848 38.7021L75.0669 39.5925L74.9581 40.4902L74.8585 41.3949L74.7683 42.3061L74.6875 43.2235L74.6163 44.1467L74.5549 45.0752L74.5031 46.0086L74.4613 46.9465L74.4294 47.8885L74.4075 48.8342L74.3958 49.7832L74.3941 50.735L74.4026 51.6892L74.4212 52.6454L74.4501 53.6031L74.4892 54.562L74.5386 55.5216L74.5981 56.4815L74.6679 57.4412L74.7479 58.4004L74.8379 59.3585L74.9381 60.3152L75.0484 61.2701L75.1686 62.2226L75.2987 63.1725L75.4387 64.1193L75.5884 65.0625L75.7478 66.0018L75.9167 66.9367L76.095 67.8668L76.2826 68.7918L76.4794 69.7112L76.6852 70.6246L76.8998 71.5316L77.1232 72.4318L77.3551 73.3249L77.5953 74.2105L77.8437 75.0882L78.1001 75.9575L78.3643 76.8182L78.6361 77.6699L78.9152 78.5123L79.2014 79.3449L79.4946 80.1674L79.7944 80.9796L80.1006 81.781L80.413 82.5714L80.7314 83.3504L81.0553 84.1177L81.3847 84.8731L81.7191 85.6162L82.0584 86.3467L82.4022 87.0643L82.7503 87.7689L83.1023 88.4601L83.4579 89.1376L83.8169 89.8013L84.1788 90.4508L84.5435 91.0861L84.9106 91.7067L85.2797 92.3126L85.6505 92.9035L86.0227 93.4793L86.396 94.0397L86.77 94.5846L87.1444 95.1138L87.5188 95.6271L87.8929 96.1245L88.2663 96.6058L88.6388 97.0708L89.0098 97.5194L89.3792 97.9516L89.7465 98.3672L90.1113 98.7662L90.4734 99.1484L90.8324 99.5139L91.1878 99.8625L91.5394 100.194L91.8869 100.509L92.2298 100.807L92.5677 101.088L92.9005 101.352L93.2276 101.599L93.5487 101.829L93.8636 102.042L94.1719 102.238L94.4731 102.418L94.767 102.58L95.0533 102.726L95.3316 102.855L95.6015 102.968L95.8629 103.064L96.1152 103.144L96.3583 103.208L96.5918 103.256L96.8154 103.287L97.0288 103.303L97.2316 103.303L97.4237 103.287L97.6047 103.257L97.7744 103.211L97.9324 103.15L98.0785 103.074L98.2124 102.983L98.3339 102.878L98.4428 102.759L98.5387 102.626L98.6215 102.48L98.6909 102.32L98.7467 102.146L98.7887 101.96L98.8166 101.761L98.8304 101.549L98.8297 101.326L98.8145 101.09L98.7845 100.843L98.7396 100.584L98.6797 100.315L98.6045 100.035L98.5139 99.7442L98.4079 99.4435L98.2863 99.1331L98.1489 98.8132L97.9958 98.4842L97.8268 98.1465L97.6417 97.8003L97.4406 97.446L97.2234 97.0839L96.9901 96.7144L96.7405 96.3379L96.4747 95.9546L96.1926 95.565L95.8943 95.1693L95.5796 94.7681L95.2487 94.3615L94.9016 93.95L94.5382 93.5339L94.1587 93.1136L93.763 92.6894L93.3512 92.2618L92.9234 91.831L92.4797 91.3975L92.0201 90.9616L91.5448 90.5237L91.0539 90.084L90.5474 89.6431L90.0255 89.2012L89.4884 88.7587L88.9362 88.3159L88.369 87.8733L87.787 87.4311L87.1905 86.9897L86.5795 86.5494L85.9543 86.1107L85.315 85.6737L84.6619 85.2389L83.9953 84.8066L83.3153 84.3771L82.6221 83.9507L81.9161 83.5278L81.1975 83.1086L80.4665 82.6935L79.7234 82.2828L78.9685 81.8768L78.2022 81.4756L77.4246 81.0798L76.636 80.6894L75.8369 80.3049L75.0275 79.9264L74.2081 79.5542L73.3791 79.1886L72.5409 78.8298L71.6936 78.4781L70.8378 78.1337L69.9737 77.7968L69.1017 77.4676L68.2222 77.1463L67.3356 76.8332L66.4422 76.5285L65.5424 76.2322L64.6367 75.9447L63.7253 75.666L62.8087 75.3964L61.8873 75.136L60.9615 74.8848L60.0317 74.6432L59.0983 74.4111L58.1617 74.1887L57.2224 73.9761L56.2806 73.7735L55.337 73.5809L54.3919 73.3983L53.4456 73.2259L52.4987 73.0637L51.5515 72.9118L50.6046 72.7702L49.6582 72.6389L48.7129 72.518L47.769 72.4075L46.8271 72.3074L45.8874 72.2177L44.9505 72.1384L44.0167 72.0694L43.0866 72.0108L42.1604 71.9624L41.2386 71.9243L40.3217 71.8964L39.4101 71.8786L38.5041 71.8708L37.6042 71.873L36.7108 71.885L35.8242 71.9068L34.945 71.9382L34.0734 71.9792L33.2099 72.0295L32.3548 72.0891L31.5086 72.1578L30.6716 72.2354L29.8442 72.3218L29.0268 72.4168L28.2197 72.5203L27.4232 72.632L26.6378 72.7518L25.8638 72.8794L25.1014 73.0147L24.3511 73.1574L23.6132 73.3073L22.8879 73.4642L22.1756 73.6278L21.4766 73.7979L20.7912 73.9742L20.1197 74.1565L19.4624 74.3445L18.8194 74.538L18.1912 74.7367L17.5779 74.9403L16.9798 75.1485L16.3972 75.361L15.8302 75.5776L15.279 75.7979L14.744 76.0216L14.2253 76.2485L13.723 76.4781L13.2375 76.7103L12.7688 76.9447L12.317 77.1809L11.8825 77.4187L11.4653 77.6577L11.0655 77.8975L10.6833 78.138L10.3187 78.3786L9.97201 78.6191L9.64316 78.8592L9.33228 79.0985L9.03945 79.3367L8.76473 79.5734L8.50817 79.8083L8.26982 80.041L8.04971 80.2713L7.84786 80.4988L7.6643 80.723L7.49901 80.9438L7.35199 81.1608L7.22323 81.3736L7.11269 81.5818L7.02035 81.7853L6.94613 81.9835L6.89 82.1763L6.85188 82.3633L6.83169 82.5441L6.82934 82.7184L6.84474 82.8859L6.87777 83.0464L6.92832 83.1994L6.99626 83.3448L7.08145 83.4821L7.18374 83.6111L7.30298 83.7316L7.43901 83.8431L7.59164 83.9455L7.7607 84.0384L7.946 84.1216L8.14732 84.1948L8.36447 84.2578L8.59722 84.3103L8.84536 84.352L9.10863 84.3828L9.38681 84.4023L9.67965 84.4104L9.98688 84.4068L10.3082 84.3914L10.6435 84.3638L10.9923 84.324L11.3544 84.2717L11.7295 84.2068L12.1173 84.129L12.5175 84.0383L12.9298 83.9344L13.3538 83.8171L13.7894 83.6865L14.236 83.5423L14.6934 83.3844L15.1613 83.2126L15.6393 83.027L16.1271 82.8273L16.6243 82.6136L17.1305 82.3857L17.6455 82.1435L18.1687 81.8871L18.7 81.6162L19.2389 81.331L19.785 81.0314L20.338 80.7174L20.8974 80.3889L21.463 80.0459L22.0343 79.6885L22.611 79.3167L23.1926 78.9305L23.7789 78.53L24.3693 78.1151L24.9636 77.686L25.5613 77.2427L26.1621 76.7853L26.7655 76.3139L27.3712 75.8286L27.9789 75.3295L28.5881 74.8167L29.1984 74.2903L29.8095 73.7505L30.4211 73.1975L31.0326 72.6312L31.6438 72.0521L32.2543 71.4601L32.8637 70.8556L33.4717 70.2386L34.0779 69.6094L34.6819 68.9682L35.2834 68.3152L35.8821 67.6507L36.4776 66.9748L37.0695 66.2879L37.6576 65.5901L38.2415 64.8818L38.8209 64.1631L39.3954 63.4345L39.9648 62.6961L40.5287 61.9482L41.0869 61.1912L41.639 60.4253L42.1848 59.6509L42.724 58.8683L43.2562 58.0778L43.7813 57.2798L44.299 56.4745L44.809 55.6623L45.3111 54.8436L45.805 54.0187L46.2905 53.1881L46.7673 52.3519L47.2354 51.5107L47.6944 50.6648L48.1441 49.8145L48.5845 48.9603L49.0152 48.1026L49.4361 47.2417L49.8471 46.378L50.2479 45.5119L50.6385 44.6439L51.0187 43.7742L51.3884 42.9035L51.7474 42.0319L52.0957 41.16L52.4331 40.2882L52.7596 39.4169L53.075 38.5464L53.3794 37.6773L53.6725 36.8098L53.9544 35.9445L54.2251 35.0818L54.4844 34.222L54.7325 33.3656L54.9691 32.513L55.1944 31.6647L55.4084 30.8209L55.611 29.9822L55.8022 29.1489L55.9822 28.3215L56.1509 27.5003L56.3085 26.6858L56.4548 25.8784L56.5901 25.0784L56.7144 24.2863L56.8278 23.5024L56.9303 22.7272L57.0221 21.961L57.1033 21.2042L57.174 20.4571L57.2344 19.7202L57.2845 18.9938L57.3246 18.2782L57.3547 17.5739L57.3751 16.8812L57.3859 16.2003L57.3872 15.5317L57.3794 14.8757L57.3625 14.2326L57.3368 13.6027L57.3024 12.9863L57.2597 12.3838L57.2088 11.7954L57.1499 11.2215L57.0833 10.6622L57.0092 10.1179L56.9278 9.58887L56.8395 9.07533L56.7445 8.57754L56.6431 8.09575L56.5354 7.63017L56.4219 7.18105L56.3027 6.74859L56.1782 6.333L56.0486 5.93447L55.9143 5.5532L55.7755 5.18936L55.6326 4.84312L55.4858 4.51463L55.3355 4.20406L55.182 3.91153L55.0256 3.63718L54.8666 3.38112L54.7053 3.14347L54.5421 2.92433L54.3772 2.72378L54.2111 2.54191L54.044 2.37878L53.8762 2.23445L53.7082 2.10897L53.5402 2.00238L53.3725 1.9147L53.2056 1.84596L53.0397 1.79616L52.8751 1.76529L52.7122 1.75334L52.5513 1.7603L52.3928 1.78611L52.2369 1.83075L52.0841 1.89414L51.9345 1.97623L51.7887 2.07695L51.6468 2.1962L51.5092 2.33389L51.3761 2.48991L51.248 2.66415L51.1252 2.85648L51.0078 3.06677L50.8963 3.29487L50.791 3.54062L50.692 3.80387L50.5998 4.08443L50.5145 4.38213L50.4366 4.69677L50.3662 5.02815L50.3036 5.37606L50.2491 5.74029L50.203 6.1206L50.1655 6.51676L50.1368 6.92853L50.1172 7.35564L50.1069 7.79786L50.1062 8.25489L50.1152 8.72648L50.1343 9.21233L50.1635 9.71216L50.2031 10.2257L50.2533 10.7526L50.3143 11.2925L50.3862 11.8452L50.4692 12.4103L50.5635 12.9875L50.6692 13.5765L50.7865 14.1769L50.9155 14.7884L51.0563 15.4106L51.209 16.0431L51.3739 16.6857L51.5508 17.3379L51.7401 17.9993L51.9416 18.6697L52.1556 19.3486L52.382 20.0356L52.6209 20.7304L52.8725 21.4326L53.1366 22.1417L53.4133 22.8574L53.7027 23.5793L54.0048 24.307L54.3194 25.0401L54.6468 25.7782L54.9867 26.5209L55.3393 27.2678L55.7044 28.0185L56.082 28.7726L56.472 29.5297L56.8744 30.2894L57.289 31.0513L57.7159 31.8149L58.1549 32.5799L58.6058 33.346L59.0686 34.1126L59.5432 34.8794L60.0294 35.646L60.5271 36.412L61.036 37.177L61.5562 37.9407L62.0873 38.7026L62.6292 39.4623L63.1817 40.2196L63.7446 40.9739L64.3177 41.725L64.9008 42.4725L65.4936 43.216L66.096 43.9551L66.7077 44.6895L67.3284 45.419L67.9579 46.143L68.5959 46.8613L69.2422 47.5735L69.8964 48.2794L70.5584 48.9785L71.2277 49.6707L71.9041 50.3555L72.5873 51.0328L73.277 51.7021L73.9729 52.3632L74.6746 53.0158L75.3818 53.6597L76.0941 54.2946L76.8113 54.9202L77.533 55.5363L78.2588 56.1426L78.9884 56.739L79.7214 57.3251L80.4575 57.9008L81.1962 58.4659L81.9373 59.0201L82.6803 59.5633L83.4248 60.0953L84.1705 60.6159L84.917 61.1249L85.6639 61.6223L86.4108 62.1078L87.1574 62.5814L87.9031 63.0428L88.6477 63.492L89.3907 63.9289L90.1317 64.3533L90.8704 64.7652L91.6063 65.1645L92.339 65.5512L93.0682 65.9251L93.7934 66.2862L94.5142 66.6346L95.2302 66.97L95.9411 67.2926L96.6465 67.6023L97.3458 67.8991L98.0389 68.1831L98.7251 68.4542L99.4043 68.7124L100.076 68.9578L100.74 69.1905L101.395 69.4105L102.042 69.6178L102.68 69.8126L103.308 69.9949L103.927 70.1648L104.535 70.3225L105.133 70.4679L105.72 70.6013L106.296 70.7227L106.86 70.8324L107.413 70.9304L107.953 71.0169L108.481 71.092L108.996 71.156L109.498 71.209L109.986 71.2511L110.46 71.2827L110.921 71.3038L111.367 71.3147L111.798 71.3157L112.215 71.3068L112.616 71.2884L113.002 71.2607L113.373 71.2238L113.727 71.1782L114.065 71.124L114.387 71.0615L114.692 70.9909L114.981 70.9126L115.252 70.8267L115.507 70.7336L115.744 70.6336L115.963 70.527L116.165 70.4139L116.349 70.2949L116.515 70.17L116.663 70.0398L116.792 69.9044L116.904 69.7641L116.996 69.6194L117.071 69.4704L117.126 69.3176L117.163 69.1613L117.182 69.0017L117.181 68.8392L117.162 68.6742L117.124 68.5069L117.066 68.3377L116.99 68.167L116.895 67.995L116.782 67.8221L116.649 67.6486L116.497 67.4749L116.327 67.3013L116.138 67.128L115.93 66.9556L115.704 66.7842L115.459 66.6142L115.196 66.4459L114.914 66.2797L114.614 66.1159L114.296 65.9548L113.96 65.7966L113.606 65.6418L113.235 65.4907L112.846 65.3434L112.44 65.2004L112.017 65.062L111.576 64.9284L111.119 64.7999L110.646 64.6769L110.156 64.5595L109.65 64.4481L109.128 64.3429L108.591 64.2443L108.038 64.1524L107.47 64.0675L106.887 63.9899L106.29 63.9199L105.679 63.8576L105.053 63.8032L104.414 63.7571L103.761 63.7194L103.096 63.6903L102.418 63.67L101.727 63.6587L101.024 63.6567L100.31 63.6641L99.5838 63.681L98.8469 63.7076L98.0994 63.7441L97.3415 63.7906L96.5737 63.8473L95.7964 63.9143L95.0099 63.9917L94.2146 64.0796L93.4108 64.1782L92.5991 64.2875L91.7797 64.4075L90.9531 64.5385L90.1196 64.6804L89.2797 64.8334L88.4338 64.9974L87.5823 65.1725L86.7255 65.3587L85.864 65.5561L84.9981 65.7647L84.1282 65.9844L83.2548 66.2153L82.3783 66.4574L81.499 66.7106L80.6175 66.9748L79.734 67.2501L78.8492 67.5364L77.9632 67.8337L77.0767 68.1417L76.1899 68.4606L75.3034 68.7901L74.4175 69.1302L73.5326 69.4808L72.6491 69.8418L71.7675 70.2129L70.8882 70.5942L70.0115 70.9854L69.1378 71.3864L68.2677 71.797L67.4013 72.217L66.5392 72.6464L65.6817 73.0848L64.8292 73.5321L63.982 73.9881L63.1406 74.4525L62.3053 74.9252L61.4765 75.4059L60.6545 75.8944L59.8397 76.3904L59.0324 76.8937L58.2329 77.404L57.4417 77.9211L56.6589 78.4446L55.885 78.9744L55.1203 79.5101L54.3649 80.0514L53.6194 80.598L52.8838 81.1497L52.1586 81.706L51.444 82.2668L50.7403 82.8316L50.0477 83.4002L49.3664 83.9722L48.6968 84.5472L48.0391 85.125L47.3934 85.7052L46.76 86.2875L46.1392 86.8714L45.531 87.4567L44.9358 88.043L44.3536 88.6298L43.7847 89.2169L43.2292 89.8039L42.6873 90.3905L42.1592 90.9761L41.6448 91.5605L41.1445 92.1434L40.6583 92.7242L40.1862 93.3027L39.7285 93.8784L39.2851 94.451L38.8563 95.0201L38.4419 95.5853L38.0422 96.1462L37.657 96.7025L37.2866 97.2538L36.9308 97.7997L36.5898 98.3398L36.2635 98.8737L35.952 99.4011L35.6551 99.9217L35.3729 100.435L35.1054 100.941L34.8526 101.438L34.6143 101.927L34.3905 102.408L34.1811 102.88L33.9861 103.342L33.8054 103.794L33.6389 104.236L33.4864 104.668L33.3479 105.089L33.2232 105.499L33.1122 105.897L33.0148 106.284L32.9308 106.658L32.86 107.021L32.8023 107.37L32.7575 107.707L32.7254 108.03L32.7058 108.34L32.6986 108.636L32.7034 108.918L32.7202 109.185L32.7487 109.438L32.7886 109.677L32.8397 109.9L32.9018 110.107L32.9746 110.3L33.0579 110.476L33.1514 110.637L33.2548 110.781L33.3679 110.909L33.4904 111.021L33.622 111.115L33.7624 111.194L33.9113 111.255L34.0684 111.298L34.2335 111.325L34.4061 111.334L34.5861 111.326L34.773 111.3L34.9666 111.256L35.1666 111.195L35.3725 111.116L35.5842 111.019L35.8012 110.903L36.0232 110.77L36.2499 110.619L36.481 110.449L36.7161 110.262L36.9549 110.056L37.197 109.832L37.4421 109.591L37.6899 109.331L37.94 109.053L38.1921 108.757L38.4457 108.443L38.7007 108.111L38.9567 107.762L39.2132 107.395L39.47 107.01L39.7267 106.608L39.9831 106.188L40.2387 105.752L40.4933 105.298L40.7464 104.827L40.9979 104.339L41.2473 103.835L41.4943 103.314L41.7387 102.777L41.98 102.224L42.2181 101.655L42.4526 101.071L42.6832 100.471L42.9095 99.8559L43.1314 99.2259L43.3485 98.5811L43.5606 97.9219L43.7673 97.2486L43.9685 96.5613L44.1637 95.8604L44.3529 95.1463L44.5356 94.419L44.7118 93.6791L44.8811 92.9267L45.0433 92.1623L45.1981 91.3861L45.3455 90.5985L45.4851 89.7998L45.6167 88.9903L45.7402 88.1705L45.8554 87.3406L45.962 86.501L46.06 85.6522L46.1491 84.7944L46.2292 83.9281L46.3002 83.0536L46.3618 82.1714L46.414 81.2817L46.4567 80.3851L46.4897 79.4819L46.5129 78.5725L46.5263 77.6574L46.5297 76.7368L46.523 75.8114L46.5063 74.8814L46.4794 73.9472L46.4423 73.0094L46.3949 72.0683L46.3372 71.1244L46.2693 70.178L46.191 69.2297L46.1023 68.2797L46.0034 67.3286L45.8941 66.3768L45.7746 65.4247L45.6448 64.4727L45.5047 63.5213L45.3546 62.5708L45.1943 61.6218L45.024 60.6746L44.8437 59.7296L44.6536 58.7873L44.4537 57.8481L44.2442 56.9123L44.0251 55.9805L43.7966 55.053L43.5588 54.1302L43.3119 53.2126L43.056 52.3005L42.7912 51.3942L42.5178 50.4943L42.2359 49.6011L41.9457 48.715L41.6474 47.8363L41.3411 46.9654L41.0272 46.1027L40.7058 45.2486L40.3771 44.4034L40.0413 43.5674L39.6988 42.741L39.3497 41.9246L38.9943 41.1184L38.6328 40.3228L38.2656 39.5381L37.8929 38.7646L37.5149 38.0026L37.132 37.2524L36.7444 36.5144L36.3525 35.7886L35.9564 35.0756L35.5567 34.3754L35.1534 33.6884L34.7471 33.0148L34.3379 32.3549L33.9262 31.7088L33.5124 31.0768L33.0967 30.4591L32.6795 29.8559L32.2612 29.2674L31.842 28.6938L31.4224 28.1352L31.0027 27.5919L30.5831 27.0639L30.1642 26.5514L29.7461 26.0546L29.3294 25.5736L28.9143 25.1085L28.5011 24.6593L28.0904 24.2263L27.6823 23.8094L27.2774 23.4088L26.8759 23.0245L26.4781 22.6566L26.0846 22.3051L25.6955 21.9701L25.3113 21.6515L24.9324 21.3495L24.559 21.0639L24.1916 20.7949L23.8305 20.5423L23.476 20.3062L23.1286 20.0865L22.7884 19.8832L22.456 19.6963L22.1316 19.5256L21.8155 19.3711L21.5081 19.2326L21.2098 19.1102L20.9208 19.0038L20.6414 18.9131L20.3721 18.838L20.113 18.7786L19.8645 18.7345L19.627 18.7057L19.4006 18.692L19.1858 18.6932L18.9827 18.7092L18.7916 18.7397L18.6129 18.7847L18.4468 18.8438L18.2935 18.9169L18.1533 19.0038L18.0264 19.1042L17.9132 19.2179L17.8137 19.3447L17.7283 19.4843L17.6572 19.6364L17.6005 19.8009L17.5584 19.9775L17.5312 20.1658L17.519 20.3656L17.5221 20.5767L17.5405 20.7986L17.5744 21.0313L17.624 21.2742L17.6894 21.5271L17.7708 21.7898L17.8682 22.0619L17.9818 22.3431L18.1117 22.633L18.2579 22.9313L18.4206 23.2378L18.5998 23.552L18.7956 23.8736L19.008 24.2024L19.2371 24.5378L19.483 24.8797L19.7455 25.2276L20.0248 25.5812L20.3209 25.9402L20.6337 26.3041L20.9632 26.6727L21.3095 27.0456L21.6724 27.4223L22.0519 27.8027L22.448 28.1863L22.8605 28.5727L23.2895 28.9616L23.7348 29.3526L24.1963 29.7455L24.674 30.1397L25.1676 30.5351L25.6772 30.9311L26.2024 31.3275L26.7433 31.724L27.2995 32.1201L27.8711 32.5156L28.4577 32.91L29.0593 33.3032L29.6755 33.6946L30.3062 34.084L30.9513 34.4711L31.6104 34.8556L32.2834 35.237L32.9699 35.6152L33.6698 35.9898L34.3828 36.3604L35.1086 36.7269L35.847 37.0888L36.5977 37.446L37.3603 37.798L38.1347 38.1448L38.9204 38.4859L39.7172 38.8211L40.5248 39.1501L41.3428 39.4728L42.1709 39.7887L43.0087 40.0978L43.856 40.3998L44.7124 40.6944L45.5774 40.9815L46.4508 41.2608L47.3322 41.5321L48.2212 41.7953L49.1174 42.05L50.0204 42.2963L50.9299 42.5338L51.8455 42.7625L52.7668 42.9821L53.6933 43.1926L54.6247 43.3938L55.5605 43.5856L56.5004 43.7678L57.4439 43.9403L58.3906 44.1031L59.3402 44.256L60.2921 44.399L61.246 44.532L62.2014 44.6549L63.1579 44.7677L64.1151 44.8704L65.0726 44.9628L66.0299 45.045L66.9866 45.1169L67.9422 45.1786L68.8965 45.23L69.8488 45.2712L70.7989 45.3021L71.7462 45.3228L72.6903 45.3334L73.6309 45.3338L74.5675 45.3242L75.4997 45.3046L76.427 45.2751L77.3491 45.2357L78.2655 45.1866L79.1759 45.1279L80.0798 45.0596L80.9768 44.9819L81.8666 44.895L82.7487 44.7989L83.6228 44.6938L84.4885 44.5798L85.3453 44.4572L86.193 44.326L87.0311 44.1866L87.8592 44.0389L88.6771 43.8833L89.4844 43.72L90.2807 43.5491L91.0658 43.3708L91.8391 43.1855L92.6005 42.9933L93.3496 42.7944L94.0861 42.5892L94.8097 42.3777L95.5201 42.1604L96.217 41.9375L96.9001 41.7092L97.5692 41.4758L98.224 41.2376L98.8642 40.9949L99.4895 40.748L100.1 40.4971L100.695 40.2425L101.274 39.9847L101.838 39.7238L102.386 39.4601L102.918 39.1941L103.433 38.926L103.932 38.6561L104.414 38.3848L104.88 38.1124L105.328 37.8392L105.76 37.5656L106.174 37.2919L106.571 37.0184L106.95 36.7454L107.312 36.4734L107.656 36.2026L107.982 35.9334L108.291 35.6662L108.582 35.4012L108.855 35.1389L109.11 34.8795L109.347 34.6234L109.566 34.371L109.768 34.1226L109.951 33.8785L110.116 33.6391L110.263 33.4047L110.393 33.1756L110.505 32.9522L110.598 32.7348L110.675 32.5238L110.733 32.3194L110.774 32.122L110.797 31.9319L110.804 31.7494L110.793 31.5749L110.764 31.4086L110.719 31.2508L110.657 31.1019L110.578 30.9621L110.483 30.8317L110.372 30.711L110.244 30.6004L110.1 30.4999L109.941 30.41L109.765 30.3309L109.575 30.2628L109.369 30.206L109.149 30.1607L108.914 30.1272L108.664 30.1057L108.4 30.0964L108.122 30.0995L107.831 30.1152L107.526 30.1438L107.208 30.1854L106.878 30.2402L106.534 30.3084L106.179 30.3901L105.812 30.4855L105.433 30.5947L105.043 30.7179L104.641 30.8553L104.23 31.0069L103.808 31.1728L103.376 31.3532L102.934 31.5482L102.483 31.7578L102.023 31.9821L101.555 32.2211L101.078 32.4751L100.594 32.7439L100.102 33.0276L99.6027 33.3263L99.0969 33.64L98.5846 33.9686L98.0664 34.3123L97.5425 34.6709L97.0133 35.0444L96.4793 35.4329L95.9407 35.8362L95.398 36.2544L94.8515 36.6873L94.3016 37.1349L93.7487 37.5972L93.1932 38.0739L92.6354 38.5651L92.0758 39.0707L91.5146 39.5904L90.9523 40.1241L90.3893 40.6718L89.8258 41.2333L89.2624 41.8085L88.6992 42.397L88.1368 42.9989L87.5754 43.6138L87.0154 44.2417L86.4572 44.8823L85.9011 45.5353L85.3475 46.2006L84.7967 46.878L84.249 47.5671L83.7048 48.2678L83.1643 48.9798L82.628 49.7028L82.0961 50.4366L81.569 51.1809L81.0469 51.9353L80.5302 52.6997L80.0191 53.4737L79.514 54.2569L79.0151 55.0492L78.5226 55.8501L78.037 56.6593L77.5583 57.4766L77.0869 58.3015L76.6231 59.1336L76.167 59.9728L75.7189 60.8185L75.279 61.6705L74.8476 62.5284L74.4248 63.3917L74.0108 64.2601L73.6059 65.1333L73.2102 66.0108L72.8239 66.8923L72.4472 67.7773L72.0802 68.6655L71.723 69.5565L71.3759 70.4498L71.0389 71.3451L70.7122 72.2419L70.3959 73.1398L70.09 74.0385L69.7948 74.9374L69.5101 75.8363L69.2363 76.7346L68.9732 77.6319L68.721 78.5279L68.4797 79.4221L68.2494 80.3142L68.0301 81.2035L67.8217 82.0898L67.6244 82.9727L67.4381 83.8517L67.2628 84.7264L67.0985 85.5963L66.9451 86.4612L66.8027 87.3205L66.6712 88.1738L66.5505 89.0208L66.4405 89.8611L66.3413 90.6941L66.2526 91.5197L66.1745 92.3372L66.1068 93.1465L66.0493 93.947L66.0021 94.7384L65.965 95.5203L65.9377 96.2923L65.9203 97.0541L65.9125 97.8053L65.9142 98.5456L65.9251 99.2745L65.9453 99.9918L65.9743 100.697L66.0121 101.39L66.0585 102.07L66.1132 102.738L66.1761 103.392L66.2469 104.032L66.3254 104.659L66.4114 105.271L66.5045 105.869L66.6047 106.452L66.7116 107.02L66.8249 107.573L66.9444 108.11L67.0699 108.632L67.201 109.137L67.3376 109.627L67.4792 110.099L67.6256 110.556L67.7765 110.995L67.9316 111.417L68.0907 111.822L68.2533 112.209L68.4193 112.579L68.5882 112.931L68.7598 113.266L68.9337 113.582L69.1097 113.88L69.2874 114.16L69.4664 114.422L69.6465 114.665L69.8274 114.889L70.0086 115.095L70.1899 115.283L70.3709 115.451L70.5513 115.601L70.7308 115.732L70.909 115.845L71.0856 115.938L71.2602 116.013L71.4326 116.068L71.6024 116.106L71.7693 116.124L71.9328 116.123L72.0929 116.104L72.2489 116.067L72.4008 116.01L72.5481 115.936L72.6905 115.843L72.8277 115.731L72.9594 115.602L73.0853 115.455L73.2051 115.289L73.3185 115.106L73.4251 114.906L73.5248 114.687L73.6171 114.452L73.7019 114.2L73.7787 113.93L73.8475 113.644L73.9078 113.342L73.9595 113.023L74.0022 112.688L74.0358 112.337L74.0599 111.971L74.0744 111.589L74.0789 111.193L74.0734 110.781L74.0575 110.355L74.031 109.915L73.9938 109.46L73.9456 108.992L73.8863 108.511L73.8157 108.016L73.7335 107.509L73.6397 106.989L73.5341 106.457L73.4165 105.913L73.2868 105.358L73.1448 104.792L72.9905 104.215L72.8236 103.627L72.6442 103.03L72.4521 102.423L72.2472 101.806L72.0295 101.18L71.7988 100.546L71.5551 99.9039L71.2984 99.2536L71.0287 98.5959L70.7458 97.9311L70.4498 97.2595L70.1406 96.5817L69.8183 95.898L69.4828 95.2087L69.1342 94.5143L68.7725 93.8152L68.3978 93.1117L68.01 92.4043L67.6093 91.6933L67.1956 90.9792L66.7691 90.2623L66.3299 89.5431L65.878 88.822L65.4136 88.0992L64.9367 87.3753L64.4476 86.6506L63.9462 85.9256L63.4328 85.2005L62.9075 84.4758L62.3705 83.7519L61.8219 83.0292L61.2619 82.3079L60.6907 81.5886L60.1085 80.8716L59.5155 80.1572L58.9119 79.4459L58.2979 78.7379L57.6738 78.0336L57.0397 77.3335L56.3961 76.6377L55.743 75.9468L55.0807 75.2609L54.4096 74.5805L53.7299 73.9059L53.0418 73.2373L52.3458 72.5751L51.642 71.9197L50.9307 71.2712L50.2124 70.6301L49.4873 69.9965L48.7556 69.3708L48.0179 68.7533L47.2743 68.1441L46.5253 67.5437L45.7711 66.9521L45.0122 66.3697L44.2488 65.7967L43.4814 65.2334L42.7103 64.6799L41.9359 64.1364L41.1585 63.6032L40.3786 63.0805L39.5965 62.5684L38.8126 62.0671L38.0272 61.5768L37.2409 61.0976L36.4539 60.6297L35.6667 60.1732L34.8796 59.7284L34.0931 59.2951L33.3076 58.8737L32.5235 58.4642L31.7411 58.0667L30.9609 57.6812L30.1832 57.3079L29.4086 56.9468L28.6373 56.598L27.8699 56.2615L27.1066 55.9374L26.348 55.6256L25.5943 55.3262L24.8461 55.0393L24.1037 54.7647L23.3674 54.5025L22.6378 54.2527L21.9152 54.0153L21.2 53.7901L20.4925 53.5772L19.7933 53.3764L19.1025 53.1878L18.4207 53.0113L17.7482 52.8467L17.0854 52.694L16.4326 52.553L15.7902 52.4237L15.1586 52.3059L14.538 52.1995L13.929 52.1044L13.3317 52.0203L12.7466 51.9473L12.1739 51.885L11.6141 51.8333L11.0673 51.7921L10.534 51.7611L10.0144 51.7402L9.50886 51.7292L9.01761 51.7278L8.54097 51.7358L8.0792 51.7531L7.63257 51.7793L7.20136 51.8143L6.7858 51.8577L6.38615 51.9094L6.00264 51.9692L5.63549 52.0366L5.28494 52.1115L4.95118 52.1936L4.63442 52.2827L4.33486 52.3783L4.05266 52.4803L3.78802 52.5884L3.54109 52.7023L3.31203 52.8216L3.10098 52.9461L2.90808 53.0754L2.73346 53.2093L2.57722 53.3474L2.43949 53.4895L2.32034 53.6351L2.21988 53.784L2.13816 53.9359L2.07527 54.0904L2.03125 54.2472L2.00615 54.406L2 54.5664L2.01283 54.7282L2.04465 54.8909L2.09546 55.0543L2.16527 55.218L2.25404 55.3817L2.36175 55.5451L2.48836 55.7078L2.63383 55.8695L2.79809 56.0299L2.98108 56.1886L3.18272 56.3453L3.40291 56.4998L3.64156 56.6516L3.89855 56.8004L4.17377 56.946L4.46709 57.0881L4.77836 57.2262L5.10744 57.3602L5.45417 57.4897L5.81837 57.6143L6.19987 57.7339L6.59849 57.8481L7.01402 57.9566L7.44627 58.0592L7.895 58.1555L8.36001 58.2453L8.84105 58.3284L9.33789 58.4044L9.85028 58.4731L10.3779 58.5342L10.9206 58.5876L11.4781 58.633L12.05 58.6701L12.6361 58.6987L13.2361 58.7186L13.8496 58.7296L14.4764 58.7315L15.1162 58.724L15.7686 58.7071L16.4333 58.6805L17.1099 58.644L17.7981 58.5974L18.4977 58.5407L19.2081 58.4737L19.9291 58.3962L20.6602 58.3081L21.4012 58.2092L22.1517 58.0995L22.9111 57.9788L23.6793 57.8471L24.4558 57.7042L25.2402 57.5501L26.0321 57.3847L26.8311 57.2079L27.6368 57.0198L28.4489 56.8201L29.2668 56.609L30.0903 56.3864L30.9189 56.1522L31.7521 55.9065L32.5896 55.6492L33.431 55.3804L34.2758 55.1002L35.1237 54.8084L35.9742 54.5052L36.8269 54.1907L37.6813 53.8648L38.5372 53.5277L39.394 53.1794L40.2514 52.82L41.1089 52.4497L41.9661 52.0684L42.8227 51.6764L43.6782 51.2738L44.5322 50.8607L45.3843 50.4372L46.2341 50.0035L47.0813 49.5597L47.9253 49.1061L48.766 48.6428L49.6027 48.17L50.4353 47.6878L51.2632 47.1966L52.0862 46.6965L52.9039 46.1876L53.7158 45.6704L54.5217 45.1449L55.3211 44.6115L56.1139 44.0703L56.8995 43.5217L57.6776 42.9659L58.448 42.4031L59.2104 41.8337L59.9643 41.258L60.7095 40.6762L61.4458 40.0887L62.1727 39.4957L62.89 38.8975L63.5974 38.2945L64.2947 37.687L64.9816 37.0754L65.6578 36.4599L66.3232 35.8409L66.9773 35.2187L67.6201 34.5937L68.2512 33.9662L68.8706 33.3366L69.4779 32.7053L70.0729 32.0726L70.6556 31.4388L71.2257 30.8044L71.783 30.1697L72.3273 29.5351L72.8586 28.901L73.3767 28.2677L73.8814 27.6356L74.3726 27.0051L74.8503 26.3767L75.3142 25.7505L75.7644 25.1272L76.2007 24.507L76.623 23.8903L77.0313 23.2776L77.4256 22.6691L77.8058 22.0654L78.1718 21.4667L78.5236 20.8734L78.8612 20.286L79.1847 19.7048L79.4939 19.1302L79.789 18.5626L80.0699 18.0023L80.3367 17.4498L80.5894 16.9053L80.8281 16.3693L81.0528 15.8421L81.2636 15.3241L81.4606 14.8156L81.6439 14.317L81.8136 13.8287L81.9697 13.3509L82.1124 12.884L82.2419 12.4284L82.3582 11.9844L82.4615 11.5523L82.5519 11.1323L82.6297 10.7249L82.695 10.3304L82.7479 9.94895L82.7886 9.58095L82.8174 9.22666L82.8344 8.88636L82.8398 8.56032L82.8339 8.24881L82.8169 7.95209L82.7889 7.67041L82.7503 7.404L82.7013 7.1531L82.6421 6.91795L82.573 6.69874L82.4943 6.4957L82.4061 6.30903L82.3089 6.13892L82.2028 5.98555L82.0881 5.84909L81.9652 5.72971L81.8343 5.62757L81.6958 5.54281L81.5498 5.47557L81.3968 5.42598L81.2371 5.39415L81.0708 5.3802L80.8985 5.38422L80.7203 5.40629L80.5367 5.44651L80.3479 5.50493L80.1542 5.58161L79.9561 5.67661L79.7538 5.78996L79.5476 5.92169L79.3379 6.07181L79.1251 6.24033L78.9095 6.42726L78.6913 6.63257L78.471 6.85624L78.2489 7.09823L78.0252 7.35852L77.8005 7.63702L77.575 7.9337L77.3489 8.24846L77.1228 8.58122L76.8969 8.93189L76.6715 9.30036L76.4469 9.68651L76.2236 10.0902L76.0018 10.5114L75.7818 10.9498L75.564 11.4053L75.3487 11.8778L75.1362 12.3671L74.9268 12.8729L74.7208 13.3952L74.5185 13.9337L74.3203 14.4882L74.1264 15.0584L73.937 15.6442L73.7526 16.2452L73.5734 16.8614L73.3996 17.4923L73.2315 18.1377L73.0694 18.7974L72.9136 19.4711L72.7642 20.1585L72.6216 20.8593L72.486 21.5732L72.3576 22.2998L72.2366 23.0389L72.1233 23.7902L72.0178 24.5532L71.9204 25.3278L71.8313 26.1134L71.7507 26.9099L71.6787 27.7167L71.6155 28.5336L71.5613 29.3602L71.5163 30.1962L71.4805 31.041L71.4542 31.8945L71.4375 32.7561L71.4304 33.6255L71.4332 34.5022L71.4459 35.386L71.4686 36.2763L71.5014 37.1729L71.5443 38.0752L71.5976 38.9829L71.6611 39.8955L71.7351 40.8126L71.8194 41.7339L71.9142 42.6588L72.0194 43.5871L72.1352 44.5182L72.2614 45.4517L72.3982 46.3872L72.5454 47.3243L72.7031 48.2625L72.8712 49.2015L73.0497 50.1408L73.2386 51.08L73.4377 52.0186L73.647 52.9562L73.8665 53.8925L74.096 54.8269L74.3355 55.7592L74.5848 56.6888L74.8438 57.6153L75.1125 58.5384L75.3906 59.4577L75.6781 60.3726L75.9748 61.2829L76.2805 62.1881L76.595 63.0879L76.9183 63.9818L77.25 64.8694L77.5901 65.7505L77.9383 66.6246L78.2944 67.4913L78.6582 68.3503L79.0294 69.2012L79.4079 70.0436L79.7934 70.8773L80.1856 71.7019L80.5844 72.517L80.9894 73.3223L81.4004 74.1175L81.8171 74.9022L82.2392 75.6763L82.6665 76.4392L83.0986 77.1909L83.5353 77.931L83.9763 78.6591L84.4212 79.3751L84.8698 80.0787L85.3217 80.7696L85.7765 81.4476L86.2341 82.1124L86.694 82.7638L87.156 83.4016L87.6196 84.0256L88.0845 84.6356L88.5504 85.2314L89.017 85.8128L89.4839 86.3796L89.9507 86.9317L90.417 87.469L90.8826 87.9911L91.3471 88.4982L91.8101 88.9899L92.2712 89.4663L92.7301 89.9271L93.1864 90.3723L93.6397 90.8018L94.0898 91.2156L94.5361 91.6136L94.9784 91.9956L95.4163 92.3617L95.8494 92.7119L96.2773 93.046L96.6997 93.3642L97.1163 93.6663L97.5266 93.9524L97.9304 94.2225L98.3272 94.4767L98.7167 94.7149L99.0986 94.9372L99.4725 95.1436L99.838 95.3343L100.195 95.5093L100.543 95.6687L100.881 95.8125L101.21 95.9409L101.529 96.0539L101.837 96.1518L102.135 96.2346L102.422 96.3025L102.698 96.3556L102.962 96.3941L103.214 96.418L103.454 96.4277L103.682 96.4233L103.897 96.405L104.099 96.373L104.288 96.3274L104.463 96.2685L104.625 96.1965L104.772 96.1117L104.906 96.0143L105.025 95.9045L105.129 95.7825L105.219 95.6487L105.293 95.5032L105.352 95.3465L105.396 95.1786L105.424 95L105.437 94.8109L105.433 94.6115L105.414 94.4023L105.378 94.1834L105.325 93.9552L105.257 93.7181L105.171 93.4722L105.069 93.2181L104.95 92.9558L104.815 92.6859L104.662 92.4086L104.492 92.1243L104.306 91.8332L104.102 91.5358L103.881 91.2324L103.642 90.9233L103.387 90.6088L103.114 90.2894L102.825 89.9654L102.518 89.637L102.194 89.3047L101.852 88.9689L101.494 88.6298L101.119 88.2878L100.727 87.9433L100.317 87.5966L99.8916 87.2481L99.449 86.8982L98.9899 86.5471L98.5143 86.1952L98.0224 85.843L97.5143 85.4906L96.9901 85.1385L96.4501 84.7869L95.8943 84.4364L95.323 84.087L94.7363 83.7393L94.1344 83.3936L93.5176 83.05L92.886 82.7091L92.2399 82.371L91.5795 82.0362L90.905 81.7048L90.2167 81.3773L89.5149 81.0539L88.7997 80.7349L88.0716 80.4206L87.3307 80.1113L86.5773 79.8073L85.8118 79.5087L85.0345 79.216L84.2456 78.9293L83.4455 78.649L82.6345 78.3751L81.8129 78.1081L80.9811 77.8481L80.1395 77.5954L79.2883 77.3501L78.4279 77.1125L77.5587 76.8827L76.6811 76.6611L75.7954 76.4477L74.9021 76.2427L74.0014 76.0464L73.0938 75.8588L72.1797 75.6802L71.2595 75.5106L70.3335 75.3503L69.4022 75.1993L68.466 75.0577L67.5253 74.9257L66.5805 74.8034L65.632 74.6909L64.6803 74.5882L63.7258 74.4954L62.7688 74.4127L61.8098 74.3399L60.8493 74.2773L59.8877 74.2248L58.9253 74.1825L57.9626 74.1503L57.0001 74.1284L56.0382 74.1166L55.0773 74.115L54.1178 74.1236L53.1602 74.1424L52.2048 74.1712L51.2522 74.2101L50.3027 74.259L49.3567 74.3178L48.4147 74.3865L47.4772 74.465L46.5444 74.5531L45.6168 74.6509L44.6948 74.7582L43.7789 74.8748L42.8694 75.0006L41.9667 75.1356L41.0713 75.2795L40.1835 75.4322L39.3036 75.5936L38.4322 75.7634L37.5695 75.9415L36.7159 76.1278L35.8718 76.322L35.0375 76.5239L34.2134 76.7333L33.3999 76.95L32.5973 77.1738L31.8059 77.4044L31.026 77.6417L30.258 77.8853L29.5022 78.135L28.7588 78.3906L28.0283 78.6518L27.3108 78.9183L26.6067 79.1899L25.9162 79.4662L25.2396 79.7471L24.5772 80.0321L23.9292 80.321L23.2959 80.6136L22.6774 80.9094L22.074 81.2082L21.486 81.5098L20.9135 81.8136L20.3567 82.1195L19.8158 82.4271L19.2911 82.7361L18.7825 83.0462L18.2904 83.3569L17.8149 83.6681L17.3561 83.9793L16.9141 84.2902L16.4891 84.6005L16.0811 84.9098L15.6903 85.2177L15.3168 85.524L14.9606 85.8283L14.6218 86.1302L14.3004 86.4294L13.9966 86.7255L13.7103 87.0183L13.4416 87.3072L13.1905 87.5921L12.9569 87.8725L12.741 88.1482L12.5427 88.4187L12.3619 88.6837L12.1987 88.9429L12.0529 89.196L11.9246 89.4425L11.8137 89.6823L11.72 89.9149L11.6436 90.1401L11.5843 90.3574L11.542 90.5667L11.5166 90.7675L11.508 90.9596L11.5161 91.1427L11.5406 91.3164L11.5816 91.4805L11.6387 91.6347L11.7119 91.7786L11.801 91.9121L11.9057 92.0348L12.0259 92.1465L12.1614 92.2468L12.312 92.3357L12.4774 92.4127L12.6575 92.4776L12.8519 92.5303L13.0605 92.5705L13.283 92.5979L13.5192 92.6124L13.7687 92.6137L14.0313 92.6017L14.3068 92.5762L14.5948 92.5369L14.8951 92.4837L15.2074 92.4165L15.5313 92.335L15.8666 92.2391L16.2129 92.1288L16.57 92.0037L16.9374 91.864L17.315 91.7093L17.7023 91.5396L18.0989 91.3549L18.5047 91.155L18.9192 90.9398L19.342 90.7094L19.7729 90.4636L20.2114 90.2023L20.6573 89.9256L21.1101 89.6335L21.5695 89.3258L22.0351 89.0026L22.5066 88.6639L22.9836 88.3098L23.4657 87.9401L23.9525 87.555L24.4438 87.1546L24.939 86.7387L25.4379 86.3076L25.9401 85.8613L26.4452 85.3999L26.9527 84.9234L27.4625 84.4319L27.974 83.9257L28.487 83.4047L29.001 82.8692L29.5156 82.3192L30.0307 81.7549L30.5456 81.1766L31.0602 80.5842L31.5741 79.9781L32.0868 79.3583L32.5981 78.7252L33.1075 78.0789L33.6149 77.4196L34.1198 76.7476L34.6218 76.063L35.1207 75.3662L35.6162 74.6573L36.1079 73.9366L36.5954 73.2045L37.0786 72.461L37.557 71.7067L38.0304 70.9417L38.4985 70.1663L38.961 69.3808L39.4177 68.5855L39.8682 67.7809L40.3122 66.9671L40.7496 66.1445L41.18 65.3135L41.6033 64.4744L42.0191 63.6275L42.4273 62.7732L42.8276 61.9119L43.2198 61.0439L43.6037 60.1697L43.9791 59.2894L44.3457 58.4037L44.7035 57.5128L45.0522 56.6171L45.3917 55.717L45.7218 54.813L46.0424 53.9054L46.3532 52.9946L46.6543 52.081L46.9453 51.1651L47.2264 50.2472L47.4972 49.3278L47.7578 48.4073L48.0081 47.4861L48.2479 46.5646L48.4772 45.6432L48.6959 44.7224L48.9041 43.8026L49.1015 42.8842L49.2883 41.9676L49.4644 41.0532L49.6298 40.1416L49.7844 39.233L49.9283 38.328L50.0615 37.4269L50.184 36.5301L50.2959 35.6381L50.3972 34.7513L50.4879 33.8701L50.5681 32.9949L50.6379 32.1261L50.6973 31.2641L50.7465 30.4093L50.7856 29.5622L50.8146 28.723L50.8336 27.8923L50.8428 27.0703L50.8424 26.2575L50.8324 25.4543L50.813 24.6609L50.7844 23.8779L50.7467 23.1055L50.7001 22.3441L50.6448 21.594L50.581 20.8556L50.5088 20.1292L50.4285 19.4152L50.3403 18.7139L50.2444 18.0256L50.141 17.3506L50.0304 16.6892L49.9128 16.0417L49.7884 15.4084L49.6575 14.7896L49.5204 14.1856L49.3773 13.5965L49.2284 13.0228L49.0741 12.4645L48.9147 11.922L48.7503 11.3956L48.5814 10.8853L48.4082 10.3914L48.2309 9.91418L48.05 9.45376L47.8656 9.01036L47.6782 8.58414L47.488 8.17526L47.2953 7.78389L47.1005 7.41017L46.9039 7.05424L46.7058 6.71621L46.5065 6.39622L46.3064 6.09437L46.1058 5.81075L45.905 5.54544L45.7044 5.29854L45.5042 5.07009L45.3049 4.86016L45.1067 4.66879L44.9101 4.49602L44.7152 4.34186L44.5226 4.20635L44.3324 4.08947L44.1451 3.99122L43.9609 3.91159L43.7803 3.85055L43.6035 3.80806L43.4308 3.78407L43.2626 3.77852L43.0993 3.79135L42.941 3.82248L42.7883 3.87183L42.6413 3.93928L42.5003 4.02473L42.3658 4.12808L42.238 4.24918L42.1172 4.3879L42.0036 4.54409L41.8977 4.71761L41.7996 4.90827L41.7098 5.11592L41.6283 5.34035L41.5556 5.58139L41.4919 5.83883L41.4374 6.11245L41.3924 6.40205L41.3572 6.70739L41.332 7.02823L41.317 7.36434L41.3125 7.71547L41.3187 8.08134L41.3358 8.46171L41.364 8.85628L41.4036 9.26479L41.4547 9.68694L41.5175 10.1224L41.5922 10.571L41.6789 11.0323L41.7779 11.506L41.8893 11.9918L42.0132 12.4894L42.1498 12.9985L42.2992 13.5186L42.4615 14.0496L42.6368 14.5909L42.8253 15.1423L43.027 15.7035L43.2421 16.274L43.4705 16.8535L43.7124 17.4416L43.9678 18.038L44.2368 18.6423L44.5194 19.2541L44.8156 19.873L45.1255 20.4987L45.449 21.1307L45.7862 21.7687L46.1371 22.4123L46.5016 23.0611L46.8797 23.7147L47.2714 24.3727L47.6766 25.0347L48.0953 25.7004L48.5274 26.3694L48.9727 27.0412L49.4313 27.7155L49.9031 28.3918L50.3879 29.0698L50.8855 29.7491L51.396 30.4294L51.9191 31.1101L52.4547 31.791L53.0026 32.4717L53.5628 33.1517L54.1349 33.8308L54.7189 34.5085L55.3146 35.1844L55.9216 35.8582L56.54 36.5296L57.1693 37.1982L57.8094 37.8636L58.4601 38.5254L59.1211 39.1834L59.7922 39.8371L60.473 40.4863L61.1635 41.1307L61.8632 41.7698L62.5718 42.4034L63.2892 43.0311L64.015 43.6527L64.749 44.2679L65.4907 44.8763L66.2399 45.4776L66.9962 46.0717L67.7594 46.6582L68.5291 47.2368L69.3049 47.8072L70.0865 48.3694L70.8736 48.9229L71.6658 49.4675L72.4628 50.0031L73.2641 50.5293L74.0695 51.0461L74.8784 51.5531L75.6906 52.0502L76.5057 52.5372L77.3233 53.0139L78.143 53.4801L78.9644 53.9357L79.787 54.3806L80.6106 54.8145L81.4347 55.2374L82.2589 55.6491L83.0828 56.0495L83.906 56.4385L84.7281 56.8161L85.5487 57.182L86.3673 57.5363L87.1836 57.8788L87.9971 58.2095L88.8075 58.5284L89.6143 58.8354L90.4172 59.1305L91.2156 59.4137L92.0093 59.6849L92.7977 59.9441L93.5806 60.1914L94.3574 60.4268L95.1278 60.6503L95.8914 60.8619L96.6478 61.0617L97.3966 61.2497L98.1375 61.426L98.8699 61.5907L99.5936 61.7438L100.308 61.8854L101.013 62.0157L101.708 62.1347L102.393 62.2426L103.067 62.3395L103.731 62.4255L104.383 62.5008L105.023 62.5655L105.651 62.6197L106.267 62.6637L106.87 62.6976L107.461 62.7216L108.038 62.7359L108.601 62.7407L109.15 62.7362L109.686 62.7225L110.206 62.7L110.712 62.6689L111.203 62.6293L111.678 62.5815L112.138 62.5258L112.582 62.4625L113.01 62.3917L113.422 62.3137L113.817 62.2288L114.195 62.1374L114.557 62.0395L114.901 61.9357L115.228 61.826L115.538 61.7109L115.829 61.5906L116.103 61.4654L116.359 61.3356L116.597 61.2016L116.817 61.0636L117.018 60.9219L117.2 60.777L117.365 60.629L117.51 60.4783L117.637 60.3253L117.745 60.1702L117.833 60.0135L117.904 59.8553L117.955 59.6961L117.987 59.5362L118 59.3758" stroke="url(#paint0_radial_501_121)" stroke-width="2"/>
<defs>
<radialGradient id="paint0_radial_501_121" cx="0" cy="0" r="1" gradientUnits="userSpaceOnUse" gradientTransform="translate(21.433 21.3776) rotate(54.4147) scale(125.359)">
<stop stop-color="#F0C6FF"/>
<stop offset="1" stop-color="#C6D6FF"/>
</radialGradient>
</defs>
</svg>
