<svg width="119" height="119" viewBox="0 0 119 119" fill="none" xmlns="http://www.w3.org/2000/svg">
<path d="M118 59.3468L117.997 59.3206L117.99 59.2944L117.976 59.2682L117.958 59.242L117.935 59.2158L117.906 59.1896L117.872 59.1633L117.833 59.137L117.788 59.1108L117.739 59.0844L117.684 59.0581L117.624 59.0317L117.559 59.0053L117.488 58.9789L117.413 58.9524L117.332 58.9258L117.246 58.8993L117.155 58.8726L117.059 58.846L116.957 58.8192L116.851 58.7925L116.739 58.7656L116.622 58.7387L116.5 58.7117L116.373 58.6847L116.241 58.6576L116.104 58.6304L115.962 58.6032L115.815 58.5758L115.663 58.5484L115.505 58.5209L115.343 58.4934L115.176 58.4657L115.004 58.438L114.826 58.4101L114.644 58.3822L114.457 58.3541L114.265 58.326L114.068 58.2977L113.867 58.2694L113.66 58.241L113.449 58.2124L113.232 58.1837L113.011 58.1549L112.786 58.126L112.555 58.097L112.32 58.0679L112.08 58.0386L111.835 58.0093L111.586 57.9798L111.331 57.9501L111.073 57.9204L110.81 57.8905L110.542 57.8604L110.269 57.8303L109.992 57.8L109.711 57.7695L109.425 57.7389L109.135 57.7082L108.84 57.6773L11.2215 49.618L10.9269 49.6003L10.6368 49.5831L10.3511 49.5666L10.0698 49.5506L9.79303 49.5352L9.52074 49.5205L9.25297 49.5064L8.98975 49.4929L8.73109 49.48L8.47702 49.4678L8.22757 49.4561L7.98276 49.4452L7.7426 49.4349L7.50711 49.4252L7.27633 49.4162L7.05026 49.4079L6.82894 49.4002L6.61236 49.3932L6.40057 49.3869L6.19356 49.3813L5.99137 49.3764L5.79401 49.3722L5.6015 49.3686L5.41385 49.3658L5.23108 49.3637L5.0532 49.3623L4.88024 49.3617L4.71219 49.3618L4.54909 49.3626L4.39095 49.3641L4.23777 49.3664L4.08957 49.3694L3.94636 49.3732L3.80816 49.3778L3.67497 49.3831L3.54681 49.3892L3.42369 49.396L3.30562 49.4036L3.19261 49.412L3.08466 49.4212L2.9818 49.4312L2.88402 49.4419L2.79133 49.4535L2.70374 49.4659L2.62126 49.479L2.54389 49.493L2.47165 49.5078L2.40453 49.5234L2.34255 49.5398L2.2857 49.5571L2.23399 49.5752L2.18742 49.5941L2.14601 49.6138L2.10974 49.6344L2.07863 49.6558L2.05267 49.6781L2.03187 49.7012L2.01623 49.7251L2.00575 49.7499L2.00042 49.7756L2.00025 49.8021L2.00524 49.8295L2.01539 49.8578L2.03069 49.8869L2.05114 49.9169L2.07674 49.9477L2.10748 49.9794L2.14337 50.012L2.1844 50.0455L2.23056 50.0799L2.28184 50.1152L2.33826 50.1513L2.39978 50.1883L2.46642 50.2262L2.53817 50.265L2.615 50.3047L2.69693 50.3453L2.78394 50.3868L2.87602 50.4291L2.97316 50.4724L3.07535 50.5166L3.18259 50.5616L3.29486 50.6076L3.41215 50.6545L3.53445 50.7022L3.66175 50.7509L3.79403 50.8005L3.93129 50.851L4.0735 50.9023L4.22066 50.9546L4.37275 51.0078L4.52976 51.0619L4.69167 51.1169L4.85847 51.1728L5.03014 51.2296L5.20666 51.2873L5.38802 51.346L5.57419 51.4055L5.76518 51.4659L5.96094 51.5272L6.16147 51.5894L6.36675 51.6526L6.57675 51.7166L6.79146 51.7815L7.01087 51.8473L7.23493 51.9141L7.46364 51.9817L7.69698 52.0502L7.93492 52.1196L8.17743 52.1899L8.42451 52.261L8.67612 52.3331L8.93224 52.406L9.19285 52.4799L9.45792 52.5546L9.72743 52.6301L10.0013 52.7066L10.2796 52.7839L10.5623 52.8621L10.8493 52.9412L105.515 76.8326L105.805 76.8993L106.092 76.9648L106.374 77.0289L106.652 77.0916L106.925 77.1531L107.194 77.2133L107.459 77.272L107.719 77.3295L107.975 77.3856L108.227 77.4403L108.474 77.4936L108.717 77.5456L108.955 77.5961L109.189 77.6452L109.418 77.693L109.643 77.7393L109.863 77.7841L110.079 77.8275L110.29 77.8695L110.497 77.91L110.698 77.9491L110.896 77.9866L111.088 78.0227L111.276 78.0573L111.459 78.0904L111.638 78.122L111.812 78.1521L111.981 78.1806L112.145 78.2077L112.304 78.2331L112.459 78.2571L112.609 78.2795L112.754 78.3003L112.895 78.3196L113.03 78.3373L113.161 78.3534L113.287 78.368L113.408 78.3809L113.524 78.3923L113.636 78.4021L113.742 78.4102L113.844 78.4167L113.941 78.4217L114.033 78.425L114.119 78.4267L114.201 78.4267L114.279 78.4251L114.351 78.4219L114.418 78.417L114.48 78.4104L114.538 78.4022L114.59 78.3924L114.638 78.3809L114.68 78.3677L114.718 78.3528L114.751 78.3363L114.779 78.3181L114.801 78.2982L114.819 78.2766L114.832 78.2533L114.84 78.2284L114.843 78.2017L114.841 78.1734L114.834 78.1433L114.823 78.1116L114.806 78.0781L114.784 78.0429L114.758 78.0061L114.726 77.9675L114.69 77.9272L114.648 77.8852L114.602 77.8415L114.551 77.7961L114.495 77.749L114.434 77.7001L114.368 77.6496L114.297 77.5973L114.222 77.5433L114.141 77.4876L114.056 77.4302L113.966 77.371L113.871 77.3102L113.771 77.2476L113.666 77.1833L113.557 77.1173L113.443 77.0496L113.324 76.9802L113.2 76.9091L113.071 76.8363L112.938 76.7618L112.8 76.6855L112.658 76.6076L112.51 76.528L112.358 76.4466L112.201 76.3636L112.04 76.2789L111.874 76.1925L111.704 76.1044L111.528 76.0147L111.348 75.9232L111.164 75.8301L110.975 75.7353L110.782 75.6389L110.584 75.5408L110.381 75.441L110.175 75.3396L109.963 75.2365L109.747 75.1318L109.527 75.0255L109.303 74.9175L109.074 74.8079L108.84 74.6967L108.603 74.5838L108.361 74.4694L108.115 74.3533L107.864 74.2357L107.61 74.1164L107.351 73.9956L107.088 73.8732L106.821 73.7492L106.549 73.6236L17.1195 34.5333L16.8452 34.4205L16.5748 34.3096L16.3084 34.2007L16.046 34.0939L15.7877 33.989L15.5334 33.8861L15.2831 33.7853L15.037 33.6866L14.7949 33.5899L14.557 33.4953L14.3232 33.4028L14.0937 33.3124L13.8682 33.2241L13.647 33.1379L13.43 33.0539L13.2173 32.972L13.0088 32.8923L12.8046 32.8148L12.6046 32.7394L12.409 32.6663L12.2177 32.5953L12.0307 32.5266L11.8481 32.4601L11.6698 32.3958L11.4959 32.3338L11.3264 32.2741L11.1613 32.2166L11.0007 32.1614L10.8444 32.1085L10.6926 32.0579L10.5453 32.0096L10.4024 31.9636L10.2639 31.92L10.13 31.8786L10.0006 31.8397L9.87562 31.803L9.75519 31.7687L9.63927 31.7368L9.52789 31.7073L9.42104 31.6801L9.31873 31.6553L9.22097 31.6329L9.12777 31.6129L9.03913 31.5954L8.95506 31.5802L8.87555 31.5674L8.80063 31.5571L8.73029 31.5492L8.66453 31.5437L8.60336 31.5407L8.54678 31.5401L8.4948 31.542L8.44741 31.5463L8.40462 31.5531L8.36644 31.5623L8.33285 31.574L8.30386 31.5882L8.27947 31.6048L8.25969 31.6239L8.24451 31.6455L8.23392 31.6696L8.22794 31.6961L8.22654 31.7252L8.22975 31.7567L8.23754 31.7907L8.24992 31.8272L8.26688 31.8662L8.28843 31.9077L8.31455 31.9517L8.34524 31.9981L8.38049 32.0471L8.42031 32.0986L8.46468 32.1525L8.51359 32.209L8.56705 32.2679L8.62503 32.3293L8.68755 32.3933L8.75458 32.4597L8.82612 32.5286L8.90215 32.6L8.98268 32.6739L9.06769 32.7502L9.15717 32.8291L9.25111 32.9104L9.34949 32.9942L9.45232 33.0805L9.55957 33.1692L9.67123 33.2604L9.7873 33.3541L9.90775 33.4502L10.0326 33.5488L10.1618 33.6498L10.2953 33.7533L10.4332 33.8592L10.5754 33.9675L10.7218 34.0783L10.8726 34.1915L11.0277 34.3071L11.187 34.4251L11.3505 34.5455L11.5183 34.6683L11.6902 34.7935L11.8664 34.9211L12.0467 35.0511L12.2312 35.1834L12.4197 35.3181L12.6124 35.4551L12.8092 35.5945L13.0101 35.7363L13.215 35.8803L13.424 36.0267L13.6369 36.1754L13.8538 36.3264L14.0747 36.4796L14.2996 36.6352L14.5284 36.793L14.761 36.9531L14.9975 37.1154L15.2379 37.28L15.4821 37.4468L15.7302 37.6158L96.9731 90.5199L97.4855 90.8386L97.7363 90.9941L97.9836 91.147L98.2273 91.2973L98.4673 91.445L98.7037 91.59L98.9364 91.7323L99.1655 91.872L99.3908 92.0089L99.6125 92.1432L99.8304 92.2747L100.045 92.4034L100.255 92.5294L100.462 92.6526L100.664 92.7731L100.863 92.8907L101.058 93.0055L101.25 93.1174L101.437 93.2265L101.621 93.3328L101.8 93.4361L101.976 93.5366L102.148 93.6342L102.316 93.7288L102.48 93.8205L102.64 93.9093L102.796 93.9951L102.948 94.078L103.097 94.1579L103.241 94.2348L103.381 94.3087L103.517 94.3796L103.649 94.4475L103.777 94.5123L103.901 94.5741L104.021 94.6329L104.137 94.6886L104.249 94.7412L104.357 94.7907L104.461 94.8372L104.56 94.8806L104.656 94.9209L104.747 94.958L104.835 94.9921L104.918 95.023L104.997 95.0508L105.072 95.0755L105.143 95.097L105.21 95.1154L105.273 95.1306L105.331 95.1426L105.386 95.1515L105.436 95.1572L105.482 95.1598L105.524 95.1591L105.562 95.1553L105.596 95.1483L105.626 95.1381L105.651 95.1247L105.673 95.1082L105.69 95.0884L105.703 95.0654L105.712 95.0392L105.717 95.0098L105.718 94.9772L105.714 94.9414L105.707 94.9024L105.695 94.8601L105.68 94.8147L105.66 94.7661L105.636 94.7142L105.608 94.6591L105.576 94.6009L105.54 94.5394L105.5 94.4747L105.456 94.4068L105.407 94.3357L105.355 94.2614L105.299 94.1839L105.238 94.1033L105.174 94.0194L105.105 93.9323L105.033 93.8421L104.956 93.7487L104.876 93.6521L104.792 93.5523L104.703 93.4494L104.611 93.3433L104.515 93.2341L104.414 93.1217L104.31 93.0062L104.202 92.8875L104.09 92.7657L103.974 92.6408L103.855 92.5128L103.731 92.3816L103.604 92.2474L103.473 92.1101L103.338 91.9697L103.199 91.8262L103.056 91.6797L102.91 91.5301L102.76 91.3774L102.606 91.2218L102.449 91.0631L102.287 90.9014L102.122 90.7366L101.954 90.5689L101.782 90.3983L101.606 90.2246L101.426 90.048L101.243 89.8685L101.057 89.686L100.867 89.5006L100.673 89.3123L100.476 89.1211L100.275 88.927L100.071 88.7301L99.8636 88.5303L99.6526 88.3277L99.4382 88.1222L27.593 22.2073L27.3691 22.0106L27.1483 21.817L26.9306 21.6266L26.7161 21.4393L26.5047 21.2553L26.2964 21.0745L26.0913 20.8969L25.8895 20.7226L25.6908 20.5515L25.4953 20.3838L25.3031 20.2193L25.1141 20.0582L24.9284 19.9005L24.746 19.7461L24.5669 19.5951L24.391 19.4475L24.2185 19.3033L24.0493 19.1625L23.8835 19.0252L23.721 18.8914L23.5618 18.761L23.4061 18.6341L23.2537 18.5108L23.1047 18.391L22.9591 18.2747L22.8169 18.1619L22.6782 18.0528L22.5429 17.9472L22.411 17.8452L22.2826 17.7468L22.1576 17.652L22.0361 17.5609L21.918 17.4734L21.8035 17.3895L21.6924 17.3093L21.5848 17.2328L21.4807 17.16L21.3801 17.0909L21.283 17.0254L21.1894 16.9637L21.0994 16.9057L21.0128 16.8515L20.9298 16.8009L20.8504 16.7542L20.7744 16.7112L20.702 16.6719L20.6331 16.6364L20.5678 16.6047L20.506 16.5768L20.4478 16.5527L20.3931 16.5323L20.3419 16.5158L20.2943 16.5031L20.2503 16.4941L20.2098 16.489L20.1728 16.4877L20.1394 16.4903L20.1095 16.4966L20.0832 16.5068L20.0605 16.5208L20.0412 16.5387L20.0255 16.5604L20.0134 16.5859L20.0048 16.6153L19.9997 16.6485L19.9981 16.6855L20.0001 16.7264L20.0056 16.7711L20.0146 16.8197L20.0272 16.8721L20.0432 16.9283L20.0627 16.9884L20.0857 17.0523L20.1123 17.12L20.1423 17.1916L20.1758 17.267L20.2127 17.3462L20.2531 17.4292L20.297 17.5161L20.3443 17.6067L20.3951 17.7012L20.4493 17.7994L20.5069 17.9015L20.5679 18.0073L20.6324 18.117L20.7002 18.2304L20.7714 18.3476L20.846 18.4685L20.924 18.5932L21.0053 18.7216L21.0899 18.8538L21.1779 18.9897L21.2692 19.1293L21.3638 19.2727L21.4617 19.4197L21.5629 19.5705L21.6674 19.7249L21.7751 19.883L21.8861 20.0447L22.0003 20.2101L22.1177 20.3792L22.2383 20.5518L22.3621 20.7281L22.4891 20.908L22.6192 21.0915L22.7525 21.2785L22.8889 21.4691L23.0284 21.6632L23.171 21.8609L23.3167 22.0621L23.4654 22.2668L23.6172 22.475L23.772 22.6867L23.9299 22.9018L24.0907 23.1203L24.2545 23.3423L24.4213 23.5677L24.591 23.7964L24.7636 24.0286L24.9391 24.2641L25.1175 24.5029L84.9094 101.068L85.0995 101.301L85.2871 101.531L85.4721 101.757L85.6546 101.98L85.8345 102.198L86.0119 102.413L86.1866 102.625L86.3588 102.832L86.5283 103.036L86.6952 103.237L86.8595 103.433L87.0211 103.625L87.1801 103.814L87.3364 103.999L87.49 104.18L87.6409 104.357L87.7892 104.53L87.9347 104.7L88.0775 104.865L88.2176 105.027L88.3549 105.184L88.4895 105.338L88.6214 105.487L88.7504 105.632L88.8768 105.774L89.0003 105.911L89.1211 106.044L89.239 106.174L89.3542 106.299L89.4666 106.42L89.5762 106.537L89.6829 106.649L89.7869 106.758L89.888 106.862L89.9863 106.962L90.0817 107.058L90.1744 107.15L90.2641 107.238L90.3511 107.321L90.4351 107.4L90.5164 107.475L90.5947 107.546L90.6703 107.612L90.7429 107.675L90.8127 107.732L90.8797 107.786L90.9437 107.835L91.0049 107.88L91.0632 107.921L91.1187 107.957L91.1713 107.989L91.221 108.017L91.2678 108.04L91.3118 108.059L91.3529 108.074L91.3911 108.085L91.4265 108.091L91.459 108.092L91.4886 108.089L91.5154 108.082L91.5393 108.071L91.5603 108.055L91.5785 108.035L91.5938 108.01L91.6063 107.982L91.6159 107.948L91.6227 107.911L91.6266 107.869L91.6277 107.822L91.626 107.772L91.6214 107.717L91.614 107.657L91.6038 107.593L91.5908 107.525L91.575 107.453L91.5563 107.376L91.5349 107.295L91.5107 107.209L91.4837 107.119L91.4539 107.025L91.4214 106.927L91.386 106.824L91.348 106.717L91.3072 106.605L91.2636 106.49L91.2173 106.37L91.1683 106.245L91.1166 106.117L91.0622 105.984L91.005 105.847L90.9452 105.705L90.8827 105.56L90.8176 105.41L90.7498 105.256L90.6793 105.098L90.6062 104.936L90.5305 104.769L90.4522 104.598L90.3712 104.423L90.2877 104.244L90.2016 104.061L90.1129 103.874L90.0217 103.683L89.9279 103.487L89.8316 103.288L89.7328 103.084L89.6314 102.877L89.5276 102.665L89.4213 102.449L89.3126 102.23L89.2013 102.006L89.0877 101.779L88.9716 101.547L88.8531 101.312L88.7322 101.073L88.609 100.83L88.4833 100.583L88.3554 100.332L88.225 100.077L88.0924 99.8186L87.9575 99.5564L87.8203 99.2904L41.4856 13.9629L41.3372 13.7028L41.1907 13.4468L41.0461 13.1947L40.9034 12.9466L40.7627 12.7025L40.6238 12.4625L40.487 12.2266L40.3521 11.9948L40.2191 11.7671L40.0881 11.5436L39.9592 11.3243L39.8321 11.1091L39.7071 10.8982L39.5841 10.6915L39.4631 10.489L39.3441 10.2908L39.2271 10.097L39.1122 9.9074L38.9993 9.72218L38.8884 9.54131L38.7795 9.36482L38.6727 9.19271L38.568 9.02502L38.4653 8.86175L38.3647 8.70292L38.2662 8.54855L38.1697 8.39866L38.0753 8.25326L37.983 8.11236L37.8928 7.97598L37.8046 7.84414L37.7186 7.71684L37.6346 7.59411L37.5528 7.47595L37.473 7.36238L37.3954 7.25341L37.3198 7.14905L37.2464 7.04932L37.1751 6.95422L37.1059 6.86377L37.0388 6.77797L36.9738 6.69683L36.9109 6.62037L36.8501 6.5486L36.7915 6.48152L36.735 6.41913L36.6806 6.36146L36.6283 6.3085L36.5781 6.26026L36.5301 6.21675L36.4842 6.17798L36.4403 6.14395L36.3987 6.11466L36.3591 6.09013L36.3216 6.07035L36.2863 6.05532L36.253 6.04506L36.2219 6.03957L36.1929 6.03884L36.1659 6.04288L36.1411 6.05169L36.1184 6.06528L36.0978 6.08363L36.0793 6.10677L36.0628 6.13468L36.0485 6.16736L36.0362 6.20481L36.026 6.24704L36.0179 6.29403L36.0119 6.3458L36.0079 6.40233L36.006 6.46362L36.0062 6.52967L36.0084 6.60047L36.0127 6.67602L36.019 6.75632L36.0274 6.84136L36.0378 6.93114L36.0502 7.02564L36.0646 7.12487L36.0811 7.22881L36.0995 7.33746L36.12 7.45081L36.1425 7.56885L36.1669 7.69157L36.1934 7.81897L36.2218 7.95104L36.2522 8.08776L36.2845 8.22912L36.3188 8.37512L36.3551 8.52573L36.3932 8.68097L36.4334 8.8408L36.4754 9.00521L36.5194 9.1742L36.5652 9.34775L36.613 9.52585L36.6626 9.70848L36.7142 9.89562L36.7675 10.0873L36.8228 10.2834L36.8799 10.484L36.9389 10.6891L36.9996 10.8986L37.0622 11.1125L37.1267 11.3308L37.1929 11.5536L37.2609 11.7806L37.3307 12.0121L37.4022 12.2478L37.4755 12.4879L37.5506 12.7323L37.6274 12.9809L37.7059 13.2338L37.7862 13.4909L37.8681 13.7522L37.9518 14.0177L38.0371 14.2874L38.1241 14.5612L38.2127 14.8392L38.303 15.1212L38.3949 15.4073L70.0086 107.17L70.1117 107.449L70.2135 107.725L70.3142 107.996L70.4135 108.263L70.5117 108.525L70.6086 108.783L70.7042 109.037L70.7986 109.287L70.8918 109.532L70.9837 109.772L71.0743 110.008L71.1637 110.24L71.2517 110.467L71.3386 110.69L71.4241 110.908L71.5083 111.122L71.5913 111.331L71.673 111.535L71.7534 111.735L71.8325 111.93L71.9103 112.121L71.9868 112.306L72.062 112.488L72.1359 112.664L72.2085 112.836L72.2798 113.003L72.3498 113.165L72.4185 113.322L72.4859 113.475L72.552 113.623L72.6167 113.766L72.6802 113.904L72.7423 114.037L72.8032 114.166L72.8627 114.29L72.9208 114.408L72.9777 114.522L73.0333 114.631L73.0875 114.735L73.1405 114.834L73.1921 114.928L73.2424 115.017L73.2914 115.102L73.339 115.181L73.3854 115.255L73.4304 115.324L73.4742 115.389L73.5166 115.448L73.5577 115.502L73.5975 115.551L73.636 115.596L73.6732 115.635L73.7091 115.669L73.7437 115.698L73.777 115.722L73.809 115.741L73.8397 115.755L73.8691 115.764L73.8972 115.768L73.924 115.767L73.9495 115.761L73.9738 115.75L73.9968 115.734L74.0185 115.712L74.0389 115.686L74.0581 115.654L74.076 115.618L74.0926 115.576L74.108 115.53L74.1221 115.478L74.1349 115.422L74.1465 115.36L74.1569 115.293L74.166 115.222L74.1739 115.145L74.1806 115.063L74.186 114.976L74.1902 114.884L74.1932 114.788L74.195 114.686L74.1956 114.579L74.1949 114.467L74.1931 114.351L74.1901 114.229L74.1858 114.103L74.1804 113.971L74.1739 113.835L74.1661 113.693L74.1572 113.547L74.1471 113.396L74.1359 113.24L74.1235 113.079L74.11 112.913L74.0953 112.743L74.0795 112.567L74.0626 112.387L74.0446 112.202L74.0254 112.012L74.0052 111.818L73.9838 111.619L73.9614 111.415L73.9379 111.206L73.9133 110.993L73.8876 110.775L73.8608 110.552L73.833 110.325L73.8042 110.093L73.7743 109.856L73.7434 109.615L73.7114 109.369L73.6784 109.119L73.6444 108.864L73.6094 108.605L73.5735 108.342L73.5365 108.073L73.4985 107.801L73.4596 107.524L73.4196 107.243L73.3788 106.957L73.337 106.667L73.2942 106.373L57.2196 10.379L57.1643 10.0876L57.1095 9.80071L57.0551 9.51818L57.0013 9.24008L56.948 8.96644L56.8952 8.69728L56.843 8.43262L56.7912 8.17249L56.74 7.91692L56.6892 7.66593L56.639 7.41954L56.5893 7.17777L56.5401 6.94064L56.4914 6.70819L56.4432 6.48042L56.3955 6.25737L56.3484 6.03904L56.3017 5.82547L56.2556 5.61666L56.2099 5.41265L56.1648 5.21345L56.1202 5.01907L56.0761 4.82954L56.0325 4.64487L55.9894 4.46508L55.9468 4.29018L55.9047 4.1202L55.8631 3.95515L55.822 3.79505L55.7814 3.6399L55.7413 3.48972L55.7017 3.34453L55.6626 3.20435L55.6239 3.06917L55.5858 2.93903L55.5482 2.81392L55.511 2.69386L55.4743 2.57887L55.4382 2.46895L55.4025 2.36411L55.3672 2.26436L55.3325 2.16972L55.2982 2.08019L55.2645 1.99578L55.2311 1.91649L55.1983 1.84235L55.1659 1.77334L55.134 1.70949L55.1026 1.65079L55.0716 1.59725L55.041 1.54888L55.011 1.50568L54.9814 1.46765L54.9522 1.43481L54.9235 1.40715L54.8952 1.38467L54.8674 1.36739L54.84 1.35529L54.8131 1.34839L54.7865 1.34668L54.7605 1.35016L54.7348 1.35884L54.7096 1.37271L54.6848 1.39178L54.6604 1.41603L54.6365 1.44548L54.6129 1.48011L54.5898 1.51992L54.567 1.56492L54.5447 1.6151L54.5228 1.67045L54.5013 1.73097L54.4802 1.79665L54.4594 1.86749L54.4391 1.94349L54.4191 2.02463L54.3996 2.11091L54.3804 2.20232L54.3616 2.29886L54.3431 2.40051L54.325 2.50727L54.3073 2.61912L54.29 2.73607L54.273 2.85809L54.2563 2.98518L54.2401 3.11733L54.2241 3.25452L54.2085 3.39674L54.1933 3.54398L54.1783 3.69623L54.1638 3.85348L54.1495 4.0157L54.1356 4.18289L54.122 4.35503L54.1087 4.53211L54.0957 4.7141L54.083 4.901L54.0707 5.09279L54.0586 5.28945L54.0469 5.49096L54.0354 5.69731L54.0242 5.90847L54.0134 6.12444L54.0028 6.34518L53.9924 6.57068L53.9824 6.80092L53.9726 7.03588L53.9631 7.27554L53.9539 7.51988L53.9449 7.76887L53.9362 8.02249L53.9277 8.28073L53.9195 8.54355L53.9116 8.81094L53.9038 9.08287L53.8963 9.35931L53.8891 9.64025L53.882 9.92565L53.8752 10.2155L53.8687 10.5097L53.8623 10.8084L53.8612 107.829L53.8675 108.129L53.874 108.424L53.8808 108.715L53.8878 109.001L53.895 109.283L53.9024 109.56L53.9101 109.833L53.918 110.101L53.9262 110.365L53.9346 110.624L53.9433 110.878L53.9522 111.128L53.9614 111.373L53.9708 111.614L53.9806 111.85L53.9906 112.081L54.0008 112.307L54.0114 112.529L54.0222 112.745L54.0333 112.958L54.0447 113.165L54.0564 113.367L54.0684 113.565L54.0807 113.757L54.0933 113.945L54.1063 114.128L54.1195 114.306L54.133 114.479L54.1469 114.647L54.1611 114.81L54.1756 114.969L54.1905 115.122L54.2057 115.27L54.2212 115.413L54.2371 115.551L54.2533 115.684L54.2699 115.812L54.2868 115.935L54.3041 116.053L54.3217 116.166L54.3397 116.274L54.3581 116.376L54.3769 116.474L54.396 116.566L54.4155 116.653L54.4354 116.735L54.4556 116.812L54.4763 116.884L54.4973 116.951L54.5188 117.012L54.5406 117.069L54.5629 117.12L54.5855 117.166L54.6086 117.207L54.632 117.242L54.6559 117.273L54.6802 117.298L54.705 117.318L54.7301 117.333L54.7557 117.342L54.7817 117.347L54.8081 117.346L54.835 117.34L54.8623 117.329L54.89 117.313L54.9182 117.291L54.9468 117.264L54.9759 117.232L55.0055 117.195L55.0354 117.153L55.0659 117.106L55.0968 117.053L55.1281 116.995L55.16 116.933L55.1923 116.864L55.225 116.791L55.2582 116.713L55.2919 116.629L55.3261 116.541L55.3608 116.447L55.3959 116.348L55.4315 116.244L55.4676 116.136L55.5042 116.021L55.5412 115.902L55.5788 115.778L55.6168 115.649L55.6554 115.515L55.6944 115.375L55.7339 115.231L55.7739 115.082L55.8144 114.928L55.8554 114.769L55.8969 114.604L55.9389 114.435L55.9814 114.261L56.0245 114.082L56.068 113.899L56.112 113.71L56.1565 113.517L56.2016 113.318L56.2471 113.115L56.2931 112.907L56.3397 112.695L56.3868 112.477L56.4343 112.255L56.4824 112.028L56.531 111.796L56.5801 111.56L56.6297 111.319L56.6799 111.074L56.7305 110.824L56.7817 110.569L56.8334 110.31L56.8855 110.046L56.9382 109.777L56.9914 109.505L57.0451 109.227L57.0994 108.946L57.1541 108.659L57.2093 108.369L73.2862 12.3761L73.3291 12.081L73.3711 11.7902L73.4121 11.5037L73.4522 11.2215L73.4913 10.9438L73.5295 10.6704L73.5667 10.4015L73.6029 10.137L73.638 9.8769L73.6722 9.62134L73.7054 9.3703L73.7375 9.12378L73.7686 8.88181L73.7987 8.64441L73.8278 8.41161L73.8558 8.18342L73.8827 7.95986L73.9086 7.74095L73.9334 7.52671L73.9571 7.31716L73.9798 7.11232L74.0013 6.9122L74.0218 6.71682L74.0411 6.52619L74.0594 6.34034L74.0765 6.15928L74.0925 5.98302L74.1074 5.81157L74.1211 5.64496L74.1337 5.4832L74.1451 5.3263L74.1554 5.17426L74.1645 5.02712L74.1725 4.88487L74.1793 4.74753L74.1849 4.61511L74.1894 4.48762L74.1926 4.36507L74.1947 4.24748L74.1955 4.13484L74.1952 4.02717L74.1936 3.92448L74.1909 3.82678L74.1869 3.73407L74.1817 3.64636L74.1753 3.56365L74.1676 3.48596L74.1587 3.41329L74.1486 3.34565L74.1372 3.28303L74.1246 3.22545L74.1107 3.17291L74.0955 3.1254L74.0791 3.08294L74.0615 3.04553L74.0426 3.01316L74.0224 2.98585L74.0009 2.96359L73.9782 2.94638L73.9541 2.93422L73.9288 2.92712L73.9022 2.92507L73.8744 2.92807L73.8452 2.93611L73.8147 2.94921L73.783 2.96735L73.7499 2.99053L73.7156 3.01875L73.6799 3.05201L73.643 3.09029L73.6047 3.1336L73.5652 3.18193L73.5243 3.23528L73.4821 3.29363L73.4386 3.35699L73.3938 3.42534L73.3477 3.49868L73.3003 3.577L73.2515 3.66028L73.2015 3.74854L73.1501 3.84175L73.0974 3.93989L73.0434 4.04298L72.9881 4.15098L72.9315 4.2639L72.8735 4.38172L72.8143 4.50442L72.7537 4.63201L72.6918 4.76445L72.6286 4.90175L72.5641 5.04388L72.4983 5.19083L72.4311 5.34259L72.3627 5.49915L72.2929 5.66048L72.2218 5.82657L72.1495 5.99741L72.0758 6.17298L72.0008 6.35326L71.9246 6.53823L71.847 6.72788L71.7681 6.92219L71.688 7.12113L71.6065 7.3247L71.5238 7.53287L71.4398 7.74561L71.3545 7.96292L71.2679 8.18476L71.1801 8.41112L71.091 8.64198L71.0006 8.87732L70.9089 9.1171L70.816 9.36131L70.7218 9.60993L70.6264 9.86293L70.5297 10.1203L70.4318 10.382L70.3327 10.648L70.2323 10.9183L70.1307 11.1928L70.0278 11.4716L38.3199 103.52L38.2293 103.802L38.1404 104.081L38.0531 104.356L37.9674 104.626L37.8835 104.892L37.8012 105.155L37.7207 105.412L37.6418 105.666L37.5647 105.916L37.4893 106.161L37.4157 106.402L37.3438 106.638L37.2737 106.87L37.2053 107.098L37.1388 107.322L37.074 107.541L37.0111 107.756L36.95 107.966L36.8907 108.172L36.8332 108.373L36.7776 108.57L36.7239 108.763L36.672 108.951L36.622 109.134L36.5739 109.313L36.5277 109.488L36.4834 109.657L36.441 109.823L36.4005 109.983L36.362 110.139L36.3254 110.291L36.2907 110.438L36.258 110.58L36.2273 110.718L36.1985 110.851L36.1717 110.979L36.1468 111.102L36.124 111.221L36.1032 111.336L36.0843 111.445L36.0675 111.55L36.0527 111.65L36.0399 111.745L36.0291 111.836L36.0204 111.922L36.0137 112.003L36.0091 112.08L36.0065 112.151L36.0059 112.218L36.0074 112.28L36.011 112.338L36.0167 112.39L36.0244 112.438L36.0342 112.481L36.046 112.52L36.06 112.553L36.076 112.582L36.0942 112.606L36.1144 112.625L36.1367 112.64L36.1612 112.649L36.1877 112.654L36.2163 112.655L36.2471 112.65L36.2799 112.641L36.3149 112.626L36.352 112.608L36.3912 112.584L36.4325 112.555L36.4759 112.522L36.5214 112.484L36.5691 112.442L36.6188 112.394L36.6707 112.342L36.7247 112.286L36.7809 112.224L36.8391 112.158L36.8995 112.087L36.962 112.011L37.0266 111.931L37.0933 111.846L37.1621 111.757L37.233 111.662L37.3061 111.563L37.3812 111.46L37.4585 111.352L37.5378 111.239L37.6193 111.122L37.7029 111L37.7885 110.873L37.8763 110.742L37.9661 110.607L38.0581 110.467L38.1521 110.322L38.2481 110.173L38.3463 110.02L38.4465 109.862L38.5488 109.699L38.6532 109.532L38.7596 109.361L38.868 109.185L38.9786 109.005L39.0911 108.821L39.2057 108.632L39.3223 108.439L39.4409 108.242L39.5615 108.04L39.6842 107.834L39.8088 107.624L39.9355 107.41L40.0641 107.191L40.1947 106.968L40.3273 106.741L40.4618 106.51L40.5983 106.275L40.7368 106.036L40.8772 105.793L41.0195 105.545L41.1637 105.294L41.3099 105.039L87.9322 19.1862L88.0676 18.9233L88.2006 18.6642L88.3314 18.4088L88.4598 18.1573L88.5859 17.9096L88.7096 17.6657L88.8309 17.4257L88.9498 17.1897L89.0663 16.9575L89.1805 16.7292L89.2921 16.5049L89.4013 16.2846L89.5081 16.0683L89.6124 15.8559L89.7142 15.6476L89.8135 15.4433L89.9102 15.243L90.0045 15.0468L90.0962 14.8547L90.1854 14.6667L90.2719 14.4828L90.3559 14.3031L90.4374 14.1274L90.5162 13.9559L90.5924 13.7886L90.666 13.6254L90.7369 13.4665L90.8052 13.3117L90.8709 13.1611L90.9339 13.0148L90.9942 12.8727L91.0518 12.7348L91.1067 12.6012L91.1589 12.4719L91.2084 12.3468L91.2552 12.226L91.2993 12.1094L91.3406 11.9972L91.3792 11.8893L91.415 11.7857L91.4481 11.6864L91.4784 11.5914L91.5059 11.5007L91.5306 11.4144L91.5526 11.3324L91.5717 11.2548L91.5881 11.1815L91.6016 11.1125L91.6124 11.0479L91.6203 10.9877L91.6254 10.9318L91.6276 10.8803L91.627 10.8331L91.6236 10.7903L91.6174 10.7519L91.6083 10.7178L91.5963 10.6882L91.5815 10.6628L91.5639 10.6419L91.5434 10.6253L91.52 10.613L91.4938 10.6051L91.4647 10.6016L91.4327 10.6025L91.3979 10.6077L91.3602 10.6172L91.3196 10.6311L91.2762 10.6493L91.2299 10.6719L91.1807 10.6988L91.1287 10.73L91.0737 10.7656L91.0159 10.8055L90.9553 10.8496L90.8917 10.8981L90.8253 10.9509L90.7561 11.008L90.6839 11.0693L90.609 11.1349L90.5311 11.2048L90.4504 11.279L90.3669 11.3573L90.2805 11.4399L90.1912 11.5268L90.0991 11.6178L90.0042 11.7131L89.9064 11.8125L89.8058 11.9162L89.7024 12.0239L89.5962 12.1359L89.4871 12.252L89.3753 12.3722L89.2606 12.4965L89.1431 12.625L89.0229 12.7575L88.8999 12.8941L88.7741 13.0347L88.6455 13.1794L88.5141 13.3281L88.3801 13.4808L88.2432 13.6375L88.1037 13.7982L87.9614 13.9629L87.8163 14.1315L87.6686 14.304L87.5182 14.4804L87.3651 14.6607L87.2093 14.8449L87.0508 15.0329L86.8896 15.2248L86.7259 15.4204L86.5594 15.6199L86.3904 15.8231L86.2187 16.0301L86.0444 16.2408L85.8676 16.4552L85.6881 16.6732L85.5061 16.895L85.3215 17.1203L85.1344 17.3493L24.9719 94.3855L24.7959 94.6217L24.6227 94.8544L24.4525 95.0838L24.2852 95.3098L24.1208 95.5324L23.9595 95.7516L23.8011 95.9674L23.6457 96.1797L23.4933 96.3885L23.344 96.5938L23.1978 96.7957L23.0546 96.994L22.9145 97.1888L22.7775 97.3801L22.6437 97.5678L22.5129 97.7519L22.3854 97.9324L22.261 98.1094L22.1398 98.2827L22.0218 98.4524L21.907 98.6185L21.7954 98.7809L21.6871 98.9397L21.582 99.0948L21.4802 99.2462L21.3817 99.394L21.2865 99.538L21.1946 99.6783L21.106 99.8149L21.0207 99.9478L20.9388 100.077L20.8602 100.202L20.785 100.324L20.7131 100.442L20.6447 100.556L20.5796 100.666L20.5179 100.773L20.4597 100.876L20.4049 100.975L20.3535 101.07L20.3055 101.161L20.261 101.249L20.2199 101.332L20.1823 101.412L20.1482 101.488L20.1176 101.561L20.0904 101.629L20.0667 101.694L20.0465 101.754L20.0299 101.811L20.0167 101.865L20.007 101.914L20.0009 101.959L19.9982 102.001L19.9991 102.039L20.0036 102.072L20.0115 102.103L20.023 102.129L20.0381 102.151L20.0566 102.17L20.0787 102.184L20.1044 102.195L20.1336 102.202L20.1664 102.206L20.2026 102.205L20.2425 102.201L20.2859 102.193L20.3328 102.18L20.3833 102.165L20.4374 102.145L20.495 102.122L20.5561 102.094L20.6208 102.063L20.689 102.029L20.7607 101.99L20.836 101.948L20.9148 101.902L20.9972 101.852L21.0831 101.798L21.1725 101.741L21.2654 101.68L21.3618 101.615L21.4618 101.547L21.5652 101.475L21.6722 101.399L21.7826 101.319L21.8965 101.236L22.0139 101.149L22.1348 101.059L22.2591 100.965L22.3869 100.867L22.5182 100.766L22.6529 100.661L22.791 100.552L22.9325 100.44L23.0775 100.324L23.2258 100.205L23.3776 100.083L23.5327 99.9564L23.6912 99.8267L23.8531 99.6935L24.0183 99.5568L24.1869 99.4167L24.3588 99.2731L24.534 99.1262L24.7126 98.9758L24.8944 98.822L25.0795 98.6649L25.2678 98.5044L25.4595 98.3406L25.6543 98.1734L25.8524 98.003L26.0537 97.8293L26.2582 97.6523L26.4658 97.4721L26.6767 97.2886L26.8906 97.102L27.1078 96.9122L27.328 96.7192L27.5513 96.523L99.1798 30.8185L99.3981 30.6098L99.6131 30.4038L99.8247 30.2007L100.033 30.0004L100.238 29.8029L100.439 29.6083L100.637 29.4166L100.831 29.2277L101.022 29.0418L101.209 28.8588L101.393 28.6787L101.573 28.5015L101.749 28.3273L101.922 28.1561L102.091 27.9878L102.257 27.8226L102.419 27.6603L102.577 27.501L102.732 27.3448L102.882 27.1916L103.029 27.0415L103.173 26.8943L103.312 26.7503L103.448 26.6093L103.58 26.4714L103.708 26.3366L103.832 26.2049L103.953 26.0763L104.069 25.9508L104.182 25.8285L104.29 25.7092L104.395 25.5931L104.496 25.4801L104.593 25.3703L104.686 25.2636L104.775 25.1601L104.861 25.0598L104.942 24.9626L105.019 24.8686L105.092 24.7778L105.161 24.6901L105.227 24.6057L105.288 24.5244L105.345 24.4463L105.398 24.3714L105.447 24.2997L105.492 24.2313L105.533 24.166L105.57 24.1039L105.603 24.045L105.631 23.9894L105.656 23.9369L105.676 23.8877L105.693 23.8416L105.705 23.7988L105.713 23.7592L105.717 23.7228L105.717 23.6896L105.713 23.6596L105.705 23.6328L105.693 23.6093L105.676 23.5889L105.655 23.5717L105.631 23.5577L105.602 23.5469L105.569 23.5393L105.532 23.5349L105.49 23.5337L105.445 23.5357L105.395 23.5408L105.342 23.5491L105.284 23.5606L105.222 23.5752L105.156 23.593L105.086 23.6139L105.011 23.638L104.933 23.6652L104.85 23.6956L104.764 23.729L104.673 23.7656L104.578 23.8053L104.479 23.8481L104.376 23.894L104.269 23.943L104.158 23.9951L104.043 24.0502L103.924 24.1084L103.801 24.1696L103.673 24.2339L103.542 24.3012L103.406 24.3716L103.267 24.4449L103.124 24.5212L102.976 24.6006L102.825 24.6829L102.669 24.7682L102.51 24.8564L102.347 24.9476L102.18 25.0417L102.008 25.1387L101.833 25.2386L101.654 25.3415L101.472 25.4472L101.285 25.5558L101.094 25.6672L100.9 25.7814L100.701 25.8985L100.499 26.0184L100.293 26.1411L100.084 26.2666L99.8703 26.3949L99.6531 26.5259L99.4322 26.6596L99.2075 26.796L98.9792 26.9352L98.7471 27.077L98.5114 27.2216L98.272 27.3687L98.029 27.5185L97.7824 27.671L97.5322 27.826L97.2785 27.9836L15.7765 81.0463L15.5278 81.2157L15.2829 81.3829L15.0418 81.5479L14.8046 81.7106L14.5712 81.8711L14.3417 82.0294L14.1161 82.1853L13.8945 82.339L13.6768 82.4904L13.4631 82.6395L13.2534 82.7863L13.0478 82.9308L12.8462 83.073L12.6486 83.2128L12.4551 83.3503L12.2658 83.4854L12.0806 83.6182L11.8995 83.7486L11.7226 83.8766L11.5498 84.0023L11.3813 84.1255L11.217 84.2464L11.0569 84.3649L10.901 84.4809L10.7495 84.5946L10.6022 84.7058L10.4592 84.8146L10.3205 84.9209L10.1862 85.0248L10.0562 85.1263L9.93055 85.2253L9.80928 85.3219L9.69241 85.416L9.57993 85.5077L9.47186 85.5969L9.36821 85.6836L9.269 85.7679L9.17424 85.8496L9.08393 85.9289L8.9981 86.0058L8.91674 86.0801L8.83986 86.152L8.76749 86.2213L8.69963 86.2882L8.63628 86.3526L8.57745 86.4145L8.52315 86.4739L8.4734 86.5308L8.42818 86.5852L8.38753 86.6372L8.35143 86.6866L8.31989 86.7335L8.29292 86.778L8.27053 86.8199L8.25272 86.8594L8.23949 86.8964L8.23084 86.9308L8.22679 86.9628L8.22733 86.9923L8.23246 87.0193L8.2422 87.0439L8.25653 87.0659L8.27546 87.0855L8.29899 87.1026L8.32713 87.1172L8.35986 87.1293L8.3972 87.139L8.43914 87.1463L8.48567 87.151L8.5368 87.1534L8.59253 87.1532L8.65285 87.1506L8.71775 87.1456L8.78725 87.1382L8.86132 87.1283L8.93998 87.116L9.0232 87.1013L9.111 87.0841L9.20336 87.0646L9.30027 87.0426L9.40174 87.0183L9.50774 86.9916L9.61829 86.9625L9.73336 86.931L9.85296 86.8971L9.97707 86.8609L10.1057 86.8224L10.2388 86.7815L10.3764 86.7383L10.5184 86.6927L10.665 86.6448L10.816 86.5946L10.9714 86.5422L11.1312 86.4874L11.2955 86.4303L11.4642 86.371L11.6373 86.3094L11.8147 86.2456L11.9965 86.1795L12.1827 86.1112L12.3732 86.0407L12.568 85.9679L12.7672 85.893L12.9706 85.8159L13.1783 85.7365L13.3903 85.6551L13.6065 85.5714L13.8269 85.4857L14.0516 85.3978L14.2804 85.3078L14.5134 85.2156L14.7505 85.1214L14.9918 85.0251L15.2372 84.9267L15.4867 84.8263L15.7402 84.7238L15.9979 84.6193L16.2595 84.5128L16.5251 84.4043L16.7948 84.2938L17.0684 84.1813L106.499 45.0934L106.771 44.9676L107.039 44.8433L107.302 44.7206L107.562 44.5995L107.817 44.4799L108.069 44.362L108.316 44.2456L108.558 44.1309L108.797 44.0177L109.031 43.9062L109.261 43.7963L109.486 43.688L109.707 43.5814L109.924 43.4764L110.136 43.373L110.343 43.2713L110.547 43.1712L110.745 43.0728L110.94 42.976L111.129 42.881L111.315 42.7875L111.495 42.6958L111.671 42.6057L111.843 42.5173L112.01 42.4306L112.172 42.3456L112.33 42.2623L112.482 42.1806L112.631 42.1007L112.774 42.0224L112.913 41.9459L113.047 41.871L113.177 41.7979L113.301 41.7264L113.421 41.6567L113.536 41.5887L113.646 41.5224L113.752 41.4578L113.853 41.3949L113.949 41.3337L114.04 41.2743L114.126 41.2165L114.207 41.1605L114.284 41.1062L114.355 41.0536L114.422 41.0027L114.484 40.9536L114.541 40.9061L114.593 40.8604L114.64 40.8164L114.682 40.774L114.72 40.7334L114.752 40.6945L114.78 40.6574L114.802 40.6219L114.82 40.5881L114.833 40.5561L114.84 40.5257L114.843 40.497L114.841 40.4701L114.834 40.4448L114.822 40.4212L114.805 40.3993L114.783 40.3791L114.756 40.3606L114.725 40.3437L114.688 40.3286L114.646 40.3151L114.599 40.3032L114.548 40.2931L114.491 40.2846L114.43 40.2777L114.364 40.2725L114.292 40.269L114.216 40.2671L114.135 40.2668L114.049 40.2682L113.958 40.2712L113.862 40.2758L113.762 40.2821L113.656 40.2899L113.545 40.2994L113.43 40.3105L113.31 40.3231L113.185 40.3374L113.055 40.3532L112.92 40.3706L112.781 40.3896L112.636 40.4102L112.487 40.4323L112.333 40.4559L112.175 40.4811L112.011 40.5079L111.843 40.5361L111.67 40.5659L111.493 40.5972L111.31 40.63L111.123 40.6644L110.932 40.7002L110.735 40.7375L110.534 40.7762L110.329 40.8165L110.119 40.8582L109.904 40.9013L109.684 40.9459L109.46 40.992L109.232 41.0394L108.999 41.0883L108.762 41.1386L108.52 41.1903L108.273 41.2433L108.022 41.2978L107.767 41.3536L107.508 41.4108L107.244 41.4694L106.975 41.5293L106.703 41.5905L106.426 41.653L106.144 41.7169L105.859 41.782L105.569 41.8485L10.903 65.7377L10.6152 65.8169L10.3317 65.8953L10.0526 65.9727L9.77785 66.0494L9.50752 66.1251L9.24163 66.2L8.9802 66.274L8.72324 66.3471L8.47079 66.4193L8.22288 66.4906L7.97951 66.5611L7.74072 66.6307L7.50653 66.6993L7.27696 66.7671L7.05203 66.834L6.83177 66.9L6.61619 66.9651L6.40531 67.0292L6.19915 67.0925L5.99774 67.1549L5.80109 67.2164L5.60922 67.277L5.42215 67.3367L5.2399 67.3955L5.06248 67.4534L4.88991 67.5103L4.72221 67.5664L4.5594 67.6216L4.40148 67.6758L4.24847 67.7292L4.1004 67.7816L3.95727 67.8332L3.81909 67.8838L3.68589 67.9336L3.55766 67.9824L3.43444 68.0304L3.31622 68.0774L3.20302 68.1235L3.09485 68.1688L2.99172 68.2131L2.89364 68.2565L2.80062 68.2991L2.71267 68.3407L2.6298 68.3815L2.55202 68.4213L2.47933 68.4603L2.41175 68.4983L2.34927 68.5355L2.29191 68.5718L2.23967 68.6072L2.19256 68.6418L2.15059 68.6754L2.11374 68.7082L2.08205 68.7401L2.05549 68.7711L2.03409 68.8013L2.01783 68.8305L2.00673 68.8589L2.00079 68.8865L2 68.9132L2.00437 68.939L2.0139 68.964L2.02858 68.9881L2.04843 69.0113L2.07343 69.0338L2.10359 69.0553L2.1389 69.0761L2.17936 69.096L2.22497 69.115L2.27573 69.1333L2.33162 69.1507L2.39266 69.1672L2.45883 69.183L2.53012 69.1979L2.60654 69.212L2.68807 69.2254L2.77471 69.2379L2.86645 69.2496L2.96329 69.2605L3.06522 69.2706L3.17222 69.28L3.2843 69.2885L3.40143 69.2963L3.52362 69.3033L3.65084 69.3095L3.7831 69.3149L3.92037 69.3196L4.06265 69.3235L4.20993 69.3267L4.36219 69.3291L4.51941 69.3308L4.6816 69.3318L4.84872 69.332L5.02078 69.3315L5.19775 69.3302L5.37961 69.3282L5.56636 69.3256L5.75797 69.3222L5.95444 69.3181L6.15573 69.3133L6.36184 69.3078L6.57275 69.3016L6.78844 69.2948L7.00889 69.2872L7.23408 69.279L7.46399 69.2701L7.69861 69.2606L7.9379 69.2504L8.18186 69.2396L8.43045 69.2281L8.68366 69.2159L8.94147 69.2032L9.20385 69.1898L9.47078 69.1758L9.74223 69.1611L10.0182 69.1459L10.2986 69.1301L10.5835 69.1136L10.8728 69.0966L11.1666 69.079L11.4647 69.0608L108.785 61.022L109.08 60.9911L109.372 60.9604L109.658 60.9298L109.941 60.8993L110.218 60.869L110.492 60.8388L110.76 60.8087L111.024 60.7788L111.284 60.749L111.539 60.7194L111.789 60.6898L112.035 60.6604L112.276 60.6311L112.512 60.602L112.743 60.5729L112.97 60.544L113.192 60.5152L113.409 60.4865L113.621 60.4579L113.829 60.4295L114.031 60.4011L114.229 60.3729L114.422 60.3447L114.61 60.3166L114.793 60.2887L114.971 60.2608L115.144 60.2331L115.312 60.2054L115.476 60.1778L115.634 60.1503L115.787 60.1229L115.935 60.0955L116.078 60.0682L116.216 60.0411L116.349 60.0139L116.477 59.9869L116.6 59.9599L116.718 59.933L116.83 59.9061L116.938 59.8793L117.04 59.8526L117.137 59.8259L117.229 59.7993L117.316 59.7727L117.398 59.7462L117.475 59.7197L117.546 59.6932L117.612 59.6668L117.673 59.6404L117.729 59.6141L117.78 59.5877L117.825 59.5614L117.865 59.5352L117.9 59.5089L117.93 59.4827L117.954 59.4565L117.973 59.4302L117.988 59.4041L117.996 59.3779L118 59.3517" stroke="url(#paint0_radial_501_146)" stroke-width="2"/>
<defs>
<radialGradient id="paint0_radial_501_146" cx="0" cy="0" r="1" gradientUnits="userSpaceOnUse" gradientTransform="translate(21.433 21.3776) rotate(54.4147) scale(125.359)">
<stop stop-color="#F0C6FF"/>
<stop offset="1" stop-color="#C6D6FF"/>
</radialGradient>
</defs>
</svg>
