<svg width="120" height="119" viewBox="0 0 120 119" fill="none" xmlns="http://www.w3.org/2000/svg">
<path d="M118 59.3468L117.949 59.9544L117.796 60.5613L117.541 61.1671L117.184 61.7712L116.727 62.3729L116.17 62.9717L115.514 63.567L114.761 64.1582L113.911 64.7447L112.966 65.326L111.927 65.9015L110.797 66.4705L109.578 67.0326L108.272 67.5872L106.88 68.1336L105.407 68.6714L103.853 69.1999L102.222 69.7186L100.517 70.227L98.7403 70.7244L96.8958 71.2104L94.9865 71.6844L93.0158 72.1458L90.987 72.5942L88.9039 73.0289L86.77 73.4495L84.5892 73.8556L82.3654 74.2464L80.1023 74.6216L77.8041 74.9807L75.4747 75.3231L73.1184 75.6485L70.7391 75.9564L68.3412 76.2462L65.9289 76.5176L63.5064 76.7701L61.0779 77.0034L58.6478 77.2169L56.2203 77.4105L53.7997 77.5835L51.3902 77.7358L48.9961 77.8669L46.6215 77.9766L44.2707 78.0646L41.9478 78.1304L39.6567 78.174L37.4016 78.195L35.1864 78.1932L33.0149 78.1684L30.891 78.1204L28.8183 78.0491L26.8005 77.9543L24.8411 77.836L22.9434 77.6939L21.1109 77.5282L19.3466 77.3386L17.6536 77.1253L16.0348 76.8883L14.4931 76.6275L13.0311 76.3431L11.6512 76.0352L10.356 75.704L9.14751 75.3495L8.02788 74.972L6.999 74.5718L6.06261 74.149L5.22026 73.7041L4.47338 73.2372L3.8232 72.7489L3.27078 72.2394L2.817 71.7092L2.46258 71.1587L2.20807 70.5886L2.05381 69.9992L2 69.3912L2.04664 68.7651L2.19354 68.1216L2.44038 67.4613L2.78661 66.7849L3.23154 66.0931L3.77428 65.3868L4.4138 64.6667L5.14887 63.9335L5.97811 63.1882L6.89996 62.4316L7.91271 61.6647L9.0145 60.8883L10.2033 60.1035L11.4769 59.3111L12.833 58.5123L14.2691 57.708L15.7827 56.8993L17.3709 56.0873L19.0309 55.2731L20.7597 54.4578L22.5542 53.6425L24.4112 52.8284L26.3273 52.0166L28.2991 51.2083L30.3231 50.4047L32.3956 49.607L34.5129 48.8164L36.6714 48.0341L38.8671 47.2614L41.0961 46.4993L43.3546 45.7492L45.6384 45.0123L47.9435 44.2898L50.2659 43.5828L52.6015 42.8926L54.9462 42.2203L57.2958 41.5672L59.6462 40.9344L61.9932 40.323L64.3328 39.7342L66.6609 39.1691L68.9734 38.6287L71.2662 38.1141L73.5354 37.6264L75.7771 37.1666L77.9873 36.7356L80.1621 36.3344L82.2979 35.9638L84.391 35.6248L86.4376 35.3182L88.4345 35.0448L90.378 34.8052L92.2649 34.6004L94.0919 34.4308L95.856 34.2971L97.5541 34.1998L99.1834 34.1396L100.741 34.1168L102.225 34.1318L103.632 34.185L104.96 34.2766L106.206 34.407L107.37 34.5763L108.448 34.7845L109.439 35.0318L110.342 35.3182L111.155 35.6435L111.877 36.0077L112.507 36.4105L113.043 36.8516L113.486 37.3309L113.833 37.8477L114.086 38.4018L114.243 38.9926L114.305 39.6194L114.272 40.2817L114.144 40.9787L113.921 41.7096L113.603 42.4736L113.193 43.2698L112.69 44.0972L112.095 44.9547L111.41 45.8414L110.636 46.756L109.776 47.6973L108.829 48.6641L107.799 49.6551L106.686 50.6688L105.494 51.7039L104.225 52.7588L102.88 53.8322L101.463 54.9223L99.9763 56.0276L98.422 57.1465L96.8034 58.2772L95.1234 59.4181L93.3852 60.5674L91.5918 61.7232L89.7465 62.8838L87.8526 64.0474L85.9137 65.2121L83.9331 66.376L81.9144 67.5371L79.8613 68.6937L77.7774 69.8437L75.6664 70.9854L73.532 72.1166L71.3782 73.2355L69.2085 74.3402L67.027 75.4287L64.8374 76.4992L62.6436 77.5498L60.4494 78.5785L58.2587 79.5835L56.0752 80.563L53.9028 81.5151L51.7453 82.4381L49.6063 83.3303L47.4896 84.1899L45.3988 85.0152L43.3375 85.8047L41.3092 86.5568L39.3174 87.2699L37.3654 87.9426L35.4566 88.5734L33.5942 89.1611L31.7813 89.7042L30.021 90.2015L28.3162 90.652L26.6697 91.0545L25.0842 91.4079L23.5624 91.7114L22.1068 91.9641L20.7196 92.1651L19.4031 92.3138L18.1595 92.4096L16.9907 92.4518L15.8986 92.4401L14.8847 92.3741L13.9508 92.2535L13.0982 92.0781L12.3281 91.8479L11.6417 91.5627L11.0399 91.2229L10.5235 90.8284L10.0932 90.3796L9.74952 89.8769L9.49278 89.3208L9.32317 88.7117L9.24073 88.0505L9.24536 87.3378L9.33679 86.5744L9.5146 85.7614L9.77823 84.8998L10.127 83.9906L10.5599 83.0352L11.0761 82.0347L11.6744 80.9906L12.3535 79.9044L13.1119 78.7777L13.9481 77.612L14.8604 76.409L15.847 75.1706L16.9059 73.8987L18.0351 72.5951L19.2323 71.2619L20.4953 69.9011L21.8217 68.5149L23.2089 67.1054L24.6543 65.6749L26.1554 64.2256L27.7091 62.76L29.3128 61.2804L30.9633 59.7892L32.6578 58.2888L34.3931 56.7819L36.1661 55.2708L37.9735 53.7581L39.8122 52.2464L41.6788 50.7383L43.5699 49.2363L45.4823 47.743L47.4124 46.2611L49.357 44.793L51.3126 43.3414L53.2757 41.9089L55.243 40.498L57.211 39.1112L59.1762 37.751L61.1353 36.4199L63.085 35.1203L65.0218 33.8547L66.9424 32.6253L68.8437 31.4345L70.7223 30.2846L72.5752 29.1776L74.3991 28.1158L76.191 27.1012L77.948 26.1358L79.6672 25.2215L81.3456 24.3602L82.9806 23.5536L84.5695 22.8033L86.1097 22.1111L87.5988 21.4783L89.0344 20.9064L90.4141 20.3966L91.7358 19.9503L92.9975 19.5684L94.1973 19.2519L95.3332 19.0019L96.4036 18.8189L97.4069 18.7037L98.3416 18.6568L99.2064 18.6787L100 18.7696L100.722 18.9298L101.37 19.1593L101.944 19.4581L102.444 19.826L102.869 20.2628L103.218 20.7679L103.491 21.341L103.688 21.9812L103.808 22.688L103.853 23.4603L103.822 24.2971L103.716 25.1974L103.535 26.1598L103.28 27.1831L102.951 28.2657L102.55 29.406L102.077 30.6024L101.534 31.8531L100.921 33.1561L100.241 34.5095L99.4946 35.9111L98.6832 37.3588L97.8088 38.8503L96.8731 40.3832L95.8779 41.955L94.8254 43.5632L93.7174 45.2051L92.5563 46.8782L91.3442 48.5797L90.0835 50.3066L88.7765 52.0563L87.4257 53.8257L86.0337 55.6118L84.6029 57.4117L83.1361 59.2223L81.6359 61.0405L80.1051 62.8632L78.5464 64.6872L76.9627 66.5095L75.3567 68.3268L73.7313 70.1361L72.0895 71.934L70.434 73.7175L68.7678 75.4834L67.0938 77.2286L65.4149 78.9499L63.7341 80.6443L62.054 82.3088L60.3777 83.9403L58.708 85.5358L57.0477 87.0926L55.3996 88.6076L53.7664 90.0781L52.1508 91.5014L50.5556 92.8749L48.9833 94.1959L47.4364 95.4619L45.9175 96.6706L44.4291 97.8196L42.9735 98.9067L41.5529 99.9297L40.1697 100.887L38.826 101.776L37.5238 102.595L36.2652 103.343L35.052 104.017L33.8861 104.618L32.7692 105.142L31.7028 105.59L30.6886 105.959L29.728 106.25L28.8223 106.46L27.9727 106.591L27.1803 106.64L26.4463 106.608L25.7714 106.495L25.1565 106.3L24.6023 106.023L24.1093 105.665L23.6781 105.226L23.3091 104.706L23.0024 104.106L22.7583 103.427L22.5767 102.67L22.4576 101.836L22.4009 100.925L22.4063 99.9401L22.4734 98.8817L22.6017 97.7517L22.7905 96.5518L23.0394 95.2838L23.3473 93.9498L23.7136 92.5518L24.1371 91.0922L24.6169 89.5731L25.1517 87.9971L25.7403 86.3667L26.3815 84.6846L27.0738 82.9536L27.8156 81.1766L28.6056 79.3565L29.4419 77.4963L30.323 75.5991L31.2471 73.6682L32.2122 71.7069L33.2167 69.7183L34.2584 67.7061L35.3355 65.6735L36.4459 63.624L37.5876 61.5613L38.7583 59.4888L39.956 57.4102L41.1785 55.329L42.4236 53.2489L43.6891 51.1736L44.9727 49.1066L46.2721 47.0516L47.5851 45.0122L48.9095 42.992L50.2429 40.9947L51.583 39.0237L52.9276 37.0827L54.2745 35.175L55.6213 33.3041L56.9659 31.4733L58.3061 29.6861L59.6395 27.9455L60.9642 26.2549L62.278 24.6172L63.5787 23.0356L64.8644 21.5128L66.1329 20.0518L67.3825 18.6552L68.611 17.3257L69.8167 16.0658L70.9978 14.8778L72.1525 13.764L73.279 12.7266L74.3758 11.7676L75.4413 10.8888L76.4739 10.092L77.4723 9.37872L78.435 8.75055L79.3607 8.20872L80.2483 7.75442L81.0965 7.38865L81.9043 7.11227L82.6707 6.92597L83.3948 6.83031L84.0756 6.82566L84.7125 6.91225L85.3047 7.09016L85.8517 7.35927L86.3529 7.71934L86.8078 8.16995L87.2162 8.71051L87.5776 9.34028L87.892 10.0584L88.1592 10.8637L88.3791 11.7551L88.5518 12.7312L88.6773 13.7904L88.7559 14.9311L88.7879 16.1515L88.7735 17.4495L88.7133 18.8232L88.6075 20.2702L88.4569 21.7881L88.2621 23.3745L88.0236 25.0268L87.7424 26.7421L87.4191 28.5175L87.0547 30.3502L86.6501 32.237L86.2063 34.1747L85.7244 36.16L85.2053 38.1895L84.6504 40.2597L84.0608 42.3672L83.4377 44.5082L82.7823 46.6792L82.0961 48.8762L81.3804 51.0957L80.6366 53.3335L79.866 55.586L79.0702 57.8492L78.2506 60.1191L77.4087 62.3917L76.5461 64.6631L75.6642 66.9292L74.7646 69.1862L73.8489 71.4299L72.9187 73.6565L71.9756 75.8621L71.021 78.0426L70.0566 80.1942L69.084 82.3132L68.1048 84.3957L67.1205 86.438L66.1327 88.4364L65.1429 90.3874L64.1527 92.2875L63.1636 94.1332L62.1771 95.9213L61.1946 97.6484L60.2177 99.3114L59.2477 100.907L58.286 102.433L57.3341 103.887L56.3933 105.264L55.4648 106.564L54.5499 107.784L53.65 108.92L52.7661 109.972L51.8995 110.938L51.0512 111.814L50.2224 112.601L49.414 113.295L48.6271 113.897L47.8627 114.404L47.1215 114.816L46.4045 115.131L45.7125 115.35L45.0462 115.471L44.4063 115.495L43.7935 115.421L43.2085 115.248L42.6517 114.978L42.1237 114.611L41.6249 114.147L41.1558 113.586L40.7167 112.93L40.308 112.18L39.9298 111.336L39.5825 110.401L39.2662 109.376L38.9809 108.262L38.7269 107.061L38.504 105.776L38.3124 104.408L38.1518 102.96L38.0223 101.434L37.9236 99.8333L37.8557 98.1599L37.8181 96.4169L37.8107 94.6072L37.8332 92.7341L37.8852 90.8007L37.9663 88.8103L38.0761 86.7665L38.2141 84.6726L38.3798 82.5325L38.5728 80.3497L38.7924 78.1281L39.0381 75.8716L39.3094 73.584L39.6054 71.2693L39.9256 68.9317L40.2694 66.5752L40.6359 64.2039L41.0246 61.822L41.4345 59.4336L41.8651 57.043L42.3154 54.6544L42.7848 52.2718L43.2724 49.8997L43.7773 47.5421L44.2989 45.2031L44.8361 42.887L45.3883 40.5978L45.9545 38.3396L46.5339 36.1163L47.1256 33.9319L47.7288 31.7902L48.3426 29.6952L48.9662 27.6504L49.5986 25.6595L50.2391 23.7261L50.8867 21.8536L51.5407 20.0453L52.2002 18.3045L52.8643 16.6343L53.5321 15.0376L54.203 13.5173L54.876 12.0762L55.5504 10.7167L56.2254 9.44148L56.9001 8.25268L57.5737 7.15247L58.2457 6.14285L58.9151 5.22564L59.5812 4.40251L60.2434 3.67496L60.9009 3.04431L61.553 2.51174L62.1991 2.07822L62.8384 1.74457L63.4704 1.51141L64.0943 1.37923L64.7096 1.34828L65.3158 1.41867L65.9121 1.59032L66.498 1.86298L67.0731 2.2362L67.6367 2.70937L68.1883 3.28169L68.7275 3.9522L69.2537 4.71975L69.7666 5.58303L70.2656 6.54055L70.7503 7.59066L71.2203 8.73154L71.6753 9.96121L72.1148 11.2775L72.5384 12.6782L72.9459 14.1608L73.3369 15.7228L73.7111 17.3613L74.0682 19.0736L74.4079 20.8566L74.73 22.7073L75.0341 24.6223L75.3202 26.5984L75.5878 28.632L75.837 30.7196L76.0674 32.8576L76.2788 35.0421L76.4713 37.2694L76.6445 39.5354L76.7984 41.8364L76.9328 44.1681L77.0477 46.5265L77.143 48.9075L77.2185 51.3068L77.2744 53.7202L77.3104 56.1436L77.3266 58.5726L77.323 61.003L77.2996 63.4304L77.2564 65.8507L77.1934 68.2595L77.1107 70.6526L77.0083 73.0259L76.8863 75.3751L76.7447 77.6961L76.5838 79.9849L76.4036 82.2373L76.2043 84.4495L75.9859 86.6175L75.7487 88.7377L75.4928 90.8061L75.2185 92.8192L74.9258 94.7736L74.6152 96.6656L74.2867 98.4921L73.9406 100.25L73.5773 101.936L73.197 103.547L72.7999 105.08L72.3865 106.533L71.9571 107.904L71.5119 109.189L71.0515 110.387L70.5761 111.495L70.0861 112.511L69.582 113.435L69.0643 114.264L68.5333 114.996L67.9895 115.631L67.4335 116.167L66.8657 116.604L66.2866 116.941L65.6968 117.177L65.0969 117.312L64.4874 117.346L63.8688 117.278L63.2419 117.109L62.6072 116.84L61.9653 116.47L61.317 116L60.6629 115.432L60.0036 114.766L59.3399 114.003L58.6725 113.146L58.0021 112.195L57.3294 111.152L56.6552 110.02L55.9804 108.799L55.3055 107.493L54.6316 106.104L53.9592 104.634L53.2894 103.085L52.6227 101.461L51.9602 99.7653L51.3027 97.9996L50.6509 96.1677L50.0058 94.2727L49.3681 92.318L48.7388 90.3071L48.1187 88.2437L47.5086 86.1313L46.9095 83.9737L46.3221 81.7747L45.7474 79.5383L45.1862 77.2683L44.6394 74.9689L44.1077 72.644L43.5921 70.2978L43.0934 67.9344L42.6123 65.558L42.1498 63.1728L41.7065 60.783L41.2833 58.3927L40.881 56.0062L40.5003 53.6276L40.142 51.2612L39.8067 48.9111L39.4951 46.5813L39.208 44.276L38.946 41.9993L38.7097 39.7549L38.4996 37.547L38.3165 35.3793L38.1607 33.2555L38.0329 31.1794L37.9335 29.1546L37.8629 27.1845L37.8216 25.2726L37.81 23.4221L37.8282 21.6363L37.8768 19.9182L37.9559 18.2707L38.0657 16.6967L38.2065 15.1988L38.3783 13.7796L38.5813 12.4415L38.8155 11.1867L39.0809 10.0173L39.3774 8.93529L39.705 7.94247L40.0635 7.04046L40.4528 6.23072L40.8726 5.51457L41.3226 4.89313L41.8025 4.36738L42.312 3.93811L42.8505 3.60596L43.4176 3.37137L44.0128 3.23462L44.6354 3.19584L45.285 3.25494L45.9607 3.41169L46.6619 3.66568L47.3878 4.01633L48.1375 4.46288L48.9102 5.00443L49.705 5.63986L50.5209 6.36795L51.3569 7.18727L52.212 8.09625L53.085 9.09317L53.9748 10.1761L54.8803 11.3431L55.8002 12.592L56.7334 13.9204L57.6784 15.3258L58.634 16.8058L59.5988 18.3575L60.5715 19.9782L61.5506 21.6648L62.5347 23.4144L63.5224 25.2238L64.5121 27.0896L65.5023 29.0086L66.4915 30.9772L67.4782 32.992L68.4609 35.0493L69.4379 37.1455L70.4077 39.2767L71.3687 41.4393L72.3193 43.6294L73.2579 45.843L74.183 48.0763L75.093 50.3253L75.9864 52.586L76.8614 54.8545L77.7167 57.1268L78.5507 59.3989L79.3619 61.6668L80.1487 63.9265L80.9097 66.1742L81.6435 68.4058L82.3487 70.6175L83.0238 72.8056L83.6676 74.9661L84.2787 77.0954L84.8559 79.1897L85.3979 81.2456L85.9036 83.2595L86.3719 85.2279L86.8015 87.1475L87.1917 89.015L87.5412 90.8272L87.8494 92.5812L88.1152 94.274L88.3379 95.9026L88.5167 97.4645L88.6511 98.957L88.7404 100.378L88.7841 101.724L88.7817 102.994L88.7328 104.186L88.6372 105.297L88.4945 106.326L88.3047 107.272L88.0677 108.132L87.7834 108.906L87.4519 109.592L87.0734 110.19L86.6481 110.698L86.1763 111.115L85.6584 111.443L85.095 111.679L84.4865 111.823L83.8336 111.877L83.1369 111.839L82.3974 111.71L81.6159 111.491L80.7933 111.183L79.9307 110.784L79.0291 110.298L78.0898 109.725L77.114 109.066L76.103 108.322L75.0583 107.495L73.9813 106.587L72.8735 105.599L71.7366 104.534L70.5721 103.393L69.3819 102.179L68.1677 100.893L66.9313 99.5391L65.6746 98.1189L64.3996 96.6351L63.1083 95.0907L61.8026 93.4883L60.4846 91.8311L59.1565 90.122L57.8203 88.3641L56.4783 86.5607L55.1327 84.715L53.7856 82.8303L52.4392 80.9101L51.096 78.9578L49.758 76.9769L48.4277 74.9708L47.1072 72.9433L45.7988 70.8978L44.5049 68.838L43.2276 66.7676L41.9693 64.6901L40.7321 62.6092L39.5183 60.5285L38.3302 58.4517L37.1697 56.3823L36.0392 54.324L34.9407 52.2803L33.8762 50.2547L32.8477 48.2506L31.8573 46.2716L30.9068 44.3209L29.9982 42.4019L29.1331 40.5178L28.3134 38.6718L27.5408 36.8669L26.8167 35.1063L26.1428 33.3927L25.5206 31.7291L24.9513 30.1181L24.4363 28.5625L23.9768 27.0647L23.574 25.6271L23.2288 24.2521L22.9422 22.9418L22.715 21.6984L22.5481 20.5236L22.4419 19.4194L22.3972 18.3875L22.4143 17.4293L22.4936 16.5463L22.6354 15.7398L22.8396 15.011L23.1065 14.3607L23.4358 13.7899L23.8275 13.2993L24.2811 12.8895L24.7964 12.5609L25.3727 12.3138L26.0094 12.1483L26.7059 12.0644L27.4612 12.062L28.2745 12.1408L29.1446 12.3004L30.0704 12.5401L31.0506 12.8594L32.0839 13.2573L33.1688 13.7329L34.3037 14.285L35.4869 14.9125L36.7168 15.6139L37.9915 16.3878L39.309 17.2326L40.6673 18.1465L42.0643 19.1277L43.4978 20.1742L44.9657 21.284L46.4654 22.4549L47.9947 23.6847L49.5511 24.971L51.132 26.3113L52.735 27.7031L54.3572 29.1439L55.9962 30.6309L57.649 32.1614L59.3131 33.7325L60.9855 35.3415L62.6635 36.9853L64.3442 38.661L66.0247 40.3655L67.7021 42.0959L69.3736 43.8489L71.0362 45.6216L72.6871 47.4106L74.3233 49.213L75.9419 51.0256L77.5402 52.8451L79.1152 54.6684L80.6641 56.4923L82.1841 58.3137L83.6725 60.1295L85.1265 61.9366L86.5435 63.7318L87.9209 65.5122L89.2561 67.2748L90.5465 69.0165L91.7899 70.7346L92.9837 72.426L94.1258 74.0881L95.2139 75.7182L96.2459 77.3135L97.2197 78.8714L98.1334 80.3895L98.9851 81.8654L99.7731 83.2966L100.496 84.681L101.152 86.0163L101.739 87.3006L102.257 88.5318L102.704 89.7081L103.079 90.8276L103.381 91.8889L103.609 92.8902L103.763 93.8302L103.842 94.7076L103.846 95.5212L103.773 96.2698L103.625 96.9525L103.4 97.5684L103.1 98.1169L102.723 98.5973L102.271 99.0091L101.745 99.3519L101.143 99.6256L100.468 99.83L99.7204 99.965L98.9007 100.031L98.0104 100.028L97.0506 99.956L96.0228 99.8161L94.9284 99.6087L93.7691 99.3345L92.5467 98.9942L91.2629 98.5887L89.9199 98.1192L88.5197 97.5868L87.0644 96.9926L85.5565 96.3381L83.9984 95.6246L82.3924 94.8537L80.7413 94.0271L79.0478 93.1463L77.3146 92.2132L75.5445 91.2297L73.7407 90.1978L71.9059 89.1193L70.0433 87.9965L68.1561 86.8315L66.2474 85.6264L64.3205 84.3836L62.3787 83.1054L60.4252 81.7941L58.4635 80.4522L56.4968 79.0821L54.5287 77.6862L52.5626 76.2672L50.6018 74.8274L48.6498 73.3696L46.7101 71.8962L44.786 70.4098L42.8809 68.9131L40.9983 67.4085L39.1415 65.8988L37.3138 64.3865L35.5185 62.8741L33.7588 61.3642L32.0379 59.8593L30.359 58.362L28.7252 56.8747L27.1393 55.3999L25.6043 53.94L24.1232 52.4973L22.6985 51.0741L21.3331 49.6728L20.0295 48.2956L18.7901 46.9445L17.6173 45.6218L16.5134 44.3295L15.4805 43.0695L14.5206 41.8438L13.6357 40.6542L12.8276 39.5024L12.0978 38.3902L11.4479 37.3191L10.8792 36.2907L10.3931 35.3064L9.99061 34.3676L9.67268 33.4756L9.44012 32.6314L9.29359 31.8364L9.23362 31.0913L9.26057 30.3972L9.37464 29.7548L9.57589 29.1649L9.86422 28.6281L10.2394 28.1449L10.701 27.7158L11.2484 27.3411L11.8811 27.0211L12.598 26.7558L13.3981 26.5455L14.2804 26.39L15.2435 26.2893L16.286 26.243L17.4062 26.2509L18.6023 26.3126L19.8726 26.4277L21.215 26.5954L22.6273 26.8153L24.1072 27.0865L25.6524 27.4082L27.2604 27.7796L28.9283 28.1996L30.6536 28.6672L32.4334 29.1813L34.2646 29.7408L36.1442 30.3442L38.069 30.9904L40.0358 31.6779L42.0413 32.4053L44.082 33.1712L46.1544 33.9739L48.255 34.8118L50.3803 35.6835L52.5264 36.587L54.6898 37.5208L56.8666 38.4831L59.0531 39.472L61.2456 40.4859L63.4401 41.5227L65.6328 42.5807L67.8199 43.658L69.9976 44.7526L72.1619 45.8627L74.3091 46.9863L76.4354 48.1215L78.537 49.2664L80.6102 50.419L82.6513 51.5775L84.6565 52.7399L86.6224 53.9042L88.5454 55.0687L90.422 56.2315L92.2488 57.3906L94.0226 58.5442L95.7401 59.6906L97.3981 60.828L98.9937 61.9547L100.524 63.0688L101.986 64.1688L103.377 65.253L104.694 66.3199L105.936 67.3678L107.099 68.3953L108.182 69.4009L109.182 70.3832L110.098 71.3409L110.927 72.2727L111.669 73.1773L112.321 74.0535L112.883 74.9003L113.352 75.7165L113.729 76.5011L114.012 77.2532L114.201 77.9719L114.295 78.6564L114.294 79.3058L114.197 79.9196L114.005 80.4972L113.718 81.0378L113.336 81.5411L112.859 82.0065L112.289 82.4338L111.626 82.8226L110.871 83.1727L110.025 83.4839L109.09 83.7561L108.067 83.9892L106.957 84.1833L105.763 84.3384L104.487 84.4547L103.13 84.5324L101.695 84.5717L100.184 84.5729L98.6002 84.5365L96.9456 84.4627L95.2232 84.3522L93.4359 84.2054L91.5868 84.0229L89.679 83.8054L87.7157 83.5535L85.7004 83.2679L83.6365 82.9495L81.5275 82.5989L79.3771 82.2171L77.189 81.805L74.9669 81.3634L72.7148 80.8933L70.4366 80.3958L68.1362 79.8717L65.8176 79.3222L63.4848 78.7484L61.142 78.1513L58.7933 77.532L56.4427 76.8916L54.0944 76.2314L51.7526 75.5525L49.4213 74.8561L47.1047 74.1433L44.8068 73.4154L42.5317 72.6736L40.2835 71.919L38.0661 71.1529L35.8835 70.3766L33.7395 69.5912L31.638 68.7978L29.5827 67.9979L27.5772 67.1925L25.6252 66.3828L23.7302 65.57L21.8955 64.7553L20.1245 63.9399L18.4203 63.1248L16.786 62.3113L15.2246 61.5004L13.7388 60.6931L12.3314 59.8907L11.005 59.0941L9.7619 58.3044L8.60445 57.5225L7.53475 56.7494L6.55478 55.9861L5.66635 55.2336L4.87112 54.4926L4.17058 53.764L3.56605 53.0488L3.0587 52.3477L2.6495 51.6614L2.33927 50.9908L2.12865 50.3365L2.01811 49.6992L2.00792 49.0796L2.0982 48.4783L2.28887 47.8958L2.57969 47.3328L2.97024 46.7896L3.45991 46.2669L4.04793 45.765L4.73334 45.2845L5.51502 44.8255L6.39166 44.3886L7.36182 43.974L8.42384 43.5819L9.57594 43.2128L10.8162 42.8667L12.1424 42.5439L13.5523 42.2446L15.0436 41.9687L16.6135 41.7166L18.2596 41.4881L19.9788 41.2835L21.7683 41.1025L23.6248 40.9454L25.5453 40.812L27.5263 40.7022L29.5644 40.6159L31.6561 40.5531L33.7978 40.5136L35.9855 40.4971L38.2157 40.5036L40.4843 40.5328L42.7874 40.5845L45.1209 40.6584L47.4808 40.7543L49.863 40.8718L52.2631 41.0107L54.6771 41.1705L57.1008 41.351L59.5297 41.5519L61.9597 41.7726L64.3865 42.0129L66.8058 42.2724L69.2134 42.5505L71.605 42.8469L73.9764 43.1612L76.3235 43.4928L78.642 43.8414L80.9279 44.2063L83.1772 44.5873L85.3859 44.9837L87.5501 45.3951L89.666 45.8209L91.7298 46.2606L93.7379 46.7138L95.6868 47.1798L97.573 47.6582L99.3931 48.1485L101.144 48.6499L102.823 49.1621L104.426 49.6844L105.951 50.2164L107.395 50.7574L108.756 51.3068L110.031 51.8642L111.218 52.4289L112.315 53.0003L113.319 53.578L114.23 54.1612L115.045 54.7495L115.764 55.3423L116.384 55.9389L116.905 56.5388L117.325 57.1414L117.645 57.7462L117.863 58.3525L117.979 58.9597L117.993 59.5673L117.905 60.1748L117.715 60.7814L117.423 61.3866L117.03 61.9899L116.537 62.5906L115.944 63.1882L115.252 63.782L114.463 64.3716L113.578 64.9563L112.599 65.5355L111.528 66.1088L110.365 66.6754L109.114 67.2348L107.777 67.7865L106.355 68.3298L104.852 68.8643L103.27 69.3893L101.611 69.9043L99.8801 70.4088L98.0786 70.9021L96.2102 71.3838L94.2782 71.8533L92.286 72.3101L90.2371 72.7536L88.1351 73.1832L85.9838 73.5986L83.7869 73.9992L81.5483 74.3844L79.272 74.7538L76.9621 75.1069L74.6224 75.4432L72.2573 75.7623L69.8708 76.0637L67.4672 76.3468L65.0506 76.6114L62.6255 76.857L60.1959 77.0832L57.7662 77.2895L55.3407 77.4756L52.9237 77.6412L50.5193 77.7859L48.1318 77.9092L45.7654 78.0111L43.4242 78.091L41.1124 78.1488L38.8339 78.1842L36.5928 78.197L34.393 78.1869L32.2384 78.1537L30.1327 78.0972L28.0795 78.0174L26.0824 77.9141L24.145 77.7872L22.2706 77.6365L20.4625 77.4621L18.7237 77.2639L17.0573 77.042L15.4662 76.7964L13.9531 76.527L12.5206 76.2341L11.1712 75.9177L9.90723 75.578L8.73078 75.2151L7.64387 74.8294L6.64837 74.4209L5.74594 73.9901L4.93809 73.5371L4.22617 73.0624L3.61135 72.5664L3.09464 72.0493L2.67685 71.5117L2.35864 70.9541L2.14048 70.3769L2.02267 69.7807L2.00532 69.166L2.08838 68.5335L2.2716 67.8838L2.55458 67.2176L2.93673 66.5356L3.41726 65.8384L3.99526 65.127L4.6696 64.402L5.43902 63.6644L6.30206 62.9149L7.25711 62.1544L8.3024 61.384L9.43601 60.6044L10.6558 59.8167L11.9597 59.0219L13.3451 58.221L14.8096 57.415L16.3506 56.6049L17.9652 55.792L19.6506 54.9773L21.4036 54.1618L23.2211 53.3468L25.1 52.5334L27.0367 51.7227L29.0278 50.916L31.0698 50.1144L33.1591 49.3192L35.2918 48.5315L37.4642 47.7525L39.6725 46.9835L41.9126 46.2256L44.1807 45.4802L46.4727 44.7484L48.7846 44.0313L51.1123 43.3303L53.4517 42.6465L55.7986 41.981L58.149 41.3351L60.4986 40.71L62.8434 40.1066L65.1793 39.5263L67.5022 38.97L69.808 38.4389L72.0928 37.934L74.3524 37.4563L76.5831 37.0068L78.7809 36.5865L80.942 36.1963L83.0627 35.8371L85.1393 35.5097L87.1683 35.2151L89.1462 34.9539L91.0695 34.7268L92.935 34.5347L94.7396 34.3781L96.4801 34.2575L98.1536 34.1737L99.7572 34.127L101.288 34.1178L102.744 34.1466L104.123 34.2138L105.421 34.3195L106.638 34.4639L107.771 34.6473L108.818 34.8698L109.777 35.1312L110.648 35.4317L111.428 35.7712L112.116 36.1494L112.712 36.5662L113.215 37.0212L113.623 37.5141L113.936 38.0446L114.154 38.612L114.277 39.2159L114.304 39.8557L114.236 40.5307L114.074 41.2401L113.816 41.9831L113.465 42.7589L113.021 43.5665L112.484 44.405L111.857 45.2732L111.14 46.1702L110.334 47.0946L109.442 48.0453L108.465 49.0211L107.404 50.0204L106.263 51.0421L105.042 52.0845L103.745 53.1464L102.374 54.226L100.932 55.3218L99.4198 56.4322L97.8418 57.5556L96.2006 58.6902L94.4991 59.8343L92.7405 60.9862L90.9279 62.144L89.0646 63.3059L87.154 64.4701L85.1995 65.6347L83.2047 66.7978L81.1731 67.9575L79.1083 69.112L77.0141 70.2592L74.8942 71.3972L72.7524 72.5242L70.5923 73.6382L68.418 74.7372L66.2331 75.8195L64.0415 76.8829L61.8471 77.9258L59.6537 78.9461L57.4652 79.942L55.2853 80.9118L53.1179 81.8536L50.9666 82.7656L48.8353 83.6461L46.7276 84.4935L44.6471 85.306L42.5973 86.0821L40.5819 86.8202L38.6041 87.5188L36.6675 88.1765L34.7752 88.7918L32.9304 89.3634L31.1362 89.89L29.3957 90.3705L27.7117 90.8037L26.0871 91.1885L24.5244 91.5239L23.0263 91.809L21.5953 92.0431L20.2335 92.2252L18.9433 92.3547L17.7266 92.4311L16.5854 92.4538L15.5215 92.4225L14.5365 92.3366L13.6319 92.1962L12.8091 92.0009L12.0692 91.7507L11.4134 91.4457L10.8425 91.086L10.3573 90.6718L9.95844 90.2034L9.64628 89.6812L9.42114 89.1058L9.28317 88.4777L9.23236 87.7977L9.26852 87.0665L9.39136 86.285L9.6004 85.4543L9.89501 84.5752L10.2744 83.6491L10.7377 82.6772L11.2839 81.6607L11.9116 80.6012L12.6197 79.5001L13.4065 78.359L14.2705 77.1796L15.21 75.9636L16.2231 74.7128L17.3077 73.4291L18.4619 72.1146L19.6832 70.7711L20.9695 69.4008L22.3182 68.0059L23.7269 66.5885L25.1928 65.1509L26.7133 63.6955L28.2855 62.2245L29.9065 60.7404L31.5734 59.2456L33.2831 57.7426L35.0324 56.2338L36.8183 54.7218L38.6374 53.2092L40.4866 51.6985L42.3625 50.1923L44.2617 48.6932L46.1809 47.2037L48.1167 45.7265L50.0657 44.2641L52.0244 42.8192L53.9894 41.3942L55.9573 39.9917L57.9247 38.6143L59.8881 37.2644L61.8442 35.9445L63.7896 34.6569L65.7209 33.4042L67.6349 32.1886L69.5283 31.0123L71.398 29.8777L73.2406 28.7869L75.0533 27.742L76.8329 26.745L78.5765 25.798L80.2812 24.9027L81.9442 24.061L83.5628 23.2747L85.1343 22.5453L86.6562 21.8745L88.1261 21.2636L89.5417 20.7141L90.9006 20.2272L92.2008 19.8042L93.4402 19.4459L94.617 19.1535L95.7293 18.9276L96.7756 18.7692L97.7541 18.6787L98.6636 18.6568L99.5028 18.7037L100.27 18.8197L100.965 19.0051L101.587 19.2598L102.134 19.5837L102.607 19.9766L103.004 20.4382L103.325 20.9681L103.571 21.5656L103.74 22.2301L103.833 22.9607L103.851 23.7566L103.792 24.6166L103.659 25.5396L103.451 26.5242L103.169 27.5692L102.814 28.6729L102.387 29.8338L101.888 31.0502L101.319 32.3201L100.682 33.6416L99.9778 35.0127L99.2075 36.4314L98.3731 37.8952L97.4762 39.402L96.5187 40.9493L95.5024 42.5346L94.4296 44.1553L93.3021 45.8089L92.1222 47.4926L90.8922 49.2037L89.6144 50.9392L88.2912 52.6963L86.9251 54.4721L85.5187 56.2636L84.0746 58.0677L82.5954 59.8815L81.0837 61.7017L79.5425 63.5252L77.9744 65.349L76.3822 67.1698L74.7689 68.9846L73.1372 70.7901L71.4901 72.5831L69.8304 74.3606L68.161 76.1193L66.4849 77.8562L64.805 79.5681L63.124 81.252L61.445 82.9049L59.7708 84.5237L58.1042 86.1055L56.448 87.6474L54.805 89.1466L53.1779 90.6003L51.5694 92.0058L49.9821 93.3605L48.4188 94.6618L46.8818 95.9073L45.3737 97.0946L43.8969 98.2214L42.4537 99.2855L41.0465 100.285L39.6774 101.217L38.3485 102.081L37.0619 102.875L35.8195 103.596L34.6233 104.244L33.475 104.817L32.3762 105.314L31.3286 105.733L30.3337 106.074L29.3929 106.335L28.5074 106.517L27.6784 106.618L26.9071 106.638L26.1944 106.576L25.5412 106.433L24.9483 106.209L24.4163 105.902L23.9457 105.515L23.537 105.046L23.1906 104.497L22.9066 103.869L22.6851 103.161L22.5263 102.376L22.4299 101.514L22.3957 100.576L22.4236 99.5643L22.5129 98.4798L22.6632 97.3242L22.874 96.0994L23.1443 94.8072L23.4736 93.4497L23.8607 92.0291L24.3048 90.5475L24.8047 89.0075L25.3592 87.4115L25.967 85.762L26.6269 84.0619L27.3374 82.3139L28.0969 80.5208L28.9038 78.6858L29.7566 76.8118L30.6535 74.9021L31.5927 72.9597L32.5723 70.9881L33.5906 68.9906L34.6454 66.9705L35.7348 64.9314L36.8568 62.8767L38.0092 60.8101L39.19 58.7349L40.397 56.655L41.6279 54.5738L42.8807 52.495L44.153 50.4222L45.4426 48.3592L46.7472 46.3094L48.0646 44.2766L49.3925 42.2643L50.7286 40.2761L52.0706 38.3156L53.4163 36.3862L54.7634 34.4915L56.1097 32.6348L57.4529 30.8194L58.7909 29.0488L60.1215 27.326L61.4424 25.6542L62.7517 24.0366L64.0472 22.4759L65.3269 20.9753L66.5887 19.5373L67.8309 18.1648L69.0514 16.8603L70.2483 15.6262L71.42 14.4649L72.5647 13.3786L73.6806 12.3694L74.7662 11.4392L75.8199 10.59L76.8403 9.82335L77.8259 9.14083L78.7753 8.54385L79.6873 8.03367L80.5608 7.61138L81.3945 7.27796L82.1873 7.0342L82.9385 6.88075L83.6469 6.81808L84.3119 6.84653L84.9326 6.96627L85.5085 7.1773L86.0389 7.47946L86.5234 7.87244L86.9614 8.35577L87.3528 8.9288L87.6972 9.59075L87.9944 10.3406L88.2444 11.1774L88.4472 12.0996L88.6028 13.1061L88.7113 14.1951L88.7729 15.3649L88.788 16.6137L88.7569 17.9394L88.6801 19.34L88.558 20.813L88.3913 22.3561L88.1805 23.9667L87.9265 25.6422L87.6299 27.3796L87.2916 29.1762L86.9125 31.0289L86.4935 32.9345L86.0357 34.8899L85.5402 36.8916L85.008 38.9363L84.4404 41.0205L83.8384 43.1406L83.2035 45.2929L82.5368 47.4738L81.8397 49.6794L81.1136 51.9059L80.3599 54.1496L79.58 56.4064L78.7754 58.6724L77.9475 60.9438L77.0979 63.2164L76.2281 65.4863L75.3397 67.7496L74.4341 70.0022L73.5129 72.2402L72.5778 74.4596L71.6303 76.6565L70.672 78.827L69.7045 80.9673L68.7293 83.0734L67.7481 85.1417L66.7623 87.1685L65.7736 89.1502L64.7835 91.0831L63.7935 92.9638L62.8052 94.789L61.82 96.5553L60.8393 98.2595L59.8648 99.8986L58.8976 101.47L57.9394 102.969L56.9913 104.396L56.0548 105.745L55.1311 107.016L54.2215 108.206L53.3273 109.312L52.4495 110.333L51.5894 111.266L50.7481 112.11L49.9266 112.863L49.1259 113.524L48.3471 114.092L47.5909 114.564L46.8584 114.941L46.1504 115.222L45.4676 115.405L44.8108 115.491L44.1807 115.479L43.578 115.369L43.0031 115.162L42.4567 114.856L41.9393 114.454L41.4512 113.954L40.993 113.359L40.5649 112.669L40.1672 111.884L39.8002 111.008L39.4641 110.039L39.159 108.982L38.8851 107.836L38.6424 106.605L38.4309 105.289L38.2505 103.892L38.1012 102.415L37.9829 100.862L37.8954 99.2342L37.8385 97.5352L37.812 95.7676L37.8155 93.9346L37.8487 92.0392L37.9113 90.0847L38.0028 88.0745L38.1229 86.0121L38.271 83.9011L38.4467 81.745L38.6494 79.5477L38.8786 77.313L39.1337 75.0447L39.414 72.7468L39.7189 70.4234L40.0477 68.0784L40.3998 65.7161L40.7745 63.3404L41.1709 60.9557L41.5885 58.566L42.0263 56.1756L42.4836 53.7887L42.9597 51.4095L43.4537 49.0421L43.9647 46.6908L44.4921 44.3597L45.0349 42.0529L45.5922 39.7744L46.1633 37.5284L46.7473 35.3188L47.3432 33.1495L47.9504 31.0243L48.5678 28.947L49.1947 26.9214L49.8302 24.951L50.4734 23.0393L51.1234 21.1897L51.7795 19.4056L52.4407 17.69L53.1063 16.0461L53.7753 14.4768L54.4471 12.985L55.1207 11.5732L55.7953 10.2441L56.4703 8.99991L57.1447 7.84302L57.8179 6.77547L58.489 5.79919L59.1573 4.91594L59.8221 4.12733L60.4826 3.43481L61.1383 2.83963L61.7882 2.3429L62.4319 1.94554L63.0686 1.6483L63.6978 1.45175L64.3187 1.35628L64.9307 1.36211L65.5334 1.46927L66.126 1.67762L66.708 1.98684L67.279 2.39641L67.8383 2.90567L68.3855 3.51375L68.92 4.21962L69.4415 5.02208L69.9493 5.91974L70.4432 6.91107L70.9226 7.99434L71.3872 9.16768L71.8366 10.4291L72.2704 11.7763L72.6882 13.207L73.0898 14.7187L73.4747 16.3087L73.8427 17.9744L74.1935 19.7127L74.5269 21.5207L74.8425 23.3951L75.14 25.3327L75.4194 27.33L75.6804 29.3837L75.9228 31.49L76.1463 33.6453L76.3509 35.8457L76.5363 38.0875L76.7026 40.3667L76.8494 42.6793L76.9768 45.0212L77.0845 47.3883L77.1727 49.7764L77.2411 52.1813L77.2897 54.5989L77.3186 57.0248L77.3276 59.4547L77.3168 61.8845L77.2862 64.3099L77.2358 66.7265L77.1657 69.1301L77.0758 71.5165L76.9662 73.8815L76.8372 76.221L76.6886 78.5307L76.5207 80.8068L76.3335 83.0451L76.1272 85.2417L75.902 87.3928L75.658 89.4945L75.3954 91.5433L75.1144 93.5355L74.8151 95.4676L74.498 97.3363L74.1631 99.1381L73.8108 100.87L73.4412 102.529L73.0548 104.112L72.6518 105.617L72.2325 107.04L71.7973 108.38L71.3466 109.634L70.8806 110.799L70.3999 111.874L69.9048 112.857L69.3957 113.747L68.8731 114.541L68.3374 115.238L67.7891 115.837L67.2287 116.338L66.6568 116.738L66.0738 117.039L65.4802 117.238L64.8767 117.336L64.2639 117.333L63.6422 117.228L63.0124 117.023L62.375 116.717L61.7308 116.311L61.0802 115.805L60.4242 115.201L59.7632 114.5L59.0981 113.703L58.4295 112.811L57.7581 111.827L57.0849 110.751L56.4104 109.587L55.7354 108.335L55.0608 106.998L54.3873 105.579L53.7158 104.08L53.047 102.504L52.3818 100.854L51.721 99.1323L51.0654 97.3422L50.4159 95.487L49.7734 93.5699L49.1387 91.5945L48.5126 89.5641L47.896 87.4825L47.2899 85.3532L46.6949 83.1802L46.112 80.9671L45.5421 78.7181L44.986 76.437L44.4446 74.1278L43.9187 71.7947L43.4091 69.4418L42.9167 67.0732L42.4422 64.6932L41.9866 62.3058L41.5505 59.9153L41.1349 57.5259L40.7403 55.1418L40.3676 52.7671L40.0176 50.4062L39.6908 48.0629L39.3881 45.7416L39.11 43.4462L38.8572 41.1808L38.6304 38.9492L38.43 36.7554L38.2568 34.6032L38.1111 32.4963L37.9935 30.4384L37.9045 28.433L37.8445 26.4837L37.814 24.5937L37.8131 22.7663L37.8424 21.0047L37.902 19.3119L37.9922 17.6908L38.1132 16.1441L38.2653 14.6745L38.4484 13.2844L38.6627 11.9763L38.9082 10.7523L39.1849 9.61438L39.4927 8.56456L39.8316 7.60452L40.2013 6.73584L40.6017 5.95992L41.0325 5.27802L41.4934 4.69121L41.984 4.20039L42.5041 3.80631L43.053 3.50952L43.6304 3.31042L44.2356 3.20922L44.8681 3.20598L45.5272 3.30056L46.2123 3.49266L46.9225 3.78181L47.6571 4.16736L48.4153 4.6485L49.1961 5.22426L49.9987 5.89347L50.822 6.65484L51.6651 7.5069L52.5268 8.448L53.406 9.47638L54.3017 10.5901L55.2126 11.787L56.1375 13.065L57.0751 14.4217L58.0241 15.8545L58.9832 17.3608L59.951 18.9379L60.9262 20.5828L61.9073 22.2927L62.8929 24.0644L63.8814 25.8946L64.8715 27.7801L65.8615 29.7175L66.85 31.7033L67.8354 33.734L68.8162 35.8058L69.7908 37.9151L70.7575 40.0582L71.715 42.2312L72.6614 44.4302L73.5953 46.6515L74.5152 48.8909L75.4193 51.1446L76.3062 53.4087L77.1742 55.679L78.022 57.9517L78.8478 60.2227L79.6503 62.4881L80.4279 64.7439L81.1792 66.9862L81.9028 69.211L82.5972 71.4146L83.2612 73.5931L83.8932 75.7427L84.4922 77.8597L85.0568 79.9405L85.5857 81.9816L86.0779 83.9793L86.5323 85.9304L86.9477 87.8314L87.3233 89.6793L87.6579 91.4707L87.9508 93.2028L88.201 94.8726L88.4079 96.4773L88.5707 98.0143L88.6888 99.481L88.7616 100.875L88.7886 102.194L88.7693 103.436L88.7035 104.599L88.5908 105.68L88.4311 106.679L88.2242 107.594L87.9699 108.423L87.6685 109.165L87.3199 109.819L86.9244 110.384L86.4822 110.86L85.9937 111.245L85.4592 111.539L84.8793 111.742L84.2546 111.853L83.5857 111.874L82.8735 111.803L82.1186 111.641L81.322 111.39L80.4848 111.048L79.6079 110.618L78.6925 110.1L77.7398 109.496L76.7511 108.806L75.7277 108.032L74.6711 107.175L73.5827 106.238L72.4641 105.222L71.317 104.129L70.143 102.961L68.9439 101.72L67.7214 100.41L66.4774 99.0312L65.2139 97.5876L63.9327 96.0815L62.6359 94.5156L61.3255 92.893L60.0036 91.2166L58.6724 89.4895L57.3338 87.7147L55.9902 85.8955L54.6438 84.0353L53.2967 82.1374L51.9513 80.2051L50.6097 78.242L49.2742 76.2515L47.9472 74.2373L46.6308 72.2028L45.3274 70.1517L44.0392 68.0876L42.7686 66.0142L41.5177 63.9351L40.2888 61.8538L39.084 59.7741L37.9057 57.6996L36.7559 55.6338L35.6367 53.5804L34.5503 51.5429L33.4986 49.5247L32.4838 47.5293L31.5076 45.5601L30.5721 43.6206L29.6791 41.7139L28.8303 39.8432L28.0275 38.0118L27.2723 36.2226L26.5663 34.4787L25.9109 32.783L25.3077 31.1382L24.758 29.547L24.2631 28.0121L23.824 26.5359L23.442 25.1207L23.1179 23.769L22.8528 22.4827L22.6474 21.264L22.5025 20.1146L22.4186 19.0365L22.3963 18.0311L22.4359 17.1001L22.5378 16.2447L22.7023 15.4663L22.9292 14.7658L23.2188 14.1443L23.5708 13.6026L23.985 13.1412L24.461 12.7609L24.9985 12.4618L25.5968 12.2443L26.2553 12.1084L26.9733 12.0541L27.7498 12.0812L28.5838 12.1894L29.4742 12.3782L30.4199 12.6469L31.4196 12.9948L32.4717 13.421L33.575 13.9245L34.7276 14.5041L35.928 15.1586L37.1744 15.8865L38.4648 16.6863L39.7974 17.5564L41.17 18.4949L42.5805 19.5001L44.0267 20.5698L45.5064 21.702L47.0172 22.8946L48.5566 24.1451L50.1222 25.4513L51.7114 26.8106L53.3217 28.2205L54.9503 29.6784L56.5946 31.1815L58.2518 32.7271L59.9193 34.3123L61.594 35.9342L63.2733 37.5899L64.9543 39.2764L66.634 40.9907L68.3096 42.7296L69.9782 44.4902L71.6369 46.2691L73.2828 48.0634L74.9129 49.8699L76.5245 51.6853L78.1147 53.5065L79.6805 55.3304L81.2192 57.1538L82.7281 58.9736L84.2043 60.7865L85.6452 62.5897L87.0481 64.3799L88.4105 66.1541L89.7297 67.9095L91.0034 69.643L92.229 71.3517L93.4044 73.0328L94.5271 74.6836L95.595 76.3013L96.6061 77.8833L97.5583 79.4271L98.4497 80.9302L99.2786 82.3901L100.043 83.8046L100.742 85.1714L101.373 86.4885L101.935 87.7537L102.427 88.9652L102.848 90.121L103.197 91.2196L103.472 92.2593L103.674 93.2386L103.801 94.156L103.852 95.0103L103.828 95.8004L103.728 96.5252L103.552 97.1838L103.3 97.7753L102.972 98.2991L102.568 98.7547L102.089 99.1415L101.535 99.4593L100.907 99.7078L100.205 99.887L99.4311 99.9969L98.5857 100.038L97.67 100.01L96.6854 99.9131L95.6332 99.7486L94.5151 99.5169L93.3326 99.2185L92.0877 98.8545L90.7823 98.4257L89.4182 97.9332L87.9978 97.3782L86.5231 96.762L84.9967 96.0859L83.4209 95.3514L81.7983 94.5601L80.1314 93.7136L78.4232 92.8136L76.6763 91.862L74.8936 90.8607L73.0782 89.8116L71.2329 88.7168L69.3611 87.5785L67.4657 86.3986L65.55 85.1796L63.6173 83.9237L61.6708 82.6332L59.714 81.3105L57.7501 79.9581L55.7825 78.5783L53.8147 77.1737L51.8501 75.7469L49.8922 74.3003L47.9442 72.8365L46.0097 71.3581L44.0922 69.8676L42.1949 68.3678L40.3212 66.8611L38.4746 65.3501L36.6583 63.8374L34.8755 62.3257L33.1296 60.8173L31.4236 59.3149L29.7607 57.8209L28.1439 56.3379L26.5761 54.8682L25.0604 53.4142L23.5994 51.9784L22.196 50.5629L20.8527 49.1701L19.5721 47.8021L18.3566 46.4611L17.2086 45.1492L16.1302 43.8684L15.1236 42.6206L14.1907 41.4078L13.3335 40.2317L12.5536 39.0941L11.8526 37.9966L11.232 36.9408L10.6932 35.9283L10.2373 34.9604L9.8654 34.0384L9.57836 33.1636L9.37696 32.3372L9.2618 31.5601L9.23334 30.8334L9.29189 30.158L9.43761 29.5346L9.67048 28.9639L9.99037 28.4465L10.397 27.9829L10.8898 27.5735L11.4682 27.2186L12.1316 26.9185L12.8788 26.6732L13.7089 26.4827L14.6207 26.3471L15.6128 26.2662L16.6836 26.2396L17.8316 26.2671L19.0549 26.3483L20.3516 26.4825L21.7196 26.6693L23.1567 26.9078L24.6606 27.1975L26.2289 27.5373L27.8589 27.9265L29.548 28.3639L31.2934 28.8485L33.0922 29.3792L34.9413 29.9547L36.8377 30.5739L38.7782 31.2352L40.7594 31.9374L42.7781 32.6789L44.8307 33.4583L46.9137 34.274L49.0237 35.1244L51.1569 36.0078L53.3098 36.9225L55.4785 37.8669L57.6593 38.839L59.8484 39.8372L62.042 40.8596L64.2363 41.9043L66.4274 42.9695L68.6116 44.0533L70.7848 45.1538L72.9434 46.269L75.0835 47.3971L77.2012 48.536L79.293 49.6839L81.3549 50.8389L83.3834 51.999L85.3747 53.1623L87.3255 54.327L89.232 55.491L91.091 56.6527L92.8989 57.81L94.6526 58.9612L96.3489 60.1046L97.9846 61.2383L99.5568 62.3606L101.063 63.4698L102.499 64.5642L103.864 65.6423L105.154 66.7025L106.367 67.7431L107.502 68.7629L108.555 69.7602L109.524 70.7337L110.409 71.6822L111.207 72.6042L111.916 73.4987L112.536 74.3643L113.064 75.2001L113.5 76.0049L113.843 76.7779L114.092 77.5179L114.246 78.2243L114.306 78.8962L114.27 79.5328L114.139 80.1335L113.912 80.6977L113.59 81.2248L113.174 81.7144L112.663 82.166L112.059 82.5794L111.362 82.9541L110.574 83.2901L109.696 83.5872L108.728 83.8452L107.674 84.0642L106.534 84.2441L105.309 84.3851L104.004 84.4874L102.618 84.5511L101.155 84.5765L99.6177 84.564L98.0077 84.514L96.3282 84.4268L94.5819 84.3031L92.7718 84.1433L90.901 83.948L88.9727 83.7179L86.9901 83.4537L84.9568 83.1561L82.8761 82.8259L80.7516 82.4639L78.5871 82.071L76.3862 81.6481L74.1528 81.196L71.8908 80.7159L69.604 80.2086L67.2965 79.6752L64.9723 79.1167L62.6355 78.5343L60.2901 77.929L57.9402 77.3019L55.59 76.6543L53.2435 75.9872L50.9051 75.3017L48.5786 74.5992L46.2683 73.8808L43.9782 73.1477L41.7125 72.4011L39.475 71.6423L37.2697 70.8723L35.1007 70.0925L32.9717 69.3041L30.8865 68.5082L28.8489 67.7061L26.8624 66.899L24.9307 66.0881L23.0572 65.2745L21.2452 64.4594L19.4981 63.6439L17.8189 62.8293L16.2107 62.0166L14.6764 61.2069L13.2188 60.4013L11.8405 59.6009L10.5441 58.8066L9.3318 58.0196L8.20596 57.2408L7.16861 56.4712L6.22166 55.7117L5.36688 54.9632L4.60585 54.2267L3.94001 53.5029L3.37062 52.7927L2.89879 52.0969L2.52543 51.4162L2.25129 50.7514L2.07694 50.1032L2.0028 49.4723L2.02907 48.8592L2.1558 48.2647L2.38286 47.6892L2.70994 47.1333L3.13653 46.5975L3.662 46.0823L4.28549 45.5881L5.00598 45.1154L5.82228 44.6644L6.73305 44.2355L7.73674 43.8291L8.83167 43.4453L10.016 43.0845L11.2877 42.7469L12.6445 42.4326L14.0843 42.1417L15.6044 41.8745L17.2023 41.6309L18.8752 41.4111L20.6203 41.2151L22.4345 41.0428L24.3146 40.8942L26.2575 40.7694L28.2596 40.6681L30.3176 40.5904L32.4278 40.5361L34.5866 40.5049L36.7903 40.4969L39.0348 40.5116L41.3164 40.549L43.631 40.6088L45.9746 40.6907L48.343 40.7945L50.7322 40.9198L53.1379 41.0663L55.5559 41.2337L57.9819 41.4216L60.4118 41.6297L62.8411 41.8576L65.2657 42.1049L67.6812 42.3712L70.0835 42.656L72.4683 42.9589L74.8313 43.2796L77.1685 43.6174L79.4756 43.9719L81.7487 44.3428L83.9837 44.7294L86.1767 45.1313L88.3238 45.548L90.4212 45.9789L92.4653 46.4236L94.4523 46.8815L96.3788 47.3521L98.2413 47.8348L100.037 48.3292L101.762 48.8346L103.413 49.3505L104.988 49.8764L106.484 50.4117L107.899 50.9558L109.229 51.5082L110.472 52.0683L111.627 52.6355L112.69 53.2093L113.661 53.789L114.537 54.3742L115.317 54.9642L116 55.5584L116.585 56.1563L117.069 56.7572L117.453 57.3607L117.736 57.9661L117.917 58.5728L117.996 59.1802L117.973 59.7878L117.848 60.395L117.621 61.0012L117.292 61.6058L116.863 62.2082L116.333 62.8079L115.704 63.4042L114.977 63.9965L114.153 64.5844L113.234 65.1672L112.221 65.7443L111.116 66.3152L109.921 66.8793L108.638 67.4359L107.27 67.9847L105.819 68.5249L104.286 69.056L102.676 69.5774L100.991 70.0887L99.2342 70.5892L97.408 71.0783L95.5162 71.5557L93.5619 72.0206L91.5487 72.4726L89.4801 72.9111L87.3598 73.3357L85.1915 73.7457L82.979 74.1408L80.7263 74.5203L78.4373 74.8839L76.1161 75.231L73.7667 75.5611L71.3934 75.8737L69.0002 76.1686L66.5914 76.445L64.1712 76.7028L61.744 76.9414L59.3139 77.1604L56.8852 77.3594L54.4623 77.5381L52.0493 77.6961L49.6506 77.8331L47.2703 77.9487L44.9125 78.0426L42.5815 78.1146L40.2813 78.1643L38.016 78.1915L35.7895 78.196L33.6056 78.1775L31.4683 78.1359L29.3812 78.071L27.348 77.9826L25.3722 77.8708L23.4573 77.7352L21.6066 77.576L19.8232 77.3929L18.1104 77.1861L16.471 76.9556L14.9079 76.7013L13.4237 76.4234L12.0211 76.122L10.7025 75.7971L9.47002 75.449L8.32585 75.0778L7.27191 74.6837L6.31 74.2671L5.44173 73.8282L4.66855 73.3673L3.99175 72.8849L3.41243 72.3811L2.93153 71.8565L2.54982 71.3116L2.26788 70.7468L2.08611 70.1627L2.00476 69.5597L2.02386 68.9385L2.14331 68.2997L2.3628 67.6439L2.68185 66.9718L3.0998 66.2843L3.61582 65.5818L4.22893 64.8654L4.93794 64.1357L5.74151 63.3937L6.63814 62.6401L7.62615 61.8759L8.70373 61.102L9.86887 60.3194L11.1195 59.529L12.4532 58.7318L13.8676 57.929L15.3602 57.1214L16.9282 56.3102L18.5689 55.4965L20.2791 54.6813L22.056 53.8659L23.8961 53.0513L25.7964 52.2388L27.7532 51.4294L29.7633 50.6244L31.8228 49.825L33.9283 49.0324L36.0759 48.2477L38.2617 47.4722L40.482 46.7071L42.7328 45.9536L45.01 45.2129L47.3097 44.4863L49.6278 43.775L51.9602 43.08L54.3028 42.4028L56.6515 41.7443L59.002 41.1058L61.3504 40.4884L63.6925 39.8933L66.0241 39.3216L68.3413 38.7743L70.6399 38.2526L72.916 37.7574L75.1656 37.2898L77.3847 36.8508L79.5697 36.4413L81.7165 36.0623L83.8217 35.7145L85.8814 35.399L87.8922 35.1164L89.8507 34.8675L91.7535 34.653L93.5972 34.4737L95.3789 34.3301L97.0954 34.2228L98.7438 34.1524L100.321 34.1193L101.826 34.1239L103.254 34.1666L104.603 34.2477L105.873 34.3674L107.059 34.526L108.161 34.7235L109.176 34.9601L110.104 35.2358L110.942 35.5504L111.688 35.904L112.343 36.2962L112.905 36.7269L113.374 37.1957L113.747 37.7023L114.026 38.2463L114.21 38.827L114.298 39.444L114.291 40.0967L114.188 40.7842L113.991 41.5059L113.7 42.2609L113.314 43.0484L112.837 43.8673L112.267 44.7167L111.607 45.5955L110.857 46.5026L110.02 47.4367L109.097 48.3967L108.089 49.3811L106.999 50.3887L105.829 51.4181L104.58 52.4678L103.256 53.5362L101.859 54.6219L100.391 55.7232L98.8546 56.8385L97.2533 57.9662L95.5899 59.1045L93.8673 60.2516L92.0887 61.4058L90.2573 62.5653L88.3764 63.7283L86.4495 64.8928L84.48 66.0571L82.4714 67.2192L80.4273 68.3772L78.3515 69.5293L76.2475 70.6734L74.1192 71.8076L71.9703 72.9301L69.8046 74.0389L67.626 75.1321L65.4382 76.2077L63.2452 77.2639L61.0507 78.2988L58.8587 79.3104L56.6728 80.2971L54.497 81.2569L52.335 82.1881L50.1906 83.0889L48.0674 83.9576L45.9691 84.7925L43.8994 85.592L41.8617 86.3545L39.8595 87.0784L37.8963 87.7623L35.9754 88.4047L34.1 89.0043L32.2732 89.5598L30.4982 90.0698L28.7778 90.5332L27.1151 90.949L25.5126 91.316L23.9731 91.6333L22.4991 91.8999L21.0929 92.1152L19.7568 92.2783L18.4931 92.3886L17.3036 92.4456L16.1902 92.4487L15.1548 92.3976L14.1988 92.292L13.3237 92.1316L12.5309 91.9164L11.8214 91.6463L11.1964 91.3215L10.6565 90.9419L10.2026 90.508L9.8351 90.02L9.55449 89.4785L9.36099 88.8839L9.25466 88.2369L9.23544 87.5382L9.30311 86.7886L9.45729 85.9892L9.69747 85.1407L10.023 84.2445L10.4329 83.3016L10.9264 82.3133L11.5023 81.2811L12.1594 80.2063L12.8962 79.0905L13.7113 77.9353L14.6029 76.7424L15.5693 75.5135L16.6086 74.2506L17.7187 72.9555L18.8975 71.6302L20.1427 70.2768L21.4519 68.8973L22.8227 67.4939L24.2525 66.069L25.7385 64.6246L27.2781 63.1633L28.8684 61.6872L30.5064 60.199L32.1891 58.7009L33.9136 57.1955L35.6765 55.6853L37.4748 54.1728L39.3053 52.6606L41.1645 51.1512L43.0493 49.6473L44.9561 48.1513L46.8818 46.666L48.8227 45.1939L50.7757 43.7376L52.737 42.2995L54.7035 40.8824L56.6716 39.4888L58.6379 38.121L60.5991 36.7817L62.5517 35.4733L64.4923 34.1981L66.4177 32.9586L68.3246 31.757L70.2098 30.5956L72.07 29.4767L73.9022 28.4023L75.7032 27.3745L77.4701 26.3954L79.1999 25.467L80.8897 24.5909L82.5369 23.7691L84.1387 23.0033L85.6925 22.295L87.1959 21.6457L88.6463 21.057L90.0415 20.5301L91.3794 20.0663L92.6577 19.6666L93.8747 19.3321L95.0283 19.0638L96.1168 18.8623L97.1386 18.7285L98.0923 18.6628L98.9764 18.6658L99.7897 18.7378L100.531 18.879L101.2 19.0895L101.794 19.3693L102.315 19.7183L102.76 20.1362L103.129 20.6227L103.423 21.1772L103.641 21.7991L103.783 22.4877L103.848 23.2421L103.838 24.0614L103.753 24.9443L103.592 25.8899L103.357 26.8966L103.049 27.9631L102.667 29.0878L102.214 30.269L101.69 31.505L101.096 32.7938L100.434 34.1336L99.7058 35.5222L98.912 36.9575L98.0547 38.4372L97.1356 39.959L96.1565 41.5204L95.1195 43.1189L94.0265 44.7518L92.8798 46.4167L91.6814 48.1106L90.4338 49.8309L89.1392 51.5746L87.8002 53.3388L86.4192 55.1207L84.9988 56.9171L83.5416 58.7251L82.0503 60.5415L80.5276 62.3633L78.9763 64.1873L77.3991 66.0104L75.799 67.8294L74.1786 69.6411L72.541 71.4425L70.889 73.2302L69.2255 75.0012L67.5533 76.7524L65.8755 78.4806L64.1949 80.1827L62.5143 81.8557L60.8367 83.4965L59.1649 85.1022L57.5017 86.6699L55.85 88.1966L54.2124 89.6796L52.5918 91.1161L50.9907 92.5035L49.4118 93.8391L47.8578 95.1205L46.331 96.3451L44.834 97.5107L43.3691 98.6149L41.9387 99.6557L40.5451 100.631L39.1903 101.539L37.8765 102.377L36.6058 103.145L35.3799 103.84L34.2009 104.461L33.0704 105.006L31.99 105.475L30.9614 105.866L29.9859 106.178L29.065 106.411L28.1999 106.563L27.3918 106.635L26.6417 106.625L25.9505 106.534L25.319 106.361L24.7481 106.107L24.2383 105.771L23.7902 105.354L23.4041 104.856L23.0802 104.278L22.819 103.621L22.6202 102.885L22.4841 102.072L22.4103 101.182L22.3987 100.217L22.4489 99.179L22.5604 98.0685L22.7328 96.8876L22.9652 95.6381L23.2571 94.322L23.6074 92.9413L24.0154 91.4983L24.4798 89.9953L24.9997 88.4346L25.5737 86.8189L26.2006 85.1507L26.879 83.4329L27.6074 81.6681L28.3844 79.8595L29.2081 78.01L30.0771 76.1227L30.9896 74.2007L31.9437 72.2474L32.9375 70.2659L33.9693 68.2599L35.0369 66.2325L36.1384 64.1873L37.2716 62.1279L38.4346 60.0577L39.6251 57.9804L40.8411 55.8996L42.0802 53.8188L43.3403 51.7418L44.6191 49.6721L45.9145 47.6135L47.224 45.5695L48.5455 43.5437L49.8766 41.5397L51.2151 39.5612L52.5587 37.6116L53.9052 35.6944L55.2523 33.8131L56.5977 31.971L57.9393 30.1715L59.2748 28.4178L60.6021 26.7132L61.9191 25.0607L63.2236 23.4634L64.5135 21.9242L65.787 20.446L67.042 19.0315L68.2764 17.6834L69.4886 16.4041L70.6766 15.1962L71.8387 14.0618L72.9731 13.0033L74.0782 12.0226L75.1524 11.1216L76.1942 10.3021L77.2021 9.56584L78.1747 8.91421L79.1107 8.34859L80.0089 7.87019L80.868 7.48006L81.687 7.17909L82.4648 6.96804L83.2006 6.84749L83.8933 6.81786L84.5423 6.87943L85.1469 7.03231L85.7063 7.27644L86.2201 7.61161L86.6877 8.03745L87.1089 8.55342L87.4832 9.15882L87.8105 9.8528L88.0906 10.6343L88.3235 11.5023L88.5091 12.4553L88.6476 13.4919L88.739 14.6104L88.7838 15.8091L88.7821 17.0861L88.7343 18.4392L88.641 19.8663L88.5027 21.3651L88.3199 22.933L88.0933 24.5675L87.8237 26.2657L87.5118 28.025L87.1586 29.8423L86.765 31.7146L86.3318 33.6386L85.8602 35.6112L85.3512 37.6289L84.806 39.6884L84.2258 41.786L83.6117 43.9182L82.9651 46.0813L82.2872 48.2716L81.5795 50.4853L80.8432 52.7185L80.0798 54.9673L79.2908 57.228L78.4775 59.4964L77.6416 61.7687L76.7845 64.0408L75.9077 66.3088L75.0129 68.5686L74.1015 70.8164L73.1751 73.0481L72.2353 75.2598L71.2837 77.4475L70.3219 79.6075L69.3514 81.7358L68.3738 83.8287L67.3908 85.8823L66.4037 87.8932L65.4144 89.8575L64.4241 91.7719L63.4346 93.6329L62.4472 95.4371L61.4634 97.1812L60.4849 98.8621L59.5128 100.477L58.5487 102.022L57.594 103.496L56.65 104.894L55.718 106.216L54.7993 107.457L53.8951 108.617L53.0067 109.692L52.1353 110.682L51.2818 111.583L50.4476 112.394L49.6335 113.114L48.8407 113.741L48.07 114.274L47.3223 114.712L46.5986 115.054L45.8996 115.3L45.2262 115.448L44.579 115.498L43.9588 115.451L43.3661 115.305L42.8015 115.062L42.2655 114.721L41.7587 114.283L41.2814 113.749L40.8341 113.119L40.417 112.395L40.0304 111.577L39.6746 110.667L39.3498 109.666L39.056 108.576L38.7934 107.399L38.562 106.137L38.3618 104.791L38.1927 103.365L38.0547 101.86L37.9476 100.28L37.8713 98.6257L37.8254 96.9014L37.8098 95.1097L37.8241 93.2537L37.868 91.3365L37.9412 89.3614L38.0431 87.3319L38.1735 85.2514L38.3316 83.1236L38.5172 80.9521L38.7296 78.7407L38.9682 76.4934L39.2325 74.2139L39.5218 71.9063L39.8355 69.5746L40.1729 67.2228L40.5332 64.8552L40.9159 62.4757L41.3201 60.0887L41.7451 57.6983L42.1901 55.3087L42.6543 52.9241L43.137 50.5487L43.6372 48.1867L44.1543 45.8422L44.6873 43.5194L45.2355 41.2224L45.7979 38.9553L46.3738 36.722L46.9622 34.5266L47.5624 32.3728L48.1733 30.2646L48.7943 28.2057L49.4244 26.1997L50.0628 24.2502L50.7085 22.3606L51.3609 20.5344L52.0189 18.7748L52.6818 17.0849L53.3487 15.4678L54.0189 13.9263L54.6914 12.4632L55.3655 11.0811L56.0403 9.78256L56.7152 8.56983L57.3892 7.44513L58.0617 6.41049L58.7319 5.46778L59.399 4.6187L60.0623 3.86481L60.7212 3.20748L61.3748 2.64792L62.0226 2.18715L62.6638 1.82605L63.2979 1.5653L63.9241 1.4054L64.5419 1.34668L65.1506 1.38929L65.7496 1.53321L66.3385 1.77821L66.9166 2.12392L67.4834 2.56976L68.0383 3.11499L68.581 3.75869L69.1108 4.49977L69.6274 5.33695L70.1302 6.26879L70.6189 7.29369L71.093 8.40988L71.5521 9.61541L71.9959 10.9082L72.4239 12.286L72.8359 13.7464L73.2314 15.2869L73.6103 16.9047L73.9721 18.5971L74.3166 20.361L74.6435 22.1934L74.9526 24.0912L75.2436 26.0508L75.5163 28.069L75.7705 30.1422L76.0061 32.2667L76.2228 34.4389L76.4204 36.6548L76.5989 38.9106L76.7581 41.2024L76.8979 43.5261L77.0181 45.8776L77.1188 48.2528L77.1998 50.6475L77.261 53.0575L77.3025 55.4786L77.3242 57.9064L77.326 60.3369L77.308 62.7655L77.2702 65.1882L77.2126 67.6006L77.1353 69.9984L77.0383 72.3776L76.9216 74.7338L76.7855 77.0629L76.6299 79.3609L76.4549 81.6237L76.2608 83.8473L76.0477 86.0278L75.8156 88.1615L75.5648 90.2444L75.2955 92.2731L75.0079 94.2439L74.7021 96.1533L74.3785 97.9981L74.0372 99.775L73.6786 101.481L73.3029 103.113L72.9104 104.668L72.5015 106.143L72.0764 107.536L71.6355 108.845L71.1792 110.067L70.7078 111.2L70.2218 112.242L69.7216 113.191L69.2075 114.046L68.6801 114.805L68.1398 115.467L67.5871 116.03L67.0225 116.495L66.4464 116.859L65.8595 117.123L65.2623 117.285L64.6554 117.347L64.0392 117.307L63.4145 117.166L62.7819 116.923L62.142 116.581L61.4953 116.139L60.8427 115.597L60.1848 114.958L59.5222 114.222L58.8558 113.39L58.1861 112.465L57.514 111.447L56.8402 110.339L56.1654 109.142L55.4905 107.859L54.8162 106.493L54.1433 105.044L53.4727 103.517L52.8051 101.914L52.1414 100.237L51.4824 98.4904L50.8289 96.6763L50.1819 94.7982L49.5421 92.8595L48.9104 90.8637L48.2877 88.8143L47.6748 86.715L47.0726 84.5694L46.4819 82.3814L45.9037 80.1548L45.3387 77.8937L44.7878 75.6019L44.2519 73.2836L43.7318 70.9428L43.2284 68.5838L42.7424 66.2105L42.2747 63.8273L41.826 61.4383L41.3973 59.0477L40.9892 56.6598L40.6025 54.2786L40.2379 51.9085L39.8962 49.5534L39.5781 47.2177L39.2842 44.9053L39.0153 42.6203L38.7718 40.3667L38.5546 38.1484L38.364 35.9693L38.2007 33.8331L38.0652 31.7435L37.9579 29.7043L37.8794 27.7189L37.83 25.7907L37.8102 23.9231L37.8202 22.1192L37.8605 20.3822L37.9312 18.7151L38.0326 17.1207L38.1648 15.6017L38.3281 14.1607L38.5226 12.8001L38.7482 11.5222L39.005 10.3292L39.293 9.22309L39.6121 8.20566L39.9622 7.27861L40.3431 6.44344L40.7545 5.7015L41.1963 5.054L41.668 4.50193L42.1694 4.04615L42.7 3.68732L43.2593 3.42595L43.8468 3.26237L44.462 3.19673L45.1043 3.22901L45.7729 3.35903L46.4672 3.58641L47.1864 3.91063L47.9296 4.33098L48.6961 4.84658L49.485 5.4564L50.2952 6.15922L51.1258 6.95368L51.9757 7.83825L52.8439 8.81125L53.7293 9.87082L54.6306 11.015L55.5467 12.2416L56.4763 13.5484L57.4182 14.933L58.3711 16.3928L59.3335 17.9251L60.3042 19.5272L61.2817 21.1961L62.2646 22.9287L63.2514 24.722L64.2406 26.5727L65.2309 28.4775L66.2206 30.4328L67.2081 32.4353L68.192 34.4813L69.1707 36.5672L70.1426 38.6892L71.1062 40.8436L72.0598 43.0265L73.0019 45.234L73.9309 47.4623L74.8452 49.7074L75.7432 51.9654L76.6235 54.2321L77.4843 56.5038L78.3243 58.7763L79.1419 61.0458L79.9355 63.3081L80.7037 65.5595L81.4451 67.7959L82.1583 70.0135L82.8418 72.2084L83.4943 74.3768L84.1145 76.515L84.7011 78.6193L85.2529 80.6861L85.7687 82.7118L86.2473 84.693L86.6877 86.6263L87.0887 88.5084L87.4495 90.3361L87.7691 92.1064L88.0465 93.8162L88.2812 95.4627L88.4721 97.0431L88.6188 98.5549L88.7205 99.9954L88.7767 101.362L88.7869 102.654L88.7509 103.867L88.6681 105.001L88.5383 106.053L88.3615 107.021L88.1374 107.905L87.866 108.703L87.5474 109.413L87.1818 110.035L86.7693 110.567L86.3102 111.01L85.805 111.362L85.2539 111.623L84.6577 111.793L84.0169 111.871L83.3322 111.859L82.6044 111.755L81.8343 111.56L81.0228 111.276L80.1711 110.902L79.28 110.44L78.351 109.891L77.385 109.255L76.3836 108.534L75.348 107.73L74.2796 106.844L73.1801 105.878L72.051 104.834L70.8939 103.713L69.7106 102.519L68.5028 101.253L67.2723 99.917L66.021 98.5146L64.7508 97.048L63.4638 95.5199L62.1618 93.9332L60.847 92.2907L59.5214 90.5955L58.1873 88.8507L56.8467 87.0594L55.5018 85.225L54.1548 83.3507L52.8081 81.4399L51.4638 79.496L50.1241 77.5225L48.7915 75.523L47.468 73.501L46.1561 71.4601L44.858 69.4039L43.5759 67.336L42.3122 65.2601L41.069 63.1797L39.8486 61.0987L38.6532 59.0204L37.485 56.9487L36.346 54.887L35.2385 52.8389L34.1645 50.808L33.1259 48.7976L32.1249 46.8114L31.1633 44.8526L30.243 42.9246L29.3658 41.0306L28.5335 39.1738L27.7478 37.3574L27.0103 35.5843L26.3225 33.8576L25.6859 32.18L25.102 30.5543L24.572 28.9833L24.0972 27.4694L23.6787 26.0151L23.3176 24.6227L23.0149 23.2945L22.7713 22.0325L22.5878 20.8387L22.4649 19.715L22.4033 18.6631L22.4035 17.6845L22.4657 16.7808L22.5903 15.9532L22.7774 15.203L23.0271 14.5311L23.3393 13.9384L23.7139 13.4258L24.1506 12.9938L24.649 12.6429L25.2087 12.3734L25.8289 12.1855L26.5091 12.0793L27.2484 12.0546L28.0458 12.1112L28.9005 12.2486L29.8111 12.4665L30.7766 12.764L31.7954 13.1404L32.8663 13.5948L33.9877 14.1261L35.1579 14.7331L36.3752 15.4144L37.6377 16.1686L38.9437 16.9941L40.291 17.8892L41.6776 18.8521L43.1014 19.881L44.56 20.9736L46.0513 22.128L47.5727 23.3419L49.1219 24.6129L50.6964 25.9386L52.2935 27.3166L53.9108 28.7442L55.5454 30.2188L57.1947 31.7377L58.856 33.298L60.5264 34.8968L62.2031 36.5314L63.8834 38.1986L65.5642 39.8956L67.2428 41.6191L68.9162 43.3663L70.5815 45.1339L72.2359 46.9188L73.8764 48.7178L75.5002 50.5279L77.1043 52.3458L78.6859 54.1683L80.2422 55.9924L81.7705 57.8149L83.2678 59.6325L84.7315 61.4423L86.1589 63.2411L87.5474 65.0258L88.8944 66.7936L90.1974 68.5413L91.4539 70.2661L92.6615 71.9652L93.818 73.6356L94.9211 75.2747L95.9687 76.8798L96.9586 78.4482L97.889 79.9775L98.7579 81.4652L99.5636 82.9089L100.304 84.3063L100.979 85.6553L101.585 86.9538L102.122 88.1997L102.588 89.3912L102.983 90.5265L103.305 91.6039L103.554 92.6218L103.729 93.5787L103.828 94.4734L103.852 95.3046L103.801 96.0711L103.673 96.7719L103.469 97.4063L103.19 97.9733L102.834 98.4724L102.403 98.903L101.896 99.2648L101.315 99.5575L100.661 99.7808L99.9326 99.9349L99.1325 100.02L98.2614 100.035L97.3205 99.9825L96.3112 99.8612L95.2349 99.6723L94.0933 99.4162L92.8879 99.094L91.6208 98.7063L90.2938 98.2542L88.9091 97.7389L87.4687 97.1616L85.975 96.5234L84.4303 95.826L82.8372 95.0707L81.1983 94.2591L79.5161 93.393L77.7935 92.4741L76.0333 91.5042L74.2383 90.4854L72.4117 89.4195L70.5565 88.3086L68.6757 87.1549L66.7726 85.9606L64.8504 84.728L62.9123 83.4592L60.9617 82.1567L59.0018 80.823L57.0362 79.4603L55.0682 78.0713L53.1012 76.6583L51.1386 75.224L49.1838 73.7709L47.2404 72.3015L45.3116 70.8184L43.401 69.3242L41.5119 67.8216L39.6477 66.313L37.8117 64.8011L36.0072 63.2885L34.2374 61.7777L32.5056 60.2712L30.8149 58.7716L29.1684 57.2813L27.5691 55.8028L26.0199 54.3386L24.5237 52.8909L23.0833 51.4622L21.7014 50.0546L20.3805 48.6706L19.1233 47.3122L17.932 45.9815L16.809 44.6806L15.7564 43.4116L14.7764 42.1763L13.8708 40.9766L13.0414 39.8143L12.2899 38.691L11.618 37.6085L11.027 36.5683L10.5181 35.5718L10.0926 34.6204L9.75136 33.7154L9.49533 32.858L9.32517 32.0494L9.24143 31.2905L9.24453 30.5823L9.3347 29.9257L9.51206 29.3213L9.77654 28.7699L10.1279 28.272L10.5659 27.828L11.0899 27.4384L11.6992 27.1033L12.3931 26.8231L13.1706 26.5977L14.0305 26.4272L14.9716 26.3115L15.9924 26.2503L17.0915 26.2434L18.267 26.2904L19.5171 26.3909L20.84 26.5442L22.2333 26.7499L23.695 27.0071L25.2225 27.3151L26.8135 27.6729L28.4653 28.0797L30.1752 28.5344L31.9403 29.0359L33.7577 29.583L35.6243 30.1745L37.5371 30.8091L39.4927 31.4854L41.4879 32.202L43.5193 32.9575L45.5834 33.7503L47.6766 34.5787L49.7954 35.4413L51.9362 36.3363L54.0952 37.2619L56.2688 38.2166L58.453 39.1984L60.6442 40.2056L62.8385 41.2363L65.0321 42.2887L67.2212 43.3608L69.4018 44.4509L71.5701 45.5569L73.7224 46.677L75.8549 47.8093L77.9636 48.9517L80.0449 50.1024L82.0952 51.2595L84.1106 52.421L86.0876 53.585L88.0227 54.7496L89.9124 55.913L91.7532 57.0733L93.5418 58.2286L95.2751 59.3772L96.9497 60.5172L98.5627 61.647L100.111 62.7647L101.592 63.8688L103.003 64.9575L104.341 66.0292L105.603 67.0825L106.788 68.1157L107.893 69.1275L108.916 70.1163L109.855 71.0809L110.709 72.0199L111.475 72.9321L112.151 73.8162L112.738 74.6712L113.233 75.4958L113.635 76.2892L113.944 77.0503L114.159 77.7782L114.279 78.4722L114.304 79.1313L114.233 79.755L114.067 80.3425L113.806 80.8933L113.45 81.4068L112.999 81.8827L112.455 82.3205L111.817 82.7199L111.087 83.0806L110.266 83.4025L109.355 83.6853L108.356 83.9292L107.27 84.134L106.099 84.2998L104.845 84.4267L103.51 84.5149L102.096 84.5647L100.606 84.5763L99.0416 84.5502L97.406 84.4866L95.7019 84.3861L93.9321 84.2492L92.0997 84.0765L90.2076 83.8685L88.2592 83.6259L86.2578 83.3495L84.2069 83.04L82.1099 82.6982L79.9705 82.3249L77.7923 81.9209L75.5792 81.4873L73.335 81.025L71.0635 80.5348L68.7688 80.0179L66.4547 79.4753L64.1254 78.9081L61.785 78.3172L59.4375 77.7039L57.087 77.0692L54.7377 76.4143L52.3937 75.7404L50.0591 75.0487L47.738 74.3403L45.4346 73.6164L43.1529 72.8783L40.8969 72.1271L38.6707 71.364L36.4781 70.5904L34.3232 69.8073L32.2096 69.016L30.1413 68.2178L28.1218 67.4137L26.1548 66.6051L24.2438 65.793L22.3923 64.9788L20.6035 64.1634L18.8806 63.3481L17.2269 62.5341L15.6452 61.7223L14.1384 60.914L12.7093 60.1101L11.3604 59.3118L10.0942 58.5201L8.91309 57.736L7.81913 56.9604L6.81438 56.1943L5.90068 55.4387L5.07975 54.6945L4.35312 53.9625L3.72215 53.2435L3.18804 52.5384L2.75185 51.848L2.41443 51.173L2.17645 50.5142L2.03843 49.8722L2.00071 49.2477L2.06345 48.6413L2.22662 48.0536L2.49003 47.4852L2.85329 46.9365L3.31586 46.4082L3.87701 45.9005L4.53582 45.4141L5.29124 44.9491L6.14199 44.5061L7.08667 44.0854L8.12368 43.6871L9.25127 43.3117L10.4675 42.9593L11.7704 42.6301L13.1576 42.3243L14.6268 42.042L16.1755 41.7833L17.801 41.5484L19.5004 41.3372L21.2709 41.1498L23.1094 40.9861L25.0127 40.8462L26.9774 40.7299L29.0003 40.6372L31.0776 40.568L33.2059 40.5221L35.3814 40.4993L37.6004 40.4996L39.8588 40.5226L42.1529 40.5681L44.4784 40.636L46.8315 40.7258L49.208 40.8375L51.6036 40.9705L54.0143 41.1246L56.4357 41.2995L58.8636 41.4948L61.2937 41.7102L63.7218 41.9452L66.1436 42.1994L68.5549 42.4724L70.9513 42.7639L73.3286 43.0733L75.6828 43.4002L78.0095 43.7442L80.3048 44.1047L82.5645 44.4813L84.7847 44.8735L86.9615 45.2808L89.091 45.7027L91.1695 46.1387L93.1932 46.5883L95.1587 47.0508L97.0623 47.5259L98.9009 48.0129L100.671 48.5114L102.37 49.0207L103.994 49.5403L105.541 50.0696L107.007 50.6082L108.391 51.1554L109.69 51.7106L110.901 52.2734L112.023 52.843L113.053 53.419L113.99 54.0008L114.832 54.5878L115.577 55.1794L116.224 55.775L116.772 56.3741L117.22 56.976L117.568 57.5802L117.813 58.1862L117.958 58.7932L118 59.4008L117.939 60.0083L117.777 60.6152L117.513 61.2209L117.148 61.8247L116.682 62.4262L116.116 63.0247L115.451 63.6196L114.689 64.2104L113.83 64.7965L112.877 65.3773L111.831 65.9523L110.693 66.5207L109.466 67.0822L108.152 67.636L106.753 68.1817L105.272 68.7187L103.711 69.2464L102.073 69.7642L100.362 70.2716L98.5792 70.768L96.7288 71.253L94.8139 71.7259L92.8379 72.1862L90.8042 72.6333L88.7164 73.0669L86.5782 73.4862L84.3934 73.8909L82.1659 74.2804L79.8996 74.6542L77.5984 75.0118L75.2665 75.3528L72.9079 75.6766L70.5269 75.9828L68.1275 76.271L65.7141 76.5408L63.2909 76.7916L60.8621 77.0231L58.432 77.235L56.005 77.4267L53.5852 77.5979L51.1769 77.7483L48.7843 77.8776L46.4117 77.9853L44.0632 78.0713L41.7429 78.1352L39.4549 78.1768L37.2032 78.1957L34.9917 78.1919L32.8243 78.1651L30.7048 78.115L28.6369 78.0416L26.6241 77.9448L24.67 77.8243L22.778 77.6802L20.9514 77.5123L19.1933 77.3206L17.5067 77.1052L15.8947 76.8661L14.36 76.6032L12.9051 76.3167L11.5327 76.0067L10.2451 75.6734L9.04444 75.3169L7.9328 74.9374L6.91207 74.5351L5.98397 74.1104L5.15005 73.6635L4.41171 73.1947L3.77017 72.7045L3.22647 72.1931L2.78149 71.6611L2.43593 71.1089L2.19031 70.537L2.04497 69.9459L2.00008 69.3363L2.05563 68.7086L2.21143 68.0636L2.46712 67.4018L2.82214 66.7241L3.27579 66.031L3.82718 65.3234L4.47524 64.6021L5.21873 63.8678L6.05626 63.1215L6.98625 62.3639L8.00699 61.5961L9.11659 60.8189L10.313 60.0334L11.594 59.2404L12.9573 58.4411L14.4005 57.6363L15.9207 56.8273L17.5155 56.0151L19.1817 55.2007L20.9165 54.3854L22.7167 53.5701L24.579 52.7561L26.5002 51.9446L28.4768 51.1367L30.5052 50.3336L32.5819 49.5365L34.703 48.7466L36.865 47.9651L39.0638 47.1932L41.2956 46.4322L43.5564 45.6832L45.8423 44.9475L48.1492 44.2263L50.4729 43.5208L52.8095 42.8321L55.1547 42.1615L57.5046 41.5102L59.8548 40.8792L62.2014 40.2698L64.5401 39.683L66.867 39.1201L69.1779 38.5819L71.4688 38.0697L73.7357 37.5845L75.9747 37.1271L78.1819 36.6987L80.3534 36.3002L82.4856 35.9324L84.5747 35.5963L86.6171 35.2926L88.6093 35.0221L90.5479 34.7856L92.4296 34.5839L94.2512 34.4174L96.0095 34.287L97.7017 34.193L99.3247 34.136L100.876 34.1166L102.353 34.1349L103.753 34.1915L105.074 34.2866L106.313 34.4205L107.469 34.5932L108.54 34.8049L109.523 35.0557L110.418 35.3455L111.223 35.6743L111.937 36.0419L112.558 36.4481L113.086 36.8927L113.52 37.3753L113.86 37.8955L114.104 38.4528L114.253 39.0468L114.306 39.6768L114.265 40.3422L114.128 41.0422L113.896 41.7761L113.571 42.543L113.152 43.342L112.64 44.1721L112.038 45.0323L111.345 45.9215L110.564 46.8385L109.695 47.7822L108.741 48.7512L107.703 49.7442L106.584 50.7599L105.385 51.7968L104.109 52.8535L102.757 53.9283L101.334 55.0199L99.8409 56.1265L98.2808 57.2465L96.6566 58.3782L94.9714 59.5199L93.2281 60.6698L91.4299 61.8261L89.5802 62.9871L87.6822 64.1508L85.7394 65.3155L83.7553 66.4792L81.7334 67.6401L79.6774 68.7961L77.5909 69.9455L75.4777 71.0863L73.3415 72.2165L71.186 73.3342L69.0152 74.4376L66.8328 75.5246L64.6427 76.5934L62.4487 77.6421L60.2547 78.6687L58.0644 79.6715L55.8818 80.6487L53.7106 81.5983L51.5545 82.5186L49.4174 83.408L47.3028 84.2646L45.2145 85.0868L43.156 85.8731L41.1307 86.6218L39.1423 87.3313L37.1941 88.0003L35.2893 88.6274L33.4312 89.2111L31.6228 89.7502L29.8673 90.2435L28.1676 90.6897L26.5264 91.0879L24.9465 91.4369L23.4304 91.7359L21.9807 91.984L20.5998 92.1805L19.2897 92.3245L18.0527 92.4155L16.8906 92.453L15.8053 92.4364L14.7985 92.3656L13.8718 92.2401L13.0264 92.0599L12.2637 91.8247L11.5848 91.5348L10.9905 91.19L10.4818 90.7907L10.0592 90.3371L9.7232 89.8297L9.47419 89.2688L9.31232 88.6551L9.23762 87.9892L9.24997 87.272L9.34909 86.5042L9.53455 85.6868L9.80577 84.8209L10.162 83.9076L10.6024 82.9481L11.126 81.9437L11.7315 80.8958L12.4177 79.806L13.1831 78.6757L14.0261 77.5066L14.9451 76.3004L15.9382 75.059L17.0034 73.7842L18.1387 72.4779L19.3419 71.1421L20.6106 69.779L21.9425 68.3906L23.3349 66.9792L24.7854 65.5469L26.2913 64.0961L27.8496 62.6291L29.4575 61.1484L31.1121 59.6563L32.8103 58.1552L34.5491 56.6478L36.3253 55.1365L38.1356 53.6238L39.9769 52.1123L41.8458 50.6046L43.7389 49.1033L45.653 47.6109L47.5846 46.1301L49.5303 44.6634L51.4867 43.2134L53.4503 41.7827L55.4178 40.3738L57.3857 38.9892L59.3505 37.6315L61.3089 36.3032L63.2575 35.0065L65.1931 33.744L67.1121 32.518L69.0115 31.3307L70.888 30.1845L72.7384 29.0815L74.5596 28.0238L76.3485 27.0135L78.1023 26.0525L79.8179 25.1428L81.4926 24.2863L83.1237 23.4846L84.7083 22.7395L86.2441 22.0524L87.7285 21.425L89.1592 20.8586L90.5338 20.3544L91.8503 19.9137L93.1066 19.5376L94.3008 19.227L95.4309 18.9829L96.4954 18.8059L97.4927 18.6967L98.4213 18.656L99.2798 18.684L100.067 18.781L100.782 18.9474L101.424 19.1831L101.992 19.488L102.485 19.8621L102.903 20.3049L103.245 20.8161L103.511 21.3951L103.701 22.0413L103.815 22.7539L103.854 23.532L103.816 24.3745L103.703 25.2804L103.515 26.2482L103.254 27.2768L102.918 28.3646L102.511 29.51L102.032 30.7113L101.482 31.9667L100.864 33.2743L100.178 34.6321L99.4251 36.0379L98.6081 37.4896L97.7281 38.9848L96.7871 40.5212L95.7867 42.0964L94.7292 43.7077L93.6164 45.3525L92.4507 47.0282L91.2342 48.7321L89.9693 50.4612L88.6583 52.2127L87.3037 53.9837L85.9081 55.7711L84.4741 57.5721L83.0042 59.3835L81.5012 61.2022L79.9678 63.0252L78.4067 64.8492L76.8209 66.6712L75.2131 68.4879L73.5861 70.2963L71.9429 72.093L70.2864 73.8751L68.6194 75.6393L66.9449 77.3825L65.2657 79.1015L63.5848 80.7934L61.905 82.4551L60.2291 84.0835L58.5601 85.6757L56.9008 87.2288L55.2539 88.74L53.6221 90.2065L52.0083 91.6255L50.415 92.9944L48.8448 94.3106L47.3003 95.5716L45.7841 96.7751L44.2985 97.9187L42.8458 99.0001L41.4285 100.017L40.0487 100.968L38.7086 101.851L37.4102 102.664L36.1556 103.406L34.9465 104.074L33.7849 104.667L32.6724 105.185L31.6106 105.626L30.6011 105.988L29.6453 106.272L28.7445 106.475L27.9 106.598L27.1128 106.641L26.3839 106.601L25.7143 106.481L25.1048 106.278L24.556 105.994L24.0685 105.629L23.6428 105.183L23.2793 104.656L22.9782 104.049L22.7396 103.363L22.5636 102.599L22.4501 101.758L22.3989 100.841L22.4098 99.849L22.4823 98.7842L22.616 97.6479L22.8102 96.4419L23.0643 95.168L23.3775 93.8282L23.7489 92.4247L24.1774 90.9596L24.6621 89.4354L25.2018 87.8544L25.7952 86.2193L26.4409 84.5328L27.1377 82.7976L27.8839 81.0167L28.678 79.1928L29.5184 77.3292L30.4034 75.4289L31.3311 73.4952L32.2999 71.5313L33.3077 69.5405L34.3527 67.5263L35.4328 65.4921L36.5461 63.4413L37.6904 61.3776L38.8636 59.3044L40.0636 57.2254L41.2882 55.1442L42.5352 53.0644L43.8024 50.9896L45.0875 48.9235L46.3882 46.8697L47.7023 44.8319L49.0276 42.8137L50.3617 40.8185L51.7023 38.8501L53.0472 36.9118L54.3942 35.0073L55.7409 33.1398L57.0852 31.3128L58.4248 29.5295L59.7576 27.7933L61.0814 26.1072L62.3941 24.4744L63.6935 22.8979L64.9778 21.3805L66.2447 19.9251L67.4925 18.5344L68.7191 17.211L69.9227 15.9573L71.1015 14.7758L72.2537 13.6688L73.3777 12.6382L74.4717 11.6862L75.5343 10.8147L76.564 10.0252L77.5592 9.31947L78.5187 8.69891L79.4411 8.16482L80.3253 7.71834L81.1699 7.36048L81.9741 7.09207L82.7368 6.9138L83.457 6.82621L84.134 6.82965L84.7669 6.92436L85.3551 7.11037L85.8981 7.38758L86.3951 7.75571L86.846 8.21433L87.2502 8.76284L87.6075 9.4005L87.9177 10.1264L88.1806 10.9394L88.3963 11.8384L88.5648 12.8219L88.6862 13.8884L88.7607 15.0363L88.7885 16.2636L88.77 17.5685L88.7057 18.9487L88.596 20.4021L88.4414 21.9263L88.2426 23.5187L88.0004 25.1766L87.7153 26.8974L87.3884 28.678L87.0204 30.5157L86.6123 32.4071L86.165 34.3491L85.6797 36.3385L85.1575 38.3718L84.5994 40.4455L84.0068 42.5561L83.3807 44.6999L82.7226 46.8733L82.0337 49.0725L81.3155 51.2937L80.5692 53.5331L79.7963 55.7867L78.9983 58.0506L78.1767 60.3209L77.3329 62.5935L76.4685 64.8646L75.585 67.1301L74.6839 69.386L73.7669 71.6284L72.8355 73.8533L71.8912 76.0568L70.9357 78.2349L69.9706 80.3838L68.9973 82.4997L68.0176 84.5787L67.0329 86.6173L66.0448 88.6117L65.055 90.5583L64.0648 92.4537L63.0759 94.2944L62.0896 96.0772L61.1076 97.7987L60.1312 99.456L59.1619 101.046L58.2011 102.565L57.2501 104.012L56.3103 105.383L55.383 106.676L54.4694 107.888L53.5708 109.017L52.6884 110.062L51.8234 111.019L50.9768 111.888L50.1497 112.666L49.3433 113.352L48.5583 113.946L47.7959 114.444L47.0568 114.848L46.342 115.155L45.6522 115.365L44.9883 115.477L44.3508 115.492L43.7404 115.409L43.1579 115.228L42.6036 114.95L42.0782 114.574L41.5821 114.101L41.1156 113.532L40.6792 112.867L40.2732 112.109L39.8977 111.257L39.5532 110.314L39.2396 109.28L38.9571 108.159L38.7058 106.951L38.4857 105.658L38.2968 104.283L38.1391 102.828L38.0123 101.295L37.9164 99.6876L37.8511 98.0078L37.8163 96.2588L37.8115 94.4434L37.8366 92.5648L37.8912 90.6261L37.9749 88.6309L38.0872 86.5825L38.2277 84.4844L38.3959 82.3403L38.5912 80.1539L38.8132 77.9291L39.0612 75.6696L39.3346 73.3794L39.6329 71.0626L39.9552 68.7231L40.301 66.3651L40.6696 63.9927L41.0601 61.6101L41.472 59.2213L41.9043 56.8307L42.3564 54.4424L42.8274 52.0607L43.3165 49.6897L43.823 47.3335L44.346 44.9964L44.8846 42.6826L45.438 40.3959L46.0054 38.1406L46.5859 35.9206L47.1787 33.7399L47.7829 31.6022L48.3976 29.5115L49.022 27.4713L49.6552 25.4854L50.2963 23.5573L50.9446 21.6903L51.5991 19.8879L52.259 18.1533L52.9234 16.4894L53.5916 14.8994L54.2627 13.3861L54.9359 11.9521L55.6104 10.6L56.2853 9.33237L56.9599 8.15135L57.6335 7.05911L58.3053 6.05762L58.9744 5.14871L59.6402 4.33401L60.302 3.61501L60.9591 2.99303L61.6107 2.46921L62.2561 2.04453L62.8948 1.71978L63.5261 1.49559L64.1493 1.37238L64.7639 1.35043L65.3691 1.42982L65.9646 1.61045L66.5496 1.89207L67.1236 2.27419L67.6862 2.7562L68.2367 3.33729L68.7748 4.01646L69.2998 4.79257L69.8115 5.66429L70.3092 6.6301L70.7927 7.68835L71.2614 8.83719L71.715 10.0746L72.1531 11.3986L72.5753 12.8066L72.9814 14.2964L73.3709 15.8652L73.7436 17.5104L74.0991 19.2291L74.4373 21.0183L74.7577 22.8748L75.0603 24.7954L75.3447 26.7767L75.6107 28.8153L75.8582 30.9076L76.0869 33.0498L76.2967 35.2383L76.4874 37.4691L76.6589 39.7384L76.8111 42.0423L76.9438 44.3765L77.0569 46.7371L77.1505 49.1199L77.2243 51.5206L77.2784 53.9351L77.3127 56.3592L77.3271 58.7885L77.3218 61.2187L77.2966 63.6457L77.2516 66.0651L77.1868 68.4727L77.1024 70.8643L76.9982 73.2356L76.8745 75.5825L76.7312 77.9008L76.5686 80.1864L76.3867 82.4355L76.1857 84.6439L75.9656 86.8078L75.7267 88.9235L75.4692 90.9872L75.1932 92.9952L74.899 94.9442L74.5867 96.8305L74.2566 98.651L73.9091 100.402L73.5442 102.082L73.1624 103.686L72.7639 105.213L72.349 106.658L71.9182 108.021L71.4717 109.299L71.0099 110.489L70.5331 111.589L70.0419 112.597L69.5366 113.512L69.0177 114.333L68.4855 115.056L67.9406 115.683L67.3835 116.21L66.8147 116.638L66.2347 116.966L65.6439 117.193L65.0431 117.319L64.4328 117.344L63.8135 117.267L63.1858 117.089L62.5505 116.811L61.908 116.432L61.2591 115.953L60.6045 115.376L59.9448 114.702L59.2808 113.931L58.613 113.065L57.9424 112.106L57.2696 111.055L56.5953 109.915L55.9204 108.687L55.2456 107.373L54.5718 105.976L53.8996 104.499L53.23 102.944L52.5637 101.314L51.9016 99.6112L51.2446 97.8396L50.5933 96.0019L49.9488 94.1014L49.3119 92.1416L48.6833 90.1259L48.0641 88.058L47.4549 85.9414L46.8568 83.78L46.2706 81.5775L45.697 79.338L45.1371 77.0652L44.5915 74.7634L44.0613 72.4364L43.5471 70.0885L43.0499 67.7238L42.5705 65.3465L42.1096 62.9607L41.6681 60.5706L41.2467 58.1805L40.8463 55.7945L40.4676 53.4169L40.1112 51.0518L39.778 48.7033L39.4686 46.3755L39.1837 44.0726L38.9239 41.7986L38.6899 39.5573L38.4823 37.3528L38.3015 35.1888L38.1482 33.0691L38.0229 30.9974L37.9261 28.9773L37.8581 27.0123L37.8194 25.1057L37.8104 23.2608L37.8313 21.4809L37.8826 19.7689L37.9644 18.1279L38.077 16.5605L38.2205 15.0695L38.3951 13.6574L38.6008 12.3266L38.8378 11.0793L39.1059 9.91762L39.4052 8.84348L39.7356 7.85866L40.0969 6.96479L40.4889 6.16332L40.9113 5.45553L41.364 4.84255L41.8466 4.32534L42.3586 3.90468L42.8997 3.58117L43.4693 3.35526L44.067 3.22722L44.692 3.19713L45.3439 3.26491L46.022 3.43032L46.7254 3.69292L47.4534 4.05212L48.2052 4.50715L48.9799 5.05708L49.7766 5.7008L50.5943 6.43705L51.4321 7.2644L52.2888 8.18126L53.1633 9.1859L54.0546 10.2764L54.9615 11.4508L55.8826 12.7068L56.8168 14.0421L57.7629 15.4543L58.7193 16.9407L59.6849 18.4987L60.6582 20.1253L61.6379 21.8177L62.6223 23.5727L63.6102 25.3873L64.6 27.258L65.5902 29.1815L66.5793 31.1544L67.5657 33.1731L68.5479 35.234L69.5243 37.3334L70.4934 39.4676L71.4535 41.6328L72.4031 43.8251L73.3407 46.0406L74.2645 48.2754L75.1731 50.5256L76.0649 52.7872L76.9382 55.0563L77.7917 57.3287L78.6237 59.6006L79.4327 61.8679L80.2173 64.1267L80.976 66.3731L81.7073 68.6031L82.4099 70.8129L83.0823 72.9986L83.7232 75.1565L84.3314 77.2828L84.9055 79.3739L85.4443 81.4262L85.9467 83.4362L86.4116 85.4004L86.8378 87.3155L87.2244 89.1782L87.5703 90.9854L87.8747 92.7341L88.1367 94.4212L88.3555 96.0441L88.5305 97.5999L88.6609 99.0861L88.7461 100.5L88.7857 101.84L88.7792 103.103L88.7262 104.288L88.6264 105.392L88.4796 106.414L88.2856 107.352L88.0443 108.204L87.7558 108.971L87.4202 109.649L87.0375 110.238L86.608 110.738L86.1322 111.148L85.6102 111.467L85.0428 111.695L84.4303 111.832L83.7734 111.877L83.073 111.831L82.3297 111.695L81.5445 111.468L80.7183 111.151L79.8522 110.745L78.9472 110.251L78.0046 109.67L77.0256 109.003L76.0116 108.252L74.9639 107.418L73.8841 106.503L72.7737 105.508L71.6342 104.436L70.4674 103.288L69.275 102.067L68.0587 100.776L66.8205 99.4156L65.5621 97.9896L64.2856 96.5004L62.9928 94.9506L61.686 93.3433L60.367 91.6814L59.0381 89.9678L57.7013 88.2058L56.3589 86.3984L55.013 84.5491L53.6659 82.6612L52.3198 80.738L50.9769 78.783L49.6395 76.7997L48.31 74.7916L46.9904 72.7623L45.6833 70.7154L44.3907 68.6545L43.115 66.5833L41.8585 64.5054L40.6233 62.4243L39.4118 60.3439L38.2259 58.2676L37.0681 56.199L35.9403 54.1419L34.8447 52.0996L33.7833 50.0758L32.7582 48.0738L31.7712 46.0971L30.8244 44.1491L29.9196 42.2331L29.0585 40.3522L28.2429 38.5097L27.4745 36.7087L26.7548 34.9521L26.0854 33.2429L25.4678 31.5838L24.9033 29.9777L24.3932 28.4271L23.9387 26.9345L23.541 25.5024L23.2009 24.1331L22.9196 22.8287L22.6977 21.5912L22.5362 20.4227L22.4355 19.3248L22.3962 18.2994L22.4189 17.3478L22.5037 16.4716L22.651 15.6719L22.8608 14.95L23.1332 14.3068L23.4681 13.7431L23.8653 13.2597L24.3244 12.8571L24.8451 12.5357L25.4268 12.2958L26.0689 12.1375L26.7706 12.0609L27.5311 12.0657L28.3495 12.1517L29.2246 12.3184L30.1552 12.5653L31.1402 12.8916L32.1782 13.2964L33.2676 13.7788L34.4068 14.3377L35.5943 14.9718L36.8283 15.6798L38.1068 16.46L39.428 17.311L40.7898 18.231L42.1902 19.218L43.6269 20.2703L45.0976 21.3856L46.6001 22.5618L48.1319 23.7967L49.6906 25.0878L51.2736 26.4328L52.8783 27.8291L54.5022 29.2741L56.1424 30.7651L57.7964 32.2993L59.4613 33.8739L61.1344 35.4861L62.8127 37.1329L64.4935 38.8112L66.1738 40.5182L67.8508 42.2507L69.5217 44.0056L71.1834 45.7798L72.833 47.5702L74.4678 49.3737L76.0848 51.1869L77.6811 53.0069L79.2538 54.8304L80.8003 56.6542L82.3176 58.4753L83.803 60.2904L85.2539 62.0965L86.6675 63.8906L88.0412 65.6695L89.3725 67.4304L90.6589 69.1701L91.898 70.8859L93.0873 72.5749L94.2247 74.2342L95.3079 75.8613L96.3347 77.4534L97.3033 79.0079L98.2115 80.5224L99.0577 81.9943L99.84 83.4215L100.557 84.8016L101.207 86.1325L101.788 87.4121L102.299 88.6385L102.74 89.8098L103.109 90.9243L103.404 91.9802L103.626 92.9762L103.773 93.9107L103.846 94.7825L103.842 95.5903L103.763 96.3331L103.608 97.0099L103.377 97.6199L103.069 98.1623L102.686 98.6366L102.228 99.0423L101.694 99.379L101.086 99.6466L100.405 99.8448L99.6505 99.9736L98.8245 100.033L97.9279 100.024L96.962 99.9463L95.9282 99.8004L94.828 99.587L93.6631 99.3069L92.4351 98.9608L91.146 98.5496L89.7978 98.0745L88.3926 97.5365L86.9326 96.9369L85.4201 96.2771L83.8576 95.5585L82.2476 94.7826L80.5926 93.951L78.8954 93.0655L77.1588 92.1279L75.3857 91.14L73.5789 90.1038L71.7415 89.0214L69.8767 87.8947L67.9874 86.726L66.077 85.5176L64.1486 84.2715L62.2056 82.9903L60.2512 81.6762L58.2889 80.3316L56.3221 78.9591L54.354 77.5611L52.3882 76.1401L50.428 74.6986L48.477 73.2393L46.5385 71.7646L44.6159 70.2772L42.7127 68.7797L40.8323 67.2746L38.9779 65.7645L37.153 64.2521L35.3607 62.7398L33.6043 61.2303L31.8871 59.726L30.2121 58.2295L28.5823 56.7432L27.0008 55.2696L25.4706 53.8111L23.9943 52.37L22.5748 50.9488L21.2148 49.5495L19.9168 48.1745L18.6832 46.8259L17.5164 45.5058L16.4187 44.2163L15.3922 42.9592L14.439 41.7367L13.5608 40.5503L12.7596 39.402L12.0368 38.2934L11.3941 37.226L10.8327 36.2015L10.354 35.2212L9.95894 34.2865L9.64855 33.3986L9.42361 32.5588L9.28476 31.7681L9.2325 31.0276L9.26718 30.338L9.38899 29.7002L9.59798 29.115L9.89404 28.583L10.2769 28.1046L10.7461 27.6803L11.3012 27.3104L11.9413 26.9953L12.6657 26.7349L13.4732 26.5295L14.3627 26.3789L15.3329 26.283L16.3823 26.2415L17.5093 26.2542L18.7122 26.3207L19.9889 26.4405L21.3376 26.6129L22.756 26.8373L24.2419 27.113L25.7927 27.4392L27.4061 27.8149L29.0793 28.2392L30.8096 28.711L32.594 29.2292L34.4296 29.7926L36.3134 30.3999L38.2421 31.0498L40.2124 31.7409L42.2212 32.4718L44.2648 33.241L46.3399 34.0469L48.4428 34.8879L50.5701 35.7624L52.7179 36.6688L54.8826 37.6052L57.0605 38.5699L59.2477 39.5611L61.4405 40.577L63.635 41.6158L65.8273 42.6756L68.0138 43.7545L70.1904 44.8506L72.3534 45.9619L74.4989 47.0867L76.6231 48.2228L78.7224 49.3685L80.7928 50.5217L82.8309 51.6806L84.8328 52.8432L86.795 54.0077L88.714 55.1721L90.5863 56.3346L92.4086 57.4933L94.1775 58.6464L95.8898 59.7921L97.5424 60.9285L99.1323 62.0541L100.657 63.1671L102.112 64.2658L103.497 65.3485L104.808 66.4137L106.043 67.4599L107.199 68.4855L108.274 69.4891L109.267 70.4693L110.175 71.4248L110.997 72.3542L111.731 73.2563L112.375 74.13L112.928 74.974L113.39 75.7874L113.758 76.5692L114.033 77.3184L114.213 78.0341L114.299 78.7155L114.289 79.3618L114.184 79.9724L113.984 80.5467L113.688 81.084L113.297 81.5839L112.812 82.046L112.234 82.4699L111.562 82.8553L110.799 83.2019L109.945 83.5096L109.002 83.7783L107.972 84.008L106.855 84.1986L105.653 84.3503L104.37 84.4632L103.006 84.5374L101.564 84.5733L100.046 84.5712L98.4561 84.5314L96.7953 84.4544L95.067 84.3406L93.2741 84.1906L91.4197 84.005L89.5068 83.7844L87.5388 83.5295L85.519 83.241L83.4509 82.9196L81.3381 82.5663L79.1842 82.1817L76.9929 81.7669L74.7681 81.3228L72.5135 80.8502L70.2331 80.3503L67.9309 79.8239L65.6109 79.2722L63.2771 78.6963L60.9336 78.0971L58.5845 77.4759L56.234 76.8338L53.8861 76.1719L51.5451 75.4914L49.2149 74.7935L46.8998 74.0793L44.6038 73.3501L42.3309 72.6071L40.0853 71.8514L37.8708 71.0844L35.6915 70.3072L33.5511 69.521L31.4535 68.727L29.4025 67.9265L27.4017 67.1207L25.4546 66.3107L23.5648 65.4977L21.7356 64.6829L19.9704 63.8674L18.2723 63.0525L16.6443 62.2391L15.0895 61.4285L13.6106 60.6217L12.2103 59.8197L10.8912 59.0237L9.6556 58.2346L8.50586 57.4535L7.44405 56.6812L6.47214 55.9189L5.59193 55.1673L4.80505 54.4273L4.11298 53.7L3.51704 52.986L3.01837 52.2861L2.61793 51.6012L2.31653 50.932L2.11478 50.2792L2.01314 49.6435L2.01187 49.0255L2.11107 48.4258L2.31065 47.845L2.61035 47.2837L3.00973 46.7424L3.50817 46.2215L4.10488 45.7215L4.79889 45.2428L5.58905 44.7858L6.47407 44.3508L7.45245 43.9382L8.52255 43.5482L9.68256 43.1811L10.9305 42.8371L12.2642 42.5164L13.6815 42.2191L15.1798 41.9454L16.7567 41.6953L18.4094 41.469L20.1349 41.2664L21.9305 41.0876L23.7929 40.9326L25.7188 40.8013L27.7051 40.6935L29.7481 40.6094L31.8444 40.5486L33.9903 40.5112L36.182 40.4968L38.4157 40.5053L40.6875 40.5365L42.9935 40.5902L45.3295 40.6661L47.6916 40.7639L50.0755 40.8833L52.477 41.024L54.8921 41.1857L57.3163 41.3681L59.7456 41.5707L62.1755 41.7932L64.6018 42.0352L67.0202 42.2963L69.4265 42.5761L71.8165 42.8741L74.1859 43.1899L76.5306 43.5231L78.8464 43.8731L81.1292 44.2395L83.3751 44.6219L85.58 45.0196L87.74 45.4323L89.8515 45.8594L91.9105 46.3003L93.9135 46.7547L95.8569 47.2218L97.7373 47.7013L99.5514 48.1925L101.296 48.695L102.968 49.2081L104.564 49.7313L106.082 50.2641L107.519 50.8058L108.873 51.356L110.14 51.914L111.319 52.4794L112.408 53.0514L113.404 53.6295L114.306 54.2133L115.113 54.802L115.823 55.3951L116.434 55.992L116.946 56.5922L117.358 57.1951L117.669 57.8L117.878 58.4064L117.985 59.0137L117.99 59.6213L117.892 60.2287L117.693 60.8352L117.392 61.4403L116.99 62.0433L116.488 62.6438L115.886 63.2411L115.186 63.8346L114.389 64.4237L113.495 65.008L112.508 65.5867L111.428 66.1594L110.258 66.7254L108.999 67.2841L107.654 67.8351L106.225 68.3776L104.714 68.9113L103.125 69.4355L101.461 69.9496L99.7229 70.4531L97.9153 70.9454L96.0411 71.426L94.1036 71.8944L92.1062 72.35L90.0525 72.7923L87.946 73.2207L85.7904 73.6348L83.5897 74.034L81.3476 74.4179L79.0682 74.7858L76.7554 75.1375L74.4133 75.4723L72.0461 75.7898L69.6579 76.0895L67.253 76.3711L64.8355 76.634L62.4098 76.8779L59.9801 77.1023L57.5506 77.3069L55.1257 77.4912L52.7096 77.6549L50.3065 77.7977L47.9207 77.9192L45.5564 78.0191L43.2176 78.0971L40.9086 78.1529L38.6333 78.1863L36.3957 78.197L34.1998 78.1848L32.0493 78.1496L29.9481 78.0911L27.8998 78.0092L25.9079 77.9038L23.976 77.7747L22.1073 77.622L20.3052 77.4455L18.5727 77.2452L16.9129 77.0212L15.3286 76.7734L13.8226 76.5019L12.3974 76.2069L11.0555 75.8885L9.79917 75.5467L8.63059 75.1818L7.55173 74.794L6.56443 74.3836L5.67034 73.9507L4.87096 73.4959L4.16762 73.0192L3.56148 72.5213L3.05352 72.0024L2.64455 71.463L2.33521 70.9036L2.12595 70.3247L2.01706 69.7268L2.00864 69.1105L2.1006 68.4765L2.29271 67.8253L2.58452 67.1576L2.97543 66.4742L3.46467 65.7758L4.05127 65.0631L4.73412 64.337L5.5119 63.5983L6.38319 62.8478L7.34632 62.0864L8.39954 61.3151L9.54089 60.5347L10.7683 59.7464L12.0794 58.951L13.472 58.1496L14.9434 57.3432L16.4911 56.5328L18.1121 55.7197L19.8036 54.9048L21.5624 54.0894L23.3856 53.2745L25.2697 52.4613L27.2114 51.6509L29.2072 50.8446L31.2535 50.0435L33.3468 49.2489L35.4832 48.4619L37.6589 47.6838L39.8702 46.9157L42.113 46.1589L44.3834 45.4146L46.6773 44.684L48.9908 43.9684L51.3197 43.2688L53.6599 42.5866L56.0073 41.9228L58.3577 41.2787L60.7071 40.6555L63.0513 40.0542L65.3862 39.4759L67.7078 38.9218L70.0119 38.393L72.2945 37.8904L74.5518 37.4152L76.7797 36.9683L78.9743 36.5506L81.132 36.1631L83.249 35.8067L85.3215 35.4822L87.3461 35.1905L89.3193 34.9323L91.2376 34.7084L93.0978 34.5193L94.8968 34.3659L96.6315 34.2486L98.2989 34.168L99.8962 34.1246L101.421 34.1188L102.87 34.1511L104.241 34.2216L105.533 34.3307L106.742 34.4786L107.867 34.6655L108.907 34.8914L109.858 35.1564L110.721 35.4603L111.493 35.8032L112.173 36.1849L112.761 36.605L113.255 37.0634L113.654 37.5597L113.959 38.0935L114.169 38.6642L114.283 39.2713L114.302 39.9142L114.226 40.5923L114.055 41.3047L113.789 42.0507L113.429 42.8293L112.977 43.6398L112.432 44.4809L111.797 45.3518L111.072 46.2512L110.258 47.178L109.358 48.131L108.374 49.1089L107.306 50.1103L106.158 51.1338L104.93 52.1781L103.627 53.2415L102.249 54.3227L100.8 55.4199L99.2823 56.5315L97.6986 57.6559L96.0519 58.7915L94.3452 59.9363L92.5816 61.0888L90.7644 62.247L88.8967 63.4092L86.9821 64.5735L85.0239 65.7381L83.0257 66.901L80.991 68.0603L78.9235 69.2142L76.8269 70.3606L74.7048 71.4978L72.5612 72.6237L70.3997 73.7364L68.2243 74.8341L66.0386 75.9147L63.8467 76.9764L61.6522 78.0173L59.4591 79.0355L57.2712 80.0292L55.0922 80.9966L52.9261 81.9358L50.7765 82.8451L48.6471 83.7227L46.5416 84.5671L44.4637 85.3764L42.4169 86.1492L40.4047 86.8839L38.4304 87.5789L36.4976 88.2329L34.6093 88.8443L32.7689 89.412L30.9794 89.9346L29.2438 90.4109L27.565 90.8398L25.9457 91.2203L24.3887 91.5513L22.8965 91.8319L21.4715 92.0613L20.116 92.2388L18.8322 92.3637L17.6221 92.4353L16.4877 92.4532L15.4308 92.417L14.4529 92.3264L13.5555 92.181L12.74 91.9809L12.0076 91.7258L11.3593 91.416L10.796 91.0514L10.3184 90.6323L9.9272 90.1592L9.62276 89.6323L9.40536 89.0521L9.27513 88.4194L9.23205 87.7348L9.27594 86.9991L9.40645 86.2132L9.62311 85.3781L9.92529 84.4949L10.3122 83.5646L10.7829 82.5887L11.3363 81.5684L11.9713 80.5051L12.6864 79.4004L13.4801 78.2558L14.3509 77.073L15.297 75.8539L16.3165 74.6001L17.4075 73.3136L18.5676 71.9964L19.7949 70.6504L21.0868 69.2779L22.441 67.8809L23.8548 66.4616L25.3257 65.0224L26.8509 63.5654L28.4276 62.0932L30.0528 60.608L31.7236 59.1124L33.4369 57.6087L35.1896 56.0996L36.9785 54.5875L38.8005 53.0749L40.6522 51.5645L42.5303 50.0588L44.4314 48.5605L46.3522 47.072L48.2893 45.596L50.2393 44.1351L52.1987 42.6918L54.1641 41.2687L56.1321 39.8683L58.0993 38.4932L60.0622 37.1459L62.0175 35.8288L63.9617 34.5442L65.8916 33.2947L67.804 32.0825L69.6954 30.9099L71.5627 29.7791L73.4029 28.6922L75.2127 27.6515L76.9893 26.6589L78.7295 25.7163L80.4306 24.8257L82.0898 23.9889L83.7043 23.2076L85.2715 22.4833L86.7889 21.8178L88.2541 21.2123L89.6647 20.6683L91.0185 20.1871L92.3134 19.7697L93.5473 19.4173L94.7184 19.1307L95.825 18.9108L96.8652 18.7584L97.8377 18.674L98.741 18.6582L99.5739 18.7112L100.335 18.8334L101.024 19.0249L101.639 19.2857L102.179 19.6158L102.645 20.0148L103.036 20.4825L103.35 21.0184L103.589 21.6219L103.752 22.2923L103.838 23.0288L103.849 23.8304L103.784 24.696L103.644 25.6245L103.429 26.6146L103.14 27.6649L102.779 28.7738L102.345 29.9396L101.84 31.1608L101.266 32.4354L100.622 33.7614L99.912 35.1369L99.136 36.5596L98.2959 38.0273L97.3936 39.5378L96.4307 41.0886L95.4094 42.6771L94.3316 44.3009L93.1994 45.9573L92.0149 47.6435L90.7806 49.3569L89.4986 51.0944L88.1716 52.8533L86.8018 54.6307L85.3919 56.4234L83.9446 58.2285L82.4624 60.0429L80.948 61.8635L79.4043 63.6872L77.8339 65.5109L76.2397 67.3313L74.6247 69.1454L72.9915 70.9499L71.3431 72.7417L69.6824 74.5176L68.0124 76.2745L66.3358 78.0093L64.6557 79.7189L62.9748 81.4001L61.2961 83.0501L59.6224 84.6657L57.9566 86.2441L56.3015 87.7823L54.6598 89.2776L53.0342 90.7271L51.4275 92.1282L49.8423 93.4783L48.2812 94.7748L46.7466 96.0152L45.2412 97.1972L43.7673 98.3185L42.3273 99.3769L40.9233 100.37L39.5577 101.297L38.2325 102.155L36.9497 102.942L35.7114 103.657L34.5193 104.298L33.3753 104.864L32.2811 105.354L31.2381 105.766L30.2479 106.1L29.312 106.355L28.4315 106.529L27.6076 106.623L26.8415 106.636L26.134 106.567L25.4861 106.417L24.8986 106.185L24.372 105.871L23.9069 105.476L23.5037 105.001L23.1628 104.445L22.8844 103.809L22.6685 103.095L22.5152 102.303L22.4243 101.434L22.3957 100.489L22.429 99.4709L22.5238 98.38L22.6795 97.2182L22.8956 95.9873L23.1712 94.6893L23.5056 93.3261L23.8979 91.8999L24.3469 90.4131L24.8517 88.868L25.411 87.2671L26.0236 85.613L26.688 83.9085L27.4029 82.1564L28.1666 80.3595L28.9778 78.5209L29.8345 76.6436L30.7352 74.7308L31.6781 72.7858L32.6613 70.8117L33.6828 68.812L34.7408 66.7901L35.8332 64.7495L36.9579 62.6936L38.113 60.626L39.2962 58.5503L40.5054 56.4701L41.7384 54.389L42.9929 52.3106L44.2669 50.2385L45.5579 48.1765L46.8637 46.1281L48.1822 44.097L49.5109 42.0867L50.8476 40.1008L52.19 38.1429L53.536 36.2165L54.8831 34.325L56.2292 32.4718L57.572 30.6603L58.9094 28.8938L60.2392 27.1754L61.5592 25.5083L62.8673 23.8956L64.1615 22.3402L65.4397 20.845L66.6999 19.4128L67.9402 18.0462L69.1586 16.7478L70.3534 15.5201L71.5228 14.3653L72.665 13.2858L73.7783 12.2835L74.8611 11.3605L75.9119 10.5185L76.9293 9.75931L77.9117 9.08433L78.8579 8.49501L79.7665 7.99259L80.6364 7.57816L81.4665 7.25268L82.2557 7.01691L83.0031 6.8715L83.7077 6.81692L84.3688 6.85347L84.9856 6.98132L85.5575 7.20045L86.0838 7.5107L86.5641 7.91173L86.9981 8.40305L87.3853 8.98401L87.7255 9.6538L88.0186 10.4115L88.2644 11.2558L88.4629 12.1857L88.6143 13.1995L88.7186 14.2957L88.7761 15.4726L88.7871 16.7284L88.752 18.0608L88.6711 19.4679L88.545 20.9473L88.3743 22.4965L88.1597 24.1129L87.9018 25.794L87.6015 27.5369L87.2595 29.3386L86.8768 31.1961L86.4544 33.1062L85.9932 35.0658L85.4944 37.0715L84.959 39.1199L84.3883 41.2074L83.7833 43.3305L83.1455 45.4855L82.4761 47.6687L81.7764 49.8763L81.0478 52.1046L80.2917 54.3495L79.5095 56.6073L78.7028 58.874L77.8729 61.1456L77.0215 63.4182L76.15 65.6877L75.2599 67.9502L74.3529 70.2017L73.4304 72.4382L72.4942 74.6557L71.5456 76.8504L70.5864 79.0184L69.6182 81.1558L68.6424 83.2587L67.6607 85.3235L66.6746 87.3464L65.6857 89.3239L64.6956 91.2523L63.7057 93.1282L62.7175 94.9483L61.7327 96.7092L60.7525 98.4078L59.7785 100.041L58.8121 101.606L57.8547 103.099L56.9076 104.519L55.9722 105.861L55.0497 107.125L54.1415 108.307L53.2486 109.406L52.3724 110.419L51.5139 111.345L50.6743 112.181L49.8546 112.926L49.0558 113.578L48.279 114.138L47.5249 114.602L46.7945 114.97L46.0887 115.242L45.4082 115.417L44.7538 115.494L44.1261 115.474L43.5258 115.355L42.9534 115.138L42.4096 114.824L41.8947 114.413L41.4093 113.905L40.9537 113.301L40.5283 112.603L40.1334 111.81L39.7691 110.925L39.4358 109.949L39.1335 108.883L38.8623 107.73L38.6223 106.491L38.4136 105.168L38.236 103.764L38.0895 102.28L37.9739 100.72L37.8892 99.0861L37.835 97.3809L37.8111 95.6074L37.8172 93.7687L37.8531 91.8679L37.9182 89.9084L38.0123 87.8934L38.1349 85.8265L38.2855 83.7113L38.4636 81.5515L38.6687 79.3507L38.9002 77.1128L39.1575 74.8417L39.4401 72.5414L39.7471 70.2159L40.0781 67.8693L40.4322 65.5055L40.8088 63.1289L41.2072 60.7436L41.6265 58.3537L42.0661 55.9634L42.5252 53.577L43.0029 51.1987L43.4984 48.8326L44.0109 46.4829L44.5397 44.1537L45.0838 41.8493L45.6424 39.5736L46.2147 37.3306L46.7997 35.1244L47.3967 32.9589L48.0048 30.8378L48.6232 28.765L49.2508 26.7441L49.887 24.7788L50.5308 22.8725L51.1814 21.0286L51.838 19.2504L52.4996 17.5411L53.1656 15.9037L53.8349 14.3412L54.5068 12.8563L55.1806 11.4518L55.8553 10.1301L56.5302 8.8936L57.2046 7.74456L57.8776 6.68504L58.5484 5.71695L59.2165 4.84205L59.8809 4.06192L60.5411 3.37799L61.1962 2.79151L61.8457 2.30358L62.4888 1.91508L63.1248 1.62676L63.7533 1.43917L64.3734 1.35269L64.9846 1.36753L65.5864 1.48369L66.1781 1.70101L66.7592 2.01916L67.3291 2.43762L67.8874 2.95569L68.4335 3.5725L68.9669 4.287L69.4871 5.09798L69.9938 6.00402L70.4864 7.00358L70.9645 8.09493L71.4278 9.27618L71.8758 10.5453L72.3082 11.9L72.7246 13.338L73.1247 14.8568L73.5081 16.4537L73.8746 18.1259L74.2239 19.8705L74.5556 21.6845L74.8696 23.5646L75.1656 25.5077L75.4434 27.5102L75.7027 29.5687L75.9434 31.6795L76.1652 33.8389L76.3681 36.0432L76.5519 38.2885L76.7164 40.5708L76.8615 42.8862L76.9871 45.2304L77.0932 47.5996L77.1796 49.9893L77.2462 52.3956L77.2931 54.814L77.3202 57.2405L77.3275 59.6706L77.3149 62.1002L77.2825 64.5249L77.2304 66.9406L77.1585 69.3428L77.0668 71.7275L76.9556 74.0904L76.8247 76.4274L76.6745 78.7343L76.5048 81.0071L76.3159 83.2419L76.108 85.4346L75.8811 87.5815L75.6354 89.6787L75.3711 91.7226L75.0885 93.7096L74.7877 95.6362L74.469 97.499L74.1325 99.2948L73.7786 101.02L73.4076 102.673L73.0197 104.249L72.6152 105.747L72.1945 107.163L71.7579 108.495L71.3058 109.741L70.8385 110.898L70.3565 111.965L69.8601 112.94L69.3498 113.821L68.826 114.606L68.2892 115.295L67.7398 115.886L67.1784 116.377L66.6054 116.769L66.0215 117.06L65.427 117.251L64.8227 117.34L64.209 117.328L63.5866 117.214L62.9561 117L62.3181 116.685L61.6732 116.27L61.0222 115.755L60.3656 115.143L59.7043 114.433L59.0388 113.628L58.3699 112.728L57.6984 111.735L57.025 110.652L56.3504 109.479L55.6755 108.22L55.0009 106.876L54.3276 105.449L53.6563 103.944L52.9878 102.361L52.3229 100.704L51.6625 98.9761L51.0075 97.18L50.3586 95.3192L49.7167 93.3968L49.0827 91.4163L48.4575 89.3813L47.8418 87.2952L47.2365 85.1619L46.6426 82.9852L46.0609 80.7688L45.4922 78.5167L44.9374 76.233L44.3973 73.9215L43.8728 71.5865L43.3647 69.232L42.8738 66.8622L42.401 64.4813L41.9471 62.0935L41.5128 59.7029L41.099 57.3138L40.7063 54.9304L40.3356 52.5568L39.9876 50.1973L39.6629 47.8558L39.3624 45.5366L39.0865 43.2437L38.836 40.9811L38.6115 38.7528L38.4135 36.5625L38.2427 34.4142L38.0995 32.3115L37.9845 30.2581L37.898 28.2576L37.8406 26.3134L37.8127 24.4288L37.8145 22.6072L37.8464 20.8516L37.9087 19.165L38.0017 17.5504L38.1255 16.0104L38.2803 14.5478L38.4662 13.1649L38.6832 11.8641L38.9315 10.6477L39.211 9.51755L39.5216 8.47564L39.8631 7.52365L40.2356 6.66315L40.6387 5.89554L41.0722 5.22204L41.5357 4.64372L42.029 4.16147L42.5517 3.776L43.1031 3.48788L43.683 3.29747L44.2907 3.20497L44.9256 3.21043L45.587 3.31368L46.2744 3.51442L46.9868 3.81216L47.7235 4.20624L48.4838 4.69583L49.2666 5.27993L50.071 5.95739L50.8961 6.72687L51.7409 7.5869L52.6042 8.53583L53.4849 9.57187L54.382 10.6931L55.2942 11.8973L56.2202 13.1824L57.1589 14.5459L58.1089 15.9853L59.0688 17.498L60.0374 19.0813L61.0131 20.7321L61.9947 22.4476L62.9806 24.2246L63.9693 26.0599L64.9594 27.9501L65.9494 29.892L66.9377 31.8819L67.9228 33.9163L68.903 35.9917L69.877 38.1041L70.843 40.25L71.7995 42.4255L72.7449 44.6267L73.6776 46.8497L74.5961 49.0906L75.4988 51.3454L76.384 53.6101L77.2504 55.8808L78.0962 58.1535L78.9201 60.4242L79.7204 62.6889L80.4957 64.9436L81.2447 67.1845L81.9657 69.4077L82.6575 71.6092L83.3186 73.7852L83.9478 75.9321L84.5437 78.0461L85.1052 80.1235L85.6309 82.1608L86.1198 84.1545L86.5708 86.1013L86.9827 87.9978L87.3546 89.8407L87.6856 91.627L87.9747 93.3537L88.2212 95.0178L88.4242 96.6166L88.583 98.1475L88.6971 99.6078L88.7658 100.995L88.7887 102.307L88.7654 103.542L88.6954 104.698L88.5786 105.772L88.4146 106.764L88.2035 107.671L87.9451 108.493L87.6394 109.227L87.2867 109.873L86.887 110.43L86.4407 110.898L85.948 111.274L85.4095 111.56L84.8256 111.755L84.197 111.859L83.5242 111.871L82.8081 111.792L82.0495 111.623L81.2493 111.363L80.4085 111.014L79.5281 110.576L78.6094 110.05L77.6534 109.438L76.6616 108.74L75.6352 107.959L74.5757 107.095L73.4846 106.151L72.3634 105.128L71.2138 104.028L70.0375 102.853L68.8362 101.607L67.6118 100.29L66.366 98.9056L65.1008 97.4563L63.8182 95.9448L62.5201 94.3738L61.2086 92.7463L59.8857 91.0652L58.5537 89.3337L57.2147 87.5549L55.8707 85.7319L54.5241 83.8682L53.1771 81.9671L51.8319 80.0319L50.4908 78.0662L49.156 76.0735L47.8298 74.0573L46.5145 72.0213L45.2123 69.9689L43.9257 67.9038L42.6567 65.8297L41.4076 63.7502L40.1808 61.669L38.9783 59.5896L37.8024 57.5157L36.6552 55.4509L35.5388 53.3988L34.4554 51.3628L33.407 49.3465L32.3955 47.3533L31.4229 45.3866L30.4911 43.4499L29.6019 41.5462L28.7571 39.6789L27.9584 37.8511L27.2075 36.0659L26.506 34.3261L25.8552 32.6348L25.2567 30.9947L24.7118 29.4084L24.2218 27.8786L23.7878 26.4077L23.4108 24.9981L23.092 23.652L22.8321 22.3717L22.6321 21.159L22.4925 20.0159L22.4141 18.9442L22.3973 17.9454L22.4424 17.021L22.5499 16.1724L22.7199 15.4009L22.9524 14.7074L23.2475 14.093L23.6051 13.5583L24.0248 13.1042L24.5063 12.731L25.0492 12.4392L25.6529 12.2289L26.3167 12.1003L27.0399 12.0532L27.8215 12.0876L28.6606 12.2029L29.556 12.3988L30.5065 12.6746L31.5109 13.0295L32.5677 13.4626L33.6754 13.9729L34.8323 14.5592L36.0369 15.2203L37.2872 15.9547L38.5815 16.7608L39.9177 17.637L41.2937 18.5815L42.7075 19.5925L44.1568 20.6679L45.6394 21.8055L47.1528 23.0033L48.6946 24.2589L50.2624 25.5699L51.8536 26.9338L53.4656 28.3481L55.0957 29.8101L56.7413 31.3171L58.3996 32.8663L60.0677 34.4549L61.743 36.0799L63.4226 37.7385L65.1035 39.4276L66.783 41.1442L68.4581 42.8852L70.126 44.6475L71.7836 46.4279L73.4282 48.2234L75.0569 50.0308L76.6667 51.8469L78.2548 53.6685L79.8183 55.4924L81.3545 57.3156L82.8606 59.1349L84.3337 60.9471L85.7714 62.7492L87.1708 64.5382L88.5294 66.3108L89.8447 68.0644L91.1142 69.7958L92.3355 71.5021L93.5062 73.1807L94.6242 74.8286L95.6872 76.4433L96.6931 78.022L97.64 79.5623L98.5259 81.0616L99.3491 82.5176L100.108 83.928L100.8 85.2904L101.426 86.603L101.982 87.8635L102.468 89.0701L102.882 90.221L103.224 91.3144L103.493 92.3487L103.688 93.3226L103.808 94.2344L103.853 95.0831L103.822 95.8675L103.716 96.5864L103.533 97.239L103.274 97.8246L102.939 98.3424L102.529 98.7918L102.043 99.1725L101.482 99.4842L100.847 99.7265L100.139 99.8995L99.3589 100.003L98.5072 100.038L97.5853 100.004L96.5946 99.9012L95.5365 99.7307L94.4126 99.493L93.2246 99.1888L91.9742 98.819L90.6634 98.3845L89.2943 97.8864L87.8689 97.3259L86.3896 96.7043L84.8587 96.023L83.2786 95.2834L81.652 94.4871L79.9814 93.6358L78.2695 92.7311L76.5193 91.7751L74.7337 90.7694L72.9154 89.7162L71.0677 88.6175L69.1936 87.4753L67.2963 86.2919L65.379 85.0695L63.4449 83.8105L61.4974 82.517L59.5398 81.1916L57.5754 79.8366L55.6077 78.4545L53.6401 77.0479L51.6759 75.6192L49.7187 74.1709L47.7718 72.7057L45.8387 71.2261L43.9228 69.7348L42.0275 68.2342L40.1561 66.727L38.312 65.2158L36.4985 63.7031L34.7189 62.1915L32.9764 60.6836L31.2741 59.1818L29.6152 57.6887L28.0026 56.2068L26.4394 54.7384L24.9284 53.286L23.4724 51.8518L22.0742 50.4382L20.7364 49.0475L19.4615 47.6819L18.2519 46.3434L17.1099 45.0341L16.0378 43.7562L15.0377 42.5115L14.1115 41.3018L13.261 40.1291L12.4881 38.9949L11.7942 37.9011L11.1808 36.8491L10.6493 35.8405L10.2009 34.8766L9.83646 33.9588L9.55699 33.0882L9.36324 32.2661L9.25576 31.4935L9.23502 30.7713L9.30131 30.1005L9.45477 29.4817L9.69538 28.9157L10.023 28.4031L10.4372 27.9443L10.9377 27.5397L11.5237 27.1897L12.1945 26.8945L12.9492 26.654L13.7866 26.4685L14.7056 26.3377L15.7047 26.2616L16.7825 26.2399L17.9372 26.2722L19.1671 26.358L20.4702 26.497L21.8445 26.6884L23.2876 26.9315L24.7974 27.2256L26.3712 27.5699L28.0066 27.9634L29.7008 28.405L31.4511 28.8938L33.2544 29.4285L35.1079 30.008L37.0083 30.6309L38.9525 31.2959L40.9372 32.0017L42.959 32.7466L45.0145 33.5293L47.1001 34.3482L49.2123 35.2015L51.3474 36.0878L53.5018 37.0052L55.6717 37.9521L57.8534 38.9267L60.0431 39.9271L62.2369 40.9515L64.4311 41.9981L66.6218 43.0651L68.8051 44.1504L70.9772 45.2523L73.1343 46.3687L75.2725 47.4978L77.3881 48.6376L79.4774 49.7863L81.5365 50.9418L83.5618 52.1022L85.5497 53.2657L87.4966 54.4304L89.3991 55.5943L91.2536 56.7556L93.0569 57.9125L94.8056 59.0631L96.4966 60.2057L98.1268 61.3384L99.6932 62.4596L101.193 63.5676L102.623 64.6607L103.981 65.7372L105.265 66.7957L106.471 67.8346L107.599 68.8524L108.644 69.8476L109.607 70.819L110.483 71.7651L111.273 72.6848L111.975 73.5767L112.586 74.4398L113.106 75.2728L113.534 76.0749L113.869 76.8449L114.109 77.582L114.255 78.2854L114.306 78.9541L114.262 79.5876L114.122 80.1851L113.887 80.746L113.557 81.2698L113.132 81.756L112.613 82.2043L112.001 82.6142L111.296 82.9856L110.5 83.3181L109.613 83.6117L108.638 83.8662L107.576 84.0817L106.428 84.2582L105.197 84.3958L103.884 84.4946L102.491 84.5549L101.022 84.5769L99.4776 84.5611L97.8613 84.5077L96.1757 84.4173L94.4236 84.2903L92.608 84.1274L90.732 83.929L88.7987 83.6958L86.8116 83.4286L84.7738 83.1281L82.6891 82.795L80.561 82.4303L78.393 82.0346L76.1891 81.6091L73.953 81.1545L71.6886 80.6719L69.3999 80.1622L67.0907 79.6266L64.7652 79.066L62.4275 78.4814L60.0815 77.8742L57.7314 77.2452L55.3813 76.5958L53.0355 75.927L50.6979 75.24L48.3727 74.5361L46.064 73.8163L43.776 73.082L41.5125 72.3342L39.2778 71.5743L37.0756 70.8034L34.9099 70.0228L32.7847 69.2337L30.7036 68.4372L28.6703 67.6346L26.6886 66.8271L24.7619 66.0159L22.8937 65.2021L21.0874 64.387L19.3462 63.5715L17.6732 62.757L16.0714 61.9445L14.5438 61.1352L13.0932 60.33L11.722 59.5301L10.433 58.7364L9.22828 57.9501L8.11022 57.1721L7.08082 56.4033L6.14199 55.6448L5.29547 54.8973L4.54284 54.1619L3.88552 53.4392L3.32475 52.7303L2.86163 52.0358L2.49706 51.3565L2.23176 50.6932L2.0663 50.0465L2.00107 49.4171L2.03626 48.8057L2.17191 48.2128L2.40787 47.639L2.7438 47.0849L3.17922 46.5509L3.71343 46.0376L4.34557 45.5453L5.07462 45.0744L5.89937 44.6254L6.81845 44.1985L7.83032 43.794L8.93326 43.4123L10.1254 43.0536L11.4048 42.718L12.7691 42.4058L14.2161 42.117L15.7432 41.8519L17.3479 41.6104L19.0274 41.3927L20.7787 41.1988L22.5988 41.0286L24.4847 40.8822L26.4329 40.7594L28.4402 40.6603L30.503 40.5846L32.6177 40.5324L34.7806 40.5033L36.988 40.4972L39.236 40.514L41.5207 40.5534L43.838 40.6152L46.184 40.699L48.5545 40.8047L50.9453 40.9319L53.3522 41.0803L55.7711 41.2495L58.1976 41.4393L60.6276 41.6492L63.0567 41.8788L65.4806 42.1278L67.8952 42.3957L70.2961 42.6822L72.6791 42.9867L75.04 43.3089L77.3747 43.6482L79.679 44.0042L81.9488 44.3765L84.1803 44.7645L86.3693 45.1677L88.5122 45.5857L90.605 46.0178L92.6441 46.4637L94.6259 46.9228L96.5468 47.3945L98.4036 47.8783L100.193 48.3736L101.911 48.88L103.556 49.3968L105.125 49.9236L106.613 50.4597L108.02 51.0046L109.343 51.5577L110.578 52.1184L111.725 52.6862L112.78 53.2605L113.743 53.8408L114.61 54.4264L115.382 55.0168L116.056 55.6113L116.632 56.2095L117.107 56.8107L117.482 57.4144L117.756 58.0199L117.928 58.6267L117.998 59.2342" stroke="url(#paint0_radial_501_3903)" stroke-width="2"/>
<defs>
<radialGradient id="paint0_radial_501_3903" cx="0" cy="0" r="1" gradientUnits="userSpaceOnUse" gradientTransform="translate(21.433 21.3776) rotate(54.4147) scale(125.359)">
<stop stop-color="#F0C6FF"/>
<stop offset="1" stop-color="#C6D6FF"/>
</radialGradient>
</defs>
</svg>
