<svg width="120" height="119" viewBox="0 0 120 119" fill="none" xmlns="http://www.w3.org/2000/svg">
<path d="M118 59.3465L117.977 59.2199L117.908 59.0949L117.792 58.9731L117.631 58.8561L117.425 58.7455L117.173 58.6429L116.877 58.5498L116.537 58.4678L116.153 58.3983L115.726 58.3428L115.258 58.3028L114.748 58.2796L114.198 58.2746L113.61 58.2892L112.983 58.3245L112.319 58.3817L111.62 58.4621L110.886 58.5667L110.12 58.6966L109.322 58.8526L108.493 59.0358L107.636 59.247L106.752 59.4868L105.843 59.7561L104.91 60.0554L103.954 60.3853L102.978 60.7462L101.984 61.1385L100.972 61.5626L99.9453 62.0186L98.9052 62.5066L97.8535 63.0269L96.7921 63.5792L95.7228 64.1636L94.6473 64.7798L93.5676 65.4275L92.4855 66.1065L91.4027 66.8162L90.321 67.5561L89.2423 68.3257L88.1683 69.1243L87.1006 69.951L86.0409 70.8051L84.991 71.6857L83.9525 72.5918L82.9268 73.5222L81.9156 74.4761L80.9203 75.452L79.9424 76.4488L78.9831 77.4652L78.0439 78.4997L77.126 79.551L76.2306 80.6177L75.3588 81.6981L74.5117 82.7906L73.6902 83.8938L72.8953 85.0059L72.1277 86.1252L71.3884 87.25L70.6779 88.3786L69.9969 89.5092L69.3458 90.64L68.7252 91.7692L68.1354 92.895L67.5767 94.0155L67.0492 95.1289L66.5532 96.2334L66.0885 97.3272L65.6553 98.4084L65.2532 99.4752L64.8822 100.526L64.5419 101.558L64.232 102.571L63.952 103.563L63.7013 104.531L63.4793 105.475L63.2855 106.393L63.1189 107.282L62.9788 108.142L62.8642 108.971L62.7743 109.768L62.7079 110.53L62.664 111.258L62.6415 111.95L62.639 112.604L62.6555 113.219L62.6895 113.795L62.7398 114.331L62.8048 114.824L62.8833 115.276L62.9737 115.684L63.0745 116.049L63.1842 116.37L63.3012 116.645L63.424 116.876L63.551 117.061L63.6805 117.2L63.8111 117.293L63.9409 117.34L64.0685 117.342L64.1922 117.297L64.3104 117.207L64.4216 117.071L64.5241 116.89L64.6163 116.664L64.6969 116.395L64.7641 116.082L64.8166 115.726L64.853 115.328L64.8718 114.888L64.8716 114.409L64.8511 113.89L64.8092 113.333L64.7445 112.739L64.6558 112.109L64.5422 111.444L64.4025 110.746L64.2358 110.016L64.0411 109.255L63.8176 108.465L63.5646 107.648L63.2813 106.805L62.967 105.938L62.6214 105.047L62.2438 104.136L61.8338 103.206L61.3913 102.258L60.9158 101.294L60.4074 100.316L59.8658 99.326L59.2912 98.3255L58.6836 97.3164L58.0432 96.3005L57.3703 95.2797L56.6652 94.2556L55.9283 93.2301L55.1602 92.205L54.3615 91.182L53.5328 90.1629L52.6749 89.1493L51.7887 88.143L50.8749 87.1455L49.9346 86.1586L48.9689 85.1837L47.9789 84.2224L46.9657 83.2761L45.9307 82.3464L44.875 81.4344L43.8002 80.5417L42.7075 79.6693L41.5986 78.8185L40.4749 77.9905L39.338 77.1862L38.1896 76.4067L37.0312 75.6528L35.8647 74.9255L34.6917 74.2254L33.5139 73.5534L32.3333 72.9099L31.1515 72.2955L29.9704 71.7107L28.7918 71.1558L27.6176 70.6311L26.4496 70.1368L25.2897 69.6731L24.1397 69.2399L23.0015 68.8373L21.8768 68.4651L20.7676 68.1231L19.6755 67.8109L18.6024 67.5284L17.55 67.2749L16.5201 67.0499L15.5142 66.8529L14.534 66.6832L13.5812 66.54L12.6572 66.4226L11.7637 66.3299L10.9019 66.2611L10.0734 66.2151L9.27939 66.1909L8.52124 66.1873L7.80012 66.2031L7.11718 66.2371L6.47349 66.288L5.87004 66.3543L5.30776 66.4348L4.78751 66.5281L4.31005 66.6325L3.87607 66.7468L3.48618 66.8692L3.14092 66.9983L2.84072 67.1326L2.58595 67.2704L2.37687 67.41L2.21368 67.5501L2.09648 67.6888L2.02527 67.8246L2 67.9559L2.0205 68.0811L2.08653 68.1986L2.19775 68.3067L2.35377 68.4041L2.55407 68.489L2.79809 68.5601L3.08515 68.6157L3.41453 68.6546L3.7854 68.6752L4.19687 68.6763L4.64798 68.6564L5.13768 68.6144L5.66487 68.5489L6.22838 68.4589L6.82697 68.3431L7.45934 68.2007L8.12413 68.0305L8.81994 67.8317L9.54529 67.6034L10.2987 67.3448L11.0786 67.0552L11.8833 66.734L12.7113 66.3806L13.5609 65.9945L14.4304 65.5754L15.318 65.1229L16.222 64.6367L17.1407 64.1167L18.0722 63.5628L19.0148 62.9751L19.9667 62.3536L20.926 61.6984L21.891 61.0099L22.8599 60.2884L23.8308 59.5343L24.8021 58.7481L25.7719 57.9303L26.7386 57.0817L27.7004 56.2031L28.6557 55.2951L29.6028 54.3587L30.5401 53.395L31.466 52.4048L32.3791 51.3894L33.2778 50.3499L34.1608 49.2876L35.0266 48.2037L35.874 47.0997L36.7016 45.9769L37.5084 44.8368L38.2931 43.681L39.0547 42.5111L39.7922 41.3286L40.5048 40.1352L41.1915 38.9326L41.8516 37.7225L42.4844 36.5068L43.0892 35.2871L43.6656 34.0653L44.2131 32.8432L44.7313 31.6227L45.22 30.4055L45.6788 29.1936L46.1077 27.9888L46.5067 26.793L46.8758 25.6079L47.215 24.4355L47.5247 23.2776L47.8051 22.1359L48.0565 21.0122L48.2795 19.9084L48.4745 18.826L48.6421 17.7669L48.783 16.7327L48.8979 15.7249L48.9878 14.7451L49.0534 13.7949L49.0957 12.8757L49.1157 11.989L49.1146 11.136L49.0934 10.3182L49.0534 9.53661L48.9958 8.79251L48.9218 8.08698L48.833 7.42104L48.7305 6.79564L48.616 6.21164L48.4907 5.66985L48.3563 5.17098L48.2143 4.71566L48.0662 4.30446L47.9135 3.93783L47.758 3.61617L47.6011 3.33978L47.4446 3.10888L47.2899 2.92359L47.1388 2.78395L46.9929 2.68993L46.8537 2.6414L46.7229 2.63813L46.6021 2.67984L46.4928 2.76614L46.3965 2.89656L46.3149 3.07055L46.2494 3.28748L46.2014 3.54665L46.1724 3.84726L46.1637 4.18845L46.1767 4.56928L46.2126 4.98875L46.2728 5.44577L46.3583 5.93921L46.4704 6.46786L46.61 7.03043L46.7781 7.62561L46.9758 8.25201L47.2038 8.90819L47.463 9.59267L47.7541 10.3039L48.0778 11.0404L48.4345 11.8004L48.8249 12.5824L49.2492 13.3846L49.708 14.2054L50.2014 15.043L50.7295 15.8958L51.2926 16.7618L51.8905 17.6394L52.5232 18.5268L53.1906 19.4222L53.8924 20.3238L54.6283 21.2298L55.3978 22.1385L56.2006 23.0482L57.0359 23.957L57.9031 24.8632L58.8015 25.7653L59.7304 26.6615L60.6887 27.5501L61.6755 28.4296L62.6899 29.2985L63.7306 30.1551L64.7965 30.9982L65.8864 31.8261L66.999 32.6376L68.1328 33.4314L69.2865 34.2062L70.4586 34.9609L71.6476 35.6942L72.8518 36.4052L74.0697 37.0929L75.2996 37.7563L76.5398 38.3946L77.7885 39.007L79.044 39.5929L80.3046 40.1515L81.5682 40.6825L82.8333 41.1853L84.0978 41.6595L85.36 42.1049L86.6179 42.5213L87.8697 42.9084L89.1136 43.2663L90.3476 43.5951L91.5699 43.8947L92.7788 44.1655L93.9722 44.4077L95.1485 44.6216L96.3059 44.8077L97.4427 44.9666L98.557 45.0987L99.6473 45.2048L100.712 45.2857L101.749 45.3421L102.758 45.3749L103.736 45.3851L104.682 45.3736L105.596 45.3416L106.475 45.2902L107.318 45.2206L108.124 45.134L108.893 45.0318L109.622 44.9152L110.311 44.7856L110.959 44.6445L111.566 44.4934L112.13 44.3337L112.651 44.1669L113.128 43.9947L113.561 43.8185L113.949 43.64L114.292 43.4608L114.59 43.2825L114.842 43.1067L115.049 42.935L115.211 42.769L115.327 42.6104L115.398 42.4608L115.425 42.3218L115.406 42.1949L115.344 42.0816L115.238 41.9836L115.089 41.9022L114.897 41.8391L114.665 41.7955L114.391 41.7728L114.078 41.7725L113.726 41.7958L113.336 41.8439L112.909 41.9181L112.448 42.0194L111.952 42.149L111.423 42.3078L110.862 42.4968L110.272 42.7169L109.653 42.9689L109.006 43.2535L108.335 43.5713L107.639 43.923L106.921 44.3091L106.182 44.73L105.424 45.186L104.65 45.6775L103.859 46.2045L103.055 46.7673L102.239 47.3658L101.412 47.9999L100.577 48.6695L99.7354 49.3745L98.8887 50.1144L98.0389 50.8888L97.1877 51.6974L96.3367 52.5394L95.4878 53.4143L94.6426 54.3214L93.8027 55.2598L92.9699 56.2287L92.1456 57.2271L91.3315 58.254L90.5289 59.3083L89.7396 60.3888L88.9647 61.4943L88.2057 62.6235L87.4639 63.7751L86.7406 64.9475L86.0369 66.1394L85.354 67.3492L84.6929 68.5754L84.0546 69.8163L83.44 71.0703L82.85 72.3357L82.2854 73.6107L81.7468 74.8936L81.2349 76.1826L80.7502 77.4759L80.2931 78.7716L79.8641 80.068L79.4635 81.363L79.0914 82.6549L78.748 83.9418L78.4333 85.2218L78.1474 86.4931L77.89 87.7538L77.6611 89.002L77.4603 90.2359L77.2872 91.4538L77.1415 92.6538L77.0226 93.8341L76.9299 94.9931L76.8627 96.1291L76.8204 97.2404L76.8021 98.3254L76.8069 99.3825L76.8338 100.41L76.8819 101.407L76.9501 102.372L77.0372 103.303L77.1421 104.2L77.2634 105.06L77.4 105.884L77.5504 106.669L77.7133 107.414L77.8872 108.12L78.0706 108.785L78.2621 109.408L78.4602 109.988L78.6632 110.526L78.8696 111.019L79.0779 111.469L79.2862 111.875L79.4932 112.235L79.6971 112.551L79.8963 112.822L80.0891 113.048L80.274 113.229L80.4493 113.366L80.6134 113.458L80.7648 113.505L80.9018 113.509L81.023 113.47L81.1267 113.388L81.2117 113.264L81.2763 113.099L81.3193 112.893L81.3392 112.648L81.3348 112.364L81.3047 112.043L81.2478 111.685L81.163 111.291L81.0491 110.864L80.9051 110.403L80.7301 109.912L80.5232 109.39L80.2835 108.839L80.0103 108.261L79.7028 107.657L79.3606 107.03L78.9831 106.38L78.5698 105.709L78.1204 105.019L77.6346 104.311L77.1122 103.588L76.553 102.85L75.9571 102.1L75.3245 101.34L74.6553 100.571L73.9497 99.7945L73.2081 99.0129L72.4308 98.2278L71.6183 97.4408L70.7712 96.6538L69.89 95.8683L68.9756 95.086L68.0286 94.3087L67.0501 93.5379L66.0408 92.7751L65.0019 92.022L63.9344 91.28L62.8395 90.5507L61.7184 89.8353L60.5724 89.1353L59.4028 88.4519L58.2112 87.7864L56.9989 87.14L55.7675 86.5138L54.5185 85.9089L53.2535 85.3262L51.9743 84.7667L50.6826 84.2312L49.3799 83.7204L48.0683 83.2351L46.7493 82.7759L45.4249 82.3434L44.0969 81.9379L42.7671 81.5599L41.4375 81.2097L40.1099 80.8874L38.7861 80.5933L37.4681 80.3273L36.1578 80.0895L34.8571 79.8797L33.5677 79.6978L32.2915 79.5434L31.0304 79.4162L29.7861 79.3158L28.5605 79.2417L27.3553 79.1932L26.1721 79.1698L25.0127 79.1706L23.8787 79.1949L22.7716 79.2418L21.693 79.3104L20.6444 79.3995L19.6271 79.5083L18.6426 79.6354L17.6921 79.7798L16.7769 79.9402L15.8982 80.1152L15.0569 80.3036L14.2542 80.504L13.4911 80.7149L12.7683 80.9349L12.0867 81.1624L11.447 81.396L10.8498 81.634L10.2957 81.875L9.7852 82.1172L9.31859 82.3592L8.89621 82.5991L8.51829 82.8356L8.18493 83.0668L7.89619 83.2911L7.65202 83.507L7.45228 83.7128L7.29677 83.9069L7.18517 84.0878L7.11711 84.2537L7.09211 84.4033L7.10962 84.5349L7.16902 84.6472L7.26959 84.7385L7.41056 84.8077L7.59106 84.8532L7.81015 84.8737L8.06683 84.8681L8.36003 84.835L8.68861 84.7734L9.05138 84.682L9.44706 84.56L9.87435 84.4062L10.3319 84.2199L10.8182 84.0001L11.3318 83.7461L11.8713 83.4572L12.4351 83.1327L13.0215 82.7723L13.629 82.3753L14.2559 81.9414L14.9006 81.4703L15.5612 80.9618L16.2362 80.4158L16.9238 79.8322L17.6222 79.211L18.3297 78.5524L19.0446 77.8566L19.7651 77.1238L20.4894 76.3544L21.216 75.5489L21.9429 74.7078L22.6686 73.8318L23.3915 72.9215L24.1097 71.9777L24.8218 71.0012L25.5261 69.9931L26.2212 68.9543L26.9055 67.8858L27.5775 66.7889L28.2359 65.6648L28.8793 64.5146L29.5064 63.3399L30.116 62.1419L30.7069 60.9221L31.2779 59.6821L31.828 58.4234L32.3562 57.1477L32.8616 55.8565L33.3434 54.5515L33.8007 53.2346L34.2329 51.9074L34.6394 50.5718L35.0196 49.2296L35.373 47.8825L35.6993 46.5326L35.9982 45.1816L36.2694 43.8314L36.5129 42.4838L36.7285 41.1409L36.9162 39.8045L37.0763 38.4764L37.2089 37.1585L37.3142 35.8527L37.3927 34.5607L37.4447 33.2845L37.4707 32.0257L37.4714 30.7862L37.4474 29.5676L37.3995 28.3717L37.3284 27.2L37.2351 26.0542L37.1205 24.9357L36.9855 23.8462L36.8314 22.7869L36.6591 21.7594L36.47 20.7648L36.2652 19.8045L36.0461 18.8797L35.8141 17.9914L35.5704 17.1408L35.3165 16.3287L35.054 15.5561L34.7843 14.8237L34.509 14.1324L34.2296 13.4828L33.9477 12.8755L33.665 12.3109L33.383 11.7894L33.1034 11.3114L32.8278 10.8772L32.5579 10.4868L32.2954 10.1404L32.0419 9.8379L31.7989 9.57922L31.5682 9.36416L31.3513 9.19245L31.1499 9.06374L30.9654 8.97759L30.7994 8.93347L30.6535 8.93078L30.529 8.96884L30.4275 9.04689L30.3502 9.1641L30.2986 9.31957L30.2739 9.5123L30.2773 9.74128L30.3101 10.0054L30.3733 10.3034L30.468 10.6342L30.5952 10.9963L30.7559 11.3886L30.9508 11.8095L31.1808 12.2577L31.4465 12.7316L31.7487 13.2298L32.0878 13.7505L32.4644 14.2924L32.8788 14.8536L33.3314 15.4327L33.8224 16.0278L34.3519 16.6373L34.9201 17.2595L35.5268 17.8927L36.1721 18.5351L36.8556 19.1851L37.5772 19.8408L38.3365 20.5006L39.133 21.1628L39.9663 21.8257L40.8356 22.4875L41.7404 23.1467L42.6798 23.8016L43.6531 24.4507L44.6592 25.0923L45.6972 25.7249L46.7661 26.347L47.8646 26.9573L48.9917 27.5542L50.1459 28.1365L51.326 28.7029L52.5306 29.252L53.7582 29.7829L55.0073 30.2942L56.2763 30.7851L57.5637 31.2544L58.8678 31.7013L60.1869 32.1249L61.5192 32.5246L62.863 32.8995L64.2165 33.249L65.5778 33.5727L66.9452 33.87L68.3168 34.1406L69.6906 34.3842L71.0648 34.6005L72.4376 34.7894L73.8069 34.9509L75.171 35.085L76.5279 35.1918L77.8758 35.2714L79.2127 35.3242L80.5369 35.3506L81.8465 35.3508L83.1397 35.3255L84.4148 35.2752L85.67 35.2007L86.9036 35.1025L88.114 34.9816L89.2996 34.8388L90.4587 34.6751L91.59 34.4914L92.6919 34.2889L93.763 34.0687L94.802 33.832L95.8076 33.5799L96.7787 33.3139L97.714 33.0353L98.6125 32.7455L99.4732 32.4458L100.295 32.1378L101.078 31.8231L101.82 31.503L102.521 31.1792L103.181 30.8534L103.798 30.527L104.373 30.2018L104.905 29.8793L105.394 29.5613L105.839 29.2493L106.241 28.945L106.6 28.6502L106.915 28.3663L107.187 28.0951L107.416 27.8381L107.603 27.597L107.747 27.3733L107.85 27.1685L107.911 26.9843L107.932 26.822L107.913 26.683L107.856 26.5688L107.76 26.4808L107.627 26.4202L107.458 26.3882L107.254 26.3861L107.017 26.415L106.747 26.476L106.445 26.5701L106.113 26.6981L105.753 26.8611L105.366 27.0598L104.953 27.2948L104.516 27.567L104.056 27.8768L103.575 28.2247L103.074 28.6112L102.556 29.0366L102.021 29.5011L101.473 30.0049L100.911 30.5482L100.338 31.1309L99.7562 31.7528L99.1665 32.4139L98.5709 33.114L97.9711 33.8525L97.3688 34.6293L96.7656 35.4436L96.1634 36.295L95.5637 37.1828L94.968 38.1062L94.3781 39.0644L93.7955 40.0565L93.2217 41.0815L92.6582 42.1384L92.1065 43.226L91.5679 44.3432L91.0437 45.4886L90.5353 46.6611L90.044 47.8591L89.5708 49.0813L89.1169 50.3261L88.6834 51.592L88.2711 52.8774L87.8812 54.1807L87.5143 55.5001L87.1713 56.834L86.8529 58.1806L86.5596 59.5381L86.292 60.9047L86.0506 62.2785L85.8358 63.6578L85.6479 65.0405L85.4871 66.4249L85.3534 67.8091L85.2471 69.1911L85.168 70.569L85.1161 71.9411L85.0911 73.3053L85.0929 74.6599L85.1209 76.0029L85.1749 77.3327L85.2543 78.6472L85.3584 79.9449L85.4868 81.2239L85.6385 82.4825L85.8128 83.7191L86.0088 84.9321L86.2256 86.1198L86.4622 87.2808L86.7174 88.4136L86.9902 89.5168L87.2793 90.589L87.5834 91.629L87.9014 92.6355L88.2317 93.6073L88.573 94.5434L88.924 95.4428L89.283 96.3045L89.6485 97.1277L90.0191 97.9116L90.3931 98.6554L90.769 99.3586L91.145 100.021L91.5196 100.641L91.8911 101.219L92.2579 101.755L92.6182 102.249L92.9705 102.7L93.313 103.108L93.6441 103.474L93.9621 103.797L94.2654 104.078L94.5525 104.317L94.8216 104.515L95.0713 104.671L95.3 104.787L95.5063 104.864L95.6886 104.901L95.8456 104.899L95.9759 104.86L96.0782 104.785L96.1511 104.674L96.1936 104.528L96.2043 104.349L96.1823 104.137L96.1266 103.895L96.036 103.623L95.9098 103.323L95.7472 102.996L95.5473 102.643L95.3095 102.267L95.0333 101.867L94.718 101.448L94.3633 101.008L93.9687 100.551L93.5342 100.079L93.0593 99.5912L92.544 99.0913L91.9884 98.5803L91.3924 98.0601L90.7563 97.5322L90.0802 96.9985L89.3645 96.4605L88.6096 95.92L87.8159 95.3787L86.984 94.8382L86.1147 94.3001L85.2086 93.766L84.2665 93.2376L83.2893 92.7164L82.2781 92.2039L81.2337 91.7015L80.1574 91.2107L79.0504 90.7329L77.9138 90.2695L76.749 89.8216L75.5573 89.3906L74.3403 88.9776L73.0993 88.5837L71.836 88.21L70.5519 87.8573L69.2487 87.5268L67.928 87.2191L66.5916 86.9351L65.2412 86.6754L63.8786 86.4407L62.5057 86.2315L61.1242 86.0483L59.7361 85.8914L58.3431 85.7612L56.9473 85.6579L55.5504 85.5815L54.1545 85.5323L52.7613 85.51L51.3728 85.5147L49.9909 85.5462L48.6174 85.6041L47.2543 85.6882L45.9033 85.7979L44.5663 85.9329L43.245 86.0924L41.9413 86.2759L40.6567 86.4826L39.3931 86.7117L38.152 86.9623L36.935 87.2334L35.7437 87.5241L34.5796 87.8333L33.4441 88.1598L32.3385 88.5025L31.2642 88.86L30.2224 89.2311L29.2143 89.6144L28.241 90.0085L27.3035 90.412L26.4028 90.8234L25.5398 91.2411L24.7153 91.6636L23.93 92.0894L23.1845 92.5167L22.4795 92.9441L21.8153 93.3698L21.1925 93.7922L20.6112 94.2095L20.0718 94.6203L19.5744 95.0227L19.119 95.415L18.7055 95.7957L18.334 96.1631L18.0041 96.5155L17.7157 96.8514L17.4682 97.169L17.2614 97.4669L17.0945 97.7435L16.9671 97.9973L16.8785 98.2268L16.8279 98.4306L16.8143 98.6073L16.8371 98.7556L16.8951 98.8742L16.9873 98.9619L17.1126 99.0174L17.2699 99.0398L17.4578 99.0279L17.6752 98.9807L17.9207 98.8974L18.1928 98.7771L18.4903 98.619L18.8115 98.4225L19.155 98.1869L19.5192 97.9117L19.9025 97.5964L20.3034 97.2407L20.7202 96.8442L21.1512 96.4068L21.5949 95.9283L22.0494 95.4087L22.5131 94.848L22.9844 94.2463L23.4615 93.6039L23.9427 92.9211L24.4264 92.1983L24.911 91.4358L25.3946 90.6343L25.8758 89.7944L26.3529 88.9169L26.8244 88.0024L27.2886 87.0519L27.7441 86.0663L28.1895 85.0466L28.6232 83.994L29.0439 82.9095L29.4503 81.7945L29.841 80.6502L30.2149 79.478L30.5708 78.2793L30.9075 77.0555L31.2241 75.8083L31.5195 74.5391L31.7929 73.2496L32.0433 71.9415L32.2701 70.6165L32.4725 69.2763L32.6499 67.9227L32.8018 66.5575L32.9277 65.1825L33.0272 63.7996L33.1 62.4107L33.146 61.0177L33.1649 59.6223L33.1567 58.2266L33.1214 56.8324L33.0592 55.4416L32.9702 54.0561L32.8547 52.6778L32.713 51.3085L32.5456 49.9501L32.353 48.6044L32.1358 47.2732L31.8946 45.9582L31.6302 44.6611L31.3434 43.3838L31.0351 42.1276L30.7062 40.8944L30.3577 39.6856L29.9908 38.5028L29.6066 37.3473L29.2062 36.2205L28.791 35.1239L28.3623 34.0585L27.9214 33.0257L27.4697 32.0265L27.0087 31.062L26.54 30.1332L26.0649 29.2409L25.5851 28.386L25.1022 27.5693L24.6179 26.7914L24.1336 26.0528L23.6512 25.3541L23.1723 24.6957L22.6985 24.078L22.2316 23.5011L21.7732 22.9652L21.3251 22.4705L20.8889 22.0168L20.4663 21.6042L20.0589 21.2324L19.6684 20.9012L19.2965 20.6102L18.9446 20.359L18.6144 20.1471L18.3074 19.9739L18.0251 19.8388L17.7689 19.741L17.5403 19.6796L17.3405 19.6539L17.171 19.6628L17.0329 19.7054L16.9275 19.7805L16.8558 19.887L16.8191 20.0237L16.8181 20.1894L16.854 20.3826L16.9275 20.6022L17.0395 20.8465L17.1907 21.1143L17.3817 21.4039L17.613 21.714L17.8852 22.0428L18.1987 22.3888L18.5537 22.7505L18.9506 23.1262L19.3894 23.5141L19.8703 23.9128L20.3931 24.3204L20.9578 24.7353L21.5643 25.1559L22.2121 25.5805L22.9011 26.0074L23.6306 26.435L24.4003 26.8616L25.2094 27.2856L26.0573 27.7054L26.9432 28.1194L27.8662 28.5262L28.8255 28.9242L29.82 29.312L30.8486 29.6881L31.9102 30.0511L33.0036 30.3998L34.1275 30.7328L35.2805 31.049L36.4612 31.3471L37.6682 31.6261L38.8999 31.8849L40.1549 32.1226L41.4313 32.3383L42.7277 32.531L44.0423 32.7001L45.3733 32.8448L46.719 32.9646L48.0775 33.0589L49.4471 33.1272L50.8259 33.1691L52.212 33.1844L53.6036 33.1729L54.9987 33.1343L56.3954 33.0686L57.7919 32.9759L59.1862 32.8563L60.5765 32.7099L61.9608 32.5371L63.3373 32.3381L64.7042 32.1134L66.0596 31.8635L67.4018 31.5891L68.7289 31.2907L70.0392 30.969L71.3311 30.625L72.6028 30.2595L73.8528 29.8735L75.0794 29.4679L76.2813 29.0438L77.4569 28.6025L78.6047 28.1451L79.7236 27.6728L80.8122 27.187L81.8693 26.689L82.8938 26.1803L83.8846 25.6624L84.8406 25.1366L85.761 24.6046L86.645 24.0679L87.4917 23.5282L88.3006 22.9869L89.0709 22.4459L89.8021 21.9068L90.4939 21.3712L91.1459 20.8408L91.7577 20.3173L92.3293 19.8025L92.8605 19.298L93.3513 18.8055L93.8018 18.3267L94.2122 17.8633L94.5826 17.4169L94.9134 16.9891L95.205 16.5816L95.4579 16.196L95.6727 15.8337L95.85 15.4963L95.9905 15.1852L96.095 14.9019L96.1644 14.6478L96.1996 14.4241L96.2017 14.2321L96.1716 14.0731L96.1106 13.9482L96.0197 13.8584L95.9004 13.8049L95.7538 13.7885L95.5813 13.8102L95.3843 13.8708L95.1643 13.971L94.9227 14.1114L94.661 14.2927L94.3809 14.5153L94.0838 14.7798L93.7714 15.0863L93.4452 15.4352L93.1071 15.8267L92.7585 16.2608L92.4011 16.7375L92.0367 17.2568L91.6669 17.8185L91.2933 18.4223L90.9176 19.068L90.5415 19.7549L90.1666 20.4828L89.7944 21.2509L89.4267 22.0587L89.0649 22.9053L88.7106 23.7899L88.3653 24.7116L88.0305 25.6695L87.7075 26.6624L87.3977 27.6893L87.1025 28.7489L86.8232 29.84L86.5609 30.9613L86.3168 32.1113L86.0921 33.2887L85.8877 34.4918L85.7047 35.7193L85.5439 36.9694L85.4063 38.2406L85.2925 39.5311L85.2033 40.8392L85.1392 42.1631L85.1008 43.5011L85.0886 44.8513L85.103 46.212L85.1443 47.5811L85.2126 48.957L85.3082 50.3376L85.431 51.7212L85.5811 53.1057L85.7584 54.4893L85.9626 55.8702L86.1935 57.2464L86.4508 58.616L86.7339 59.9773L87.0425 61.3284L87.3759 62.6676L87.7334 63.9929L88.1144 65.3028L88.5179 66.5955L88.9431 67.8693L89.3891 69.1226L89.8548 70.3539L90.3391 71.5617L90.8409 72.7444L91.359 73.9007L91.892 75.0292L92.4388 76.1286L92.9978 77.1978L93.5677 78.2355L94.147 79.2407L94.7342 80.2124L95.3277 81.1497L95.926 82.0517L96.5275 82.9175L97.1305 83.7466L97.7333 84.5382L98.3343 85.2919L98.9318 86.0072L99.524 86.6837L100.109 87.3212L100.686 87.9194L101.252 88.4782L101.806 88.9976L102.347 89.4777L102.871 89.9185L103.379 90.3203L103.868 90.6835L104.337 91.0083L104.783 91.2952L105.206 91.5449L105.603 91.7578L105.975 91.9348L106.318 92.0765L106.631 92.1839L106.914 92.2579L107.165 92.2993L107.382 92.3093L107.565 92.289L107.712 92.2396L107.822 92.1622L107.895 92.0582L107.929 91.9289L107.924 91.7757L107.879 91.5999L107.792 91.4031L107.665 91.1867L107.495 90.9522L107.283 90.7013L107.028 90.4356L106.73 90.1565L106.388 89.8658L106.003 89.565L105.575 89.2559L105.103 88.9401L104.588 88.6192L104.03 88.2948L103.43 87.9687L102.787 87.6424L102.102 87.3177L101.376 86.996L100.609 86.6789L99.8027 86.3681L98.9571 86.0649L98.0734 85.771L97.1525 85.4878L96.1955 85.2167L95.2034 84.959L94.1774 84.716L93.1188 84.4891L92.0289 84.2795L90.9091 84.0883L89.7608 83.9165L88.5855 83.7653L87.3847 83.6357L86.1601 83.5284L84.9132 83.4445L83.6458 83.3845L82.3595 83.3493L81.0562 83.3394L79.7375 83.3553L78.4054 83.3976L77.0616 83.4666L75.7081 83.5627L74.3466 83.6859L72.9791 83.8366L71.6075 84.0147L70.2336 84.2202L68.8594 84.453L67.4867 84.713L66.1175 84.9998L64.7535 85.3131L63.3967 85.6525L62.0488 86.0174L60.7118 86.4073L59.3873 86.8216L58.0771 87.2594L56.7829 87.72L55.5064 88.2024L54.2492 88.7058L53.013 89.2291L51.7991 89.7711L50.6092 90.3308L49.4445 90.907L48.3066 91.4983L47.1966 92.1035L46.1159 92.7211L45.0656 93.3497L44.0467 93.988L43.0603 94.6342L42.1074 95.287L41.1889 95.9447L40.3055 96.6057L39.4579 97.2684L38.6468 97.931L37.8728 98.592L37.1362 99.2495L36.4376 99.902L35.7772 100.548L35.1552 101.185L34.5718 101.811L34.027 102.426L33.5208 103.027L33.0531 103.613L32.6236 104.181L32.2321 104.731L31.8782 105.26L31.5615 105.767L31.2814 106.251L31.0374 106.71L30.8287 107.142L30.6547 107.545L30.5144 107.92L30.4069 108.263L30.3314 108.574L30.2867 108.852L30.2718 109.095L30.2856 109.302L30.3267 109.472L30.394 109.605L30.4861 109.698L30.6017 109.752L30.7393 109.766L30.8975 109.738L31.0749 109.668L31.2698 109.557L31.4808 109.402L31.7062 109.204L31.9445 108.963L32.1941 108.677L32.4533 108.348L32.7204 107.975L32.9939 107.558L33.2721 107.098L33.5534 106.593L33.836 106.046L34.1184 105.455L34.399 104.822L34.6761 104.147L34.9482 103.431L35.2138 102.674L35.4712 101.878L35.7191 101.042L35.9559 100.169L36.1803 99.2583L36.3909 98.3118L36.5864 97.3307L36.7654 96.316L36.9269 95.2692L37.0695 94.1914L37.1923 93.0842L37.2942 91.949L37.3741 90.7873L37.4313 89.6008L37.4649 88.3909L37.474 87.1595L37.458 85.9081L37.4163 84.6386L37.3484 83.3526L37.2537 82.0521L37.132 80.7387L36.9828 79.4145L36.806 78.0811L36.6014 76.7405L36.3689 75.3946L36.1087 74.0452L35.8207 72.6943L35.5052 71.3437L35.1624 69.9953L34.7928 68.6509L34.3966 67.3125L33.9745 65.9817L33.527 64.6606L33.0548 63.3507L32.5587 62.0538L32.0393 60.7718L31.4978 59.5061L30.9349 58.2586L30.3518 57.0306L29.7495 55.8239L29.1291 54.6397L28.492 53.4797L27.8394 52.3451L27.1726 51.2373L26.4929 50.1575L25.802 49.1068L25.1011 48.0864L24.3919 47.0974L23.6759 46.1406L22.9547 45.2169L22.2299 44.3273L21.5032 43.4723L20.7763 42.6527L20.0509 41.869L19.3287 41.1217L18.6114 40.4112L17.9007 39.7378L17.1985 39.1018L16.5065 38.5034L15.8263 37.9425L15.1598 37.4192L14.5086 36.9334L13.8745 36.4848L13.2591 36.0733L12.6642 35.6984L12.0913 35.3598L11.542 35.057L11.018 34.7893L10.5206 34.556L10.0516 34.3565L9.61218 34.19L9.20385 34.0555L8.82793 33.9522L8.48569 33.8789L8.17837 33.8347L7.90713 33.8184L7.67306 33.8287L7.4772 33.8646L7.32051 33.9245L7.20388 34.0073L7.12812 34.1114L7.09398 34.2356L7.10211 34.3782L7.1531 34.5379L7.24745 34.713L7.38557 34.9021L7.5678 35.1035L7.7944 35.3156L8.06552 35.5368L8.38125 35.7655L8.74158 36L9.14641 36.2388L9.59557 36.4802L10.0888 36.7225L10.6257 36.9641L11.2059 37.2035L11.8289 37.439L12.494 37.6691L13.2006 37.8923L13.9479 38.107L14.7351 38.3117L15.5612 38.505L16.4253 38.6855L17.3262 38.8518L18.2629 39.0026L19.2342 39.1367L20.2386 39.2529L21.2751 39.3499L22.342 39.4267L23.438 39.4823L24.5616 39.5156L25.7111 39.5258L26.8851 39.5121L28.0818 39.4736L29.2996 39.4097L30.5367 39.3197L31.7913 39.2032L33.0618 39.0596L34.3461 38.8886L35.6427 38.6898L36.9494 38.4631L38.2646 38.2083L39.5863 37.9253L40.9126 37.6141L42.2417 37.2749L43.5716 36.9079L44.9005 36.5132L46.2266 36.0913L47.5479 35.6426L48.8627 35.1675L50.1691 34.6667L51.4654 34.1409L52.7497 33.5908L54.0205 33.0171L55.276 32.4209L56.5146 31.803L57.7346 31.1644L58.9346 30.5063L60.113 29.8299L61.2685 29.1363L62.3996 28.4268L63.505 27.7028L64.5835 26.9657L65.6338 26.2168L66.6549 25.4577L67.6457 24.6898L68.6053 23.9149L69.5327 23.1344L70.427 22.35L71.2877 21.5633L72.1139 20.7761L72.9052 19.9901L73.661 19.2069L74.3808 18.4283L75.0644 17.6562L75.7115 16.8921L76.322 16.1379L76.8957 15.3953L77.4326 14.6661L77.9328 13.9521L78.3966 13.2548L78.8241 12.576L79.2157 11.9175L79.5718 11.2808L79.8929 10.6675L80.1796 10.0794L80.4324 9.51776L80.6522 8.98427L80.8398 8.48033L80.9959 8.00736L81.1215 7.56672L81.2177 7.15972L81.2855 6.78759L81.326 6.45152L81.3404 6.15263L81.33 5.89198L81.296 5.67055L81.2397 5.48926L81.1626 5.34893L81.0661 5.25034L80.9516 5.19418L80.8207 5.18104L80.6748 5.21146L80.5156 5.28588L80.3445 5.40466L80.1632 5.56808L79.9733 5.77633L79.7764 6.02951L79.5742 6.32765L79.3683 6.67068L79.1603 7.05845L78.9518 7.49073L78.7445 7.96718L78.5399 8.48741L78.3397 9.05091L78.1454 9.65712L77.9586 10.3054L77.7807 10.995L77.6133 11.725L77.4578 12.4947L77.3156 13.303L77.1881 14.1489L77.0766 15.0313L76.9823 15.9489L76.9065 16.9006L76.8504 17.8851L76.8149 18.9009L76.8013 19.9466L76.8103 21.0208L76.8431 22.1219L76.9003 23.2483L76.9829 24.3984L77.0913 25.5705L77.2264 26.7629L77.3886 27.9739L77.5784 29.2017L77.7962 30.4445L78.0423 31.7005L78.3169 32.9678L78.6202 34.2446L78.9523 35.529L79.313 36.8192L79.7024 38.1132L80.1203 39.4093L80.5663 40.7054L81.0401 41.9999L81.5413 43.2908L82.0695 44.5763L82.6239 45.8547L83.2039 47.1241L83.8089 48.3828L84.4379 49.6291L85.0901 50.8613L85.7646 52.0778L86.4602 53.2769L87.1759 54.4572L87.9105 55.6172L88.6628 56.7554L89.4316 57.8704L90.2154 58.9609L91.0129 60.0257L91.8226 61.0636L92.6431 62.0734L93.4728 63.054L94.31 64.0046L95.1533 64.9242L96.001 65.8119L96.8513 66.667L97.7026 67.4889L98.5532 68.2768L99.4013 69.0304L100.245 69.7492L101.083 70.4328L101.913 71.081L102.734 71.6936L103.543 72.2705L104.339 72.8116L105.12 73.3171L105.885 73.7871L106.631 74.2219L107.358 74.6217L108.063 74.9869L108.744 75.3181L109.4 75.6157L110.03 75.8805L110.632 76.1131L111.205 76.3142L111.746 76.4849L112.256 76.6259L112.731 76.7383L113.172 76.823L113.576 76.8813L113.943 76.9143L114.272 76.9231L114.561 76.9092L114.81 76.8737L115.018 76.8181L115.184 76.7437L115.307 76.6521L115.387 76.5447L115.423 76.423L115.414 76.2886L115.361 76.1429L115.262 75.9877L115.119 75.8245L114.93 75.6549L114.695 75.4805L114.415 75.3029L114.09 75.1239L113.719 74.9449L113.304 74.7676L112.844 74.5937L112.341 74.4245L111.794 74.2619L111.204 74.1072L110.572 73.9619L109.899 73.8277L109.185 73.7058L108.432 73.5977L107.641 73.5047L106.812 73.4283L105.947 73.3695L105.047 73.3297L104.114 73.31L103.148 73.3115L102.151 73.3353L101.125 73.3822L100.071 73.4533L98.9908 73.5494L97.8857 73.6712L96.7576 73.8194L95.6082 73.9947L94.4391 74.1976L93.2522 74.4285L92.0493 74.688L90.8321 74.9762L89.6024 75.2934L88.3622 75.6398L87.1133 76.0154L85.8576 76.4202L84.5969 76.8541L83.3331 77.317L82.068 77.8086L80.8036 78.3284L79.5416 78.8762L78.2839 79.4514L77.0322 80.0534L75.7885 80.6816L74.5543 81.3352L73.3315 82.0133L72.1217 82.7152L70.9265 83.4399L69.7475 84.1862L68.5864 84.9532L67.4445 85.7396L66.3234 86.5443L65.2244 87.3659L64.1488 88.2032L63.098 89.0546L62.0731 89.9188L61.0752 90.7943L60.1055 91.6796L59.1649 92.5729L58.2544 93.4729L57.3747 94.3777L56.5267 95.2857L55.7111 96.1952L54.9284 97.1045L54.1791 98.0118L53.4638 98.9153L52.7828 99.8134L52.1363 100.704L51.5246 101.586L50.9478 102.457L50.4059 103.315L49.8988 104.159L49.4264 104.986L48.9884 105.796L48.5847 106.586L48.2147 107.355L47.8781 108.101L47.5742 108.823L47.3025 109.518L47.0622 110.185L46.8526 110.824L46.6729 111.431L46.5222 112.007L46.3993 112.549L46.3035 113.057L46.2334 113.528L46.1881 113.963L46.1661 114.359L46.1664 114.716L46.1876 115.033L46.2282 115.308L46.287 115.542L46.3624 115.733L46.4531 115.881L46.5574 115.984L46.6739 116.044L46.8009 116.058L46.937 116.028L47.0804 115.952L47.2297 115.83L47.3831 115.663L47.5391 115.45L47.6961 115.192L47.8523 114.888L48.0063 114.539L48.1564 114.145L48.301 113.707L48.4386 113.226L48.5677 112.701L48.6866 112.133L48.794 111.524L48.8884 110.874L48.9684 110.184L49.0326 109.455L49.0798 108.688L49.1086 107.884L49.1177 107.045L49.1062 106.172L49.0728 105.265L49.0165 104.327L48.9364 103.359L48.8315 102.362L48.7009 101.338L48.5439 100.288L48.3598 99.215L48.148 98.1195L47.9079 97.0034L47.639 95.8687L47.3409 94.7169L47.0134 93.55L46.6561 92.3697L46.269 91.1779L45.8519 89.9765L45.4048 88.7671L44.9279 87.5518L44.4214 86.3324L43.8854 85.1107L43.3204 83.8886L42.7267 82.6679L42.1049 81.4503L41.4555 80.2378L40.7792 79.0321L40.0768 77.8348L39.349 76.6478L38.5968 75.4727L37.8211 74.3111L37.0229 73.1647L36.2034 72.0349L35.3637 70.9233L34.505 69.8313L33.6287 68.7602L32.736 67.7116L31.8284 66.6865L30.9074 65.6862L29.9744 64.7119L29.031 63.7646L28.0787 62.8453L27.1193 61.955L26.1543 61.0944L25.1855 60.2644L24.2146 59.4657L23.2433 58.6988L22.2734 57.9643L21.3067 57.2627L20.3449 56.5944L19.3899 55.9595L18.4434 55.3584L17.5073 54.7912L16.5834 54.2578L15.6733 53.7583L14.779 53.2925L13.9022 52.8602L13.0445 52.4611L12.2078 52.0948L11.3936 51.761L10.6037 51.459L9.8397 51.1882L9.10308 50.948L8.39542 50.7377L7.7182 50.5563L7.07286 50.403L6.46076 50.2768L5.88324 50.1768L5.34156 50.1017L4.83691 50.0506L4.37042 50.0221L3.94317 50.015L3.55615 50.0281L3.21028 50.0599L2.9064 50.1091L2.6453 50.1743L2.42765 50.2539L2.25407 50.3465L2.12509 50.4506L2.04116 50.5646L2.00264 50.6869L2.00981 50.816L2.06285 50.9502L2.16187 51.088L2.3069 51.2277L2.49787 51.3677L2.73462 51.5064L3.0169 51.6422L3.34441 51.7736L3.71672 51.8989L4.13335 52.0165L4.59371 52.125L5.09714 52.2229L5.64291 52.3086L6.2302 52.3807L6.85811 52.4378L7.52567 52.4787L8.23183 52.5018L8.9755 52.506L9.75547 52.4901L10.5705 52.4528L11.4193 52.3932L12.3005 52.3101L13.2126 52.2025L14.1542 52.0696L15.1238 51.9104L16.1197 51.7243L17.1403 51.5105L18.1841 51.2683L19.2492 50.9973L20.334 50.6969L21.4366 50.3667L22.5554 50.0065L23.6885 49.6159L24.8341 49.1948L25.9903 48.7432L27.1553 48.2609L28.3272 47.7483L29.5043 47.2053L30.6846 46.6322L31.8664 46.0295L33.0477 45.3974L34.2268 44.7366L35.4019 44.0475L36.5712 43.3309L37.733 42.5874L38.8856 41.8179L40.0272 41.0233L41.1563 40.2045L42.2713 39.3626L43.3705 38.4986L44.4526 37.6138L45.516 36.7092L46.5593 35.7864L47.5813 34.8464L48.5806 33.8909L49.5561 32.9212L50.5065 31.9389L51.4309 30.9454L52.3281 29.9424L53.1973 28.9315L54.0377 27.9143L54.8483 26.8927L55.6285 25.8682L56.3778 24.8426L57.0955 23.8178L57.7812 22.7954L58.4345 21.7774L59.0551 20.7654L59.6427 19.7613L60.1973 18.7669L60.7189 17.784L61.2073 16.8145L61.6629 15.86L62.0857 14.9224L62.476 14.0033L62.8342 13.1047L63.1608 12.228L63.4563 11.375L63.7212 10.5474L63.9563 9.74665L64.1623 8.97437L64.3399 8.23204L64.4902 7.52112L64.614 6.843L64.7124 6.19903L64.7864 5.5905L64.8372 5.01861L64.866 4.48453L64.874 3.98935L64.8626 3.53408L64.833 3.11967L64.7867 2.747L64.7251 2.41685L64.6496 2.12995L64.5618 1.88694L64.4632 1.68836L64.3553 1.5347L64.2397 1.42634L64.1179 1.3636L63.9917 1.34668L63.8625 1.37573L63.7321 1.45078L63.602 1.57182L63.4738 1.7387L63.3491 1.95122L63.2296 2.20909L63.1169 2.51192L63.0123 2.85924L62.9177 3.25052L62.8343 3.68511L62.7638 4.16232L62.7075 4.68134L62.6669 5.24132L62.6433 5.84132L62.6382 6.48031L62.6526 7.15721L62.6879 7.87087L62.7453 8.62007L62.8258 9.40353L62.9305 10.2199L63.0604 11.0678L63.2164 11.9457L63.3994 12.8522L63.6102 13.7857L63.8494 14.7446L64.1178 15.7272L64.4159 16.7319L64.7441 17.7571L65.103 18.8008L65.4927 19.8614L65.9136 20.9371L66.3658 22.0261L66.8495 23.1266L67.3645 24.2367L67.9109 25.3547L68.4885 26.4786L69.097 27.6066L69.736 28.737L70.4053 29.8679L71.1042 30.9975L71.8322 32.124L72.5887 33.2457L73.3729 34.3609L74.184 35.4678L75.0211 36.5647L75.8833 37.6501L76.7695 38.7224L77.6787 39.7799L78.6096 40.8213L79.5611 41.845L80.5318 42.8497L81.5204 43.834L82.5255 44.7967L83.5456 45.7366L84.5793 46.6524L85.6249 47.5432L86.6808 48.4079L87.7456 49.2455L88.8173 50.0553L89.8944 50.8364L90.9751 51.5881L92.0577 52.3099L93.1403 53.001L94.2211 53.6611L95.2985 54.2898L96.3704 54.8868L97.4352 55.4518L98.491 55.9848L99.5359 56.4855L100.568 56.9542L101.586 57.3908L102.587 57.7957L103.571 58.169L104.535 58.511L105.477 58.8224L106.396 59.1034L107.29 59.3548L108.158 59.5772L108.998 59.7714L109.808 59.9381L110.587 60.0781L111.334 60.1926L112.047 60.2824L112.725 60.3487L113.367 60.3925L113.97 60.4151L114.536 60.4177L115.061 60.4015L115.546 60.368L115.989 60.3185L116.39 60.2544L116.748 60.1771L117.061 60.0882L117.331 59.9892L117.555 59.8815L117.734 59.7669L117.868 59.6468L117.955 59.5229L117.996 59.3967L117.992 59.2699L117.941 59.144L117.843 59.0207L117.7 58.9017L117.512 58.7884L117.278 58.6824L116.999 58.5854L116.676 58.4988L116.31 58.4242L115.9 58.363L115.448 58.3167L114.954 58.2867L114.42 58.2744L113.847 58.281L113.235 58.308L112.586 58.3564L111.901 58.4275L111.18 58.5224L110.427 58.6422L109.641 58.7878L108.824 58.9601L107.978 59.1601L107.105 59.3886L106.205 59.6462L105.281 59.9335L104.334 60.2513L103.366 60.5999L102.379 60.9797L101.374 61.3912L100.353 61.8346L99.3176 62.31L98.2703 62.8175L97.2125 63.3572L96.1461 63.9289L95.0728 64.5325L93.9946 65.1679L92.9132 65.8345L91.8305 66.5321L90.7482 67.2602L89.6681 68.0181L88.592 68.8053L87.5215 69.621L86.4585 70.4644L85.4046 71.3347L84.3614 72.2308L83.3304 73.1518L82.3133 74.0965L81.3116 75.0638L80.3266 76.0525L79.3598 77.0613L78.4126 78.0889L77.4861 79.1338L76.5817 80.1945L75.7004 81.2696L74.8434 82.3576L74.0116 83.4568L73.2061 84.5655L72.4277 85.6822L71.6771 86.8051L70.9551 87.9324L70.2624 89.0624L69.5994 90.1934L68.9668 91.3234L68.3647 92.4507L67.7937 93.5735L67.2539 94.69L66.7454 95.7982L66.2683 96.8964L65.8227 97.9828L65.4084 99.0555L65.0251 100.113L64.6727 101.153L64.3509 102.174L64.0591 103.174L63.7969 104.152L63.5636 105.105L63.3588 106.033L63.1815 106.934L63.031 107.806L62.9065 108.647L62.8069 109.457L62.7314 110.233L62.6787 110.975L62.6479 111.681L62.6377 112.35L62.6468 112.981L62.6741 113.573L62.7181 114.124L62.7774 114.634L62.8508 115.103L62.9366 115.528L63.0335 115.91L63.1399 116.248L63.2542 116.542L63.3749 116.79L63.5004 116.993L63.6292 117.15L63.7595 117.262L63.8898 117.327L64.0185 117.347L64.1439 117.32L64.2645 117.248L64.3786 117.13L64.4847 116.967L64.5812 116.759L64.6665 116.507L64.7392 116.211L64.7977 115.871L64.8407 115.49L64.8665 115.067L64.874 114.603L64.8617 114.1L64.8284 113.558L64.7728 112.978L64.6938 112.362L64.5902 111.711L64.4609 111.026L64.3049 110.308L64.1214 109.559L63.9094 108.781L63.6681 107.974L63.3969 107.141L63.0949 106.283L62.7617 105.402L62.3968 104.499L61.9997 103.576L61.57 102.634L61.1076 101.676L60.6122 100.704L60.0837 99.7185L59.5222 98.7219L58.9276 97.716L58.3001 96.7026L57.64 95.6835L56.9476 94.6605L56.2232 93.6353L55.4674 92.6098L54.6807 91.5858L53.8638 90.5649L53.0173 89.549L52.1422 88.5396L51.2392 87.5384L50.3093 86.5472L49.3535 85.5673L48.3729 84.6005L47.3687 83.6481L46.3422 82.7117L45.2945 81.7925L44.227 80.892L43.1413 80.0114L42.0386 79.152L40.9205 78.3148L39.7887 77.501L38.6446 76.7116L37.49 75.9475L36.3265 75.2096L35.1558 74.4987L33.9797 73.8155L32.8 73.1607L31.6184 72.5347L30.4368 71.9382L29.257 71.3714L28.0809 70.8348L26.9102 70.3285L25.7469 69.8527L24.5928 69.4074L23.4497 68.9927L22.3195 68.6085L21.2039 68.2546L20.1049 67.9307L19.0241 67.6365L17.9633 67.3716L16.9242 67.1354L15.9086 66.9275L14.9181 66.7471L13.9543 66.5935L13.0187 66.466L12.113 66.3636L11.2385 66.2855L10.3967 66.2306L9.58889 66.198L8.81643 66.1863L8.08054 66.1946L7.38238 66.2216L6.72306 66.2659L6.10359 66.3263L5.52494 66.4014L4.98799 66.4898L4.49353 66.59L4.0423 66.7006L3.63492 66.8199L3.27197 66.9466L2.95392 67.079L2.68116 67.2156L2.454 67.3547L2.27267 67.4948L2.13729 67.6342L2.04791 67.7714L2.0045 67.9047L2.00694 68.0325L2.05502 68.1532L2.14843 68.2652L2.28681 68.367L2.46967 68.457L2.69649 68.5338L2.96663 68.5957L3.27939 68.6413L3.63396 68.6694L4.02951 68.6783L4.46507 68.6668L4.93965 68.6337L5.45217 68.5776L6.00148 68.4974L6.58636 68.392L7.20554 68.2602L7.85769 68.1011L8.54141 67.9137L9.25527 67.6972L9.99777 67.4506L10.7674 67.1734L11.5625 66.8647L12.3815 66.5241L13.2228 66.151L14.0846 65.745L14.9653 65.3057L15.863 64.8328L16.7761 64.3262L17.7028 63.7857L18.6412 63.2114L19.5896 62.6032L20.5462 61.9613L21.5092 61.2859L22.4767 60.5774L23.447 59.8361L24.4184 59.0625L25.389 58.2571L26.3572 57.4207L27.3211 56.5538L28.2792 55.6573L29.2297 54.732L30.171 53.779L31.1017 52.7991L32.02 51.7936L32.9246 50.7634L33.8139 49.71L34.6867 48.6345L35.5415 47.5382L36.377 46.4227L37.1922 45.2892L37.9857 44.1395L38.7566 42.9749L39.5038 41.7972L40.2263 40.6079L40.9233 39.4087L41.594 38.2014L42.2376 36.9877L42.8536 35.7693L43.4413 34.5482L44.0003 33.326L44.5301 32.1046L45.0305 30.8859L45.5011 29.6717L45.9418 28.4639L46.3527 27.2643L46.7335 26.0747L47.0846 24.8971L47.4059 23.7332L47.6978 22.5849L47.9606 21.4539L48.1948 20.342L48.4007 19.251L48.5791 18.1825L48.7305 17.1382L48.8556 16.1198L48.9552 15.1288L49.0303 14.1667L49.0817 13.2351L49.1104 12.3354L49.1175 11.4689L49.1041 10.637L49.0714 9.84099L49.0206 9.08196L48.9529 8.36107L48.8698 7.67937L48.7725 7.03784L48.6626 6.43738L48.5414 5.87882L48.4104 5.36291L48.2712 4.89031L48.1253 4.46162L47.9743 4.07733L47.8197 3.73786L47.6632 3.44356L47.5063 3.19466L47.3507 2.99134L47.198 2.83367L47.0498 2.72163L46.9078 2.65515L46.7735 2.63403L46.6485 2.65801L46.5345 2.72674L46.4329 2.83979L46.3453 2.99664L46.2732 3.19668L46.2182 3.43925L46.1815 3.72358L46.1646 4.04885L46.1689 4.41414L46.1956 4.81847L46.246 5.26079L46.3214 5.73998L46.4228 6.25486L46.5514 6.80419L46.7082 7.38664L46.8941 8.00088L47.11 8.64547L47.3568 9.31895L47.6352 10.0198L47.946 10.7465L48.2896 11.4974L48.6666 12.2709L49.0775 13.0653L49.5226 13.879L50.0023 14.7102L50.5167 15.5572L51.0659 16.4182L51.6501 17.2914L52.2691 18.1751L52.9228 19.0676L53.6111 19.9669L54.3335 20.8714L55.0898 21.7793L55.8795 22.6888L56.702 23.5981L57.5567 24.5056L58.4429 25.4095L59.3598 26.3082L60.3066 27.2L61.2823 28.0833L62.2859 28.9565L63.3163 29.8182L64.3724 30.6668L65.453 31.5009L66.5568 32.319L67.6824 33.12L68.8284 33.9025L69.9934 34.6652L71.1759 35.4071L72.3743 36.127L73.587 36.824L74.8124 37.4971L76.0487 38.1454L77.2942 38.7682L78.5473 39.3646L79.806 39.9341L81.0687 40.4761L82.3334 40.99L83.5984 41.4756L84.8617 41.9324L86.1215 42.3603L87.376 42.759L88.6232 43.1284L89.8613 43.4687L91.0885 43.7798L92.3029 44.0619L93.5026 44.3154L94.6859 44.5404L95.851 44.7375L96.9961 44.907L98.1195 45.0496L99.2195 45.166L100.294 45.2567L101.343 45.3227L102.363 45.3647L103.353 45.3837L104.312 45.3807L105.239 45.3567L106.132 45.3128L106.989 45.2502L107.81 45.1702L108.594 45.074L109.338 44.9628L110.044 44.8383L110.708 44.7015L111.331 44.5542L111.912 44.3977L112.45 44.2335L112.944 44.0633L113.395 43.8885L113.801 43.7107L114.162 43.5316L114.478 43.3527L114.748 43.1757L114.973 43.0022L115.153 42.8338L115.287 42.6721L115.376 42.5188L115.42 42.3754L115.419 42.2435L115.374 42.1246L115.285 42.0204L115.153 41.9323L114.978 41.8618L114.761 41.8103L114.504 41.7792L114.206 41.7699L113.869 41.7837L113.494 41.8219L113.082 41.8856L112.634 41.9761L112.151 42.0944L111.635 42.2415L111.087 42.4185L110.509 42.6262L109.901 42.8655L109.265 43.1371L108.603 43.4417L107.917 43.78L107.207 44.1524L106.476 44.5595L105.726 45.0016L104.958 45.4791L104.173 45.992L103.374 46.5407L102.562 47.125L101.74 47.7451L100.908 48.4007L100.069 49.0918L99.2237 49.8179L98.3749 50.5787L97.5241 51.3739L96.6728 52.2028L95.8229 53.0648L94.976 53.9592L94.1338 54.8854L93.298 55.8423L92.4702 56.8292L91.6518 57.845L90.8445 58.8886L90.0498 59.9589L89.269 61.0546L88.5036 62.1746L87.7549 63.3175L87.0241 64.4819L86.3125 65.6663L85.6213 66.8692L84.9514 68.0891L84.304 69.3244L83.6799 70.5734L83.0801 71.8345L82.5054 73.1059L81.9565 74.3859L81.4339 75.6727L80.9384 76.9645L80.4704 78.2595L80.0303 79.5558L79.6184 80.8516L79.235 82.145L78.8802 83.4341L78.5542 84.717L78.2569 85.992L77.9883 87.2571L77.7482 88.5104L77.5363 89.7502L77.3523 90.9747L77.1958 92.1819L77.0664 93.3702L76.9634 94.5379L76.8863 95.6831L76.8342 96.8044L76.8065 97.8999L76.8023 98.9683L76.8206 100.008L76.8605 101.017L76.9208 101.995L77.0006 102.94L77.0986 103.85L77.2136 104.725L77.3443 105.563L77.4894 106.363L77.6475 107.125L77.8172 107.846L77.9971 108.527L78.1856 109.167L78.3813 109.764L78.5825 110.318L78.7878 110.83L78.9955 111.297L79.204 111.72L79.4117 112.098L79.617 112.432L79.8182 112.72L80.0138 112.964L80.202 113.163L80.3813 113.317L80.55 113.426L80.7066 113.492L80.8495 113.513L80.9771 113.491L81.0879 113.426L81.1805 113.318L81.2533 113.169L81.305 112.979L81.3342 112.75L81.3395 112.481L81.3197 112.174L81.2736 111.83L81.1999 111.451L81.0977 111.037L80.9657 110.589L80.8031 110.11L80.6088 109.599L80.3822 109.06L80.1223 108.492L79.8284 107.899L79.5 107.281L79.1365 106.639L78.7374 105.976L78.3023 105.294L77.8309 104.593L77.323 103.875L76.7783 103.143L76.197 102.398L75.5788 101.641L74.924 100.876L74.2328 100.102L73.5054 99.3222L72.7421 98.5383L71.9435 97.7519L71.11 96.9647L70.2422 96.1783L69.3408 95.3946L68.4066 94.6151L67.4404 93.8415L66.4432 93.0754L65.4158 92.3183L64.3595 91.5718L63.2753 90.8372L62.1644 90.1162L61.028 89.4099L59.8677 88.7198L58.6846 88.0471L57.4803 87.3931L56.2562 86.7588L55.0139 86.1453L53.7551 85.5537L52.4814 84.9849L51.1943 84.4398L49.8958 83.9192L48.5875 83.4238L47.2712 82.9542L45.9487 82.5111L44.6219 82.0948L43.2926 81.7059L41.9627 81.3447L40.6341 81.0114L39.3085 80.7061L37.9881 80.429L36.6745 80.1801L35.3697 79.9593L34.0756 79.7663L32.794 79.6011L31.5267 79.4632L30.2756 79.3523L29.0424 79.2679L27.8289 79.2094L26.6369 79.1761L25.4679 79.1675L24.3236 79.1826L23.2057 79.2207L22.1157 79.2808L21.055 79.3619L20.0252 79.463L19.0276 79.583L18.0635 79.7208L17.1342 79.875L16.2409 80.0444L15.3847 80.2277L14.5667 80.4235L13.7878 80.6304L13.049 80.847L12.351 81.0717L11.6947 81.3031L11.0807 81.5395L10.5095 81.7795L9.98168 82.0215L9.49767 82.2637L9.05779 82.5047L8.66229 82.7427L8.31131 82.9761L8.00495 83.2034L7.74318 83.4228L7.5259 83.6328L7.35295 83.8317L7.22404 84.018L7.13883 84.19L7.09687 84.3462L7.09766 84.4851L7.14059 84.6052L7.22499 84.705L7.35009 84.7831L7.51508 84.8381L7.71903 84.8687L7.96099 84.8735L8.23989 84.8515L8.55463 84.8012L8.90404 84.7218L9.28687 84.612L9.70184 84.4708L10.1476 84.2975L10.6227 84.091L11.1257 83.8506L11.6552 83.5755L12.2096 83.2652L12.7872 82.919L13.3866 82.5365L14.006 82.1173L14.6439 81.6609L15.2984 81.1672L15.9679 80.636L16.6507 80.0673L17.3451 79.4609L18.0492 78.8171L18.7614 78.1359L19.4798 77.4177L20.2029 76.6627L20.9288 75.8714L21.6558 75.0443L22.3822 74.182L23.1063 73.2852L23.8266 72.3545L24.5413 71.3909L25.2489 70.3951L25.9478 69.3683L26.6365 68.3114L27.3136 67.2256L27.9775 66.1121L28.627 64.9721L29.2607 63.8069L29.8774 62.6179L30.4757 61.4066L31.0547 60.1744L31.6132 58.9229L32.1502 57.6537L32.6647 56.3684L33.1559 55.0686L33.623 53.7562L34.0652 52.4329L34.4819 51.1004L34.8725 49.7606L35.2366 48.4152L35.5736 47.0662L35.8834 45.7154L36.1656 44.3646L36.42 43.0158L36.6466 41.6708L36.8454 40.3316L37.0164 39L37.1598 37.6779L37.2758 36.367L37.3649 35.0694L37.4273 33.7867L37.4635 32.5209L37.4741 31.2735L37.4598 30.0465L37.4213 28.8414L37.3592 27.6599L37.2746 26.5037L37.1682 25.3742L37.0412 24.2731L36.8945 23.2017L36.7293 22.1615L36.5467 21.1537L36.3479 20.1798L36.1343 19.2408L35.9072 18.338L35.6679 17.4723L35.4179 16.6449L35.1587 15.8566L34.8916 15.1082L34.6183 14.4006L34.3404 13.7345L34.0593 13.1104L33.7767 12.5288L33.4942 11.9903L33.2134 11.4951L32.9361 11.0435L32.6638 10.6358L32.3982 10.272L32.1409 9.95218L31.8935 9.6762L31.6578 9.44393L31.4352 9.25513L31.2275 9.10949L31.0361 9.00657L30.8627 8.94591L30.7087 8.92693L30.5756 8.94898L30.4648 9.01132L30.3778 9.11317L30.3159 9.25363L30.2804 9.43177L30.2725 9.64655L30.2936 9.89691L30.3446 10.1817L30.4268 10.4997L30.541 10.8496L30.6884 11.2301L30.8696 11.6399L31.0857 12.0775L31.3372 12.5414L31.6249 13.0301L31.9494 13.5422L32.3111 14.0759L32.7105 14.6297L33.148 15.2019L33.6238 15.7909L34.1381 16.3949L34.691 17.0123L35.2825 17.6413L35.9126 18.2803L36.581 18.9275L37.2876 19.5811L38.032 20.2396L38.8139 20.901L39.6327 21.5638L40.4878 22.2262L41.3787 22.8867L42.3045 23.5435L43.2645 24.195L44.2578 24.8398L45.2833 25.4761L46.3402 26.1026L47.4271 26.7177L48.543 27.32L49.6867 27.9083L50.8568 28.4811L52.0518 29.0372L53.2705 29.5754L54.5113 30.0946L55.7727 30.5936L57.053 31.0716L58.3507 31.5275L59.664 31.9604L60.9913 32.3696L62.3308 32.7543L63.6806 33.114L65.0391 33.4479L66.4043 33.7557L67.7745 34.0369L69.1476 34.2912L70.5219 34.5183L71.8955 34.7181L73.2664 34.8904L74.6328 35.0353L75.9928 35.1528L77.3444 35.2432L78.6859 35.3066L80.0153 35.3433L81.3309 35.3538L82.6308 35.3385L83.9133 35.298L85.1766 35.233L86.4189 35.1441L87.6387 35.032L88.8342 34.8978L90.004 34.7422L91.1465 34.5663L92.2601 34.3711L93.3435 34.1578L94.3954 33.9274L95.4144 33.6813L96.3992 33.4206L97.3488 33.1468L98.2619 32.8612L99.1377 32.5653L99.9751 32.2604L100.773 31.9481L101.531 31.63L102.249 31.3075L102.925 30.9823L103.559 30.6559L104.151 30.33L104.7 30.0063L105.206 29.6863L105.668 29.3717L106.088 29.0642L106.463 28.7654L106.796 28.477L107.085 28.2006L107.331 27.9378L107.534 27.6903L107.695 27.4595L107.814 27.2471L107.892 27.0545L107.928 26.8834L107.925 26.735L107.883 26.6109L107.802 26.5124L107.684 26.4408L107.529 26.3973L107.339 26.3833L107.115 26.3998L106.857 26.448L106.568 26.5289L106.248 26.6434L105.899 26.7925L105.522 26.977L105.119 27.1976L104.691 27.455L104.24 27.7498L103.767 28.0826L103.274 28.4538L102.763 28.8638L102.234 29.3129L101.691 29.8012L101.134 30.3288L100.566 30.8959L99.9871 31.5024L99.4002 32.1481L98.8068 32.8328L98.2084 33.5561L97.6069 34.3178L97.0039 35.1174L96.4011 35.9542L95.8002 36.8277L95.2028 37.7371L94.6104 38.6817L94.0248 39.6605L93.4473 40.6726L92.8796 41.7171L92.323 42.7927L91.779 43.8983L91.249 45.0328L90.7342 46.1947L90.236 47.3828L89.7555 48.5956L89.2939 49.8316L88.8522 51.0894L88.4314 52.3673L88.0325 53.6637L87.6565 54.977L87.3039 56.3054L86.9757 57.6472L86.6724 59.0006L86.3946 60.3638L86.1429 61.735L85.9175 63.1123L85.7189 64.4939L85.5474 65.8779L85.403 67.2623L85.2859 68.6454L85.196 70.0252L85.1334 71.3998L85.0978 72.7674L85.089 74.126L85.1067 75.4738L85.1505 76.809L85.2199 78.1298L85.3144 79.4343L85.4332 80.7209L85.5758 81.9877L85.7413 83.2332L85.9289 84.4557L86.1376 85.6536L86.3664 86.8254L86.6144 87.9695L86.8804 89.0846L87.1632 90.1692L87.4615 91.222L87.7742 92.2419L88.0998 93.2275L88.437 94.1779L88.7843 95.0919L89.1403 95.9686L89.5034 96.8071L89.8722 97.6066L90.2451 98.3664L90.6204 99.0857L90.9965 99.764L91.3719 100.401L91.7448 100.996L92.1136 101.549L92.4767 102.059L92.8324 102.527L93.1789 102.952L93.5147 103.335L93.8381 103.675L94.1474 103.972L94.4411 104.228L94.7175 104.442L94.9751 104.615L95.2123 104.746L95.4276 104.838L95.6195 104.891L95.7867 104.904L95.9277 104.88L96.0412 104.819L96.1259 104.722L96.1805 104.589L96.2039 104.423L96.195 104.225L96.1527 103.994L96.076 103.734L95.964 103.445L95.8158 103.128L95.6308 102.785L95.408 102.418L95.147 102.028L94.8473 101.616L94.5082 101.184L94.1294 100.734L93.7107 100.267L93.2517 99.7854L92.7524 99.2902L92.2128 98.7834L91.6327 98.2666L91.0124 97.7416L90.3521 97.21L89.652 96.6735L88.9125 96.1338L88.1341 95.5926L87.3172 95.0515L86.4626 94.5123L85.5709 93.9764L84.643 93.4456L83.6795 92.9214L82.6816 92.4052L81.6502 91.8987L80.5864 91.4032L79.4914 90.9201L78.3663 90.4508L77.2125 89.9966L76.0313 89.5588L74.8241 89.1386L73.5924 88.737L72.3377 88.3551L71.0617 87.9941L69.7658 87.6547L68.4518 87.3379L67.1214 87.0444L65.7763 86.7751L64.4183 86.5304L63.0493 86.3111L61.6709 86.1176L60.2852 85.9503L58.8939 85.8095L57.499 85.6955L56.1023 85.6085L54.7058 85.5485L53.3113 85.5156L51.9207 85.5097L50.536 85.5306L49.159 85.5781L47.7915 85.6519L46.4355 85.7515L45.0928 85.8766L43.7651 86.0265L42.4542 86.2006L41.1618 86.3982L39.8897 86.6185L38.6395 86.8607L37.4129 87.1239L36.2113 87.407L35.0362 87.709L33.8892 88.0288L32.7716 88.3652L31.6848 88.717L30.63 89.0829L29.6085 89.4616L28.6213 89.8516L27.6695 90.2515L26.7542 90.66L25.8762 91.0754L25.0364 91.4962L24.2355 91.9209L23.4742 92.3478L22.7532 92.7753L22.0728 93.2019L21.4336 93.6258L20.8359 94.0453L20.2799 94.4589L19.7659 94.8648L19.2939 95.2613L18.8639 95.6468L18.4758 96.0197L18.1295 96.3782L17.8247 96.7208L17.5611 97.0458L17.3383 97.3517L17.1557 97.6369L17.0128 97.8998L16.9089 98.1391L16.8434 98.3532L16.8153 98.5408L16.8238 98.7005L16.868 98.831L16.9468 98.931L17.0592 98.9994L17.204 99.035L17.38 99.0367L17.5859 99.0036L17.8204 98.9347L18.0822 98.8291L18.3698 98.686L18.6818 98.5048L19.0167 98.2847L19.3729 98.0252L19.7489 97.7258L20.143 97.3861L20.5537 97.0057L20.9793 96.5845L21.4182 96.1222L21.8686 95.6189L22.3289 95.0744L22.7974 94.4889L23.2724 93.8626L23.7522 93.1957L24.2351 92.4886L24.7195 91.7418L25.2037 90.9556L25.6861 90.1308L26.165 89.2681L26.6389 88.368L27.1062 87.4317L27.5653 86.4598L28.0148 85.4535L28.4533 84.4137L28.8793 83.3417L29.2915 82.2386L29.6886 81.1057L30.0693 79.9444L30.4324 78.756L30.7768 77.5419L31.1015 76.3038L31.4054 75.0431L31.6876 73.7614L31.9472 72.4605L32.1834 71.1419L32.3955 69.8075L32.5828 68.459L32.7449 67.0981L32.8811 65.7268L32.9911 64.3468L33.0745 62.9601L33.1311 61.5684L33.1607 60.1738L33.1632 58.778L33.1386 57.3829L33.087 55.9906L33.0085 54.6028L32.9035 53.2214L32.7721 51.8483L32.6148 50.4854L32.4321 49.1345L32.2245 47.7973L31.9927 46.4757L31.7374 45.1714L31.4594 43.886L31.1594 42.6213L30.8385 41.3788L30.4977 40.1602L30.1379 38.9669L29.7604 37.8005L29.3663 36.6622L28.9568 35.5535L28.5332 34.4756L28.097 33.4298L27.6494 32.4172L27.1919 31.4389L26.726 30.4958L26.2532 29.589L25.7752 28.7193L25.2933 27.8874L24.8093 27.0941L24.3248 26.3399L23.8415 25.6254L23.361 24.951L22.885 24.3172L22.4151 23.7241L21.9532 23.172L21.5008 22.661L21.0597 22.1912L20.6315 21.7623L20.2179 21.3744L19.8206 21.0272L19.4411 20.7204L19.0811 20.4535L18.7422 20.2262L18.4259 20.0378L18.1336 19.8877L17.8669 19.7752L17.6272 19.6995L17.4159 19.6599L17.2343 19.6552L17.0836 19.6846L16.9652 19.747L16.88 19.8413L16.8294 19.9662L16.8141 20.1206L16.8354 20.3031L16.8939 20.5124L16.9906 20.7471L17.1262 21.0058L17.3014 21.287L17.5168 21.5891L17.7728 21.9107L18.0699 22.2502L18.4085 22.6059L18.7888 22.9762L19.211 23.3595L19.6753 23.7541L20.1815 24.1584L20.7297 24.5706L21.3197 24.9892L21.9512 25.4124L22.624 25.8386L23.3376 26.2661L24.0914 26.6932L24.885 27.1185L25.7177 27.5401L26.5887 27.9566L27.4971 28.3665L28.4422 28.7681L29.4229 29.1601L30.4382 29.5409L31.4869 29.9093L32.5679 30.2638L33.6799 30.6032L34.8215 30.9261L35.9915 31.2315L37.1883 31.5182L38.4104 31.7852L39.6564 32.0313L40.9245 32.2558L42.2132 32.4576L43.5208 32.6362L44.8455 32.7906L46.1856 32.9203L47.5393 33.0247L48.9048 33.1033L50.2802 33.1557L51.6636 33.1816L53.0532 33.1806L54.4472 33.1528L55.8435 33.0978L57.2403 33.0158L58.6357 32.9068L60.0277 32.7709L61.4147 32.6085L62.7945 32.4198L64.1654 32.2052L65.5256 31.9652L66.8732 31.7004L68.2065 31.4114L69.5236 31.0988L70.823 30.7636L72.1028 30.4065L73.3616 30.0284L74.5976 29.6304L75.8095 29.2135L76.9956 28.7789L78.1546 28.3276L79.2851 27.8611L80.3858 27.3804L81.4555 26.8871L82.493 26.3825L83.4972 25.868L84.4671 25.3452L85.4017 24.8154L86.3002 24.2804L87.1617 23.7417L87.9856 23.2009L88.7712 22.6596L89.5179 22.1195L90.2253 21.5822L90.8931 21.0496L91.5208 20.5232L92.1083 20.0047L92.6555 19.496L93.1622 18.9985L93.6287 18.5141L94.0548 18.0444L94.441 17.5911L94.7874 17.1558L95.0944 16.7401L95.3626 16.3456L95.5924 15.9739L95.7844 15.6265L95.9393 15.3049L96.0579 15.0104L96.1411 14.7446L96.1897 14.5087L96.2047 14.3041L96.1872 14.1319L96.1383 13.9934L96.0591 13.8896L95.9509 13.8217L95.8149 13.7905L95.6524 13.7971L95.465 13.8422L95.2539 13.9266L95.0206 14.0511L94.7667 14.2162L94.4937 14.4224L94.2031 14.6703L93.8965 14.9601L93.5756 15.2923L93.242 15.6669L92.8973 16.0842L92.5432 16.5441L92.1814 17.0466L91.8135 17.5915L91.4412 18.1788L91.0662 18.8079L90.69 19.4786L90.3145 20.1904L89.941 20.9427L89.5714 21.7348L89.2071 22.5662L88.8496 23.4359L88.5006 24.343L88.1614 25.2867L87.8336 26.266L87.5184 27.2796L87.2173 28.3264L86.9316 29.4052L86.6624 30.5147L86.411 31.6536L86.1785 32.8203L85.966 34.0135L85.7744 35.2315L85.6048 36.4729L85.4579 37.7359L85.3346 39.019L85.2355 40.3203L85.1614 41.6382L85.1129 42.9709L85.0903 44.3165L85.0942 45.6733L85.1248 47.0393L85.1824 48.4127L85.2671 49.7917L85.3792 51.1743L85.5185 52.5587L85.6851 53.9429L85.8787 55.325L86.0991 56.7033L86.346 58.0758L86.619 59.4406L86.9176 60.796L87.2412 62.14L87.5893 63.471L87.9611 64.7872L88.3558 66.0869L88.7726 67.3684L89.2105 68.63L89.6685 69.8702L90.1456 71.0874L90.6406 72.2802L91.1524 73.447L91.6797 74.5867L92.2212 75.6978L92.7755 76.779L93.3413 77.8293L93.9171 78.8475L94.5013 79.8326L95.0926 80.7836L95.6892 81.6996L96.2896 82.5798L96.8922 83.4234L97.4952 84.2299L98.0972 84.9987L98.6962 85.7292L99.2907 86.4211L99.879 87.074L100.459 87.6878L101.03 88.2621L101.589 88.7971L102.135 89.2927L102.666 89.749L103.181 90.1662L103.677 90.5446L104.154 90.8845L104.609 91.1863L105.042 91.4506L105.449 91.678L105.831 91.8691L106.185 92.0247L106.511 92.1456L106.806 92.2326L107.069 92.2868L107.3 92.3091L107.497 92.3006L107.658 92.2625L107.783 92.1961L107.871 92.1024L107.92 91.9829L107.931 91.839L107.901 91.6719L107.831 91.4832L107.72 91.2744L107.567 91.0469L107.372 90.8023L107.134 90.5422L106.852 90.2682L106.528 89.9819L106.16 89.6849L105.749 89.3789L105.295 89.0656L104.797 88.7464L104.256 88.4233L103.672 88.0977L103.046 87.7713L102.377 87.4457L101.668 87.1226L100.917 86.8035L100.126 86.49L99.2958 86.1837L98.4271 85.886L97.5207 85.5983L96.5779 85.3223L95.5995 85.0591L94.5867 84.8102L93.5409 84.5768L92.4632 84.3602L91.3551 84.1615L90.2178 83.982L89.053 83.8226L87.8621 83.6843L86.6467 83.5681L85.4084 83.4748L84.1489 83.4053L82.8699 83.3602L81.573 83.3402L80.2602 83.3459L78.9332 83.3777L77.5938 83.4361L76.2439 83.5215L74.8854 83.6339L73.52 83.7738L72.1498 83.941L70.7766 84.1357L69.4023 84.3578L68.0288 84.607L66.6579 84.8832L65.2916 85.1861L63.9318 85.5153L62.5802 85.8702L61.2386 86.2503L59.909 86.6551L58.5929 87.0837L57.2922 87.5354L56.0085 88.0093L54.7435 88.5045L53.4988 89.02L52.2759 89.5548L51.0764 90.1077L49.9016 90.6775L48.7529 91.2629L47.6318 91.8628L46.5393 92.4757L45.4769 93.1001L44.4454 93.7347L43.4461 94.378L42.4799 95.0284L41.5477 95.6844L40.6503 96.3443L39.7884 97.0065L38.9629 97.6693L38.1741 98.3311L37.4227 98.9902L36.7091 99.6449L36.0335 100.293L35.3963 100.934L34.7977 101.565L34.2376 102.185L33.7162 102.791L33.2333 103.383L32.7887 103.959L32.3823 104.516L32.0136 105.054L31.6822 105.57L31.3878 106.063L31.1296 106.532L30.907 106.974L30.7194 107.389L30.5658 107.775L30.4455 108.131L30.3575 108.455L30.3007 108.746L30.2742 109.003L30.2768 109.224L30.3073 109.409L30.3644 109.557L30.4468 109.666L30.5533 109.736L30.6824 109.765L30.8326 109.754L31.0026 109.701L31.1908 109.606L31.3956 109.468L31.6155 109.287L31.8489 109.063L32.0942 108.795L32.3498 108.484L32.614 108.128L32.8852 107.728L33.1617 107.285L33.442 106.798L33.7243 106.267L34.007 105.694L34.2885 105.077L34.5671 104.419L34.8414 103.719L35.1097 102.978L35.3706 102.197L35.6224 101.377L35.8637 100.518L36.0932 99.6224L36.3094 98.69L36.511 97.7224L36.6967 96.7209L36.8652 95.6865L37.0155 94.6208L37.1462 93.5251L37.2565 92.4008L37.3452 91.2494L37.4115 90.0725L37.4545 88.8716L37.4733 87.6485L37.4674 86.4048L37.4359 85.1422L37.3784 83.8626L37.2944 82.5676L37.1833 81.2591L37.045 79.9389L36.8791 78.6089L36.6855 77.2709L36.4641 75.9269L36.2148 74.5786L35.9378 73.2281L35.6331 71.8772L35.3011 70.5277L34.942 69.1815L34.5563 67.8405L34.1443 66.5065L33.7068 65.1813L33.2443 63.8667L32.7575 62.5645L32.2472 61.2764L31.7143 60.0041L31.1598 58.7492L30.5845 57.5133L29.9897 56.298L29.3763 55.1048L28.7457 53.9351L28.099 52.7903L27.4376 51.6717L26.7629 50.5807L26.0762 49.5184L25.3791 48.4859L24.673 47.4844L23.9595 46.5147L23.2401 45.5779L22.5166 44.6747L21.7905 43.8059L21.0634 42.9722L20.3372 42.1743L19.6135 41.4126L18.8941 40.6875L18.1806 39.9994L17.4749 39.3486L16.7786 38.7353L16.0935 38.1596L15.4214 37.6215L14.764 37.1208L14.1229 36.6576L13.4999 36.2315L12.8967 35.8422L12.3149 35.4893L11.7561 35.1724L11.2219 34.8909L10.7138 34.6441L10.2334 34.4314L9.78215 34.2519L9.36138 34.1049L8.9725 33.9894L8.61681 33.9044L8.29555 33.8488L8.00991 33.8216L7.76103 33.8215L7.54996 33.8474L7.37768 33.898L7.24512 33.9719L7.15312 34.0678L7.10245 34.1842L7.09381 34.3198L7.1278 34.4729L7.20496 34.6421L7.32574 34.8258L7.49052 35.0225L7.69956 35.2306L7.95307 35.4484L8.25117 35.6743L8.59389 35.9068L8.98115 36.1441L9.41282 36.3846L9.88867 36.6267L10.4084 36.8688L10.9716 37.1093L11.5777 37.3465L12.2262 37.579L12.9166 37.8051L13.6479 38.0232L14.4194 38.2321L15.2302 38.43L16.0794 38.6158L16.9659 38.7879L17.8887 38.945L18.8464 39.0858L19.8379 39.2092L20.8618 39.3139L21.9169 39.3988L23.0016 39.4629L24.1144 39.5051L25.2539 39.5246L26.4184 39.5204L27.6064 39.4918L28.816 39.438L30.0457 39.3584L31.2936 39.2524L32.558 39.1196L33.8371 38.9595L35.1291 38.7717L36.432 38.556L37.7441 38.3123L39.0634 38.0405L40.3881 37.7404L41.7163 37.4123L43.0462 37.0562L44.3757 36.6724L45.7031 36.2612L47.0265 35.823L48.3441 35.3583L49.654 34.8676L50.9545 34.3516L52.2438 33.811L53.5202 33.2465L54.7819 32.6591L56.0273 32.0496L57.2549 31.4191L58.463 30.7686L59.6501 30.0993L60.8148 29.4123L61.9557 28.709L63.0714 27.9905L64.1606 27.2584L65.2222 26.514L66.255 25.7587L67.2579 24.9941L68.23 24.2218L69.1701 23.4433L70.0777 22.6602L70.9517 21.8743L71.7916 21.0871L72.5968 20.3004L73.3666 19.5159L74.1007 18.7353L74.7987 17.9604L75.4602 17.1929L76.0852 16.4346L76.6734 15.6872L77.2248 14.9525L77.7396 14.2323L78.2177 13.5282L78.6595 12.8419L79.0653 12.1752L79.4353 11.5296L79.7702 10.9069L80.0704 10.3087L80.3365 9.73637L80.5693 9.1916L80.7695 8.67581L80.9379 8.19044L81.0755 7.73687L81.1832 7.31643L81.2621 6.93037L81.3132 6.57992L81.3378 6.26621L81.337 5.99033L81.3122 5.75329L81.2645 5.55604L81.1955 5.39943L81.1065 5.28426L80.9989 5.21126L80.8743 5.18105L80.7341 5.19421L80.58 5.25119L80.4134 5.35241L80.2359 5.49816L80.0493 5.68868L79.8549 5.9241L79.6547 6.20449L79.45 6.52979L79.2426 6.89991L79.0341 7.31464L78.8261 7.77368L78.6203 8.27667L78.4182 8.82313L78.2214 9.41255L78.0314 10.0443L77.8498 10.7176L77.6781 11.4318L77.5177 12.1859L77.3701 12.9791L77.2367 13.8103L77.1187 14.6783L77.0174 15.5822L76.9342 16.5206L76.8701 17.4923L76.8264 18.4959L76.804 19.53L76.804 20.5931L76.8273 21.6837L76.8747 22.8003L76.9472 23.9413L77.0453 25.1049L77.1698 26.2895L77.3212 27.4934L77.5001 28.7147L77.7068 29.9518L77.9417 31.2028L78.205 32.4659L78.497 33.7391L78.8177 35.0208L79.1671 36.3089L79.5452 37.6016L79.9518 38.8971L80.3867 40.1934L80.8496 41.4888L81.34 42.7813L81.8576 44.0692L82.4017 45.3506L82.9717 46.6237L83.5669 47.8869L84.1866 49.1383L84.8297 50.3762L85.4955 51.5991L86.1829 52.8053L86.8908 53.9932L87.6181 55.1614L88.3636 56.3084L89.126 57.4327L89.904 58.5331L90.6963 59.6082L91.5013 60.6568L92.3177 61.6778L93.144 62.6701L93.9784 63.6327L94.8195 64.5646L95.6657 65.465L96.5151 66.3331L97.3663 67.1682L98.2174 67.9696L99.0667 68.7368L99.9124 69.4694L100.753 70.167L101.586 70.8292L102.411 71.4559L103.225 72.0468L104.026 72.6021L104.813 73.1217L105.585 73.6057L106.339 74.0543L107.073 74.4679L107.787 74.8467L108.478 75.1913L109.144 75.5021L109.785 75.7798L110.398 76.025L110.982 76.2385L111.536 76.4211L112.058 76.5737L112.547 76.6972L113.002 76.7928L113.421 76.8614L113.803 76.9042L114.147 76.9224L114.452 76.9173L114.717 76.8902L114.941 76.8424L115.123 76.7753L115.264 76.6903L115.36 76.5889L115.414 76.4727L115.423 76.3431L115.387 76.2017L115.307 76.0501L115.181 75.8898L115.01 75.7225L114.793 75.5498L114.531 75.3734L114.224 75.1947L113.871 75.0155L113.473 74.8374L113.031 74.6619L112.545 74.4907L112.015 74.3253L111.442 74.1672L110.827 74.0181L110.17 73.8793L109.472 73.7524L108.735 73.6386L107.958 73.5396L107.144 73.4564L106.293 73.3905L105.407 73.3431L104.487 73.3153L103.533 73.3083L102.549 73.3232L101.534 73.3609L100.491 73.4223L99.4206 73.5084L98.3252 73.6199L97.206 73.7576L96.0648 73.9222L94.9033 74.1141L93.7232 74.3339L92.5264 74.582L91.3146 74.8588L90.0896 75.1646L88.8534 75.4994L87.6077 75.8635L86.3544 76.2568L85.0955 76.6792L83.8327 77.1307L82.5679 77.6109L81.303 78.1197L80.0398 78.6565L78.7802 79.2209L77.5259 79.8124L76.2788 80.4303L75.0407 81.074L73.8132 81.7425L72.598 82.4351L71.3968 83.1509L70.2113 83.8888L69.0429 84.6478L67.8932 85.4267L66.7638 86.2243L65.6559 87.0394L64.5709 87.8706L63.5101 88.7166L62.4748 89.576L61.4662 90.4472L60.4852 91.3287L59.533 92.2191L58.6105 93.1166L57.7186 94.0197L56.858 94.9266L56.0294 95.8358L55.2336 96.7453L54.4711 97.6536L53.7424 98.5589L53.0477 99.4593L52.3876 100.353L51.7622 101.239L51.1715 102.114L50.6158 102.977L50.095 103.827L49.6089 104.661L49.1574 105.478L48.7401 106.277L48.3569 107.054L48.0071 107.809L47.6904 108.541L47.406 109.246L47.1534 109.925L46.9318 110.575L46.7404 111.195L46.5783 111.783L46.4446 112.339L46.3382 112.86L46.2581 113.346L46.2031 113.796L46.1721 114.207L46.1637 114.58L46.1768 114.912L46.2099 115.204L46.2617 115.455L46.3307 115.663L46.4156 115.828L46.5147 115.949L46.6265 116.026L46.7496 116.058L46.8822 116.045L47.023 115.987L47.1701 115.884L47.3221 115.734L47.4773 115.54L47.6341 115.299L47.7908 115.013L47.9459 114.682L48.0977 114.306L48.2447 113.886L48.3852 113.421L48.5178 112.913L48.6409 112.362L48.7531 111.77L48.8528 111.136L48.9386 110.461L49.0092 109.748L49.0633 108.996L49.0995 108.206L49.1165 107.381L49.1133 106.521L49.0887 105.627L49.0416 104.701L48.971 103.745L48.8759 102.759L48.7556 101.746L48.6091 100.706L48.4359 99.6418L48.2351 98.5549L48.0062 97.4467L47.7487 96.3191L47.4622 95.1739L47.1463 94.0127L46.8008 92.8375L46.4255 91.6501L46.0202 90.4522L45.585 89.2458L45.1199 88.0326L44.6251 86.8146L44.1007 85.5936L43.5471 84.3714L42.9647 83.1499L42.3539 81.9309L41.7153 80.7162L41.0496 79.5075L40.3574 78.3067L39.6395 77.1155L38.8969 75.9355L38.1303 74.7683L37.3409 73.6157L36.5297 72.4792L35.6978 71.3602L34.8465 70.2603L33.9769 69.1808L33.0906 68.1232L32.1887 67.0886L31.2728 66.0784L30.3443 65.0937L29.4049 64.1356L28.4559 63.2051L27.4991 62.3032L26.5361 61.4308L25.5687 60.5886L24.5984 59.7775L23.627 58.9979L22.6564 58.2506L21.6882 57.536L20.7242 56.8545L19.7663 56.2064L18.8162 55.5919L17.8758 55.0113L16.9468 54.4645L16.0311 53.9516L15.1304 53.4725L14.2464 53.027L13.381 52.6148L12.5358 52.2357L11.7125 51.8891L10.9128 51.5745L10.1384 51.2915L9.39074 51.0393L8.67146 50.8173L7.98204 50.6245L7.32394 50.4603L6.69855 50.3235L6.10721 50.2133L5.55122 50.1285L5.0318 50.068L4.5501 50.0307L4.10723 50.0153L3.70419 50.0206L3.34196 50.0452L3.02139 50.0877L2.7433 50.1467L2.50841 50.2208L2.31735 50.3085L2.17069 50.4082L2.06892 50.5185L2.01242 50.6377L2.0015 50.7643L2.0364 50.8967L2.11725 51.0332L2.24411 51.1724L2.41694 51.3124L2.63562 51.4519L2.89995 51.589L3.20963 51.7223L3.5643 51.8502L3.96348 51.971L4.40663 52.0833L4.89313 52.1856L5.42227 52.2762L5.99326 52.3539L6.60523 52.4171L7.25724 52.4646L7.94828 52.4948L8.67727 52.5067L9.44304 52.4989L10.2444 52.4702L11.08 52.4195L11.9485 52.3458L12.8486 52.248L13.7787 52.1252L14.7374 51.9765L15.7231 51.8011L16.7342 51.5983L17.769 51.3674L18.8259 51.1079L19.9031 50.8191L20.999 50.5008L22.1116 50.1524L23.2392 49.7738L24.3801 49.3648L25.5323 48.9253L26.694 48.4551L27.8635 47.9545L29.0388 47.4234L30.218 46.8622L31.3994 46.2712L32.5811 45.6506L33.7613 45.0011L34.9382 44.3231L36.11 43.6173L37.275 42.8843L38.4314 42.125L39.5776 41.3402L40.7118 40.5309L41.8325 39.6979L42.9382 38.8425L44.0272 37.9658L45.0981 37.0689L46.1496 36.1531L47.1801 35.2198L48.1886 34.2702L49.1736 33.3059L50.1341 32.3284L51.0688 31.3391L51.9769 30.3397L52.8573 29.3317L53.7091 28.3168L54.5316 27.2968L55.3239 26.2732L56.0855 25.2478L56.8157 24.2225L57.5141 23.1989L58.1802 22.179L58.8138 21.1644L59.4145 20.1569L59.9822 19.1585L60.5168 18.1709L61.0183 17.1958L61.4868 16.2352L61.9225 15.2907L62.3256 14.3641L62.6965 13.4572L63.0356 12.5716L63.3432 11.7091L63.6202 10.8713L63.8669 10.0597L64.0843 9.276L64.273 8.52166L64.434 7.79816L64.5682 7.10692L64.6765 6.4493L64.76 5.82662L64.8198 5.24011L64.8572 4.69096L64.8733 4.18028L64.8693 3.70913L64.8468 3.27846L64.8069 2.8892L64.7512 2.54216L64.681 2.2381L64.5979 1.97767L64.5034 1.76148L64.3989 1.59002L64.2862 1.46372L64.1667 1.38292L64.042 1.34788L63.9138 1.35875L63.7837 1.41563L63.6532 1.51851L63.5241 1.6673L63.3979 1.86182L63.2761 2.10181L63.1605 2.38692L63.0526 2.71673L62.9538 3.09071L62.8658 3.50827L62.79 3.96873L62.7279 4.47133L62.681 5.01524L62.6505 5.59954L62.6379 6.22325L62.6445 6.88531L62.6714 7.58459L62.7199 8.3199L62.7911 9.08998L62.8862 9.89351L63.006 10.7291L63.1516 11.5953L63.3238 12.4907L63.5236 13.4137L63.7515 14.3628L64.0083 15.3362L64.2945 16.3324L64.6108 17.3497L64.9575 18.3863L65.335 19.4405L65.7436 20.5104L66.1834 21.5944L66.6546 22.6906L67.1573 23.7971L67.6913 24.9121L68.2566 26.0339L68.8529 27.1605L69.4799 28.2902L70.1373 29.4211L70.8245 30.5515L71.5411 31.6794L72.2865 32.8032L73.0598 33.9212L73.8604 35.0315L74.6873 36.1326L75.5397 37.2228L76.4166 38.3004L77.3168 39.3639L78.2393 40.4119L79.1828 41.4427L80.146 42.4551L81.1277 43.4476L82.1265 44.419L83.1409 45.368L84.1693 46.2935L85.2104 47.1943L86.2625 48.0694L87.3239 48.9178L88.3931 49.7387L89.4683 50.5313L90.5478 51.2947L91.6298 52.0283L92.7126 52.7316L93.7944 53.404L94.8734 54.0452L95.9477 54.6547L97.0155 55.2324L98.075 55.778L99.1244 56.2915L100.162 56.7729L101.186 57.2221L102.194 57.6395L103.185 58.0252L104.156 58.3796L105.107 58.703L106.036 58.996L106.94 59.259L107.819 59.4928L108.67 59.698L109.492 59.8754L110.283 60.0259L111.043 60.1504L111.77 60.2498L112.462 60.3253L113.118 60.3778L113.736 60.4087L114.317 60.419L114.858 60.4101L115.359 60.3833L115.819 60.3399L116.237 60.2813L116.612 60.2091L116.943 60.1246L117.23 60.0294L117.472 59.925L117.669 59.8129L117.82 59.6948L117.926 59.5722L117.986 59.4467L117.999 59.3199L117.966 59.1935L117.887 59.069L117.762 58.9481L117.592 58.8323L117.376 58.7233L117.115 58.6225L116.809 58.5316L116.46 58.4521L116.067 58.3854L115.631 58.3331L115.154 58.2965L114.636 58.277L114.078 58.276L113.481 58.2948L112.847 58.3346L112.176 58.3966L111.469 58.482L110.728 58.5918L109.955 58.7271L109.15 58.8888L108.316 59.0778L107.453 59.2949L106.564 59.5409L105.649 59.8164L104.711 60.1221L103.751 60.4584L102.771 60.8259L101.773 61.2248L100.758 61.6556L99.7282 62.1183L98.6855 62.6131L97.6316 63.1401L96.5683 63.6992L95.4976 64.2902L94.4211 64.9131L93.3407 65.5674L92.2583 66.2528L91.1756 66.9689L90.0944 67.7151L89.0165 68.4909L87.9437 69.2954L86.8775 70.1279L85.8198 70.9877L84.7722 71.8737L83.7362 72.785L82.7134 73.7205L81.7054 74.679L80.7137 75.6594L79.7395 76.6604L78.7844 77.6807L77.8496 78.7189L76.9363 79.7736L76.0457 80.8432L75.179 81.9263L74.3372 83.0213L73.5212 84.1264L72.7319 85.2402L71.9703 86.3608L71.2369 87.4866L70.5326 88.6157L69.8578 89.7465L69.2131 90.8771L68.5989 92.0058L68.0156 93.1306L67.4634 94.2497L66.9425 95.3614L66.4531 96.4638L65.995 97.5551L65.5683 98.6334L65.1728 99.697L64.8083 100.744L64.4744 101.773L64.1708 102.781L63.897 103.768L63.6524 104.732L63.4364 105.67L63.2483 106.582L63.0873 107.465L62.9526 108.318L62.8433 109.141L62.7584 109.93L62.6968 110.686L62.6575 111.406L62.6393 112.09L62.641 112.736L62.6612 113.344L62.6988 113.911L62.7522 114.438L62.8202 114.923L62.9013 115.365L62.994 115.765L63.0968 116.12L63.2082 116.431L63.3266 116.697L63.4504 116.918L63.578 117.094L63.7079 117.223L63.8384 117.307L63.9679 117.345L64.0948 117.336L64.2175 117.282L64.3344 117.182L64.4438 117.037L64.5443 116.846L64.6342 116.612L64.7121 116.333L64.7764 116.011L64.8257 115.646L64.8584 115.239L64.8733 114.791L64.869 114.303L64.8442 113.776L64.7975 113.211L64.7279 112.61L64.6341 111.972L64.5151 111.3L64.3698 110.595L64.1973 109.859L63.9966 109.092L63.767 108.296L63.5077 107.473L63.2179 106.625L62.8971 105.753L62.5448 104.858L62.1604 103.942L61.7437 103.008L61.2942 102.057L60.8119 101.09L60.2965 100.109L59.748 99.1169L59.1664 98.1144L58.5519 97.1038L57.9047 96.0867L57.225 95.065L56.5132 94.0405L55.7698 93.0149L54.9952 91.9901L54.1901 90.9678L53.3553 89.9497L52.4913 88.9375L51.5992 87.9329L50.6798 86.9376L49.7341 85.953L48.7632 84.9808L47.7682 84.0226L46.7504 83.0797L45.7108 82.1535L44.6511 81.2455L43.5724 80.3569L42.4762 79.489L41.364 78.6429L40.2374 77.8197L39.098 77.0206L37.9473 76.2463L36.7871 75.498L35.6191 74.7763L34.4449 74.0821L33.2664 73.416L32.0854 72.7785L30.9036 72.1703L29.7228 71.5918L28.545 71.0432L27.372 70.5249L26.2055 70.037L25.0476 69.5797L23.8999 69.1529L22.7644 68.7567L21.6428 68.3908L20.537 68.0551L19.4488 67.7492L18.3799 67.4728L17.3321 67.2253L16.307 67.0063L15.3064 66.8151L14.3318 66.651L13.3849 66.5133L12.4672 66.4011L11.5802 66.3135L10.7253 66.2496L9.90389 66.2083L9.11733 66.1885L8.36684 66.1891L7.65364 66.2088L6.97885 66.2464L6.34352 66.3006L5.74863 66.3701L5.19511 66.4534L4.68377 66.5491L4.21537 66.6557L3.7906 66.7718L3.41003 66.8958L3.07419 67.0261L2.7835 67.1612L2.53829 67.2996L2.33883 67.4395L2.18528 67.5793L2.07772 67.7176L2.01617 67.8526L2.00051 67.9827L2.03059 68.1064L2.10613 68.2221L2.22679 68.3281L2.39214 68.423L2.60166 68.5051L2.85477 68.5731L3.15077 68.6253L3.48892 68.6605L3.86839 68.6771L4.28826 68.6739L4.74755 68.6495L5.24521 68.6026L5.78012 68.5321L6.3511 68.4367L6.95688 68.3155L7.59617 68.1673L8.26758 67.9912L8.96971 67.7863L9.70108 67.5517L10.4602 67.2866L11.2454 66.9905L12.0552 66.6625L12.8878 66.3023L13.7417 65.9094L14.6152 65.4832L15.5064 65.0237L16.4136 64.5304L17.3351 64.0033L18.2691 63.4423L19.2138 62.8475L20.1674 62.2189L21.128 61.5567L22.094 60.8613L23.0634 60.1329L24.0346 59.372L25.0057 58.5791L25.975 57.7548L26.9408 56.8999L27.9014 56.015L28.8551 55.101L29.8003 54.1588L30.7353 53.1894L31.6587 52.1939L32.5689 51.1733L33.4644 50.1289L34.3439 49.0619L35.206 47.9737L36.0493 46.8656L36.8726 45.7391L37.6748 44.5956L38.4548 43.4367L39.2115 42.264L39.9438 41.0791L40.651 39.8836L41.3322 38.6793L41.9866 37.4679L42.6136 36.2512L43.2125 35.0309L43.7829 33.8089L44.3243 32.587L44.8363 31.367L45.3187 30.1508L45.7713 28.9402L46.1939 27.7371L46.5866 26.5434L46.9494 25.3609L47.2825 24.1913L47.586 23.0366L47.8602 21.8986L48.1057 20.7789L48.3227 19.6795L48.5119 18.6019L48.6738 17.5478L48.8092 16.519L48.9188 15.5169L49.0035 14.5433L49.0641 13.5995L49.1017 12.687L49.1172 11.8072L49.1118 10.9615L49.0865 10.1512L49.0427 9.37736L48.9816 8.64127L48.9044 7.94396L48.8126 7.28645L48.7075 6.66966L48.5905 6.09445L48.4632 5.56161L48.3271 5.07182L48.1837 4.62572L48.0345 4.22383L47.8811 3.86661L47.7251 3.55443L47.5682 3.28757L47.4119 3.06622L47.2579 2.89051L47.1077 2.76045L46.963 2.67598L46.8255 2.63697L46.6967 2.64317L46.5781 2.69427L46.4714 2.78986L46.3781 2.92947L46.2998 3.11252L46.2378 3.33838L46.1937 3.60631L46.1688 3.9155L46.1646 4.26509L46.1823 4.65412L46.2232 5.08155L46.2886 5.54632L46.3796 6.04724L46.4973 6.58311L46.6428 7.15264L46.8171 7.75448L47.0211 8.38725L47.2556 9.0495L47.5214 9.73972L47.8193 10.4564L48.1498 11.1979L48.5136 11.9627L48.9111 12.7491L49.3426 13.5553L49.8086 14.3798L50.3093 15.2207L50.8447 16.0764L51.4151 16.945L52.0204 17.8248L52.6604 18.7141L53.335 19.6109L54.044 20.5136L54.787 21.4203L55.5635 22.3294L56.3731 23.239L57.2152 24.1474L58.089 25.0529L58.9939 25.9538L59.929 26.8486L60.8934 27.7354L61.8861 28.6128L62.9061 29.4792L63.9522 30.3332L65.0232 31.1731L66.118 31.9978L67.2351 32.8057L68.3733 33.5956L69.531 34.3663L70.7067 35.1165L71.899 35.8453L73.1063 36.5515L74.3268 37.2341L75.559 37.8923L76.8011 38.5252L78.0514 39.1321L79.3081 39.7123L80.5695 40.2652L81.8336 40.7903L83.0987 41.2872L84.3629 41.7554L85.6243 42.1947L86.8811 42.6049L88.1314 42.9859L89.3733 43.3377L90.6051 43.6603L91.8247 43.9539L93.0305 44.2187L94.2205 44.4549L95.393 44.6629L96.5462 44.8433L97.6784 44.9965L98.7878 45.1231L99.8728 45.2239L100.932 45.2995L101.963 45.3509L102.966 45.3789L103.937 45.3844L104.877 45.3686L105.783 45.3324L106.655 45.2771L107.49 45.2038L108.289 45.1138L109.049 45.0084L109.77 44.889L110.45 44.7569L111.09 44.6136L111.688 44.4605L112.243 44.2992L112.754 44.1312L113.222 43.958L113.646 43.7812L114.024 43.6024L114.358 43.4233L114.647 43.2453L114.89 43.0702L115.087 42.8996L115.239 42.7351L115.346 42.5783L115.408 42.4307L115.424 42.2941L115.397 42.1699L115.325 42.0597L115.21 41.9651L115.052 41.8874L114.852 41.8282L114.611 41.7889L114.329 41.7709L114.007 41.7754L113.647 41.8038L113.249 41.8573L112.815 41.9371L112.346 42.0442L111.843 42.1799L111.308 42.3449L110.741 42.5404L110.144 42.7671L109.519 43.0259L108.868 43.3174L108.191 43.6423L107.49 44.0012L106.768 44.3945L106.025 44.8228L105.263 45.2862L104.485 45.7851L103.691 46.3196L102.885 46.8899L102.066 47.4959L101.238 48.1374L100.401 48.8145L99.5581 49.5268L98.7106 50.274L97.8604 51.0556L97.0091 51.8713L96.1584 52.7203L95.3101 53.602L94.4659 54.5157L93.6274 55.4606L92.7962 56.4358L91.9739 57.4403L91.1621 58.473L90.3622 59.5329L89.5757 60.6187L88.8041 61.7293L88.0486 62.8633L87.3106 64.0193L86.5913 65.196L85.8919 66.3918L85.2135 67.6052L84.5571 68.8346L83.9237 70.0784L83.3142 71.3349L82.7295 72.6025L82.1702 73.8793L81.6372 75.1636L81.1309 76.4537L80.652 77.7476L80.2008 79.0436L79.7777 80.3398L79.383 81.6344L79.017 82.9254L78.6796 84.211L78.371 85.4893L78.091 86.7586L77.8397 88.0168L77.6166 89.2621L77.4217 90.4928L77.2544 91.7071L77.1143 92.9031L77.001 94.0791L76.9137 95.2334L76.8518 96.3643L76.8146 97.4702L76.8012 98.5495L76.8107 99.6006L76.8422 100.622L76.8946 101.612L76.9668 102.57L77.0578 103.494L77.1662 104.383L77.2909 105.236L77.4304 106.052L77.5836 106.828L77.7489 107.566L77.9249 108.263L78.1102 108.919L78.3032 109.533L78.5024 110.105L78.7063 110.633L78.9132 111.117L79.1216 111.558L79.3298 111.954L79.5363 112.305L79.7393 112.612L79.9373 112.873L80.1286 113.09L80.3116 113.262L80.4847 113.389L80.6463 113.471L80.7947 113.51L80.9286 113.505L81.0462 113.456L81.1462 113.366L81.227 113.233L81.2872 113.059L81.3254 112.845L81.3403 112.592L81.3306 112.3L81.2951 111.971L81.2324 111.605L81.1416 111.204L81.0214 110.77L80.871 110.303L80.6894 109.804L80.4756 109.276L80.229 108.72L79.9486 108.136L79.634 107.528L79.2844 106.895L78.8994 106.241L78.4786 105.566L78.0215 104.872L77.5281 104.16L76.9979 103.434L76.4311 102.694L75.8274 101.942L75.1871 101.179L74.5102 100.408L73.7971 99.6309L73.0479 98.8484L72.2632 98.0628L71.4434 97.2757L70.5891 96.4888L69.7009 95.7038L68.7796 94.9225L67.8259 94.1464L66.8408 93.3771L65.8253 92.6163L64.7803 91.8654L63.7069 91.1259L62.6064 90.3994L61.48 89.6871L60.3289 88.9905L59.1546 88.3108L57.9585 87.6492L56.7421 87.0069L55.5068 86.3851L54.2544 85.7848L52.9863 85.2069L51.7043 84.6523L50.4101 84.1219L49.1054 83.6165L47.7921 83.1366L46.4718 82.683L45.1465 82.256L43.818 81.8563L42.4881 81.4841L41.1587 81.1397L39.8318 80.8234L38.5091 80.5351L37.1926 80.2751L35.8841 80.0432L34.5855 79.8392L33.2988 79.6631L32.0256 79.5145L30.7679 79.393L29.5274 79.2981L28.3059 79.2294L27.1052 79.1863L25.9269 79.168L24.7727 79.1738L23.6442 79.2029L22.5429 79.2545L21.4705 79.3274L20.4283 79.4208L19.4178 79.5334L18.4403 79.6643L17.4972 79.8121L16.5895 79.9757L15.7185 80.1537L14.8853 80.3447L14.0908 80.5474L13.3361 80.7603L12.6219 80.982L11.949 81.211L11.3182 81.4456L10.73 81.6844L10.185 81.9257L9.68365 82.1681L9.2263 82.4097L8.81324 82.6491L8.44465 82.8845L8.12066 83.1145L7.84128 83.3372L7.60644 83.5511L7.416 83.7546L7.26973 83.946L7.1673 84.1239L7.10831 84.2865L7.09228 84.4324L7.11863 84.5601L7.18673 84.6681L7.29585 84.7549L7.44518 84.8192L7.63385 84.8596L7.86092 84.8748L8.12535 84.8635L8.42607 84.8245L8.76193 84.7567L9.1317 84.659L9.53413 84.5304L9.96787 84.3699L10.4315 84.1766L10.9237 83.9497L11.4429 83.6884L11.9877 83.3921L12.5563 83.0601L13.1473 82.692L13.759 82.2873L14.3898 81.8457L15.0379 81.3668L15.7017 80.8504L16.3795 80.2965L17.0695 79.705L17.7699 79.0759L18.4791 78.4095L19.1953 77.7059L19.9168 76.9654L20.6417 76.1884L21.3685 75.3754L22.0953 74.5269L22.8206 73.6436L23.5426 72.7262L24.2597 71.7755L24.9703 70.7923L25.6728 69.7777L26.3657 68.7325L27.0475 67.658L27.7168 66.5553L28.3722 65.4256L29.0123 64.2702L29.6358 63.0904L30.2416 61.8878L30.8283 60.6636L31.395 59.4196L31.9406 58.1572L32.4641 56.878L32.9647 55.5838L33.4414 54.2762L33.8935 52.957L34.3203 51.6279L34.7213 50.2907L35.0959 48.9473L35.4437 47.5995L35.7643 46.2492L36.0574 44.8982L36.3228 43.5484L36.5604 42.2017L36.7702 40.8599L36.9521 39.5251L37.1064 38.199L37.2332 36.8835L37.3329 35.5804L37.4058 34.2916L37.4523 33.0189L37.4729 31.764L37.4684 30.5288L37.4393 29.3148L37.3865 28.1238L37.3107 26.9574L37.2128 25.8172L37.0938 24.7047L36.9547 23.6214L36.7967 22.5687L36.6208 21.5479L36.4283 20.5605L36.2204 19.6075L35.9985 18.6903L35.7638 17.8098L35.5179 16.9672L35.2621 16.1633L34.998 15.3991L34.727 14.6753L34.4506 13.9927L34.1706 13.3519L33.8884 12.7535L33.6057 12.1979L33.3241 11.6855L33.0452 11.2167L32.7707 10.7917L32.5022 10.4105L32.2414 10.0733L31.9899 9.78001L31.7494 9.53049L31.5215 9.32455L31.3077 9.1619L31.1097 9.04216L30.929 8.96487L30.7671 8.92949L30.6256 8.93541L30.5058 8.98193L30.4092 9.06826L30.3372 9.19358L30.2912 9.35695L30.2723 9.55738L30.2818 9.79381L30.3208 10.0651L30.3905 10.3701L30.492 10.7076L30.6261 11.0762L30.7939 11.4746L30.9961 11.9014L31.2335 12.355L31.5069 12.8342L31.8167 13.3372L32.1637 13.8625L32.5482 14.4086L32.9706 14.9737L33.4312 15.5563L33.9303 16.1545L34.4679 16.7669L35.0442 17.3915L35.659 18.0268L36.3123 18.6709L37.0039 19.3222L37.7334 19.979L38.5005 20.6394L39.3048 21.3019L40.1457 21.9647L41.0225 22.6261L41.9346 23.2845L42.8812 23.9383L43.8614 24.5859L44.8743 25.2258L45.9189 25.8563L46.9941 26.4761L48.0988 27.0837L49.2316 27.6776L50.3914 28.2567L51.5768 28.8195L52.7863 29.365L54.0185 29.8918L55.2719 30.3989L56.545 30.8853L57.836 31.35L59.1433 31.7921L60.4653 32.2108L61.8002 32.6053L63.1462 32.9749L64.5015 33.3191L65.8643 33.6373L67.2327 33.929L68.6049 34.194L69.9789 34.4318L71.353 34.6424L72.7252 34.8256L74.0936 34.9813L75.4563 35.1097L76.8115 35.2107L78.1572 35.2847L79.4916 35.3319L80.8129 35.3528L82.1192 35.3476L83.4088 35.317L84.6798 35.2616L85.9307 35.182L87.1595 35.079L88.3649 34.9534L89.545 34.8062L90.6984 34.6382L91.8236 34.4505L92.9192 34.2442L93.9837 34.0204L95.0158 33.7803L96.0142 33.5252L96.9779 33.2565L97.9056 32.9754L98.7962 32.6834L99.6489 32.3818L100.463 32.0723L101.237 31.7563L101.97 31.4353L102.663 31.111L103.314 30.7849L103.922 30.4586L104.488 30.1338L105.011 29.8122L105.491 29.4953L105.927 29.1848L106.32 28.8823L106.67 28.5896L106.976 28.3083L107.239 28.0399L107.459 27.7862L107.636 27.5486L107.772 27.3287L107.866 27.1281L107.919 26.9484L107.931 26.7908L107.904 26.657L107.839 26.5482L107.735 26.4658L107.595 26.411L107.418 26.3853L107.207 26.3896L106.963 26.4251L106.686 26.493L106.378 26.5941L106.04 26.7294L105.674 26.8998L105.281 27.106L104.863 27.3488L104.421 27.6288L103.956 27.9466L103.471 28.3026L102.967 28.6972L102.445 29.1308L101.907 29.6035L101.356 30.1157L100.792 30.6672L100.217 31.2581L99.633 31.8883L99.0419 32.5576L98.4453 33.2657L97.8449 34.0123L97.2422 34.797L96.6392 35.6192L96.0373 36.4783L95.4383 37.3736L94.8438 38.3043L94.2553 39.2697L93.6744 40.2688L93.1026 41.3006L92.5415 42.364L91.9924 43.458L91.4567 44.5812L90.9357 45.7324L90.4308 46.9104L89.9432 48.1136L89.4739 49.3406L89.0242 50.59L88.5951 51.8601L88.1875 53.1494L87.8023 54.4562L87.4404 55.7788L87.1024 57.1155L86.7892 58.4646L86.5013 59.8241L86.2392 61.1924L86.0034 62.5675L85.7942 63.9476L85.6119 65.3309L85.4568 66.7154L85.3289 68.0992L85.2283 69.4806L85.1549 70.8574L85.1086 72.228L85.0893 73.5904L85.0966 74.9427L85.1301 76.2831L85.1895 77.6098L85.2741 78.9209L85.3834 80.2148L85.5167 81.4897L85.6732 82.7438L85.8522 83.9756L86.0526 85.1834L86.2737 86.3656L86.5142 87.5209L86.7732 88.6476L87.0495 89.7444L87.3419 90.8099L87.649 91.843L87.9697 92.8423L88.3024 93.8067L88.6459 94.7352L88.9987 95.6268L89.3592 96.4805L89.7259 97.2955L90.0974 98.071L90.4719 98.8063L90.8479 99.501L91.2238 100.154L91.5979 100.766L91.9685 101.335L92.3341 101.863L92.6929 102.347L93.0432 102.789L93.3834 103.189L93.7119 103.545L94.027 103.86L94.327 104.132L94.6105 104.362L94.8757 104.551L95.1211 104.699L95.3452 104.807L95.5466 104.875L95.7237 104.903L95.8752 104.894L95.9997 104.847L96.0959 104.764L96.1626 104.646L96.1985 104.493L96.2025 104.307L96.1735 104.089L96.1105 103.841L96.0125 103.563L95.8788 103.256L95.7084 102.924L95.5006 102.566L95.2548 102.185L94.9704 101.781L94.6469 101.357L94.2838 100.914L93.8809 100.453L93.4379 99.9774L92.9545 99.4873L92.4308 98.9849L91.8667 98.4719L91.2623 97.9499L90.6178 97.4207L89.9333 96.8859L89.2093 96.3473L88.4462 95.8065L87.6445 95.2652L86.8048 94.725L85.9276 94.1876L85.0139 93.6547L84.0644 93.1276L83.08 92.6081L82.0617 92.0976L81.0105 91.5975L79.9277 91.1094L78.8143 90.6345L77.6717 90.1742L76.5011 89.7298L75.3041 89.3024L74.0819 88.8933L72.8361 88.5036L71.5683 88.1342L70.2801 87.7861L68.973 87.4603L67.6489 87.1575L66.3094 86.8786L64.9563 86.6241L63.5914 86.3947L62.2165 86.1909L60.8335 86.0132L59.4442 85.8619L58.0505 85.7373L56.6542 85.6396L55.2574 85.5689L53.8619 85.5253L52.4695 85.5088L51.0823 85.5191L49.702 85.5562L48.3305 85.6196L46.9698 85.7091L45.6216 85.8242L44.2877 85.9643L42.97 86.1289L41.6701 86.3174L40.3898 86.5288L39.1308 86.7625L37.8946 87.0175L36.6829 87.2928L35.4972 87.5875L34.339 87.9004L33.2096 88.2304L32.1105 88.5763L31.0429 88.9367L30.008 89.3105L29.0072 89.6962L28.0413 90.0924L27.1114 90.4977L26.2186 90.9105L25.3636 91.3294L24.5472 91.7527L23.7702 92.1789L23.0332 92.6064L22.3367 93.0336L21.6812 93.4587L21.0671 93.8802L20.4946 94.2963L19.964 94.7054L19.4753 95.1059L19.0287 95.4959L18.6241 95.874L18.2613 96.2384L17.9402 96.5874L17.6604 96.9196L17.4215 97.2332L17.2231 97.5267L17.0646 97.7987L16.9454 98.0475L16.8648 98.2717L16.822 98.47L16.8161 98.6408L16.8464 98.783L16.9116 98.8952L17.0109 98.9762L17.143 99.0249L17.3068 99.0401L17.501 99.0209L17.7244 98.9662L17.9756 98.8752L18.2532 98.7471L18.5557 98.581L18.8817 98.3763L19.2297 98.1324L19.5981 97.8488L19.9852 97.5251L20.3896 97.1609L20.8095 96.7558L21.2433 96.3098L21.6894 95.8227L22.146 95.2944L22.6114 94.7251L23.084 94.1149L23.5622 93.464L24.0441 92.7728L24.5281 92.0416L25.0126 91.2709L25.4958 90.4613L25.9763 89.6134L26.4524 88.728L26.9224 87.8059L27.385 86.848L27.8385 85.8551L28.2815 84.8285L28.7126 83.769L29.1304 82.6781L29.5336 81.5568L29.9209 80.4066L30.2911 79.2287L30.6431 78.0246L30.9757 76.7957L31.2879 75.5438L31.5787 74.2702L31.8474 72.9767L32.0929 71.6649L32.3146 70.3365L32.5118 68.9933L32.6839 67.6372L32.8304 66.2698L32.9508 64.893L33.0447 63.5087L33.1119 62.1188L33.1522 60.725L33.1654 59.3295L33.1515 57.9339L33.1106 56.5403L33.0427 55.1504L32.9481 53.7663L32.8271 52.3897L32.68 51.0226L32.5073 49.6667L32.3095 48.3239L32.0872 46.9959L31.841 45.6845L31.5719 44.3915L31.2805 43.1184L30.9678 41.867L30.6347 40.6388L30.2823 39.4353L29.9116 38.258L29.5239 37.1085L29.1203 35.9879L28.7022 34.8977L28.2708 33.8391L27.8275 32.8133L27.3737 31.8213L26.911 30.8642L26.4408 29.9429L25.9646 29.0584L25.484 28.2115L25.0007 27.4029L24.5162 26.6331L24.0322 25.9029L23.5504 25.2126L23.0724 24.5627L22.5999 23.9535L22.1347 23.3852L21.6783 22.858L21.2325 22.3719L20.799 21.9269L20.3795 21.5228L19.9755 21.1596L19.5888 20.8368L19.2209 20.5542L18.8735 20.3113L18.548 20.1076L18.2461 19.9424L17.9691 19.8152L17.7186 19.7251L17.4959 19.6713L17.3024 19.6529L17.1394 19.669L17.0081 19.7185L16.9096 19.8003L16.8452 19.9132L16.8159 20.0561L16.8226 20.2277L16.8663 20.4266L16.9478 20.6514L17.068 20.9008L17.2274 21.1733L17.4268 21.4673L17.6667 21.7814L17.9476 22.114L18.2697 22.4635L18.6335 22.8282L19.0392 23.2066L19.4868 23.5969L19.9765 23.9976L20.5081 24.4069L21.0816 24.8232L21.6968 25.2447L22.3533 25.67L23.0508 26.0971L23.7888 26.5246L24.5668 26.9508L25.3841 27.374L26.24 27.7928L27.1338 28.2054L28.0645 28.6105L29.0312 29.0065L30.033 29.3919L31.0686 29.7653L32.137 30.1255L33.2369 30.471L34.367 30.8006L35.5259 31.113L36.7123 31.4073L37.9246 31.6821L39.1613 31.9366L40.4209 32.1697L41.7017 32.3806L43.002 32.5685L44.3202 32.7325L45.6544 32.872L47.003 32.9865L48.364 33.0754L49.7357 33.1382L51.1162 33.1745L52.5036 33.1842L53.896 33.167L55.2916 33.1227L56.6884 33.0514L58.0846 32.9531L59.4782 32.8278L60.8674 32.6759L62.2503 32.4975L63.6249 32.2931L64.9896 32.0631L66.3424 31.808L67.6815 31.5284L69.0052 31.2251L70.3118 30.8987L71.5996 30.5501L72.8669 30.1802L74.1121 29.79L75.3337 29.3804L76.5301 28.9526L77.7 28.5078L78.8419 28.0472L79.9546 27.5719L81.0367 27.0835L82.087 26.5831L83.1045 26.0724L84.088 25.5527L85.0367 25.0255L85.9495 24.4923L86.8258 23.9549L87.6646 23.4147L88.4654 22.8734L89.2275 22.3326L89.9506 21.794L90.634 21.2594L91.2776 20.7303L91.881 20.2085L92.4441 19.6957L92.9668 19.1936L93.4492 18.7038L93.8912 18.2281L94.2932 17.7682L94.6552 17.3255L94.9778 16.9019L95.2613 16.4989L95.5061 16.118L95.713 15.7608L95.8825 15.4288L96.0153 15.1234L96.1124 14.8461L96.1746 14.5983L96.2028 14.3811L96.198 14.196L96.1613 14.044L96.0939 13.9264L95.997 13.8442L95.8718 13.7984L95.7197 13.7899L95.5419 13.8197L95.34 13.8885L95.1153 13.9971L94.8694 14.146L94.6037 14.336L94.3199 14.5673L94.0194 14.8406L93.704 15.156L93.3752 15.5138L93.0347 15.9142L92.6842 16.3573L92.3252 16.843L91.9595 17.3712L91.5887 17.9417L91.2146 18.5543L90.8387 19.2087L90.4627 19.9043L90.0882 20.6406L89.7169 21.4171L89.3503 22.2331L88.9899 23.0877L88.6374 23.9802L88.2942 24.9096L87.9617 25.8749L87.6413 26.875L87.3345 27.9089L87.0425 28.9752L86.7667 30.0728L86.5081 31.2002L86.268 32.3561L86.0475 33.539L85.8475 34.7474L85.6691 35.9797L85.5131 37.2344L85.3804 38.5098L85.2717 39.8041L85.1877 41.1157L85.129 42.4427L85.0961 43.7834L85.0895 45.136L85.1094 46.4986L85.1564 47.8693L85.2304 49.2463L85.3317 50.6277L85.4602 52.0116L85.6161 53.3961L85.799 54.7793L86.0088 56.1593L86.2453 57.5343L86.508 58.9024L86.7966 60.2617L87.1104 61.6104L87.4489 62.9468L87.8114 64.2691L88.1972 65.5755L88.6053 66.8643L89.035 68.134L89.4852 69.3828L89.9549 70.6093L90.443 71.8119L90.9483 72.9892L91.4696 74.1398L92.0056 75.2623L92.5551 76.3555L93.1165 77.4181L93.6885 78.4491L94.2696 79.4474L94.8582 80.412L95.4529 81.3419L96.052 82.2363L96.6539 83.0945L97.257 83.9158L97.8596 84.6995L98.46 85.4452L99.0565 86.1524L99.6474 86.8207L100.231 87.45L100.806 88.0399L101.369 88.5905L101.921 89.1016L102.458 89.5734L102.979 90.006L103.483 90.3997L103.968 90.7548L104.432 91.0716L104.874 91.3507L105.291 91.5926L105.684 91.7979L106.049 91.9674L106.386 92.1019L106.693 92.2022L106.969 92.2692L107.213 92.304L107.423 92.3076L107.598 92.281L107.738 92.2257L107.841 92.1426L107.905 92.0332L107.931 91.8987L107.918 91.7406L107.864 91.5603L107.769 91.3592L107.633 91.1389L107.454 90.9009L107.233 90.6468L106.969 90.3781L106.661 90.0964L106.311 89.8035L105.917 89.5008L105.48 89.1901L104.999 88.8731L104.475 88.5513L103.908 88.2265L103.298 87.9002L102.646 87.5741L101.953 87.2499L101.218 86.929L100.443 86.6131L99.6285 86.3038L98.7749 86.0025L97.8833 85.7107L96.9547 85.4299L95.9902 85.1614L94.9909 84.9067L93.958 84.6671L92.8927 84.4437L91.7964 84.2378L90.6705 84.0506L89.5164 83.8831L88.3356 83.7363L87.1297 83.6113L85.9003 83.5089L84.649 83.4299L83.3774 83.375L82.0874 83.3451L80.7807 83.3405L79.4591 83.362L78.1244 83.4099L76.7784 83.4845L75.4231 83.5862L74.0602 83.7153L72.6916 83.8717L71.3194 84.0555L69.9453 84.2668L68.5712 84.5053L67.1991 84.7709L65.8308 85.0633L64.4682 85.3821L63.1131 85.7269L61.7674 86.0972L60.4328 86.4923L59.1111 86.9115L57.8042 87.3542L56.5136 87.8194L55.241 88.3063L53.9881 88.814L52.7564 89.3413L51.5474 89.8871L50.3627 90.4504L49.2035 91.0298L48.0714 91.6242L46.9675 92.232L45.893 92.8521L44.8492 93.4829L43.837 94.1229L42.8576 94.7707L41.9119 95.4246L41.0006 96.0832L40.1247 96.7447L39.2847 97.4075L38.4813 98.0699L37.7151 98.7303L36.9865 99.3869L36.2959 100.038L35.6435 100.682L35.0296 101.317L34.4543 101.941L33.9176 102.553L33.4195 103.151L32.9598 103.733L32.5383 104.298L32.1548 104.844L31.8087 105.368L31.4997 105.871L31.2273 106.349L30.9907 106.803L30.7894 107.229L30.6225 107.626L30.4891 107.994L30.3885 108.331L30.3195 108.635L30.2812 108.905L30.2724 109.141L30.292 109.341L30.3387 109.503L30.4113 109.627L30.5085 109.713L30.6288 109.758L30.7708 109.763L30.9332 109.727L31.1143 109.649L31.3128 109.528L31.5269 109.364L31.7552 109.157L31.996 108.906L32.2477 108.612L32.5087 108.274L32.7773 107.892L33.052 107.465L33.3309 106.996L33.6126 106.482L33.8953 105.926L34.1775 105.326L34.4575 104.684L34.7337 104.001L35.0045 103.276L35.2685 102.511L35.5241 101.706L35.7697 100.862L36.0041 99.9808L36.2257 99.0626L36.4332 98.1088L36.6253 97.1206L36.8008 96.099L36.9584 95.0456L37.097 93.9615L37.2154 92.8483L37.3128 91.7074L37.3881 90.5404L37.4403 89.3488L37.4688 88.1343L37.4727 86.8986L37.4514 85.6432L37.4043 84.3701L37.3308 83.0809L37.2305 81.7775L37.103 80.4618L36.948 79.1354L36.7653 77.8004L36.5549 76.4585L36.3166 75.1117L36.0505 73.7619L35.7568 72.4109L35.4355 71.0606L35.0871 69.7128L34.7118 68.3696L34.3102 67.0326L33.8827 65.7037L33.43 64.3847L32.9527 63.0775L32.4516 61.7836L31.9275 60.5048L31.3814 59.2428L30.8142 57.9993L30.227 56.7756L29.6208 55.5735L28.9968 54.3943L28.3563 53.2395L27.7006 52.1105L27.031 51.0084L26.3489 49.9346L25.6557 48.8902L24.9529 47.8763L24.2422 46.8939L23.5249 45.944L22.8029 45.0274L22.0775 44.145L21.3507 43.2974L20.624 42.4853L19.8991 41.7092L19.1777 40.9696L18.4617 40.2668L17.7527 39.6013L17.0524 38.9732L16.3627 38.3826L15.6853 37.8296L15.0218 37.3142L14.3741 36.8362L13.7438 36.3954L13.1326 35.9916L12.5421 35.6244L11.974 35.2934L11.4299 34.9979L10.9114 34.7375L10.4199 34.5114L9.95689 34.3189L9.5239 34.1592L9.12225 34.0313L8.75329 33.9344L8.41828 33.8673L8.11844 33.829L7.85491 33.8184L7.62877 33.8342L7.44105 33.8752L7.29269 33.94L7.18457 34.0274L7.11749 34.1359L7.09216 34.264L7.10924 34.4104L7.16928 34.5734L7.27278 34.7516L7.42014 34.9434L7.61166 35.1471L7.84758 35.3613L8.12806 35.5842L8.45315 35.8142L8.82282 36.0498L9.23697 36.2893L9.6954 36.531L10.1978 36.7733L10.7439 37.0146L11.3331 37.2533L11.965 37.4878L12.6389 37.7166L13.3541 37.9381L14.1098 38.1508L14.9052 38.3532L15.7394 38.5439L16.6113 38.7216L17.5198 38.8848L18.4639 39.0322L19.4422 39.1626L20.4535 39.2749L21.4964 39.3677L22.5696 39.4402L23.6715 39.4911L24.8006 39.5197L25.9554 39.5249L27.1343 39.5061L28.3356 39.4623L29.5576 39.393L30.7985 39.2975L32.0566 39.1753L33.3301 39.026L34.6172 38.8492L35.916 38.6446L37.2247 38.412L38.5414 38.1512L39.8642 37.8623L41.1913 37.5453L42.5207 37.2002L43.8505 36.8273L45.179 36.4269L46.5042 35.9993L47.8243 35.5451L49.1375 35.0646L50.4419 34.5585L51.7359 34.0275L53.0175 33.4723L54.2852 32.8939L55.5373 32.293L56.7721 31.6707L57.9881 31.0279L59.1837 30.3659L60.3574 29.6858L61.5078 28.9887L62.6337 28.2761L63.7335 27.5492L64.8062 26.8095L65.8505 26.0583L66.8653 25.2972L67.8497 24.5278L68.8025 23.7515L69.7231 22.9701L70.6104 22.1851L71.4639 21.3982L72.2829 20.611L73.0667 19.8255L73.815 19.0431L74.5273 18.2658L75.2032 17.4951L75.8426 16.733L76.4454 15.9811L77.0113 15.2412L77.5406 14.515L78.0332 13.8043L78.4893 13.1108L78.9093 12.4362L79.2934 11.7821L79.6421 11.1501L79.9559 10.542L80.2354 9.95928L80.4813 9.40346L80.6942 8.87604L80.8751 8.37849L81.0247 7.91219L81.1441 7.4785L81.2343 7.07871L81.2962 6.71405L81.3312 6.3857L81.3403 6.09475L81.3248 5.84225L81.286 5.62916L81.2252 5.45639L81.144 5.32476L81.0435 5.23502L80.9255 5.18784L80.7913 5.1838L80.6425 5.22341L80.4806 5.30711L80.3072 5.43524L80.124 5.60805L79.9325 5.82572L79.7344 6.08833L79.5313 6.3959L79.3248 6.74833L79.1165 7.14546L78.9081 7.58704L78.7013 8.07271L78.4975 8.60206L78.2984 9.17458L78.1055 9.78966L77.9205 10.4467L77.7447 11.1448L77.5797 11.8832L77.4268 12.6611L77.2876 13.4774L77.1634 14.331L77.0553 15.2209L76.9648 16.1458L76.8931 17.1045L76.8412 18.0956L76.8102 19.1178L76.8013 20.1697L76.8152 21.2496L76.8531 22.3562L76.9155 23.4877L77.0034 24.6425L77.1174 25.8191L77.2582 27.0155L77.4261 28.2302L77.6218 29.4613L77.8455 30.707L78.0975 31.9655L78.3782 33.235L78.6875 34.5135L79.0256 35.7993L79.3924 37.0904L79.7877 38.385L80.2115 39.6812L80.6634 40.9772L81.143 42.2711L81.6499 43.561L82.1836 44.8452L82.7435 46.1218L83.3288 47.3891L83.9389 48.6453L84.5729 49.8888L85.2298 51.1178L85.9088 52.3308L86.6087 53.5262L87.3285 54.7023L88.0669 55.8578L88.8228 56.9913L89.5948 58.1013L90.3816 59.1865L91.1818 60.2457L91.9939 61.2778L92.8164 62.2816L93.6478 63.256L94.4865 64.2001L95.3309 65.1131L96.1792 65.994L97.0299 66.8422L97.8812 67.657L98.7314 68.4378L99.5788 69.1841L100.422 69.8956L101.258 70.5718L102.086 71.2125L102.904 71.8176L103.711 72.387L104.504 72.9206L105.282 73.4187L106.043 73.8813L106.786 74.3086L107.508 74.7011L108.207 75.0592L108.884 75.3833L109.535 75.674L110.159 75.9319L110.755 76.1578L111.321 76.3526L111.856 76.5169L112.358 76.6518L112.826 76.7583L113.26 76.8374L113.656 76.8903L114.015 76.9181L114.336 76.922L114.617 76.9035L114.857 76.8636L115.056 76.804L115.213 76.7259L115.327 76.6309L115.398 76.5203L115.425 76.3958L115.407 76.2589L115.344 76.1111L115.236 75.9541L115.083 75.7894L114.884 75.6186L114.64 75.4434L114.351 75.2655L114.016 75.0863L113.636 74.9075L113.211 74.7308L112.742 74.5577L112.23 74.3898L111.674 74.2287L111.075 74.0759L110.434 73.9328L109.753 73.801L109.031 73.6819L108.27 73.5769L107.47 73.4873L106.634 73.4144L105.761 73.3596L104.854 73.3239L103.914 73.3085L102.941 73.3146L101.938 73.3432L100.906 73.3951L99.8466 73.4714L98.7609 73.5728L97.6509 73.7001L96.5182 73.8539L95.3645 74.0349L94.1915 74.2437L93.0011 74.4806L91.795 74.746L90.5751 75.0403L89.3431 75.3636L88.1009 75.7161L86.8504 76.0979L85.5934 76.5088L84.3319 76.9489L83.0677 77.4178L81.8026 77.9153L80.5385 78.4411L79.2773 78.9947L78.0207 79.5755L76.7706 80.1831L75.5287 80.8166L74.2968 81.4754L73.0765 82.1587L71.8696 82.8654L70.6777 83.5947L69.5024 84.3455L68.3452 85.1166L67.2075 85.907L66.0909 86.7153L64.9967 87.5403L63.9263 88.3807L62.8808 89.2349L61.8615 90.1016L60.8694 90.9793L59.9058 91.8664L58.9714 92.7613L58.0673 93.6623L57.1942 94.5679L56.3529 95.4764L55.5441 96.386L54.7684 97.295L54.0262 98.2017L53.3181 99.1042L52.6443 100.001L52.0051 100.89L51.4007 101.769L50.8312 102.638L50.2966 103.493L49.7968 104.334L49.3316 105.158L48.9009 105.964L48.5043 106.749L48.1413 107.514L47.8116 108.255L47.5145 108.971L47.2495 109.66L47.0157 110.322L46.8125 110.954L46.6389 111.555L46.4941 112.124L46.377 112.659L46.2867 113.159L46.2219 113.622L46.1816 114.049L46.1644 114.437L46.1692 114.786L46.1945 115.094L46.2391 115.361L46.3015 115.586L46.3803 115.768L46.4739 115.906L46.5809 116.001L46.6997 116.051L46.8288 116.056L46.9665 116.016L47.1113 115.93L47.2616 115.799L47.4157 115.622L47.572 115.4L47.729 115.132L47.8849 114.818L48.0382 114.46L48.1873 114.057L48.3305 113.61L48.4665 113.119L48.5935 112.585L48.7102 112.009L48.815 111.391L48.9065 110.733L48.9832 110.034L49.044 109.297L49.0874 108.523L49.1122 107.711L49.1171 106.865L49.1011 105.984L49.0629 105.071L49.0017 104.126L48.9165 103.152L48.8062 102.149L48.6702 101.12L48.5076 100.065L48.3177 98.987L48.1 97.887L47.8539 96.7669L47.5789 95.6284L47.2747 94.4733L46.9409 93.3034L46.5774 92.1206L46.1839 90.9266L45.7606 89.7233L45.3072 88.5126L44.8241 87.2963L44.3114 86.0762L43.7693 84.8543L43.1982 83.6323L42.5986 82.4121L41.9709 81.1955L41.3158 79.9842L40.634 78.7801L39.9262 77.5849L39.1932 76.4002L38.436 75.2278L37.6555 74.0693L36.8527 72.9262L36.0289 71.8001L35.1851 70.6925L34.3226 69.6048L33.4427 68.5383L32.5468 67.4945L31.6363 66.4746L30.7126 65.4796L29.7773 64.5109L28.8319 63.5694L27.878 62.6561L26.9173 61.7719L25.9513 60.9177L24.982 60.0942L24.0108 59.3021L23.0397 58.542L22.0703 57.8144L21.1044 57.1198L20.1439 56.4584L19.1906 55.8306L18.2461 55.2366L17.3124 54.6765L16.3912 54.1502L15.4843 53.6578L14.5936 53.199L13.7206 52.7737L12.8672 52.3815L12.0351 52.0221L11.2259 51.695L10.4413 51.3996L9.68283 51.1353L8.95217 50.9015L8.25077 50.6972L7.58012 50.5218L6.94164 50.3743L6.33669 50.2537L5.76659 50.159L5.23258 50.0891L4.73584 50.0428L4.2775 50.0189L3.85861 50.0162L3.48015 50.0333L3.14302 50.0688L2.84805 50.1215L2.59601 50.1898L2.38756 50.2723L2.2233 50.3675L2.10374 50.4737L2.02931 50.5896L2.00035 50.7135L2.01713 50.8438L2.07981 50.9789L2.18849 51.1172L2.34316 51.2571L2.54375 51.397L2.79007 51.5352L3.08188 51.6702L3.41882 51.8004L3.80047 51.9242L4.22633 52.0401L4.69578 52.1465L5.20816 52.2419L5.76271 52.3249L6.3586 52.394L6.99491 52.4478L7.67065 52.485L8.38478 52.5043L9.13616 52.5044L9.9236 52.4841L10.7458 52.4422L11.6015 52.3777L12.4893 52.2895L13.4078 52.1767L14.3554 52.0384L15.3306 51.8736L16.3318 51.6818L17.3574 51.4621L18.4058 51.2139L19.4752 50.9367L20.5639 50.6301L21.6701 50.2937L22.792 49.927L23.9279 49.5301L25.0758 49.1026L26.234 48.6445L27.4006 48.1559L28.5738 47.6368L29.7517 47.0875L30.9325 46.5082L32.1143 45.8993L33.2953 45.2612L34.4737 44.5943L35.6478 43.8994L36.8156 43.1771L37.9756 42.4281L39.126 41.6533L40.2652 40.8535L41.3914 40.0298L42.5032 39.1831L43.599 38.3147L44.6772 37.4256L45.7366 36.5171L46.7755 35.5905L47.7929 34.6472L48.7873 33.6886L49.7576 32.7161L50.7026 31.7313L51.6214 30.7357L52.5128 29.7309L53.376 28.7185L54.2102 27.7003L55.0145 26.6779L55.7883 25.653L56.531 24.6275L57.242 23.603L57.9209 22.5814L58.5674 21.5645L59.1811 20.554L59.7618 19.5518L60.3095 18.5597L60.8241 17.5795L61.3056 16.6129L61.7543 15.6618L62.1702 14.728L62.5538 13.8131L62.9054 12.9189L63.2254 12.047L63.5144 11.1992L63.773 10.3771L64.0019 9.58222L64.2018 8.8161L64.3737 8.08024L64.5183 7.37609L64.6367 6.70503L64.7299 6.06839L64.7989 5.46744L64.845 4.90339L64.8694 4.37738L64.8732 3.89049L64.8578 3.44372L64.8246 3.038L64.775 2.67418L64.7104 2.35306L64.6322 2.07531L64.542 1.84158L64.4413 1.65239L64.3316 1.5082L64.2146 1.40939L64.0918 1.35624L63.9648 1.34896L63.8352 1.38766L63.7047 1.47237L63.5749 1.60303L63.4473 1.77951L63.3236 2.00157L63.2054 2.26891L63.0942 2.58111L62.9916 2.93771L62.8992 3.33812L62.8184 3.78172L62.7507 4.26777L62.6976 4.79546L62.6605 5.36392L62.6407 5.97218L62.6395 6.61921L62.6582 7.30393L62.6981 8.02515L62.7602 8.78164L62.8457 9.57212L62.9556 10.3952L63.0909 11.2495L63.2525 12.1336L63.4413 13.0459L63.658 13.9848L63.9033 14.9488L64.1779 15.9362L64.4822 16.9454L64.8169 17.9745L65.1821 19.022L65.5784 20.0859L66.0059 21.1646L66.4647 22.2561L66.9549 23.3588L67.4766 24.4707L68.0295 25.59L68.6136 26.7149L69.2285 27.8436L69.8739 28.9743L70.5495 30.105L71.2545 31.2342L71.9886 32.3598L72.7509 33.4803L73.5409 34.5938L74.3575 35.6988L75.1999 36.7935L76.0673 37.8762L76.9584 38.9455L77.8722 39.9998L78.8075 41.0376L79.7632 42.0574L80.7377 43.0579L81.7299 44.0378L82.7383 44.9958L83.7614 45.9307L84.7977 46.8414L85.8456 47.7268L86.9035 48.5859L87.9699 49.4177L89.0429 50.2216L90.1209 50.9966L91.2021 51.7421L92.2848 52.4574L93.3672 53.1421L94.4475 53.7956L95.5239 54.4177L96.5945 55.008L97.6575 55.5663L98.7111 56.0925L99.7535 56.5865L100.783 57.0485L101.797 57.4784L102.795 57.8766L103.775 58.2433L104.734 58.5789L105.672 58.8838L106.586 59.1586L107.475 59.4039L108.337 59.6203L109.17 59.8086L109.974 59.9696L110.747 60.1043L111.487 60.2135L112.192 60.2983L112.863 60.3597L113.496 60.399L114.092 60.4173L114.649 60.4158L115.166 60.3959L115.643 60.3589L116.077 60.3062L116.469 60.2392L116.817 60.1594L117.122 60.0682L117.382 59.9672L117.597 59.858L117.766 59.7421L117.89 59.6211L117.968 59.4965L117.999 59.3701" stroke="url(#paint0_radial_501_1486)" stroke-width="2"/>
<defs>
<radialGradient id="paint0_radial_501_1486" cx="0" cy="0" r="1" gradientUnits="userSpaceOnUse" gradientTransform="translate(21.433 21.3776) rotate(54.4147) scale(125.359)">
<stop stop-color="#F0C6FF"/>
<stop offset="1" stop-color="#C6D6FF"/>
</radialGradient>
</defs>
</svg>
