<svg width="118" height="119" viewBox="0 0 118 119" fill="none" xmlns="http://www.w3.org/2000/svg">
<path d="M1 59.3466L1.04314 57.5292L1.17241 55.7171L1.3873 53.9155L1.68701 52.1295L2.07038 50.3644L2.53596 48.625L3.08199 46.9165L3.70638 45.2434L4.40677 43.6107L5.1805 42.0226L6.02464 40.4835L6.936 38.9976L7.91114 37.5687L8.94638 36.2005L10.0378 34.8964L11.1814 33.6595L12.3728 32.4926L13.6076 31.3985L14.8812 30.3792L16.1888 29.4369L17.5256 28.5732L18.8868 27.7894L20.2672 27.0865L21.6619 26.4653L23.0659 25.926L24.4739 25.4686L25.881 25.093L27.2821 24.7983L28.6723 24.5837L30.0466 24.4478L31.4004 24.3891L32.7289 24.4055L34.0277 24.4949L35.2923 24.6547L36.5185 24.8823L37.7023 25.1743L38.84 25.5277L39.928 25.9387L40.963 26.4037L41.9418 26.9186L42.8618 27.4792L43.7202 28.0812L44.515 28.7201L45.2442 29.3912L45.9061 30.0897L46.4995 30.8109L47.0232 31.5497L47.4767 32.3013L47.8596 33.0605L48.1718 33.8224L48.4136 34.582L48.5857 35.3343L48.689 36.0744L48.7247 36.7974L48.6943 37.4987L48.5999 38.1736L48.4434 38.8176L48.2274 39.4263L47.9546 39.9958L47.628 40.5219L47.2507 41.001L46.8263 41.4295L46.3585 41.8041L45.851 42.1219L45.3082 42.3802L44.7341 42.5763L44.1332 42.7082L43.51 42.774L42.8692 42.7721L42.2155 42.7013L41.5538 42.5607L40.8889 42.3496L40.2256 42.0678L39.569 41.7154L38.9239 41.2928L38.2951 40.8006L37.6876 40.2399L37.106 39.6122L36.5549 38.919L36.0389 38.1624L35.5624 37.3447L35.1296 36.4685L34.7446 35.5367L34.4112 34.5524L34.1332 33.5189L33.9139 32.44L33.7566 31.3195L33.6643 30.1615L33.6396 28.9702L33.6849 27.7501L33.8024 26.5059L33.9939 25.2422L34.2609 23.9639L34.6046 22.676L35.026 21.3835L35.5255 20.0914L36.1036 18.805L36.76 17.5294L37.4943 16.2696L38.3059 15.0307L39.1937 13.8179L40.1562 12.6361L41.1919 11.4901L42.2987 10.3847L43.4743 9.32462L44.7162 8.3142L46.0215 7.35779L47.387 6.45949L48.8093 5.62319L50.2848 4.85256L51.8098 4.15103L53.38 3.52178L54.9912 2.9677L56.6391 2.49143L58.3189 2.09528L60.026 1.7813L61.7554 1.55118L63.5023 1.40634L65.2616 1.34784L67.0281 1.37643L68.7968 1.49252L70.5625 1.69619L72.3201 1.98718L74.0643 2.36491L75.7902 2.82845L77.4927 3.37654L79.1668 4.00763L80.8079 4.71982L82.4111 5.51092L83.972 6.37843L85.4861 7.31956L86.9494 8.33127L88.3577 9.41021L89.7073 10.5528L90.9947 11.7553L92.2167 13.0136L93.37 14.3234L94.4521 15.6805L95.4604 17.0801L96.3928 18.5175L97.2473 19.988L98.0224 21.4864L98.717 23.0078L99.3299 24.5471L99.8607 26.0989L100.309 27.6583L100.675 29.2199L100.959 30.7786L101.162 32.3293L101.284 33.8669L101.328 35.3863L101.294 36.8828L101.185 38.3516L101.003 39.788L100.751 41.1877L100.43 42.5463L100.046 43.8597L99.5995 45.1242L99.0956 46.3361L98.5378 47.4921L97.93 48.589L97.2764 49.624L96.5814 50.5946L95.8492 51.4984L95.0847 52.3336L94.2925 53.0986L93.4774 53.7919L92.6443 54.4127L91.7981 54.9602L90.9437 55.4342L90.0862 55.8346L89.2303 56.1617L88.3811 56.4163L87.5433 56.5992L86.7218 56.7119L85.9212 56.7558L85.146 56.7331L84.4006 56.6458L83.6894 56.4966L83.0162 56.2881L82.3851 56.0235L81.7997 55.7061L81.2634 55.3395L80.7794 54.9273L80.3507 54.4737L79.98 53.9827L79.6696 53.4588L79.4218 52.9063L79.2382 52.33L79.1204 51.7346L79.0696 51.1248L79.0867 50.5057L79.1722 49.8821L79.3264 49.2591L79.5492 48.6416L79.8402 48.0345L80.1987 47.4429L80.6235 46.8716L81.1133 46.3254L81.6665 45.809L82.2811 45.327L82.9547 44.8838L83.6848 44.4837L84.4687 44.1308L85.3031 43.829L86.1847 43.5819L87.11 43.3932L88.0752 43.2659L89.0762 43.203L90.1088 43.2072L91.1687 43.281L92.2514 43.4263L93.3522 43.6452L94.4664 43.9389L95.5891 44.3088L96.7154 44.7557L97.8403 45.2801L98.9588 45.8821L100.066 46.5617L101.157 47.3184L102.226 48.1514L103.269 49.0595L104.281 50.0414L105.257 51.0952L106.193 52.2188L107.084 53.41L107.925 54.6659L108.713 55.9836L109.444 57.36L110.114 58.7914L110.718 60.2743L111.255 61.8046L111.721 63.3781L112.113 64.9905L112.429 66.6373L112.666 68.3137L112.823 70.0149L112.898 71.736L112.889 73.4719L112.796 75.2174L112.619 76.9673L112.356 78.7166L112.008 80.4598L111.575 82.1918L111.057 83.9073L110.457 85.6013L109.775 87.2686L109.012 88.9042L108.171 90.5034L107.254 92.0613L106.263 93.5733L105.201 95.0352L104.072 96.4425L102.879 97.7915L101.624 99.0781L100.313 100.299L98.9484 101.451L97.5353 102.531L96.0779 103.535L94.5807 104.463L93.0484 105.311L91.4859 106.078L89.898 106.762L88.2897 107.362L86.6662 107.877L85.0325 108.307L83.3938 108.652L81.7552 108.911L80.1218 109.084L78.4986 109.174L76.8907 109.181L75.3029 109.106L73.74 108.951L72.2068 108.718L70.7077 108.411L69.247 108.03L67.829 107.579L66.4577 107.062L65.1368 106.482L63.8698 105.842L62.6601 105.147L61.5106 104.4L60.4241 103.606L59.4031 102.77L58.4497 101.895L57.5659 100.987L56.7532 100.051L56.0129 99.0904L55.3458 98.1117L54.7527 97.1195L54.2337 96.1188L53.7889 95.1147L53.4179 94.1123L53.12 93.1165L52.8941 92.1323L52.7391 91.1646L52.6531 90.2182L52.6344 89.2975L52.6806 88.4072L52.7893 87.5516L52.9577 86.7348L53.1827 85.9607L53.4611 85.2331L53.7893 84.5555L54.1636 83.9311L54.58 83.3629L55.0345 82.8536L55.5228 82.4057L56.0403 82.0213L56.5827 81.7021L57.1451 81.4498L57.7229 81.2655L58.3112 81.1502L58.9052 81.1042L59.5 81.128L60.0907 81.2213L60.6724 81.3837L61.2402 81.6144L61.7895 81.9124L62.3154 82.2763L62.8135 82.7042L63.2792 83.1942L63.7082 83.7439L64.0964 84.3507L64.4397 85.0117L64.7343 85.7237L64.9767 86.4834L65.1635 87.287L65.2915 88.1307L65.3579 89.0104L65.3601 89.9219L65.2958 90.8606L65.163 91.8221L64.9598 92.8015L64.685 93.7942L64.3373 94.795L63.9161 95.7991L63.4208 96.8014L62.8513 97.7969L62.2077 98.7804L61.4906 99.747L60.7008 100.692L59.8395 101.609L58.9081 102.495L57.9084 103.344L56.8425 104.152L55.7128 104.915L54.522 105.627L53.2729 106.284L51.9688 106.884L50.6131 107.422L49.2096 107.894L47.7621 108.297L46.2747 108.628L44.7519 108.885L43.1979 109.065L41.6176 109.166L40.0155 109.185L38.3966 109.122L36.7659 108.975L35.1284 108.743L33.4892 108.426L31.8534 108.024L30.2261 107.536L28.6124 106.962L27.0175 106.305L25.4463 105.564L23.9039 104.742L22.395 103.839L20.9244 102.859L19.4967 101.803L18.1163 100.674L16.7876 99.4743L15.5147 98.2083L14.3013 96.8788L13.1512 95.4896L12.0677 94.0446L11.0541 92.5481L10.1132 91.0043L9.24765 89.4178L8.45979 87.7932L7.75165 86.1355L7.12493 84.4495L6.58107 82.7402L6.12114 81.0129L5.74592 79.2727L5.45586 77.5249L5.25106 75.7745L5.13131 74.027L5.09607 72.2876L5.14447 70.5612L5.27533 68.8531L5.48714 67.1683L5.77809 65.5116L6.14607 63.8877L6.58867 62.3013L7.1032 60.7568L7.68671 59.2584L8.33599 57.8101L9.04757 56.4158L9.81776 55.079L10.6427 53.8031L11.5182 52.591L12.4401 51.4456L13.4039 50.3693L14.405 49.3644L15.4387 48.4326L16.5002 47.5755L17.5847 46.7944L18.6871 46.0902L19.8026 45.4634L20.926 44.9143L22.0524 44.4428L23.1767 44.0485L24.2942 43.7306L25.3998 43.488L26.4887 43.3194L27.5564 43.223L28.5982 43.1969L29.6097 43.2387L30.5868 43.3458L31.5252 43.5153L32.4211 43.7442L33.271 44.0289L34.0712 44.366L34.8188 44.7515L35.5107 45.1814L36.1444 45.6516L36.7173 46.1575L37.2275 46.6947L37.6733 47.2585L38.053 47.8442L38.3655 48.4468L38.6101 49.0615L38.7862 49.6834L38.8936 50.3073L38.9325 50.9284L38.9032 51.5416L38.8067 52.1422L38.6439 52.7251L38.4163 53.2857L38.1256 53.8192L37.7739 54.3211L37.3634 54.7871L36.8967 55.2129L36.3767 55.5945L35.8066 55.928L35.1896 56.2098L34.5295 56.4365L33.8299 56.6049L33.0949 56.7122L32.3288 56.7557L31.5358 56.7332L30.7204 56.6427L29.8873 56.4823L29.0412 56.2506L28.187 55.9467L27.3294 55.5697L26.4735 55.1192L25.6241 54.5951L24.7863 53.9976L23.9649 53.3273L23.1649 52.585L22.3911 51.772L21.6481 50.8898L20.9408 49.9403L20.2735 48.9255L19.6506 47.848L19.0765 46.7106L18.555 45.5161L18.0901 44.268L17.6854 42.9697L17.3442 41.6251L17.0698 40.2381L16.8651 38.8129L16.7326 37.3539L16.6746 35.8657L16.6934 34.353L16.7906 32.8207L16.9676 31.2737L17.2256 29.717L17.5655 28.1557L17.9876 26.5951L18.4921 25.0403L19.079 23.4964L19.7476 21.9688L20.4972 20.4625L21.3266 18.9826L22.2344 17.5341L23.2187 16.1219L24.2775 14.7508L25.4085 13.4254L26.6089 12.1502L27.8758 10.9295L29.2059 9.76743L30.596 8.66781L32.0421 7.63431L33.5405 6.67036L35.087 5.77908L36.6772 4.96336L38.3067 4.22579L39.9708 3.56864L41.6648 2.99393L43.3838 2.5033L45.1227 2.09812L46.8766 1.77942L48.6402 1.5479L50.4085 1.4039L52.1763 1.34747L53.9385 1.37829L55.6899 1.49573L57.4254 1.69882L59.1402 1.98626L60.8292 2.35644L62.4877 2.80744L64.1111 3.337L65.6949 3.94261L67.2347 4.62144L68.7264 5.37042L70.1661 6.18619L71.55 7.06515L72.8748 8.0035L74.1372 8.99716L75.3342 10.0419L76.4632 11.1334L77.5218 12.2669L78.5079 13.4379L79.4196 14.6414L80.2556 15.8724L81.0146 17.1261L81.6959 18.3973L82.2989 19.6808L82.8235 20.9716L83.2697 22.2645L83.6381 23.5545L83.9294 24.8364L84.1448 26.1053L84.2857 27.3562L84.3538 28.5845L84.3511 29.7854L84.28 30.9545L84.1431 32.0874L83.9433 33.18L83.6836 34.2283L83.3675 35.2287L82.9985 36.1776L82.5805 37.0719L82.1175 37.9085L81.6136 38.6848L81.0732 39.3984L80.5008 40.0472L79.901 40.6294L79.2785 41.1435L78.638 41.5884L77.9846 41.9632L77.3229 42.2675L76.658 42.5011L75.9947 42.6641L75.3379 42.7571L74.6925 42.7808L74.0632 42.7364L73.4547 42.6254L72.8716 42.4495L72.3183 42.2108L71.7992 41.9117L71.3183 41.5548L70.8796 41.1431L70.487 40.6798L70.1438 40.1682L69.8535 39.6122L69.6191 39.0155L69.4434 38.3823L69.329 37.7167L69.278 37.0234L69.2925 36.3068L69.374 35.5716L69.5241 34.8227L69.7436 34.0649L70.0334 33.3031L70.3937 32.5425L70.8247 31.788L71.3262 31.0445L71.8974 30.3172L72.5377 29.6109L73.2456 28.9306L74.0197 28.2809L74.8581 27.6667L75.7587 27.0924L76.7191 26.5625L77.7365 26.0812L78.8079 25.6525L79.9302 25.2804L81.0997 24.9684L82.3129 24.72L83.5657 24.5383L84.854 24.4262L86.1735 24.3862L87.5198 24.4208L88.8881 24.5319L90.2738 24.7213L91.6719 24.9904L93.0777 25.3401L94.4859 25.7714L95.8917 26.2846L97.2899 26.8798L98.6754 27.5567L100.043 28.3148L101.388 29.1532L102.706 30.0707L103.991 31.0656L105.238 32.1361L106.444 33.2801L107.603 34.495L108.712 35.778L109.766 37.1262L110.76 38.5361L111.692 40.0043L112.558 41.5268L113.355 43.0998L114.079 44.7188L114.728 46.3795L115.299 48.0772L115.79 49.8073L116.2 51.5648L116.526 53.3447L116.768 55.1419L116.925 56.9512L116.996 58.7675L116.98 60.5854L116.878 62.3998L116.69 64.2053L116.418 65.9968L116.061 67.7692L115.621 69.5173L115.101 71.2362L114.501 72.921L113.824 74.5671L113.074 76.1699L112.252 77.725L111.361 79.2283L110.406 80.6757L109.39 82.0637L108.316 83.3886L107.188 84.6472L106.012 85.8367L104.79 86.9542L103.529 87.9976L102.231 88.9646L100.903 89.8535L99.5492 90.6629L98.1744 91.3916L96.7836 92.0389L95.3821 92.6044L93.9748 93.0878L92.5669 93.4894L91.1634 93.8098L89.7692 94.0498L88.3892 94.2106L87.0284 94.2937L85.6913 94.301L84.3826 94.2346L83.1067 94.0969L81.8678 93.8906L80.67 93.6187L79.5172 93.2845L78.413 92.8914L77.3608 92.4432L76.3638 91.9438L75.4248 91.3973L74.5465 90.808L73.7312 90.1803L72.9809 89.519L72.2974 88.8287L71.6821 88.1142L71.1361 87.3805L70.6601 86.6324L70.2548 85.8751L69.9201 85.1135L69.6559 84.3526L69.4616 83.5975L69.3366 82.8529L69.2795 82.124L69.289 81.4152L69.3633 80.7315L69.5002 80.0772L69.6976 79.4567L69.9526 78.8743L70.2624 78.334L70.6239 77.8395L71.0337 77.3946L71.4881 77.0024L71.9834 76.6662L72.5154 76.3887L73.08 76.1725L73.6728 76.0199L74.2894 75.9329L74.9251 75.9131L75.5752 75.9618L76.2349 76.0801L76.8994 76.2687L77.5637 76.5279L78.2229 76.8579L78.8722 77.2582L79.5067 77.7284L80.1216 78.2674L80.712 78.8739L81.2733 79.5464L81.8009 80.283L82.2905 81.0815L82.7376 81.9394L83.1383 82.8538L83.4885 83.8218L83.7845 84.84L84.0229 85.9048L84.2002 87.0125L84.3136 88.1591L84.3601 89.3402L84.3374 90.5516L84.2431 91.7886L84.0753 93.0467L83.8325 94.3208L83.5134 95.6062L83.1168 96.8979L82.6422 98.1906L82.0891 99.4793L81.4577 100.759L80.7481 102.024L79.961 103.27L79.0974 104.492L78.1585 105.684L77.1459 106.842L76.0615 107.961L74.9075 109.036L73.6865 110.063L72.4011 111.037L71.0544 111.954L69.6498 112.811L68.1908 113.603L66.6812 114.326L65.1249 114.979L63.5263 115.557L61.8896 116.059L60.2195 116.481L58.5205 116.821L56.7977 117.078L55.0558 117.25L53.2999 117.336L51.5351 117.335L49.7665 117.247L47.9993 117.071L46.2386 116.808L44.4896 116.458L42.7574 116.022L41.0469 115.5L39.3632 114.895L37.711 114.209L36.0953 113.443L34.5204 112.599L32.9909 111.681L31.511 110.692L30.0848 109.634L28.7161 108.511L27.4085 107.327L26.1653 106.086L24.9898 104.792L23.8848 103.45L22.8527 102.063L21.8959 100.637L21.0164 99.1769L20.2158 97.6868L19.4955 96.1722L18.8565 94.6381L18.2995 93.0897L17.8248 91.5321L17.4326 89.9707L17.1226 88.4105L16.894 86.8567L16.7461 85.3144L16.6776 83.7886L16.6869 82.2843L16.7721 80.8062L16.9312 79.3589L17.1615 77.9471L17.4605 76.575L17.8251 75.2467L18.2521 73.9662L18.7379 72.7372L19.279 71.5631L19.8713 70.447L20.5107 69.392L21.1931 68.4007L21.9139 67.4753L22.6686 66.6181L23.4525 65.8306L24.2608 65.1143L25.0887 64.4703L25.9313 63.8994L26.7836 63.402L27.6407 62.9782L28.4976 62.6278L29.3495 62.3502L30.1914 62.1446L31.0186 62.0097L31.8264 61.944L32.6102 61.9458L33.3655 62.0127L34.0881 62.1425L34.7738 62.3325L35.4187 62.5795L36.0191 62.8805L36.5714 63.2318L37.0724 63.6299L37.519 64.0708L37.9084 64.5503L38.2383 65.0643L38.5063 65.6081L38.7105 66.1773L38.8494 66.7672L38.9217 67.3729L38.9263 67.9896L38.8626 68.6123L38.7302 69.236L38.5293 69.8559L38.2599 70.4668L37.9229 71.0638L37.519 71.6421L37.0497 72.1968L36.5165 72.7232L35.9213 73.2167L35.2662 73.6727L34.5538 74.087L33.7867 74.4554L32.9681 74.7739L32.1011 75.0387L31.1893 75.2464L30.2364 75.3937L29.2464 75.4774L28.2234 75.4948L27.1717 75.4434L26.0957 75.3211L25.0002 75.1258L23.8897 74.8561L22.7692 74.5105L21.6435 74.0882L20.5176 73.5886L19.3965 73.0113L18.2852 72.3564L17.1888 71.6241L16.112 70.8154L15.06 69.931L14.0376 68.9725L13.0495 67.9414L12.1004 66.8397L11.1949 65.6698L10.3372 64.4343L9.5317 63.1359L8.78233 61.7778L8.09295 60.3635L7.46716 58.8966L6.90832 57.381L6.41957 55.8208L6.00376 54.2202L5.66347 52.5839L5.40102 50.9164L5.21839 49.2226L5.11731 47.5073L5.09914 45.7756L5.16497 44.0326L5.31554 42.2835L5.55128 40.5334L5.87228 38.7877L6.27831 37.0516L6.76881 35.3303L7.34288 33.6289L7.99933 31.9525L8.73663 30.3063L9.55293 28.695L10.4461 27.1234L11.4137 25.5963L12.453 24.118L13.561 22.6928L14.7345 21.3248L15.97 20.0179L17.2636 18.7757L18.6116 17.6016L20.0096 16.4986L21.4534 15.4696L22.9384 14.5172L24.4601 13.6435L26.0135 12.8506L27.5939 12.14L29.1962 11.513L30.8154 10.9706L32.4464 10.5135L34.084 10.1419L35.7232 9.8559L37.3588 9.65501L38.9858 9.5386L40.5991 9.50562L42.1939 9.55475L43.7652 9.68431L45.3084 9.89234L46.8189 10.1765L48.2922 10.5344L49.7242 10.963L51.1108 11.4592L52.4482 12.0197L53.7327 12.6409L54.9611 13.319L56.1301 14.0498L57.2369 14.8291L58.279 15.6526L59.2541 16.5157L60.1603 17.4136L60.9958 18.3416L61.7593 19.2947L62.4498 20.268L63.0665 21.2565L63.6091 22.255L64.0775 23.2586L64.472 24.2621L64.7931 25.2605L65.0418 26.2489L65.2192 27.2224L65.327 28.1762L65.3669 29.1055L65.3411 30.006L65.252 30.8731L65.1023 31.7027L64.895 32.4908L64.6333 33.2336L64.3205 33.9275L63.9605 34.5692L63.557 35.1556L63.1142 35.6839L62.6362 36.1516L62.1275 36.5565L61.5926 36.8966L61.036 37.1704L60.4626 37.3764L59.8771 37.5138L59.2844 37.5819L58.6893 37.5803L58.0968 37.5092L57.5117 37.3687L56.939 37.1596L56.3833 36.8829L55.8494 36.5399L55.3419 36.1322L54.8654 35.6617L54.4243 35.1308L54.0226 34.5418L53.6646 33.8978L53.3541 33.2016L53.0947 32.4567L52.8899 31.6667L52.7428 30.8353L52.6565 29.9667L52.6336 29.0648L52.6764 28.1343L52.7873 27.1796L52.9678 26.2053L53.2197 25.2164L53.544 24.2176L53.9418 23.214L54.4135 22.2106L54.9594 21.2124L55.5794 20.2245L56.2731 19.2519L57.0399 18.2998L57.8786 17.373L58.7878 16.4766L59.7659 15.6152L60.811 14.7935L61.9206 14.0162L63.0923 13.2877L64.3232 12.6121L65.6102 11.9935L66.9498 11.4358L68.3385 10.9425L69.7724 10.517L71.2475 10.1623L72.7595 9.88147L74.3041 9.67688L75.8766 9.55085L77.4722 9.50533L79.0863 9.54199L80.7137 9.66214L82.3496 9.86679L83.9889 10.1566L85.6263 10.532L87.2569 10.9929L88.8754 11.5391L90.4769 12.1698L92.0562 12.884L93.6083 13.6806L95.1284 14.5578L96.6117 15.5137L98.0536 16.546L99.4495 17.6522L100.795 18.8295L102.086 20.0746L103.319 21.3843L104.49 22.7549L105.595 24.1825L106.631 25.6631L107.595 27.1923L108.485 28.7657L109.298 30.3787L110.032 32.0264L110.684 33.7039L111.255 35.4063L111.742 37.1284L112.144 38.8651L112.461 40.6111L112.693 42.3612L112.84 44.1102L112.902 45.8528L112.88 47.5838L112.775 49.2983L112.589 50.9911L112.323 52.6573L111.979 54.2921L111.56 55.8909L111.068 57.4493L110.507 58.9628L109.878 60.4275L109.186 61.8393L108.434 63.1948L107.626 64.4905L106.766 65.7232L105.858 66.8901L104.907 67.9887L103.918 69.0166L102.894 69.9719L101.841 70.8529L100.763 71.6583L99.6658 72.3871L98.5539 73.0386L97.4325 73.6124L96.3065 74.1086L95.181 74.5275L94.0608 74.8696L92.9509 75.1361L91.8561 75.328L90.7812 75.4472L89.7306 75.4955L88.709 75.4751L87.7205 75.3885L86.7694 75.2385L85.8595 75.0282L84.9946 74.7608L84.1782 74.44L83.4135 74.0695L82.7035 73.6533L82.0511 73.1955L81.4586 72.7005L80.9281 72.1727L80.4617 71.6169L80.0608 71.0377L79.7268 70.4399L79.4605 69.8285L79.2625 69.2084L79.1332 68.5846L79.0726 67.9621L79.0802 67.3458L79.1554 66.7406L79.2973 66.1516L79.5044 65.5834L79.7752 65.0408L80.1077 64.5283L80.4997 64.0503L80.9488 63.6113L81.4521 63.2152L82.0066 62.866L82.6091 62.5674L83.2559 62.3228L83.9433 62.1355L84.6674 62.0084L85.4241 61.9443L86.2091 61.9455L87.0178 62.0142L87.8458 62.1522L88.6882 62.361L89.5404 62.6418L90.3975 62.9954L91.2544 63.4225L92.1064 63.9232L92.9485 64.4974L93.7756 65.1446L94.5829 65.864L95.3657 66.6547L96.1189 67.515L96.8381 68.4433L97.5187 69.4375L98.1562 70.4953L98.7463 71.614L99.2849 72.7906L99.7682 74.022L100.193 75.3047L100.554 76.635L100.85 78.009L101.078 79.4225L101.233 80.8712L101.315 82.3506L101.321 83.856L101.249 85.3826L101.098 86.9255L100.865 88.4797L100.552 90.04L100.156 91.6014L99.6776 93.1587L99.1169 94.7066L98.4743 96.2399L97.7504 97.7536L96.9463 99.2424L96.0633 100.701L95.1031 102.126L94.0678 103.51L92.9595 104.851L91.7809 106.143L90.5349 107.381L89.2245 108.562L87.8531 109.682L86.4245 110.737L84.9423 111.724L83.4107 112.638L81.8339 113.478L80.2164 114.241L78.5628 114.924L76.8778 115.525L75.1662 116.043L73.4331 116.475L71.6835 116.822L69.9224 117.081L68.155 117.253L66.3865 117.337L64.622 117.334L62.8666 117.244L61.1255 117.068L59.4036 116.808L57.7058 116.464L56.0371 116.038L54.402 115.533L52.8051 114.952L51.2509 114.296L49.7434 113.569L48.2867 112.774L46.8846 111.915L45.5406 110.995L44.258 110.018L43.0399 108.989L41.8889 107.912L40.8077 106.792L39.7983 105.632L38.8627 104.438L38.0025 103.216L37.2188 101.969L36.5127 100.702L35.8847 99.4223L35.3352 98.1332L34.864 96.8404L34.4709 95.549L34.1551 94.264L33.9157 92.9904L33.7513 91.7332L33.6602 90.4972L33.6406 89.2871L33.6901 88.1074L33.8064 86.9625L33.9865 85.8566L34.2275 84.7938L34.526 83.7778L34.8785 82.8121L35.2814 81.9001L35.7305 81.0448L36.2218 80.249L36.7511 79.5152L37.3138 78.8456L37.9053 78.242L38.5211 77.706L39.1564 77.239L39.8062 76.8417L40.4658 76.5149L41.1303 76.2588L41.7946 76.0734L42.454 75.9582L43.1035 75.9125L43.7385 75.9353L44.3541 76.0253L44.9458 76.1808L45.509 76.3997L46.0395 76.6799L46.533 77.0186L46.9856 77.4132L47.3933 77.8605L47.7525 78.357L48.06 78.8993L48.3125 79.4835L48.5072 80.1055L48.6414 80.7612L48.7129 81.4462L48.7194 82.1559L48.6594 82.8857L48.5313 83.6308L48.334 84.3863L48.0667 85.1473L47.7288 85.9088L47.3203 86.6659L46.8412 87.4134L46.2921 88.1464L45.6738 88.8599L44.9873 89.549L44.2341 90.209L43.4159 90.835L42.5349 91.4225L41.5932 91.967L40.5937 92.4642L39.5391 92.9101L38.4327 93.3006L37.2778 93.6321L36.0781 93.9012L34.8375 94.1044L33.56 94.239L32.25 94.3023L30.9118 94.2916L29.55 94.2051L28.1693 94.0408L26.7746 93.7973L25.3707 93.4733L23.9627 93.0681L22.5556 92.581L21.1544 92.0119L19.7643 91.361L18.3903 90.6286L17.0374 89.8157L15.7106 88.9233L14.4147 87.9528L13.1547 86.9062L11.9351 85.7854L10.7606 84.5928L9.63546 83.3311L8.56395 82.0033L7.55008 80.6127L6.59767 79.1627L5.71032 77.657L4.89139 76.0997L4.14395 74.4949L3.47085 72.847L2.87464 71.1605L2.35758 69.4402L1.92165 67.6909L1.56849 65.9176L1.29945 64.1254L1.11556 62.3193L1.01751 60.5047L1.00569 58.6867L1.08012 56.8707L1.24054 55.0618L1.48632 53.2652L1.81654 51.4862L2.22994 49.7298L2.72494 48.0011L3.29966 46.3049L3.95193 44.646L4.67926 43.0289L5.47889 41.4581L6.34782 39.9379L7.28273 38.4722L8.28012 37.065L9.33622 35.7196L10.4471 34.4395L11.6085 33.2277L12.8162 32.087L14.0656 31.0198L15.3521 30.0283L16.6709 29.1143L18.0171 28.2794L19.3858 27.5249L20.7721 26.8516L22.1707 26.2601L23.5767 25.7505L24.9849 25.3229L26.3904 24.9767L27.7881 24.7112L29.1732 24.5254L30.5406 24.4177L31.8858 24.3864L33.204 24.4296L34.4908 24.5449L35.7419 24.7297L36.9532 24.981L38.1208 25.2957L39.2408 25.6704L40.31 26.1015L41.3249 26.585L42.2827 27.117L43.1806 27.6932L44.0162 28.3091L44.7874 28.9602L45.4923 29.6418L46.1295 30.3491L46.6977 31.0773L47.196 31.8213L47.6239 32.5762L47.9811 33.337L48.2677 34.0986L48.4841 34.8561L48.6311 35.6046L48.7097 36.339L48.7212 37.0547L48.6674 37.7469L48.5501 38.4111L48.3718 39.0428L48.1348 39.6378L47.8421 40.1919L47.4967 40.7014L47.1019 41.1625L46.6613 41.5718L46.1787 41.9262L45.6579 42.2227L45.1032 42.4586L44.5189 42.6317L43.9094 42.7398L43.2792 42.7812L42.6332 42.7545L41.976 42.6584L41.3126 42.4922L40.6477 42.2555L39.9863 41.9481L39.3333 41.5701L38.6935 41.1221L38.0719 40.6049L37.4732 40.0198L36.9022 39.3681L36.3633 38.6516L35.8612 37.8726L35.4 37.0334L34.9841 36.1366L34.6174 35.1853L34.3037 34.1828L34.0466 33.1324L33.8495 32.0379L33.7155 30.9033L33.6474 29.7327L33.6478 28.5305L33.7191 27.3011L33.8632 26.0492L34.082 24.7797L34.3767 23.4973L34.7485 22.2071L35.1982 20.9142L35.7263 19.6236L36.3328 18.3405L37.0175 17.07L37.78 15.8172L38.6194 14.5873L39.5345 13.3851L40.5238 12.2158L41.5855 11.084L42.7176 9.99451L43.9176 8.95193L45.1828 7.96062L46.5103 7.02483L47.8968 6.1486L49.3389 5.33572L50.8328 4.58979L52.3746 3.91414L53.9603 3.31185L55.5853 2.78572L57.2453 2.33828L58.9356 1.97173L60.6513 1.688L62.3877 1.48869L64.1397 1.37508L65.9022 1.34812L67.6701 1.40844L69.4383 1.55632L71.2016 1.79173L72.9549 2.11429L74.6931 2.52328L76.411 3.01767L78.1038 3.59609L79.7665 4.25685L81.3944 4.99795L82.9828 5.81708L84.5272 6.71165L86.0233 7.67876L87.4671 8.71526L88.8545 9.81774L90.182 10.9825L91.446 12.2057L92.6433 13.4832L93.7711 14.8107L94.8267 16.1838L95.8077 17.5977L96.712 19.0477L97.5379 20.5288L98.2839 22.0362L98.9489 23.5647L99.5321 25.1091L100.033 26.6643L100.451 28.2251L100.788 29.7862L101.042 31.3426L101.216 32.8891L101.309 34.4207L101.324 35.9324L101.263 37.4194L101.127 38.8769L100.92 40.3005L100.642 41.6857L100.298 43.0284L99.8906 44.3245L99.4231 45.5703L98.8992 46.7623L98.3228 47.8972L97.6979 48.9719L97.0287 49.9838L96.3197 50.9304L95.5753 51.8096L94.8002 52.6195L93.9991 53.3586L93.1769 54.0257L92.3384 54.6199L91.4887 55.1408L90.6326 55.588L89.7751 55.9617L88.9211 56.2624L88.0755 56.4909L87.2431 56.6481L86.4286 56.7357L85.6367 56.7552L84.8718 56.7088L84.1383 56.5987L83.4404 56.4276L82.7821 56.1984L82.1672 55.9143L81.5992 55.5786L81.0815 55.1949L80.6173 54.7673L80.2093 54.2996L79.8603 53.7961L79.5723 53.2613L79.3476 52.6997L79.1877 52.1158L79.0941 51.5146L79.0679 50.9009L79.1098 50.2796L79.2202 49.6557L79.3994 49.0341L79.647 48.4198L79.9626 47.8178L80.3452 47.233L80.7938 46.6703L81.3069 46.1343L81.8826 45.6299L82.5189 45.1615L83.2133 44.7334L83.9633 44.35L84.7658 44.0152L85.6178 43.7328L86.5157 43.5065L87.4559 43.3397L88.4345 43.2354L89.4475 43.1966L90.4906 43.2258L91.5593 43.3253L92.6491 43.4972L93.7553 43.7431L94.8732 44.0643L95.9977 44.4621L97.1241 44.937L98.2473 45.4896L99.3622 46.1198L100.464 46.8275L101.548 47.612L102.608 48.4724L103.64 49.4075L104.64 50.4156L105.602 51.495L106.522 52.6435L107.395 53.8584L108.218 55.1371L108.985 56.4765L109.694 57.8733L110.341 59.3239L110.921 60.8244L111.433 62.3709L111.872 63.959L112.237 65.5845L112.524 67.2426L112.732 68.9285L112.86 70.6375L112.904 72.3646L112.865 74.1045L112.742 75.8523L112.533 77.6026L112.239 79.3502L111.86 81.0899L111.397 82.8166L110.849 84.5249L110.219 86.2097L109.507 87.8661L108.716 89.4891L107.847 91.0738L106.903 92.6156L105.886 94.1099L104.799 95.5525L103.646 96.9391L102.43 98.2659L101.155 99.529L99.8235 100.725L98.441 101.851L97.0113 102.904L95.5389 103.881L94.0284 104.78L92.4845 105.599L90.9122 106.336L89.3163 106.99L87.702 107.559L86.0742 108.043L84.4381 108.442L82.7989 108.755L81.1615 108.983L79.5313 109.127L77.913 109.186L76.3119 109.163L74.7326 109.059L73.1799 108.876L71.6585 108.615L70.1729 108.281L68.7272 107.874L67.3257 107.399L65.9723 106.859L64.6706 106.256L63.424 105.596L62.2358 104.882L61.1088 104.117L60.0458 103.307L59.0492 102.456L58.1208 101.569L57.2627 100.65L56.4761 99.7045L55.7623 98.7371L55.122 97.7529L54.5557 96.757L54.0637 95.7545L53.6457 94.7504L53.3013 93.7499L53.0297 92.7577L52.8297 91.779L52.7 90.8184L52.6387 89.8808L52.6438 88.9707L52.713 88.0925L52.8437 87.2504L53.033 86.4487L53.2778 85.6911L53.5746 84.9812L53.92 84.3226L54.3101 83.7182L54.7408 83.1711L55.208 82.6838L55.7075 82.2587L56.2345 81.8978L56.7847 81.6028L57.3533 81.375L57.9355 81.2157L58.5264 81.1254L59.1213 81.1048L59.7151 81.1538L60.3031 81.2723L60.8803 81.4596L61.442 81.7149L61.9833 82.037L62.4997 82.4243L62.9865 82.8749L63.4394 83.3869L63.854 83.9576L64.2264 84.5845L64.5524 85.2644L64.8285 85.9941L65.0511 86.7702L65.2169 87.5888L65.3229 88.4461L65.3663 89.3378L65.3446 90.2597L65.2556 91.2072L65.0974 92.1757L64.8684 93.1605L64.5673 94.1567L64.193 95.1593L63.7449 96.1634L63.2226 97.1638L62.6262 98.1555L61.9559 99.1335L61.2123 100.093L60.3964 101.028L59.5095 101.935L58.5531 102.808L57.5291 103.643L56.4398 104.434L55.2875 105.179L54.0752 105.872L52.8057 106.509L51.4825 107.087L50.109 107.601L48.6891 108.048L47.2266 108.426L45.7259 108.73L44.1912 108.96L42.6272 109.111L41.0384 109.182L39.4296 109.172L37.8059 109.078L36.1721 108.901L34.5334 108.638L32.8948 108.29L31.2615 107.856L29.6386 107.337L28.0311 106.733L26.4443 106.046L24.8829 105.275L23.3521 104.423L21.8566 103.492L20.401 102.484L18.99 101.401L17.6279 100.246L16.319 99.0224L15.0672 97.7329L13.8764 96.3813L12.7501 94.9714L11.6916 93.5072L10.704 91.993L9.79022 90.4332L8.95261 88.8323L8.19347 87.1951L7.51469 85.5266L6.9179 83.8315L6.40439 82.1151L5.97514 80.3826L5.63079 78.639L5.37168 76.8896L5.19779 75.1397L5.10879 73.3945L5.10403 71.6592L5.18251 69.9389L5.34293 68.2387L5.58369 66.5635L5.90286 64.9181L6.29821 63.3074L6.76724 61.7357L7.30717 60.2074L7.91494 58.7267L8.58724 57.2976L9.32053 55.9238L10.111 54.6088L10.9548 53.3557L11.8477 52.1675L12.7853 51.0469L13.7631 49.9963L14.7766 49.0176L15.821 48.1128L16.8914 47.2832L17.983 46.5299L19.0907 45.8537L20.2096 45.2551L21.3347 44.7342L22.4609 44.2908L23.5834 43.9243L24.6971 43.6339L25.7972 43.4183L26.8789 43.2762L27.9377 43.2056L28.9691 43.2043L29.9686 43.2702L30.932 43.4003L31.8555 43.5917L32.7351 43.8413L33.5673 44.1454L34.3488 44.5005L35.0765 44.9026L35.7476 45.3476L36.3594 45.8313L36.9099 46.3491L37.3969 46.8965L37.8188 47.4688L38.1742 48.0612L38.4622 48.6688L38.682 49.2867L38.8331 49.9098L38.9156 50.5333L38.9297 51.1521L38.8759 51.7613L38.7552 52.356L38.5687 52.9314L38.318 53.4827L38.0049 54.0052L37.6315 54.4947L37.2003 54.9465L36.714 55.3567L36.1754 55.7213L35.5879 56.0364L34.9548 56.2986L34.2799 56.5045L33.567 56.651L32.8203 56.7355L32.0438 56.7553L31.2422 56.7083L30.4198 56.5926L29.5815 56.4065L28.7319 56.1487L27.8758 55.8184L27.0183 55.4147L26.1642 54.9375L25.3185 54.3867L24.486 53.7627L23.6719 53.0661L22.8808 52.298L22.1176 51.4597L21.387 50.5528L20.6937 49.5794L20.042 48.5416L19.4364 47.442L18.8809 46.2835L18.3795 45.0692L17.9361 43.8024L17.5541 42.4868L17.2368 41.1264L16.9873 39.725L16.8085 38.287L16.7028 36.8169L16.6725 35.3193L16.7195 33.7989L16.8455 32.2607L17.0518 30.7095L17.3395 29.1506L17.7091 27.5889L18.1612 26.0298L18.6956 24.4784L19.3122 22.9398L20.0104 21.4194L20.7891 19.922L21.6471 18.453L22.5829 17.0171L23.5945 15.6193L24.6798 14.2642L25.8363 12.9566L27.0611 11.7007L28.3514 10.5008L29.7037 9.36092L31.1146 8.28488L32.5801 7.27625L34.0964 6.33832L35.6593 5.47415L37.2643 4.68651L38.9069 3.97787L40.5825 3.35043L42.2861 2.80606L44.0129 2.34631L45.7578 1.97242L47.5158 1.68529L49.2818 1.4855L51.0505 1.3733L52.8168 1.34859L54.5756 1.41094L56.3219 1.5596L58.0504 1.79347L59.7564 2.11115L61.4349 2.5109L63.0812 2.99068L64.6907 3.54815L66.259 4.18067L67.7818 4.88534L69.2551 5.65896L70.675 6.49809L72.0379 7.39906L73.3404 8.35796L74.5794 9.37067L75.752 10.4329L76.8557 11.5402L77.8882 12.6878L78.8474 13.8712L79.7318 15.0852L80.54 16.3251L81.2709 17.5857L81.9238 18.862L82.4984 20.1487L82.9945 21.4409L83.4124 22.7333L83.7527 24.0209L84.0163 25.2987L84.2045 26.5616L84.3187 27.8049L84.3609 29.0238L84.3331 30.2136L84.2378 31.3701L84.0777 32.4888L83.8558 33.5658L83.5752 34.5971L83.2395 35.5792L82.8523 36.5087L82.4174 37.3823L81.9391 38.1973L81.4214 38.9511L80.8689 39.6414L80.286 40.2663L79.6774 40.8239L79.0479 41.313L78.4021 41.7326L77.7451 42.0819L77.0817 42.3605L76.4168 42.5684L75.7553 42.7059L75.1021 42.7737L74.462 42.7725L73.8397 42.7037L73.2399 42.5689L72.6671 42.37L72.1257 42.1091L71.62 41.7887L71.154 41.4115L70.7316 40.9807L70.3565 40.4995L70.0322 39.9714L69.7618 39.4001L69.5484 38.7897L69.3947 38.1442L69.303 37.4681L69.2756 36.7658L69.3142 36.0418L69.4205 35.3011L69.5957 34.5484L69.8406 33.7886L70.156 33.0267L70.542 32.2677L70.9986 31.5166L71.5255 30.7785L72.1219 30.0582L72.7868 29.3608L73.519 28.691L74.3166 28.0537L75.1779 27.4534L76.1005 26.8947L77.0819 26.382L78.1193 25.9193L79.2095 25.5108L80.3494 25.16L81.5352 24.8708L82.7632 24.6462L84.0294 24.4894L85.3295 24.4032L86.6593 24.39L88.0141 24.4522L89.3893 24.5915L90.78 24.8097L92.1815 25.1079L93.5888 25.4872L94.9967 25.9482L96.4003 26.4911L97.7945 27.116L99.1742 27.8225L100.534 28.6099L101.87 29.4771L103.176 30.4229L104.448 31.4455L105.681 32.5429L106.871 33.7129L108.012 34.9529L109.101 36.26L110.134 37.6309L111.106 39.0624L112.014 40.5508L112.855 42.0921L113.626 43.6822L114.323 45.3169L114.944 46.9916L115.487 48.7017L115.948 50.4422L116.328 52.2084L116.624 53.9952L116.835 55.7974L116.961 57.6099L117 59.4274L116.953 61.2446L116.82 63.0564L116.601 64.8574L116.298 66.6425L115.911 68.4067L115.442 70.1447L114.892 71.8518L114.264 73.5232L113.56 75.1541L112.784 76.74L111.936 78.2768L111.022 79.7603L110.044 81.1865L109.006 82.552L107.913 83.8532L106.767 85.0871L105.573 86.2507L104.337 87.3416L103.062 88.3575L101.753 89.2963L100.414 90.1565L99.0524 90.9367L97.6712 91.636L96.2759 92.2536L94.8717 92.7893L93.4637 93.243L92.0567 93.615L90.656 93.9061L89.2664 94.1172L87.8928 94.2496L86.5401 94.305L85.2128 94.2853L83.9155 94.1927L82.6525 94.0298L81.4281 93.7993L80.2462 93.5045L79.1107 93.1485L78.0249 92.7349L76.9924 92.2677L76.0161 91.7507L75.0989 91.1881L74.2432 90.5844L73.4513 89.944L72.725 89.2716L72.0661 88.5719L71.4759 87.8499L70.9552 87.1104L70.5048 86.3583L70.1251 85.5989L69.816 84.837L69.5773 84.0776L69.4083 83.3257L69.3081 82.5863L69.2754 81.8641L69.3086 81.164L69.4059 80.4904L69.565 79.8479L69.7836 79.2407L70.0589 78.6731L70.3878 78.149L70.7673 77.6721L71.1937 77.2459L71.6634 76.8737L72.1724 76.5585L72.7168 76.303L73.2921 76.1097L73.8941 75.9807L74.5182 75.9178L75.1597 75.9228L75.8138 75.9966L76.4758 76.1404L77.1408 76.3546L77.8038 76.6395L78.46 76.9951L79.1045 77.4208L79.7324 77.9161L80.3389 78.4798L80.9193 79.1105L81.4689 79.8065L81.9832 80.5658L82.4579 81.3862L82.8886 82.2649L83.2714 83.1991L83.6024 84.1857L83.8779 85.2213L84.0945 86.3021L84.2489 87.4244L84.3383 88.584L84.36 89.7766L84.3115 90.9978L84.1908 92.2431L83.996 93.5075L83.7256 94.7863L83.3784 96.0746L82.9536 97.3672L82.4505 98.6591L81.869 99.9451L81.2092 101.22L80.4714 102.479L79.6564 103.717L78.7652 104.928L77.7994 106.109L76.7605 107.253L75.6506 108.357L74.472 109.415L73.2272 110.423L71.9192 111.377L70.5511 112.272L69.1264 113.106L67.6485 113.873L66.1215 114.572L64.5494 115.198L62.9364 115.748L61.2871 116.221L59.6059 116.614L57.8978 116.924L56.1674 117.15L54.4199 117.291L52.6602 117.346L50.8934 117.313L49.1247 117.194L47.3593 116.986L45.6022 116.691L43.8587 116.31L42.1338 115.842L40.4324 115.29L38.7596 114.656L37.1202 113.94L35.5187 113.145L33.9598 112.275L32.4478 111.33L30.987 110.315L29.5812 109.234L28.2342 108.088L26.9497 106.883L25.7307 105.623L24.5805 104.31L23.5016 102.951L22.4967 101.55L21.5677 100.111L20.7167 98.6392L19.9451 97.1397L19.2542 95.6174L18.6448 94.0775L18.1177 92.5251L17.673 90.9656L17.3106 89.404L17.0302 87.8455L16.8311 86.2953L16.7122 84.7585L16.6721 83.2399L16.7092 81.7445L16.8214 80.2771L17.0067 78.8422L17.2623 77.4443L17.5854 76.0876L17.973 74.7763L18.4218 73.514L18.9281 72.3045L19.4882 71.1511L20.0981 70.0569L20.7537 69.0247L21.4505 68.0571L22.1841 67.1562L22.95 66.3241L23.7433 65.5623L24.5593 64.8722L25.3931 64.2546L26.2398 63.7104L27.0944 63.2397L27.952 62.8426L28.8077 62.5187L29.6565 62.2673L30.4936 62.0875L31.3143 61.978L32.1139 61.937L32.8878 61.9626L33.6318 62.0527L34.3415 62.2047L35.0128 62.4157L35.642 62.6827L36.2253 63.0023L36.7593 63.3711L37.2409 63.7852L37.6671 64.2406L38.0352 64.7331L38.3428 65.2584L38.5879 65.812L38.7686 66.3893L38.8834 66.9855L38.9312 67.5957L38.9111 68.2152L38.8225 68.8388L38.6652 69.4617L38.4394 70.0789L38.1454 70.6853L37.784 71.2761L37.3562 71.8464L36.8635 72.3914L36.3076 72.9063L35.6903 73.3867L35.0141 73.8281L34.2815 74.2262L33.4954 74.5769L32.6588 74.8764L31.7752 75.1209L30.848 75.307L29.8812 75.4315L28.8787 75.4915L27.8448 75.4842L26.7837 75.4073L25.7001 75.2587L24.5986 75.0366L23.484 74.7395L22.361 74.3662L21.2347 73.9159L20.1099 73.3881L18.9918 72.7826L17.8853 72.0995L16.7954 71.3394L15.7271 70.5031L14.6853 69.5916L13.6748 68.6065L12.7003 67.5496L11.7665 66.4229L10.8778 65.2288L10.0386 63.9701L9.25302 62.6497L8.525 61.2708L7.85829 59.837L7.25642 58.3519L6.72268 56.8197L6.26008 55.2443L5.8714 53.6303L5.55911 51.9821L5.32541 50.3044L5.1722 48.6022L5.10106 46.8804L5.11327 45.144L5.20979 43.3982L5.39124 41.6481L5.65793 39.8991L6.00983 38.1563L6.4466 36.4249L6.96755 34.7102L7.57168 33.0173L8.25767 31.3513L9.02386 29.7172L9.86833 28.1198L10.7888 26.5638L11.7828 25.0539L12.8474 23.5944L13.9796 22.1895L15.176 20.8433L16.433 19.5594L17.7468 18.3415L19.1134 17.1929L20.5285 16.1164L21.9878 15.115L23.4867 14.1909L25.0204 13.3463L26.5842 12.5831L28.1732 11.9027L29.7822 11.3063L31.4062 10.7948L33.0402 10.3688L34.679 10.0283L36.3175 9.77318L37.9506 9.60305L39.5732 9.51705L41.1803 9.51405L42.7671 9.59257L44.3288 9.75086L45.8606 9.98681L47.3581 10.2981L48.817 10.6819L50.2329 11.1354L51.6021 11.6554L52.9207 12.2384L54.1852 12.8807L55.3923 13.5783L56.5391 14.3272L57.6227 15.1231L58.6408 15.9615L59.5911 16.8378L60.4718 17.7472L61.2813 18.6849L62.0184 19.6459L62.6822 20.6253L63.272 21.618L63.7877 22.619L64.2292 23.6231L64.597 24.6253L64.8917 25.6207L65.1143 26.6042L65.2663 27.5711L65.3492 28.5165L65.365 29.4359L65.3159 30.3247L65.2045 31.1787L65.0336 31.9937L64.8061 32.7658L64.5255 33.4913L64.1951 34.1666L63.8189 34.7886L63.4006 35.3542L62.9446 35.8608L62.4549 36.3059L61.9362 36.6875L61.3928 37.0037L60.8296 37.253L60.2512 37.4343L59.6625 37.5466L59.0684 37.5894L58.4737 37.5626L57.8833 37.4662L57.3022 37.3007L56.7351 37.067L56.1867 36.766L55.6619 36.3993L55.1652 35.9686L54.701 35.4759L54.2737 34.9236L53.8875 34.3143L53.5462 33.651L53.2539 32.9367L53.0139 32.175L52.8297 31.3696L52.7043 30.5242L52.6407 29.6429L52.6414 28.7302L52.7087 27.7903L52.8446 26.828L53.0509 25.8478L53.329 24.8548L53.6799 23.8537L54.1044 22.8495L54.603 21.8474L55.1758 20.8524L55.8227 19.8694L56.543 18.9037L57.336 17.9602L58.2005 17.0439L59.1349 16.1596L60.1376 15.3121L61.2064 14.5061L62.3389 13.746L63.5324 13.0362L64.784 12.3808L66.0905 11.7839L67.4483 11.2491L68.8539 10.78L70.3033 10.3799L71.7923 10.0517L73.3166 9.79827L74.8718 9.62195L76.4532 9.52493L78.0561 9.50906L79.6756 9.57588L81.3068 9.7266L82.9444 9.96211L84.5836 10.283L86.2192 10.6894L87.846 11.1813L89.4589 11.7582L91.0529 12.4194L92.6229 13.1637L94.164 13.9898L95.6713 14.8958L97.1401 15.8797L98.5657 16.9391L99.9439 18.0714L101.27 19.2737L102.541 20.5427L103.751 21.8749L104.898 23.2667L105.979 24.714L106.989 26.2127L107.927 27.7585L108.789 29.3468L109.573 30.9729L110.278 32.6321L110.901 34.3192L111.441 36.0293L111.897 37.7573L112.269 39.498L112.555 41.2461L112.756 42.9964L112.872 44.7436L112.904 46.4826L112.852 48.2083L112.717 49.9154L112.502 51.5991L112.207 53.2545L111.836 54.8768L111.39 56.4614L110.872 58.004L110.286 59.5002L109.634 60.9462L108.92 62.338L108.147 63.6721L107.32 64.9453L106.442 66.1545L105.518 67.2969L104.553 68.37L103.55 69.3718L102.515 70.3003L101.452 71.154L100.367 71.9317L99.2637 72.6325L98.1478 73.2558L97.0241 73.8015L95.8977 74.2696L94.7735 74.6605L93.6565 74.975L92.5516 75.2143L91.4634 75.3796L90.3968 75.4728L89.3563 75.4959L88.3462 75.4511L87.3708 75.3412L86.4342 75.1689L85.5402 74.9375L84.6925 74.6504L83.8945 74.3111L83.1493 73.9235L82.46 73.4917L81.829 73.0199L81.2587 72.5125L80.7514 71.974L80.3086 71.4091L79.9318 70.8226L79.6222 70.2193L79.3807 69.6042L79.2076 68.9822L79.1033 68.3582L79.0675 67.7374L79.0997 67.1246L79.1993 66.5247L79.365 65.9427L79.5954 65.3832L79.8888 64.851L80.2432 64.3506L80.6563 63.8863L81.1254 63.4624L81.6476 63.0828L82.2199 62.7516L82.8389 62.4722L83.5009 62.248L84.2021 62.0822L84.9385 61.9777L85.706 61.937L86.5001 61.9625L87.3163 62.0562L88.1501 62.2197L88.9967 62.4545L89.8512 62.7617L90.7087 63.1419L91.5645 63.5957L92.4134 64.1231L93.2506 64.7238L94.0712 65.3974L94.8701 66.1428L95.6427 66.9589L96.3842 67.8442L97.0898 68.7967L97.7553 69.8142L98.376 70.8944L98.9479 72.0345L99.4669 73.2314L99.9292 74.4818L100.331 75.7822L100.669 77.1289L100.941 78.5177L101.142 79.9444L101.272 81.4048L101.326 82.8942L101.304 84.4078L101.203 85.9409L101.023 87.4885L100.761 89.0455L100.418 90.6069L99.9918 92.1673L99.4836 93.7218L98.8931 95.265L98.2209 96.7918L97.4677 98.2971L96.6348 99.7757L95.7236 101.223L94.7359 102.633L93.6739 104.002L92.5398 105.326L91.3364 106.598L90.0666 107.817L88.7336 108.976L87.3411 110.073L85.8925 111.103L84.3919 112.064L82.8434 112.952L81.2513 113.764L79.6202 114.498L77.9546 115.152L76.2594 115.723L74.5394 116.21L72.7997 116.611L71.0454 116.926L69.2814 117.154L67.513 117.294L65.7453 117.346L63.9836 117.312L62.2328 117.19L60.498 116.983L58.7843 116.692L57.0966 116.318L55.4395 115.864L53.8178 115.331L52.2359 114.722L50.6981 114.04L49.2086 113.288L47.7713 112.469L46.3899 111.588L45.0678 110.647L43.8083 109.651L42.6143 108.604L41.4883 107.51L40.4329 106.375L39.4502 105.203L38.5417 103.998L37.7091 102.766L36.9535 101.511L36.2757 100.239L35.6762 98.9552L35.1551 97.6642L34.7124 96.3713L34.3474 95.0816L34.0595 93.8002L33.8474 92.532L33.7098 91.2819L33.6449 90.0548L33.6507 88.8552L33.7248 87.6876L33.8645 86.5564L34.0671 85.4657L34.3294 84.4194L34.6479 83.4213L35.0191 82.4747L35.4392 81.583L35.9042 80.749L36.4098 79.9754L36.9517 79.2646L37.5254 78.6188L38.1263 78.0396L38.7497 77.5285L39.3908 77.0867L40.0448 76.715L40.7067 76.4138L41.3716 76.1834L42.0347 76.0235L42.6911 75.9336L43.3359 75.9129L43.9644 75.9603L44.5718 76.0743L45.1537 76.253L45.7056 76.4944L46.2231 76.7962L46.7022 77.1556L47.1389 77.5696L47.5294 78.0352L47.8703 78.5488L48.1582 79.1067L48.39 79.7051L48.5631 80.3399L48.6747 81.0067L48.7229 81.7012L48.7054 82.4187L48.6208 83.1546L48.4677 83.9041L48.2451 84.6621L47.9522 85.4239L47.5887 86.1844L47.1546 86.9385L46.65 87.6813L46.0757 88.4078L45.4324 89.1131L44.7215 89.7922L43.9445 90.4403L43.1033 91.0529L42.2 91.6253L41.237 92.1532L40.2171 92.6322L39.1434 93.0584L38.0189 93.428L36.8474 93.7372L35.6324 93.9827L34.3779 94.1614L33.0881 94.2704L31.7673 94.3071L30.42 94.2691L29.0508 94.1545L27.6645 93.9616L26.2658 93.689L24.8599 93.3357L23.4516 92.9008L22.0461 92.3839L20.6484 91.7851L19.2635 91.1046L17.8965 90.3429L16.5525 89.5009L15.2364 88.58L13.953 87.5817L12.7072 86.5079L11.5034 85.3607L10.3463 84.1427L9.24015 82.8567L8.18911 81.5057L7.19711 80.0931L6.26792 78.6224L5.40502 77.0976L4.61169 75.5225L3.89092 73.9015L3.24545 72.2391L2.67772 70.5398L2.1899 68.8084L1.78383 67.0498L1.46106 65.2691L1.22282 63.4712L1.07002 61.6615L1.00324 59.845L1.02274 58.0271L1.12843 56.213L1.31991 54.408L1.59647 52.6173L1.95704 50.8459L2.40025 49.099L2.92442 47.3815L3.52756 45.6983L4.20736 44.054L4.96127 42.4532L5.78642 40.9003L6.67968 39.3994L7.63769 37.9546L8.65684 36.5694L9.73328 35.2473L10.863 33.9917L12.0417 32.8054L13.265 31.691L14.5285 30.6511L15.8272 29.6875L17.1565 28.8021L18.5115 27.9963L19.8872 27.2711L21.2785 26.6274L22.6804 26.0656L24.0878 25.5859L25.4956 25.1879L26.8989 24.8711L28.2925 24.6346L29.6717 24.4773L31.0316 24.3976L32.3675 24.3936L33.6749 24.4633L34.9492 24.6041L36.1864 24.8133L37.3822 25.088L38.533 25.4249L39.6349 25.8205L40.6847 26.2711L41.6793 26.7727L42.6156 27.3212L43.4912 27.9123L44.3036 28.5416L45.051 29.2043L45.7315 29.8958L46.3437 30.6112L46.8866 31.3457L47.3594 32.0943L47.7617 32.8519L48.0932 33.6136L48.3543 34.3743L48.5454 35.1291L48.6675 35.873L48.7215 36.6012L48.7091 37.3089L48.632 37.9915L48.4923 38.6443L48.2924 39.2632L48.0349 39.8438L47.7227 40.3822L47.359 40.8745L46.9471 41.3172L46.4908 41.707L45.9938 42.0406L45.4603 42.3155L44.8943 42.5288L44.3003 42.6786L43.6828 42.7626L43.0464 42.7794L42.3957 42.7277L41.7357 42.6062L41.0712 42.4145L40.407 42.1521L39.7481 41.819L39.0993 41.4156L38.4656 40.9424L37.8518 40.4003L37.2625 39.7908L36.7026 39.1154L36.1766 38.376L35.6888 37.5748L35.2436 36.7144L34.8451 35.7975L34.4972 34.8272L34.2037 33.8069L33.968 32.7401L33.7934 31.6306L33.683 30.4824L33.6395 29.2998L33.6654 28.0872L33.7629 26.8491L33.9339 25.5903L34.1801 24.3155L34.5027 23.0297L34.9027 21.7379L35.3808 20.4453L35.9373 19.1568L36.5722 17.8777L37.2853 16.613L38.0758 15.3679L38.9428 14.1475L39.885 12.9567L40.9008 11.8004L41.9884 10.6834L43.1454 9.61046L44.3694 8.58599L45.6575 7.61435L47.0068 6.69972L48.4139 5.84605L49.8753 5.05707L51.3871 4.33627L52.9453 3.68691L54.5457 3.11195L56.184 2.61411L57.8555 2.19578L59.5556 1.85909L61.2794 1.60583L63.022 1.43749L64.7784 1.35524L66.5435 1.3599L68.3121 1.45198L70.0791 1.63166L71.8394 1.89876L73.5878 2.25279L75.3192 2.69291L77.0286 3.21797L78.711 3.82648L80.3616 4.51665L81.9757 5.28635L83.5486 6.13318L85.076 7.05442L86.5536 8.0471L87.9773 9.10796L89.3434 10.2335L90.6482 11.4199L91.8884 12.6633L93.0608 13.9595L94.1627 15.304L95.1915 16.6924L96.1448 18.12L97.0209 19.5819L97.8179 21.0732L98.5347 22.5888L99.1701 24.1236L99.7234 25.6726L100.194 27.2304L100.583 28.7919L100.889 30.3519L101.114 31.9053L101.259 33.447L101.324 34.9719L101.311 36.4752L101.222 37.952L101.06 39.3977L100.827 40.8079L100.525 42.1782L100.157 43.5044L99.7277 44.7827L99.2393 46.0093L98.6959 47.181L98.1014 48.2943L97.4599 49.3466L96.7758 50.335L96.0534 51.2574L95.2973 52.1116L94.5122 52.896L93.7029 53.6091L92.8742 54.2498L92.0311 54.8175L91.1785 55.3116L90.3213 55.7321L89.4645 56.0793L88.6129 56.3537L87.7716 56.5561L86.9451 56.6879L86.1383 56.7505L85.3557 56.7459L84.6017 56.676L83.8807 56.5435L83.1967 56.351L82.5537 56.1015L81.9554 55.7982L81.4053 55.4447L80.9067 55.0446L80.4626 54.6019L80.0757 54.1208L79.7486 53.6054L79.4834 53.0603L79.282 52.4901L79.146 51.8994L79.0768 51.2931L79.0752 50.6761L79.1419 50.0532L79.2773 49.4295L79.4813 48.81L79.7537 48.1996L80.0937 47.6033L80.5005 47.0259L80.9727 46.4724L81.5087 45.9474L82.1066 45.4555L82.7643 45.0012L83.4792 44.5889L84.2486 44.2226L85.0695 43.9064L85.9386 43.644L86.8523 43.4389L87.8069 43.2945L88.7984 43.2136L89.8228 43.1992L90.8757 43.2537L91.9526 43.3792L93.0489 43.5778L94.1599 43.8509L95.2808 44.1998L96.4066 44.6255L97.5324 45.1286L98.6531 45.7094L99.7639 46.3677L100.86 47.1034L101.935 47.9155L102.986 48.8032L104.007 49.765L104.994 50.7993L105.941 51.904L106.844 53.0769L107.7 54.3153L108.503 55.6164L109.25 56.977L109.936 58.3938L110.559 59.8629L111.115 61.3806L111.601 62.9427L112.013 64.5449L112.35 66.1827L112.609 67.8515L112.788 69.5464L112.885 71.2625L112.9 72.9948L112.83 74.7382L112.676 76.4875L112.436 78.2374L112.112 79.9828L111.702 81.7184L111.208 83.439L110.63 85.1393L109.97 86.8145L109.229 88.4593L108.409 90.0689L107.513 91.6386L106.542 93.1636L105.499 94.6397L104.388 96.0624L103.212 97.4277L101.974 98.7318L100.678 99.9711L99.3275 101.142L97.9273 102.242L96.4816 103.268L94.9948 104.217L93.4717 105.087L91.9169 105.876L90.3355 106.583L88.7323 107.206L87.1125 107.745L85.4811 108.198L83.8433 108.566L82.2041 108.848L80.5688 109.045L78.9423 109.158L77.3297 109.187L75.7359 109.134L74.1657 109.001L72.6239 108.79L71.115 108.502L69.6433 108.141L68.2133 107.71L66.8288 107.21L65.4937 106.647L64.2116 106.023L62.9858 105.343L61.8195 104.61L60.7155 103.828L59.6763 103.003L58.7042 102.138L57.8012 101.239L56.9688 100.31L56.2086 99.3557L55.5213 98.3816L54.9079 97.3925L54.3686 96.3937L53.9035 95.39L53.5123 94.3866L53.1944 93.3885L52.9489 92.4007L52.7746 91.428L52.6699 90.4752L52.633 89.5471L52.6616 88.648L52.7535 87.7825L52.9058 86.9546L53.1156 86.1684L53.3797 85.4277L53.6946 84.7361L54.0566 84.0968L54.4619 83.5129L54.9064 82.9872L55.3858 82.5223L55.8958 82.1202L56.4318 81.783L56.9892 81.5122L57.5633 81.3092L58.1492 81.1749L58.7421 81.1099L59.3372 81.1145L59.9294 81.1888L60.5141 81.3323L61.0862 81.5444L61.641 81.8241L62.1738 82.1701L62.68 82.5806L63.155 83.0538L63.5945 83.5874L63.9943 84.1788L64.3503 84.8253L64.6586 85.5237L64.9157 86.2706L65.118 87.0626L65.2624 87.8957L65.346 88.7659L65.366 89.6691L65.3202 90.6008L65.2063 91.5565L65.0226 92.5315L64.7675 93.521L64.4399 94.5201L64.0389 95.5238L63.5639 96.5271L63.0147 97.525L62.3914 98.5123L61.6944 99.484L60.9245 100.435L60.0826 101.361L59.1703 102.256L58.1891 103.115L57.1412 103.935L56.0287 104.71L54.8543 105.437L53.6209 106.11L52.3315 106.726L50.9896 107.281L49.5988 107.771L48.163 108.194L46.6862 108.545L45.1726 108.822L43.6267 109.024L42.0531 109.146L40.4565 109.188L38.8418 109.148L37.2138 109.024L35.5777 108.815L33.9384 108.522L32.3012 108.143L30.671 107.678L29.0531 107.128L27.4526 106.493L25.8744 105.776L24.3236 104.975L22.805 104.095L21.3234 103.135L19.8835 102.1L18.4898 100.99L17.1465 99.8099L15.8578 98.5618L14.6277 97.2493L13.4599 95.8761L12.3579 94.446L11.3248 92.9632L10.3637 91.4319L9.47729 89.8567L8.66792 88.2421L7.93773 86.5929L7.28854 84.9142L6.72184 83.2108L6.23882 81.4879L5.84032 79.7507L5.52689 78.0044L5.29872 76.2543L5.1557 74.5055L5.09737 72.7633L5.12295 71.0328L5.23134 69.3193L5.42112 67.6275L5.69058 65.9626L6.03767 64.3293L6.46007 62.7322L6.95516 61.1757L7.52008 59.6643L8.15166 58.2019L8.84652 56.7925L9.60102 55.4396L10.4113 54.1466L11.2734 52.9168L12.183 51.7528L13.1358 50.6574L14.1271 49.6327L15.1523 48.6806L16.2067 47.8029L17.2854 47.0009L18.3834 46.2755L19.4958 45.6275L20.6175 45.0571L21.7436 44.5643L22.869 44.1489L23.9888 43.8101L25.0981 43.5471L26.1921 43.3583L27.2661 43.2424L28.3155 43.1972L29.3357 43.2206L30.3226 43.3101L31.272 43.4628L32.18 43.6757L33.0428 43.9455L33.857 44.2686L34.6193 44.6412L35.3268 45.0594L35.9766 45.5189L36.5664 46.0155L37.094 46.5446L37.5576 47.1016L37.9555 47.6817L38.2866 48.2802L38.5499 48.8921L38.7448 49.5125L38.871 50.1363L38.9286 50.7587L38.918 51.3746L38.8398 51.9791L38.695 52.5673L38.485 53.1345L38.2114 53.6759L37.8762 54.1869L37.4816 54.6632L37.03 55.1005L36.5244 55.4945L35.9677 55.8416L35.3632 56.1379L34.7145 56.38L34.0254 56.5647L33.2997 56.689L32.5417 56.7503L31.7556 56.7461L30.9459 56.6744L30.1172 56.5333L29.2742 56.3213L28.4217 56.0373L27.5645 55.6804L26.7077 55.25L25.856 54.7461L25.0145 54.1687L24.1882 53.5182L23.3818 52.7956L22.6003 52.0018L21.8484 51.1384L21.1309 50.2071L20.4521 49.21L19.8167 48.1495L19.2288 47.0282L18.6925 45.849L18.2117 44.6153L17.7901 43.3304L17.4313 41.9981L17.1383 40.6222L16.9141 39.2071L16.7615 37.7569L16.683 36.2763L16.6805 34.7699L16.756 33.2424L16.9111 31.6989L17.1468 30.1444L17.4641 28.5838L17.8637 27.0225L18.3456 25.4656L18.91 23.9182L19.5562 22.3856L20.2837 20.873L21.0914 19.3853L21.9778 17.9277L22.9414 16.5051L23.98 15.1223L25.0914 13.7839L26.2731 12.4945L27.522 11.2585L28.8352 10.0799L30.2092 8.96281L31.6403 7.91084L33.1248 6.9275L34.6585 6.016L36.2372 5.1793L37.8564 4.42006L39.5115 3.74066L41.1978 3.14317L42.9104 2.62934L44.6444 2.20063L46.3946 1.85814L48.1561 1.60266L49.9236 1.43465L51.6921 1.35423L53.4563 1.36119L55.2111 1.45497L56.9515 1.6347L58.6725 1.89916L60.369 2.24684L62.0364 2.67589L63.6699 3.18416L65.2649 3.76919L66.8172 4.42825L68.3225 5.15832L69.7768 5.95613L71.1764 6.81814L72.5178 7.74059L73.7976 8.71951L75.0128 9.75071L76.1607 10.8298L77.2387 11.9523L78.2449 13.1134L79.1772 14.3085L80.034 15.5325L80.8143 16.7805L81.5169 18.0474L82.1414 19.328L82.6875 20.6174L83.1552 21.9102L83.5448 23.2015L83.8572 24.4861L84.0932 25.759L84.2544 27.0154L84.3422 28.2503L84.3588 29.4592L84.3062 30.6374L84.187 31.7807L84.0041 32.8847L83.7605 33.9456L83.4595 34.9594L83.1047 35.9228L82.6997 36.8323L82.2486 37.685L81.7555 38.4781L81.2247 39.2091L80.6606 39.8759L80.0679 40.4765L79.4511 41.0094L78.8151 41.4734L78.1647 41.8675L77.5048 42.1912L76.8403 42.4441L76.1761 42.6265L75.517 42.7385L74.868 42.7811L74.2338 42.7553L73.6192 42.6624L73.0286 42.504L72.4668 42.2823L71.9378 41.9995L71.4461 41.6582L70.9955 41.2612L70.5898 40.8117L70.2328 40.313L69.9277 39.7688L69.6776 39.1829L69.4856 38.5592L69.3541 37.9021L69.2855 37.216L69.2819 36.5053L69.3449 35.7747L69.4761 35.0291L69.6765 34.2732L69.9469 33.512L70.2879 32.7506L70.6996 31.9939L71.1817 31.2469L71.7339 30.5147L72.3554 29.8022L73.0449 29.1142L73.801 28.4557L74.622 27.8313L75.5058 27.2456L76.45 26.7031L77.4521 26.2081L78.509 25.7646L79.6177 25.3766L80.7746 25.0478L81.9762 24.7816L83.2186 24.5813L84.4976 24.4498L85.809 24.3899L87.1483 24.4038L88.5111 24.4938L89.8925 24.6615L91.2877 24.9086L92.6919 25.2362L94.0999 25.645L95.5069 26.1357L96.9077 26.7085L98.2972 27.363L99.6704 28.099L101.022 28.9155L102.348 29.8114L103.642 30.7852L104.9 31.8352L106.118 32.9593L107.291 34.155L108.413 35.4197L109.482 36.7503L110.494 38.1437L111.443 39.5963L112.328 41.1043L113.143 42.6638L113.888 44.2706L114.557 45.9203L115.15 47.6084L115.664 49.3301L116.096 51.0806L116.445 52.8548L116.711 54.6478L116.891 56.4543L116.985 58.2692L116.993 60.0872L116.915 61.9031L116.75 63.7115L116.501 65.5074L116.167 67.2855L115.75 69.0408L115.251 70.7681L114.673 72.4628L114.017 74.12L113.287 75.7351L112.484 77.3037L111.612 78.8216L110.674 80.2847L109.674 81.6893L108.616 83.0318L107.502 84.309L106.339 85.5177L105.129 86.6552L103.878 87.7191L102.59 88.7072L101.27 89.6177L99.9226 90.449L98.553 91.1999L97.1662 91.8696L95.7671 92.4575L94.3609 92.9634L92.9526 93.3874L91.5474 93.73L90.1501 93.9919L88.7658 94.1743L87.3992 94.2785L86.0552 94.3064L84.7383 94.26L83.4529 94.1416L82.2035 93.9538L80.994 93.6996L79.8285 93.3821L78.7107 93.0048L77.6439 92.5714L76.6314 92.0855L75.6763 91.5515L74.7811 90.9735L73.9483 90.3559L73.18 89.7034L72.478 89.0205L71.8439 88.3122L71.2788 87.5832L70.7836 86.8386L70.3589 86.0833L70.0048 85.3224L69.7213 84.5608L69.508 83.8036L69.3641 83.0557L69.2885 82.322L69.2799 81.6072L69.3366 80.9162L69.4566 80.2533L69.6376 79.6232L69.8771 79.0299L70.1722 78.4777L70.5199 77.9703L70.9168 77.5114L71.3593 77.1045L71.8438 76.7526L72.3661 76.4587L72.9222 76.2255L73.5078 76.0553L74.1183 75.9501L74.7492 75.9117L75.3959 75.9415L76.0534 76.0407L76.717 76.21L77.3819 76.4498L78.043 76.7604L78.6955 77.1415L79.3346 77.5926L79.9552 78.1128L80.5528 78.701L81.1226 79.3556L81.6599 80.0749L82.1603 80.8566L82.6195 81.6985L83.0333 82.5977L83.3977 83.5513L83.709 84.5561L83.9635 85.6085L84.1579 86.7049L84.289 87.8411L84.3542 89.0132L84.3506 90.2168L84.2762 91.4472L84.1287 92.7L83.9066 93.9702L83.6085 95.253L83.2332 96.5435L82.7801 97.8364L82.2485 99.1268L81.6386 100.409L80.9504 101.679L80.1844 102.931L79.3417 104.16L78.4233 105.361L77.4307 106.529L76.3658 107.659L75.2306 108.746L74.0277 109.786L72.7597 110.775L71.4295 111.709L70.0404 112.582L68.5959 113.392L67.0998 114.135L65.5559 114.807L63.9685 115.406L62.3418 115.929L60.6803 116.373L58.9888 116.736L57.2721 117.016L55.5349 117.211L53.7823 117.321L52.0195 117.344L50.2514 117.28L48.4833 117.128L46.7203 116.889L44.9676 116.563L43.2302 116.15L41.5133 115.652L39.8218 115.07L38.1605 114.405L36.5343 113.661L34.9478 112.838L33.4054 111.94L31.9115 110.97L30.4702 109.93L29.0853 108.825L27.7606 107.658L26.4995 106.432L25.3052 105.152L24.1805 103.822L23.1282 102.447L22.1506 101.032L21.2497 99.5804L20.4274 98.0979L19.6849 96.5895L19.0235 95.0603L18.444 93.5152L17.9467 91.9597L17.532 90.3988L17.1994 88.8377L16.9486 87.2817L16.7787 85.7357L16.6886 84.2049L16.6767 82.6943L16.7413 81.2085L16.8804 79.7523L17.0914 78.3304L17.3719 76.9469L17.7188 75.6063L18.129 74.3123L18.5991 73.0688L19.1254 71.8793L19.704 70.747L20.331 69.675L21.002 68.666L21.7127 67.7223L22.4586 66.8462L23.235 66.0394L24.0371 65.3035L24.8601 64.6396L25.6992 64.0486L26.5493 63.531L27.4056 63.087L28.263 62.7166L29.1168 62.4191L29.9619 62.1939L30.7936 62.0397L31.6072 61.9552L32.398 61.9387L33.1615 61.988L33.8935 62.1009L34.5898 62.2746L35.2462 62.5063L35.8592 62.7928L36.425 63.1307L36.9403 63.5164L37.4021 63.9459L37.8075 64.4153L38.1539 64.9202L38.4391 65.4563L38.661 66.0191L38.8179 66.6037L38.9086 67.2056L38.9318 67.8197L38.8869 68.4413L38.7734 69.0652L38.5912 69.6866L38.3405 70.3005L38.0219 70.9018L37.6363 71.4857L37.1848 72.0474L36.6689 72.582L36.0905 73.0849L35.4516 73.5516L34.7546 73.9778L34.0023 74.3592L33.1974 74.6917L32.3434 74.9717L31.4435 75.1954L30.5015 75.3595L29.5212 75.4609L28.5069 75.4968L27.4626 75.4645L26.3928 75.3618L25.3022 75.1867L24.1953 74.9375L23.0771 74.6128L21.9523 74.2117L20.826 73.7333L19.7031 73.1773L18.5886 72.5436L17.4876 71.8325L16.4049 71.0446L15.3457 70.1809L14.3147 69.2425L13.3167 68.2311L12.3564 67.1486L11.4385 65.9972L10.5673 64.7793L9.74708 63.4979L8.98194 62.1558L8.27575 60.7566L7.63218 59.3037L7.05467 57.8011L6.54641 56.2526L6.11033 54.6627L5.7491 53.0358L5.4651 51.3764L5.26041 49.6892L5.13682 47.9793L5.0958 46.2516L5.13852 44.5112L5.2658 42.7632L5.47817 41.013L5.77581 39.2656L6.15857 37.5263L6.62599 35.8004L7.17726 34.093L7.81127 32.4093L8.52657 30.7543L9.32142 29.1329L10.1937 27.55L11.1412 26.0102L12.1611 24.5181L13.2507 23.0779L14.4065 21.6939L15.6254 20.3699L16.9035 19.1096L18.2369 17.9165L19.6216 16.7937L21.0533 15.7442L22.5275 14.7705L24.0396 13.8751L25.5848 13.0598L27.1583 12.3265L28.7551 11.6765L30.3701 11.1108L31.9984 10.6303L33.6347 10.2353L35.274 9.92582L36.9111 9.70164L38.541 9.56216L40.1585 9.50643L41.7589 9.53321L43.3371 9.64091L44.8884 9.82764L46.4083 10.0912L47.8923 10.4291L49.3361 10.8386L50.7355 11.3166L52.0867 11.8599L53.3861 12.4648L54.6301 13.1277L55.8157 13.8444L56.9398 14.6109L57.9999 15.4227L58.9936 16.2754L59.9189 17.1643L60.7739 18.0845L61.5572 19.0312L62.2678 19.9995L62.9048 20.9843L63.4678 21.9806L63.9565 22.9833L64.3712 23.9873L64.7123 24.9876L64.9808 25.9793L65.1776 26.9573L65.3043 27.917L65.3626 28.8535L65.3546 29.7623L65.2826 30.6389L65.1492 31.4793L64.9574 32.2791L64.7102 33.0347L64.4111 33.7423L64.0637 34.3987L63.6717 35.0005L63.2393 35.545L62.7705 36.0296L62.2698 36.4519L61.7416 36.8099L61.1904 37.102L60.6212 37.3267L60.0385 37.483L59.4473 37.5702L58.8524 37.5877L58.2587 37.5356L57.6711 37.4141L57.0945 37.2237L56.5336 36.9654L55.9933 36.6404L55.4781 36.2503L54.9927 35.7968L54.5414 35.2822L54.1286 34.7089L53.7582 34.0796L53.4343 33.3974L53.1605 32.6656L52.9404 31.8876L52.7772 31.0671L52.6739 30.2083L52.6334 29.3151L52.658 28.392L52.75 27.4434L52.9113 26.4741L53.1435 25.4887L53.4479 24.4921L53.8254 23.4893L54.2768 22.4853L54.8023 21.4852L55.4021 20.494L56.0757 19.5167L56.8225 18.5585L57.6416 17.6243L58.5316 16.719L59.4911 15.8475L60.518 15.0145L61.6102 14.2247L62.7651 13.4823L63.9801 12.7918L65.252 12.1572L66.5775 11.5824L67.9531 11.0711L69.3751 10.6267L70.8393 10.2523L72.3416 9.95098L73.8777 9.72524L75.443 9.57746L77.0328 9.5097L78.6423 9.52368L80.2666 9.62083L81.9006 9.80224L83.5395 10.0687L85.1779 10.4206L86.8109 10.8581L88.4332 11.3809L90.0399 11.9885L91.6257 12.68L93.1858 13.4542L94.7152 14.3094L96.209 15.244L97.6627 16.2556L99.0716 17.3418L100.431 18.4999L101.738 19.7267L102.987 21.0191L104.175 22.3734L105.299 23.7857L106.354 25.2522L107.338 26.7685L108.249 28.3303L109.083 29.9329L109.838 31.5715L110.514 33.2414L111.107 34.9375L111.617 36.6547L112.042 38.3879L112.383 40.1319L112.638 41.8813L112.808 43.6311L112.893 45.376L112.894 47.1107L112.812 48.8303L112.648 50.5295L112.404 52.2035L112.081 53.8474L111.683 55.4565L111.21 57.0264L110.667 58.5526L110.057 60.0311L109.382 61.4578L108.646 62.8291L107.853 64.1414L107.007 65.3917L106.112 66.5769L105.172 67.6945L104.193 68.742L103.178 69.7173L102.132 70.6188L101.061 71.4451L99.9682 72.195L98.8599 72.8677L97.7406 73.4629L96.6153 73.9803L95.4892 74.4203L94.367 74.7834L93.2539 75.0705L92.1545 75.2827L91.0736 75.4217L90.0159 75.4892L88.9859 75.4873L87.9879 75.4186L87.0262 75.2857L86.1046 75.0916L85.227 74.8396L84.397 74.5331L83.6178 74.1758L82.8925 73.7717L82.2241 73.3249L81.6149 72.8396L81.0672 72.3204L80.5831 71.7718L80.1641 71.1985L79.8116 70.6053L79.5267 69.9972L79.3099 69.379L79.1618 68.7557L79.0824 68.1323L79.0713 67.5138L79.1281 66.9051L79.2518 66.3112L79.4412 65.7368L79.6947 65.1867L80.0105 64.6655L80.3865 64.1777L80.8202 63.7275L81.3089 63.3193L81.8497 62.9568L82.4393 62.644L83.0743 62.3843L83.751 62.181L84.4655 62.0371L85.2137 61.9554L85.9914 61.9385L86.794 61.9885L87.6172 62.1074L88.4561 62.2966L89.3061 62.5576L90.1623 62.8912L91.0198 63.2981L91.8737 63.7786L92.7189 64.3327L93.5506 64.9599L94.3639 65.6597L95.1538 66.4309L95.9156 67.2723L96.6446 68.1822L97.3362 69.1586L97.9859 70.1992L98.5895 71.3014L99.1426 72.4625L99.6415 73.6792L100.082 74.9482L100.462 76.2659L100.776 77.6283L101.022 79.0313L101.198 80.4708L101.3 81.9423L101.327 83.441L101.277 84.9623L101.147 86.5012L100.937 88.0528L100.646 89.612L100.273 91.1736L99.8169 92.7325L99.2788 94.2835L98.6586 95.8213L97.9568 97.3409L97.1746 98.837L96.3131 100.305L95.3739 101.739L94.3589 103.135L93.2704 104.488L92.1109 105.794L90.883 107.047L89.5899 108.244L88.2349 109.381L86.8216 110.455L85.3537 111.46L83.8352 112.395L82.2704 113.256L80.6636 114.04L79.0194 114.745L77.3425 115.369L75.6378 115.909L73.9101 116.365L72.1644 116.735L70.406 117.019L68.6398 117.215L66.8711 117.323L65.105 117.344L63.3466 117.277L61.601 117.125L59.8734 116.887L58.1685 116.566L56.4914 116.163L54.8466 115.679L53.2388 115.119L51.6724 114.483L50.1517 113.775L48.6808 112.998L47.2633 112.156L45.9031 111.253L44.6033 110.291L43.3672 109.276L42.1976 108.212L41.097 107.103L40.0678 105.954L39.1118 104.769L38.2307 103.553L37.426 102.313L36.6985 101.051L36.0491 99.7743L35.478 98.4872L34.9854 97.1949L34.571 95.9026L34.2341 94.6153L33.9738 93.3381L33.789 92.0759L33.678 90.8337L33.639 89.616L33.6698 88.4275L33.768 87.2726L33.9309 86.1556L34.1556 85.0806L34.4386 84.0514L34.7767 83.0716L35.1662 82.1446L35.603 81.2734L36.0832 80.4611L36.6025 79.7101L37.1564 79.0226L37.7406 78.4008L38.3502 77.8461L38.9806 77.3601L39.6269 76.9436L40.2843 76.5975L40.9479 76.322L41.6128 76.1172L42.274 75.9828L42.9267 75.9181L43.5662 75.9223L44.1875 75.9941L44.7862 76.1318L45.3577 76.3335L45.8976 76.5971L46.4017 76.9201L46.8658 77.2997L47.2862 77.7328L47.6591 78.2162L47.9811 78.7463L48.249 79.3194L48.4598 79.9315L48.6108 80.5784L48.6997 81.2558L48.7242 81.9592L48.6826 82.6839L48.5732 83.4253L48.395 84.1784L48.1469 84.9385L47.8285 85.7003L47.4393 86.4591L46.9796 87.2097L46.4496 87.9472L45.8501 88.6665L45.1822 89.3628L44.4471 90.0312L43.6465 90.667L42.7825 91.2655L41.8572 91.8223L40.8733 92.3329L39.8335 92.7932L38.741 93.1993L37.599 93.5473L36.4112 93.8338L35.1814 94.0554L33.9137 94.2091L32.6121 94.2922L31.2811 94.302L29.9253 94.2365L28.5494 94.0937L27.158 93.872L25.7561 93.5702L24.3488 93.1873L22.9409 92.7227L21.5376 92.1761L20.144 91.5475L18.765 90.8374L17.4058 90.0465L16.0714 89.1757L14.7666 88.2265L13.4963 87.2006L12.2652 86.0999L11.0778 84.9267L9.93873 83.6837L8.85211 82.3737L7.82205 81L6.85242 79.5659L5.9469 78.0751L5.10889 76.5315L4.34156 74.9393L3.64782 73.3027L3.03029 71.6264L2.49133 69.9149L2.03298 68.173L1.65698 66.4058L1.36477 64.6183L1.15745 62.8155L1.03582 61.0027L1.00034 59.1851L1.05114 57.368L1.18804 55.5566L1.4105 53.7562L1.71769 51.9718L2.10843 50.2088L2.58123 48.472L3.1343 46.7664L3.76555 45.0967L4.47256 43.4677L5.25267 41.8839L6.10291 40.3494L7.02008 38.8684L8.00071 37.4447L9.04111 36.0821L10.1374 34.7838L11.2853 33.553L12.4808 32.3925L13.7192 31.3049L14.996 30.2924L16.3064 29.357L17.6456 28.5004L19.0087 27.7237L20.3906 27.028L21.7863 26.4141L23.1908 25.882L24.599 25.432L26.0057 25.0635L27.4061 24.776L28.795 24.5685L30.1678 24.4395L31.5195 24.3875L32.8456 24.4105L34.1414 24.5063L35.4028 24.6723L36.6254 24.9056L37.8053 25.2033L38.9387 25.5619L40.0221 25.9779L41.0522 26.4475L42.026 26.9666L42.9405 27.5311L43.7934 28.1365L44.5825 28.7785L45.3058 29.4522L45.9616 30.1529L46.5488 30.8759L47.0664 31.616L47.5136 32.3685L47.8902 33.1281L48.1961 33.89L48.4317 34.6492L48.5977 35.4006L48.6949 36.1394L48.7246 36.8607L48.6885 37.5598L48.5885 38.2321L48.4266 38.8731L48.2055 39.4786L47.9277 40.0443L47.5964 40.5664L47.2149 41.0411L46.7864 41.465L46.3149 41.8347L45.8042 42.1473L45.2584 42.4001L44.6817 42.5906L44.0787 42.7168L43.4538 42.7766L42.8116 42.7686L42.157 42.6917L41.4948 42.5448L40.8298 42.3275L40.167 42.0394L39.5112 41.6807L38.8673 41.2518L38.2403 40.7535L37.6348 40.1869L37.0557 39.5532L36.5076 38.8543L35.9949 38.0922L35.5221 37.2693L35.0934 36.388L34.7128 35.4514L34.3842 34.4625L34.1113 33.4249L33.8974 32.3421L33.7458 31.2181L33.6593 30.0569L33.6407 28.8629L33.6924 27.6405L33.8164 26.3944L34.0145 25.1292L34.2883 23.8498L34.6389 22.5613L35.0672 21.2686L35.5737 19.9769L36.1587 18.6912L36.822 17.4167L37.5633 16.1586L38.3817 14.9219L39.2762 13.7116L40.2453 12.5328L41.2874 11.3902L42.4004 10.2887L43.582 9.2328L44.8296 8.22701L46.1403 7.2756L47.511 6.38265L48.9382 5.55203L50.4183 4.78741L51.9475 4.09217L53.5215 3.46948L55.1362 2.92222L56.787 2.45297L58.4695 2.06404L60.1787 1.75744L61.9099 1.53485L63.6581 1.39763L65.4183 1.34685L67.1852 1.3832L68.9539 1.50707L70.719 1.71851L72.4756 2.01724L74.2184 2.40262L75.9424 2.87372L77.6426 3.42926L79.314 4.06763L80.9519 4.78693L82.5515 5.58491L84.1084 6.45908L85.6182 7.40661L87.0767 8.42442L88.48 9.50917L89.8242 10.6572L91.106 11.8648L92.3219 13.1279L93.4691 14.4421L94.5447 15.8031L95.5463 17.2063L96.4718 18.6469L97.3194 20.12L98.0874 21.6207L98.7747 23.1439L99.3804 24.6844L99.9039 26.2372L100.345 27.797L100.704 29.3585L100.98 30.9167L101.176 32.4664L101.291 34.0026L101.328 35.5202L101.288 37.0145L101.172 38.4806L100.984 39.9139L100.725 41.3101L100.399 42.6648L100.008 43.9741L99.557 45.234L99.0482 46.4411L98.4858 47.5919L97.8738 48.6835L97.2163 49.7128L96.5178 50.6776L95.7826 51.5754L95.0154 52.4044L94.221 53.1631L93.4041 53.85L92.5696 54.4643L91.7225 55.0053L90.8676 55.4727L90.01 55.8666L89.1545 56.1873L88.3062 56.4354L87.4697 56.612L86.6498 56.7185L85.8513 56.7565L85.0785 56.7279L84.336 56.635L83.628 56.4804L82.9584 56.2668L82.3312 55.9974L81.75 55.6755L81.2182 55.3047L80.7391 54.8887L80.3154 54.4315L79.95 53.9374L79.6451 53.4108L79.4028 52.856L79.225 52.2778L79.1131 51.6809L79.0683 51.0701L79.0915 50.4504L79.1831 49.8267L79.3434 49.2039L79.5723 48.5871L79.8693 47.9813L80.2337 47.3913L80.6644 46.822L81.1599 46.2783L81.7186 45.7648L82.3385 45.286L83.0173 44.8465L83.7523 44.4504L84.5408 44.1019L85.3795 43.8048L86.2652 43.5628L87.1942 43.3793L88.1627 43.2576L89.1667 43.2006L90.2019 43.2109L91.264 43.2909L92.3485 43.4428L93.4507 43.6682L94.5658 43.9687L95.6891 44.3454L96.8154 44.7991L97.94 45.3304L99.0577 45.9393L100.164 46.6258L101.253 47.3893L102.32 48.229L103.36 49.1438L104.369 50.1321L105.342 51.1922L106.274 52.3219L107.161 53.5189L107.998 54.7804L108.781 56.1035L109.506 57.4849L110.17 58.9211L110.769 60.4083L111.299 61.9426L111.759 63.5198L112.144 65.1355L112.453 66.7851L112.683 68.4639L112.833 70.1671L112.9 71.8896L112.884 73.6266L112.784 75.3727L112.599 77.1228L112.328 78.8717L111.973 80.6141L111.532 82.3448L111.007 84.0587L110.4 85.7505L109.71 87.4152L108.94 89.0478L108.092 90.6435L107.169 92.1975L106.172 93.7053L105.104 95.1624L103.969 96.5648L102.77 97.9083L101.51 99.1893L100.194 100.404L98.8248 101.55L97.4076 102.623L95.9465 103.621L94.446 104.542L92.9108 105.383L91.3458 106.142L89.7559 106.819L88.1461 107.411L86.5214 107.919L84.8871 108.341L83.2482 108.678L81.6099 108.929L79.9772 109.096L78.3552 109.178L76.7488 109.177L75.163 109.095L73.6026 108.933L72.0722 108.694L70.5763 108.38L69.1193 107.993L67.7053 107.536L66.3383 107.013L65.0221 106.428L63.76 105.783L62.5555 105.083L61.4115 104.332L60.3307 103.534L59.3157 102.694L58.3684 101.816L57.4908 100.905L56.6845 99.9661L55.9506 99.0042L55.2901 98.0241L54.7036 97.0309L54.1912 96.0297L53.753 95.0256L53.3885 94.0235L53.097 93.0286L52.8775 92.0456L52.7287 91.0796L52.6488 90.1353L52.6359 89.2171L52.6878 88.3298L52.8019 87.4774L52.9754 86.6642L53.2053 85.8942L53.4883 85.1709L53.8207 84.4978L54.1989 83.8783L54.6189 83.3152L55.0766 82.8113L55.5676 82.369L56.0876 81.9902L56.6319 81.677L57.1959 81.4307L57.7748 81.2525L58.3638 81.1433L58.9581 81.1035L59.5527 81.1335L60.1428 81.2329L60.7234 81.4014L61.2898 81.6382L61.8372 81.9421L62.3609 82.3117L62.8562 82.7452L63.3189 83.2406L63.7444 83.7955L64.1288 84.4072L64.4679 85.0729L64.758 85.7893L64.9956 86.553L65.1773 87.3604L65.2999 88.2074L65.3607 89.0902L65.3571 90.0042L65.2868 90.9452L65.1478 91.9084L64.9383 92.8892L64.6571 93.8828L64.3029 94.8841L63.8751 95.8883L63.3732 96.8902L62.7971 97.8848L62.147 98.8671L61.4234 99.8319L60.6272 100.774L59.7596 101.689L58.822 102.572L57.8164 103.418L56.7447 104.222L55.6095 104.98L54.4133 105.687L53.1592 106.34L51.8504 106.934L50.4903 107.466L49.0827 107.932L47.6315 108.329L46.1408 108.654L44.615 108.904L43.0586 109.077L41.4761 109.171L39.8723 109.183L38.2522 109.112L36.6207 108.958L34.9828 108.719L33.3437 108.394L31.7084 107.984L30.0821 107.488L28.4699 106.907L26.8769 106.243L25.3081 105.495L23.7684 104.665L22.2627 103.755L20.7958 102.768L19.3721 101.705L17.9962 100.57L16.6723 99.3645L15.4044 98.0927L14.1965 96.7577L13.0522 95.3634L11.9748 93.9137L10.9675 92.4128L10.0332 90.865L9.17451 89.275L8.39365 87.6473L7.69267 85.9868L7.07326 84.2985L6.53681 82.5875L6.08438 80.8588L5.71671 79.1177L5.43422 77.3694L5.23699 75.6192L5.12477 73.8722L5.097 72.1336L5.15278 70.4087L5.29089 68.7025L5.50981 67.0199L5.80769 65.3659L6.1824 63.7452L6.6315 62.1624L7.15228 60.6218L7.74177 59.1277L8.39672 57.684L9.11366 56.2947L9.88887 54.9632L10.7185 53.6928L11.5983 52.4866L12.5241 51.3472L13.4913 50.2772L14.4955 49.2786L15.5319 48.3534L16.5957 47.5031L17.6819 46.7288L18.7858 46.0314L19.9021 45.4115L21.026 44.8693L22.1524 44.4047L23.2763 44.0171L24.3929 43.706L25.4972 43.4701L26.5845 43.3079L27.65 43.2179L28.6893 43.1979L29.698 43.2456L30.6717 43.3584L31.6065 43.5333L32.4985 43.7673L33.3441 44.0568L34.1398 44.3983L34.8826 44.788L35.5694 45.2216L36.1977 45.6951L36.7652 46.204L37.2698 46.7438L37.7097 47.3097L38.0835 47.8971L38.39 48.501L38.6285 49.1165L38.7985 49.7388L38.8998 50.3627L38.9326 50.9832L38.8974 51.5956L38.7949 52.1947L38.6263 52.7759L38.393 53.3342L38.0968 53.8651L37.7397 54.3641L37.3241 54.8266L36.8526 55.2487L36.3281 55.6261L35.7536 55.9552L35.1327 56.2322L34.4689 56.4538L33.766 56.6169L33.0281 56.7187L32.2594 56.7564L31.4642 56.728L30.6471 56.6313L29.8126 56.4646L28.9656 56.2266L28.1109 55.9162L27.2533 55.5327L26.3977 55.0756L25.5492 54.545L24.7126 53.941L23.893 53.2642L23.0951 52.5156L22.3238 51.6964L21.5838 50.8082L20.8798 49.8527L20.2163 48.8323L19.5976 47.7494L19.028 46.6067L18.5114 45.4074L18.0517 44.1547L17.6525 42.8521L17.3171 41.5035L17.0488 40.113L16.8503 38.6846L16.7244 37.2228L16.6732 35.7323L16.6988 34.2177L16.803 32.6838L16.9872 31.1357L17.2525 29.5784L17.5996 28.017L18.0291 26.4567L18.5409 24.9026L19.1351 23.36L19.8109 21.8341L20.5677 20.3299L21.4041 18.8526L22.3187 17.4071L23.3098 15.9984L24.3751 14.6312L25.5123 13.31L26.7187 12.0395L27.9914 10.8239L29.327 9.66718L30.7222 8.57329L32.1732 7.54584L33.676 6.58822L35.2265 5.70354L36.8204 4.89465L38.4532 4.16413L40.1202 3.51424L41.8166 2.94693L43.5375 2.46384L45.278 2.06631L47.0329 1.75533L48.7972 1.53156L50.5656 1.39535L52.3331 1.34668L54.0945 1.38523L55.8447 1.51032L57.5786 1.72096L59.2913 2.01582L60.9778 2.39326L62.6334 2.85132L64.2534 3.38775L65.8335 3.99998L67.3692 4.68517L68.8564 5.44022L70.2913 6.26175L71.6702 7.14615L72.9895 8.08957L74.2462 9.08795L75.4373 10.137L76.5601 11.2324L77.6123 12.3695L78.5919 13.5435L79.4969 14.7496L80.3261 15.9829L81.0783 17.2384L81.7526 18.5108L82.3487 19.7952L82.8663 21.0864L83.3056 22.3793L83.6671 23.6687L83.9516 24.9497L84.1603 26.2172L84.2947 27.4663L84.3564 28.6923L84.3475 29.8906L84.2705 31.0566L84.1279 32.1861L83.9226 33.2749L83.6578 34.3192L83.3368 35.3151L82.9633 36.2593L82.5411 37.1485L82.0743 37.9799L81.567 38.7507L81.0236 39.4587L80.4486 40.1016L79.8465 40.6778L79.2222 41.1858L78.5805 41.6245L77.9261 41.9931L77.2639 42.2911L76.5989 42.5184L75.936 42.6752L75.2801 42.762L74.6359 42.7796L74.0082 42.7292L73.4018 42.6124L72.8212 42.4308L72.2708 42.1866L71.7548 41.8823L71.2776 41.5204L70.8428 41.104L70.4544 40.6362L70.1159 40.1206L69.8304 39.5608L69.6011 38.9607L69.4307 38.3244L69.3218 37.6562L69.2766 36.9606L69.297 36.2422L69.3846 35.5056L69.5408 34.7556L69.7665 33.9973L70.0625 33.2355L70.4291 32.4752L70.8664 31.7214L71.3741 30.9792L71.9515 30.2536L72.5978 29.5494L73.3117 28.8716L74.0916 28.2249L74.9356 27.614L75.8416 27.0435L76.8072 26.5177L77.8295 26.0409L78.9056 25.6171L80.0322 25.2502L81.2058 24.9438L82.4226 24.7011L83.6787 24.5255L84.97 24.4197L86.2921 24.3863L87.6405 24.4276L89.0105 24.5456L90.3975 24.742L91.7966 25.0181L93.2027 25.3751L94.611 25.8137L96.0163 26.3341L97.4135 26.9366L98.7977 27.6208L100.164 28.3861L101.507 29.2315L102.821 30.1559L104.103 31.1576L105.347 32.2348L106.549 33.3851L107.704 34.6062L108.808 35.8952L109.856 37.2489L110.846 38.6642L111.772 40.1374L112.632 41.6646L113.422 43.2417L114.139 44.8646L114.782 46.5288L115.346 48.2296L115.83 49.9623L116.232 51.722L116.551 53.5037L116.786 55.3021L116.935 57.1123L116.998 58.9289L116.974 60.7468L116.865 62.5606L116.67 64.3651L116.389 66.1551L116.025 67.9255L115.578 69.6712L115.051 71.3873L114.444 73.0688L113.761 74.7113L113.004 76.31L112.175 77.8607L111.279 79.3591L110.318 80.8015L109.297 82.1839L108.218 83.5031L107.086 84.7557L105.905 85.9389L104.68 87.05L103.415 88.0866L102.114 89.0467L100.784 89.9286L99.4279 90.7309L98.0514 91.4524L96.6595 92.0925L95.2573 92.6506L93.8498 93.1268L92.442 93.5211L91.0391 93.8343L89.6459 94.0672L88.2675 94.2211L86.9086 94.2974L85.5738 94.298L84.2679 94.2252L82.9951 94.0813L81.7597 93.869L80.5658 93.5915L79.4171 93.2519L78.3174 92.8538L77.27 92.4009L76.278 91.8971L75.3443 91.3466L74.4715 90.7537L73.6619 90.1229L72.9175 89.4588L72.24 88.7661L71.6308 88.0497L71.091 87.3145L70.6213 86.5654L70.2222 85.8075L69.8938 85.0458L69.6358 84.2852L69.4478 83.5308L69.3288 82.7875L69.2777 82.0601L69.293 81.3534L69.3729 80.6721L69.5153 80.0206L69.7179 79.4034L69.9779 78.8246L70.2925 78.2882L70.6584 77.798L71.0723 77.3575L71.5305 76.9702L72.0292 76.6391L72.5643 76.367L73.1316 76.1564L73.7267 76.0095L74.3452 75.9284L74.9824 75.9146L75.6335 75.9695L76.2938 76.094L76.9584 76.2889L77.6225 76.5544L78.2811 76.8906L78.9293 77.2972L79.5622 77.7735L80.175 78.3185L80.7631 78.931L81.3216 79.6093L81.846 80.3515L82.3319 81.1554L82.7752 82.0184L83.1715 82.9377L83.517 83.9103L83.8081 84.9327L84.0412 86.0016L84.2129 87.1129L84.3205 88.2626L84.3609 89.4467L84.3319 90.6605L84.2312 91.8996L84.0568 93.1593L83.8073 94.4346L83.4813 95.7208L83.0778 97.0127L82.5962 98.3053L82.0362 99.5935L81.3978 100.872L80.6813 102.136L79.8874 103.38L79.017 104.599L78.0715 105.789L77.0524 106.943L75.9618 108.058L74.8018 109.129L73.5748 110.152L72.2839 111.121L70.932 112.033L69.5224 112.884L68.0587 113.67L66.5448 114.387L64.9846 115.033L63.3824 115.605L61.7425 116.099L60.0697 116.514L58.3684 116.847L56.6437 117.097L54.9003 117.261L53.1435 117.34L51.3781 117.331L49.6094 117.235L47.8426 117.052L46.0828 116.781L44.335 116.423L42.6045 115.979L40.8962 115.45L39.2151 114.838L37.566 114.144L35.9537 113.371L34.3827 112.521L32.8574 111.596L31.3821 110.6L29.9608 109.537L28.5974 108.408L27.2954 107.219L26.0582 105.973L24.8888 104.675L23.7901 103.328L22.7647 101.938L21.8147 100.509L20.9421 99.0457L20.1486 97.5532L19.4355 96.0366L18.8037 94.501L18.254 92.9516L17.7867 91.3935L17.4018 89.832L17.099 88.2721L16.8777 86.7192L16.7369 85.1781L16.6753 83.6541L16.6914 82.1519L16.7833 80.6763L16.9488 79.2321L17.1853 77.8236L17.4903 76.4552L17.8605 75.131L18.2929 73.8549L18.7838 72.6306L19.3296 71.4615L19.9262 70.3508L20.5697 69.3014L21.2556 68.3158L21.9796 67.3964L22.7371 66.5453L23.5234 65.7641L24.3336 65.0542L25.1631 64.4166L26.0067 63.8522L26.8596 63.3614L27.7169 62.9441L28.5736 62.6002L29.4247 62.329L30.2656 62.1298L31.0912 62.0011L31.897 61.9415L32.6785 61.9491L33.4311 62.0218L34.1506 62.157L34.8328 62.3521L35.4739 62.6041L36.0702 62.9097L36.618 63.2653L37.1143 63.6674L37.5559 64.1119L37.9402 64.5946L38.2646 65.1114L38.527 65.6577L38.7255 66.229L38.8586 66.8204L38.9248 67.4273L38.9234 68.0447L38.8536 68.6677L38.7152 69.2913L38.5081 69.9106L38.2327 70.5204L37.8897 71.116L37.48 71.6924L37.0049 72.2448L36.4661 72.7684L35.8655 73.2587L35.2052 73.7112L34.4878 74.1216L33.7161 74.4857L32.893 74.7996L32.0219 75.0596L31.1063 75.262L30.1499 75.4037L29.1568 75.4816L28.1311 75.4931L27.077 75.4355L25.9991 75.3067L24.9021 75.1049L23.7905 74.8284L22.6694 74.4761L21.5435 74.047L20.4178 73.5405L19.2974 72.9563L18.1872 72.2944L17.0923 71.5554L16.0175 70.7398L14.968 69.8489L13.9484 68.8838L12.9636 67.8464L12.0182 66.7386L11.1167 65.5627L10.2635 64.3214L9.46281 63.0176L8.71862 61.6544L8.03475 60.2353L7.41477 58.7639L6.86203 57.2442L6.37965 55.6802L5.97044 54.0763L5.63698 52.437L5.38154 50.767L5.20609 49.071L5.11232 47.3541L5.10157 45.6212L5.1749 43.8774L5.33302 42.128L5.57634 40.3781L5.9049 38.6331L6.31847 36.8981L6.81642 35.1783L7.39787 33.4789L8.06157 31.805L8.80596 30.1617L9.62918 28.5537L10.5291 26.9859L11.5031 25.4629L12.5487 23.9892L13.6627 22.5689L14.8418 21.2062L16.0826 19.9049L17.3812 18.6686L18.7338 17.5007L20.136 16.4042L21.5837 15.3819L23.0722 14.4364L24.5968 13.5698L26.1529 12.7841L27.7354 12.0809L29.3394 11.4614L30.9598 10.9266L32.5916 10.477L34.2296 10.1131L35.8687 9.83462L37.5038 9.64127L39.1297 9.53231L40.7416 9.50669L42.3345 9.56303L43.9035 9.69965L45.4439 9.91453L46.9513 10.2054L48.4212 10.5696L49.8493 11.0044L51.2317 11.5065L52.5645 12.0725L53.8442 12.6989L55.0673 13.3818L56.2309 14.1171L57.3321 14.9005L58.3684 15.7277L59.3374 16.5941L60.2374 17.4949L61.0665 18.4253L61.8236 19.3804L62.5076 20.3553L63.1177 21.3449L63.6537 22.3441L64.1155 23.3478L64.5035 24.3511L64.8181 25.3488L65.0604 26.3361L65.2316 27.308L65.3332 28.2598L65.3672 29.1867L65.3357 30.0844L65.2411 30.9483L65.0862 31.7744L64.8739 32.5587L64.6075 33.2973L64.2904 33.9866L63.9264 34.6236L63.5192 35.2049L63.0731 35.7279L62.5922 36.1902L62.081 36.5894L61.5439 36.9236L60.9857 37.1914L60.411 37.3914L59.8247 37.5227L59.2315 37.5846L58.6365 37.5768L58.0445 37.4995L57.4603 37.3529L56.8888 37.1378L56.3349 36.8551L55.8032 36.5063L55.2983 36.0929L54.8248 35.617L54.3869 35.0808L53.989 34.4868L53.6351 33.838L53.3289 33.1374L53.0743 32.3884L52.8744 31.5945L52.7327 30.7596L52.6518 29.8878L52.6347 28.9833L52.6835 28.0504L52.8004 27.0938L52.9873 26.118L53.2455 25.128L53.5764 24.1286L53.9807 23.1248L54.4589 22.1216L55.0114 21.1241L55.638 20.1374L56.3383 19.1665L57.1115 18.2164L57.9565 17.2921L58.8719 16.3986L59.8561 15.5405L60.907 14.7226L62.0222 13.9495L63.1993 13.2255L64.4353 12.5548L65.7271 11.9415L67.0712 11.3893L68.4641 10.9019L69.9018 10.4826L71.3804 10.1344L72.8955 9.86017L74.4427 9.66248L76.0174 9.54353L77.6149 9.50524L79.2303 9.54926L80.8588 9.67688L82.4951 9.88908L84.1344 10.1865L85.7715 10.5695L87.4012 11.038L89.0184 11.5917L90.6181 12.2298L92.1952 12.9515L93.7447 13.7553L95.2617 14.6396L96.7415 15.6023L98.1795 16.6413L99.5711 17.754L100.912 18.9374L102.198 20.1884L103.426 21.5036L104.591 22.8794L105.69 24.3119L106.719 25.797L107.677 27.3303L108.56 28.9074L109.366 30.5237L110.093 32.1742L110.738 33.8542L111.301 35.5586L111.781 37.2822L112.175 39.0199L112.485 40.7665L112.71 42.5167L112.849 44.2653L112.903 46.0071L112.874 47.7369L112.762 49.4496L112.569 51.1402L112.296 52.8038L111.945 54.4356L111.52 56.0311L111.021 57.5856L110.453 59.0949L109.819 60.555L109.121 61.9621L108.364 63.3124L107.552 64.6026L106.687 65.8295L105.776 66.9905L104.821 68.0829L103.828 69.1044L102.802 70.0531L101.746 70.9275L100.666 71.7261L99.5675 72.4481L98.4546 73.0927L97.3326 73.6596L96.2065 74.149L95.0812 74.561L93.9617 74.8963L92.853 75.1561L91.7598 75.3416L90.6868 75.4543L89.6387 75.4964L88.6198 75.47L87.6345 75.3777L86.6869 75.2222L85.7808 75.0067L84.9201 74.7345L84.1081 74.4091L83.3482 74.0343L82.6432 73.6142L81.996 73.153L81.4089 72.6549L80.8841 72.1244L80.4234 71.5663L80.0284 70.9852L79.7004 70.3861L79.4401 69.7737L79.2482 69.1531L79.1251 68.5292L79.0705 67.907L79.0842 67.2915L79.1653 66.6876L79.313 66.1002L79.5259 65.5341L79.8022 64.994L80.1401 64.4843L80.5374 64.0097L80.9914 63.5743L81.4994 63.1822L82.0583 62.8374L82.6648 62.5434L83.3153 62.3038L84.0062 62.1217L84.7334 62.0001L85.4928 61.9417L86.28 61.9488L87.0907 62.0236L87.9201 62.1679L88.7636 62.383L89.6164 62.6702L90.4736 63.0304L91.3304 63.464L92.1817 63.9712L93.0226 64.5519L93.8482 65.2056L94.6535 65.9314L95.4338 66.7283L96.1843 67.5947L96.9002 68.529L97.5771 69.529L98.2105 70.5922L98.7962 71.7162L99.3302 72.8978L99.8084 74.1339L100.227 75.421L100.583 76.7554L100.873 78.133L101.094 79.5498L101.244 81.0014L101.319 82.4833L101.318 83.9908L101.239 85.519L101.08 87.0631L100.841 88.6181L100.52 90.1787L100.117 91.74L99.6311 93.2966L99.0632 94.8434L98.4133 96.3752L97.6822 97.8869L96.871 99.3733L95.9811 100.829L95.0142 102.25L93.9723 103.631L92.8577 104.968L91.673 106.255L90.4211 107.488L89.1051 108.664L87.7285 109.779L86.2949 110.828L84.8082 111.808L83.2724 112.716L81.6918 113.549L80.0709 114.305L78.4143 114.981L76.7268 115.575L75.0131 116.085L73.2783 116.51L71.5274 116.848L69.7656 117.1L67.9979 117.264L66.2295 117.341L64.4656 117.33L62.7113 117.232L60.9717 117.049L59.2517 116.78L57.5564 116.429L55.8904 115.996L54.2585 115.485L52.6653 114.896L51.115 114.234L49.6119 113.501L48.1599 112.7L46.7628 111.835L45.4242 110.91L44.1472 109.929L42.9349 108.896L41.7901 107.814L40.7151 106.69L39.7122 105.527L38.7833 104.331L37.9298 103.106L37.153 101.857L36.4537 100.589L35.8327 99.3081L35.2902 98.0185L34.826 96.7256L34.4398 95.4345L34.1308 94.1503L33.8981 92.878L33.7402 91.6225L33.6556 90.3886L33.6422 89.181L33.6978 88.0042L33.8198 86.8626L34.0055 85.7604L34.2517 84.7016L34.5552 83.6899L34.9123 82.7289L35.3194 81.8218L35.7725 80.9717L36.2674 80.1813L36.7998 79.4531L37.3652 78.7892L37.9591 78.1916L38.5768 77.6617L39.2136 77.2009L39.8645 76.8099L40.5247 76.4893L41.1893 76.2395L41.8534 76.0603L42.5121 75.9513L43.1606 75.9118L43.794 75.9406L44.4077 76.0365L44.997 76.1977L45.5575 76.4222L46.0849 76.7076L46.5749 77.0515L47.0236 77.4509L47.4272 77.9026L47.782 78.4034L48.0847 78.9496L48.3322 79.5373L48.5216 80.1625L48.6504 80.821L48.7161 81.5083L48.7168 82.22L48.6508 82.9513L48.5166 83.6975L48.3131 84.4537L48.0395 85.215L47.6954 85.9763L47.2806 86.7327L46.7953 87.4791L46.24 88.2106L45.6155 88.9221L44.923 89.6089L44.164 90.266L43.3402 90.8888L42.4536 91.4726L41.5068 92.0131L40.5022 92.506L39.4429 92.9471L38.332 93.3325L37.173 93.6586L35.9695 93.9219L34.7255 94.1192L33.4449 94.2476L32.1322 94.3043L30.7917 94.2871L29.428 94.1937L28.0459 94.0224L26.6502 93.7718L25.2457 93.4406L23.8376 93.0281L22.4308 92.5338L21.0304 91.9574L19.6415 91.2992L18.2692 90.5597L16.9184 89.7396L15.5941 88.8402L14.3013 87.8629L13.0447 86.8096L11.8289 85.6823L10.6586 84.4835L9.53806 83.2158L8.47151 81.8823L7.46295 80.4863L6.51618 79.0311L5.63478 77.5207L4.82206 75.959L4.08112 74.3502L3.41475 72.6987L2.82548 71.009L2.31556 69.286L1.88691 67.5343L1.54117 65.7591L1.27966 63.9655L1.10337 62.1584L1.01297 60.3433L1.00881 58.5253L1.0909 56.7096L1.25892 54.9016L1.51225 53.1064L1.84992 51.3292L2.27063 49.5751L2.77279 47.8491L3.35449 46.156L4.01353 44.5006L4.74739 42.8874L5.55331 41.321L6.42823 39.8055L7.36884 38.3448L8.3716 36.9429L9.43273 35.6032L10.5482 34.3291L11.714 33.1235L12.9255 31.9892L14.1784 30.9286L15.4679 29.9439L16.7894 29.0369L18.1378 28.2092L19.5083 27.4618L20.8958 26.7957L22.2953 26.2115L23.7017 25.7092L25.1099 25.2888L26.515 24.9499L27.9117 24.6915L29.2954 24.5126L30.6611 24.4118L32.004 24.3873L33.3196 24.437L34.6034 24.5585L35.8512 24.7493L37.0588 25.0064L38.2222 25.3266L39.3379 25.7065L40.4023 26.1424L41.4123 26.6304L42.3649 27.1665L43.2573 27.7463L44.0873 28.3655L44.8527 29.0196L45.5517 29.7036L46.1827 30.413L46.7448 31.1428L47.2368 31.888L47.6585 32.6436L48.0094 33.4047L48.2897 34.1662L48.5 34.9231L48.6408 35.6704L48.7134 36.4034L48.719 37.1172L48.6595 37.8071L48.5367 38.4686L48.3531 39.0972L48.111 39.6887L47.8135 40.239L47.4636 40.7443L47.0646 41.201L46.6201 41.6056L46.1339 41.9549L45.6099 42.2461L45.0524 42.4766L44.4657 42.644L43.8542 42.7462L43.2224 42.7816L42.5752 42.7487L41.9173 42.6465L41.2535 42.4741L40.5887 42.2311L39.9279 41.9174L39.2759 41.5331L38.6375 41.079L38.0178 40.5557L37.4213 39.9645L36.8529 39.307L36.3172 38.5849L35.8185 37.8005L35.3612 36.956L34.9495 36.0543L34.5874 35.0983L34.2786 34.0914L34.0267 33.0369L33.835 31.9387L33.7067 30.8007L33.6446 29.6272L33.6512 28.4223L33.7289 27.1908L33.8796 25.9371L34.1051 24.6662L34.4066 23.383L34.7853 22.0924L35.242 20.7994L35.777 19.5093L36.3904 18.2271L37.0821 16.958L37.8514 15.707L38.6976 14.4793L39.6193 13.2799L40.6152 12.1137L41.6832 10.9854L42.8214 9.89996L44.0273 8.86174L45.2982 7.8752L46.6311 6.94455L48.0227 6.07378L49.4695 5.26671L50.9679 4.52689L52.5138 3.85763L54.1031 3.262L55.7314 2.74276L57.3943 2.30242L59.087 1.94315L60.8048 1.66686L62.5427 1.47511L64.2958 1.36916L66.059 1.34994L67.8272 1.41802L69.5952 1.57369L71.3578 1.81686L73.11 2.14713L74.8466 2.56376L76.5625 3.06567L78.2528 3.65147L79.9126 4.31945L81.5371 5.06758L83.1218 5.89352L84.6621 6.79465L86.1537 7.76806L87.5926 8.81056L88.9749 9.91873L90.2968 11.0889L91.5551 12.317L92.7464 13.5992L93.8678 14.9309L94.9169 16.3078L95.8911 17.7251L96.7885 19.178L97.6074 20.6617L98.3462 22.1712L99.004 23.7013L99.5799 25.2469L100.074 26.8028L100.485 28.3638L100.814 29.9247L101.061 31.4804L101.227 33.0258L101.314 34.5558L101.322 36.0655L101.254 37.5501L101.112 39.0048L100.898 40.4251L100.614 41.8067L100.264 43.1454L99.8514 44.4373L99.3788 45.6784L98.8501 46.8655L98.2692 47.9951L97.6402 49.0644L96.9673 50.0706L96.2549 51.0113L95.5076 51.8843L94.73 52.688L93.9268 53.4208L93.103 54.0814L92.2634 54.6692L91.4128 55.1835L90.5564 55.6242L89.699 55.9914L88.8456 56.2857L88.0009 56.5077L87.1699 56.6587L86.3573 56.7401L85.5676 56.7537L84.8053 56.7015L84.0748 56.5859L83.3803 56.4096L82.7257 56.1753L82.1148 55.8865L81.5511 55.5464L81.0381 55.1587L80.5787 54.7273L80.1759 54.2563L79.8322 53.7498L79.5498 53.2124L79.3308 52.6486L79.1767 52.0631L79.0891 51.4606L79.0688 50.846L79.1168 50.2242L79.2334 49.6003L79.4186 48.9791L79.6723 48.3657L79.9938 47.7651L80.3824 47.182L80.8368 46.6215L81.3555 46.0882L81.9367 45.5868L82.5782 45.1218L83.2777 44.6975L84.0325 44.3182L84.8395 43.9879L85.6957 43.7104L86.5976 43.4893L87.5413 43.3279L88.5232 43.2293L89.539 43.1964L90.5845 43.2318L91.6553 43.3376L92.7468 43.516L93.8542 43.7685L94.9728 44.0966L96.0978 44.5011L97.224 44.983L98.3467 45.5424L99.4607 46.1795L100.561 46.8941L101.643 47.6853L102.701 48.5524L103.73 49.4941L104.727 50.5087L105.685 51.5943L106.601 52.7487L107.47 53.9695L108.288 55.2537L109.051 56.5983L109.754 58L110.395 59.4552L110.969 60.96L111.475 62.5103L111.907 64.102L112.265 65.7305L112.546 67.3912L112.747 69.0795L112.867 70.7903L112.904 72.5186L112.858 74.2595L112.727 76.0077L112.51 77.758L112.209 79.5051L111.823 81.2439L111.351 82.9691L110.796 84.6755L110.159 86.3581L109.44 88.0117L108.642 89.6314L107.766 91.2125L106.815 92.7503L105.792 94.2402L104.699 95.6779L103.541 97.0594L102.319 98.3807L101.039 99.638L99.7027 100.828L98.3158 101.948L96.8822 102.994L95.4062 103.964L93.8926 104.856L92.346 105.668L90.7714 106.397L89.1736 107.044L87.5579 107.606L85.9291 108.082L84.2926 108.473L82.6533 108.779L81.0164 109L79.387 109.135L77.7701 109.187L76.1706 109.157L74.5935 109.046L73.0434 108.855L71.525 108.589L70.0428 108.247L68.6009 107.835L67.2035 107.354L65.8545 106.808L64.5576 106.2L63.3161 105.535L62.1332 104.816L61.0118 104.047L59.9546 103.233L58.9639 102.379L58.0418 101.489L57.1899 100.567L56.4097 99.6194L55.7024 98.6503L55.0687 97.6648L54.509 96.6682L54.0236 95.6653L53.6122 94.6614L53.2743 93.6613L53.0091 92.6702L52.8154 91.6929L52.6918 90.7342L52.6365 89.7988L52.6474 88.8913L52.7222 88.0162L52.8582 87.1775L53.0525 86.3796L53.3021 85.6261L53.6034 84.9206L53.9529 84.2667L54.3467 83.6673L54.7809 83.1254L55.2512 82.6435L55.7532 82.2241L56.2825 81.8689L56.8346 81.5798L57.4045 81.3581L57.9877 81.2049L58.5792 81.1208L59.1741 81.1063L59.7677 81.1615L60.3549 81.2861L60.9309 81.4795L61.4909 81.7408L62.0302 82.0687L62.5442 82.4618L63.0282 82.918L63.4778 83.4353L63.8889 84.0111L64.2573 84.6428L64.579 85.3272L64.8505 86.0612L65.0682 86.8412L65.2288 87.6634L65.3293 88.5239L65.367 89.4185L65.3394 90.3429L65.2444 91.2924L65.08 92.2626L64.8446 93.2486L64.537 94.2456L64.1562 95.2485L63.7015 96.2524L63.1727 97.2523L62.5697 98.243L61.8928 99.2195L61.1427 100.177L60.3205 101.11L59.4273 102.014L58.4648 102.884L57.435 103.715L56.3399 104.503L55.1822 105.243L53.9647 105.931L52.6903 106.563L51.3625 107.135L49.9847 107.643L48.5609 108.085L47.0948 108.456L45.5909 108.754L44.0534 108.976L42.487 109.12L40.8962 109.185L39.286 109.167L37.6611 109.066L36.0267 108.881L34.3878 108.611L32.7495 108.255L31.1169 107.814L29.4951 107.287L27.8893 106.676L26.3045 105.981L24.7457 105.203L23.2178 104.344L21.7256 103.406L20.2738 102.391L18.867 101.301L17.5094 100.14L16.2054 98.9105L14.9589 97.6153L13.7737 96.2583L12.6532 94.8435L11.601 93.3747L10.6199 91.8563L9.71271 90.2926L8.88199 88.6883L8.1299 87.0482L7.45835 85.377L6.8689 83.6799L6.36285 81.9618L5.94111 80.2281L5.60433 78.4837L5.35279 76.7341L5.18646 74.9844L5.10497 73.2399L5.10764 71.5057L5.19346 69.787L5.36109 68.0888L5.6089 66.4161L5.93493 64.7736L6.33693 63.1661L6.81238 61.5981L7.35845 60.0739L7.97208 58.5977L8.64995 57.1733L9.38848 55.8046L10.1839 54.4949L11.0322 53.2475L11.9292 52.0652L12.8706 50.9507L13.8518 49.9064L14.8682 48.9343L15.9151 48.0361L16.9876 47.2132L18.0808 46.4667L19.1897 45.7974L20.3094 45.2057L21.4348 44.6917L22.5609 44.2551L23.6827 43.8954L24.7954 43.6117L25.8941 43.4028L26.974 43.267L28.0305 43.2027L29.0592 43.2075L30.0556 43.2791L31.0157 43.4148L31.9354 43.6116L32.811 43.8661L33.6388 44.1749L34.4157 44.5344L35.1384 44.9405L35.8043 45.3891L36.4108 45.876L36.9557 46.3966L37.437 46.9464L37.853 47.5207L38.2025 48.1146L38.4845 48.7233L38.6982 49.3419L38.8432 49.9653L38.9196 50.5885L38.9276 51.2067L38.8679 51.8148L38.7412 52.408L38.549 52.9814L38.2927 53.5303L37.9741 54.0501L37.5955 54.5364L37.1593 54.9847L36.6682 55.391L36.1252 55.7513L35.5335 56.0619L34.8965 56.3192L34.2181 56.5199L33.502 56.6611L32.7524 56.7399L31.9736 56.7539L31.1699 56.7009L30.346 56.5789L29.5064 56.3865L28.656 56.1223L27.7997 55.7855L26.9422 55.3753L26.0887 54.8916L25.2439 54.3342L24.4129 53.7037L23.6006 53.0008L22.8118 52.2264L22.0513 51.3819L21.3239 50.4691L20.6341 49.4898L19.9863 48.4464L19.385 47.3414L18.8341 46.1778L18.3378 44.9587L17.8996 43.6875L17.5232 42.3678L17.2118 41.0035L16.9685 39.5987L16.7961 38.1577L16.697 36.685L16.6735 35.1851L16.7275 33.6629L16.8606 32.1233L17.0741 30.5713L17.369 29.0119L17.7459 27.4503L18.2053 25.8916L18.7471 24.3411L19.371 22.804L20.0763 21.2854L20.8621 19.7904L21.7271 18.324L22.6697 16.8913L23.6879 15.4971L24.7797 14.1461L25.9423 12.8429L27.1731 11.5918L28.469 10.3971L29.8267 9.26271L31.2426 8.19253L32.7128 7.19004L34.2334 6.25854L35.8002 5.40106L37.4087 4.62034L39.0545 3.91883L40.7327 3.2987L42.4386 2.76178L44.1672 2.30961L45.9135 1.94339L47.6724 1.66401L49.4388 1.472L51.2075 1.36757L52.9734 1.35062L54.7313 1.42067L56.4762 1.57694L58.2029 1.81832L59.9067 2.14336L61.5825 2.5503L63.2257 3.03708L64.8317 3.60133L66.3962 4.24038L67.9148 4.95131L69.3834 5.73089L70.7984 6.57567L72.1561 7.48194L73.453 8.44579L74.6862 9.46308L75.8528 10.5295L76.9503 11.6405L77.9763 12.7916L78.929 13.9778L79.8067 15.1944L80.6081 16.4363L81.3321 17.6985L81.978 18.9759L82.5456 20.2634L83.0347 21.5557L83.4457 22.8479L83.7792 24.1349L84.0361 25.4115L84.2176 26.6729L84.3254 27.9142L84.3612 29.1307L84.3273 30.3178L84.2262 31.471L84.0605 32.5862L83.8332 33.6593L83.5476 34.6864L83.2071 35.6639L82.8155 36.5886L82.3766 37.4571L81.8946 38.2668L81.3737 39.0151L80.8183 39.6996L80.2329 40.3185L79.6223 40.8701L78.9911 41.3531L78.3442 41.7664L77.6864 42.1095L77.0226 42.3818L76.3578 42.5835L75.6969 42.7148L75.0446 42.7763L74.4059 42.7691L73.7854 42.6944L73.1879 42.5538L72.6177 42.3493L72.0793 42.083L71.5769 41.7574L71.1147 41.3754L70.6963 40.94L70.3256 40.4544L70.0059 39.9223L69.7405 39.3474L69.5323 38.7337L69.384 38.0853L69.2979 37.4067L69.2763 36.7023L69.3209 35.9767L69.4333 35.2347L69.6146 34.4811L69.8658 33.7209L70.1874 32.9591L70.5797 32.2006L71.0426 31.4505L71.5756 30.7137L72.1782 29.9953L72.8492 29.3001L73.5872 28.633L74.3906 27.9988L75.2574 27.4021L76.1853 26.8473L77.1718 26.3388L78.214 25.8808L79.3088 25.4772L80.4529 25.1318L81.6426 24.8481L82.8742 24.6295L84.1435 24.4789L85.4465 24.399L86.7787 24.3925L88.1354 24.4614L89.5122 24.6077L90.9042 24.8329L92.3064 25.1383L93.7138 25.5248L95.1216 25.9931L96.5246 26.5433L97.9177 27.1755L99.2959 27.8892L100.654 28.6837L101.987 29.558L103.291 30.5106L104.559 31.54L105.789 32.6439L106.974 33.8203L108.111 35.0663L109.195 36.3792L110.222 37.7557L111.189 39.1924L112.092 40.6856L112.927 42.2314L113.691 43.8257L114.381 45.4641L114.995 47.1421L115.531 48.8551L115.986 50.5982L116.358 52.3664L116.646 54.1547L116.85 55.958L116.968 57.7712L116.999 59.5888L116.945 61.4058L116.804 63.2168L116.578 65.0167L116.267 66.8002L115.872 68.5622L115.396 70.2977L114.839 72.0018L114.205 73.6697L113.494 75.2968L112.711 76.8786L111.858 78.4108L110.938 79.8893L109.954 81.3103L108.911 82.6702L107.813 83.9656L106.663 85.1933L105.465 86.3506L104.225 87.4349L102.947 88.444L101.635 89.3759L100.294 90.2291L98.9304 91.0021L97.5477 91.6942L96.1515 92.3045L94.7468 92.8329L93.3386 93.2793L91.932 93.6442L90.5321 93.9281L89.1437 94.1321L87.7718 94.2576L86.4211 94.3063L85.0963 94.28L83.8019 94.181L82.5422 94.012L81.3214 93.7757L80.1434 93.4753L79.0122 93.114L77.931 92.6956L76.9034 92.2237L75.9322 91.7025L75.0204 91.1361L74.1702 90.5289L73.3841 89.8855L72.6638 89.2105L72.0109 88.5086L71.4268 87.7848L70.9124 87.044L70.4683 86.2911L70.0948 85.5313L69.792 84.7694L69.5595 84.0105L69.3967 83.2595L69.3025 82.5214L69.2757 81.801L69.3147 81.103L69.4175 80.432L69.5821 79.7924L69.8058 79.1887L70.086 78.6248L70.4195 78.1047L70.8033 77.6322L71.2337 77.2107L71.707 76.8434L72.2194 76.5334L72.7667 76.2833L73.3446 76.0956L73.9487 75.9724L74.5745 75.9155L75.2173 75.9265L75.8723 76.0066L76.5348 76.1566L77.1998 76.377L77.8624 76.6683L78.5178 77.0301L79.161 77.462L79.7872 77.9634L80.3916 78.5331L80.9694 79.1697L81.5161 79.8714L82.027 80.6362L82.498 81.4619L82.9246 82.3457L83.303 83.2847L83.6292 84.2758L83.8996 85.3155L84.1107 86.4002L84.2596 87.5259L84.343 88.6886L84.3586 89.884L84.3037 91.1075L84.1765 92.3547L83.975 93.6206L83.6979 94.9004L83.3438 96.1893L82.9121 97.482L82.4021 98.7736L81.8136 100.059L81.1468 101.333L80.4021 102.59L79.5803 103.826L78.6825 105.035L77.71 106.212L76.6648 107.353L75.5487 108.452L74.364 109.506L73.1136 110.51L71.8001 111.459L70.4268 112.349L68.9972 113.177L67.5148 113.938L65.9836 114.63L64.4077 115.25L62.7913 115.794L61.139 116.259L59.4552 116.645L57.7449 116.947L56.0128 117.166L54.264 117.3L52.5035 117.347L50.7363 117.306L48.9677 117.179L47.2028 116.963L45.4468 116.661L43.7047 116.271L41.9816 115.797L40.2826 115.237L38.6126 114.595L36.9763 113.872L35.3785 113.071L33.8236 112.194L32.316 111.243L30.8598 110.222L29.4591 109.134L28.1176 107.984L26.8387 106.773L25.6257 105.508L24.4817 104.192L23.4093 102.829L22.411 101.424L21.489 99.9816L20.6449 98.5071L19.8804 97.0053L19.1967 95.4812L18.5947 93.94L18.0749 92.3868L17.6375 90.8269L17.2824 89.2654L17.0093 87.7074L16.8173 86.1582L16.7054 84.6228L16.6723 83.1061L16.7161 81.613L16.835 80.1483L17.0266 78.7165L17.2883 77.3221L17.6173 75.9693L18.0105 74.6621L18.4645 73.4044L18.9757 72.1998L19.5404 71.0515L20.1546 69.9627L20.8139 68.9361L21.5142 67.9743L22.2509 67.0795L23.0194 66.2536L23.8149 65.4981L24.6327 64.8144L25.4679 64.2033L26.3154 63.6656L27.1705 63.2014L28.0282 62.8108L28.8834 62.4934L29.7314 62.2485L30.5672 62.075L31.3862 61.9716L32.1837 61.9366L32.9552 61.9681L33.6963 62.0638L34.4027 62.2211L35.0705 62.4372L35.6957 62.709L36.2748 63.0332L36.8043 63.4061L37.281 63.824L37.7022 64.2829L38.065 64.7785L38.3671 65.3065L38.6065 65.8624L38.7814 66.4415L38.8904 67.0392L38.9322 67.6504L38.906 68.2705L38.8113 68.8942L38.6479 69.5168L38.416 70.1332L38.116 70.7385L37.7486 71.3277L37.3151 71.8959L36.8167 72.4384L36.2552 72.9505L35.6326 73.4276L34.9513 73.8653L34.2138 74.2593L33.4231 74.6057L32.5822 74.9004L31.6945 75.1399L30.7637 75.3206L29.7935 75.4395L28.7881 75.4936L27.7515 75.4803L26.6883 75.3971L25.603 75.242L24.5001 75.0133L23.3845 74.7094L22.261 74.3293L21.1346 73.8721L20.0103 73.3374L18.893 72.725L17.7878 72.0351L16.6996 71.2682L15.6334 70.4251L14.5942 69.5071L13.5867 68.5155L12.6156 67.4523L11.6857 66.3195L10.8012 65.1196L9.96662 63.8553L9.18598 62.5296L8.46326 61.1457L7.80217 59.7071L7.20621 58.2177L6.67867 56.6814L6.22253 55.1025L5.84053 53.4852L5.53514 51.8342L5.30852 50.1542L5.16254 48.45L5.09876 46.7267L5.11842 44.9893L5.22246 43.2429L5.41147 41.4927L5.68574 39.744L6.0452 38.0019L6.48948 36.2719L7.01786 34.5589L7.62932 32.8682L8.3225 31.2048L9.09573 29.5737L9.94704 27.9798L10.8742 26.4278L11.8745 24.9221L12.9453 23.4673L14.0833 22.0675L15.2852 20.7267L16.5474 19.4485L17.8661 18.2367L19.2372 17.0943L20.6564 16.0244L22.1194 15.0297L23.6216 14.1126L25.1582 13.2752L26.7244 12.5193L28.3153 11.8463L29.9259 11.2575L31.551 10.7535L33.1857 10.3351L34.8246 10.0021L36.4629 9.75464L38.0952 9.59201L39.7166 9.51344L41.3222 9.51775L42.9069 9.60343L44.4661 9.7687L45.9951 10.0114L47.4893 10.3292L48.9445 10.7194L50.3565 11.179L51.7213 11.7047L53.0353 12.2931L54.2948 12.9404L55.4967 13.6428L56.6379 14.3961L57.7158 15.1959L58.728 16.0379L59.6721 16.9173L60.5466 17.8294L61.3497 18.7693L62.0803 19.7322L62.7376 20.713L63.3208 21.7067L63.8299 22.7081L64.2649 23.7122L64.6261 24.7141L64.9144 25.7086L65.1307 26.6908L65.2764 27.656L65.3533 28.5993L65.3632 29.5162L65.3085 30.4021L65.1917 31.2528L65.0156 32.0641L64.7833 32.8322L64.4981 33.5533L64.1635 34.224L63.7834 34.8411L63.3616 35.4016L62.9024 35.9029L62.41 36.3424L61.8888 36.7183L61.3435 37.0286L60.7788 37.2719L60.1993 37.447L59.6099 37.5532L59.0155 37.5898L58.421 37.5568L57.8313 37.4543L57.2512 37.2827L56.6855 37.0429L56.1391 36.7361L55.6166 36.3636L55.1226 35.9273L54.6615 35.4292L54.2377 34.8717L53.8553 34.2575L53.5183 33.5895L53.2304 32.8709L52.9952 32.1052L52.8161 31.296L52.6961 30.4473L52.6381 29.5631L52.6446 28.6477L52.718 27.7057L52.8601 26.7416L53.0727 25.7601L53.3572 24.7661L53.7146 23.7645L54.1457 22.7604L54.6509 21.7587L55.2303 20.7645L55.8837 19.7829L56.6105 18.819L57.4099 17.8777L58.2807 16.964L59.2213 16.0828L60.2299 15.2388L61.3044 14.4366L62.4424 13.6808L63.6412 12.9757L64.8979 12.3254L66.209 11.7338L67.5713 11.2048L68.9809 10.7417L70.434 10.3478L71.9263 10.0262L73.4535 9.77946L75.0113 9.61009L76.5948 9.52021L78.1994 9.51163L79.8201 9.58586L81.452 9.74408L83.09 9.98715L84.7291 10.3156L86.3641 10.7296L87.9899 11.2291L89.6013 11.8136L91.1934 12.4822L92.761 13.2338L94.2993 14.067L95.8033 14.98L97.2685 15.9707L98.6901 17.0368L100.064 18.1754L101.385 19.3838L102.651 20.6585L103.856 21.9962L104.997 23.393L106.072 24.8451L107.076 26.3482L108.007 27.8979L108.862 29.4898L109.639 31.119L110.337 32.7808L110.952 34.4702L111.485 36.1822L111.934 37.9115L112.298 39.653L112.576 41.4015L112.77 43.1518L112.878 44.8985L112.902 46.6365L112.843 48.3607L112.701 50.066L112.479 51.7474L112.177 53.4L111.799 55.0191L111.347 56.6002L110.823 58.1388L110.231 59.6308L109.573 61.072L108.853 62.4589L108.075 63.7877L107.244 65.0553L106.362 66.2587L105.434 67.395L104.465 68.4619L103.459 69.4572L102.421 70.3792L101.357 71.2262L100.269 71.9971L99.165 72.691L98.0482 73.3075L96.9241 73.8462L95.7977 74.3074L94.674 74.6915L93.5578 74.9993L92.4542 75.2319L91.3678 75.3908L90.3033 75.4777L89.2653 75.4946L88.2581 75.444L87.286 75.3284L86.353 75.1507L85.463 74.9143L84.6196 74.6223L83.8261 74.2786L83.0858 73.8869L82.4015 73.4514L81.7758 72.9762L81.2111 72.4659L80.7094 71.9248L80.2724 71.3578L79.9016 70.7696L79.598 70.1651L79.3625 69.5491L79.1956 68.9267L79.0973 68.3029L79.0676 67.6826L79.1059 67.0707L79.2113 66.4723L79.3828 65.892L79.6189 65.3348L79.9179 64.8052L80.2776 64.3078L80.6957 63.8469L81.1696 63.4268L81.6965 63.0514L82.2731 62.7246L82.896 62.45L83.5616 62.2309L84.2661 62.0705L85.0055 61.9715L85.7755 61.9366L86.5718 61.9681L87.3898 62.0679L88.2248 62.2377L89.0723 62.4789L89.9273 62.7925L90.7849 63.1793L91.6402 63.6396L92.4883 64.1735L93.3243 64.7807L94.1431 65.4607L94.9399 66.2125L95.7099 67.0348L96.4483 67.9261L97.1506 68.8844L97.8123 69.9077L98.4288 70.9933L98.9962 72.1386L99.5104 73.3403L99.9674 74.5954L100.364 75.9L100.696 77.2506L100.962 78.6429L101.157 80.0729L101.28 81.536L101.327 83.0277L101.298 84.5433L101.191 86.0779L101.003 87.6265L100.734 89.1841L100.383 90.7456L99.95 92.3057L99.4345 93.8594L98.8367 95.4013L98.1573 96.9264L97.397 98.4295L96.557 99.9055L95.639 101.349L94.6446 102.756L93.576 104.122L92.4356 105.441L91.2262 106.709L89.9507 107.922L88.6123 109.076L87.2146 110.167L85.7613 111.191L84.2562 112.146L82.7037 113.027L81.108 113.833L79.4736 114.56L77.8052 115.206L76.1076 115.77L74.3857 116.249L72.6444 116.643L70.889 116.95L69.1244 117.17L67.3559 117.302L65.5885 117.347L63.8275 117.304L62.078 117.175L60.3449 116.961L58.6333 116.662L56.9481 116.281L55.294 115.82L53.6756 115.28L52.0974 114.664L50.5638 113.976L49.0788 113.218L47.6463 112.393L46.2701 111.506L44.9534 110.56L43.6996 109.56L42.5114 108.508L41.3917 107.411L40.3427 106.272L39.3664 105.097L38.4647 103.889L37.6389 102.655L36.8902 101.399L36.2193 100.126L35.6267 98.8407L35.1126 97.5494L34.6768 96.2565L34.3187 94.9674L34.0376 93.6869L33.8322 92.4202L33.7012 91.172L33.6426 89.9471L33.6545 88.7501L33.7345 87.5856L33.88 86.4578L34.088 85.3709L34.3554 84.3288L34.6788 83.3351L35.0545 82.3932L35.4788 81.5065L35.9475 80.6778L36.4565 79.9097L37.0014 79.2046L37.5777 78.5646L38.1808 77.9914L38.806 77.4864L39.4484 77.0508L40.1033 76.6854L40.7657 76.3905L41.4307 76.1663L42.0934 76.0127L42.7489 75.929L43.3925 75.9144L44.0193 75.9678L44.6246 76.0876L45.204 76.2719L45.753 76.5188L46.2673 76.8258L46.7428 77.1902L47.1755 77.6089L47.5618 78.0789L47.8981 78.5966L48.1811 79.1583L48.4078 79.7601L48.5755 80.3979L48.6816 81.0673L48.724 81.764L48.7007 82.4834L48.61 83.2207L48.4508 83.9711L48.2219 84.7297L47.9228 85.4916L47.553 86.2517L47.1126 87.005L46.6018 87.7466L46.0213 88.4714L45.372 89.1745L44.6552 89.8511L43.8724 90.4962L43.0255 91.1054L42.1168 91.674L41.1487 92.1977L40.1239 92.6723L39.0455 93.0936L37.9167 93.4579L36.7412 93.7616L35.5225 94.0013L34.2647 94.1739L32.972 94.2766L31.6487 94.3067L30.2992 94.2621L28.9283 94.1406L27.5407 93.9407L26.1412 93.6609L24.7348 93.3003L23.3266 92.8582L21.9216 92.3341L20.5248 91.728L19.1413 91.0402L17.7762 90.2713L16.4345 89.4223L15.121 88.4945L13.8408 87.4893L12.5985 86.4089L11.3987 85.2553L10.2459 84.0312L9.14451 82.7393L8.09856 81.3827L7.11199 79.9648L6.18855 78.4891L5.3317 76.9596L4.54469 75.3803L3.83051 73.7555L3.19184 72.0896L2.63113 70.3873L2.1505 68.6533L1.75177 66.8925L1.43647 65.11L1.20579 63.3109L1.06061 61.5003L1.00148 59.6835" stroke="url(#paint0_radial_501_685)" stroke-width="2"/>
<defs>
<radialGradient id="paint0_radial_501_685" cx="0" cy="0" r="1" gradientUnits="userSpaceOnUse" gradientTransform="translate(20.433 21.3776) rotate(54.4147) scale(125.359)">
<stop stop-color="#F0C6FF"/>
<stop offset="1" stop-color="#C6D6FF"/>
</radialGradient>
</defs>
</svg>
