<svg width="248" height="38" viewBox="0 0 248 38" fill="none" xmlns="http://www.w3.org/2000/svg">
<path d="M23.4604 31.4526V24.7497L17.5953 18.8845L23.4604 13.0194V6.31641L10.9567 18.8845L23.4604 31.4526Z" fill="#ED1C24"/>
<path d="M0 37.7687H37.8332V0H0V37.7687ZM4.70498 4.70498H33.0637V33.0637H4.70498V4.70498Z" fill="#ED1C24"/>
<path d="M58.5222 4.12491C60.2624 4.12491 62.196 4.76943 64.194 5.99401C64.3229 5.73621 64.4518 5.09169 64.3873 3.86711C64.3873 2.70698 64.3229 1.93356 64.194 1.6113C62.5827 0.644521 60.5847 0.128906 58.2644 0.128906C54.9129 0.128906 52.2704 1.09568 50.2724 3.09369C48.2744 5.02724 47.3076 7.4764 47.3076 10.3767C47.3076 13.2771 48.2744 15.6618 50.2724 17.6598C52.2704 19.5933 54.9774 20.6246 58.2644 20.6246C60.5847 20.6246 62.5827 20.1089 64.194 19.1422C64.3229 18.8199 64.3873 18.0465 64.3873 16.8864C64.3873 15.7262 64.3229 15.0173 64.194 14.7595C62.196 15.984 60.3269 16.6286 58.5222 16.6286C56.7176 16.6286 55.1707 16.0485 53.9461 14.9528C52.7216 13.7927 52.1415 12.3103 52.1415 10.4412C52.1415 8.57208 52.7216 7.02524 53.9461 5.92956C55.1707 4.70498 56.7176 4.12491 58.5222 4.12491Z" fill="#000051"/>
<path d="M86.2364 20.0445V0.580074C84.9474 0.386719 83.7228 0.386719 82.4982 0.580074L73.4105 11.988V0.580074C71.7992 0.322267 70.188 0.322267 68.6411 0.580074V20.0445C69.9301 20.2379 71.1547 20.2379 72.3793 20.0445L81.467 8.63654V20.0445C83.0783 20.3668 84.6896 20.3668 86.2364 20.0445Z" fill="#000051"/>
<path d="M108.537 20.0445V0.580074C106.925 0.322267 105.314 0.322267 103.767 0.580074V8.24983H95.7108V0.580074C94.0995 0.322267 92.4883 0.322267 90.9414 0.580074V20.0445C92.5527 20.3023 94.164 20.3023 95.7108 20.0445V12.2458H103.767V20.109C105.314 20.3668 106.925 20.3668 108.537 20.0445Z" fill="#000051"/>
<path d="M126.777 4.57609C127.034 3.28705 127.034 1.93356 126.777 0.580078H113.177V20.0445H126.777C127.034 18.691 127.034 17.402 126.777 16.0485H117.947V12.1814H125.681C125.939 10.8924 125.939 9.53887 125.681 8.18538H117.947V4.51163H126.777V4.57609Z" fill="#000051"/>
<path d="M143.727 2.38473C142.374 1.16014 140.634 0.580078 138.442 0.580078H130.773V20.0445C132.384 20.3023 133.995 20.3023 135.542 20.0445V13.6638H138.378C140.569 13.6638 142.31 13.0837 143.663 11.8591C145.016 10.6346 145.725 9.08771 145.725 7.15416C145.79 5.15615 145.081 3.60931 143.727 2.38473ZM138.442 9.66777H135.607V4.57609H138.442C139.86 4.57609 140.892 5.41396 140.892 7.15416C140.892 8.8299 139.86 9.66777 138.442 9.66777Z" fill="#000051"/>
<path d="M149.335 20.0445C150.946 20.3023 152.557 20.3023 154.104 20.0445V4.57609H162.161C162.418 3.28705 162.418 1.93356 162.161 0.580078H149.335V20.0445Z" fill="#000051"/>
<path d="M165.641 0.580074V20.0445C166.93 20.2379 168.155 20.2379 169.379 20.0445L178.467 8.63654V20.0445C180.078 20.3023 181.689 20.3023 183.236 20.0445V0.580074C181.947 0.386719 180.723 0.386719 179.498 0.580074L170.41 11.988V0.580074C168.864 0.322267 167.252 0.322267 165.641 0.580074Z" fill="#000051"/>
<path d="M187.619 7.02525C187.619 9.60332 189.037 11.7302 191.357 12.7615L186.652 20.0445C187.361 20.1734 188.199 20.2379 189.23 20.2379C190.262 20.2379 191.164 20.1734 191.873 20.0445L195.74 14.1149L196.191 13.4704H198.06V20.0445C199.671 20.3023 201.283 20.3023 202.83 20.0445V6.44519V0.580078H194.966C192.775 0.580078 191.035 1.16014 189.681 2.38473C188.263 3.54486 187.619 5.0917 187.619 7.02525ZM194.966 4.57609H197.931V5.34951V9.47442H195.611H194.902C193.484 9.47442 192.453 8.63655 192.453 7.02525C192.453 5.47841 193.549 4.57609 194.966 4.57609Z" fill="#000051"/>
<path d="M60.5846 25.8452V35.0618H57.362V25.8452C56.3953 25.7163 55.4285 25.7163 54.5262 25.8452V35.0618H51.3036V25.8452C50.3368 25.7163 49.37 25.7163 48.4677 25.8452V37.4465H63.485V25.8452C62.5182 25.7163 61.5514 25.7163 60.5846 25.8452Z" fill="#000051"/>
<path d="M76.3754 25.8452C75.9886 25.7807 75.4086 25.7163 74.6996 25.7163C73.9906 25.7163 73.4106 25.7807 73.0239 25.8452L69.1568 31.1302V25.8452C68.19 25.7163 67.2232 25.7163 66.3209 25.8452V37.4465C67.2877 37.5754 68.2544 37.5754 69.1568 37.4465V31.8392L73.1528 37.4465C73.5395 37.511 74.1195 37.5754 74.8285 37.5754C75.5375 37.5754 76.1175 37.511 76.5043 37.4465L72.186 31.4525L76.3754 25.8452Z" fill="#000051"/>
<path d="M83.465 25.5874C81.6603 25.5874 80.178 26.1675 79.0178 27.3276C77.8577 28.4878 77.2776 29.9057 77.2776 31.6459C77.2776 33.3216 77.8577 34.804 79.0178 35.9642C80.178 37.1243 81.6603 37.7044 83.465 37.7044C85.2696 37.7044 86.752 37.1243 87.9122 35.9642C89.0723 34.804 89.6524 33.3216 89.6524 31.6459C89.6524 29.9702 89.0723 28.4878 87.9122 27.3276C86.752 26.1675 85.2696 25.5874 83.465 25.5874ZM85.7853 34.3529C85.1407 34.9974 84.3673 35.3841 83.465 35.3841C82.5627 35.3841 81.7892 35.0618 81.1447 34.3529C80.5002 33.6439 80.178 32.806 80.178 31.6459C80.178 30.5502 80.5002 29.6479 81.1447 28.9389C81.7892 28.23 82.5627 27.9077 83.465 27.9077C84.3673 27.9077 85.1407 28.23 85.7853 28.9389C86.4298 29.5834 86.752 30.4858 86.752 31.6459C86.752 32.806 86.4298 33.7084 85.7853 34.3529Z" fill="#000051"/>
<path d="M92.8105 33.9016C92.7461 34.7395 92.2949 35.1907 91.6504 35.1907C91.457 35.1907 91.3281 35.1907 91.1348 35.1262C91.0059 35.8996 91.0059 36.7375 91.1348 37.5109C91.5215 37.6398 91.9727 37.7043 92.4883 37.7043C94.3574 37.7043 95.4531 36.5441 95.7109 34.1594L96.2909 28.2299H99.2557V37.4465C100.222 37.5754 101.189 37.5754 102.092 37.4465V25.8452H93.6484L92.8105 33.9016Z" fill="#000051"/>
<path d="M108.859 25.8452L104.154 37.4465C105.121 37.5755 106.152 37.5755 107.119 37.4465L107.957 35.2552H112.21L113.048 37.4465C114.015 37.5755 114.982 37.5755 116.013 37.4465L111.308 25.8452C110.47 25.7163 109.697 25.7163 108.859 25.8452ZM108.859 32.8705L110.084 29.519L111.308 32.8705H108.859Z" fill="#000051"/>
<path d="M130.708 31.0657C129.935 30.3568 128.839 30.0345 127.55 30.0345H125.874V28.2299H130.837C130.966 27.4564 130.966 26.683 130.837 25.8452H123.038V37.4465H127.614C128.904 37.4465 129.935 37.0598 130.773 36.4152C131.61 35.7063 131.997 34.8039 131.997 33.7083C131.933 32.6126 131.482 31.7103 130.708 31.0657ZM127.55 35.1262H125.874V32.3548H127.55C128.388 32.3548 129.032 32.8704 129.032 33.7083C128.968 34.6106 128.388 35.1262 127.55 35.1262Z" fill="#000051"/>
<path d="M142.309 25.8452L136.895 32.6771V25.8452C135.929 25.7163 134.962 25.7163 134.06 25.8452V37.4465C134.833 37.5755 135.542 37.5755 136.315 37.4465L141.729 30.6147V37.4465C142.696 37.5755 143.663 37.5755 144.565 37.4465V25.8452C143.792 25.7163 143.083 25.7163 142.309 25.8452Z" fill="#000051"/>
<path d="M153.524 31.517C154.491 31.0014 155.135 29.9701 155.135 28.81C155.135 26.8765 153.524 25.6519 150.946 25.6519C149.528 25.6519 148.368 25.9741 147.401 26.5542C147.337 26.7476 147.272 27.1987 147.272 27.9077C147.272 28.6167 147.337 29.0034 147.401 29.1323C148.626 28.4233 149.721 28.0366 150.753 28.0366C151.655 28.0366 152.235 28.4878 152.235 29.3256C152.235 30.099 151.784 30.6147 151.01 30.6147H149.335C149.206 31.3881 149.206 32.0971 149.335 32.8705H151.075C151.977 32.8705 152.428 33.2572 152.428 34.0951C152.428 34.9974 151.591 35.4485 150.688 35.4485C149.593 35.4485 148.432 35.0618 147.272 34.3529C147.208 34.4818 147.143 34.9329 147.143 35.5774C147.143 36.2864 147.208 36.7376 147.272 36.9309C148.239 37.511 149.464 37.8333 150.882 37.8333C152.235 37.8333 153.266 37.511 154.104 36.9309C154.942 36.3509 155.393 35.513 155.393 34.4173C155.329 33.0638 154.62 32.0326 153.524 31.517Z" fill="#000051"/>
<path d="M168.155 37.4465V25.8452C167.188 25.7163 166.221 25.7163 165.319 25.8452V30.4213H160.485V25.8452C159.518 25.7163 158.551 25.7163 157.649 25.8452V37.4465C158.616 37.5755 159.582 37.5755 160.485 37.4465V32.7416H165.319V37.4465C166.221 37.6399 167.188 37.6399 168.155 37.4465Z" fill="#000051"/>
<path d="M179.047 28.2299C179.176 27.4564 179.176 26.683 179.047 25.8452H170.926V37.4465H179.047C179.176 36.673 179.176 35.8352 179.047 35.0618H173.826V32.7415H178.467C178.596 31.9681 178.596 31.1946 178.467 30.3568H173.826V28.2299H179.047Z" fill="#000051"/>
<path d="M187.49 27.9722C188.521 27.9722 189.682 28.3589 190.842 29.0678C190.906 28.9389 190.971 28.4878 190.971 27.8433C190.971 27.1343 190.906 26.6831 190.842 26.4898C189.875 25.9097 188.715 25.5874 187.297 25.5874C185.299 25.5874 183.752 26.1675 182.527 27.3276C181.303 28.4878 180.723 29.9057 180.723 31.6459C180.723 33.3861 181.303 34.804 182.527 35.9642C183.752 37.1243 185.299 37.7044 187.297 37.7044C188.715 37.7044 189.875 37.3821 190.842 36.802C190.906 36.6087 190.971 36.1575 190.971 35.4486C190.971 34.7396 190.906 34.3529 190.842 34.224C189.617 34.9329 188.521 35.3197 187.49 35.3197C186.394 35.3197 185.492 34.9974 184.783 34.2884C184.074 33.5795 183.688 32.7416 183.688 31.5815C183.688 30.4858 184.074 29.5834 184.783 28.8745C185.492 28.2944 186.394 27.9722 187.49 27.9722Z" fill="#000051"/>
<path d="M197.609 25.8452L192.904 37.4465C193.871 37.5755 194.902 37.5755 195.869 37.4465L196.707 35.2552H200.961L201.798 37.4465C202.765 37.5755 203.732 37.5755 204.763 37.4465L200.058 25.8452C199.22 25.7163 198.382 25.7163 197.609 25.8452ZM200.058 32.8705H197.609L198.834 29.519L200.058 32.8705Z" fill="#000051"/>
</svg>
