<svg width="176" height="30" viewBox="0 0 176 30" fill="none" xmlns="http://www.w3.org/2000/svg">
<path d="M17.6019 17.9903L14.6721 15.0603L17.6019 12.1303V6.27039L8.8125 15.0603L17.6019 23.8502V17.9903Z" fill="#FF0040"/>
<path d="M0 0.394531V29.7264H29.3381V0.394531H0ZM25.1446 25.5327H4.19346V4.5802H25.1446V25.5327Z" fill="#FF0040"/>
<path d="M46.2072 25.106L48.3321 27.5047C47.9135 27.9877 47.4306 28.4062 46.8913 28.7604C45.684 29.5814 44.2915 30 42.6979 30C40.6454 30 38.931 29.3399 37.5546 28.0198C36.1863 26.6998 35.4941 25.0818 35.4941 23.1741C35.4941 21.2664 36.1783 19.6485 37.5546 18.3284C38.923 17.0083 40.6374 16.3483 42.6979 16.3483C44.2513 16.3483 45.6357 16.7668 46.8511 17.604C47.3904 17.9823 47.8572 18.4009 48.2355 18.8436L46.1106 21.2423C45.8289 20.9364 45.515 20.6547 45.1689 20.4132C44.372 19.8578 43.543 19.5841 42.6979 19.5841C41.6918 19.5841 40.8386 19.9302 40.1383 20.6305C39.4461 21.3228 39.1 22.176 39.1 23.1902C39.1 24.2044 39.4461 25.0496 40.1383 25.7499C40.8305 26.4422 41.6837 26.7964 42.6979 26.7964C43.535 26.7964 44.372 26.5227 45.2091 25.9673C45.5794 25.6936 45.9094 25.4199 46.2072 25.106Z" fill="black"/>
<path d="M49.8613 29.6298V16.7106H53.3706V23.8182L58.9082 16.7106H61.9507V29.6298H58.4414V22.5222L52.9038 29.6298H49.8613Z" fill="black"/>
<path d="M64.582 29.6298V16.7106H68.0913V21.4194H72.7999V16.7106H76.3092V29.6298H72.7999V24.7358H68.0913V29.6298H64.582Z" fill="black"/>
<path d="M78.9414 29.6298V16.7106H88.8174V19.8498H82.4507V21.6931H87.3444V24.6472H82.4507V26.4905H89.0025V29.6298H78.9414Z" fill="black"/>
<path d="M90.9023 29.6298V16.7106H96.7136C98.1302 16.7106 99.2812 17.1372 100.175 17.9904C101.068 18.8437 101.511 19.9223 101.511 21.2263C101.511 22.5303 101.068 23.6089 100.175 24.4621C99.2812 25.3153 98.1302 25.742 96.7136 25.742H94.4036V29.6217H90.9023V29.6298ZM94.4117 22.6188H96.5366C96.939 22.6188 97.2931 22.482 97.5749 22.2002C97.8646 21.9266 98.0095 21.5965 98.0095 21.2343C98.0095 20.8721 97.8646 20.5421 97.5749 20.2684C97.2851 19.9947 96.939 19.8498 96.5366 19.8498H94.4117V22.6188Z" fill="black"/>
<path d="M103.418 29.6298V16.7106H112.465V20.035H106.927V29.6298H103.418Z" fill="black"/>
<path d="M113.994 29.6298V16.7106H117.503V23.8182L123.041 16.7106H126.084V29.6298H122.574V22.5222L117.037 29.6298H113.994Z" fill="black"/>
<path d="M127.701 29.6298L130.381 24.8324C129.963 24.6392 129.593 24.3655 129.271 24.0194C128.53 23.2789 128.16 22.321 128.16 21.1377C128.16 19.882 128.603 18.8276 129.488 17.9824C130.373 17.1372 131.5 16.7106 132.869 16.7106H138.962V29.6298H135.452V25.5729H133.512L131.388 29.6298H127.701ZM133.054 22.4337H135.452V19.8498H133.054C132.651 19.8498 132.313 19.9706 132.056 20.2201C131.798 20.4696 131.669 20.7755 131.669 21.1458C131.669 21.516 131.798 21.8219 132.056 22.0714C132.321 22.3129 132.651 22.4337 133.054 22.4337Z" fill="black"/>
<path d="M36.1863 13.1849V10.0457C36.307 10.094 36.4116 10.1262 36.5002 10.1342C36.7497 10.1986 37.0072 10.2228 37.297 10.2228C38.2307 10.2228 38.8746 9.8525 39.2368 9.11195L39.3253 8.92682L34.8984 0.346191H38.778L41.1363 5.69902H41.2088L43.2049 0.346191H47.0844L42.561 9.94104C42.0056 11.084 41.3617 11.9534 40.6212 12.549C39.8807 13.1447 38.9631 13.4425 37.8524 13.4425C37.3855 13.4425 36.975 13.4023 36.637 13.3137L36.1863 13.1849Z" fill="black"/>
<path d="M48.0508 13.2734V0.354126H51.5601V5.06302H56.2687V0.354126H59.778V13.2734H56.2687V8.37936H51.5601V13.2734H48.0508Z" fill="black"/>
<path d="M62.4102 13.2734V0.354126H65.9195V7.46173L71.4571 0.354126H74.4996V13.2734H70.9902V6.16578L65.4526 13.2734H62.4102Z" fill="black"/>
<path d="M77.1387 13.2734V0.354126H82.8614C84.278 0.354126 85.3807 0.684151 86.1856 1.33615C86.9824 1.98815 87.3849 2.80113 87.3849 3.77511C87.3849 4.65249 87.0549 5.36084 86.4029 5.91624C86.1534 6.12553 85.8395 6.30261 85.4451 6.45555C85.928 6.62459 86.3546 6.85802 86.741 7.13975C87.6022 7.80784 88.0368 8.65303 88.0368 9.68335C88.0368 10.7056 87.6183 11.5588 86.7812 12.2511C85.9441 12.9433 84.7931 13.2814 83.3282 13.2814H77.1387V13.2734ZM80.648 5.33669H82.5877C82.958 5.33669 83.2478 5.23205 83.4651 5.03081C83.6824 4.82958 83.787 4.56395 83.787 4.22588C83.787 3.89585 83.6824 3.62217 83.4651 3.42094C83.2478 3.21971 82.958 3.11506 82.5877 3.11506H80.648V5.33669ZM80.648 10.5124H83.0465C83.449 10.5124 83.787 10.3917 84.0446 10.1422C84.3022 9.89263 84.4309 9.58675 84.4309 9.21648C84.4309 8.84621 84.3022 8.54034 84.0446 8.29081C83.787 8.04128 83.457 7.92054 83.0465 7.92054H80.648V10.5124Z" fill="black"/>
<path d="M89.8398 13.2734V0.354126H99.7158V3.49338H93.3491V5.33669H98.2428V8.29081H93.3491V10.1341H99.9009V13.2734H89.8398Z" fill="black"/>
<path d="M101.793 13.2734V0.354126H107.604C109.021 0.354126 110.172 0.780746 111.065 1.63398C111.959 2.48721 112.401 3.56583 112.401 4.86983C112.401 6.17383 111.959 7.25245 111.065 8.10568C110.172 8.95891 109.021 9.38553 107.604 9.38553H105.294V13.2653H101.793V13.2734ZM105.302 6.26237H107.427C107.83 6.26237 108.184 6.12553 108.465 5.8438C108.755 5.57012 108.9 5.2401 108.9 4.87788C108.9 4.51566 108.755 4.18563 108.465 3.91196C108.176 3.63828 107.83 3.49338 107.427 3.49338H105.302V6.26237Z" fill="black"/>
<path d="M124.274 8.75771L126.398 11.1564C125.98 11.6394 125.497 12.058 124.958 12.4121C123.75 13.2332 122.358 13.6517 120.764 13.6517C118.712 13.6517 116.997 12.9917 115.621 11.6716C114.253 10.3515 113.561 8.73356 113.561 6.82586C113.561 4.91816 114.245 3.30024 115.621 1.98014C116.989 0.660047 118.704 0 120.764 0C122.318 0 123.702 0.418565 124.917 1.2557C125.457 1.63402 125.924 2.05259 126.302 2.4953L124.177 4.89401C123.895 4.58813 123.581 4.30641 123.235 4.06493C122.438 3.50952 121.609 3.23584 120.764 3.23584C119.758 3.23584 118.905 3.58197 118.205 4.28226C117.513 4.97451 117.166 5.82774 117.166 6.84196C117.166 7.85618 117.513 8.70137 118.205 9.40166C118.897 10.0939 119.75 10.4481 120.764 10.4481C121.601 10.4481 122.438 10.1744 123.276 9.61899C123.646 9.33726 123.984 9.06359 124.274 8.75771Z" fill="black"/>
<path d="M127.928 13.2734V0.354126H131.437V7.46173L136.975 0.354126H140.017V13.2734H136.508V6.16578L130.97 13.2734H127.928Z" fill="black"/>
<path d="M145.145 13.2734V3.49338H141.547V0.354126H152.252V3.49338H148.654V13.2734H145.145Z" fill="black"/>
<path d="M153.787 13.2734V0.354126H163.663V3.49338H157.296V5.33669H162.19V8.29081H157.296V10.1341H163.848V13.2734H153.787Z" fill="black"/>
<path d="M168.237 13.2734V3.49338H164.639V0.354126H175.344V3.49338H171.746V13.2734H168.237Z" fill="black"/>
</svg>
