<svg width="140" height="140" viewBox="0 0 140 140" fill="none" xmlns="http://www.w3.org/2000/svg">
<g opacity="0.15">
<circle cx="3.55299" cy="4.1393" r="3.15846" fill="white"/>
<circle cx="25.6624" cy="4.1393" r="3.15846" fill="white"/>
<circle cx="47.7717" cy="4.1393" r="3.15846" fill="white"/>
<circle cx="69.8811" cy="4.1393" r="3.15846" fill="white"/>
<circle cx="91.9905" cy="4.1393" r="3.15846" fill="white"/>
<circle cx="114.1" cy="4.1393" r="3.15846" fill="white"/>
<circle cx="136.209" cy="4.1393" r="3.15846" fill="white"/>
<circle cx="3.55299" cy="26.2486" r="3.15846" fill="white"/>
<circle cx="25.6624" cy="26.2486" r="3.15846" fill="white"/>
<circle cx="47.7717" cy="26.2486" r="3.15846" fill="white"/>
<circle cx="69.8811" cy="26.2486" r="3.15846" fill="white"/>
<circle cx="91.9905" cy="26.2486" r="3.15846" fill="white"/>
<circle cx="114.1" cy="26.2486" r="3.15846" fill="white"/>
<circle cx="136.209" cy="26.2486" r="3.15846" fill="white"/>
<circle cx="3.55299" cy="48.3578" r="3.15846" fill="white"/>
<circle cx="25.6624" cy="48.3578" r="3.15846" fill="white"/>
<circle cx="47.7717" cy="48.3578" r="3.15846" fill="white"/>
<circle cx="69.8811" cy="48.3578" r="3.15846" fill="white"/>
<circle cx="91.9905" cy="48.3578" r="3.15846" fill="white"/>
<circle cx="114.1" cy="48.3578" r="3.15846" fill="white"/>
<circle cx="136.209" cy="48.3578" r="3.15846" fill="white"/>
<circle cx="3.55299" cy="70.4671" r="3.15846" fill="white"/>
<circle cx="25.6624" cy="70.4671" r="3.15846" fill="white"/>
<circle cx="47.7717" cy="70.4671" r="3.15846" fill="white"/>
<circle cx="69.8811" cy="70.4671" r="3.15846" fill="white"/>
<circle cx="91.9905" cy="70.4671" r="3.15846" fill="white"/>
<circle cx="114.1" cy="70.4671" r="3.15846" fill="white"/>
<circle cx="136.209" cy="70.4671" r="3.15846" fill="white"/>
<circle cx="3.55299" cy="92.5763" r="3.15846" fill="white"/>
<circle cx="25.6624" cy="92.5763" r="3.15846" fill="white"/>
<circle cx="47.7717" cy="92.5763" r="3.15846" fill="white"/>
<circle cx="69.8811" cy="92.5763" r="3.15846" fill="white"/>
<circle cx="91.9905" cy="92.5763" r="3.15846" fill="white"/>
<circle cx="114.1" cy="92.5763" r="3.15846" fill="white"/>
<circle cx="136.209" cy="92.5763" r="3.15846" fill="white"/>
<circle cx="3.55299" cy="114.686" r="3.15846" fill="white"/>
<circle cx="25.6624" cy="114.686" r="3.15846" fill="white"/>
<circle cx="47.7717" cy="114.686" r="3.15846" fill="white"/>
<circle cx="69.8811" cy="114.686" r="3.15846" fill="white"/>
<circle cx="91.9905" cy="114.686" r="3.15846" fill="white"/>
<circle cx="114.1" cy="114.686" r="3.15846" fill="white"/>
<circle cx="136.209" cy="114.686" r="3.15846" fill="white"/>
<circle cx="3.55299" cy="136.795" r="3.15846" fill="white"/>
<circle cx="25.6624" cy="136.795" r="3.15846" fill="white"/>
<circle cx="47.7717" cy="136.795" r="3.15846" fill="white"/>
<circle cx="69.8811" cy="136.795" r="3.15846" fill="white"/>
<circle cx="91.9905" cy="136.795" r="3.15846" fill="white"/>
<circle cx="114.1" cy="136.795" r="3.15846" fill="white"/>
<circle cx="136.209" cy="136.795" r="3.15846" fill="white"/>
</g>
</svg>
