<svg width="60" height="200" viewBox="0 0 60 200" fill="none" xmlns="http://www.w3.org/2000/svg">
<g opacity="0.8">
<circle cx="58" cy="2" r="2" transform="rotate(90 58 2)" fill="white"/>
<circle cx="58" cy="16" r="2" transform="rotate(90 58 16)" fill="white"/>
<circle cx="58" cy="30" r="2" transform="rotate(90 58 30)" fill="white"/>
<circle cx="58" cy="44" r="2" transform="rotate(90 58 44)" fill="white"/>
<circle cx="58" cy="58" r="2" transform="rotate(90 58 58)" fill="white"/>
<circle cx="58" cy="72" r="2" transform="rotate(90 58 72)" fill="white"/>
<circle cx="58" cy="86" r="2" transform="rotate(90 58 86)" fill="white"/>
<circle cx="58" cy="100" r="2" transform="rotate(90 58 100)" fill="white"/>
<circle cx="58" cy="114" r="2" transform="rotate(90 58 114)" fill="white"/>
<circle cx="58" cy="128" r="2" transform="rotate(90 58 128)" fill="white"/>
<circle cx="58" cy="142" r="2" transform="rotate(90 58 142)" fill="white"/>
<circle cx="58" cy="156" r="2" transform="rotate(90 58 156)" fill="white"/>
<circle cx="58" cy="170" r="2" transform="rotate(90 58 170)" fill="white"/>
<circle cx="58" cy="184" r="2" transform="rotate(90 58 184)" fill="white"/>
<circle cx="58" cy="198" r="2" transform="rotate(90 58 198)" fill="white"/>
<circle cx="44" cy="2" r="2" transform="rotate(90 44 2)" fill="white"/>
<circle cx="44" cy="16" r="2" transform="rotate(90 44 16)" fill="white"/>
<circle cx="44" cy="30" r="2" transform="rotate(90 44 30)" fill="white"/>
<circle cx="44" cy="44" r="2" transform="rotate(90 44 44)" fill="white"/>
<circle cx="44" cy="58" r="2" transform="rotate(90 44 58)" fill="white"/>
<circle cx="44" cy="72" r="2" transform="rotate(90 44 72)" fill="white"/>
<circle cx="44" cy="86" r="2" transform="rotate(90 44 86)" fill="white"/>
<circle cx="44" cy="100" r="2" transform="rotate(90 44 100)" fill="white"/>
<circle cx="44" cy="114" r="2" transform="rotate(90 44 114)" fill="white"/>
<circle cx="44" cy="128" r="2" transform="rotate(90 44 128)" fill="white"/>
<circle cx="44" cy="142" r="2" transform="rotate(90 44 142)" fill="white"/>
<circle cx="44" cy="156" r="2" transform="rotate(90 44 156)" fill="white"/>
<circle cx="44" cy="170" r="2" transform="rotate(90 44 170)" fill="white"/>
<circle cx="44" cy="184" r="2" transform="rotate(90 44 184)" fill="white"/>
<circle cx="44" cy="198" r="2" transform="rotate(90 44 198)" fill="white"/>
<circle cx="30" cy="2" r="2" transform="rotate(90 30 2)" fill="white"/>
<circle cx="30" cy="16" r="2" transform="rotate(90 30 16)" fill="white"/>
<circle cx="30" cy="30" r="2" transform="rotate(90 30 30)" fill="white"/>
<circle cx="30" cy="44" r="2" transform="rotate(90 30 44)" fill="white"/>
<circle cx="30" cy="58" r="2" transform="rotate(90 30 58)" fill="white"/>
<circle cx="30" cy="72" r="2" transform="rotate(90 30 72)" fill="white"/>
<circle cx="30" cy="86" r="2" transform="rotate(90 30 86)" fill="white"/>
<circle cx="30" cy="100" r="2" transform="rotate(90 30 100)" fill="white"/>
<circle cx="30" cy="114" r="2" transform="rotate(90 30 114)" fill="white"/>
<circle cx="30" cy="128" r="2" transform="rotate(90 30 128)" fill="white"/>
<circle cx="30" cy="142" r="2" transform="rotate(90 30 142)" fill="white"/>
<circle cx="30" cy="156" r="2" transform="rotate(90 30 156)" fill="white"/>
<circle cx="30" cy="170" r="2" transform="rotate(90 30 170)" fill="white"/>
<circle cx="30" cy="184" r="2" transform="rotate(90 30 184)" fill="white"/>
<circle cx="30" cy="198" r="2" transform="rotate(90 30 198)" fill="white"/>
<circle cx="16" cy="2" r="2" transform="rotate(90 16 2)" fill="white"/>
<circle cx="16" cy="16" r="2" transform="rotate(90 16 16)" fill="white"/>
<circle cx="16" cy="30" r="2" transform="rotate(90 16 30)" fill="white"/>
<circle cx="16" cy="44" r="2" transform="rotate(90 16 44)" fill="white"/>
<circle cx="16" cy="58" r="2" transform="rotate(90 16 58)" fill="white"/>
<circle cx="16" cy="72" r="2" transform="rotate(90 16 72)" fill="white"/>
<circle cx="16" cy="86" r="2" transform="rotate(90 16 86)" fill="white"/>
<circle cx="16" cy="100" r="2" transform="rotate(90 16 100)" fill="white"/>
<circle cx="16" cy="114" r="2" transform="rotate(90 16 114)" fill="white"/>
<circle cx="16" cy="128" r="2" transform="rotate(90 16 128)" fill="white"/>
<circle cx="16" cy="142" r="2" transform="rotate(90 16 142)" fill="white"/>
<circle cx="16" cy="156" r="2" transform="rotate(90 16 156)" fill="white"/>
<circle cx="16" cy="170" r="2" transform="rotate(90 16 170)" fill="white"/>
<circle cx="16" cy="184" r="2" transform="rotate(90 16 184)" fill="white"/>
<circle cx="16" cy="198" r="2" transform="rotate(90 16 198)" fill="white"/>
<circle cx="2" cy="2" r="2" transform="rotate(90 2 2)" fill="white"/>
<circle cx="2" cy="16" r="2" transform="rotate(90 2 16)" fill="white"/>
<circle cx="2" cy="30" r="2" transform="rotate(90 2 30)" fill="white"/>
<circle cx="2" cy="44" r="2" transform="rotate(90 2 44)" fill="white"/>
<circle cx="2" cy="58" r="2" transform="rotate(90 2 58)" fill="white"/>
<circle cx="2" cy="72" r="2" transform="rotate(90 2 72)" fill="white"/>
<circle cx="2" cy="86" r="2" transform="rotate(90 2 86)" fill="white"/>
<circle cx="2" cy="100" r="2" transform="rotate(90 2 100)" fill="white"/>
<circle cx="2" cy="114" r="2" transform="rotate(90 2 114)" fill="white"/>
<circle cx="2" cy="128" r="2" transform="rotate(90 2 128)" fill="white"/>
<circle cx="2" cy="142" r="2" transform="rotate(90 2 142)" fill="white"/>
<circle cx="2" cy="156" r="2" transform="rotate(90 2 156)" fill="white"/>
<circle cx="2" cy="170" r="2" transform="rotate(90 2 170)" fill="white"/>
<circle cx="2" cy="184" r="2" transform="rotate(90 2 184)" fill="white"/>
<circle cx="2" cy="198" r="2" transform="rotate(90 2 198)" fill="white"/>
</g>
</svg>
